<?xml version="1.0" encoding="UTF-8" standalone="no"?>
<svg
   xmlns:dc="http://purl.org/dc/elements/1.1/"
   xmlns:cc="http://creativecommons.org/ns#"
   xmlns:rdf="http://www.w3.org/1999/02/22-rdf-syntax-ns#"
   xmlns:svg="http://www.w3.org/2000/svg"
   xmlns="http://www.w3.org/2000/svg"
   style="fill:none;stroke:none;stroke-linecap:square;stroke-miterlimit:10"
   height="281.30777"
   width="951.03308"
   id="svg109"
   stroke-miterlimit="10"
   viewBox="0 0 951.0331 281.30778"
   version="1.1">
  <metadata
     id="metadata115">
    <rdf:RDF>
      <cc:Work
         rdf:about="">
        <dc:format>image/svg+xml</dc:format>
        <dc:type
           rdf:resource="http://purl.org/dc/dcmitype/StillImage" />
        <dc:title></dc:title>
      </cc:Work>
    </rdf:RDF>
  </metadata>
  <defs
     id="defs113" />
  <clipPath
     id="p34.0">
    <path
       style="clip-rule:nonzero"
       id="path2"
       d="M 0,0 H 1305.4987 V 734.3333 H 0 Z" />
  </clipPath>
  <path
     d="m 245.53351,26.0116 v 0 c 0,-14.08966 11.42194,-25.5116 25.5116,-25.5116 h 163.9123 c 6.76605,0 13.25506,2.68784 18.03936,7.4722 4.78437,4.78433 7.47217,11.27332 7.47217,18.0394 v 102.0433 c 0,14.08966 -11.42187,25.51157 -25.51153,25.51157 h -163.9123 c -14.08966,0 -25.5116,-11.42191 -25.5116,-25.51157 z"
     id="path47"
     style="fill:#e06666;fill-rule:evenodd" />
  <path
     d="m 245.53351,26.0116 v 0 c 0,-14.08966 11.42194,-25.5116 25.5116,-25.5116 h 163.9123 c 6.76605,0 13.25506,2.68784 18.03936,7.4722 4.78437,4.78433 7.47217,11.27332 7.47217,18.0394 v 102.0433 c 0,14.08966 -11.42187,25.51157 -25.51153,25.51157 h -163.9123 c -14.08966,0 -25.5116,-11.42191 -25.5116,-25.51157 z"
     id="path49"
     style="fill-rule:evenodd;stroke:#002050;stroke-width:1;stroke-linecap:butt;stroke-linejoin:round" />
  <path
     d="m 339.56071,34.4104 q -0.42188,0 -0.82813,0 -0.40625,0 -0.76562,-0.0312 v 6.09375 h -2.8125 V 24.3167 q 0.35937,-0.0156 0.82812,-0.0312 0.48438,-0.0312 1.01563,-0.0469 0.53125,-0.0156 1.04687,-0.0156 0.53125,-0.0156 1,-0.0156 1.35938,0 2.48438,0.32813 1.14062,0.32812 1.9375,0.98437 0.8125,0.65625 1.25,1.625 0.4375,0.96875 0.4375,2.25 0,1.01563 -0.34375,1.92188 -0.34375,0.90625 -1.03125,1.59375 -0.67188,0.6875 -1.73438,1.09375 -1.0625,0.40625 -2.48437,0.40625 z m -0.125,-7.85938 q -0.39063,0 -0.76563,0 -0.35937,0 -0.70312,0.0312 v 5.45313 q 0.34375,0.0156 0.71875,0.0156 0.375,0 0.79687,0 1.32813,0 2,-0.73437 0.67188,-0.73438 0.67188,-2.125 0,-1.17188 -0.60938,-1.90625 -0.59375,-0.73438 -2.10937,-0.73438 z m 12.79333,2.29688 q 1.5,0 2.5625,0.5 1.07813,0.5 1.78125,1.34375 0.70313,0.84375 1.03125,1.9375 0.32813,1.09375 0.32813,2.29687 0,1.1875 -0.32813,2.25 -0.32812,1.0625 -1.03125,1.85938 -0.70312,0.79687 -1.76562,1.26562 -1.0625,0.46875 -2.5,0.46875 -1.5,0 -2.57813,-0.48437 -1.07812,-0.5 -1.78125,-1.3125 -0.70312,-0.82813 -1.04687,-1.90625 -0.34375,-1.07813 -0.34375,-2.26563 0,-1.20312 0.34375,-2.28125 0.34375,-1.07812 1.03125,-1.89062 0.70312,-0.82813 1.78125,-1.29688 1.07812,-0.48437 2.51562,-0.48437 z m 0.0469,9.89062 q 0.71875,0 1.23437,-0.29687 0.53125,-0.3125 0.875,-0.84375 0.34375,-0.53125 0.5,-1.20313 0.15625,-0.6875 0.15625,-1.45312 0,-0.78125 -0.17187,-1.5 -0.17188,-0.71875 -0.53125,-1.26563 -0.34375,-0.5625 -0.89063,-0.89062 -0.53125,-0.32813 -1.29687,-0.32813 -0.70313,0 -1.21875,0.3125 -0.51563,0.29688 -0.84375,0.8125 -0.32813,0.51563 -0.48438,1.20313 -0.15625,0.67187 -0.15625,1.4375 0,0.78125 0.15625,1.5 0.15625,0.71875 0.5,1.29687 0.35938,0.5625 0.89063,0.89063 0.54687,0.32812 1.28125,0.32812 z m 12.85516,2.03125 q -1.15625,0 -2.10937,-0.46875 -0.95313,-0.46875 -1.625,-1.26562 -0.67188,-0.8125 -1.04688,-1.90625 -0.35937,-1.10938 -0.35937,-2.40625 0,-1.15625 0.29687,-2.21875 0.3125,-1.0625 0.9375,-1.85938 0.64063,-0.8125 1.57813,-1.29687 0.95312,-0.5 2.25,-0.5 1.17187,0 2.09375,0.39062 0.9375,0.39063 1.5,1.10938 v -7.98438 h 2.67187 V 40.4729 h -2.15625 l -0.20312,-1.54688 h -0.0937 q -0.6875,0.76563 -1.5625,1.3125 -0.85938,0.53125 -2.17188,0.53125 z m 0.34375,-2.03125 q 0.39063,0 0.82813,-0.10937 0.4375,-0.10938 0.85937,-0.29688 0.4375,-0.20312 0.82813,-0.48437 0.39062,-0.28125 0.65625,-0.65625 v -4.70313 q -0.73438,-0.89062 -1.5,-1.21875 -0.75,-0.34375 -1.45313,-0.34375 -0.78125,0 -1.34375,0.3125 -0.5625,0.29688 -0.95312,0.84375 -0.375,0.53125 -0.5625,1.23438 -0.1875,0.70312 -0.1875,1.45312 0,0.73438 0.17187,1.45313 0.17188,0.71875 0.51563,1.28125 0.34375,0.54687 0.875,0.89062 0.54687,0.34375 1.26562,0.34375 z"
     id="path51"
     style="fill:#ffffff;fill-rule:nonzero" />
  <path
     d="m 263.47693,76.51685 v 0 c 0,-6.89255 5.58752,-12.48007 12.48007,-12.48007 h 56.4076 c 3.3099,0 6.48428,1.31488 8.82473,3.65533 2.34046,2.34049 3.65534,5.51483 3.65534,8.82474 v 49.91876 c 0,6.89255 -5.58753,12.48007 -12.48007,12.48007 H 275.957 c -6.89255,0 -12.48007,-5.58752 -12.48007,-12.48007 z"
     id="path53"
     style="fill:#990000;fill-rule:evenodd" />
  <path
     d="m 263.47693,76.51685 v 0 c 0,-6.89255 5.58752,-12.48007 12.48007,-12.48007 h 56.4076 c 3.3099,0 6.48428,1.31488 8.82473,3.65533 2.34046,2.34049 3.65534,5.51483 3.65534,8.82474 v 49.91876 c 0,6.89255 -5.58753,12.48007 -12.48007,12.48007 H 275.957 c -6.89255,0 -12.48007,-5.58752 -12.48007,-12.48007 z"
     id="path55"
     style="fill-rule:evenodd;stroke:#002050;stroke-width:1;stroke-linecap:butt;stroke-linejoin:round" />
  <path
     d="m 285.63223,88.19397 q -0.5,-0.375 -1.4375,-0.67188 -0.92187,-0.29687 -1.85937,-0.29687 -0.96875,0 -1.625,0.32812 -0.65625,0.32813 -1.09375,0.875 -0.4375,0.54688 -0.64063,1.25 -0.1875,0.70313 -0.1875,1.46875 0,0.84375 0.23438,1.625 0.23437,0.78125 0.70312,1.375 0.46875,0.59375 1.15625,0.9375 0.6875,0.34375 1.59375,0.34375 0.875,0 1.79688,-0.35937 0.92187,-0.375 1.53125,-0.9375 l 0.3125,1.40625 q -0.60938,0.39062 -1.67188,0.75 -1.04687,0.34375 -2.25,0.34375 -1.25,0 -2.20312,-0.4375 -0.9375,-0.4375 -1.5625,-1.15625 -0.625,-0.73438 -0.9375,-1.70313 -0.3125,-0.96875 -0.3125,-2.0625 0,-1.04687 0.28125,-1.98437 0.29687,-0.95313 0.92187,-1.67188 0.64063,-0.73437 1.60938,-1.15625 0.98437,-0.42187 2.35937,-0.42187 1.04688,0 2.04688,0.23437 1,0.23438 1.60937,0.625 z m 7.31641,-2.15625 q 1.32812,0 2.28125,0.45312 0.95312,0.4375 1.57812,1.1875 0.625,0.75 0.90625,1.71875 0.29688,0.96875 0.29688,2.03125 0,1.0625 -0.29688,2.01563 -0.28125,0.9375 -0.89062,1.65625 -0.60938,0.70312 -1.5625,1.125 -0.95313,0.40625 -2.23438,0.40625 -1.32812,0 -2.29687,-0.4375 -0.95313,-0.4375 -1.59375,-1.15625 -0.625,-0.73438 -0.9375,-1.6875 -0.29688,-0.96875 -0.29688,-2.03125 0,-1.0625 0.29688,-2.01563 0.3125,-0.96875 0.92187,-1.6875 0.625,-0.73437 1.57813,-1.15625 0.96875,-0.42187 2.25,-0.42187 z m 0.0625,9.4375 q 0.875,0 1.51562,-0.32813 0.64063,-0.32812 1.0625,-0.875 0.42188,-0.5625 0.60938,-1.28125 0.20312,-0.73437 0.20312,-1.54687 0,-0.8125 -0.20312,-1.57813 -0.20313,-0.76562 -0.64063,-1.34375 -0.4375,-0.57812 -1.10937,-0.92187 -0.65625,-0.34375 -1.5625,-0.34375 -0.89063,0 -1.53125,0.32812 -0.625,0.32813 -1.04688,0.875 -0.40625,0.53125 -0.60937,1.26563 -0.1875,0.71875 -0.1875,1.53125 0,0.82812 0.20312,1.59375 0.20313,0.75 0.625,1.34375 0.4375,0.57812 1.09375,0.9375 0.65625,0.34375 1.57813,0.34375 z m 14.76425,0.89062 v -6.60937 q 0,-1.3125 -0.59375,-1.875 -0.57813,-0.5625 -1.48438,-0.5625 -0.54687,0 -1.07812,0.17187 -0.53125,0.17188 -1,0.51563 -0.45313,0.32812 -0.79688,0.82812 -0.34375,0.48438 -0.54687,1.10938 v 6.42187 h -1.51563 v -10 h 1.1875 l 0.17188,1.85938 h 0.0937 q 0.28125,-0.90625 1.25,-1.54688 0.98437,-0.64062 2.4375,-0.64062 0.70312,0 1.3125,0.1875 0.625,0.17187 1.07812,0.59375 0.46875,0.40625 0.73438,1.09375 0.28125,0.67187 0.28125,1.64062 v 6.8125 z m 12.10373,-5.76562 v 1.14062 h -7.35938 v -1.14062 z"
     id="path57"
     style="fill:#ffffff;fill-rule:nonzero" />
  <path
     d="m 278.28848,113.38147 h -1.67187 v -0.79688 l 1.71875,-0.21875 0.3125,-3.03125 h 1.15625 v 3.03125 h 2.35937 v 1.01563 h -2.35937 v 6.9375 q 0,0.70312 0.20312,0.92187 0.21875,0.21875 0.65625,0.21875 0.5,0 0.89063,-0.15625 0.39062,-0.15625 0.6875,-0.375 l 0.3125,1.15625 q -0.375,0.17188 -0.98438,0.34375 -0.59375,0.17188 -1.3125,0.17188 -0.6875,0 -1.07812,-0.20313 -0.39063,-0.1875 -0.59375,-0.51562 -0.1875,-0.32813 -0.25,-0.71875 -0.0469,-0.40625 -0.0469,-0.79688 z m 12.69836,8.98437 -0.17187,-1.78125 h -0.0937 q -0.25,0.40625 -0.6875,0.78125 -0.4375,0.375 -0.96875,0.65625 -0.53125,0.28125 -1.15625,0.4375 -0.625,0.17188 -1.23438,0.17188 -1.42187,0 -2.14062,-0.82813 -0.71875,-0.84375 -0.71875,-2.10937 0,-1.25 0.625,-1.98438 0.625,-0.73437 1.53125,-1.10937 0.92187,-0.375 1.9375,-0.46875 1.01562,-0.10938 1.78125,-0.10938 h 0.96875 v -0.26562 q 0,-0.82813 -0.23438,-1.26563 -0.21875,-0.4375 -0.65625,-0.73437 -0.375,-0.25 -0.79687,-0.34375 -0.42188,-0.0937 -1.10938,-0.0937 -0.92187,0 -1.625,0.25 -0.6875,0.23437 -1.34375,0.625 l -0.34375,-1.3125 q 1.45313,-0.84375 3.48438,-0.84375 0.79687,0 1.51562,0.14062 0.71875,0.14063 1.26563,0.48438 0.625,0.39062 1,1.10937 0.375,0.71875 0.375,1.78125 v 6.8125 z m -3.84375,-1.01562 q 0.89063,0 1.89063,-0.5625 1,-0.57813 1.625,-1.64063 v -2.01562 h -0.1875 q -0.89063,0 -1.79688,0.0625 -0.89062,0.0625 -1.625,0.32812 -0.71875,0.25 -1.17187,0.75 -0.45313,0.48438 -0.45313,1.32813 0,0.85937 0.46875,1.3125 0.46875,0.4375 1.25,0.4375 z m 9.84711,1.01562 h -1.51562 v -10 h 1.51562 z m -1.84375,-13.65625 q 0,-0.4375 0.3125,-0.78125 0.3125,-0.35937 0.76563,-0.35937 0.4375,0 0.78125,0.35937 0.35937,0.34375 0.35937,0.78125 0,0.45313 -0.35937,0.76563 -0.34375,0.3125 -0.78125,0.3125 -0.45313,0 -0.76563,-0.3125 -0.3125,-0.3125 -0.3125,-0.76563 z m 12.25925,13.65625 v -6.60937 q 0,-1.3125 -0.59375,-1.875 -0.57813,-0.5625 -1.48438,-0.5625 -0.54687,0 -1.07812,0.17187 -0.53125,0.17188 -1,0.51563 -0.45313,0.32812 -0.79688,0.82812 -0.34375,0.48438 -0.54687,1.10938 v 6.42187 h -1.51563 v -10 h 1.1875 l 0.17188,1.85938 h 0.0937 q 0.28125,-0.90625 1.25,-1.54688 0.98437,-0.64062 2.4375,-0.64062 0.70312,0 1.3125,0.1875 0.625,0.17187 1.07812,0.59375 0.46875,0.40625 0.73438,1.09375 0.28125,0.67187 0.28125,1.64062 v 6.8125 z m 9.30685,-10.32812 q 1.92188,0 2.95313,0.96875 1.04687,0.96875 1.04687,2.71875 0,0.375 -0.0469,0.76562 -0.0312,0.375 -0.14063,0.54688 h -7.32812 v 0.21875 q 0,0.82812 0.21875,1.59375 0.21875,0.75 0.64062,1.34375 0.4375,0.57812 1.09375,0.9375 0.67188,0.34375 1.59375,0.34375 0.51563,0 1.01563,-0.10938 0.5,-0.125 0.95312,-0.3125 0.46875,-0.1875 0.85938,-0.40625 0.39062,-0.21875 0.6875,-0.4375 l 0.26562,1.25 q -0.28125,0.17188 -0.70312,0.375 -0.40625,0.20313 -0.90625,0.375 -0.5,0.17188 -1.10938,0.29688 -0.59375,0.125 -1.23437,0.125 -1.21875,0 -2.15625,-0.42188 -0.9375,-0.4375 -1.57813,-1.15625 -0.625,-0.73437 -0.95312,-1.6875 -0.32813,-0.95312 -0.32813,-2 0,-1.0625 0.34375,-2.03125 0.34375,-0.96875 0.98438,-1.70312 0.65625,-0.75 1.625,-1.17188 0.96875,-0.42187 2.20312,-0.42187 z m -0.0625,1.21875 q -1.4375,0 -2.23437,0.75 -0.78125,0.75 -1.0625,1.875 h 5.9375 q 0.0156,-0.10938 0.0156,-0.1875 0,-0.0937 0,-0.20313 0,-0.54687 -0.21875,-0.96875 -0.21875,-0.42187 -0.59375,-0.70312 -0.35937,-0.28125 -0.84375,-0.42188 -0.46875,-0.14062 -1,-0.14062 z m 12.2291,0.71875 q -0.34375,-0.20313 -0.70313,-0.3125 -0.34375,-0.125 -0.67187,-0.125 -0.4375,0 -0.82813,0.23437 -0.39062,0.23438 -0.71875,0.65625 -0.32812,0.40625 -0.57812,0.95313 -0.25,0.54687 -0.375,1.14062 v 5.84375 h -1.51563 v -10 h 1.1875 l 0.17188,2.1875 h 0.0937 q 0.15625,-0.5 0.40625,-0.95312 0.25,-0.45313 0.60937,-0.79688 0.35938,-0.35937 0.8125,-0.5625 0.45313,-0.20312 1.04688,-0.20312 0.40625,0 0.85937,0.14062 0.45313,0.14063 0.65625,0.35938 z"
     id="path59"
     style="fill:#ffffff;fill-rule:nonzero" />
  <path
     d="m 361.20868,76.51685 v 0 c 0,-6.89255 5.58752,-12.48007 12.48004,-12.48007 h 56.40766 c 3.30987,0 6.48425,1.31488 8.8247,3.65533 2.34046,2.34049 3.65534,5.51483 3.65534,8.82474 v 49.91876 c 0,6.89255 -5.58753,12.48007 -12.48004,12.48007 h -56.40766 c -6.89252,0 -12.48004,-5.58752 -12.48004,-12.48007 z"
     id="path61"
     style="fill:#990000;fill-rule:evenodd" />
  <path
     d="m 361.20868,76.51685 v 0 c 0,-6.89255 5.58752,-12.48007 12.48004,-12.48007 h 56.40766 c 3.30987,0 6.48425,1.31488 8.8247,3.65533 2.34046,2.34049 3.65534,5.51483 3.65534,8.82474 v 49.91876 c 0,6.89255 -5.58753,12.48007 -12.48004,12.48007 h -56.40766 c -6.89252,0 -12.48004,-5.58752 -12.48004,-12.48007 z"
     id="path63"
     style="fill-rule:evenodd;stroke:#002050;stroke-width:1;stroke-linecap:butt;stroke-linejoin:round" />
  <path
     d="m 383.36395,88.19397 q -0.5,-0.375 -1.4375,-0.67188 -0.92188,-0.29687 -1.85938,-0.29687 -0.96875,0 -1.625,0.32812 -0.65625,0.32813 -1.09375,0.875 -0.4375,0.54688 -0.64062,1.25 -0.1875,0.70313 -0.1875,1.46875 0,0.84375 0.23437,1.625 0.23438,0.78125 0.70313,1.375 0.46875,0.59375 1.15625,0.9375 0.6875,0.34375 1.59375,0.34375 0.875,0 1.79687,-0.35937 0.92188,-0.375 1.53125,-0.9375 l 0.3125,1.40625 q -0.60937,0.39062 -1.67187,0.75 -1.04688,0.34375 -2.25,0.34375 -1.25,0 -2.20313,-0.4375 -0.9375,-0.4375 -1.5625,-1.15625 -0.625,-0.73438 -0.9375,-1.70313 -0.3125,-0.96875 -0.3125,-2.0625 0,-1.04687 0.28125,-1.98437 0.29688,-0.95313 0.92188,-1.67188 0.64062,-0.73437 1.60937,-1.15625 0.98438,-0.42187 2.35938,-0.42187 1.04687,0 2.04687,0.23437 1,0.23438 1.60938,0.625 z m 7.31647,-2.15625 q 1.32812,0 2.28125,0.45312 0.95312,0.4375 1.57812,1.1875 0.625,0.75 0.90625,1.71875 0.29688,0.96875 0.29688,2.03125 0,1.0625 -0.29688,2.01563 -0.28125,0.9375 -0.89062,1.65625 -0.60938,0.70312 -1.5625,1.125 -0.95313,0.40625 -2.23438,0.40625 -1.32812,0 -2.29687,-0.4375 -0.95313,-0.4375 -1.59375,-1.15625 -0.625,-0.73438 -0.9375,-1.6875 -0.29688,-0.96875 -0.29688,-2.03125 0,-1.0625 0.29688,-2.01563 0.3125,-0.96875 0.92187,-1.6875 0.625,-0.73437 1.57813,-1.15625 0.96875,-0.42187 2.25,-0.42187 z m 0.0625,9.4375 q 0.875,0 1.51562,-0.32813 0.64063,-0.32812 1.0625,-0.875 0.42188,-0.5625 0.60938,-1.28125 0.20312,-0.73437 0.20312,-1.54687 0,-0.8125 -0.20312,-1.57813 -0.20313,-0.76562 -0.64063,-1.34375 -0.4375,-0.57812 -1.10937,-0.92187 -0.65625,-0.34375 -1.5625,-0.34375 -0.89063,0 -1.53125,0.32812 -0.625,0.32813 -1.04688,0.875 -0.40625,0.53125 -0.60937,1.26563 -0.1875,0.71875 -0.1875,1.53125 0,0.82812 0.20312,1.59375 0.20313,0.75 0.625,1.34375 0.4375,0.57812 1.09375,0.9375 0.65625,0.34375 1.57813,0.34375 z m 14.76422,0.89062 v -6.60937 q 0,-1.3125 -0.59375,-1.875 -0.57813,-0.5625 -1.48438,-0.5625 -0.54687,0 -1.07812,0.17187 -0.53125,0.17188 -1,0.51563 -0.45313,0.32812 -0.79688,0.82812 -0.34375,0.48438 -0.54687,1.10938 v 6.42187 h -1.51563 v -10 h 1.1875 l 0.17188,1.85938 h 0.0937 q 0.28125,-0.90625 1.25,-1.54688 0.98437,-0.64062 2.4375,-0.64062 0.70312,0 1.3125,0.1875 0.625,0.17187 1.07812,0.59375 0.46875,0.40625 0.73438,1.09375 0.28125,0.67187 0.28125,1.64062 v 6.8125 z m 12.1037,-5.76562 v 1.14062 h -7.35938 v -1.14062 z"
     id="path65"
     style="fill:#ffffff;fill-rule:nonzero" />
  <path
     d="m 376.02021,113.38147 h -1.67187 v -0.79688 l 1.71875,-0.21875 0.3125,-3.03125 h 1.15625 v 3.03125 h 2.35937 v 1.01563 h -2.35937 v 6.9375 q 0,0.70312 0.20312,0.92187 0.21875,0.21875 0.65625,0.21875 0.5,0 0.89063,-0.15625 0.39062,-0.15625 0.6875,-0.375 l 0.3125,1.15625 q -0.375,0.17188 -0.98438,0.34375 -0.59375,0.17188 -1.3125,0.17188 -0.6875,0 -1.07812,-0.20313 -0.39063,-0.1875 -0.59375,-0.51562 -0.1875,-0.32813 -0.25,-0.71875 -0.0469,-0.40625 -0.0469,-0.79688 z m 12.69836,8.98437 -0.17187,-1.78125 h -0.0937 q -0.25,0.40625 -0.6875,0.78125 -0.4375,0.375 -0.96875,0.65625 -0.53125,0.28125 -1.15625,0.4375 -0.625,0.17188 -1.23438,0.17188 -1.42187,0 -2.14062,-0.82813 -0.71875,-0.84375 -0.71875,-2.10937 0,-1.25 0.625,-1.98438 0.625,-0.73437 1.53125,-1.10937 0.92187,-0.375 1.9375,-0.46875 1.01562,-0.10938 1.78125,-0.10938 h 0.96875 v -0.26562 q 0,-0.82813 -0.23438,-1.26563 -0.21875,-0.4375 -0.65625,-0.73437 -0.375,-0.25 -0.79687,-0.34375 -0.42188,-0.0937 -1.10938,-0.0937 -0.92187,0 -1.625,0.25 -0.6875,0.23437 -1.34375,0.625 l -0.34375,-1.3125 q 1.45313,-0.84375 3.48438,-0.84375 0.79687,0 1.51562,0.14062 0.71875,0.14063 1.26563,0.48438 0.625,0.39062 1,1.10937 0.375,0.71875 0.375,1.78125 v 6.8125 z m -3.84375,-1.01562 q 0.89063,0 1.89063,-0.5625 1,-0.57813 1.625,-1.64063 v -2.01562 h -0.1875 q -0.89063,0 -1.79688,0.0625 -0.89062,0.0625 -1.625,0.32812 -0.71875,0.25 -1.17187,0.75 -0.45313,0.48438 -0.45313,1.32813 0,0.85937 0.46875,1.3125 0.46875,0.4375 1.25,0.4375 z m 9.84711,1.01562 h -1.51562 v -10 h 1.51562 z m -1.84375,-13.65625 q 0,-0.4375 0.3125,-0.78125 0.3125,-0.35937 0.76563,-0.35937 0.4375,0 0.78125,0.35937 0.35937,0.34375 0.35937,0.78125 0,0.45313 -0.35937,0.76563 -0.34375,0.3125 -0.78125,0.3125 -0.45313,0 -0.76563,-0.3125 -0.3125,-0.3125 -0.3125,-0.76563 z m 12.25928,13.65625 v -6.60937 q 0,-1.3125 -0.59375,-1.875 -0.57813,-0.5625 -1.48438,-0.5625 -0.54687,0 -1.07812,0.17187 -0.53125,0.17188 -1,0.51563 -0.45313,0.32812 -0.79688,0.82812 -0.34375,0.48438 -0.54687,1.10938 v 6.42187 h -1.51563 v -10 h 1.1875 l 0.17188,1.85938 h 0.0937 q 0.28125,-0.90625 1.25,-1.54688 0.98437,-0.64062 2.4375,-0.64062 0.70312,0 1.3125,0.1875 0.625,0.17187 1.07812,0.59375 0.46875,0.40625 0.73438,1.09375 0.28125,0.67187 0.28125,1.64062 v 6.8125 z m 9.30682,-10.32812 q 1.92188,0 2.95313,0.96875 1.04687,0.96875 1.04687,2.71875 0,0.375 -0.0469,0.76562 -0.0312,0.375 -0.14063,0.54688 h -7.32812 v 0.21875 q 0,0.82812 0.21875,1.59375 0.21875,0.75 0.64062,1.34375 0.4375,0.57812 1.09375,0.9375 0.67188,0.34375 1.59375,0.34375 0.51563,0 1.01563,-0.10938 0.5,-0.125 0.95312,-0.3125 0.46875,-0.1875 0.85938,-0.40625 0.39062,-0.21875 0.6875,-0.4375 l 0.26562,1.25 q -0.28125,0.17188 -0.70312,0.375 -0.40625,0.20313 -0.90625,0.375 -0.5,0.17188 -1.10938,0.29688 -0.59375,0.125 -1.23437,0.125 -1.21875,0 -2.15625,-0.42188 -0.9375,-0.4375 -1.57813,-1.15625 -0.625,-0.73437 -0.95312,-1.6875 -0.32813,-0.95312 -0.32813,-2 0,-1.0625 0.34375,-2.03125 0.34375,-0.96875 0.98438,-1.70312 0.65625,-0.75 1.625,-1.17188 0.96875,-0.42187 2.20312,-0.42187 z m -0.0625,1.21875 q -1.4375,0 -2.23437,0.75 -0.78125,0.75 -1.0625,1.875 h 5.9375 q 0.0156,-0.10938 0.0156,-0.1875 0,-0.0937 0,-0.20313 0,-0.54687 -0.21875,-0.96875 -0.21875,-0.42187 -0.59375,-0.70312 -0.35937,-0.28125 -0.84375,-0.42188 -0.46875,-0.14062 -1,-0.14062 z m 12.22913,0.71875 q -0.34375,-0.20313 -0.70313,-0.3125 -0.34375,-0.125 -0.67187,-0.125 -0.4375,0 -0.82813,0.23437 -0.39062,0.23438 -0.71875,0.65625 -0.32812,0.40625 -0.57812,0.95313 -0.25,0.54687 -0.375,1.14062 v 5.84375 h -1.51563 v -10 h 1.1875 l 0.17188,2.1875 h 0.0937 q 0.15625,-0.5 0.40625,-0.95312 0.25,-0.45313 0.60937,-0.79688 0.35938,-0.35937 0.8125,-0.5625 0.45313,-0.20312 1.04688,-0.20312 0.40625,0 0.85937,0.14062 0.45313,0.14063 0.65625,0.35938 z"
     id="path67"
     style="fill:#ffffff;fill-rule:nonzero" />
</svg>
