<?xml version="1.0" encoding="UTF-8" standalone="no"?>
<svg
   xmlns:dc="http://purl.org/dc/elements/1.1/"
   xmlns:cc="http://creativecommons.org/ns#"
   xmlns:rdf="http://www.w3.org/1999/02/22-rdf-syntax-ns#"
   xmlns:svg="http://www.w3.org/2000/svg"
   xmlns="http://www.w3.org/2000/svg"
   version="1.1"
   viewBox="0 0 951.0331 281.30778"
   stroke-miterlimit="10"
   id="svg109"
   width="951.03308"
   height="281.30777"
   style="fill:none;stroke:none;stroke-linecap:square;stroke-miterlimit:10">
  <metadata
     id="metadata115">
    <rdf:RDF>
      <cc:Work
         rdf:about="">
        <dc:format>image/svg+xml</dc:format>
        <dc:type
           rdf:resource="http://purl.org/dc/dcmitype/StillImage" />
        <dc:title></dc:title>
      </cc:Work>
    </rdf:RDF>
  </metadata>
  <defs
     id="defs113" />
  <clipPath
     id="p34.0">
    <path
       d="M 0,0 H 1305.4987 V 734.3333 H 0 Z"
       id="path2"
       style="clip-rule:nonzero" />
  </clipPath>
  <path
     style="fill:#6fa8dc;fill-rule:evenodd"
     id="path29"
     d="m 0.5,26.0116 v 0 C 0.5,11.92194 11.92194,0.5 26.0116,0.5 h 163.91226 c 6.76608,0 13.25506,2.68784 18.0394,7.47217 4.78436,4.78436 7.47216,11.27335 7.47216,18.03943 v 102.04327 c 0,14.08966 -11.4219,25.5116 -25.51156,25.5116 H 26.0116 C 11.92194,153.56647 0.5,142.14453 0.5,128.05487 Z" />
  <path
     style="fill-rule:evenodd;stroke:#002050;stroke-width:1;stroke-linecap:butt;stroke-linejoin:round"
     id="path31"
     d="m 0.5,26.0116 v 0 C 0.5,11.92194 11.92194,0.5 26.0116,0.5 h 163.91226 c 6.76608,0 13.25506,2.68784 18.0394,7.47217 4.78436,4.78436 7.47216,11.27335 7.47216,18.03943 v 102.04327 c 0,14.08966 -11.4219,25.5116 -25.51156,25.5116 H 26.0116 C 11.92194,153.56647 0.5,142.14453 0.5,128.05487 Z" />
  <path
     style="fill:#ffffff;fill-rule:nonzero"
     id="path33"
     d="m 45.01294,24.31665 q 0.3125,-0.0156 1,-0.0312 0.6875,-0.0312 1.4375,-0.0469 0.76562,-0.0156 1.45312,-0.0156 0.70313,-0.0156 1.09375,-0.0156 2.375,0 3.90625,0.48438 1.53125,0.48437 2.53125,1.34375 1.29688,1.125 1.875,2.85937 0.59375,1.73438 0.59375,3.84375 0,1.59375 -0.40625,3.04688 -0.39062,1.45312 -1.4375,2.5625 -1.03125,1.09375 -2.85937,1.75 -1.82813,0.64062 -4.65625,0.64062 -1.03125,0 -2.21875,-0.0781 -1.17188,-0.0625 -2.3125,-0.1875 z m 5.20312,14.09375 q 2.96875,0 4.32813,-1.40625 1.35937,-1.42188 1.35937,-4.625 0,-1.45313 -0.28125,-2.53125 -0.28125,-1.09375 -0.96875,-1.82813 -0.6875,-0.73437 -1.84375,-1.09375 -1.14062,-0.375 -2.85937,-0.375 -0.34375,0 -0.92188,0 -0.5625,0 -1.20312,0.0312 V 38.3166 q 0.6875,0.0469 1.3125,0.0781 0.64062,0.0156 1.07812,0.0156 z M 66.8305,28.8479 q 2.15625,0 3.32813,1.09375 1.17187,1.09375 1.17187,3.0625 0,0.28125 -0.0312,0.59375 -0.0312,0.29687 -0.0937,0.59375 -0.0625,0.28125 -0.15625,0.51562 -0.0781,0.23438 -0.17187,0.375 h -7.125 q 0.0469,0.73438 0.26562,1.39063 0.21875,0.64062 0.64063,1.125 0.42187,0.48437 1.01562,0.76562 0.59375,0.28125 1.40625,0.28125 0.90625,0 1.92188,-0.34375 1.01562,-0.34375 1.71875,-0.85937 l 0.45312,2 q -0.32812,0.20312 -0.79687,0.4375 -0.45313,0.23437 -1.04688,0.4375 -0.59375,0.1875 -1.26562,0.3125 -0.67188,0.14062 -1.40625,0.14062 -1.35938,0 -2.42188,-0.46875 -1.04687,-0.48437 -1.76562,-1.29687 -0.70313,-0.82813 -1.07813,-1.90625 -0.35937,-1.07813 -0.35937,-2.25 0,-1.20313 0.375,-2.28125 0.39062,-1.09375 1.125,-1.92188 0.73437,-0.84375 1.8125,-1.3125 1.09375,-0.48437 2.48437,-0.48437 z m -0.0625,2.10937 q -1.03125,0 -1.76562,0.60938 -0.71875,0.59375 -1.03125,1.60937 H 68.643 q 0.0312,-0.0625 0.0312,-0.15625 0.0156,-0.10937 0.0156,-0.25 0,-0.78125 -0.54688,-1.29687 -0.53125,-0.51563 -1.375,-0.51563 z M 80.34344,28.8479 q 1.32813,0 2.28125,0.5 0.95313,0.5 1.57813,1.34375 0.625,0.82812 0.90625,1.92187 0.29687,1.07813 0.29687,2.25 0,1.20313 -0.3125,2.28125 -0.29687,1.07813 -0.9375,1.89063 -0.625,0.79687 -1.59375,1.26562 -0.95312,0.46875 -2.26562,0.46875 -1.10938,0 -2.04689,-0.3125 -0.9375,-0.32812 -1.5,-1.03125 v 7.40625 H 74.0778 V 29.2229 h 2.15625 l 0.1875,1.53125 h 0.10938 q 0.3125,-0.39063 0.75,-0.73438 0.4375,-0.35937 0.95312,-0.60937 0.51563,-0.26563 1.04689,-0.40625 0.54688,-0.15625 1.0625,-0.15625 z m -0.4375,2.0625 q -0.375,0 -0.8125,0.10937 -0.43751,0.10938 -0.87501,0.3125 -0.42188,0.20313 -0.8125,0.5 -0.39063,0.29688 -0.65625,0.65625 v 4.78125 q 0.73437,0.90625 1.5,1.14063 0.76564,0.23437 1.40626,0.23437 0.8125,0 1.375,-0.29687 0.57813,-0.29688 0.95313,-0.79688 0.39062,-0.5 0.5625,-1.17187 0.1875,-0.67188 0.1875,-1.45313 0,-0.73437 -0.15625,-1.45312 -0.15625,-0.73438 -0.51563,-1.29688 -0.34375,-0.5625 -0.89062,-0.90625 -0.53125,-0.35937 -1.26563,-0.35937 z m 11.08509,9.5625 H 88.2879 V 22.36352 h 2.70313 z m 8.53372,-11.625 q 1.5,0 2.5625,0.5 1.07812,0.5 1.78125,1.34375 0.70312,0.84375 1.03125,1.9375 0.32812,1.09375 0.32812,2.29687 0,1.1875 -0.32812,2.25 -0.32813,1.0625 -1.03125,1.85938 -0.70313,0.79687 -1.76563,1.26562 -1.0625,0.46875 -2.5,0.46875 -1.5,0 -2.57812,-0.48437 -1.07813,-0.5 -1.78125,-1.3125 -0.70313,-0.82813 -1.04688,-1.90625 -0.34375,-1.07813 -0.34375,-2.26563 0,-1.20312 0.34375,-2.28125 0.34375,-1.07812 1.03125,-1.89062 0.70313,-0.82813 1.78125,-1.29688 1.07813,-0.48437 2.51563,-0.48437 z m 0.0469,9.89062 q 0.71875,0 1.23438,-0.29687 0.53125,-0.3125 0.875,-0.84375 0.34375,-0.53125 0.5,-1.20313 0.15625,-0.6875 0.15625,-1.45312 0,-0.78125 -0.17188,-1.5 -0.17187,-0.71875 -0.53125,-1.26563 -0.34375,-0.5625 -0.89062,-0.89062 -0.53125,-0.32813 -1.29688,-0.32813 -0.70312,0 -1.21875,0.3125 -0.51562,0.29688 -0.84375,0.8125 -0.32812,0.51563 -0.48437,1.20313 -0.15625,0.67187 -0.15625,1.4375 0,0.78125 0.15625,1.5 0.15625,0.71875 0.5,1.29687 0.35937,0.5625 0.89062,0.89063 0.54688,0.32812 1.28125,0.32812 z m 13.07444,-1.51562 3.125,-8 h 2.59375 l -4.64063,11.34375 q -0.34375,0.85937 -0.95312,1.92187 -0.59375,1.0625 -1.42188,2 -0.8125,0.95313 -1.84375,1.59375 -1.03125,0.65625 -2.21875,0.65625 -0.20312,0 -0.29687,-0.0156 -0.0937,-0.0156 -0.21875,-0.0625 l -0.46875,-2.09375 q 0.0781,0.0156 0.17187,0.0312 0.0937,0.0312 0.42188,0.0312 0.45312,0 0.90625,-0.0937 0.45312,-0.0937 0.92187,-0.39063 0.89063,-0.5625 1.53125,-1.57812 0.65625,-1 1.26563,-2.45313 l -5.60938,-10.89062 h 2.8125 z m 15.12112,3.25 v -7.4375 q 0,-2 -1.59375,-2 -0.39062,0 -0.84375,0.14062 -0.45312,0.14063 -0.89062,0.42188 -0.42188,0.28125 -0.78125,0.70312 -0.34375,0.42188 -0.5,0.95313 v 7.21875 h -2.6875 v -11.25 h 2.10937 l 0.125,1.65625 h 0.0937 q 0.48438,-1.03125 1.54688,-1.53125 1.0625,-0.5 2.26562,-0.5 1.15625,0 2.09375,0.45312 0.9375,0.45313 1.40625,1.5625 0.48438,-1.01562 1.53125,-1.51562 1.0625,-0.5 2.26563,-0.5 0.78125,0 1.46875,0.21875 0.70312,0.20312 1.21875,0.67187 0.53125,0.45313 0.84375,1.21875 0.3125,0.75 0.3125,1.85938 v 7.65625 h -2.70313 v -7.4375 q 0,-2 -1.57812,-2 -0.39063,0 -0.84375,0.14062 -0.45313,0.14063 -0.89063,0.42188 -0.42187,0.28125 -0.78125,0.70312 -0.35937,0.42188 -0.5,0.95313 v 7.21875 z m 18.24383,-11.625 q 2.15625,0 3.32813,1.09375 1.17187,1.09375 1.17187,3.0625 0,0.28125 -0.0312,0.59375 -0.0312,0.29687 -0.0937,0.59375 -0.0625,0.28125 -0.15625,0.51562 -0.0781,0.23438 -0.17187,0.375 h -7.125 q 0.0469,0.73438 0.26562,1.39063 0.21875,0.64062 0.64063,1.125 0.42187,0.48437 1.01562,0.76562 0.59375,0.28125 1.40625,0.28125 0.90625,0 1.92188,-0.34375 1.01562,-0.34375 1.71875,-0.85937 l 0.45312,2 q -0.32812,0.20312 -0.79687,0.4375 -0.45313,0.23437 -1.04688,0.4375 -0.59375,0.1875 -1.26562,0.3125 -0.67188,0.14062 -1.40625,0.14062 -1.35938,0 -2.42188,-0.46875 -1.04687,-0.48437 -1.76562,-1.29687 -0.70313,-0.82813 -1.07813,-1.90625 -0.35937,-1.07813 -0.35937,-2.25 0,-1.20313 0.375,-2.28125 0.39062,-1.09375 1.125,-1.92188 0.73437,-0.84375 1.8125,-1.3125 1.09375,-0.48437 2.48437,-0.48437 z m -0.0625,2.10937 q -1.03125,0 -1.76562,0.60938 -0.71875,0.59375 -1.03125,1.60937 h 4.67187 q 0.0312,-0.0625 0.0312,-0.15625 0.0156,-0.10937 0.0156,-0.25 0,-0.78125 -0.54688,-1.29687 -0.53125,-0.51563 -1.375,-0.51563 z m 14.84104,9.51563 v -7.4375 q 0,-2 -1.70313,-2 -0.42187,0 -0.90625,0.14062 -0.46875,0.14063 -0.90625,0.42188 -0.4375,0.28125 -0.79687,0.70312 -0.35938,0.42188 -0.53125,0.95313 v 7.21875 h -2.6875 v -11.25 h 2.10937 l 0.125,1.65625 h 0.0937 q 0.51563,-1.03125 1.59375,-1.53125 1.09375,-0.5 2.34375,-0.5 0.8125,0 1.51563,0.21875 0.70312,0.20312 1.25,0.67187 0.5625,0.45313 0.875,1.21875 0.32812,0.75 0.32812,1.85938 v 7.65625 z m 6.36874,-9.60938 h -1.39062 v -1.46875 l 1.57812,-0.25 0.45313,-3.32812 h 2.04687 v 3.40625 h 2.15625 v 1.64062 h -2.15625 v 6.45313 q 0,0.73437 0.14063,1 0.15625,0.25 0.57812,0.25 0.3125,0 0.625,-0.125 0.32813,-0.125 0.9375,-0.46875 l 0.4375,1.9375 q -0.46875,0.39062 -1.3125,0.625 -0.84375,0.23437 -1.67187,0.23437 -0.73438,0 -1.21875,-0.20312 -0.46875,-0.1875 -0.75,-0.5625 -0.26563,-0.39063 -0.35938,-0.92188 -0.0937,-0.54687 -0.0937,-1.20312 z" />
  <path
     style="fill:#0b5394;fill-rule:evenodd"
     id="path35"
     d="m 21.62092,73.98716 v 0 c 0,-6.89255 5.58751,-12.48007 12.48006,-12.48007 h 147.73346 c 3.30993,0 6.48428,1.31485 8.82474,3.65533 2.34048,2.34046 3.65533,5.5148 3.65533,8.82474 v 49.91876 c 0,6.89255 -5.58752,12.48007 -12.48007,12.48007 H 34.10098 c -6.89255,0 -12.48006,-5.58752 -12.48006,-12.48007 z" />
  <path
     style="fill-rule:evenodd;stroke:#002050;stroke-width:1;stroke-linecap:butt;stroke-linejoin:round"
     id="path37"
     d="m 21.62092,73.98716 v 0 c 0,-6.89255 5.58751,-12.48007 12.48006,-12.48007 h 147.73346 c 3.30993,0 6.48428,1.31485 8.82474,3.65533 2.34048,2.34046 3.65533,5.5148 3.65533,8.82474 v 49.91876 c 0,6.89255 -5.58752,12.48007 -12.48007,12.48007 H 34.10098 c -6.89255,0 -12.48006,-5.58752 -12.48006,-12.48007 z" />
  <path
     style="fill:#ffffff;fill-rule:nonzero"
     id="path39"
     d="m 43.24292,92.47675 q 0.76562,-0.0469 1.60937,-0.0781 0.85938,-0.0312 1.625,-0.0312 1.17188,0 2.125,0.28125 0.96875,0.26563 1.65625,0.79688 0.6875,0.51562 1.0625,1.29687 0.375,0.76563 0.375,1.76563 0,1.39062 -0.78125,2.48437 -0.78125,1.07813 -2.40625,1.51563 l 5.5,6.32812 h -2.03125 l -5.35937,-6.14062 q -0.96875,0 -1.75,-0.0625 v 6.20312 h -1.625 z m 3.375,1.32812 q -0.46875,0 -0.92188,0.0156 -0.4375,0.0156 -0.82812,0.0312 v 5.375 q 0.39062,0.0469 0.82812,0.0469 0.45313,0 0.95313,0 1.60937,0 2.42187,-0.75 0.82813,-0.75 0.82813,-2.1875 0,-1.14062 -0.73438,-1.82812 -0.73437,-0.70313 -2.54687,-0.70313 z m 13.2337,2.70313 q 1.92188,0 2.95313,0.96875 1.04687,0.96875 1.04687,2.71875 0,0.375 -0.0469,0.76562 -0.0312,0.375 -0.14063,0.54688 h -7.32812 v 0.21875 q 0,0.82812 0.21875,1.59375 0.21875,0.75 0.64062,1.34375 0.4375,0.57812 1.09375,0.9375 0.67188,0.34375 1.59375,0.34375 0.51563,0 1.01563,-0.10938 0.5,-0.125 0.95312,-0.3125 0.46875,-0.1875 0.85938,-0.40625 0.39062,-0.21875 0.6875,-0.4375 l 0.26562,1.25 q -0.28125,0.17188 -0.70312,0.375 -0.40625,0.20313 -0.90625,0.375 -0.5,0.17188 -1.10938,0.29688 -0.59375,0.125 -1.23437,0.125 -1.21875,0 -2.15625,-0.42188 -0.9375,-0.4375 -1.57813,-1.15625 -0.625,-0.73437 -0.95312,-1.6875 -0.32813,-0.95312 -0.32813,-2 0,-1.0625 0.34375,-2.03125 0.34375,-0.96875 0.98438,-1.70312 0.65625,-0.75 1.625,-1.17188 0.96875,-0.42187 2.20312,-0.42187 z m -0.0625,1.21875 q -1.4375,0 -2.23437,0.75 -0.78125,0.75 -1.0625,1.875 h 5.9375 q 0.0156,-0.10938 0.0156,-0.1875 0,-0.0937 0,-0.20313 0,-0.54687 -0.21875,-0.96875 -0.21875,-0.42187 -0.59375,-0.70312 -0.35937,-0.28125 -0.84375,-0.42188 -0.46875,-0.14062 -1,-0.14062 z M 71.98698,96.508 q 1.10938,0 1.9375,0.4375 0.82813,0.42187 1.375,1.14062 0.54688,0.71875 0.8125,1.67188 0.28125,0.9375 0.28125,1.98437 0,1.09375 -0.29687,2.0625 -0.29688,0.96875 -0.875,1.70313 -0.57813,0.71875 -1.45313,1.15625 -0.85937,0.4375 -2.01562,0.4375 -1.45313,0 -2.39063,-0.625 -0.9375,-0.64063 -1.21875,-1.57813 v 7.59375 H 66.62761 V 96.83612 h 1.1875 l 0.17187,1.85938 h 0.0937 q 0.26563,-0.39063 0.64063,-0.78125 0.375,-0.40625 0.875,-0.70313 0.5,-0.3125 1.09375,-0.5 0.60937,-0.20312 1.29687,-0.20312 z m -0.39062,1.28125 q -1.03125,0 -1.9375,0.5625 -0.90625,0.5625 -1.51563,1.64062 v 3.1875 q 0.20313,0.64063 0.5625,1.125 0.375,0.46875 0.85938,0.8125 0.5,0.34375 1.04687,0.53125 0.5625,0.17188 1.125,0.17188 0.75,0 1.3125,-0.29688 0.57813,-0.3125 0.95313,-0.85937 0.39062,-0.54688 0.57812,-1.26563 0.20313,-0.71875 0.20313,-1.54687 0,-0.78125 -0.1875,-1.51563 -0.1875,-0.75 -0.57813,-1.3125 -0.39062,-0.5625 -1,-0.89062 -0.59375,-0.34375 -1.42187,-0.34375 z m 9.17812,9.04687 H 79.25885 V 90.74237 h 1.51563 z m 5.05151,0 h -1.51563 v -10 h 1.51563 z M 83.98224,93.17987 q 0,-0.4375 0.3125,-0.78125 0.3125,-0.35937 0.76562,-0.35937 0.4375,0 0.78125,0.35937 0.35938,0.34375 0.35938,0.78125 0,0.45313 -0.35938,0.76563 -0.34375,0.3125 -0.78125,0.3125 -0.45312,0 -0.76562,-0.3125 -0.3125,-0.3125 -0.3125,-0.76563 z m 13.0405,5.48438 q -0.5,-0.375 -1.4375,-0.67188 -0.92188,-0.29687 -1.85938,-0.29687 -0.96875,0 -1.625,0.32812 -0.65625,0.32813 -1.09375,0.875 -0.4375,0.54688 -0.64062,1.25 -0.1875,0.70313 -0.1875,1.46875 0,0.84375 0.23437,1.625 0.23438,0.78125 0.70313,1.375 0.46875,0.59375 1.15625,0.9375 0.6875,0.34375 1.59375,0.34375 0.875,0 1.79687,-0.35937 0.92188,-0.375 1.53125,-0.9375 l 0.3125,1.40625 q -0.60937,0.39062 -1.67187,0.75 -1.04688,0.34375 -2.25,0.34375 -1.25,0 -2.20313,-0.4375 -0.9375,-0.4375 -1.5625,-1.15625 -0.625,-0.73438 -0.9375,-1.70313 -0.3125,-0.96875 -0.3125,-2.0625 0,-1.04687 0.28125,-1.98437 0.29688,-0.95313 0.92188,-1.67188 0.64062,-0.73437 1.60937,-1.15625 0.98438,-0.42187 2.35938,-0.42187 1.04687,0 2.04687,0.23437 1,0.23438 1.60938,0.625 z m 9.42184,8.17187 -0.17187,-1.78125 h -0.0937 q -0.25,0.40625 -0.6875,0.78125 -0.4375,0.375 -0.96875,0.65625 -0.53125,0.28125 -1.15625,0.4375 -0.625,0.17188 -1.23438,0.17188 -1.42187,0 -2.14062,-0.82813 -0.71875,-0.84375 -0.71875,-2.10937 0,-1.25 0.625,-1.98438 0.625,-0.73437 1.53125,-1.10937 0.92187,-0.375 1.9375,-0.46875 1.01562,-0.10938 1.78125,-0.10938 h 0.96875 v -0.26562 q 0,-0.82813 -0.23438,-1.26563 -0.21875,-0.4375 -0.65625,-0.73437 -0.375,-0.25 -0.79687,-0.34375 -0.42188,-0.0937 -1.10938,-0.0937 -0.92187,0 -1.625,0.25 -0.6875,0.23437 -1.34375,0.625 l -0.34375,-1.3125 q 1.45313,-0.84375 3.48438,-0.84375 0.79687,0 1.51562,0.14062 0.71875,0.14063 1.26563,0.48438 0.625,0.39062 1,1.10937 0.375,0.71875 0.375,1.78125 v 6.8125 z m -3.84375,-1.01562 q 0.89063,0 1.89063,-0.5625 1,-0.57813 1.625,-1.64063 v -2.01562 h -0.1875 q -0.89063,0 -1.79688,0.0625 -0.89062,0.0625 -1.625,0.32812 -0.71875,0.25 -1.17187,0.75 -0.45313,0.48438 -0.45313,1.32813 0,0.85937 0.46875,1.3125 0.46875,0.4375 1.25,0.4375 z m 8.78461,-7.96875 h -1.67188 v -0.79688 l 1.71875,-0.21875 0.3125,-3.03125 h 1.15625 v 3.03125 h 2.35938 v 1.01563 h -2.35938 v 6.9375 q 0,0.70312 0.20313,0.92187 0.21875,0.21875 0.65625,0.21875 0.5,0 0.89062,-0.15625 0.39063,-0.15625 0.6875,-0.375 l 0.3125,1.15625 q -0.375,0.17188 -0.98437,0.34375 -0.59375,0.17188 -1.3125,0.17188 -0.6875,0 -1.07813,-0.20313 -0.39062,-0.1875 -0.59375,-0.51562 -0.1875,-0.32813 -0.25,-0.71875 -0.0469,-0.40625 -0.0469,-0.79688 z m 7.87024,8.98437 h -1.51563 v -10 h 1.51563 z m -1.84375,-13.65625 q 0,-0.4375 0.3125,-0.78125 0.3125,-0.35937 0.76562,-0.35937 0.4375,0 0.78125,0.35937 0.35938,0.34375 0.35938,0.78125 0,0.45313 -0.35938,0.76563 -0.34375,0.3125 -0.78125,0.3125 -0.45312,0 -0.76562,-0.3125 -0.3125,-0.3125 -0.3125,-0.76563 z m 9.63424,3.32813 q 1.32813,0 2.28125,0.45312 0.95313,0.4375 1.57813,1.1875 0.625,0.75 0.90625,1.71875 0.29687,0.96875 0.29687,2.03125 0,1.0625 -0.29687,2.01563 -0.28125,0.9375 -0.89063,1.65625 -0.60937,0.70312 -1.5625,1.125 -0.95312,0.40625 -2.23437,0.40625 -1.32813,0 -2.29688,-0.4375 -0.95312,-0.4375 -1.59375,-1.15625 -0.625,-0.73438 -0.9375,-1.6875 -0.29687,-0.96875 -0.29687,-2.03125 0,-1.0625 0.29687,-2.01563 0.3125,-0.96875 0.92188,-1.6875 0.625,-0.73437 1.57812,-1.15625 0.96875,-0.42187 2.25,-0.42187 z m 0.0625,9.4375 q 0.875,0 1.51563,-0.32813 0.64062,-0.32812 1.0625,-0.875 0.42187,-0.5625 0.60937,-1.28125 0.20313,-0.73437 0.20313,-1.54687 0,-0.8125 -0.20313,-1.57813 -0.20312,-0.76562 -0.64062,-1.34375 -0.4375,-0.57812 -1.10938,-0.92187 -0.65625,-0.34375 -1.5625,-0.34375 -0.89062,0 -1.53125,0.32812 -0.625,0.32813 -1.04687,0.875 -0.40625,0.53125 -0.60938,1.26563 -0.1875,0.71875 -0.1875,1.53125 0,0.82812 0.20313,1.59375 0.20312,0.75 0.625,1.34375 0.4375,0.57812 1.09375,0.9375 0.65625,0.34375 1.57812,0.34375 z m 14.76426,0.89062 v -6.60937 q 0,-1.3125 -0.59375,-1.875 -0.57813,-0.5625 -1.48438,-0.5625 -0.54687,0 -1.07812,0.17187 -0.53125,0.17188 -1,0.51563 -0.45313,0.32812 -0.79688,0.82812 -0.34375,0.48438 -0.54687,1.10938 v 6.42187 h -1.51563 v -10 h 1.1875 l 0.17188,1.85938 h 0.0937 q 0.28125,-0.90625 1.25,-1.54688 0.98437,-0.64062 2.4375,-0.64062 0.70312,0 1.3125,0.1875 0.625,0.17187 1.07812,0.59375 0.46875,0.40625 0.73438,1.09375 0.28125,0.67187 0.28125,1.64062 v 6.8125 z m 5.93911,-10.89062 q 0,0.53125 0.20313,0.89062 0.21875,0.35938 0.65625,0.65625 0.45312,0.28125 1.125,0.53125 0.6875,0.25 1.65625,0.5625 0.79687,0.26563 1.57812,0.60938 0.78125,0.32812 1.40625,0.82812 0.625,0.48438 0.98438,1.21875 0.375,0.71875 0.375,1.76563 0,1.10937 -0.4375,1.89062 -0.4375,0.78125 -1.15625,1.28125 -0.71875,0.48438 -1.65625,0.70313 -0.92188,0.21875 -1.92188,0.21875 -1.42187,0 -2.64062,-0.34375 -1.21875,-0.35938 -2.10938,-0.85938 l 0.45313,-1.57812 q 0.42187,0.28125 0.82812,0.53125 0.42188,0.25 0.90625,0.42187 0.48438,0.17188 1.07813,0.28125 0.59375,0.10938 1.34375,0.10938 0.98437,0 1.67187,-0.17188 0.70313,-0.17187 1.14063,-0.48437 0.4375,-0.32813 0.625,-0.75 0.20312,-0.4375 0.20312,-0.95313 0,-0.73437 -0.35937,-1.23437 -0.34375,-0.51563 -0.90625,-0.89063 -0.54688,-0.375 -1.21875,-0.625 -0.65625,-0.25 -1.29688,-0.46875 -0.9375,-0.29687 -1.70312,-0.64062 -0.76563,-0.35938 -1.29688,-0.82813 -0.53125,-0.48437 -0.82812,-1.10937 -0.29688,-0.64063 -0.29688,-1.5 0,-0.98438 0.35938,-1.67188 0.35937,-0.6875 0.98437,-1.10937 0.625,-0.4375 1.46875,-0.64063 0.84375,-0.21875 1.82813,-0.21875 1.17187,0 2.25,0.25 1.09375,0.23438 1.85937,0.57813 l -0.45312,1.67187 q -0.34375,-0.29687 -0.8125,-0.5 -0.46875,-0.21875 -0.98438,-0.32812 -0.51562,-0.125 -1.01562,-0.17188 -0.5,-0.0625 -0.9375,-0.0625 -1.35938,0 -2.15625,0.51563 -0.79688,0.51562 -0.79688,1.625 z m 15.15613,0.5625 q 1.92188,0 2.95313,0.96875 1.04687,0.96875 1.04687,2.71875 0,0.375 -0.0469,0.76562 -0.0312,0.375 -0.14063,0.54688 h -7.32812 v 0.21875 q 0,0.82812 0.21875,1.59375 0.21875,0.75 0.64062,1.34375 0.4375,0.57812 1.09375,0.9375 0.67188,0.34375 1.59375,0.34375 0.51563,0 1.01563,-0.10938 0.5,-0.125 0.95312,-0.3125 0.46875,-0.1875 0.85938,-0.40625 0.39062,-0.21875 0.6875,-0.4375 l 0.26562,1.25 q -0.28125,0.17188 -0.70312,0.375 -0.40625,0.20313 -0.90625,0.375 -0.5,0.17188 -1.10938,0.29688 -0.59375,0.125 -1.23437,0.125 -1.21875,0 -2.15625,-0.42188 -0.9375,-0.4375 -1.57813,-1.15625 -0.625,-0.73437 -0.95312,-1.6875 -0.32813,-0.95312 -0.32813,-2 0,-1.0625 0.34375,-2.03125 0.34375,-0.96875 0.98438,-1.70312 0.65625,-0.75 1.625,-1.17188 0.96875,-0.42187 2.20312,-0.42187 z m -0.0625,1.21875 q -1.4375,0 -2.23437,0.75 -0.78125,0.75 -1.0625,1.875 h 5.9375 q 0.0156,-0.10938 0.0156,-0.1875 0,-0.0937 0,-0.20313 0,-0.54687 -0.21875,-0.96875 -0.21875,-0.42187 -0.59375,-0.70312 -0.35937,-0.28125 -0.84375,-0.42188 -0.46875,-0.14062 -1,-0.14062 z m 7.2916,0.125 h -1.67188 v -0.79688 l 1.71875,-0.21875 0.3125,-3.03125 h 1.15625 v 3.03125 h 2.35938 v 1.01563 h -2.35938 v 6.9375 q 0,0.70312 0.20313,0.92187 0.21875,0.21875 0.65625,0.21875 0.5,0 0.89062,-0.15625 0.39063,-0.15625 0.6875,-0.375 l 0.3125,1.15625 q -0.375,0.17188 -0.98437,0.34375 -0.59375,0.17188 -1.3125,0.17188 -0.6875,0 -1.07813,-0.20313 -0.39062,-0.1875 -0.59375,-0.51562 -0.1875,-0.32813 -0.25,-0.71875 -0.0469,-0.40625 -0.0469,-0.79688 z" />
  <path
     style="fill:#000000;fill-opacity:0;fill-rule:evenodd"
     id="path41"
     d="M 107.96771,153.56647 V 275.68003 H 598.04645 V 153.62946" />
  <path
     style="fill:#000000;fill-opacity:0;fill-rule:evenodd"
     id="path91"
     d="M 107.96771,153.56647 V 275.68003 H 353.00708 V 153.62946" />
  <path
     style="fill-rule:evenodd;stroke:#9fc5e8;stroke-width:8;stroke-linecap:butt;stroke-linejoin:round"
     id="path93"
     d="M 107.96771,153.5665 V 275.68002 H 353.00708 V 201.62949" />
  <path
     style="fill:#9fc5e8;fill-rule:evenodd;stroke:#9fc5e8;stroke-width:8;stroke-linecap:butt"
     id="path95"
     d="m 366.22095,201.62949 -13.21387,-36.30478 -13.21386,36.30478 z" />
  <path
     style="fill:#000000;fill-opacity:0;fill-rule:evenodd"
     id="path97"
     d="m 107.96771,153.56647 v 123.74124 h 735.0866 V 153.62946" />
</svg>
