<?xml version="1.0" encoding="UTF-8"?>
<svg fill="none" stroke-linecap="square" stroke-miterlimit="10" version="1.1" viewBox="0 0 1191.3 490.83" xmlns="http://www.w3.org/2000/svg">
<path d="m523 485.16c2.8661 0 5.1895-9.2937 5.1895-20.758 0-11.464-2.3234-20.758-5.1895-20.758h148.98c2.8661 0 5.1895 9.2937 5.1895 20.758 0 11.464-2.3234 20.758-5.1895 20.758z" fill="#badfa6" fill-rule="evenodd"/>
<path d="m523 485.16c-2.8661 0-5.1895-9.2937-5.1895-20.758 0-11.464 2.3234-20.758 5.1895-20.758s5.1895 9.2937 5.1895 20.758c0 11.464-2.3234 20.758-5.1895 20.758z" fill="#d5ebc9" fill-rule="evenodd"/>
<path d="m523 443.64c2.8661 0 5.1895 9.2937 5.1895 20.758 0 11.464-2.3234 20.758-5.1895 20.758s-5.1895-9.2937-5.1895-20.758c0-11.464 2.3234-20.758 5.1895-20.758h148.98c2.8661 0 5.1895 9.2937 5.1895 20.758 0 11.464-2.3234 20.758-5.1895 20.758h-148.98" fill-opacity="0"/>
<path d="m544.11 245.44h103.81v108.9l-17.302 17.302h-86.509z" fill="#badfa6" fill-rule="evenodd"/>
<path d="m630.62 371.65 3.4604-13.842 13.842-3.4604z" fill="#94b284" fill-rule="evenodd"/>
<path d="m630.62 371.65 3.4604-13.842 13.842-3.4604-17.302 17.302h-86.509v-126.2h103.81v108.9" fill-opacity="0"/>
<path d="m572.76 274.27h-1.2031v-10.562h1.2031zm7.9127 0v-4.8594q0-0.96875-0.4375-1.375-0.4375-0.42187-1.1094-0.42187-0.39062 0-0.78125 0.125-0.39062 0.125-0.73437 0.375-0.32813 0.25-0.59375 0.60937-0.25 0.35938-0.39063 0.82813v4.7188h-1.125v-7.3594h0.875l0.125 1.375h0.0625q0.21875-0.67187 0.9375-1.1406t1.7969-0.46875q0.5 0 0.95312 0.14062 0.46875 0.125 0.79688 0.4375 0.34375 0.29688 0.53125 0.79688 0.20312 0.48437 0.20312 1.2031v5.0156zm8.72 0v-4.8594q0-0.96875-0.4375-1.375-0.4375-0.42187-1.1094-0.42187-0.39063 0-0.78125 0.125-0.39063 0.125-0.73438 0.375-0.32812 0.25-0.59375 0.60937-0.25 0.35938-0.39062 0.82813v4.7188h-1.125v-7.3594h0.875l0.125 1.375h0.0625q0.21875-0.67187 0.9375-1.1406t1.7969-0.46875q0.5 0 0.95313 0.14062 0.46875 0.125 0.79687 0.4375 0.34375 0.29688 0.53125 0.79688 0.20313 0.48437 0.20313 1.2031v5.0156zm6.845-7.5938q1.4062 0 2.1719 0.71875 0.76562 0.70312 0.76562 2 0 0.26562-0.0312 0.54687t-0.10937 0.40625h-5.3906v0.15625q0 0.60938 0.15625 1.1719t0.46875 1q0.32813 0.42187 0.8125 0.6875 0.5 0.25 1.1719 0.25 0.375 0 0.75-0.0781 0.375-0.0937 0.70312-0.23437 0.34375-0.14063 0.625-0.29688t0.51563-0.3125l0.1875 0.90625q-0.20313 0.125-0.51563 0.28125-0.29687 0.15625-0.67187 0.28125-0.35938 0.125-0.8125 0.20313-0.4375 0.0937-0.90625 0.0937-0.90625 0-1.5938-0.3125t-1.1562-0.84375q-0.45313-0.53125-0.70313-1.2344-0.23437-0.70312-0.23437-1.4844t0.25-1.4844q0.25-0.71875 0.71875-1.25 0.48437-0.54687 1.1875-0.85937 0.71875-0.3125 1.6406-0.3125zm-0.0469 0.89062q-1.0625 0-1.6562 0.5625-0.57813 0.54688-0.78125 1.375h4.375q0.0156-0.0781 0.0156-0.14062 0-0.0625 0-0.15625 0-0.39063-0.17187-0.70313-0.15625-0.3125-0.4375-0.51562-0.26563-0.21875-0.625-0.3125-0.34375-0.10938-0.71875-0.10938zm8.9907 0.53125q-0.26562-0.14062-0.51562-0.23437-0.25-0.0937-0.5-0.0937-0.3125 0-0.60938 0.1875-0.28125 0.17187-0.53125 0.48437-0.23437 0.29688-0.42187 0.70313-0.17188 0.39062-0.26563 0.82812v4.2969h-1.125v-7.3594h0.875l0.125 1.6094h0.0625q0.125-0.35938 0.29688-0.6875 0.1875-0.34375 0.45312-0.59375 0.26563-0.26563 0.59375-0.40625 0.34375-0.15625 0.78125-0.15625 0.29688 0 0.625 0.10937 0.34375 0.0937 0.48438 0.25zm6.8265 6.1719h-1.2031v-10.562h1.2031zm3.1649-10.562h0.0625q0.51562-0.0312 1.1406-0.0469 0.625-0.0312 1.1875-0.0312 0.85938 0 1.5625 0.21875 0.70313 0.21875 1.2031 0.65625 0.51562 0.42188 0.79687 1.0625 0.28125 0.625 0.28125 1.4531 0 0.67187-0.23437 1.2656-0.21875 0.59375-0.67188 1.0469-0.4375 0.4375-1.1406 0.70312-0.6875 0.26563-1.625 0.26563-0.76563 0-1.3594-0.0469v4.0156h-1.2031zm2.4844 0.98437q-0.32812 0-0.65625 0.0156-0.32812 0-0.625 0.0156v4.4688q0.57813 0.0469 1.3125 0.0469 1.1875 0 1.7812-0.59375 0.60938-0.59375 0.60938-1.75 0-0.5-0.14063-0.90625-0.125-0.40625-0.40625-0.6875-0.28125-0.29688-0.75-0.45313-0.45312-0.15625-1.125-0.15625z" fill="#000"/>
<path d="m578.34 283.67q0.8125 0 1.4219 0.32813 0.60938 0.3125 1 0.84375 0.40625 0.51562 0.60938 1.2188 0.20312 0.6875 0.20312 1.4531 0 0.8125-0.21875 1.5312-0.21875 0.70313-0.64062 1.2344-0.42188 0.53125-1.0625 0.85937-0.64063 0.3125-1.4844 0.3125-1.0781 0-1.7656-0.45312-0.6875-0.46875-0.89063-1.1562v5.5781h-1.125v-11.516h0.875l0.125 1.375h0.0625q0.20313-0.28125 0.48438-0.57813 0.28125-0.29687 0.64062-0.51562 0.375-0.23438 0.8125-0.375 0.4375-0.14063 0.95313-0.14063zm-0.29688 0.9375q-0.76562 0-1.4375 0.42188-0.65625 0.40625-1.0938 1.1875v2.3594q0.14063 0.46875 0.40625 0.82813 0.28125 0.34375 0.64063 0.59375 0.35937 0.25 0.76562 0.39062 0.40625 0.125 0.82813 0.125 0.54687 0 0.96875-0.21875 0.42187-0.23437 0.6875-0.625 0.28125-0.40625 0.42187-0.9375 0.15625-0.53125 0.15625-1.125 0-0.57812-0.14062-1.125-0.14063-0.54687-0.42188-0.95312-0.28125-0.42188-0.73437-0.67188-0.4375-0.25-1.0469-0.25zm10.216 6.6562-0.125-1.3125h-0.0625q-0.20312 0.29688-0.53125 0.57813-0.3125 0.26562-0.70312 0.48437-0.39063 0.20313-0.84375 0.3125-0.45313 0.125-0.90625 0.125-1.0469 0-1.5781-0.60937-0.53125-0.625-0.53125-1.5469 0-0.90625 0.45313-1.4531 0.46875-0.54688 1.1406-0.8125 0.67188-0.28125 1.4219-0.35938 0.75-0.0781 1.2969-0.0781h0.73438v-0.1875q0-0.60938-0.17188-0.92188-0.17187-0.32812-0.48437-0.5625-0.28125-0.17187-0.59375-0.23437-0.3125-0.0781-0.82813-0.0781-0.67187 0-1.1875 0.1875-0.5 0.17188-0.98437 0.45313l-0.25-0.95313q1.0625-0.625 2.5625-0.625 0.59375 0 1.1094 0.10938 0.53125 0.0937 0.9375 0.34375 0.45313 0.29687 0.71875 0.82812 0.28125 0.51563 0.28125 1.2969v5.0156zm-2.8281-0.75q0.65625 0 1.3906-0.40625 0.73438-0.42187 1.2031-1.2188v-1.4844h-0.15625q-0.65625 0-1.3125 0.0469t-1.1875 0.25q-0.53125 0.1875-0.875 0.54688-0.32813 0.35937-0.32813 0.98437t0.34375 0.95313q0.34375 0.32812 0.92188 0.32812zm11.859-5.2656q-0.35937-0.26563-1.0469-0.48438t-1.375-0.21875q-0.70313 0-1.2031 0.25-0.48437 0.23438-0.8125 0.64063-0.3125 0.39062-0.45312 0.90625-0.14063 0.51562-0.14063 1.0781 0 0.625 0.17188 1.2031 0.17187 0.57812 0.51562 1.0156 0.34375 0.42188 0.84375 0.6875 0.51563 0.25 1.1875 0.25 0.64063 0 1.3125-0.26562 0.6875-0.28125 1.1406-0.6875l0.21875 1.0312q-0.45313 0.29687-1.2344 0.54687-0.76562 0.25-1.6406 0.25-0.9375 0-1.6406-0.3125-0.6875-0.32812-1.1406-0.85937-0.45313-0.53125-0.6875-1.2344-0.23438-0.71875-0.23438-1.5312 0-0.76562 0.21875-1.4531 0.21875-0.70313 0.67188-1.2344 0.46875-0.53125 1.1875-0.84375t1.7344-0.3125q0.76563 0 1.5 0.17188 0.73438 0.17187 1.1875 0.46875zm5.2656 1.25 3.1406 4.7656h-1.2812l-2.6406-4-1.0938 1.1094v2.8906h-1.125v-11.844h1.125v7.5938l3.2188-3.1094h1.2812zm7.6089-2.8281q1.4062 0 2.1719 0.71875 0.76562 0.70313 0.76562 2 0 0.26563-0.0312 0.54688t-0.10937 0.40625h-5.3906v0.15625q0 0.60937 0.15625 1.1719t0.46875 1q0.32813 0.42188 0.8125 0.6875 0.5 0.25 1.1719 0.25 0.375 0 0.75-0.0781 0.375-0.0937 0.70312-0.23438 0.34375-0.14062 0.625-0.29687t0.51563-0.3125l0.1875 0.90625q-0.20313 0.125-0.51563 0.28125-0.29687 0.15625-0.67187 0.28125-0.35938 0.125-0.8125 0.20312-0.4375 0.0937-0.90625 0.0937-0.90625 0-1.5938-0.3125t-1.1562-0.84375q-0.45313-0.53125-0.70313-1.2344-0.23437-0.70313-0.23437-1.4844t0.25-1.4844q0.25-0.71875 0.71875-1.25 0.48437-0.54688 1.1875-0.85938 0.71875-0.3125 1.6406-0.3125zm-0.0469 0.89063q-1.0625 0-1.6562 0.5625-0.57813 0.54687-0.78125 1.375h4.375q0.0156-0.0781 0.0156-0.14063 0-0.0625 0-0.15625 0-0.39062-0.17187-0.70312-0.15625-0.3125-0.4375-0.51563-0.26563-0.21875-0.625-0.3125-0.34375-0.10937-0.71875-0.10937zm5.3502 0.0937h-1.2188v-0.59375l1.25-0.15625 0.25-2.2188h0.84375v2.2188h1.7344v0.75h-1.7344v5.1094q0 0.51563 0.15625 0.67188t0.46875 0.15625q0.375 0 0.65625-0.10938 0.28125-0.10937 0.51562-0.28125l0.21875 0.85938q-0.26562 0.125-0.71875 0.25-0.4375 0.125-0.95312 0.125-0.51563 0-0.8125-0.14063-0.28125-0.14062-0.4375-0.375-0.14063-0.25-0.1875-0.54687-0.0312-0.29688-0.0312-0.57813z" fill="#000"/>
<path d="m574.77 308.27h-1.5156l-2-5.7656-2.1094 5.7656h-1.5312l-2.7031-7.3594h1.1875l2.3125 6.2656 2.2969-6.2656h1.1875l2.1562 6.2656 2.4531-6.2656h1.125zm8.2614-6.1719q-0.26562-0.14062-0.51562-0.23437-0.25-0.0937-0.5-0.0937-0.3125 0-0.60938 0.1875-0.28125 0.17187-0.53125 0.48437-0.23437 0.29688-0.42187 0.70313-0.17188 0.39062-0.26563 0.82812v4.2969h-1.125v-7.3594h0.875l0.125 1.6094h0.0625q0.125-0.35938 0.29688-0.6875 0.1875-0.34375 0.45312-0.59375 0.26563-0.26563 0.59375-0.40625 0.34375-0.15625 0.78125-0.15625 0.29688 0 0.625 0.10937 0.34375 0.0937 0.48438 0.25zm6.4151 6.1719-0.125-1.3125h-0.0625q-0.20312 0.29687-0.53125 0.57812-0.3125 0.26563-0.70312 0.48438-0.39063 0.20312-0.84375 0.3125-0.45313 0.125-0.90625 0.125-1.0469 0-1.5781-0.60938-0.53125-0.625-0.53125-1.5469 0-0.90625 0.45313-1.4531 0.46875-0.54687 1.1406-0.8125 0.67188-0.28125 1.4219-0.35937 0.75-0.0781 1.2969-0.0781h0.73438v-0.1875q0-0.60937-0.17188-0.92187-0.17187-0.32813-0.48437-0.5625-0.28125-0.17188-0.59375-0.23438-0.3125-0.0781-0.82813-0.0781-0.67187 0-1.1875 0.1875-0.5 0.17187-0.98437 0.45312l-0.25-0.95312q1.0625-0.625 2.5625-0.625 0.59375 0 1.1094 0.10937 0.53125 0.0937 0.9375 0.34375 0.45313 0.29688 0.71875 0.82813 0.28125 0.51562 0.28125 1.2969v5.0156zm-2.8281-0.75q0.65625 0 1.3906-0.40625 0.73438-0.42188 1.2031-1.2188v-1.4844h-0.15625q-0.65625 0-1.3125 0.0469t-1.1875 0.25q-0.53125 0.1875-0.875 0.54687-0.32813 0.35938-0.32813 0.98438t0.34375 0.95312q0.34375 0.32813 0.92188 0.32813zm10.077-6.8438q0.8125 0 1.4219 0.32812 0.60937 0.3125 1 0.84375 0.40625 0.51563 0.60937 1.2188 0.20313 0.6875 0.20313 1.4531 0 0.8125-0.21875 1.5312-0.21875 0.70312-0.64063 1.2344-0.42187 0.53125-1.0625 0.85938-0.64062 0.3125-1.4844 0.3125-1.0781 0-1.7656-0.45313-0.6875-0.46875-0.89062-1.1562v5.5781h-1.125v-11.516h0.875l0.125 1.375h0.0625q0.20312-0.28125 0.48437-0.57812 0.28125-0.29688 0.64063-0.51563 0.375-0.23437 0.8125-0.375 0.4375-0.14062 0.95312-0.14062zm-0.29687 0.9375q-0.76563 0-1.4375 0.42187-0.65625 0.40625-1.0938 1.1875v2.3594q0.14062 0.46875 0.40625 0.82812 0.28125 0.34375 0.64062 0.59375 0.35938 0.25 0.76563 0.39063 0.40625 0.125 0.82812 0.125 0.54688 0 0.96875-0.21875 0.42188-0.23438 0.6875-0.625 0.28125-0.40625 0.42188-0.9375 0.15625-0.53125 0.15625-1.125 0-0.57813-0.14063-1.125-0.14062-0.54688-0.42187-0.95313-0.28125-0.42187-0.73438-0.67187-0.4375-0.25-1.0469-0.25zm9.4969-0.9375q0.8125 0 1.4219 0.32812 0.60937 0.3125 1 0.84375 0.40625 0.51563 0.60937 1.2188 0.20313 0.6875 0.20313 1.4531 0 0.8125-0.21875 1.5312-0.21875 0.70312-0.64063 1.2344-0.42187 0.53125-1.0625 0.85938-0.64062 0.3125-1.4844 0.3125-1.0781 0-1.7656-0.45313-0.6875-0.46875-0.89062-1.1562v5.5781h-1.125v-11.516h0.875l0.125 1.375h0.0625q0.20312-0.28125 0.48437-0.57812 0.28125-0.29688 0.64063-0.51563 0.375-0.23437 0.8125-0.375 0.4375-0.14062 0.95312-0.14062zm-0.29687 0.9375q-0.76563 0-1.4375 0.42187-0.65625 0.40625-1.0938 1.1875v2.3594q0.14062 0.46875 0.40625 0.82812 0.28125 0.34375 0.64062 0.59375 0.35938 0.25 0.76563 0.39063 0.40625 0.125 0.82812 0.125 0.54688 0 0.96875-0.21875 0.42188-0.23438 0.6875-0.625 0.28125-0.40625 0.42188-0.9375 0.15625-0.53125 0.15625-1.125 0-0.57813-0.14063-1.125-0.14062-0.54688-0.42187-0.95313-0.28125-0.42187-0.73438-0.67187-0.4375-0.25-1.0469-0.25zm8.8406-0.9375q1.4062 0 2.1719 0.71875 0.76563 0.70312 0.76563 2 0 0.26562-0.0312 0.54687t-0.10938 0.40625h-5.3906v0.15625q0 0.60938 0.15625 1.1719t0.46875 1q0.32812 0.42187 0.8125 0.6875 0.5 0.25 1.1719 0.25 0.375 0 0.75-0.0781 0.375-0.0937 0.70313-0.23437 0.34375-0.14063 0.625-0.29688t0.51562-0.3125l0.1875 0.90625q-0.20312 0.125-0.51562 0.28125-0.29688 0.15625-0.67188 0.28125-0.35937 0.125-0.8125 0.20313-0.4375 0.0937-0.90625 0.0937-0.90625 0-1.5938-0.3125t-1.1562-0.84375q-0.45312-0.53125-0.70312-1.2344-0.23438-0.70312-0.23438-1.4844t0.25-1.4844q0.25-0.71875 0.71875-1.25 0.48438-0.54687 1.1875-0.85937 0.71875-0.3125 1.6406-0.3125zm-0.0469 0.89062q-1.0625 0-1.6562 0.5625-0.57812 0.54688-0.78125 1.375h4.375q0.0156-0.0781 0.0156-0.14062 0-0.0625 0-0.15625 0-0.39063-0.17188-0.70313-0.15625-0.3125-0.4375-0.51562-0.26562-0.21875-0.625-0.3125-0.34375-0.10938-0.71875-0.10938zm7.772 6.8906q-0.8125 0-1.4219-0.3125-0.60938-0.32813-1.0156-0.84375-0.39062-0.53125-0.59375-1.2188-0.20312-0.70313-0.20312-1.4688 0-0.79688 0.21875-1.5156t0.64062-1.25q0.42188-0.53125 1.0625-0.84375 0.64063-0.32812 1.4844-0.32812 1.0781 0 1.7656 0.46875 0.6875 0.45312 0.89063 1.1406v-5.8594h1.125v11.844h-0.875l-0.14063-1.3125h-0.0625q-0.375 0.59375-1.1094 1.0469-0.73438 0.45313-1.7656 0.45313zm0.125-0.9375q0.76563 0 1.5156-0.40625 0.75-0.42188 1.1875-1.2188v-2.3438q-0.28125-0.90625-0.96875-1.4219-0.67188-0.51562-1.5156-0.51562-0.5625 0-1.0156 0.23437-0.4375 0.21875-0.75 0.625-0.29688 0.39063-0.46875 0.95313-0.15625 0.5625-0.15625 1.2344 0 0.5 0.10937 1.0156 0.10938 0.51562 0.35938 0.92187 0.26562 0.40625 0.67187 0.67188 0.42188 0.25 1.0312 0.25z" fill="#000"/>
<path d="m571.93 325.27h-1.125v-7.3594h1.125zm-1.3594-10.047q0-0.32812 0.21875-0.57812 0.23438-0.25 0.57813-0.25 0.3125 0 0.5625 0.25 0.26562 0.25 0.26562 0.57812 0 0.32813-0.26562 0.5625-0.25 0.23438-0.5625 0.23438-0.34375 0-0.57813-0.23438-0.21875-0.23437-0.21875-0.5625zm9.0222 10.047v-4.8594q0-0.96875-0.4375-1.375-0.4375-0.42187-1.1094-0.42187-0.39063 0-0.78125 0.125-0.39063 0.125-0.73438 0.375-0.32812 0.25003-0.59375 0.6094-0.25 0.35938-0.39062 0.82813v4.7188h-1.125v-7.3594h0.875l0.125 1.375h0.0625q0.21875-0.6719 0.9375-1.1406t1.7969-0.46875q0.5 0 0.95313 0.14062 0.46875 0.125 0.79687 0.4375 0.34375 0.29688 0.53125 0.79688 0.20313 0.48441 0.20313 1.2032v5.0156zm10.703-7.5938q0.96875 0 1.6719 0.32812 0.70313 0.32813 1.1562 0.875 0.46875 0.54691 0.67188 1.2657 0.21875 0.70312 0.21875 1.5 0 0.78125-0.21875 1.4844-0.20313 0.6875-0.65625 1.2031-0.45313 0.51562-1.1562 0.82812-0.6875 0.29688-1.625 0.29688-0.98438 0-1.7031-0.3125-0.70312-0.32813-1.1719-0.85938-0.45313-0.53125-0.6875-1.2344-0.21875-0.70313-0.21875-1.5 0-0.78125 0.21875-1.4844 0.23437-0.70312 0.6875-1.2344 0.45312-0.53125 1.1562-0.84375 0.70312-0.3125 1.6562-0.3125zm0.0469 6.9375q0.64063 0 1.1094-0.23438 0.46875-0.25 0.78125-0.65625t0.45312-0.9375q0.15625-0.54687 0.15625-1.125 0-0.60937-0.15625-1.1719t-0.48437-0.98438q-0.3125-0.4219-0.79688-0.6719-0.48437-0.26563-1.1562-0.26563-0.65625 0-1.125 0.25-0.46875 0.23438-0.78125 0.64066-0.29687 0.39062-0.4375 0.92187-0.14062 0.53125-0.14062 1.125 0 0.60938 0.14062 1.1719 0.15625 0.5625 0.46875 1 0.3125 0.42187 0.79688 0.6875 0.5 0.25 1.1719 0.25zm6.726-6.7032v4.8594q0 0.5 0.125 0.84375 0.125 0.32812 0.3125 0.53125 0.20312 0.20312 0.48437 0.29687 0.28125 0.0781 0.625 0.0781 0.39063 0 0.78125-0.10938 0.40625-0.125 0.73438-0.35937 0.34375-0.25 0.59375-0.59375 0.25-0.35938 0.40625-0.82813v-4.7188h1.1094v7.3594h-0.875l-0.125-1.375h-0.0625q-0.21875 0.67187-0.9375 1.125-0.71875 0.4375-1.7969 0.4375-0.5 0-0.96875-0.125-0.45313-0.125-0.79688-0.42188-0.32812-0.29687-0.53125-0.78125-0.1875-0.48437-0.1875-1.2188v-5zm8.0008 0.75h-1.2188v-0.59375l1.25-0.15625 0.25-2.2188h0.84375v2.2188h1.7344v0.75h-1.7344v5.1094q0 0.51562 0.15625 0.67187t0.46875 0.15625q0.375 0 0.65625-0.10937 0.28125-0.10938 0.51563-0.28125l0.21875 0.85937q-0.26563 0.125-0.71875 0.25-0.4375 0.125-0.95313 0.125-0.51562 0-0.8125-0.14062-0.28125-0.14063-0.4375-0.375-0.14062-0.25-0.1875-0.54688-0.0312-0.29687-0.0312-0.57812zm7.9768-0.98437q1.4062 0 2.1719 0.71875 0.76563 0.70312 0.76563 2 0 0.26562-0.0312 0.54687t-0.10938 0.40625h-5.3906v0.15625q0 0.60938 0.15625 1.1719t0.46875 1q0.32812 0.42187 0.8125 0.6875 0.5 0.25 1.1719 0.25 0.375 0 0.75-0.0781 0.375-0.0937 0.70313-0.23437 0.34375-0.14063 0.625-0.29688t0.51562-0.3125l0.1875 0.90625q-0.20312 0.125-0.51562 0.28125-0.29688 0.15625-0.67188 0.28125-0.35937 0.125-0.8125 0.20313-0.4375 0.0937-0.90625 0.0937-0.90625 0-1.5938-0.3125t-1.1562-0.84375q-0.45312-0.53125-0.70312-1.2344-0.23438-0.70312-0.23438-1.4844t0.25-1.4844q0.25-0.71875 0.71875-1.25 0.48438-0.54687 1.1875-0.85937 0.71875-0.3125 1.6406-0.3125zm-0.0469 0.89062q-1.0625 0-1.6562 0.5625-0.57812 0.54691-0.78125 1.375h4.375q0.0156-0.0781 0.0156-0.14062 0-0.0625 0-0.15625 0-0.39063-0.17188-0.70313-0.15625-0.3125-0.4375-0.51565-0.26562-0.21875-0.625-0.3125-0.34375-0.10938-0.71875-0.10938zm8.9907 0.53125q-0.26563-0.14062-0.51563-0.23437-0.25-0.0937-0.5-0.0937-0.3125 0-0.60937 0.1875-0.28125 0.17187-0.53125 0.48441-0.23438 0.29687-0.42188 0.70312-0.17187 0.39063-0.26562 0.82813v4.2969h-1.125v-7.3594h0.875l0.125 1.6094h0.0625q0.125-0.35941 0.29687-0.68753 0.1875-0.34375 0.45313-0.59375 0.26562-0.26563 0.59375-0.40625 0.34375-0.15625 0.78125-0.15625 0.29687 0 0.625 0.10937 0.34375 0.0937 0.48437 0.25z" fill="#000"/>
<path d="m567.54 342.27h-1.2031v-10.562h1.2031zm3.1649-10.562h0.0625q0.51562-0.0312 1.1406-0.0469 0.625-0.0312 1.1875-0.0312 0.85938 0 1.5625 0.21875 0.70313 0.21875 1.2031 0.65625 0.51562 0.42188 0.79687 1.0625 0.28125 0.625 0.28125 1.4531 0 0.67187-0.23437 1.2656-0.21875 0.59375-0.67188 1.0469-0.4375 0.4375-1.1406 0.70312-0.6875 0.26563-1.625 0.26563-0.76563 0-1.3594-0.0469v4.0156h-1.2031zm2.4844 0.98437q-0.32812 0-0.65625 0.0156-0.32812 0-0.625 0.0156v4.4688q0.57813 0.0469 1.3125 0.0469 1.1875 0 1.7812-0.59375 0.60938-0.59375 0.60938-1.75 0-0.5-0.14063-0.90625-0.125-0.40625-0.40625-0.6875-0.28125-0.29688-0.75-0.45313-0.45312-0.15625-1.125-0.15625zm13.525 1.9844q0.8125 0 1.4219 0.32812 0.60938 0.3125 1 0.84375 0.40625 0.51563 0.60938 1.2188 0.20312 0.6875 0.20312 1.4531 0 0.8125-0.21875 1.5312-0.21875 0.70312-0.64062 1.2344-0.42188 0.53125-1.0625 0.85938-0.64063 0.3125-1.4844 0.3125-1.0781 0-1.7656-0.45313-0.6875-0.46875-0.89063-1.1562v5.5781h-1.125v-11.516h0.875l0.125 1.375h0.0625q0.20313-0.28125 0.48438-0.57812 0.28125-0.29688 0.64062-0.51563 0.375-0.23437 0.8125-0.375 0.4375-0.14062 0.95313-0.14062zm-0.29688 0.9375q-0.76562 0-1.4375 0.42187-0.65625 0.40625-1.0938 1.1875v2.3594q0.14063 0.46875 0.40625 0.82812 0.28125 0.34375 0.64063 0.59375 0.35937 0.25 0.76562 0.39063 0.40625 0.125 0.82813 0.125 0.54687 0 0.96875-0.21875 0.42187-0.23438 0.6875-0.625 0.28125-0.40625 0.42187-0.9375 0.15625-0.53125 0.15625-1.125 0-0.57813-0.14062-1.125-0.14063-0.54688-0.42188-0.95313-0.28125-0.42187-0.73437-0.67187-0.4375-0.25-1.0469-0.25zm10.216 6.6562-0.125-1.3125h-0.0625q-0.20312 0.29687-0.53125 0.57812-0.3125 0.26563-0.70312 0.48438-0.39063 0.20312-0.84375 0.3125-0.45313 0.125-0.90625 0.125-1.0469 0-1.5781-0.60938-0.53125-0.625-0.53125-1.5469 0-0.90625 0.45313-1.4531 0.46875-0.54687 1.1406-0.8125 0.67188-0.28125 1.4219-0.35937 0.75-0.0781 1.2969-0.0781h0.73438v-0.1875q0-0.60937-0.17188-0.92187-0.17187-0.32813-0.48437-0.5625-0.28125-0.17188-0.59375-0.23438-0.3125-0.0781-0.82813-0.0781-0.67187 0-1.1875 0.1875-0.5 0.17187-0.98437 0.45312l-0.25-0.95312q1.0625-0.625 2.5625-0.625 0.59375 0 1.1094 0.10937 0.53125 0.0937 0.9375 0.34375 0.45313 0.29688 0.71875 0.82813 0.28125 0.51562 0.28125 1.2969v5.0156zm-2.8281-0.75q0.65625 0 1.3906-0.40625 0.73438-0.42188 1.2031-1.2188v-1.4844h-0.15625q-0.65625 0-1.3125 0.0469t-1.1875 0.25q-0.53125 0.1875-0.875 0.54687-0.32813 0.35938-0.32813 0.98438t0.34375 0.95312q0.34375 0.32813 0.92188 0.32813zm11.859-5.2656q-0.35938-0.26562-1.0469-0.48437t-1.375-0.21875q-0.70312 0-1.2031 0.25-0.48438 0.23437-0.8125 0.64062-0.3125 0.39063-0.45313 0.90625-0.14062 0.51563-0.14062 1.0781 0 0.625 0.17187 1.2031 0.17188 0.57813 0.51563 1.0156 0.34375 0.42187 0.84375 0.6875 0.51562 0.25 1.1875 0.25 0.64062 0 1.3125-0.26563 0.6875-0.28125 1.1406-0.6875l0.21875 1.0312q-0.45312 0.29688-1.2344 0.54688-0.76563 0.25-1.6406 0.25-0.9375 0-1.6406-0.3125-0.6875-0.32813-1.1406-0.85938-0.45312-0.53125-0.6875-1.2344-0.23437-0.71875-0.23437-1.5312 0-0.76563 0.21875-1.4531 0.21875-0.70312 0.67187-1.2344 0.46875-0.53125 1.1875-0.84375t1.7344-0.3125q0.76562 0 1.5 0.17187 0.73437 0.17188 1.1875 0.46875zm5.2656 1.25 3.1406 4.7656h-1.2812l-2.6406-4-1.0938 1.1094v2.8906h-1.125v-11.844h1.125v7.5938l3.2188-3.1094h1.2812zm7.6089-2.8281q1.4062 0 2.1719 0.71875 0.76562 0.70312 0.76562 2 0 0.26562-0.0312 0.54687t-0.10937 0.40625h-5.3906v0.15625q0 0.60938 0.15625 1.1719t0.46875 1q0.32813 0.42187 0.8125 0.6875 0.5 0.25 1.1719 0.25 0.375 0 0.75-0.0781 0.375-0.0937 0.70312-0.23437 0.34375-0.14063 0.625-0.29688t0.51563-0.3125l0.1875 0.90625q-0.20313 0.125-0.51563 0.28125-0.29687 0.15625-0.67187 0.28125-0.35938 0.125-0.8125 0.20313-0.4375 0.0937-0.90625 0.0937-0.90625 0-1.5938-0.3125t-1.1562-0.84375q-0.45313-0.53125-0.70313-1.2344-0.23437-0.70312-0.23437-1.4844t0.25-1.4844q0.25-0.71875 0.71875-1.25 0.48437-0.54687 1.1875-0.85937 0.71875-0.3125 1.6406-0.3125zm-0.0469 0.89062q-1.0625 0-1.6562 0.5625-0.57813 0.54688-0.78125 1.375h4.375q0.0156-0.0781 0.0156-0.14062 0-0.0625 0-0.15625 0-0.39063-0.17187-0.70313-0.15625-0.3125-0.4375-0.51562-0.26563-0.21875-0.625-0.3125-0.34375-0.10938-0.71875-0.10938zm5.3502 0.0937h-1.2188v-0.59375l1.25-0.15625 0.25-2.2188h0.84375v2.2188h1.7344v0.75h-1.7344v5.1094q0 0.51562 0.15625 0.67187t0.46875 0.15625q0.375 0 0.65625-0.10937 0.28125-0.10938 0.51562-0.28125l0.21875 0.85937q-0.26562 0.125-0.71875 0.25-0.4375 0.125-0.95312 0.125-0.51563 0-0.8125-0.14062-0.28125-0.14063-0.4375-0.375-0.14063-0.25-0.1875-0.54688-0.0312-0.29687-0.0312-0.57812z" fill="#000"/>
<path d="m446.1 391.18v73.237h299.12v-73.174" fill-opacity="0"/>
<path d="m446.1 391.18v73.237h299.12v-25.174" fill-rule="evenodd" stroke="#9fc5e8" stroke-linejoin="round" stroke-width="8"/>
<path d="m758.44 439.25-13.214-36.305-13.214 36.305z" fill="#9fc5e8" fill-rule="evenodd" stroke="#9fc5e8" stroke-width="8"/>
</svg>
