<?xml version="1.0" encoding="UTF-8"?>
<svg fill="none" stroke-linecap="square" stroke-miterlimit="10" version="1.1" viewBox="0 0 1191.3 490.83" xmlns="http://www.w3.org/2000/svg">
<path d="m634.43 35.844c0-18.692 15.152-33.844 33.844-33.844h487.21c8.976 0 17.584 3.5657 23.931 9.9127 6.347 6.347 9.9127 14.955 9.9127 23.931v419.14c0 18.692-15.152 33.844-33.844 33.844h-487.21c-18.692 0-33.844-15.152-33.844-33.844z" fill-opacity="0"/>
<path d="m634.43 35.844c0-18.692 15.152-33.844 33.844-33.844h487.21c8.976 0 17.584 3.5657 23.931 9.9127 6.347 6.347 9.9127 14.955 9.9127 23.931v419.14c0 18.692-15.152 33.844-33.844 33.844h-487.21c-18.692 0-33.844-15.152-33.844-33.844z" fill-rule="evenodd" stroke="#ff0" stroke-linejoin="round" stroke-width="4"/>
<path d="m850.88 44.413h-2.3281l-4.4062-12.281-4.375 12.281h-2.3281l-6.0156-16.156h3.0469l4.1406 12.531 4.1562-12.531h2.7656l4.1406 12.531 4.125-12.531h3.0625zm11.54-11.625q1.5 0 2.5625 0.5 1.0781 0.5 1.7812 1.3438 0.70312 0.84375 1.0312 1.9375 0.32812 1.0938 0.32812 2.2969 0 1.1875-0.32812 2.25-0.32813 1.0625-1.0312 1.8594-0.70313 0.79687-1.7656 1.2656t-2.5 0.46875q-1.5 0-2.5781-0.48437-1.0781-0.5-1.7812-1.3125-0.70313-0.82813-1.0469-1.9062-0.34375-1.0781-0.34375-2.2656 0-1.2031 0.34375-2.2812 0.34375-1.0781 1.0312-1.8906 0.70313-0.82813 1.7812-1.2969 1.0781-0.48437 2.5156-0.48437zm0.0469 9.8906q0.71875 0 1.2344-0.29687 0.53125-0.3125 0.875-0.84375t0.5-1.2031q0.15625-0.6875 0.15625-1.4531 0-0.78125-0.17188-1.5-0.17187-0.71875-0.53125-1.2656-0.34375-0.5625-0.89062-0.89062-0.53125-0.32813-1.2969-0.32813-0.70312 0-1.2188 0.3125-0.51562 0.29688-0.84375 0.8125-0.32812 0.51563-0.48437 1.2031-0.15625 0.67187-0.15625 1.4375 0 0.78125 0.15625 1.5t0.5 1.2969q0.35937 0.5625 0.89062 0.89063 0.54688 0.32812 1.2812 0.32812zm14.808-7.0781q-0.25-0.1875-0.76562-0.3125-0.51563-0.125-0.875-0.125-0.48438 0-0.8125 0.23437-0.3125 0.23438-0.5625 0.60938-0.23438 0.375-0.40625 0.875-0.17188 0.48437-0.32813 1v6.5312h-2.6875v-11.25h2.1094l0.125 2.3438h0.0937q0.23437-0.51563 0.5-1 0.28125-0.5 0.625-0.875t0.79687-0.60938q0.45313-0.23437 1.0625-0.23437 0.98438 0 1.8281 0.64062zm8.1513 1.5156 4.7969 7.2969h-2.9375l-3.6562-5.5312-0.95312 0.95312v4.5781h-2.6875v-18.109h2.6875v10.453l3.75-3.5938h3.0156zm11.245-4.3281q2.1562 0 3.3281 1.0938 1.1719 1.0938 1.1719 3.0625 0 0.28125-0.0312 0.59375-0.0312 0.29687-0.0937 0.59375-0.0625 0.28125-0.15625 0.51562-0.0781 0.23438-0.17188 0.375h-7.125q0.0469 0.73438 0.26563 1.3906 0.21875 0.64062 0.64062 1.125 0.42188 0.48437 1.0156 0.76562t1.4062 0.28125q0.90625 0 1.9219-0.34375 1.0156-0.34375 1.7188-0.85937l0.45313 2q-0.32813 0.20312-0.79688 0.4375-0.45312 0.23437-1.0469 0.4375-0.59375 0.1875-1.2656 0.3125-0.67187 0.14062-1.4062 0.14062-1.3594 0-2.4219-0.46875-1.0469-0.48437-1.7656-1.2969-0.70312-0.82813-1.0781-1.9062-0.35938-1.0781-0.35938-2.25 0-1.2031 0.375-2.2812 0.39063-1.0938 1.125-1.9219 0.73438-0.84375 1.8125-1.3125 1.0938-0.48437 2.4844-0.48437zm-0.0625 2.1094q-1.0312 0-1.7656 0.60938-0.71875 0.59375-1.0312 1.6094h4.6719q0.0312-0.0625 0.0312-0.15625 0.0156-0.10937 0.0156-0.25 0-0.78125-0.54687-1.2969-0.53125-0.51563-1.375-0.51563zm13.747 0.70313q-0.25-0.1875-0.76562-0.3125-0.51563-0.125-0.875-0.125-0.48438 0-0.8125 0.23437-0.3125 0.23438-0.5625 0.60938-0.23438 0.375-0.40625 0.875-0.17188 0.48437-0.32813 1v6.5312h-2.6875v-11.25h2.1094l0.125 2.3438h0.0937q0.23437-0.51563 0.5-1 0.28125-0.5 0.625-0.875t0.79687-0.60938q0.45313-0.23437 1.0625-0.23437 0.98438 0 1.8281 0.64062zm19.186 4.5312v-11.875h2.8125v16.156h-3.4531l-7.0938-11.844v11.844h-2.8125v-16.156h3.4531zm11.373-7.3438q1.5 0 2.5625 0.5 1.0781 0.5 1.7812 1.3438 0.7031 0.84375 1.0313 1.9375 0.3281 1.0938 0.3281 2.2969 0 1.1875-0.3281 2.25-0.3282 1.0625-1.0313 1.8594-0.70312 0.79687-1.7656 1.2656t-2.5 0.46875q-1.5 0-2.5781-0.48437-1.0781-0.5-1.7812-1.3125-0.70312-0.82813-1.0469-1.9062-0.34375-1.0781-0.34375-2.2656 0-1.2031 0.34375-2.2812 0.34375-1.0781 1.0312-1.8906 0.70312-0.82813 1.7812-1.2969 1.0781-0.48437 2.5156-0.48437zm0.0469 9.8906q0.71875 0 1.2344-0.29687 0.53125-0.3125 0.875-0.84375t0.5-1.2031q0.15625-0.6875 0.15625-1.4531 0-0.78125-0.17187-1.5-0.17188-0.71875-0.53125-1.2656-0.34375-0.5625-0.89063-0.89062-0.53125-0.32813-1.2969-0.32813-0.70313 0-1.2188 0.3125-0.51563 0.29688-0.84375 0.8125-0.32813 0.51563-0.48438 1.2031-0.15625 0.67187-0.15625 1.4375 0 0.78125 0.15625 1.5t0.5 1.2969q0.35938 0.5625 0.89063 0.89063 0.54687 0.32812 1.2812 0.32812zm12.855 2.0312q-1.1563 0-2.1094-0.46875t-1.625-1.2656q-0.6719-0.8125-1.0469-1.9062-0.3593-1.1094-0.3593-2.4062 0-1.1562 0.2968-2.2188 0.3125-1.0625 0.9375-1.8594 0.6407-0.8125 1.5782-1.2969 0.9531-0.5 2.25-0.5 1.1718 0 2.0937 0.39062 0.9375 0.39063 1.5 1.1094v-7.9844h2.6719v18.109h-2.1563l-0.2031-1.5469h-0.094q-0.6875 0.76563-1.5625 1.3125-0.8594 0.53125-2.1719 0.53125zm0.3437-2.0312q0.3907 0 0.8282-0.10937 0.4375-0.10938 0.8593-0.29688 0.4375-0.20312 0.8282-0.48437 0.3906-0.28125 0.6562-0.65625v-4.7031q-0.7344-0.89062-1.5-1.2188-0.75-0.34375-1.4531-0.34375-0.7813 0-1.3438 0.3125-0.5625 0.29688-0.9531 0.84375-0.375 0.53125-0.5625 1.2344-0.1875 0.70312-0.1875 1.4531 0 0.73438 0.1719 1.4531t0.5156 1.2812q0.3438 0.54687 0.875 0.89062 0.5469 0.34375 1.2656 0.34375zm14.326-9.8906q2.1563 0 3.3282 1.0938t1.1719 3.0625q0 0.28125-0.031 0.59375-0.031 0.29687-0.094 0.59375-0.062 0.28125-0.1563 0.51562-0.078 0.23438-0.1718 0.375h-7.1251q0.047 0.73438 0.2656 1.3906 0.2188 0.64062 0.6407 1.125 0.4218 0.48437 1.0156 0.76562 0.5937 0.28125 1.4063 0.28125 0.9062 0 1.9219-0.34375 1.0156-0.34375 1.7187-0.85937l0.4531 2q-0.3281 0.20312-0.7968 0.4375-0.4532 0.23437-1.0469 0.4375-0.5938 0.1875-1.2656 0.3125-0.6719 0.14062-1.4063 0.14062-1.3594 0-2.4219-0.46875-1.0469-0.48437-1.7656-1.2969-0.7032-0.82813-1.0782-1.9062-0.3593-1.0781-0.3593-2.25 0-1.2031 0.375-2.2812 0.3906-1.0938 1.125-1.9219 0.7343-0.84375 1.8125-1.3125 1.0937-0.48437 2.4843-0.48437zm-0.062 2.1094q-1.0312 0-1.7656 0.60938-0.7187 0.59375-1.0312 1.6094h4.6719q0.031-0.0625 0.031-0.15625 0.016-0.10937 0.016-0.25 0-0.78125-0.5469-1.2969-0.5313-0.51563-1.3751-0.51563zm12.836-5.4844q0.4688-0.25 1.0625-0.46875 0.6094-0.23438 1.25-0.42188 0.6563-0.1875 1.3125-0.28125 0.6563-0.0937 1.2969-0.0937 1.0312 0 1.9062 0.28125 0.8907 0.28125 1.5 0.8125 0.625 0.51563 0.9844 1.2656 0.3594 0.73437 0.3594 1.6406 0 1.25-0.625 2.4844-0.625 1.2344-1.5781 2.4844-0.9375 1.2344-2.0625 2.4531-1.125 1.2031-2.0938 2.3906h6.5313v2.4531h-9.9063v-2.4531q0.9531-1.2969 2.1563-2.5469 1.2187-1.2656 2.2812-2.4531 1.0625-1.2031 1.7969-2.3594t0.7344-2.25q0-1.0469-0.6875-1.4844-0.6875-0.45312-1.7813-0.45312-1.0625 0-2.0781 0.34375-1.0156 0.32812-1.7969 0.76562z" fill="#fff"/>
<path d="m802.2 102.41h-2.8125v-7.0938h-7.7344v7.0938h-2.8125v-16.156h2.8125v6.6094h7.7344v-6.6094h2.8125zm8.5601-11.625q1.5 0 2.5625 0.5 1.0781 0.5 1.7812 1.3438 0.70313 0.84375 1.0312 1.9375 0.32813 1.0938 0.32813 2.2969 0 1.1875-0.32813 2.25-0.32812 1.0625-1.0312 1.8594-0.70312 0.79687-1.7656 1.2656t-2.5 0.46875q-1.5 0-2.5781-0.48437-1.0781-0.5-1.7812-1.3125-0.70312-0.82813-1.0469-1.9062-0.34375-1.0781-0.34375-2.2656 0-1.2031 0.34375-2.2812 0.34375-1.0781 1.0312-1.8906 0.70312-0.82813 1.7812-1.2969 1.0781-0.48437 2.5156-0.48437zm0.0469 9.8906q0.71875 0 1.2344-0.29687 0.53125-0.3125 0.875-0.84375t0.5-1.2031q0.15625-0.6875 0.15625-1.4531 0-0.78125-0.17187-1.5-0.17188-0.71875-0.53125-1.2656-0.34375-0.5625-0.89063-0.89062-0.53125-0.32813-1.2969-0.32813-0.70313 0-1.2188 0.3125-0.51563 0.29688-0.84375 0.8125-0.32813 0.51563-0.48438 1.2031-0.15625 0.67187-0.15625 1.4375 0 0.78125 0.15625 1.5t0.5 1.2969q0.35938 0.5625 0.89063 0.89063 0.54687 0.32812 1.2812 0.32812zm11.793-7.875q-0.79688 0-1.25 0.3125-0.45313 0.29688-0.45313 0.85938 0 0.35937 0.25 0.67187 0.26563 0.29688 1.0938 0.5l1.7344 0.39063q1.0312 0.21875 1.6562 0.64062 0.625 0.40625 0.96875 0.90625 0.35937 0.48438 0.48437 1 0.125 0.51563 0.125 0.95313 0 0.78125-0.32812 1.4531-0.3125 0.67188-0.90625 1.1719-0.57813 0.48437-1.4219 0.76562-0.82812 0.28125-1.8438 0.28125-1.2969 0-2.4062-0.375-1.0938-0.39062-1.7656-0.85937l0.64062-2.3125q0.82813 0.79687 1.8594 1.2031 1.0469 0.39063 1.9375 0.39063 0.92187 0 1.4062-0.40625 0.5-0.40625 0.5-1.125 0-0.40625-0.25-0.6875-0.23438-0.28125-0.96875-0.48438l-2.3594-0.57812q-0.82812-0.20313-1.3594-0.5625-0.51563-0.375-0.82813-0.82813-0.29687-0.45312-0.42187-0.9375-0.10938-0.48437-0.10938-0.9375 0-1.6406 1.1562-2.5312 1.1562-0.89062 2.9844-0.89062 0.95312 0 2.0469 0.26562 1.1094 0.25 1.875 0.73438l-0.71875 2.2031q-0.48437-0.39062-1.375-0.78125-0.875-0.40625-1.9531-0.40625zm7.6887 0h-1.3906v-1.4688l1.5781-0.25 0.45312-3.3281h2.0469v3.4062h2.1562v1.6406h-2.1562v6.4531q0 0.73437 0.14062 1 0.15625 0.25 0.57813 0.25 0.3125 0 0.625-0.125 0.32812-0.125 0.9375-0.46875l0.4375 1.9375q-0.46875 0.39062-1.3125 0.625-0.84375 0.23437-1.6719 0.23437-0.73437 0-1.2188-0.20312-0.46875-0.1875-0.75-0.5625-0.26562-0.39063-0.35937-0.92188-0.0937-0.54687-0.0937-1.2031zm16.884 9.6094h-2.8125v-16.156h2.8125zm8.7142-6.0625q-0.42187 0-0.82812 0t-0.76563-0.0312v6.0938h-2.8125v-16.156q0.35938-0.0156 0.82813-0.0312 0.48437-0.0312 1.0156-0.0469 0.53125-0.0156 1.0469-0.0156 0.53125-0.0156 1-0.0156 1.3594 0 2.4844 0.32813 1.1406 0.32812 1.9375 0.98437 0.8125 0.65625 1.25 1.625t0.4375 2.25q0 1.0156-0.34375 1.9219t-1.0312 1.5938q-0.67187 0.6875-1.7344 1.0938t-2.4844 0.40625zm-0.125-7.8594q-0.39062 0-0.76562 0-0.35938 0-0.70313 0.0312v5.4531q0.34375 0.0156 0.71875 0.0156t0.79688 0q1.3281 0 2-0.73437 0.67187-0.73438 0.67187-2.125 0-1.1719-0.60937-1.9062-0.59375-0.73438-2.1094-0.73438zm8.1491 12.484q0-0.34375 0.125-0.65625 0.14063-0.32813 0.375-0.57813 0.25-0.26562 0.54688-0.40625 0.3125-0.15625 0.6875-0.15625 0.34375 0 0.65625 0.15625 0.32812 0.14063 0.57812 0.40625 0.26563 0.25 0.40625 0.57813 0.14063 0.3125 0.14063 0.65625 0 0.35937-0.14063 0.67187-0.14062 0.29688-0.40625 0.54688-0.25 0.25-0.57812 0.375-0.3125 0.14062-0.65625 0.14062-0.70313 0-1.2188-0.51562-0.51563-0.51563-0.51563-1.2188zm0-7.9062q0-0.34375 0.125-0.65625 0.14063-0.32813 0.375-0.57813 0.25-0.26562 0.54688-0.40625 0.3125-0.15625 0.6875-0.15625 0.34375 0 0.65625 0.15625 0.32812 0.14063 0.57812 0.40625 0.26563 0.25 0.40625 0.57813 0.14063 0.3125 0.14063 0.65625 0 0.35937-0.14063 0.67187-0.14062 0.29688-0.40625 0.54688-0.25 0.25-0.57812 0.39062-0.3125 0.125-0.65625 0.125-0.70313 0-1.2188-0.51562-0.51563-0.51563-0.51563-1.2188zm17.105 9.3438h-2.8125v-11.891l-1.9844 0.875-0.54688-2.4375 5.3438-2.7031zm11.273-7.8594q-0.42187 0.89063-1.2969 1.3125-0.85938 0.40625-2.0312 0.40625-1.3906 0-2.2969-0.51562-0.90625-0.51563-1.4531-1.2656-0.53125-0.76562-0.75-1.625-0.20313-0.875-0.20313-1.6094 0-0.875 0.28125-1.7812t0.90625-1.6406q0.625-0.73437 1.6094-1.2031 1-0.46875 2.4531-0.46875 1.5156 0 2.5469 0.5625 1.0469 0.54687 1.6875 1.5469 0.65625 1 0.9375 2.4062 0.29687 1.4062 0.29687 3.125 0 1.6562-0.28125 3.2656-0.28125 1.5938-0.98437 2.8438-0.6875 1.25-1.8594 2.0312-1.1562 0.76562-2.8906 0.76562-0.4375 0-0.98438-0.0625-0.53125-0.0625-1.0781-0.21875-0.54688-0.14062-1.0625-0.375-0.51563-0.25-0.89063-0.625l0.60938-2.1406q0.8125 0.60937 1.7188 0.85937 0.90625 0.23438 1.5938 0.23438 1.0312 0 1.7031-0.45313 0.67188-0.45312 1.0625-1.1875 0.40625-0.73437 0.57813-1.6406 0.17187-0.90625 0.17187-1.8125 0-0.1875 0-0.34375 0-0.17188-0.0156-0.35938zm-5.1406-3.2031q0 0.51562 0.0937 1.0156 0.10937 0.48438 0.35937 0.85938 0.26563 0.375 0.6875 0.59375 0.42188 0.21875 1.0625 0.21875 1.25 0 1.875-0.79688 0.625-0.8125 0.625-2.0625 0-1.2656-0.64062-2.0156-0.64063-0.76563-1.7344-0.76563t-1.7188 0.78125q-0.60937 0.78125-0.60937 2.1719zm10.423-3.9375q0.46875-0.25 1.0625-0.46875 0.60938-0.23438 1.25-0.42188 0.65625-0.1875 1.3125-0.28125 0.65625-0.0937 1.2969-0.0937 1.0312 0 1.9062 0.28125 0.89062 0.28125 1.5 0.8125 0.625 0.51563 0.98437 1.2656 0.35938 0.73437 0.35938 1.6406 0 1.25-0.625 2.4844-0.625 1.2344-1.5781 2.4844-0.9375 1.2344-2.0625 2.4531-1.125 1.2031-2.0938 2.3906h6.5312v2.4531h-9.9062v-2.4531q0.95313-1.2969 2.1562-2.5469 1.2188-1.2656 2.2812-2.4531 1.0625-1.2031 1.7969-2.3594 0.73437-1.1562 0.73437-2.25 0-1.0469-0.6875-1.4844-0.6875-0.45312-1.7812-0.45312-1.0625 0-2.0781 0.34375-1.0156 0.32812-1.7969 0.76562zm12.488 13.562q0-0.34375 0.125-0.65625 0.14062-0.32813 0.375-0.57813 0.25-0.26562 0.54687-0.40625 0.3125-0.15625 0.6875-0.15625 0.34375 0 0.65625 0.15625 0.32813 0.14063 0.57813 0.40625 0.25 0.25 0.39062 0.57813 0.15625 0.3125 0.15625 0.65625 0 0.35937-0.15625 0.67187-0.14062 0.29688-0.39062 0.54688t-0.57813 0.375q-0.3125 0.14062-0.65625 0.14062-0.71875 0-1.2344-0.51562-0.5-0.51563-0.5-1.2188zm10.35 1.4375h-2.8125v-11.891l-1.9844 0.875-0.54687-2.4375 5.3438-2.7031zm6.2106-8.0938q0.42187-0.89063 1.2812-1.2969 0.875-0.42187 2.0469-0.42187 1.3906 0 2.2969 0.51562 0.90625 0.51563 1.4375 1.2812 0.54687 0.75 0.75 1.625 0.21875 0.85938 0.21875 1.5938 0 0.875-0.28125 1.7812t-0.90625 1.6406q-0.625 0.73437-1.6406 1.2031-1 0.46875-2.4219 0.46875-1.5156 0-2.5625-0.54687-1.0312-0.5625-1.6875-1.5625-0.64063-1-0.9375-2.4062-0.28125-1.4062-0.28125-3.125 0-1.6562 0.28125-3.25 0.28125-1.6094 0.96875-2.8594 0.70312-1.25 1.8594-2.0156 1.1719-0.78125 2.9062-0.78125 0.4375 0 0.96875 0.0625 0.54688 0.0625 1.0938 0.21875 0.54688 0.14062 1.0625 0.39062 0.51563 0.23438 0.89063 0.60938l-0.60938 2.1406q-0.8125-0.60937-1.7188-0.84375-0.90625-0.25-1.5938-0.25-1.0312 0-1.7188 0.45313-0.67187 0.45312-1.0781 1.1875-0.40625 0.73437-0.5625 1.6406t-0.15625 1.8125q0 0.1875 0 0.35938 0 0.15625 0.0156 0.34375zm5.1406 3.2031q0-0.51562-0.10937-1-0.0937-0.5-0.35938-0.875-0.25-0.375-0.67187-0.59375-0.42188-0.21875-1.0625-0.21875-1.25 0-1.875 0.8125-0.625 0.79688-0.625 2.0469 0 1.2656 0.64062 2.0312 0.64063 0.75 1.7344 0.75 1.1094 0 1.7188-0.78125 0.60937-0.78125 0.60937-2.1719zm13.095-3.9688q1.4063 0.3125 2.1719 1.4688 0.7813 1.1562 0.7813 2.7969 0 1.0156-0.3282 1.9219-0.3125 0.89063-0.9843 1.5469-0.6719 0.65625-1.7032 1.0469-1.0156 0.375-2.4218 0.375-1.4688 0-2.5-0.40625-1.0156-0.40625-1.6562-1.0781-0.64063-0.67188-0.9375-1.5469-0.28125-0.89062-0.28125-1.8125 0-1.625 0.78125-2.75t2.1719-1.5312v-0.10937q-0.84375-0.3125-1.5-1.1875-0.64062-0.89063-0.64062-2.2344 0-1.7656 1.1875-2.8281 1.2031-1.0781 3.4062-1.0781 2.1562 0 3.375 1.0469 1.2188 1.0312 1.2188 2.7812 0 1.2969-0.625 2.2031-0.625 0.89063-1.5157 1.2812zm0.1407 4.3281q0-0.5625-0.1563-1.125-0.1406-0.5625-0.46872-1-0.3125-0.4375-0.8125-0.71875t-1.1875-0.28125q-0.70313 0-1.2031 0.28125-0.48437 0.28125-0.79687 0.73437-0.3125 0.45313-0.46875 1.0156-0.14063 0.5625-0.14063 1.0938 0 1.3281 0.71875 2.0156t1.8906 0.6875q1.1875 0 1.9062-0.6875 0.71877-0.6875 0.71877-2.0156zm-0.7344-7.5q0-0.96875-0.48437-1.5156-0.46875-0.54687-1.4062-0.54687-0.90625 0-1.3906 0.53125-0.48437 0.51562-0.48437 1.5 0 1.0312 0.51562 1.625 0.51563 0.57812 1.3594 0.57812 0.85937 0 1.375-0.57812 0.51562-0.59375 0.51562-1.5938zm6.1703 10.594q0-0.34375 0.125-0.65625 0.1407-0.32813 0.375-0.57813 0.25-0.26562 0.5469-0.40625 0.3125-0.15625 0.6875-0.15625 0.3438 0 0.6563 0.15625 0.3281 0.14063 0.5781 0.40625 0.25 0.25 0.3906 0.57813 0.1563 0.3125 0.1563 0.65625 0 0.35937-0.1563 0.67187-0.1406 0.29688-0.3906 0.54688t-0.5781 0.375q-0.3125 0.14062-0.6563 0.14062-0.7187 0-1.2344-0.51562-0.5-0.51563-0.5-1.2188zm10.35 1.4375h-2.8125v-11.891l-1.9843 0.875-0.5469-2.4375 5.3437-2.7031zm4.0387 0q-0.031-0.21875-0.031-0.46875 0-0.26563 0-0.48438 0-1.4375 0.5781-3.1562 0.5781-1.7344 1.4844-3.4531 0.9062-1.7344 1.9844-3.3281 1.0938-1.6094 2.125-2.8125h-7.125v-2.5625h9.9063v2.5625q-1.0469 1.1562-2.1094 2.8125-1.0469 1.6406-1.875 3.4375-0.8281 1.7812-1.3438 3.5-0.5156 1.7031-0.5156 2.9688 0 0.28125 0 0.53125 0 0.23438 0.016 0.45313zm18.401-8.8594q1.4062 0.3125 2.1718 1.4688 0.7813 1.1562 0.7813 2.7969 0 1.0156-0.3281 1.9219-0.3125 0.89063-0.9844 1.5469t-1.7031 1.0469q-1.0157 0.375-2.4219 0.375-1.4688 0-2.5-0.40625-1.0156-0.40625-1.6563-1.0781-0.6406-0.67188-0.9375-1.5469-0.2812-0.89062-0.2812-1.8125 0-1.625 0.7812-2.75 0.7813-1.125 2.1719-1.5312v-0.10937q-0.8437-0.3125-1.5-1.1875-0.6406-0.89063-0.6406-2.2344 0-1.7656 1.1875-2.8281 1.2031-1.0781 3.4062-1.0781 2.1563 0 3.375 1.0469 1.2188 1.0312 1.2188 2.7812 0 1.2969-0.625 2.2031-0.625 0.89063-1.5156 1.2812zm0.1406 4.3281q0-0.5625-0.1563-1.125-0.1406-0.5625-0.4687-1-0.3125-0.4375-0.8125-0.71875t-1.1875-0.28125q-0.7031 0-1.2031 0.28125-0.4844 0.28125-0.7969 0.73437-0.3125 0.45313-0.4688 1.0156-0.1406 0.5625-0.1406 1.0938 0 1.3281 0.7188 2.0156 0.7187 0.6875 1.8906 0.6875 1.1875 0 1.9062-0.6875 0.7188-0.6875 0.7188-2.0156zm-0.7344-7.5q0-0.96875-0.4844-1.5156-0.4687-0.54687-1.4062-0.54687-0.9063 0-1.3906 0.53125-0.4844 0.51562-0.4844 1.5 0 1.0312 0.5156 1.625 0.5156 0.57812 1.3594 0.57812 0.8594 0 1.375-0.57812 0.5156-0.59375 0.5156-1.5938zm6.1703 10.594q0-0.34375 0.125-0.65625 0.1406-0.32813 0.375-0.57813 0.25-0.26562 0.5469-0.40625 0.3125-0.15625 0.6875-0.15625 0.3437 0 0.6562 0.15625 0.3282 0.14063 0.5782 0.40625 0.25 0.25 0.3906 0.57813 0.1562 0.3125 0.1562 0.65625 0 0.35937-0.1562 0.67187-0.1406 0.29688-0.3906 0.54688t-0.5782 0.375q-0.3125 0.14062-0.6562 0.14062-0.7188 0-1.2344-0.51562-0.5-0.51563-0.5-1.2188zm6.0833-13.562q0.4687-0.25 1.0625-0.46875 0.6093-0.23438 1.25-0.42188 0.6562-0.1875 1.3125-0.28125 0.6562-0.0937 1.2968-0.0937 1.0313 0 1.9063 0.28125 0.8906 0.28125 1.5 0.8125 0.625 0.51563 0.9844 1.2656 0.3593 0.73437 0.3593 1.6406 0 1.25-0.625 2.4844-0.625 1.2344-1.5781 2.4844-0.9375 1.2344-2.0625 2.4531-1.125 1.2031-2.0937 2.3906h6.5312v2.4531h-9.9062v-2.4531q0.9531-1.2969 2.1562-2.5469 1.2188-1.2656 2.2813-2.4531 1.0625-1.2031 1.7968-2.3594 0.7344-1.1562 0.7344-2.25 0-1.0469-0.6875-1.4844-0.6875-0.45312-1.7812-0.45312-1.0625 0-2.0782 0.34375-1.0156 0.32812-1.7968 0.76562zm18.895-1.2656q1.5625 0 2.7657 0.67188 1.2187 0.67187 2.0468 1.7969 0.8438 1.125 1.2657 2.6094 0.4375 1.4688 0.4375 3.1094 0 1.6406-0.4532 3.1562-0.4375 1.5-1.2812 2.6719-0.8438 1.1562-2.0938 1.8594-1.25 0.6875-2.8593 0.6875-1.5938 0-2.7813-0.65625-1.1875-0.67187-1.9687-1.7969-0.7813-1.125-1.1875-2.5938-0.4063-1.4844-0.4063-3.125 0-1.7344 0.4375-3.2656 0.4531-1.5312 1.2813-2.6719 0.8281-1.1406 2.0312-1.7969 1.2188-0.65625 2.7656-0.65625zm-0.078 14.203q0.9375 0 1.6094-0.4375 0.6719-0.45313 1.1094-1.2656t0.6562-1.9062q0.2188-1.1094 0.2188-2.375 0-1.2969-0.2188-2.375-0.2187-1.0781-0.6719-1.8594-0.4531-0.78125-1.1406-1.2031-0.6719-0.4375-1.5781-0.4375-0.9063 0-1.5625 0.4375-0.6406 0.42188-1.0469 1.1875-0.4062 0.76563-0.6094 1.8594-0.1875 1.0938-0.1875 2.3906 0 2.9531 0.8907 4.4688 0.8906 1.5156 2.5312 1.5156zm15.616-14.203q1.5625 0 2.7657 0.67188 1.2187 0.67187 2.0468 1.7969 0.8438 1.125 1.2657 2.6094 0.4375 1.4688 0.4375 3.1094 0 1.6406-0.4532 3.1562-0.4375 1.5-1.2812 2.6719-0.8438 1.1562-2.0938 1.8594-1.25 0.6875-2.8593 0.6875-1.5938 0-2.7813-0.65625-1.1875-0.67187-1.9687-1.7969-0.7813-1.125-1.1875-2.5938-0.4063-1.4844-0.4063-3.125 0-1.7344 0.4375-3.2656 0.4531-1.5312 1.2813-2.6719 0.8281-1.1406 2.0312-1.7969 1.2188-0.65625 2.7656-0.65625zm-0.078 14.203q0.9375 0 1.6094-0.4375 0.6719-0.45313 1.1094-1.2656t0.6562-1.9062q0.2188-1.1094 0.2188-2.375 0-1.2969-0.2188-2.375-0.2187-1.0781-0.6719-1.8594-0.4531-0.78125-1.1406-1.2031-0.6719-0.4375-1.5781-0.4375-0.9063 0-1.5625 0.4375-0.6406 0.42188-1.0469 1.1875-0.4062 0.76563-0.6094 1.8594-0.1875 1.0938-0.1875 2.3906 0 2.9531 0.8907 4.4688 0.8906 1.5156 2.5312 1.5156z" fill="#fff"/>
<path d="m779.39 147.74q-0.78125-0.54687-1.875-0.875-1.0781-0.32812-2.4688-0.32812-1.3281 0-2.2656 0.42187-0.9375 0.40625-1.5312 1.1719-0.59375 0.75-0.875 1.8281-0.28125 1.0625-0.28125 2.3594 0 2.9531 1.2656 4.4688 1.2656 1.5156 3.6406 1.5156 1.4688 0 2.6719-0.4375 1.2188-0.4375 2-1.0781l0.73438 2.4219q-0.98438 0.59375-2.375 1.0469-1.375 0.45312-3.1094 0.45312-2.0156 0-3.4844-0.65625-1.4531-0.67187-2.4219-1.7969t-1.4375-2.5938q-0.46875-1.4844-0.46875-3.1562 0-1.7344 0.51563-3.25 0.51562-1.5156 1.5312-2.6562 1.0156-1.1406 2.5156-1.7969 1.5156-0.65625 3.5156-0.65625 1.3281 0 2.6406 0.28125 1.3281 0.28125 2.2812 0.76563zm6.3976 12.672h-2.7031v-18.109h2.7031zm6.1119-11.25v7.3125q0 1 0.51563 1.5312 0.53125 0.51562 1.375 0.51562t1.5469-0.5625q0.71875-0.57812 1.0625-1.6562v-7.1406h2.7188v11.25h-2.1094l-0.14063-1.5625h-0.0937q-0.28125 0.5625-0.70312 0.92187-0.40625 0.34375-0.90625 0.5625-0.5 0.20313-1.0469 0.28125-0.53125 0.0937-1.0469 0.0937-0.79688 0-1.5-0.20312-0.70313-0.1875-1.2344-0.64063-0.51562-0.45312-0.82812-1.2031-0.29688-0.75-0.29688-1.8438v-7.6562zm14.017 1.6406q-0.79687 0-1.25 0.3125-0.45312 0.29688-0.45312 0.85938 0 0.35937 0.25 0.67187 0.26562 0.29688 1.0938 0.5l1.7344 0.39063q1.0312 0.21875 1.6562 0.64062 0.625 0.40625 0.96875 0.90625 0.35938 0.48438 0.48438 1 0.125 0.51563 0.125 0.95313 0 0.78125-0.32813 1.4531-0.3125 0.67188-0.90625 1.1719-0.57812 0.48437-1.4219 0.76562-0.82813 0.28125-1.8438 0.28125-1.2969 0-2.4062-0.375-1.0938-0.39062-1.7656-0.85937l0.64063-2.3125q0.82812 0.79687 1.8594 1.2031 1.0469 0.39063 1.9375 0.39063 0.92188 0 1.4062-0.40625 0.5-0.40625 0.5-1.125 0-0.40625-0.25-0.6875-0.23437-0.28125-0.96875-0.48438l-2.3594-0.57812q-0.82813-0.20313-1.3594-0.5625-0.51562-0.375-0.82812-0.82813-0.29688-0.45312-0.42188-0.9375-0.10937-0.48437-0.10937-0.9375 0-1.6406 1.1562-2.5312 1.1562-0.89062 2.9844-0.89062 0.95313 0 2.0469 0.26562 1.1094 0.25 1.875 0.73438l-0.71875 2.2031q-0.48438-0.39062-1.375-0.78125-0.875-0.40625-1.9531-0.40625zm7.6887 0h-1.3906v-1.4688l1.5781-0.25 0.45313-3.3281h2.0469v3.4062h2.1562v1.6406h-2.1562v6.4531q0 0.73437 0.14063 1 0.15625 0.25 0.57812 0.25 0.3125 0 0.625-0.125 0.32813-0.125 0.9375-0.46875l0.4375 1.9375q-0.46875 0.39062-1.3125 0.625-0.84375 0.23437-1.6719 0.23437-0.73438 0-1.2188-0.20312-0.46875-0.1875-0.75-0.5625-0.26563-0.39063-0.35938-0.92188-0.0937-0.54687-0.0937-1.2031zm12.717-2.0156q2.1562 0 3.3281 1.0938 1.1719 1.0938 1.1719 3.0625 0 0.28125-0.0312 0.59375-0.0312 0.29687-0.0937 0.59375-0.0625 0.28125-0.15625 0.51562-0.0781 0.23438-0.17187 0.375h-7.125q0.0469 0.73438 0.26562 1.3906 0.21875 0.64062 0.64063 1.125 0.42187 0.48437 1.0156 0.76562t1.4062 0.28125q0.90625 0 1.9219-0.34375 1.0156-0.34375 1.7188-0.85937l0.45312 2q-0.32812 0.20312-0.79687 0.4375-0.45313 0.23437-1.0469 0.4375-0.59375 0.1875-1.2656 0.3125-0.67188 0.14062-1.4062 0.14062-1.3594 0-2.4219-0.46875-1.0469-0.48437-1.7656-1.2969-0.70313-0.82813-1.0781-1.9062-0.35937-1.0781-0.35937-2.25 0-1.2031 0.375-2.2812 0.39062-1.0938 1.125-1.9219 0.73437-0.84375 1.8125-1.3125 1.0938-0.48437 2.4844-0.48437zm-0.0625 2.1094q-1.0312 0-1.7656 0.60938-0.71875 0.59375-1.0312 1.6094h4.6719q0.0312-0.0625 0.0312-0.15625 0.0156-0.10937 0.0156-0.25 0-0.78125-0.54688-1.2969-0.53125-0.51563-1.375-0.51563zm13.747 0.70313q-0.25-0.1875-0.76562-0.3125-0.51563-0.125-0.875-0.125-0.48438 0-0.8125 0.23437-0.3125 0.23438-0.5625 0.60938-0.23438 0.375-0.40625 0.875-0.17188 0.48437-0.32813 1v6.5312h-2.6875v-11.25h2.1094l0.125 2.3438h0.0937q0.23437-0.51563 0.5-1 0.28125-0.5 0.625-0.875t0.79687-0.60938q0.45313-0.23437 1.0625-0.23437 0.98438 0 1.8281 0.64062zm11.451 8.8125h-2.8125v-16.156h2.8125zm8.7141-6.0625q-0.42188 0-0.82813 0t-0.76562-0.0312v6.0938h-2.8125v-16.156q0.35937-0.0156 0.82812-0.0312 0.48438-0.0312 1.0156-0.0469 0.53125-0.0156 1.0469-0.0156 0.53125-0.0156 1-0.0156 1.3594 0 2.4844 0.32813 1.1406 0.32812 1.9375 0.98437 0.8125 0.65625 1.25 1.625t0.4375 2.25q0 1.0156-0.34375 1.9219t-1.0312 1.5938q-0.67188 0.6875-1.7344 1.0938t-2.4844 0.40625zm-0.125-7.8594q-0.39063 0-0.76563 0-0.35937 0-0.70312 0.0312v5.4531q0.34375 0.0156 0.71875 0.0156t0.79687 0q1.3281 0 2-0.73437 0.67188-0.73438 0.67188-2.125 0-1.1719-0.60938-1.9062-0.59375-0.73438-2.1094-0.73438zm20.406 5.1094q-0.25-0.1875-0.76562-0.3125-0.51563-0.125-0.875-0.125-0.48438 0-0.8125 0.23437-0.3125 0.23438-0.5625 0.60938-0.23438 0.375-0.40625 0.875-0.17188 0.48437-0.32813 1v6.5312h-2.6875v-11.25h2.1094l0.125 2.3438h0.0937q0.23437-0.51563 0.5-1 0.28125-0.5 0.625-0.875t0.79687-0.60938q0.45313-0.23437 1.0625-0.23437 0.98438 0 1.8281 0.64062zm9.4508 8.8125-0.20313-1.5469h-0.0937q-0.67187 0.84375-1.8125 1.3438-1.125 0.5-2.2969 0.5-1.5469 0-2.4375-0.89062-0.875-0.90625-0.875-2.3594 0-1.0156 0.42187-1.7969 0.4375-0.79688 1.2344-1.3438 0.8125-0.5625 1.9375-0.85938 1.125-0.29687 2.5312-0.29687h1.0469v-0.35938q0-0.95312-0.60937-1.3906-0.64063-0.4375-1.9844-0.4375-1.8125 0-3.2344 0.79687l-0.51563-2.0312q1.6406-0.95312 3.9688-0.95312 2.4531 0 3.7188 1 0.59375 0.46875 0.96875 1.2031 0.375 0.73438 0.375 1.7656v7.6562zm-3.3594-1.8906q0.78125 0 1.5625-0.375t1.25-1.0156v-2.2188h-0.46875q-2 0-2.9219 0.51562-0.92188 0.5-0.92188 1.625 0 1.4688 1.5 1.4688zm16.29 1.8906v-7.4375q0-2-1.7031-2-0.42188 0-0.90619 0.14062-0.46875 0.14063-0.90625 0.42188t-0.79688 0.70312q-0.35937 0.42188-0.53125 0.95313v7.2188h-2.6875v-11.25h2.1094l0.125 1.6562h0.0937q0.51562-1.0312 1.5938-1.5312 1.0938-0.5 2.3437-0.5 0.8125 0 1.5156 0.21875 0.70313 0.20312 1.25 0.67187 0.5625 0.45313 0.875 1.2188 0.32813 0.75 0.32813 1.8594v7.6562zm7.3532-3.5469q-1.1094-0.46875-1.6094-1.4375-0.48438-0.98437-0.48438-2.1406 0-0.95313 0.3125-1.7812 0.32813-0.82813 0.92188-1.4219 0.60937-0.60937 1.4531-0.95312t1.9219-0.34375q0.64062 0 1.25 0.125 0.625 0.125 1.0938 0.35937 1.0312-0.0156 1.875-0.14062 0.84375-0.14063 1.625-0.35938l0.21875 0.17188-0.26563 1.8594-0.125 0.10938-1.7344-0.1875-0.0312 0.0781q0.84375 1.0469 0.84375 2.4688 0 0.85938-0.3125 1.6094-0.29688 0.73437-0.89063 1.2969-0.59375 0.54688-1.4688 0.875-0.85937 0.32813-1.9531 0.32813-0.28125 0-0.4375-0.0156t-0.29688-0.0156q-0.42187 0.15625-0.64062 0.39062-0.21875 0.21875-0.21875 0.46875 0 0.26563 0.26562 0.46875 0.26563 0.1875 0.82813 0.26563l2.375 0.29687q0.8125 0.0937 1.5 0.34375 0.70312 0.23438 1.2344 0.65625 0.53125 0.42188 0.8125 1 0.29688 0.59375 0.29688 1.3438 0 0.76563-0.32813 1.4688-0.3125 0.71875-1 1.25-0.67187 0.54688-1.7188 0.85938-1.0312 0.3125-2.5 0.3125-1.2969 0-2.2969-0.26563-0.98438-0.25-1.6719-0.6875t-1.0469-1.0469q-0.34375-0.59375-0.34375-1.2656 0-0.5 0.17187-0.98437 0.17188-0.46875 0.46875-0.875 0.3125-0.40625 0.70313-0.71875 0.40625-0.3125 0.875-0.46875v-0.0937q-0.5625-0.25-0.78125-0.65625-0.21875-0.42188-0.21875-0.8125 0-0.51563 0.34375-0.95313t0.98437-0.6875zm2.6094-1.375q1 0 1.5156-0.64062 0.51563-0.65625 0.51563-1.5781 0-0.4375-0.125-0.89062-0.125-0.45313-0.39063-0.8125-0.26562-0.375-0.67187-0.60938-0.40625-0.23437-0.9375-0.23437-0.51563 0-0.90625 0.20312-0.39063 0.20313-0.65625 0.54688-0.25 0.34375-0.375 0.78125-0.125 0.42187-0.125 0.85937 0 0.45313 0.14062 0.875 0.14063 0.42188 0.40625 0.76563 0.26563 0.32812 0.67188 0.53125 0.40625 0.20312 0.9375 0.20312zm-0.75 5.4531q-0.84375 0.15625-1.4375 0.70312-0.57813 0.54688-0.57813 1.2656 0 0.78125 0.76563 1.1719 0.78125 0.39063 2.25 0.39063 1.4375 0 2.2969-0.40625 0.85938-0.40625 0.85938-1.3125 0-0.875-0.95313-1.25-0.95312-0.35938-3.2031-0.5625zm13.837-12.156q2.1562 0 3.3281 1.0938 1.1719 1.0938 1.1719 3.0625 0 0.28125-0.0312 0.59375-0.0312 0.29687-0.0937 0.59375-0.0625 0.28125-0.15625 0.51562-0.0781 0.23438-0.17187 0.375h-7.125q0.0469 0.73438 0.26562 1.3906 0.21875 0.64062 0.64063 1.125 0.42187 0.48437 1.0156 0.76562t1.4062 0.28125q0.90625 0 1.9219-0.34375 1.0156-0.34375 1.7188-0.85937l0.45312 2q-0.32812 0.20312-0.79687 0.4375-0.45313 0.23437-1.0469 0.4375-0.59375 0.1875-1.2656 0.3125-0.67188 0.14062-1.4062 0.14062-1.3594 0-2.4219-0.46875-1.0469-0.48437-1.7656-1.2969-0.70313-0.82813-1.0781-1.9062-0.35937-1.0781-0.35937-2.25 0-1.2031 0.375-2.2812 0.39062-1.0938 1.125-1.9219 0.73437-0.84375 1.8125-1.3125 1.0938-0.48437 2.4844-0.48437zm-0.0625 2.1094q-1.0312 0-1.7656 0.60938-0.71875 0.59375-1.0312 1.6094h4.6719q0.0312-0.0625 0.0312-0.15625 0.0156-0.10937 0.0156-0.25 0-0.78125-0.54688-1.2969-0.53125-0.51563-1.375-0.51563zm7.2161 8.0781q0-0.34375 0.125-0.65625 0.14063-0.32813 0.375-0.57813 0.25-0.26562 0.54688-0.40625 0.3125-0.15625 0.6875-0.15625 0.34375 0 0.65625 0.15625 0.32812 0.14063 0.57812 0.40625 0.26563 0.25 0.40625 0.57813 0.14063 0.3125 0.14063 0.65625 0 0.35937-0.14063 0.67187-0.14062 0.29688-0.40625 0.54688-0.25 0.25-0.57812 0.375-0.3125 0.14062-0.65625 0.14062-0.70313 0-1.2188-0.51562-0.51563-0.51563-0.51563-1.2188zm0-7.9062q0-0.34375 0.125-0.65625 0.14063-0.32813 0.375-0.57813 0.25-0.26562 0.54688-0.40625 0.3125-0.15625 0.6875-0.15625 0.34375 0 0.65625 0.15625 0.32812 0.14063 0.57812 0.40625 0.26563 0.25 0.40625 0.57813 0.14063 0.3125 0.14063 0.65625 0 0.35937-0.14063 0.67187-0.14062 0.29688-0.40625 0.54688-0.25 0.25-0.57812 0.39062-0.3125 0.125-0.65625 0.125-0.70313 0-1.2188-0.51562-0.51563-0.51563-0.51563-1.2188zm17.106 9.3438h-2.8125v-11.891l-1.9844 0.875-0.5469-2.4375 5.3438-2.7031zm9.9293-16.266q1.5625 0 2.7656 0.67188 1.2187 0.67187 2.0469 1.7969 0.8437 1.125 1.2656 2.6094 0.4375 1.4688 0.4375 3.1094 0 1.6406-0.4531 3.1562-0.4375 1.5-1.2813 2.6719-0.8437 1.1562-2.0937 1.8594-1.25 0.6875-2.8594 0.6875-1.5938 0-2.7813-0.65625-1.1875-0.67187-1.9687-1.7969-0.7813-1.125-1.1875-2.5938-0.4063-1.4844-0.4063-3.125 0-1.7344 0.4375-3.2656 0.4532-1.5312 1.2813-2.6719 0.8281-1.1406 2.0312-1.7969 1.2188-0.65625 2.7657-0.65625zm-0.078 14.203q0.9375 0 1.6094-0.4375 0.6719-0.45313 1.1094-1.2656t0.6562-1.9062q0.2188-1.1094 0.2188-2.375 0-1.2969-0.2188-2.375-0.2187-1.0781-0.6718-1.8594-0.4532-0.78125-1.1407-1.2031-0.6718-0.4375-1.5781-0.4375-0.9062 0-1.5625 0.4375-0.6406 0.42188-1.0469 1.1875-0.4062 0.76563-0.6093 1.8594-0.1875 1.0938-0.1875 2.3906 0 2.9531 0.8906 4.4688 0.8906 1.5156 2.5312 1.5156zm8.8178 0.625q0-0.34375 0.125-0.65625 0.1406-0.32813 0.375-0.57813 0.25-0.26562 0.5469-0.40625 0.3125-0.15625 0.6875-0.15625 0.3437 0 0.6562 0.15625 0.3281 0.14063 0.5781 0.40625 0.25 0.25 0.3907 0.57813 0.1562 0.3125 0.1562 0.65625 0 0.35937-0.1562 0.67187-0.1407 0.29688-0.3907 0.54688t-0.5781 0.375q-0.3125 0.14062-0.6562 0.14062-0.7188 0-1.2344-0.51562-0.5-0.51563-0.5-1.2188zm10.35 1.4375h-2.8125v-11.891l-1.9844 0.875-0.5469-2.4375 5.3438-2.7031zm3.523-1.4375q0-0.34375 0.125-0.65625 0.1407-0.32813 0.375-0.57813 0.25-0.26562 0.5469-0.40625 0.3125-0.15625 0.6875-0.15625 0.3438 0 0.6563 0.15625 0.3281 0.14063 0.5781 0.40625 0.25 0.25 0.3906 0.57813 0.1563 0.3125 0.1563 0.65625 0 0.35937-0.1563 0.67187-0.1406 0.29688-0.3906 0.54688t-0.5781 0.375q-0.3125 0.14062-0.6563 0.14062-0.7187 0-1.2344-0.51562-0.5-0.51563-0.5-1.2188zm6.0833-13.562q0.4687-0.25 1.0625-0.46875 0.6094-0.23438 1.25-0.42188 0.6562-0.1875 1.3125-0.28125 0.6562-0.0937 1.2969-0.0937 1.0312 0 1.9062 0.28125 0.8906 0.28125 1.5 0.8125 0.625 0.51563 0.9844 1.2656 0.3594 0.73437 0.3594 1.6406 0 1.25-0.625 2.4844-0.625 1.2344-1.5782 2.4844-0.9375 1.2344-2.0625 2.4531-1.125 1.2031-2.0937 2.3906h6.5312v2.4531h-9.9062v-2.4531q0.9531-1.2969 2.1562-2.5469 1.2188-1.2656 2.2813-2.4531 1.0625-1.2031 1.7969-2.3594 0.7343-1.1562 0.7343-2.25 0-1.0469-0.6875-1.4844-0.6875-0.45312-1.7812-0.45312-1.0625 0-2.0781 0.34375-1.0157 0.32812-1.7969 0.76562zm12.488 13.562q0-0.34375 0.125-0.65625 0.1406-0.32813 0.375-0.57813 0.25-0.26562 0.5469-0.40625 0.3125-0.15625 0.6875-0.15625 0.3437 0 0.6562 0.15625 0.3281 0.14063 0.5781 0.40625 0.25 0.25 0.3907 0.57813 0.1562 0.3125 0.1562 0.65625 0 0.35937-0.1562 0.67187-0.1407 0.29688-0.3907 0.54688t-0.5781 0.375q-0.3125 0.14062-0.6562 0.14062-0.7188 0-1.2344-0.51562-0.5-0.51563-0.5-1.2188zm12.328-14.828q1.5625 0 2.7656 0.67188 1.2188 0.67187 2.0469 1.7969 0.8438 1.125 1.2656 2.6094 0.4375 1.4688 0.4375 3.1094 0 1.6406-0.4531 3.1562-0.4375 1.5-1.2812 2.6719-0.8438 1.1562-2.0938 1.8594-1.25 0.6875-2.8594 0.6875-1.5937 0-2.7812-0.65625-1.1875-0.67187-1.9688-1.7969-0.7812-1.125-1.1875-2.5938-0.4062-1.4844-0.4062-3.125 0-1.7344 0.4375-3.2656 0.4531-1.5312 1.2812-2.6719 0.8282-1.1406 2.0313-1.7969 1.2187-0.65625 2.7656-0.65625zm-0.078 14.203q0.9375 0 1.6094-0.4375 0.6718-0.45313 1.1093-1.2656t0.6563-1.9062q0.2187-1.1094 0.2187-2.375 0-1.2969-0.2187-2.375-0.2188-1.0781-0.6719-1.8594t-1.1406-1.2031q-0.6719-0.4375-1.5781-0.4375-0.9063 0-1.5625 0.4375-0.6407 0.42188-1.0469 1.1875-0.4063 0.76563-0.6094 1.8594-0.1875 1.0938-0.1875 2.3906 0 2.9531 0.8906 4.4688 0.8907 1.5156 2.5313 1.5156zm11.366 3.4531h-2.8281l6.8125-18.562h2.8125zm8.7229-16.391q0.4688-0.25 1.0625-0.46875 0.6094-0.23438 1.25-0.42188 0.6563-0.1875 1.3125-0.28125 0.6563-0.0937 1.2969-0.0937 1.0312 0 1.9062 0.28125 0.8907 0.28125 1.5 0.8125 0.625 0.51563 0.9844 1.2656 0.3594 0.73437 0.3594 1.6406 0 1.25-0.625 2.4844-0.625 1.2344-1.5781 2.4844-0.9375 1.2344-2.0625 2.4531-1.125 1.2031-2.0938 2.3906h6.5313v2.4531h-9.9063v-2.4531q0.9531-1.2969 2.1563-2.5469 1.2187-1.2656 2.2812-2.4531 1.0625-1.2031 1.7969-2.3594t0.7344-2.25q0-1.0469-0.6875-1.4844-0.6875-0.45312-1.7813-0.45312-1.0625 0-2.0781 0.34375-1.0156 0.32812-1.7969 0.76562zm23.207 10.344h-1.6875v4.6562h-2.8281v-4.6562h-6.9375v-2.1875l6.8281-9.3125h2.9375v9.3125h1.6875zm-4.5156-2.1875v-5.9219l-4.1719 5.9219z" fill="#fff"/>
<path d="m2 35.844c0-18.692 15.153-33.844 33.844-33.844h487.21c8.976 0 17.584 3.5657 23.931 9.9127 6.347 6.347 9.9127 14.955 9.9127 23.931v419.14c0 18.692-15.153 33.844-33.844 33.844h-487.21c-18.692 0-33.844-15.152-33.844-33.844z" fill-opacity="0"/>
<path d="m2 35.844c0-18.692 15.153-33.844 33.844-33.844h487.21c8.976 0 17.584 3.5657 23.931 9.9127 6.347 6.347 9.9127 14.955 9.9127 23.931v419.14c0 18.692-15.153 33.844-33.844 33.844h-487.21c-18.692 0-33.844-15.152-33.844-33.844z" fill-rule="evenodd" stroke="#ff0" stroke-linejoin="round" stroke-width="4"/>
<path d="m220.53 44.413h-2.3281l-4.4062-12.281-4.375 12.281h-2.3281l-6.0156-16.156h3.0469l4.1406 12.531 4.1562-12.531h2.7656l4.1406 12.531 4.125-12.531h3.0625zm11.54-11.625q1.5 0 2.5625 0.5 1.0781 0.5 1.7812 1.3438 0.70312 0.84375 1.0312 1.9375 0.32812 1.0938 0.32812 2.2969 0 1.1875-0.32812 2.25-0.32813 1.0625-1.0312 1.8594-0.70313 0.79687-1.7656 1.2656t-2.5 0.46875q-1.5 0-2.5781-0.48437-1.0781-0.5-1.7812-1.3125-0.70313-0.82813-1.0469-1.9062-0.34375-1.0781-0.34375-2.2656 0-1.2031 0.34375-2.2812 0.34375-1.0781 1.0312-1.8906 0.70313-0.82813 1.7812-1.2969 1.0781-0.48437 2.5156-0.48437zm0.0469 9.8906q0.71875 0 1.2344-0.29687 0.53125-0.3125 0.875-0.84375t0.5-1.2031q0.15625-0.6875 0.15625-1.4531 0-0.78125-0.17188-1.5-0.17187-0.71875-0.53125-1.2656-0.34375-0.5625-0.89062-0.89062-0.53125-0.32813-1.2969-0.32813-0.70312 0-1.2188 0.3125-0.51562 0.29688-0.84375 0.8125-0.32812 0.51563-0.48437 1.2031-0.15625 0.67187-0.15625 1.4375 0 0.78125 0.15625 1.5t0.5 1.2969q0.35937 0.5625 0.89062 0.89063 0.54688 0.32812 1.2812 0.32812zm14.808-7.0781q-0.25-0.1875-0.76562-0.3125-0.51563-0.125-0.875-0.125-0.48438 0-0.8125 0.23437-0.3125 0.23438-0.5625 0.60938-0.23438 0.375-0.40625 0.875-0.17188 0.48437-0.32813 1v6.5312h-2.6875v-11.25h2.1094l0.125 2.3438h0.0937q0.23437-0.51563 0.5-1 0.28125-0.5 0.625-0.875t0.79687-0.60938q0.45313-0.23437 1.0625-0.23437 0.98438 0 1.8281 0.64062zm8.1513 1.5156 4.7969 7.2969h-2.9375l-3.6562-5.5312-0.95312 0.95312v4.5781h-2.6875v-18.109h2.6875v10.453l3.75-3.5938h3.0156zm11.245-4.3281q2.1562 0 3.3281 1.0938 1.1719 1.0938 1.1719 3.0625 0 0.28125-0.0312 0.59375-0.0312 0.29687-0.0937 0.59375-0.0625 0.28125-0.15625 0.51562-0.0781 0.23438-0.17187 0.375h-7.125q0.0469 0.73438 0.26562 1.3906 0.21875 0.64062 0.64063 1.125 0.42187 0.48437 1.0156 0.76562t1.4062 0.28125q0.90625 0 1.9218-0.34375 1.0156-0.34375 1.7188-0.85937l0.45312 2q-0.32812 0.20312-0.79687 0.4375-0.45313 0.23437-1.0469 0.4375-0.59375 0.1875-1.2656 0.3125-0.67188 0.14062-1.4062 0.14062-1.3594 0-2.4219-0.46875-1.0469-0.48437-1.7656-1.2969-0.70313-0.82813-1.0781-1.9062-0.35937-1.0781-0.35937-2.25 0-1.2031 0.375-2.2812 0.39062-1.0938 1.125-1.9219 0.73437-0.84375 1.8125-1.3125 1.0938-0.48437 2.4844-0.48437zm-0.0625 2.1094q-1.0312 0-1.7656 0.60938-0.71875 0.59375-1.0312 1.6094h4.6718q0.0312-0.0625 0.0312-0.15625 0.0156-0.10937 0.0156-0.25 0-0.78125-0.54685-1.2969-0.53125-0.51563-1.375-0.51563zm13.747 0.70313q-0.25-0.1875-0.76562-0.3125-0.51563-0.125-0.875-0.125-0.48438 0-0.8125 0.23437-0.3125 0.23438-0.5625 0.60938-0.23438 0.375-0.40625 0.875-0.17188 0.48437-0.32813 1v6.5312h-2.6875v-11.25h2.1094l0.125 2.3438h0.0937q0.23437-0.51563 0.5-1 0.28125-0.5 0.625-0.875t0.79687-0.60938q0.45313-0.23437 1.0625-0.23437 0.98438 0 1.8281 0.64062zm19.186 4.5312v-11.875h2.8125v16.156h-3.4531l-7.0938-11.844v11.844h-2.8125v-16.156h3.4531zm11.373-7.3438q1.5 0 2.5625 0.5 1.0781 0.5 1.7812 1.3438 0.70313 0.84375 1.0312 1.9375 0.32813 1.0938 0.32813 2.2969 0 1.1875-0.32813 2.25-0.32812 1.0625-1.0312 1.8594-0.70312 0.79687-1.7656 1.2656t-2.5 0.46875q-1.5 0-2.5781-0.48437-1.0781-0.5-1.7812-1.3125-0.70312-0.82813-1.0469-1.9062-0.34375-1.0781-0.34375-2.2656 0-1.2031 0.34375-2.2812 0.34375-1.0781 1.0312-1.8906 0.70312-0.82813 1.7812-1.2969 1.0781-0.48437 2.5156-0.48437zm0.0469 9.8906q0.71875 0 1.2344-0.29687 0.53125-0.3125 0.875-0.84375t0.5-1.2031q0.15625-0.6875 0.15625-1.4531 0-0.78125-0.17187-1.5-0.17188-0.71875-0.53125-1.2656-0.34375-0.5625-0.89063-0.89062-0.53125-0.32813-1.2969-0.32813-0.70313 0-1.2188 0.3125-0.51563 0.29688-0.84375 0.8125-0.32813 0.51563-0.48438 1.2031-0.15625 0.67187-0.15625 1.4375 0 0.78125 0.15625 1.5t0.5 1.2969q0.35938 0.5625 0.89063 0.89063 0.54687 0.32812 1.2812 0.32812zm12.855 2.0312q-1.1562 0-2.1094-0.46875-0.95313-0.46875-1.625-1.2656-0.67188-0.8125-1.0469-1.9062-0.35937-1.1094-0.35937-2.4062 0-1.1562 0.29687-2.2188 0.3125-1.0625 0.9375-1.8594 0.64063-0.8125 1.5781-1.2969 0.95312-0.5 2.25-0.5 1.1719 0 2.0938 0.39062 0.9375 0.39063 1.5 1.1094v-7.9844h2.6719v18.109h-2.1562l-0.20312-1.5469h-0.0937q-0.6875 0.76563-1.5625 1.3125-0.85938 0.53125-2.1719 0.53125zm0.34375-2.0312q0.39063 0 0.82813-0.10937 0.4375-0.10938 0.85937-0.29688 0.4375-0.20312 0.82813-0.48437 0.39062-0.28125 0.65625-0.65625v-4.7031q-0.73438-0.89062-1.5-1.2188-0.75-0.34375-1.4531-0.34375-0.78125 0-1.3438 0.3125-0.5625 0.29688-0.95312 0.84375-0.375 0.53125-0.5625 1.2344-0.1875 0.70312-0.1875 1.4531 0 0.73438 0.17187 1.4531 0.17188 0.71875 0.51563 1.2812 0.34375 0.54687 0.875 0.89062 0.54687 0.34375 1.2656 0.34375zm14.326-9.8906q2.1562 0 3.3281 1.0938 1.1719 1.0938 1.1719 3.0625 0 0.28125-0.0312 0.59375-0.0312 0.29687-0.0937 0.59375-0.0625 0.28125-0.15625 0.51562-0.0781 0.23438-0.17188 0.375h-7.125q0.0469 0.73438 0.26563 1.3906 0.21875 0.64062 0.64062 1.125 0.42188 0.48437 1.0156 0.76562t1.4062 0.28125q0.90625 0 1.9219-0.34375 1.0156-0.34375 1.7188-0.85937l0.45313 2q-0.32813 0.20312-0.79688 0.4375-0.45312 0.23437-1.0469 0.4375-0.59375 0.1875-1.2656 0.3125-0.67187 0.14062-1.4062 0.14062-1.3594 0-2.4219-0.46875-1.0469-0.48437-1.7656-1.2969-0.70312-0.82813-1.0781-1.9062-0.35938-1.0781-0.35938-2.25 0-1.2031 0.375-2.2812 0.39063-1.0938 1.125-1.9219 0.73438-0.84375 1.8125-1.3125 1.0938-0.48437 2.4844-0.48437zm-0.0625 2.1094q-1.0312 0-1.7656 0.60938-0.71875 0.59375-1.0312 1.6094h4.6719q0.0312-0.0625 0.0312-0.15625 0.0156-0.10937 0.0156-0.25 0-0.78125-0.54687-1.2969-0.53125-0.51563-1.375-0.51563zm17.617 9.5156h-2.8125v-11.891l-1.9844 0.875-0.54688-2.4375 5.3438-2.7031z" fill="#fff"/>
<path d="m172.12 102.41h-2.8125v-7.0938h-7.7344v7.0938h-2.8125v-16.156h2.8125v6.6094h7.7344v-6.6094h2.8125zm8.5601-11.625q1.5 0 2.5625 0.5 1.0781 0.5 1.7812 1.3438 0.70313 0.84375 1.0312 1.9375 0.32813 1.0938 0.32813 2.2969 0 1.1875-0.32813 2.25-0.32812 1.0625-1.0312 1.8594-0.70312 0.79687-1.7656 1.2656t-2.5 0.46875q-1.5 0-2.5781-0.48437-1.0781-0.5-1.7812-1.3125-0.70312-0.82813-1.0469-1.9062-0.34375-1.0781-0.34375-2.2656 0-1.2031 0.34375-2.2812 0.34375-1.0781 1.0312-1.8906 0.70312-0.82813 1.7812-1.2969 1.0781-0.48437 2.5156-0.48437zm0.0469 9.8906q0.71875 0 1.2344-0.29687 0.53125-0.3125 0.875-0.84375t0.5-1.2031q0.15625-0.6875 0.15625-1.4531 0-0.78125-0.17187-1.5-0.17188-0.71875-0.53125-1.2656-0.34375-0.5625-0.89063-0.89062-0.53125-0.32813-1.2969-0.32813-0.70313 0-1.2188 0.3125-0.51563 0.29688-0.84375 0.8125-0.32813 0.51563-0.48438 1.2031-0.15625 0.67187-0.15625 1.4375 0 0.78125 0.15625 1.5t0.5 1.2969q0.35938 0.5625 0.89063 0.89063 0.54687 0.32812 1.2812 0.32812zm11.793-7.875q-0.79687 0-1.25 0.3125-0.45312 0.29688-0.45312 0.85938 0 0.35937 0.25 0.67187 0.26562 0.29688 1.0938 0.5l1.7344 0.39063q1.0312 0.21875 1.6562 0.64062 0.625 0.40625 0.96875 0.90625 0.35938 0.48438 0.48438 1 0.125 0.51563 0.125 0.95313 0 0.78125-0.32813 1.4531-0.3125 0.67188-0.90625 1.1719-0.57812 0.48437-1.4219 0.76562-0.82813 0.28125-1.8438 0.28125-1.2969 0-2.4062-0.375-1.0938-0.39062-1.7656-0.85937l0.64063-2.3125q0.82812 0.79687 1.8594 1.2031 1.0469 0.39063 1.9375 0.39063 0.92188 0 1.4062-0.40625 0.5-0.40625 0.5-1.125 0-0.40625-0.25-0.6875-0.23437-0.28125-0.96875-0.48438l-2.3594-0.57812q-0.82813-0.20313-1.3594-0.5625-0.51562-0.375-0.82812-0.82813-0.29688-0.45312-0.42188-0.9375-0.10937-0.48437-0.10937-0.9375 0-1.6406 1.1562-2.5312 1.1562-0.89062 2.9844-0.89062 0.95313 0 2.0469 0.26562 1.1094 0.25 1.875 0.73438l-0.71875 2.2031q-0.48438-0.39062-1.375-0.78125-0.875-0.40625-1.9531-0.40625zm7.6887 0h-1.3906v-1.4688l1.5781-0.25 0.45312-3.3281h2.0469v3.4062h2.1562v1.6406h-2.1562v6.4531q0 0.73437 0.14062 1 0.15625 0.25 0.57813 0.25 0.3125 0 0.625-0.125 0.32812-0.125 0.9375-0.46875l0.4375 1.9375q-0.46875 0.39062-1.3125 0.625-0.84375 0.23437-1.6719 0.23437-0.73437 0-1.2188-0.20312-0.46875-0.1875-0.75-0.5625-0.26562-0.39063-0.35937-0.92188-0.0937-0.54687-0.0937-1.2031zm16.884 9.6094h-2.8125v-16.156h2.8125zm8.7141-6.0625q-0.42187 0-0.82812 0t-0.76563-0.0312v6.0938h-2.8125v-16.156q0.35938-0.0156 0.82813-0.0312 0.48437-0.0312 1.0156-0.0469 0.53125-0.0156 1.0469-0.0156 0.53125-0.0156 1-0.0156 1.3594 0 2.4844 0.32813 1.1406 0.32812 1.9375 0.98437 0.8125 0.65625 1.25 1.625t0.4375 2.25q0 1.0156-0.34375 1.9219t-1.0312 1.5938q-0.67187 0.6875-1.7344 1.0938t-2.4844 0.40625zm-0.125-7.8594q-0.39062 0-0.76562 0-0.35938 0-0.70313 0.0312v5.4531q0.34375 0.0156 0.71875 0.0156t0.79688 0q1.3281 0 2-0.73437 0.67187-0.73438 0.67187-2.125 0-1.1719-0.60937-1.9062-0.59375-0.73438-2.1094-0.73438zm8.1491 12.484q0-0.34375 0.125-0.65625 0.14063-0.32813 0.375-0.57813 0.25-0.26562 0.54688-0.40625 0.3125-0.15625 0.6875-0.15625 0.34375 0 0.65625 0.15625 0.32812 0.14063 0.57812 0.40625 0.26563 0.25 0.40625 0.57813 0.14063 0.3125 0.14063 0.65625 0 0.35937-0.14063 0.67187-0.14062 0.29688-0.40625 0.54688-0.25 0.25-0.57812 0.375-0.3125 0.14062-0.65625 0.14062-0.70313 0-1.2188-0.51562-0.51563-0.51563-0.51563-1.2188zm0-7.9062q0-0.34375 0.125-0.65625 0.14063-0.32813 0.375-0.57813 0.25-0.26562 0.54688-0.40625 0.3125-0.15625 0.6875-0.15625 0.34375 0 0.65625 0.15625 0.32812 0.14063 0.57812 0.40625 0.26563 0.25 0.40625 0.57813 0.14063 0.3125 0.14063 0.65625 0 0.35937-0.14063 0.67187-0.14062 0.29688-0.40625 0.54688-0.25 0.25-0.57812 0.39062-0.3125 0.125-0.65625 0.125-0.70313 0-1.2188-0.51562-0.51563-0.51563-0.51563-1.2188zm17.106 9.3438h-2.8125v-11.891l-1.9844 0.875-0.54688-2.4375 5.3438-2.7031zm11.273-7.8594q-0.42187 0.89063-1.2969 1.3125-0.85938 0.40625-2.0312 0.40625-1.3906 0-2.2969-0.51562-0.90625-0.51563-1.4531-1.2656-0.53125-0.76562-0.75-1.625-0.20313-0.875-0.20313-1.6094 0-0.875 0.28125-1.7812t0.90625-1.6406q0.625-0.73437 1.6094-1.2031 1-0.46875 2.4531-0.46875 1.5156 0 2.5469 0.5625 1.0469 0.54687 1.6875 1.5469 0.65625 1 0.9375 2.4062 0.29687 1.4062 0.29687 3.125 0 1.6562-0.28125 3.2656-0.28125 1.5938-0.98437 2.8438-0.6875 1.25-1.8594 2.0312-1.1562 0.76562-2.8906 0.76562-0.4375 0-0.98438-0.0625-0.53125-0.0625-1.0781-0.21875-0.54688-0.14062-1.0625-0.375-0.51563-0.25-0.89063-0.625l0.60938-2.1406q0.8125 0.60937 1.7188 0.85937 0.90625 0.23438 1.5938 0.23438 1.0312 0 1.7031-0.45313 0.67188-0.45312 1.0625-1.1875 0.40625-0.73437 0.57813-1.6406 0.17187-0.90625 0.17187-1.8125 0-0.1875 0-0.34375 0-0.17188-0.0156-0.35938zm-5.1406-3.2031q0 0.51562 0.0937 1.0156 0.10937 0.48438 0.35937 0.85938 0.26563 0.375 0.6875 0.59375 0.42188 0.21875 1.0625 0.21875 1.25 0 1.875-0.79688 0.625-0.8125 0.625-2.0625 0-1.2656-0.64062-2.0156-0.64063-0.76563-1.7344-0.76563t-1.7188 0.78125q-0.60937 0.78125-0.60937 2.1719zm10.423-3.9375q0.46875-0.25 1.0625-0.46875 0.60938-0.23438 1.25-0.42188 0.65625-0.1875 1.3125-0.28125 0.65625-0.0937 1.2969-0.0937 1.0312 0 1.9062 0.28125 0.89062 0.28125 1.5 0.8125 0.625 0.51563 0.98437 1.2656 0.35938 0.73437 0.35938 1.6406 0 1.25-0.625 2.4844-0.625 1.2344-1.5781 2.4844-0.9375 1.2344-2.0625 2.4531-1.125 1.2031-2.0938 2.3906h6.5312v2.4531h-9.9062v-2.4531q0.95313-1.2969 2.1562-2.5469 1.2188-1.2656 2.2812-2.4531 1.0625-1.2031 1.7969-2.3594 0.73437-1.1562 0.73437-2.25 0-1.0469-0.6875-1.4844-0.6875-0.45312-1.7812-0.45312-1.0625 0-2.0781 0.34375-1.0156 0.32812-1.7969 0.76562zm12.488 13.562q0-0.34375 0.125-0.65625 0.14062-0.32813 0.375-0.57813 0.25-0.26562 0.54687-0.40625 0.3125-0.15625 0.6875-0.15625 0.34375 0 0.65625 0.15625 0.32813 0.14063 0.57813 0.40625 0.25 0.25 0.39062 0.57813 0.15625 0.3125 0.15625 0.65625 0 0.35937-0.15625 0.67187-0.14062 0.29688-0.39062 0.54688t-0.57813 0.375q-0.3125 0.14062-0.65625 0.14062-0.71875 0-1.2344-0.51562-0.5-0.51563-0.5-1.2188zm10.35 1.4375h-2.8125v-11.891l-1.9844 0.875-0.54687-2.4375 5.3438-2.7031zm6.2106-8.0938q0.42188-0.89063 1.2812-1.2969 0.875-0.42187 2.0469-0.42187 1.3906 0 2.2969 0.51562 0.90625 0.51563 1.4375 1.2812 0.54688 0.75 0.75 1.625 0.21875 0.85938 0.21875 1.5938 0 0.875-0.28125 1.7812t-0.90625 1.6406q-0.625 0.73437-1.6406 1.2031-1 0.46875-2.4219 0.46875-1.5156 0-2.5625-0.54687-1.0312-0.5625-1.6875-1.5625-0.64062-1-0.9375-2.4062-0.28125-1.4062-0.28125-3.125 0-1.6562 0.28125-3.25 0.28125-1.6094 0.96875-2.8594 0.70313-1.25 1.8594-2.0156 1.1719-0.78125 2.9062-0.78125 0.4375 0 0.96875 0.0625 0.54687 0.0625 1.0938 0.21875 0.54687 0.14062 1.0625 0.39062 0.51562 0.23438 0.89062 0.60938l-0.60937 2.1406q-0.8125-0.60937-1.7188-0.84375-0.90625-0.25-1.5938-0.25-1.0312 0-1.7188 0.45313-0.67188 0.45312-1.0781 1.1875-0.40625 0.73437-0.5625 1.6406t-0.15625 1.8125q0 0.1875 0 0.35938 0 0.15625 0.0156 0.34375zm5.1406 3.2031q0-0.51562-0.10938-1-0.0937-0.5-0.35937-0.875-0.25-0.375-0.67188-0.59375-0.42187-0.21875-1.0625-0.21875-1.25 0-1.875 0.8125-0.625 0.79688-0.625 2.0469 0 1.2656 0.64063 2.0312 0.64062 0.75 1.7344 0.75 1.1094 0 1.7188-0.78125 0.60938-0.78125 0.60938-2.1719zm13.095-3.9688q1.4062 0.3125 2.1719 1.4688 0.78125 1.1562 0.78125 2.7969 0 1.0156-0.32813 1.9219-0.3125 0.89063-0.98437 1.5469-0.67188 0.65625-1.7031 1.0469-1.0156 0.375-2.4219 0.375-1.4688 0-2.5-0.40625-1.0156-0.40625-1.6562-1.0781-0.64063-0.67188-0.9375-1.5469-0.28125-0.89062-0.28125-1.8125 0-1.625 0.78125-2.75t2.1719-1.5312v-0.10937q-0.84375-0.3125-1.5-1.1875-0.64062-0.89063-0.64062-2.2344 0-1.7656 1.1875-2.8281 1.2031-1.0781 3.4062-1.0781 2.1562 0 3.375 1.0469 1.2188 1.0312 1.2188 2.7812 0 1.2969-0.625 2.2031-0.625 0.89063-1.5156 1.2812zm0.14063 4.3281q0-0.5625-0.15625-1.125-0.14063-0.5625-0.46875-1-0.3125-0.4375-0.8125-0.71875t-1.1875-0.28125q-0.70313 0-1.2031 0.28125-0.48437 0.28125-0.79687 0.73437-0.3125 0.45313-0.46875 1.0156-0.14063 0.5625-0.14063 1.0938 0 1.3281 0.71875 2.0156t1.8906 0.6875q1.1875 0 1.9062-0.6875t0.71875-2.0156zm-0.73438-7.5q0-0.96875-0.48437-1.5156-0.46875-0.54687-1.4062-0.54687-0.90625 0-1.3906 0.53125-0.48437 0.51562-0.48437 1.5 0 1.0312 0.51562 1.625 0.51563 0.57812 1.3594 0.57812 0.85937 0 1.375-0.57812 0.51562-0.59375 0.51562-1.5938zm6.1703 10.594q0-0.34375 0.125-0.65625 0.14063-0.32813 0.375-0.57813 0.25-0.26562 0.54688-0.40625 0.3125-0.15625 0.6875-0.15625 0.34375 0 0.65625 0.15625 0.32812 0.14063 0.57812 0.40625 0.25 0.25 0.39063 0.57813 0.15625 0.3125 0.15625 0.65625 0 0.35937-0.15625 0.67187-0.14063 0.29688-0.39063 0.54688t-0.57812 0.375q-0.3125 0.14062-0.65625 0.14062-0.71875 0-1.2344-0.51562-0.5-0.51563-0.5-1.2188zm10.35 1.4375h-2.8125v-11.891l-1.9844 0.875-0.54687-2.4375 5.3438-2.7031zm4.0387 0q-0.0312-0.21875-0.0312-0.46875 0-0.26563 0-0.48438 0-1.4375 0.57813-3.1562 0.57812-1.7344 1.4844-3.4531 0.90625-1.7344 1.9844-3.3281 1.0938-1.6094 2.125-2.8125h-7.125v-2.5625h9.9062v2.5625q-1.0469 1.1562-2.1094 2.8125-1.0469 1.6406-1.875 3.4375-0.82812 1.7812-1.3438 3.5-0.51562 1.7031-0.51562 2.9688 0 0.28125 0 0.53125 0 0.23438 0.0156 0.45313zm18.401-8.8594q1.4062 0.3125 2.1719 1.4688 0.78125 1.1562 0.78125 2.7969 0 1.0156-0.32813 1.9219-0.3125 0.89063-0.98437 1.5469-0.67188 0.65625-1.7031 1.0469-1.0156 0.375-2.4219 0.375-1.4688 0-2.5-0.40625-1.0156-0.40625-1.6562-1.0781-0.64063-0.67188-0.9375-1.5469-0.28125-0.89062-0.28125-1.8125 0-1.625 0.78125-2.75t2.1719-1.5312v-0.10937q-0.84375-0.3125-1.5-1.1875-0.64062-0.89063-0.64062-2.2344 0-1.7656 1.1875-2.8281 1.2031-1.0781 3.4062-1.0781 2.1562 0 3.375 1.0469 1.2188 1.0312 1.2188 2.7812 0 1.2969-0.625 2.2031-0.625 0.89063-1.5156 1.2812zm0.14063 4.3281q0-0.5625-0.15625-1.125-0.14063-0.5625-0.46875-1-0.3125-0.4375-0.8125-0.71875t-1.1875-0.28125q-0.70313 0-1.2031 0.28125-0.48437 0.28125-0.79687 0.73437-0.3125 0.45313-0.46875 1.0156-0.14063 0.5625-0.14063 1.0938 0 1.3281 0.71875 2.0156t1.8906 0.6875q1.1875 0 1.9062-0.6875t0.71875-2.0156zm-0.73438-7.5q0-0.96875-0.48437-1.5156-0.46875-0.54687-1.4062-0.54687-0.90625 0-1.3906 0.53125-0.48437 0.51562-0.48437 1.5 0 1.0312 0.51562 1.625 0.51563 0.57812 1.3594 0.57812 0.85937 0 1.375-0.57812 0.51562-0.59375 0.51562-1.5938zm6.1703 10.594q0-0.34375 0.125-0.65625 0.14063-0.32813 0.375-0.57813 0.25-0.26562 0.54688-0.40625 0.3125-0.15625 0.6875-0.15625 0.34375 0 0.65625 0.15625 0.32812 0.14063 0.57812 0.40625 0.25 0.25 0.39063 0.57813 0.15625 0.3125 0.15625 0.65625 0 0.35937-0.15625 0.67187-0.14063 0.29688-0.39063 0.54688t-0.57812 0.375q-0.3125 0.14062-0.65625 0.14062-0.71875 0-1.2344-0.51562-0.5-0.51563-0.5-1.2188zm10.35 1.4375h-2.8125v-11.891l-1.9844 0.875-0.54688-2.4375 5.3438-2.7031zm9.9293-16.266q1.5625 0 2.7656 0.67188 1.2188 0.67187 2.0469 1.7969 0.84375 1.125 1.2656 2.6094 0.4375 1.4688 0.4375 3.1094 0 1.6406-0.45313 3.1562-0.4375 1.5-1.2812 2.6719-0.84375 1.1562-2.0938 1.8594-1.25 0.6875-2.8594 0.6875-1.5938 0-2.7812-0.65625-1.1875-0.67187-1.9688-1.7969t-1.1875-2.5938q-0.40625-1.4844-0.40625-3.125 0-1.7344 0.4375-3.2656 0.45312-1.5312 1.2812-2.6719 0.82812-1.1406 2.0312-1.7969 1.2188-0.65625 2.7656-0.65625zm-0.0781 14.203q0.9375 0 1.6094-0.4375 0.67188-0.45313 1.1094-1.2656t0.65625-1.9062q0.21875-1.1094 0.21875-2.375 0-1.2969-0.21875-2.375-0.21875-1.0781-0.67188-1.8594-0.45312-0.78125-1.1406-1.2031-0.67188-0.4375-1.5781-0.4375t-1.5625 0.4375q-0.64062 0.42188-1.0469 1.1875-0.40625 0.76563-0.60938 1.8594-0.1875 1.0938-0.1875 2.3906 0 2.9531 0.89063 4.4688 0.89062 1.5156 2.5312 1.5156zm15.616-14.203q1.5625 0 2.7656 0.67188 1.2188 0.67187 2.0469 1.7969 0.84375 1.125 1.2656 2.6094 0.4375 1.4688 0.4375 3.1094 0 1.6406-0.45313 3.1562-0.4375 1.5-1.2812 2.6719-0.84375 1.1562-2.0938 1.8594-1.25 0.6875-2.8594 0.6875-1.5938 0-2.7812-0.65625-1.1875-0.67187-1.9688-1.7969t-1.1875-2.5938q-0.40625-1.4844-0.40625-3.125 0-1.7344 0.4375-3.2656 0.45312-1.5312 1.2812-2.6719 0.82812-1.1406 2.0312-1.7969 1.2188-0.65625 2.7656-0.65625zm-0.0781 14.203q0.9375 0 1.6094-0.4375 0.67188-0.45313 1.1094-1.2656t0.65625-1.9062q0.21875-1.1094 0.21875-2.375 0-1.2969-0.21875-2.375-0.21875-1.0781-0.67188-1.8594-0.45312-0.78125-1.1406-1.2031-0.67188-0.4375-1.5781-0.4375t-1.5625 0.4375q-0.64062 0.42188-1.0469 1.1875-0.40625 0.76563-0.60938 1.8594-0.1875 1.0938-0.1875 2.3906 0 2.9531 0.89063 4.4688 0.89062 1.5156 2.5312 1.5156z" fill="#fff"/>
<path d="m149.3 147.74q-0.78125-0.54687-1.875-0.875-1.0781-0.32812-2.4688-0.32812-1.3281 0-2.2656 0.42187-0.9375 0.40625-1.5312 1.1719-0.59375 0.75-0.875 1.8281-0.28125 1.0625-0.28125 2.3594 0 2.9531 1.2656 4.4688 1.2656 1.5156 3.6406 1.5156 1.4688 0 2.6719-0.4375 1.2188-0.4375 2-1.0781l0.73437 2.4219q-0.98437 0.59375-2.375 1.0469-1.375 0.45312-3.1094 0.45312-2.0156 0-3.4844-0.65625-1.4531-0.67187-2.4219-1.7969t-1.4375-2.5938q-0.46875-1.4844-0.46875-3.1562 0-1.7344 0.51562-3.25 0.51563-1.5156 1.5312-2.6562 1.0156-1.1406 2.5156-1.7969 1.5156-0.65625 3.5156-0.65625 1.3281 0 2.6406 0.28125 1.3281 0.28125 2.2812 0.76563zm6.3976 12.672h-2.7031v-18.109h2.7031zm6.1118-11.25v7.3125q0 1 0.51563 1.5312 0.53125 0.51562 1.375 0.51562t1.5469-0.5625q0.71875-0.57812 1.0625-1.6562v-7.1406h2.7188v11.25h-2.1094l-0.14063-1.5625h-0.0937q-0.28125 0.5625-0.70312 0.92187-0.40625 0.34375-0.90625 0.5625-0.5 0.20313-1.0469 0.28125-0.53125 0.0937-1.0469 0.0937-0.79688 0-1.5-0.20312-0.70313-0.1875-1.2344-0.64063-0.51562-0.45312-0.82812-1.2031-0.29688-0.75-0.29688-1.8438v-7.6562zm14.017 1.6406q-0.79687 0-1.25 0.3125-0.45312 0.29688-0.45312 0.85938 0 0.35937 0.25 0.67187 0.26562 0.29688 1.0938 0.5l1.7344 0.39063q1.0312 0.21875 1.6562 0.64062 0.625 0.40625 0.96875 0.90625 0.35938 0.48438 0.48438 1 0.125 0.51563 0.125 0.95313 0 0.78125-0.32813 1.4531-0.3125 0.67188-0.90625 1.1719-0.57812 0.48437-1.4219 0.76562-0.82813 0.28125-1.8438 0.28125-1.2969 0-2.4062-0.375-1.0938-0.39062-1.7656-0.85937l0.64063-2.3125q0.82812 0.79687 1.8594 1.2031 1.0469 0.39063 1.9375 0.39063 0.92188 0 1.4062-0.40625 0.5-0.40625 0.5-1.125 0-0.40625-0.25-0.6875-0.23437-0.28125-0.96875-0.48438l-2.3594-0.57812q-0.82813-0.20313-1.3594-0.5625-0.51562-0.375-0.82812-0.82813-0.29688-0.45312-0.42188-0.9375-0.10937-0.48437-0.10937-0.9375 0-1.6406 1.1562-2.5312 1.1562-0.89062 2.9844-0.89062 0.95313 0 2.0469 0.26562 1.1094 0.25 1.875 0.73438l-0.71875 2.2031q-0.48438-0.39062-1.375-0.78125-0.875-0.40625-1.9531-0.40625zm7.6887 0h-1.3906v-1.4688l1.5781-0.25 0.45312-3.3281h2.0469v3.4062h2.1562v1.6406h-2.1562v6.4531q0 0.73437 0.14062 1 0.15625 0.25 0.57813 0.25 0.3125 0 0.625-0.125 0.32812-0.125 0.9375-0.46875l0.4375 1.9375q-0.46875 0.39062-1.3125 0.625-0.84375 0.23437-1.6719 0.23437-0.73437 0-1.2188-0.20312-0.46875-0.1875-0.75-0.5625-0.26562-0.39063-0.35937-0.92188-0.0937-0.54687-0.0937-1.2031zm12.717-2.0156q2.1562 0 3.3281 1.0938 1.1719 1.0938 1.1719 3.0625 0 0.28125-0.0312 0.59375-0.0312 0.29687-0.0938 0.59375-0.0625 0.28125-0.15625 0.51562-0.0781 0.23438-0.17187 0.375h-7.125q0.0469 0.73438 0.26562 1.3906 0.21875 0.64062 0.64063 1.125 0.42187 0.48437 1.0156 0.76562t1.4062 0.28125q0.90625 0 1.9219-0.34375 1.0156-0.34375 1.7188-0.85937l0.45312 2q-0.32812 0.20312-0.79687 0.4375-0.45313 0.23437-1.0469 0.4375-0.59375 0.1875-1.2656 0.3125-0.67188 0.14062-1.4062 0.14062-1.3594 0-2.4219-0.46875-1.0469-0.48437-1.7656-1.2969-0.70313-0.82813-1.0781-1.9062-0.35937-1.0781-0.35937-2.25 0-1.2031 0.375-2.2812 0.39062-1.0938 1.125-1.9219 0.73437-0.84375 1.8125-1.3125 1.0938-0.48437 2.4844-0.48437zm-0.0625 2.1094q-1.0312 0-1.7656 0.60938-0.71875 0.59375-1.0312 1.6094h4.6719q0.0312-0.0625 0.0312-0.15625 0.0156-0.10937 0.0156-0.25 0-0.78125-0.54688-1.2969-0.53125-0.51563-1.375-0.51563zm13.747 0.70313q-0.25-0.1875-0.76562-0.3125-0.51563-0.125-0.875-0.125-0.48438 0-0.8125 0.23437-0.3125 0.23438-0.5625 0.60938-0.23438 0.375-0.40625 0.875-0.17188 0.48437-0.32813 1v6.5312h-2.6875v-11.25h2.1094l0.125 2.3438h0.0937q0.23437-0.51563 0.5-1 0.28125-0.5 0.625-0.875t0.79687-0.60938q0.45313-0.23437 1.0625-0.23437 0.98438 0 1.8281 0.64062zm11.451 8.8125h-2.8125v-16.156h2.8125zm8.7141-6.0625q-0.42188 0-0.82813 0t-0.76562-0.0312v6.0938h-2.8125v-16.156q0.35937-0.0156 0.82812-0.0312 0.48438-0.0312 1.0156-0.0469 0.53125-0.0156 1.0469-0.0156 0.53125-0.0156 1-0.0156 1.3594 0 2.4844 0.32813 1.1406 0.32812 1.9375 0.98437 0.8125 0.65625 1.25 1.625t0.4375 2.25q0 1.0156-0.34375 1.9219t-1.0312 1.5938q-0.67188 0.6875-1.7344 1.0938t-2.4844 0.40625zm-0.125-7.8594q-0.39063 0-0.76563 0-0.35937 0-0.70312 0.0312v5.4531q0.34375 0.0156 0.71875 0.0156t0.79687 0q1.3281 0 2-0.73437 0.67188-0.73438 0.67188-2.125 0-1.1719-0.60938-1.9062-0.59375-0.73438-2.1094-0.73438zm20.406 5.1094q-0.25-0.1875-0.76562-0.3125-0.51563-0.125-0.875-0.125-0.48438 0-0.8125 0.23437-0.3125 0.23438-0.5625 0.60938-0.23438 0.375-0.40625 0.875-0.17188 0.48437-0.32813 1v6.5312h-2.6875v-11.25h2.1094l0.125 2.3438h0.0937q0.23437-0.51563 0.5-1 0.28125-0.5 0.625-0.875t0.79687-0.60938q0.45313-0.23437 1.0625-0.23437 0.98438 0 1.8281 0.64062zm9.4508 8.8125-0.20313-1.5469h-0.0937q-0.67187 0.84375-1.8125 1.3438-1.125 0.5-2.2969 0.5-1.5469 0-2.4375-0.89062-0.875-0.90625-0.875-2.3594 0-1.0156 0.42187-1.7969 0.4375-0.79688 1.2344-1.3438 0.8125-0.5625 1.9375-0.85938 1.125-0.29687 2.5312-0.29687h1.0469v-0.35938q0-0.95312-0.60937-1.3906-0.64063-0.4375-1.9844-0.4375-1.8125 0-3.2344 0.79687l-0.51563-2.0312q1.6406-0.95312 3.9688-0.95312 2.4531 0 3.7188 1 0.59375 0.46875 0.96875 1.2031 0.375 0.73438 0.375 1.7656v7.6562zm-3.3594-1.8906q0.78125 0 1.5625-0.375t1.25-1.0156v-2.2188h-0.46875q-2 0-2.9219 0.51562-0.92188 0.5-0.92188 1.625 0 1.4688 1.5 1.4688zm16.29 1.8906v-7.4375q0-2-1.7031-2-0.42188 0-0.90625 0.14062-0.46875 0.14063-0.90625 0.42188t-0.79688 0.70312q-0.35937 0.42188-0.53122 0.95313v7.2188h-2.6875v-11.25h2.1094l0.125 1.6562h0.0937q0.51559-1.0312 1.5937-1.5312 1.0938-0.5 2.3438-0.5 0.8125 0 1.5156 0.21875 0.70313 0.20312 1.25 0.67187 0.5625 0.45313 0.875 1.2188 0.32813 0.75 0.32813 1.8594v7.6562zm7.3531-3.5469q-1.1094-0.46875-1.6094-1.4375-0.48438-0.98437-0.48438-2.1406 0-0.95313 0.3125-1.7812 0.32813-0.82813 0.92188-1.4219 0.60937-0.60937 1.4531-0.95312t1.9219-0.34375q0.64062 0 1.25 0.125 0.625 0.125 1.0938 0.35937 1.0312-0.0156 1.875-0.14062 0.84375-0.14063 1.625-0.35938l0.21875 0.17188-0.26563 1.8594-0.125 0.10938-1.7344-0.1875-0.0312 0.0781q0.84375 1.0469 0.84375 2.4688 0 0.85938-0.3125 1.6094-0.29688 0.73437-0.89063 1.2969-0.59375 0.54688-1.4688 0.875-0.85937 0.32813-1.9531 0.32813-0.28125 0-0.4375-0.0156t-0.29688-0.0156q-0.42187 0.15625-0.64062 0.39062-0.21875 0.21875-0.21875 0.46875 0 0.26563 0.26562 0.46875 0.26563 0.1875 0.82813 0.26563l2.375 0.29687q0.8125 0.0937 1.5 0.34375 0.70312 0.23438 1.2344 0.65625 0.53125 0.42188 0.8125 1 0.29688 0.59375 0.29688 1.3438 0 0.76563-0.32813 1.4688-0.3125 0.71875-1 1.25-0.67187 0.54688-1.7188 0.85938-1.0312 0.3125-2.5 0.3125-1.2969 0-2.2969-0.26563-0.98438-0.25-1.6719-0.6875t-1.0469-1.0469q-0.34375-0.59375-0.34375-1.2656 0-0.5 0.17187-0.98437 0.17188-0.46875 0.46875-0.875 0.3125-0.40625 0.70313-0.71875 0.40625-0.3125 0.875-0.46875v-0.0937q-0.5625-0.25-0.78125-0.65625-0.21875-0.42188-0.21875-0.8125 0-0.51563 0.34375-0.95313t0.98437-0.6875zm2.6094-1.375q1 0 1.5156-0.64062 0.51563-0.65625 0.51563-1.5781 0-0.4375-0.125-0.89062-0.125-0.45313-0.39063-0.8125-0.26562-0.375-0.67187-0.60938-0.40625-0.23437-0.9375-0.23437-0.51563 0-0.90625 0.20312-0.39063 0.20313-0.65625 0.54688-0.25 0.34375-0.375 0.78125-0.125 0.42187-0.125 0.85937 0 0.45313 0.14062 0.875 0.14063 0.42188 0.40625 0.76563 0.26563 0.32812 0.67188 0.53125 0.40625 0.20312 0.9375 0.20312zm-0.75 5.4531q-0.84375 0.15625-1.4375 0.70312-0.57813 0.54688-0.57813 1.2656 0 0.78125 0.76563 1.1719 0.78125 0.39063 2.25 0.39063 1.4375 0 2.2969-0.40625 0.85938-0.40625 0.85938-1.3125 0-0.875-0.95313-1.25-0.95312-0.35938-3.2031-0.5625zm13.837-12.156q2.1562 0 3.3281 1.0938 1.1719 1.0938 1.1719 3.0625 0 0.28125-0.0312 0.59375-0.0312 0.29687-0.0937 0.59375-0.0625 0.28125-0.15625 0.51562-0.0781 0.23438-0.17187 0.375h-7.125q0.0469 0.73438 0.26562 1.3906 0.21875 0.64062 0.64063 1.125 0.42187 0.48437 1.0156 0.76562t1.4062 0.28125q0.90625 0 1.9219-0.34375 1.0156-0.34375 1.7188-0.85937l0.45312 2q-0.32812 0.20312-0.79687 0.4375-0.45313 0.23437-1.0469 0.4375-0.59375 0.1875-1.2656 0.3125-0.67188 0.14062-1.4062 0.14062-1.3594 0-2.4219-0.46875-1.0469-0.48437-1.7656-1.2969-0.70313-0.82813-1.0781-1.9062-0.35937-1.0781-0.35937-2.25 0-1.2031 0.375-2.2812 0.39062-1.0938 1.125-1.9219 0.73437-0.84375 1.8125-1.3125 1.0938-0.48437 2.4844-0.48437zm-0.0625 2.1094q-1.0312 0-1.7656 0.60938-0.71875 0.59375-1.0312 1.6094h4.6719q0.0312-0.0625 0.0312-0.15625 0.0156-0.10937 0.0156-0.25 0-0.78125-0.54688-1.2969-0.53125-0.51563-1.375-0.51563zm7.216 8.0781q0-0.34375 0.125-0.65625 0.14062-0.32813 0.375-0.57813 0.25-0.26562 0.54687-0.40625 0.3125-0.15625 0.6875-0.15625 0.34375 0 0.65625 0.15625 0.32813 0.14063 0.57813 0.40625 0.26562 0.25 0.40625 0.57813 0.14062 0.3125 0.14062 0.65625 0 0.35937-0.14062 0.67187-0.14063 0.29688-0.40625 0.54688-0.25 0.25-0.57813 0.375-0.3125 0.14062-0.65625 0.14062-0.70312 0-1.2188-0.51562-0.51562-0.51563-0.51562-1.2188zm0-7.9062q0-0.34375 0.125-0.65625 0.14062-0.32813 0.375-0.57813 0.25-0.26562 0.54687-0.40625 0.3125-0.15625 0.6875-0.15625 0.34375 0 0.65625 0.15625 0.32813 0.14063 0.57813 0.40625 0.26562 0.25 0.40625 0.57813 0.14062 0.3125 0.14062 0.65625 0 0.35937-0.14062 0.67187-0.14063 0.29688-0.40625 0.54688-0.25 0.25-0.57813 0.39062-0.3125 0.125-0.65625 0.125-0.70312 0-1.2188-0.51562-0.51562-0.51563-0.51562-1.2188zm17.106 9.3438h-2.8125v-11.891l-1.9844 0.875-0.54687-2.4375 5.3438-2.7031zm9.9293-16.266q1.5625 0 2.7656 0.67188 1.2188 0.67187 2.0469 1.7969 0.84375 1.125 1.2656 2.6094 0.4375 1.4688 0.4375 3.1094 0 1.6406-0.45312 3.1562-0.4375 1.5-1.2812 2.6719-0.84375 1.1562-2.0938 1.8594-1.25 0.6875-2.8594 0.6875-1.5938 0-2.7812-0.65625-1.1875-0.67187-1.9688-1.7969t-1.1875-2.5938q-0.40625-1.4844-0.40625-3.125 0-1.7344 0.4375-3.2656 0.45313-1.5312 1.2812-2.6719 0.82813-1.1406 2.0312-1.7969 1.2188-0.65625 2.7656-0.65625zm-0.0781 14.203q0.9375 0 1.6094-0.4375 0.67187-0.45313 1.1094-1.2656t0.65625-1.9062q0.21875-1.1094 0.21875-2.375 0-1.2969-0.21875-2.375-0.21875-1.0781-0.67187-1.8594-0.45313-0.78125-1.1406-1.2031-0.67187-0.4375-1.5781-0.4375t-1.5625 0.4375q-0.64063 0.42188-1.0469 1.1875-0.40625 0.76563-0.60937 1.8594-0.1875 1.0938-0.1875 2.3906 0 2.9531 0.89062 4.4688 0.89063 1.5156 2.5312 1.5156zm8.8178 0.625q0-0.34375 0.125-0.65625 0.14063-0.32813 0.375-0.57813 0.25-0.26562 0.54688-0.40625 0.3125-0.15625 0.6875-0.15625 0.34375 0 0.65625 0.15625 0.32812 0.14063 0.57812 0.40625 0.25 0.25 0.39063 0.57813 0.15625 0.3125 0.15625 0.65625 0 0.35937-0.15625 0.67187-0.14063 0.29688-0.39063 0.54688t-0.57812 0.375q-0.3125 0.14062-0.65625 0.14062-0.71875 0-1.2344-0.51562-0.5-0.51563-0.5-1.2188zm10.35 1.4375h-2.8125v-11.891l-1.9844 0.875-0.54688-2.4375 5.3438-2.7031zm3.5231-1.4375q0-0.34375 0.125-0.65625 0.14062-0.32813 0.375-0.57813 0.25-0.26562 0.54687-0.40625 0.3125-0.15625 0.6875-0.15625 0.34375 0 0.65625 0.15625 0.32813 0.14063 0.57813 0.40625 0.25 0.25 0.39062 0.57813 0.15625 0.3125 0.15625 0.65625 0 0.35937-0.15625 0.67187-0.14062 0.29688-0.39062 0.54688t-0.57813 0.375q-0.3125 0.14062-0.65625 0.14062-0.71875 0-1.2344-0.51562-0.5-0.51563-0.5-1.2188zm10.35 1.4375h-2.8125v-11.891l-1.9844 0.875-0.54687-2.4375 5.3438-2.7031zm3.5231-1.4375q0-0.34375 0.125-0.65625 0.14063-0.32813 0.375-0.57813 0.25-0.26562 0.54688-0.40625 0.3125-0.15625 0.6875-0.15625 0.34375 0 0.65625 0.15625 0.32812 0.14063 0.57812 0.40625 0.25 0.25 0.39063 0.57813 0.15625 0.3125 0.15625 0.65625 0 0.35937-0.15625 0.67187-0.14063 0.29688-0.39063 0.54688t-0.57812 0.375q-0.3125 0.14062-0.65625 0.14062-0.71875 0-1.2344-0.51562-0.5-0.51563-0.5-1.2188zm12.328-14.828q1.5625 0 2.7656 0.67188 1.2188 0.67187 2.0469 1.7969 0.84375 1.125 1.2656 2.6094 0.4375 1.4688 0.4375 3.1094 0 1.6406-0.45312 3.1562-0.4375 1.5-1.2812 2.6719-0.84375 1.1562-2.0938 1.8594-1.25 0.6875-2.8594 0.6875-1.5938 0-2.7812-0.65625-1.1875-0.67187-1.9688-1.7969t-1.1875-2.5938q-0.40625-1.4844-0.40625-3.125 0-1.7344 0.4375-3.2656 0.45313-1.5312 1.2812-2.6719 0.82813-1.1406 2.0312-1.7969 1.2188-0.65625 2.7656-0.65625zm-0.0781 14.203q0.9375 0 1.6094-0.4375 0.67187-0.45313 1.1094-1.2656t0.65625-1.9062q0.21875-1.1094 0.21875-2.375 0-1.2969-0.21875-2.375-0.21875-1.0781-0.67187-1.8594-0.45313-0.78125-1.1406-1.2031-0.67187-0.4375-1.5781-0.4375t-1.5625 0.4375q-0.64063 0.42188-1.0469 1.1875-0.40625 0.76563-0.60937 1.8594-0.1875 1.0938-0.1875 2.3906 0 2.9531 0.89062 4.4688 0.89063 1.5156 2.5312 1.5156zm11.366 3.4531h-2.8281l6.8125-18.562h2.8125zm8.7229-16.391q0.46875-0.25 1.0625-0.46875 0.60938-0.23438 1.25-0.42188 0.65625-0.1875 1.3125-0.28125 0.65625-0.0937 1.2969-0.0937 1.0312 0 1.9062 0.28125 0.89062 0.28125 1.5 0.8125 0.625 0.51563 0.98437 1.2656 0.35938 0.73437 0.35938 1.6406 0 1.25-0.625 2.4844-0.625 1.2344-1.5781 2.4844-0.9375 1.2344-2.0625 2.4531-1.125 1.2031-2.0938 2.3906h6.5312v2.4531h-9.9062v-2.4531q0.95313-1.2969 2.1562-2.5469 1.2188-1.2656 2.2812-2.4531 1.0625-1.2031 1.7969-2.3594 0.73437-1.1562 0.73437-2.25 0-1.0469-0.6875-1.4844-0.6875-0.45312-1.7812-0.45312-1.0625 0-2.0781 0.34375-1.0156 0.32812-1.7969 0.76562zm23.207 10.344h-1.6875v4.6562h-2.8281v-4.6562h-6.9375v-2.1875l6.8281-9.3125h2.9375v9.3125h1.6875zm-4.5156-2.1875v-5.9219l-4.1719 5.9219z" fill="#fff"/>
</svg>
