<?xml version="1.0" encoding="UTF-8"?>
<svg version="1.1" viewBox="0 0 805.48 640.1" xml:space="preserve" xmlns="http://www.w3.org/2000/svg">
<path d="m36.973 73.343 2.7027 0.44133 2.908 0.372 3.2613 0.34 3.5867 0.312 3.8867 0.28933 4.1653 0.27467 4.42 0.268 4.6573 0.26667 4.872 0.276 5.068 0.292 5.2453 0.316 5.404 0.34933 5.5427 0.388 5.664 0.43867 11.596 1.052 11.873 1.348 11.988 1.708 6.028 1.0147 5.972 1.1267 5.9293 1.2493 5.868 1.384 5.7907 1.5253 5.6947 1.676 5.58 1.836 5.4493 2.0067 5.3 2.1853 5.1333 2.376 4.948 2.5747 4.744 2.7867 4.652 3.04 4.684 3.316 4.728 3.584 4.764 3.836 4.7907 4.0693 4.808 4.284 4.8147 4.4813 4.8133 4.6613 4.8 4.8227 4.776 4.9667 4.7427 5.092 4.6973 5.2 9.1973 10.628 8.9053 10.863 4.3253 5.4867 4.196 5.4653 4.0747 5.4467 3.9413 5.4093 3.7973 5.3547 3.6413 5.2813 3.4747 5.192 3.2973 5.0827 3.108 4.956 2.9093 4.8147 2.6987 4.6533 2.4773 4.476 2.244 4.2827 2.0027 4.0747 1.7493 3.8533 1.4853 3.62 1.2013 3.5387 0.86934 3.5467 0.52 3.4747 0.18533 3.3973-0.136 3.3107-0.43733 3.2147-0.71467 3.1093-0.96933 2.9987-1.1987 2.8827-1.4013 2.7693-1.5787 2.6533-1.7333 2.5427-1.864 2.436-1.9747 2.3333-4.1427 4.3227-4.4053 4.032-4.452 3.6973-4.1053 3.392-5.096-6.1667 4.096-3.384 4.164-3.4467 4.0307-3.6667 3.812-3.9573 1.7293-2.0307 1.608-2.0827 1.4707-2.132 1.3173-2.1813 1.1507-2.2307 0.97199-2.28 0.784-2.3347 0.58-2.396 0.36667-2.4667 0.13733-2.5467-0.112-2.6427-0.38-2.7493-0.67333-2.864-1.0227-3.0613-1.3693-3.348-1.644-3.6307-1.908-3.8893-2.1587-4.1227-2.3973-4.336-2.624-4.5293-2.84-4.7-3.0427-4.8533-3.2333-4.9867-3.4133-5.1-3.5813-5.196-3.736-5.2707-3.8813-5.328-4.0147-5.3667-4.1347-5.3853-4.228-5.3667-8.768-10.7-9.0853-10.501-4.6147-5.1093-4.6547-4.9987-4.68-4.8693-4.696-4.7187-4.6973-4.552-4.688-4.3653-4.664-4.16-4.6293-3.936-4.5813-3.692-4.5173-3.4307-4.44-3.1493-4.3293-2.8387-4.384-2.588-4.6133-2.4107-4.8227-2.2387-5.0133-2.0747-5.1853-1.9133-5.3387-1.7613-5.4733-1.6133-5.588-1.4747-5.6827-1.3427-5.7613-1.216-5.8173-1.1-5.8267-0.984-11.764-1.6773-11.693-1.3293-11.489-1.044-5.6067-0.43333-5.4987-0.38667-5.3693-0.34667-5.224-0.31467-5.06-0.292-4.8787-0.276-4.6813-0.268-4.464-0.27067-4.2333-0.27867-3.9867-0.29867-3.7253-0.324-3.452-0.36267-3.172-0.41067-2.7027-0.44133zm269.78 241.93-26.084 6.292 10.617-24.643z" fill="#9f3c4b"/>
</svg>
