<?xml version="1.0" encoding="UTF-8" standalone="no"?>
<svg
   xmlns:dc="http://purl.org/dc/elements/1.1/"
   xmlns:cc="http://creativecommons.org/ns#"
   xmlns:rdf="http://www.w3.org/1999/02/22-rdf-syntax-ns#"
   xmlns:svg="http://www.w3.org/2000/svg"
   xmlns="http://www.w3.org/2000/svg"
   style="fill:none;stroke:none;stroke-linecap:square;stroke-miterlimit:10"
   height="301.86792"
   width="1305.4999"
   id="svg45"
   stroke-miterlimit="10"
   viewBox="0 0 1305.4999 301.86793"
   version="1.1">
  <metadata
     id="metadata51">
    <rdf:RDF>
      <cc:Work
         rdf:about="">
        <dc:format>image/svg+xml</dc:format>
        <dc:type
           rdf:resource="http://purl.org/dc/dcmitype/StillImage" />
        <dc:title></dc:title>
      </cc:Work>
    </rdf:RDF>
  </metadata>
  <defs
     id="defs49" />
  <clipPath
     id="p45.0">
    <path
       style="clip-rule:nonzero"
       id="path2"
       d="M 0,0 H 1305.4987 V 734.3333 H 0 Z" />
  </clipPath>
  <path
     d="M 0,0 H 567.0382 L 604.83349,37.79527 567.0382,75.59056 H 0 Z"
     id="path11"
     style="fill:#33b5a1;fill-rule:evenodd" />
  <path
     d="m 134.29047,50.05128 h -2.79688 V 25.41064 h 2.79688 z m 12.60808,0.45313 q -1.90625,0 -3.32813,-0.75 -1.40625,-0.75 -2.34375,-1.98438 -0.9375,-1.23437 -1.40625,-2.84375 -0.45312,-1.625 -0.45312,-3.42187 0,-1.82813 0.5,-3.5 0.5,-1.6875 1.48437,-2.9375 1,-1.25 2.48438,-2 1.5,-0.75 3.48437,-0.75 2.5,0 4.09375,1.09375 1.60938,1.07812 2.09375,2.6875 V 22.42627 h 2.60938 v 27.62501 h -2.04688 l -0.29687,-3.0625 h -0.15625 q -0.89063,1.375 -2.60938,2.45313 -1.71875,1.0625 -4.10937,1.0625 z m 0.29687,-2.20313 q 1.79688,0 3.53125,-0.96875 1.73438,-0.98437 2.78125,-2.8125 v -5.48437 q -0.67187,-2.125 -2.26562,-3.3125 -1.57813,-1.20313 -3.5625,-1.20313 -1.29688,0 -2.32813,0.53125 -1.03125,0.51563 -1.73437,1.45313 -0.70313,0.9375 -1.10938,2.25 -0.39062,1.29687 -0.39062,2.85937 0,1.20313 0.26562,2.39063 0.26563,1.1875 0.85938,2.14062 0.59375,0.95313 1.5625,1.5625 0.98437,0.59375 2.39062,0.59375 z m 22.4325,-15.98437 q 3.29687,0 5.07812,1.67187 1.79688,1.65625 1.79688,4.67188 0,0.64062 -0.0781,1.29687 -0.0781,0.65625 -0.25,0.95313 h -12.59375 v 0.375 q 0,1.40625 0.375,2.71875 0.375,1.3125 1.125,2.32812 0.75,1 1.89063,1.59375 1.14062,0.59375 2.70312,0.59375 0.89063,0 1.75,-0.20312 0.85938,-0.20313 1.64063,-0.51563 0.78125,-0.32812 1.45312,-0.70312 0.67188,-0.375 1.20313,-0.75 l 0.45312,2.14062 q -0.5,0.29688 -1.20312,0.65625 -0.70313,0.34375 -1.5625,0.64063 -0.85938,0.29687 -1.89063,0.5 -1.03125,0.21875 -2.14062,0.21875 -2.09375,0 -3.70313,-0.73438 -1.59375,-0.73437 -2.6875,-1.98437 -1.07812,-1.25 -1.64062,-2.89063 -0.5625,-1.64062 -0.5625,-3.42187 0,-1.84375 0.57812,-3.5 0.57813,-1.65625 1.70313,-2.92188 1.125,-1.28125 2.78125,-2 1.65625,-0.73437 3.78125,-0.73437 z m -0.10938,2.09375 q -2.45312,0 -3.82812,1.29687 -1.35938,1.28125 -1.84375,3.21875 h 10.1875 q 0.0469,-0.1875 0.0469,-0.32812 0,-0.15625 0,-0.34375 0,-0.9375 -0.375,-1.65625 -0.375,-0.73438 -1.01562,-1.21875 -0.625,-0.48438 -1.45313,-0.71875 -0.8125,-0.25 -1.71875,-0.25 z m 23.78308,15.64062 V 38.70753 q 0,-2.25 -1.01562,-3.21875 -1,-0.96875 -2.5625,-0.96875 -0.9375,0 -1.85938,0.29688 -0.90625,0.29687 -1.6875,0.875 -0.78125,0.57812 -1.39062,1.42187 -0.59375,0.84375 -0.92188,1.92188 v 11.01562 h -2.625 V 32.87941 h 2.0625 l 0.29688,3.21875 h 0.14062 q 0.48438,-1.57813 2.15625,-2.67188 1.6875,-1.10937 4.20313,-1.10937 1.1875,0 2.25,0.32812 1.0625,0.3125 1.84375,1.03125 0.78125,0.70313 1.25,1.85938 0.46875,1.15625 0.46875,2.82812 v 11.6875 z m 9.07827,-15.42187 h -2.875 v -1.375 l 2.9375,-0.375 0.5625,-5.18752 h 1.98437 v 5.18752 h 4.03125 v 1.75 h -4.03125 v 11.90625 q 0,1.20312 0.34375,1.57812 0.35938,0.375 1.10938,0.375 0.85937,0 1.53125,-0.26562 0.67187,-0.26563 1.1875,-0.64063 l 0.53125,1.98438 q -0.64063,0.29687 -1.67188,0.59375 -1.01562,0.29687 -2.25,0.29687 -1.20312,0 -1.875,-0.34375 -0.67187,-0.32812 -1.01562,-0.875 -0.32813,-0.5625 -0.42188,-1.25 -0.0781,-0.70312 -0.0781,-1.375 z m 13.51187,15.42187 h -2.625 V 32.87941 h 2.625 z m -3.17188,-23.43751 q 0,-0.75 0.53125,-1.34375 0.54688,-0.60938 1.32813,-0.60938 0.75,0 1.34375,0.60938 0.59375,0.59375 0.59375,1.34375 0,0.78125 -0.59375,1.32812 -0.59375,0.53125 -1.34375,0.53125 -0.78125,0 -1.32813,-0.53125 -0.53125,-0.54687 -0.53125,-1.32812 z m 9.88931,8.01564 h -2.875 v -1.375 l 2.875,-0.34375 q 0,-2.07815 0.125,-3.56252 0.125,-1.5 0.34375,-2.53125 0.23438,-1.03125 0.51563,-1.67188 0.28125,-0.65625 0.54687,-1.07812 0.70313,-1.04688 1.75,-1.4375 1.04688,-0.39063 2.15625,-0.39063 0.15625,0 0.53125,0.0312 0.375,0.0156 0.84375,0.0781 0.46875,0.0469 0.95313,0.17187 0.48437,0.125 0.92187,0.35938 l -0.625,2.20312 q -0.10937,0 -0.53125,-0.125 -0.40625,-0.14062 -0.92187,-0.29687 -0.5,-0.17188 -1.07813,-0.32813 -0.57812,-0.15625 -1.01562,-0.15625 -0.5625,0 -0.9375,0.32813 -0.375,0.3125 -0.57813,1.04687 -0.20312,0.71875 -0.29687,1.92188 -0.0937,1.1875 -0.0937,2.9375 v 2.46877 h 4.03125 v 1.75 h -4.03125 V 50.0512 h -2.60938 z m 18.35819,15.57812 q -0.5625,1.1875 -1.34375,2.8125 -0.78125,1.625 -1.875,3.07813 -1.07813,1.45312 -2.53125,2.48437 -1.45313,1.03125 -3.28125,1.03125 -0.29688,0 -0.45313,-0.0312 -0.14062,-0.0156 -0.32812,-0.0937 l -0.48438,-2.45312 q 0.10938,0.0312 0.25,0.0625 0.15625,0.0469 0.53125,0.0469 0.75,0 1.39063,-0.15625 0.65625,-0.14062 1.29687,-0.59375 1.3125,-0.9375 2.375,-2.73437 1.0625,-1.78125 1.92188,-4.17188 l -8.59375,-16.60937 h 3.10937 l 6.82813,14.29687 6.10937,-14.29687 h 2.95313 z m 13.85773,-0.15625 h -2.625 V 32.87941 h 2.625 z m -3.17188,-23.43751 q 0,-0.75 0.53125,-1.34375 0.54688,-0.60938 1.32813,-0.60938 0.75,0 1.34375,0.60938 0.59375,0.59375 0.59375,1.34375 0,0.78125 -0.59375,1.32812 -0.59375,0.53125 -1.34375,0.53125 -0.78125,0 -1.32813,-0.53125 -0.53125,-0.54687 -0.53125,-1.32812 z m 21.04556,23.43751 V 38.70753 q 0,-2.25 -1.01562,-3.21875 -1,-0.96875 -2.5625,-0.96875 -0.9375,0 -1.85938,0.29688 -0.90625,0.29687 -1.6875,0.875 -0.78125,0.57812 -1.39062,1.42187 -0.59375,0.84375 -0.92188,1.92188 v 11.01562 h -2.625 V 32.87941 h 2.0625 l 0.29688,3.21875 h 0.14062 q 0.48438,-1.57813 2.15625,-2.67188 1.6875,-1.10937 4.20313,-1.10937 1.1875,0 2.25,0.32812 1.0625,0.3125 1.84375,1.03125 0.78125,0.70313 1.25,1.85938 0.46875,1.15625 0.46875,2.82812 v 11.6875 z m 10.64075,-5.29687 q -1.79687,-0.71875 -2.57812,-2.26563 -0.78125,-1.54687 -0.78125,-3.34375 0,-1.45312 0.48437,-2.67187 0.48438,-1.23438 1.39063,-2.17188 0.92187,-0.9375 2.20312,-1.45312 1.29688,-0.53125 2.9375,-0.53125 0.96875,0 1.92188,0.1875 0.95312,0.1875 1.65625,0.5625 1.57812,-0.0312 2.9375,-0.17188 1.35937,-0.15625 2.5625,-0.5 l 0.17187,0.15625 -0.25,2.04688 -0.1875,0.1875 -3.40625,-0.15625 -0.0312,0.125 q 0.96875,0.78125 1.40625,2.04687 0.45313,1.26563 0.45313,2.46875 0,1.21875 -0.46875,2.34375 -0.45313,1.125 -1.35938,1.96875 -0.89062,0.82813 -2.21875,1.34375 -1.32812,0.5 -3.03125,0.5 -0.42187,0 -0.71875,-0.0156 -0.29687,-0.0312 -0.5625,-0.0312 -0.78125,0.26562 -1.17187,0.71875 -0.39063,0.4375 -0.39063,0.75 0,0.35937 0.5,0.64062 0.5,0.28125 1.625,0.39063 l 3.625,0.375 q 1.23438,0.10937 2.29688,0.51562 1.0625,0.39063 1.84375,1.01563 0.78125,0.60937 1.25,1.48437 0.46875,0.875 0.46875,1.98438 0,1.09375 -0.48438,2.21875 -0.48437,1.14062 -1.45312,1.96875 -0.96875,0.82812 -2.6875,1.34375 -1.71875,0.51562 -3.96875,0.51562 -1.89063,0 -3.40625,-0.39062 -1.51563,-0.39063 -2.54688,-1.07813 -1.01562,-0.6875 -1.5625,-1.59375 -0.54687,-0.89062 -0.54687,-1.89062 0,-0.75 0.29687,-1.48438 0.3125,-0.71875 0.79688,-1.35937 0.48437,-0.625 1.125,-1.125 0.65625,-0.48438 1.375,-0.73438 v -0.15625 q -1.53125,-0.70312 -1.53125,-1.9375 0,-0.78125 0.57812,-1.40625 0.57813,-0.64062 1.4375,-1.25 z m 3.8125,-1.20313 q 1.03125,0 1.82813,-0.34375 0.8125,-0.35937 1.375,-0.9375 0.5625,-0.57812 0.85937,-1.35937 0.29688,-0.78125 0.29688,-1.64063 0,-0.85937 -0.29688,-1.75 -0.29687,-0.90625 -0.875,-1.625 -0.57812,-0.73437 -1.4375,-1.1875 -0.85937,-0.45312 -1.98437,-0.45312 -1.07813,0 -1.89063,0.4375 -0.79687,0.42187 -1.34375,1.09375 -0.53125,0.67187 -0.79687,1.5 -0.26563,0.82812 -0.26563,1.64062 0,0.85938 0.28125,1.6875 0.28125,0.8125 0.85938,1.46875 0.57812,0.65625 1.42187,1.0625 0.84375,0.40625 1.96875,0.40625 z m -1.20312,6.6875 q -0.85938,0 -1.59375,0.32813 -0.71875,0.34375 -1.26563,0.85937 -0.53125,0.53125 -0.85937,1.17188 -0.3125,0.65625 -0.3125,1.29687 0,1.42188 1.51562,2.25 1.51563,0.84375 4.07813,0.84375 1.23437,0 2.29687,-0.20312 1.0625,-0.20313 1.82813,-0.64063 0.76562,-0.42187 1.21875,-1.04687 0.45312,-0.60938 0.45312,-1.46875 0,-1.67188 -1.8125,-2.40625 -1.8125,-0.71875 -5.54687,-0.98438 z m 35.04568,-0.1875 V 38.70753 q 0,-2.28125 -1.04687,-3.23437 -1.03125,-0.95313 -2.60938,-0.95313 -1.90625,0 -3.4375,1.1875 -1.51562,1.17188 -2.1875,3.32813 v 11.01562 h -2.625 V 32.87941 h 2.0625 l 0.29688,3.21875 h 0.14062 q 0.48438,-1.57813 2.03125,-2.67188 1.5625,-1.10937 4.01563,-1.10937 2.25,0 3.75,1 1.51562,0.98437 1.9375,2.78125 0.35937,-0.75 0.92187,-1.42188 0.5625,-0.67187 1.34375,-1.1875 0.78125,-0.53125 1.78125,-0.84375 1.01563,-0.32812 2.29688,-0.32812 1.15625,0 2.21875,0.32812 1.0625,0.3125 1.85937,1.03125 0.8125,0.70313 1.29688,1.85938 0.48437,1.15625 0.48437,2.82812 v 11.6875 h -2.60937 V 38.70753 q 0,-2.28125 -1.04688,-3.23437 -1.04687,-0.95313 -2.625,-0.95313 -1.89062,0 -3.42187,1.1875 -1.53125,1.17188 -2.20313,3.32813 v 11.01562 z m 27.84622,-17.73437 q 3.29688,0 5.07813,1.67187 1.79687,1.65625 1.79687,4.67188 0,0.64062 -0.0781,1.29687 -0.0781,0.65625 -0.25,0.95313 h -12.59375 v 0.375 q 0,1.40625 0.375,2.71875 0.375,1.3125 1.125,2.32812 0.75,1 1.89062,1.59375 1.14063,0.59375 2.70313,0.59375 0.89062,0 1.75,-0.20312 0.85937,-0.20313 1.64062,-0.51563 0.78125,-0.32812 1.45313,-0.70312 0.67187,-0.375 1.20312,-0.75 l 0.45313,2.14062 q -0.5,0.29688 -1.20313,0.65625 -0.70312,0.34375 -1.5625,0.64063 -0.85937,0.29687 -1.89062,0.5 -1.03125,0.21875 -2.14063,0.21875 -2.09375,0 -3.70312,-0.73438 -1.59375,-0.73437 -2.6875,-1.98437 -1.07813,-1.25 -1.64063,-2.89063 -0.5625,-1.64062 -0.5625,-3.42187 0,-1.84375 0.57813,-3.5 0.57812,-1.65625 1.70312,-2.92188 1.125,-1.28125 2.78125,-2 1.65625,-0.73437 3.78125,-0.73437 z m -0.10937,2.09375 q -2.45313,0 -3.82813,1.29687 -1.35937,1.28125 -1.84375,3.21875 h 10.1875 q 0.0469,-0.1875 0.0469,-0.32812 0,-0.15625 0,-0.34375 0,-0.9375 -0.375,-1.65625 -0.375,-0.73438 -1.01563,-1.21875 -0.625,-0.48438 -1.45312,-0.71875 -0.8125,-0.25 -1.71875,-0.25 z m 12.51745,0.21875 h -2.875 v -1.375 l 2.9375,-0.375 0.5625,-5.18752 h 1.98438 v 5.18752 h 4.03125 v 1.75 h -4.03125 v 11.90625 q 0,1.20312 0.34375,1.57812 0.35937,0.375 1.10937,0.375 0.85938,0 1.53125,-0.26562 0.67188,-0.26563 1.1875,-0.64063 l 0.53125,1.98438 q -0.64062,0.29687 -1.67187,0.59375 -1.01563,0.29687 -2.25,0.29687 -1.20313,0 -1.875,-0.34375 -0.67188,-0.32812 -1.01563,-0.875 -0.32812,-0.5625 -0.42187,-1.25 -0.0781,-0.70312 -0.0781,-1.375 z m 21.79309,15.42187 -0.29687,-3.0625 h -0.15625 q -0.4375,0.70313 -1.1875,1.34375 -0.75,0.64063 -1.67188,1.125 -0.90625,0.48438 -1.96875,0.76563 -1.0625,0.28125 -2.10937,0.28125 -2.46875,0 -3.70313,-1.4375 -1.21875,-1.4375 -1.21875,-3.60938 0,-2.125 1.07813,-3.39062 1.07812,-1.26563 2.64062,-1.90625 1.57813,-0.64063 3.3125,-0.82813 1.73438,-0.1875 3.04688,-0.1875 h 1.67187 v -0.4375 q 0,-1.42187 -0.39062,-2.17187 -0.39063,-0.75 -1.14063,-1.26563 -0.625,-0.40625 -1.35937,-0.57812 -0.73438,-0.17188 -1.92188,-0.17188 -1.5625,0 -2.76562,0.42188 -1.1875,0.40625 -2.3125,1.07812 l -0.59375,-2.25 q 2.5,-1.45312 5.96875,-1.45312 1.375,0 2.60937,0.25 1.23438,0.23437 2.17188,0.84375 1.07812,0.67187 1.70312,1.90625 0.64063,1.21875 0.64063,3.04687 v 11.6875 z m -6.60937,-1.75 q 1.53125,0 3.25,-0.96875 1.71875,-0.98437 2.79687,-2.8125 v -3.46875 h -0.32812 q -1.53125,0 -3.0625,0.125 -1.53125,0.10938 -2.78125,0.5625 -1.25,0.4375 -2.04688,1.28125 -0.78125,0.82813 -0.78125,2.29688 0,1.45312 0.79688,2.21875 0.8125,0.76562 2.15625,0.76562 z m 20.71448,2.20313 q -1.90625,0 -3.32813,-0.75 -1.40625,-0.75 -2.34375,-1.98438 -0.9375,-1.23437 -1.40625,-2.84375 -0.45312,-1.625 -0.45312,-3.42187 0,-1.82813 0.5,-3.5 0.5,-1.6875 1.48437,-2.9375 1,-1.25 2.48438,-2 1.5,-0.75 3.48437,-0.75 2.5,0 4.09375,1.09375 1.60938,1.07812 2.09375,2.6875 V 22.42627 h 2.60938 v 27.62501 h -2.04688 l -0.29687,-3.0625 h -0.15625 q -0.89063,1.375 -2.60938,2.45313 -1.71875,1.0625 -4.10937,1.0625 z m 0.29687,-2.20313 q 1.79688,0 3.53125,-0.96875 1.73438,-0.98437 2.78125,-2.8125 v -5.48437 q -0.67187,-2.125 -2.26562,-3.3125 -1.57813,-1.20313 -3.5625,-1.20313 -1.29688,0 -2.32813,0.53125 -1.03125,0.51563 -1.73437,1.45313 -0.70313,0.9375 -1.10938,2.25 -0.39062,1.29687 -0.39062,2.85937 0,1.20313 0.26562,2.39063 0.26563,1.1875 0.85938,2.14062 0.59375,0.95313 1.5625,1.5625 0.98437,0.59375 2.39062,0.59375 z m 25.65125,1.75 -0.29688,-3.0625 h -0.15625 q -0.4375,0.70313 -1.1875,1.34375 -0.75,0.64063 -1.67187,1.125 -0.90625,0.48438 -1.96875,0.76563 -1.0625,0.28125 -2.10938,0.28125 -2.46875,0 -3.70312,-1.4375 -1.21875,-1.4375 -1.21875,-3.60938 0,-2.125 1.07812,-3.39062 1.07813,-1.26563 2.64063,-1.90625 1.57812,-0.64063 3.3125,-0.82813 1.73437,-0.1875 3.04687,-0.1875 h 1.67188 v -0.4375 q 0,-1.42187 -0.39063,-2.17187 -0.39062,-0.75 -1.14062,-1.26563 -0.625,-0.40625 -1.35938,-0.57812 -0.73437,-0.17188 -1.92187,-0.17188 -1.5625,0 -2.76563,0.42188 -1.1875,0.40625 -2.3125,1.07812 l -0.59375,-2.25 q 2.5,-1.45312 5.96875,-1.45312 1.375,0 2.60938,0.25 1.23437,0.23437 2.17187,0.84375 1.07813,0.67187 1.70313,1.90625 0.64062,1.21875 0.64062,3.04687 v 11.6875 z m -6.60938,-1.75 q 1.53125,0 3.25,-0.96875 1.71875,-0.98437 2.79688,-2.8125 v -3.46875 h -0.32813 q -1.53125,0 -3.0625,0.125 -1.53125,0.10938 -2.78125,0.5625 -1.25,0.4375 -2.04687,1.28125 -0.78125,0.82813 -0.78125,2.29688 0,1.45312 0.79687,2.21875 0.8125,0.76562 2.15625,0.76562 z m 15.08948,-13.67187 h -2.875 v -1.375 l 2.9375,-0.375 0.5625,-5.18752 h 1.98438 v 5.18752 h 4.03125 v 1.75 h -4.03125 v 11.90625 q 0,1.20312 0.34375,1.57812 0.35937,0.375 1.10937,0.375 0.85938,0 1.53125,-0.26562 0.67188,-0.26563 1.1875,-0.64063 l 0.53125,1.98438 q -0.64062,0.29687 -1.67187,0.59375 -1.01563,0.29687 -2.25,0.29687 -1.20313,0 -1.875,-0.34375 -0.67188,-0.32812 -1.01563,-0.875 -0.32812,-0.5625 -0.42187,-1.25 -0.0781,-0.70312 -0.0781,-1.375 z m 21.79312,15.42187 -0.29687,-3.0625 h -0.15625 q -0.4375,0.70313 -1.1875,1.34375 -0.75,0.64063 -1.67188,1.125 -0.90625,0.48438 -1.96875,0.76563 -1.0625,0.28125 -2.10937,0.28125 -2.46875,0 -3.70313,-1.4375 -1.21875,-1.4375 -1.21875,-3.60938 0,-2.125 1.07813,-3.39062 1.07812,-1.26563 2.64062,-1.90625 1.57813,-0.64063 3.3125,-0.82813 1.73438,-0.1875 3.04688,-0.1875 h 1.67187 v -0.4375 q 0,-1.42187 -0.39062,-2.17187 -0.39063,-0.75 -1.14063,-1.26563 -0.625,-0.40625 -1.35937,-0.57812 -0.73438,-0.17188 -1.92188,-0.17188 -1.5625,0 -2.76562,0.42188 -1.1875,0.40625 -2.3125,1.07812 l -0.59375,-2.25 q 2.5,-1.45312 5.96875,-1.45312 1.375,0 2.60937,0.25 1.23438,0.23437 2.17188,0.84375 1.07812,0.67187 1.70312,1.90625 0.64063,1.21875 0.64063,3.04687 v 11.6875 z m -6.60937,-1.75 q 1.53125,0 3.25,-0.96875 1.71875,-0.98437 2.79687,-2.8125 v -3.46875 h -0.32812 q -1.53125,0 -3.0625,0.125 -1.53125,0.10938 -2.78125,0.5625 -1.25,0.4375 -2.04688,1.28125 -0.78125,0.82813 -0.78125,2.29688 0,1.45312 0.79688,2.21875 0.8125,0.76562 2.15625,0.76562 z"
     id="path13"
     style="fill:#ffffff;fill-rule:nonzero" />
  <path
     d="m 0,75.36041 h 471.03833 l 37.79529,37.79529 -37.79529,37.79526 H 0 Z"
     id="path15"
     style="fill:#f6b347;fill-rule:evenodd" />
  <path
     d="m 179.04562,100.58357 q 2.90625,0 5.14063,1.01562 2.25,1 3.78125,2.73438 1.53125,1.73437 2.3125,4.01562 0.78125,2.28125 0.78125,4.78125 0,2.46875 -0.76563,4.76563 -0.76562,2.29687 -2.3125,4.0625 -1.54687,1.76562 -3.84375,2.84375 -2.29687,1.0625 -5.35937,1.0625 -2.98438,0 -5.1875,-1 -2.20313,-1.01563 -3.65625,-2.73438 -1.45313,-1.71875 -2.1875,-3.96875 -0.71875,-2.26562 -0.71875,-4.76562 0,-2.65625 0.79687,-4.98438 0.8125,-2.34375 2.32813,-4.07812 1.53125,-1.73438 3.76562,-2.73438 2.25,-1.01562 5.125,-1.01562 z m -0.1875,22.8125 q 2.42188,0 4.15625,-0.78125 1.75,-0.78125 2.84375,-2.15625 1.10938,-1.39063 1.625,-3.23438 0.51563,-1.85937 0.51563,-3.98437 0,-2.28125 -0.54688,-4.14063 -0.53125,-1.85937 -1.64062,-3.20312 -1.09375,-1.34375 -2.8125,-2.09375 -1.71875,-0.75 -4.0625,-0.75 -2.39063,0 -4.07813,0.73437 -1.67187,0.71875 -2.71875,2.04688 -1.04687,1.32812 -1.53125,3.15625 -0.48437,1.82812 -0.48437,4.03125 0,5.15625 2.23437,7.76562 2.25,2.60938 6.5,2.60938 z m 26.16194,-15.71875 q 1.90625,0 3.32813,0.75 1.42187,0.75 2.34375,1.98437 0.9375,1.21875 1.40625,2.84375 0.46875,1.625 0.46875,3.42188 0,1.85937 -0.5,3.53125 -0.5,1.65625 -1.5,2.90625 -0.98438,1.25 -2.48438,2 -1.48437,0.75 -3.46875,0.75 -2.5,0 -4.10937,-1.07813 -1.59375,-1.09375 -2.07813,-2.70312 v 13.03125 h -2.625 v -26.875 h 2.0625 l 0.29688,3.21875 h 0.14062 q 0.45313,-0.67188 1.10938,-1.35938 0.65625,-0.70312 1.51562,-1.21875 0.85938,-0.53125 1.875,-0.85937 1.03125,-0.34375 2.21875,-0.34375 z m -0.67187,2.20312 q -1.78125,0 -3.34375,0.96875 -1.54688,0.96875 -2.57813,2.79688 v 5.5 q 0.32813,1.07812 0.95313,1.90625 0.64062,0.8125 1.48437,1.40625 0.84375,0.59375 1.79688,0.90625 0.95312,0.29687 1.92187,0.29687 1.29688,0 2.26563,-0.51562 0.98437,-0.53125 1.625,-1.46875 0.65625,-0.9375 0.98437,-2.15625 0.34375,-1.23438 0.34375,-2.65625 0,-1.34375 -0.3125,-2.60938 -0.3125,-1.28125 -0.98437,-2.25 -0.67188,-0.96875 -1.70313,-1.54687 -1.03125,-0.57813 -2.45312,-0.57813 z m 20.60437,-2.20312 q 3.29687,0 5.07812,1.67187 1.79688,1.65625 1.79688,4.67188 0,0.64062 -0.0781,1.29687 -0.0781,0.65625 -0.25,0.95313 h -12.59375 v 0.375 q 0,1.40625 0.375,2.71875 0.375,1.3125 1.125,2.32812 0.75,1 1.89063,1.59375 1.14062,0.59375 2.70312,0.59375 0.89063,0 1.75,-0.20312 0.85938,-0.20313 1.64063,-0.51563 0.78125,-0.32812 1.45312,-0.70312 0.67188,-0.375 1.20313,-0.75 l 0.45312,2.14062 q -0.5,0.29688 -1.20312,0.65625 -0.70313,0.34375 -1.5625,0.64063 -0.85938,0.29687 -1.89063,0.5 -1.03125,0.21875 -2.14062,0.21875 -2.09375,0 -3.70313,-0.73438 -1.59375,-0.73437 -2.6875,-1.98437 -1.07812,-1.25 -1.64062,-2.89063 -0.5625,-1.64062 -0.5625,-3.42187 0,-1.84375 0.57812,-3.5 0.57813,-1.65625 1.70313,-2.92188 1.125,-1.28125 2.78125,-2 1.65625,-0.73437 3.78125,-0.73437 z m -0.10938,2.09375 q -2.45312,0 -3.82812,1.29687 -1.35938,1.28125 -1.84375,3.21875 h 10.1875 q 0.0469,-0.1875 0.0469,-0.32812 0,-0.15625 0,-0.34375 0,-0.9375 -0.375,-1.65625 -0.375,-0.73438 -1.01562,-1.21875 -0.625,-0.48438 -1.45313,-0.71875 -0.8125,-0.25 -1.71875,-0.25 z m 20.98621,1.23437 q -0.59375,-0.34375 -1.20313,-0.54687 -0.59375,-0.20313 -1.15625,-0.20313 -0.73437,0 -1.40625,0.42188 -0.67187,0.40625 -1.23437,1.10937 -0.5625,0.70313 -1,1.64063 -0.42188,0.9375 -0.64063,1.9375 v 10.04687 h -2.625 v -17.17187 h 2.0625 l 0.29688,3.76562 h 0.14062 q 0.26563,-0.85937 0.6875,-1.64062 0.4375,-0.78125 1.04688,-1.375 0.625,-0.59375 1.40625,-0.95313 0.78125,-0.35937 1.79687,-0.35937 0.70313,0 1.48438,0.25 0.78125,0.23437 1.125,0.60937 z m 14.96681,14.40625 -0.29688,-3.0625 h -0.15625 q -0.4375,0.70313 -1.1875,1.34375 -0.75,0.64063 -1.67187,1.125 -0.90625,0.48438 -1.96875,0.76563 -1.0625,0.28125 -2.10938,0.28125 -2.46875,0 -3.70312,-1.4375 -1.21875,-1.4375 -1.21875,-3.60938 0,-2.125 1.07812,-3.39062 1.07813,-1.26563 2.64063,-1.90625 1.57812,-0.64063 3.3125,-0.82813 1.73437,-0.1875 3.04687,-0.1875 h 1.67188 v -0.4375 q 0,-1.42187 -0.39063,-2.17187 -0.39062,-0.75 -1.14062,-1.26563 -0.625,-0.40625 -1.35938,-0.57812 -0.73437,-0.17188 -1.92187,-0.17188 -1.5625,0 -2.76563,0.42188 -1.1875,0.40625 -2.3125,1.07812 l -0.59375,-2.25 q 2.5,-1.45312 5.96875,-1.45312 1.375,0 2.60938,0.25 1.23437,0.23437 2.17187,0.84375 1.07813,0.67187 1.70313,1.90625 0.64062,1.21875 0.64062,3.04687 v 11.6875 z m -6.60938,-1.75 q 1.53125,0 3.25,-0.96875 1.71875,-0.98437 2.79688,-2.8125 v -3.46875 h -0.32813 q -1.53125,0 -3.0625,0.125 -1.53125,0.10938 -2.78125,0.5625 -1.25,0.4375 -2.04687,1.28125 -0.78125,0.82813 -0.78125,2.29688 0,1.45312 0.79687,2.21875 0.8125,0.76562 2.15625,0.76562 z m 15.08948,-13.67187 h -2.875 v -1.375 l 2.9375,-0.375 0.5625,-5.1875 h 1.98438 v 5.1875 h 4.03125 v 1.75 h -4.03125 v 11.90625 q 0,1.20312 0.34375,1.57812 0.35937,0.375 1.10937,0.375 0.85938,0 1.53125,-0.26562 0.67188,-0.26563 1.1875,-0.64063 l 0.53125,1.98438 q -0.64062,0.29687 -1.67187,0.59375 -1.01563,0.29687 -2.25,0.29687 -1.20313,0 -1.875,-0.34375 -0.67188,-0.32812 -1.01563,-0.875 -0.32812,-0.5625 -0.42187,-1.25 -0.0781,-0.70312 -0.0781,-1.375 z m 13.51184,15.42187 h -2.625 v -17.17187 h 2.625 z m -3.17187,-23.4375 q 0,-0.75 0.53125,-1.34375 0.54687,-0.60937 1.32812,-0.60937 0.75,0 1.34375,0.60937 0.59375,0.59375 0.59375,1.34375 0,0.78125 -0.59375,1.32813 -0.59375,0.53125 -1.34375,0.53125 -0.78125,0 -1.32812,-0.53125 -0.53125,-0.54688 -0.53125,-1.32813 z m 21.04559,23.4375 v -11.34375 q 0,-2.25 -1.01562,-3.21875 -1,-0.96875 -2.5625,-0.96875 -0.9375,0 -1.85938,0.29688 -0.90625,0.29687 -1.6875,0.875 -0.78125,0.57812 -1.39062,1.42187 -0.59375,0.84375 -0.92188,1.92188 v 11.01562 h -2.625 v -17.17187 h 2.0625 l 0.29688,3.21875 h 0.14062 q 0.48438,-1.57813 2.15625,-2.67188 1.6875,-1.10937 4.20313,-1.10937 1.1875,0 2.25,0.32812 1.0625,0.3125 1.84375,1.03125 0.78125,0.70313 1.25,1.85938 0.46875,1.15625 0.46875,2.82812 v 11.6875 z m 10.64075,-5.29687 q -1.79688,-0.71875 -2.57813,-2.26563 -0.78125,-1.54687 -0.78125,-3.34375 0,-1.45312 0.48438,-2.67187 0.48437,-1.23438 1.39062,-2.17188 0.92188,-0.9375 2.20313,-1.45312 1.29687,-0.53125 2.9375,-0.53125 0.96875,0 1.92187,0.1875 0.95313,0.1875 1.65625,0.5625 1.57813,-0.0312 2.9375,-0.17188 1.35938,-0.15625 2.5625,-0.5 l 0.17188,0.15625 -0.25,2.04688 -0.1875,0.1875 -3.40625,-0.15625 -0.0312,0.125 q 0.96875,0.78125 1.40625,2.04687 0.45312,1.26563 0.45312,2.46875 0,1.21875 -0.46875,2.34375 -0.45312,1.125 -1.35937,1.96875 -0.89063,0.82813 -2.21875,1.34375 -1.32813,0.5 -3.03125,0.5 -0.42188,0 -0.71875,-0.0156 -0.29688,-0.0312 -0.5625,-0.0312 -0.78125,0.26562 -1.17188,0.71875 -0.39062,0.4375 -0.39062,0.75 0,0.35937 0.5,0.64062 0.5,0.28125 1.625,0.39063 l 3.625,0.375 q 1.23437,0.10937 2.29687,0.51562 1.0625,0.39063 1.84375,1.01563 0.78125,0.60937 1.25,1.48437 0.46875,0.875 0.46875,1.98438 0,1.09375 -0.48437,2.21875 -0.48438,1.14062 -1.45313,1.96875 -0.96875,0.82812 -2.6875,1.34375 -1.71875,0.51562 -3.96875,0.51562 -1.89062,0 -3.40625,-0.39062 -1.51562,-0.39063 -2.54687,-1.07813 -1.01563,-0.6875 -1.5625,-1.59375 -0.54688,-0.89062 -0.54688,-1.89062 0,-0.75 0.29688,-1.48438 0.3125,-0.71875 0.79687,-1.35937 0.48438,-0.625 1.125,-1.125 0.65625,-0.48438 1.375,-0.73438 v -0.15625 q -1.53125,-0.70312 -1.53125,-1.9375 0,-0.78125 0.57813,-1.40625 0.57812,-0.64062 1.4375,-1.25 z m 3.8125,-1.20313 q 1.03125,0 1.82812,-0.34375 0.8125,-0.35937 1.375,-0.9375 0.5625,-0.57812 0.85938,-1.35937 0.29687,-0.78125 0.29687,-1.64063 0,-0.85937 -0.29687,-1.75 -0.29688,-0.90625 -0.875,-1.625 -0.57813,-0.73437 -1.4375,-1.1875 -0.85938,-0.45312 -1.98438,-0.45312 -1.07812,0 -1.89062,0.4375 -0.79688,0.42187 -1.34375,1.09375 -0.53125,0.67187 -0.79688,1.5 -0.26562,0.82812 -0.26562,1.64062 0,0.85938 0.28125,1.6875 0.28125,0.8125 0.85937,1.46875 0.57813,0.65625 1.42188,1.0625 0.84375,0.40625 1.96875,0.40625 z m -1.20313,6.6875 q -0.85937,0 -1.59375,0.32813 -0.71875,0.34375 -1.26562,0.85937 -0.53125,0.53125 -0.85938,1.17188 -0.3125,0.65625 -0.3125,1.29687 0,1.42188 1.51563,2.25 1.51562,0.84375 4.07812,0.84375 1.23438,0 2.29688,-0.20312 1.0625,-0.20313 1.82812,-0.64063 0.76563,-0.42187 1.21875,-1.04687 0.45313,-0.60938 0.45313,-1.46875 0,-1.67188 -1.8125,-2.40625 -1.8125,-0.71875 -5.54688,-0.98438 z"
     id="path17"
     style="fill:#ffffff;fill-rule:nonzero" />
  <path
     d="m 0,150.49083 h 374.9891 l 37.84427,37.84424 -37.84427,37.84427 H 0 Z"
     id="path19"
     style="fill:#9fbadd;fill-rule:evenodd" />
  <path
     d="m 145.49669,198.54421 q -1.67188,1.10938 -3.82813,1.8125 -2.14062,0.6875 -4.79687,0.6875 -3.0625,0 -5.29688,-1 -2.23437,-1.01562 -3.71874,-2.73437 -1.46875,-1.71875 -2.1875,-3.96875 -0.70313,-2.26563 -0.70313,-4.8125 0,-2.64063 0.78125,-4.95313 0.79688,-2.32812 2.34375,-4.0625 1.54687,-1.73437 3.84375,-2.73437 2.29687,-1.01563 5.35937,-1.01563 2.15625,0 4.20313,0.4375 2.0625,0.42188 3.67187,1.17188 l -0.79687,2.6875 q -1.1875,-0.78125 -3.07813,-1.29688 -1.875,-0.53125 -4.23437,-0.53125 -2.5,0 -4.21875,0.73438 -1.71875,0.71875 -2.78125,2.03125 -1.0625,1.29687 -1.53125,3.15625 -0.46875,1.84375 -0.46875,4.07812 0,5.125 2.23437,7.73438 2.25,2.60937 6.6875,2.60937 1.65625,0 3.09375,-0.32812 1.4375,-0.34375 2.625,-0.85938 v -6.95312 h 2.79688 z m 14.33887,-12.35937 q -0.59375,-0.34375 -1.20313,-0.54688 -0.59375,-0.20312 -1.15625,-0.20312 -0.73437,0 -1.40625,0.42187 -0.67187,0.40625 -1.23437,1.10938 -0.5625,0.70312 -1,1.64062 -0.42188,0.9375 -0.64063,1.9375 v 10.04688 h -2.625 v -17.17188 h 2.0625 l 0.29688,3.76563 h 0.14062 q 0.26563,-0.85938 0.6875,-1.64063 0.4375,-0.78125 1.04688,-1.375 0.625,-0.59375 1.40625,-0.95312 0.78125,-0.35938 1.79687,-0.35938 0.70313,0 1.48438,0.25 0.78125,0.23438 1.125,0.60938 z m 11.2341,-3.32813 q 2.28125,0 3.92187,0.76563 1.64063,0.76562 2.70313,2.0625 1.0625,1.28125 1.5625,2.95312 0.51562,1.65625 0.51562,3.48438 0,1.82812 -0.51562,3.45312 -0.5,1.625 -1.54688,2.84375 -1.04687,1.20313 -2.67187,1.92188 -1.625,0.70312 -3.82813,0.70312 -2.26562,0 -3.9375,-0.75 -1.65625,-0.75 -2.73437,-2 -1.07813,-1.25 -1.60938,-2.89062 -0.51562,-1.64063 -0.51562,-3.46875 0,-1.82813 0.51562,-3.46875 0.53125,-1.65625 1.59375,-2.90625 1.0625,-1.25 2.70313,-1.96875 1.64062,-0.73438 3.84375,-0.73438 z m 0.10937,16.20313 q 1.5,0 2.59375,-0.5625 1.10938,-0.5625 1.82813,-1.5 0.73437,-0.95313 1.0625,-2.20313 0.34375,-1.26562 0.34375,-2.64062 0,-1.42188 -0.35938,-2.71875 -0.35937,-1.3125 -1.10937,-2.29688 -0.73438,-1 -1.875,-1.59375 -1.14063,-0.59375 -2.70313,-0.59375 -1.53125,0 -2.625,0.5625 -1.07812,0.5625 -1.79687,1.5 -0.70313,0.92188 -1.04688,2.17188 -0.32812,1.25 -0.32812,2.64062 0,1.40625 0.35937,2.71875 0.35938,1.3125 1.07813,2.32813 0.73437,1 1.875,1.59375 1.14062,0.59375 2.70312,0.59375 z m 15.7224,-15.64063 v 11.34375 q 0,1.15625 0.26562,1.95313 0.28125,0.78125 0.75,1.25 0.46875,0.45312 1.125,0.67187 0.65625,0.20313 1.4375,0.20313 0.9375,0 1.84375,-0.28125 0.92188,-0.28125 1.70313,-0.84375 0.78125,-0.5625 1.375,-1.375 0.60937,-0.82813 0.9375,-1.90625 v -11.01563 h 2.60937 v 17.17188 h -2.04687 l -0.29688,-3.20313 h -0.15625 q -0.48437,1.5625 -2.17187,2.60938 -1.67188,1.04687 -4.17188,1.04687 -1.1875,0 -2.26562,-0.3125 -1.0625,-0.29687 -1.84375,-0.98437 -0.78125,-0.6875 -1.25,-1.82813 -0.46875,-1.14062 -0.46875,-2.8125 v -11.6875 z m 27.08781,-0.5625 q 1.90625,0 3.32813,0.75 1.42187,0.75 2.34375,1.98438 0.9375,1.21875 1.40625,2.84375 0.46875,1.625 0.46875,3.42187 0,1.85938 -0.5,3.53125 -0.5,1.65625 -1.5,2.90625 -0.98438,1.25 -2.48438,2 -1.48437,0.75 -3.46875,0.75 -2.5,0 -4.10937,-1.07812 -1.59375,-1.09375 -2.07813,-2.70313 v 13.03125 h -2.625 v -26.875 h 2.0625 l 0.29688,3.21875 h 0.14062 q 0.45313,-0.67187 1.10938,-1.35937 0.65625,-0.70313 1.51562,-1.21875 0.85938,-0.53125 1.875,-0.85938 1.03125,-0.34375 2.21875,-0.34375 z m -0.67187,2.20313 q -1.78125,0 -3.34375,0.96875 -1.54688,0.96875 -2.57813,2.79687 v 5.5 q 0.32813,1.07813 0.95313,1.90625 0.64062,0.8125 1.48437,1.40625 0.84375,0.59375 1.79688,0.90625 0.95312,0.29688 1.92187,0.29688 1.29688,0 2.26563,-0.51563 0.98437,-0.53125 1.625,-1.46875 0.65625,-0.9375 0.98437,-2.15625 0.34375,-1.23437 0.34375,-2.65625 0,-1.34375 -0.3125,-2.60937 -0.3125,-1.28125 -0.98437,-2.25 -0.67188,-0.96875 -1.70313,-1.54688 -1.03125,-0.57812 -2.45312,-0.57812 z m 15.54187,15.53125 h -2.625 v -17.17188 h 2.625 z m -3.17188,-23.4375 q 0,-0.75 0.53125,-1.34375 0.54688,-0.60938 1.32813,-0.60938 0.75,0 1.34375,0.60938 0.59375,0.59375 0.59375,1.34375 0,0.78125 -0.59375,1.32812 -0.59375,0.53125 -1.34375,0.53125 -0.78125,0 -1.32813,-0.53125 -0.53125,-0.54687 -0.53125,-1.32812 z m 21.04557,23.4375 v -11.34375 q 0,-2.25 -1.01563,-3.21875 -1,-0.96875 -2.5625,-0.96875 -0.9375,0 -1.85937,0.29687 -0.90625,0.29688 -1.6875,0.875 -0.78125,0.57813 -1.39063,1.42188 -0.59375,0.84375 -0.92187,1.92187 v 11.01563 h -2.625 v -17.17188 h 2.0625 l 0.29687,3.21875 h 0.14063 q 0.48437,-1.57812 2.15625,-2.67187 1.6875,-1.10938 4.20312,-1.10938 1.1875,0 2.25,0.32813 1.0625,0.3125 1.84375,1.03125 0.78125,0.70312 1.25,1.85937 0.46875,1.15625 0.46875,2.82813 v 11.6875 z m 10.64076,-5.29688 q -1.79688,-0.71875 -2.57813,-2.26562 -0.78125,-1.54688 -0.78125,-3.34375 0,-1.45313 0.48438,-2.67188 0.48437,-1.23437 1.39062,-2.17187 0.92188,-0.9375 2.20313,-1.45313 1.29687,-0.53125 2.9375,-0.53125 0.96875,0 1.92187,0.1875 0.95313,0.1875 1.65625,0.5625 1.57813,-0.0312 2.9375,-0.17187 1.35938,-0.15625 2.5625,-0.5 l 0.17188,0.15625 -0.25,2.04687 -0.1875,0.1875 -3.40625,-0.15625 -0.0312,0.125 q 0.96875,0.78125 1.40625,2.04688 0.45312,1.26562 0.45312,2.46875 0,1.21875 -0.46875,2.34375 -0.45312,1.125 -1.35937,1.96875 -0.89063,0.82812 -2.21875,1.34375 -1.32813,0.5 -3.03125,0.5 -0.42188,0 -0.71875,-0.0156 -0.29688,-0.0312 -0.5625,-0.0312 -0.78125,0.26563 -1.17188,0.71875 -0.39062,0.4375 -0.39062,0.75 0,0.35938 0.5,0.64063 0.5,0.28125 1.625,0.39062 l 3.625,0.375 q 1.23437,0.10938 2.29687,0.51563 1.0625,0.39062 1.84375,1.01562 0.78125,0.60938 1.25,1.48438 0.46875,0.875 0.46875,1.98437 0,1.09375 -0.48437,2.21875 -0.48438,1.14063 -1.45313,1.96875 -0.96875,0.82813 -2.6875,1.34375 -1.71875,0.51563 -3.96875,0.51563 -1.89062,0 -3.40625,-0.39063 -1.51562,-0.39062 -2.54687,-1.07812 -1.01563,-0.6875 -1.5625,-1.59375 -0.54688,-0.89063 -0.54688,-1.89063 0,-0.75 0.29688,-1.48437 0.3125,-0.71875 0.79687,-1.35938 0.48438,-0.625 1.125,-1.125 0.65625,-0.48437 1.375,-0.73437 v -0.15625 q -1.53125,-0.70313 -1.53125,-1.9375 0,-0.78125 0.57813,-1.40625 0.57812,-0.64063 1.4375,-1.25 z m 3.8125,-1.20312 q 1.03125,0 1.82812,-0.34375 0.8125,-0.35938 1.375,-0.9375 0.5625,-0.57813 0.85938,-1.35938 0.29687,-0.78125 0.29687,-1.64062 0,-0.85938 -0.29687,-1.75 -0.29688,-0.90625 -0.875,-1.625 -0.57813,-0.73438 -1.4375,-1.1875 -0.85938,-0.45313 -1.98438,-0.45313 -1.07812,0 -1.89062,0.4375 -0.79688,0.42188 -1.34375,1.09375 -0.53125,0.67188 -0.79688,1.5 -0.26562,0.82813 -0.26562,1.64063 0,0.85937 0.28125,1.6875 0.28125,0.8125 0.85937,1.46875 0.57813,0.65625 1.42188,1.0625 0.84375,0.40625 1.96875,0.40625 z m -1.20313,6.6875 q -0.85937,0 -1.59375,0.32812 -0.71875,0.34375 -1.26562,0.85938 -0.53125,0.53125 -0.85938,1.17187 -0.3125,0.65625 -0.3125,1.29688 0,1.42187 1.51563,2.25 1.51562,0.84375 4.07812,0.84375 1.23438,0 2.29688,-0.20313 1.0625,-0.20312 1.82812,-0.64062 0.76563,-0.42188 1.21875,-1.04688 0.45313,-0.60937 0.45313,-1.46875 0,-1.67187 -1.8125,-2.40625 -1.8125,-0.71875 -5.54688,-0.98437 z"
     id="path21"
     style="fill:#ffffff;fill-rule:nonzero" />
  <path
     d="m 0,226.17941 h 278.98914 l 37.84427,37.84424 -37.84427,37.84427 H 0 Z"
     id="path23"
     style="fill:#cf604e;fill-rule:evenodd" />
  <path
     d="m 83.589554,251.63905 h 3.171875 l 9.375,21.5 8.546871,-21.5 h 2.98438 l -9.781251,24.64062 h -3.546875 z m 29.836256,24.64062 h -2.625 V 259.1078 h 2.625 z m -3.17187,-23.4375 q 0,-0.75 0.53125,-1.34375 0.54687,-0.60937 1.32812,-0.60937 0.75,0 1.34375,0.60937 0.59375,0.59375 0.59375,1.34375 0,0.78125 -0.59375,1.32813 -0.59375,0.53125 -1.34375,0.53125 -0.78125,0 -1.32812,-0.53125 -0.53125,-0.54688 -0.53125,-1.32813 z m 16.67056,5.70313 q 3.29688,0 5.07813,1.67187 1.79687,1.65625 1.79687,4.67188 0,0.64062 -0.0781,1.29687 -0.0781,0.65625 -0.25,0.95313 h -12.59375 v 0.375 q 0,1.40625 0.375,2.71875 0.375,1.3125 1.125,2.32812 0.75,1 1.89062,1.59375 1.14063,0.59375 2.70313,0.59375 0.89062,0 1.75,-0.20312 0.85937,-0.20313 1.64062,-0.51563 0.78125,-0.32812 1.45313,-0.70312 0.67187,-0.375 1.20312,-0.75 l 0.45313,2.14062 q -0.5,0.29688 -1.20313,0.65625 -0.70312,0.34375 -1.5625,0.64063 -0.85937,0.29687 -1.89062,0.5 -1.03125,0.21875 -2.14063,0.21875 -2.09375,0 -3.70312,-0.73438 -1.59375,-0.73437 -2.6875,-1.98437 -1.07813,-1.25 -1.64063,-2.89063 -0.5625,-1.64062 -0.5625,-3.42187 0,-1.84375 0.57813,-3.5 0.57812,-1.65625 1.70312,-2.92188 1.125,-1.28125 2.78125,-2 1.65625,-0.73437 3.78125,-0.73437 z m -0.10937,2.09375 q -2.45313,0 -3.82813,1.29687 -1.35937,1.28125 -1.84375,3.21875 h 10.1875 q 0.0469,-0.1875 0.0469,-0.32812 0,-0.15625 0,-0.34375 0,-0.9375 -0.375,-1.65625 -0.375,-0.73438 -1.01563,-1.21875 -0.625,-0.48438 -1.45312,-0.71875 -0.8125,-0.25 -1.71875,-0.25 z m 32.40807,15.64062 h -3.54687 l -4.67188,-13.4375 -4.92187,13.4375 h -3.54688 l -6.3125,-17.17187 h 2.76563 l 5.375,14.64062 5.375,-14.64062 h 2.76562 l 5.03125,14.64062 5.71875,-14.64062 h 2.64063 z m 12.62133,0 h -2.625 V 259.1078 h 2.625 z m -3.17188,-23.4375 q 0,-0.75 0.53125,-1.34375 0.54688,-0.60937 1.32813,-0.60937 0.75,0 1.34375,0.60937 0.59375,0.59375 0.59375,1.34375 0,0.78125 -0.59375,1.32813 -0.59375,0.53125 -1.34375,0.53125 -0.78125,0 -1.32813,-0.53125 -0.53125,-0.54688 -0.53125,-1.32813 z m 21.04557,23.4375 v -11.34375 q 0,-2.25 -1.01563,-3.21875 -1,-0.96875 -2.5625,-0.96875 -0.9375,0 -1.85937,0.29688 -0.90625,0.29687 -1.6875,0.875 -0.78125,0.57812 -1.39063,1.42187 -0.59375,0.84375 -0.92187,1.92188 v 11.01562 h -2.625 V 259.1078 h 2.0625 l 0.29687,3.21875 h 0.14063 q 0.48437,-1.57813 2.15625,-2.67188 1.6875,-1.10937 4.20312,-1.10937 1.1875,0 2.25,0.32812 1.0625,0.3125 1.84375,1.03125 0.78125,0.70313 1.25,1.85938 0.46875,1.15625 0.46875,2.82812 v 11.6875 z m 10.64076,-5.29687 q -1.79688,-0.71875 -2.57813,-2.26563 -0.78125,-1.54687 -0.78125,-3.34375 0,-1.45312 0.48438,-2.67187 0.48437,-1.23438 1.39062,-2.17188 0.92188,-0.9375 2.20313,-1.45312 1.29687,-0.53125 2.9375,-0.53125 0.96875,0 1.92187,0.1875 0.95313,0.1875 1.65625,0.5625 1.57813,-0.0312 2.9375,-0.17188 1.35938,-0.15625 2.5625,-0.5 l 0.17188,0.15625 -0.25,2.04688 -0.1875,0.1875 -3.40625,-0.15625 -0.0312,0.125 q 0.96875,0.78125 1.40625,2.04687 0.45312,1.26563 0.45312,2.46875 0,1.21875 -0.46875,2.34375 -0.45312,1.125 -1.35937,1.96875 -0.89063,0.82813 -2.21875,1.34375 -1.32813,0.5 -3.03125,0.5 -0.42188,0 -0.71875,-0.0156 -0.29688,-0.0312 -0.5625,-0.0312 -0.78125,0.26562 -1.17188,0.71875 -0.39062,0.4375 -0.39062,0.75 0,0.35937 0.5,0.64062 0.5,0.28125 1.625,0.39063 l 3.625,0.375 q 1.23437,0.10937 2.29687,0.51562 1.0625,0.39063 1.84375,1.01563 0.78125,0.60937 1.25,1.48437 0.46875,0.875 0.46875,1.98438 0,1.09375 -0.48437,2.21875 -0.48438,1.14062 -1.45313,1.96875 -0.96875,0.82812 -2.6875,1.34375 -1.71875,0.51562 -3.96875,0.51562 -1.89062,0 -3.40625,-0.39062 -1.51562,-0.39063 -2.54687,-1.07813 -1.01563,-0.6875 -1.5625,-1.59375 -0.54688,-0.89062 -0.54688,-1.89062 0,-0.75 0.29688,-1.48438 0.3125,-0.71875 0.79687,-1.35937 0.48438,-0.625 1.125,-1.125 0.65625,-0.48438 1.375,-0.73438 v -0.15625 q -1.53125,-0.70312 -1.53125,-1.9375 0,-0.78125 0.57813,-1.40625 0.57812,-0.64062 1.4375,-1.25 z m 3.8125,-1.20313 q 1.03125,0 1.82812,-0.34375 0.8125,-0.35937 1.375,-0.9375 0.5625,-0.57812 0.85938,-1.35937 0.29687,-0.78125 0.29687,-1.64063 0,-0.85937 -0.29687,-1.75 -0.29688,-0.90625 -0.875,-1.625 -0.57813,-0.73437 -1.4375,-1.1875 -0.85938,-0.45312 -1.98438,-0.45312 -1.07812,0 -1.89062,0.4375 -0.79688,0.42187 -1.34375,1.09375 -0.53125,0.67187 -0.79688,1.5 -0.26562,0.82812 -0.26562,1.64062 0,0.85938 0.28125,1.6875 0.28125,0.8125 0.85937,1.46875 0.57813,0.65625 1.42188,1.0625 0.84375,0.40625 1.96875,0.40625 z m -1.20313,6.6875 q -0.85937,0 -1.59375,0.32813 -0.71875,0.34375 -1.26562,0.85937 -0.53125,0.53125 -0.85938,1.17188 -0.3125,0.65625 -0.3125,1.29687 0,1.42188 1.51563,2.25 1.51562,0.84375 4.07812,0.84375 1.23438,0 2.29688,-0.20312 1.0625,-0.20313 1.82812,-0.64063 0.76563,-0.42187 1.21875,-1.04687 0.45313,-0.60938 0.45313,-1.46875 0,-1.67188 -1.8125,-2.40625 -1.8125,-0.71875 -5.54688,-0.98438 z"
     id="path25"
     style="fill:#ffffff;fill-rule:nonzero" />
  <path
     d="m 1305.4999,0 h -279.0381 l -37.79523,37.79527 37.79523,37.79529 h 279.0381 z"
     id="path27"
     style="fill:#cf604e;fill-rule:evenodd" />
  <path
     d="m 1112.511,25.41064 h 0.1406 q 1.2032,-0.0781 2.6563,-0.125 1.4531,-0.0625 2.75,-0.0625 2.0156,0 3.6562,0.51562 1.6563,0.5 2.8282,1.51563 1.1718,1 1.8281,2.48437 0.6562,1.46875 0.6562,3.40627 0,1.5625 -0.5312,2.95313 -0.5156,1.375 -1.5625,2.42187 -1.0469,1.04688 -2.6719,1.67188 -1.625,0.60937 -3.7812,0.60937 -1.7969,0 -3.1719,-0.125 v 9.375 h -2.7969 z m 5.7813,2.28125 q -0.7813,0 -1.5469,0.0156 -0.7656,0.0156 -1.4375,0.0625 v 10.45315 q 1.3437,0.10937 3.0625,0.10937 2.75,0 4.1562,-1.39062 1.4063,-1.40625 1.4063,-4.09375 0,-1.15627 -0.3125,-2.1094 -0.2969,-0.95312 -0.9531,-1.625 -0.6407,-0.67187 -1.7344,-1.04687 -1.0781,-0.375 -2.6406,-0.375 z m 20.118,4.62502 q 2.2812,0 3.9219,0.76562 1.6406,0.76563 2.7031,2.0625 1.0625,1.28125 1.5625,2.95313 0.5156,1.65625 0.5156,3.48437 0,1.82813 -0.5156,3.45313 -0.5,1.625 -1.5469,2.84375 -1.0469,1.20312 -2.6719,1.92187 -1.625,0.70313 -3.8281,0.70313 -2.2656,0 -3.9375,-0.75 -1.6562,-0.75 -2.7344,-2 -1.0781,-1.25 -1.6093,-2.89063 -0.5157,-1.64062 -0.5157,-3.46875 0,-1.82812 0.5157,-3.46875 0.5312,-1.65625 1.5937,-2.90625 1.0625,-1.25 2.7031,-1.96875 1.6407,-0.73437 3.8438,-0.73437 z m 0.1094,16.20312 q 1.5,0 2.5937,-0.5625 1.1094,-0.5625 1.8281,-1.5 0.7344,-0.95312 1.0625,-2.20312 0.3438,-1.26563 0.3438,-2.64063 0,-1.42187 -0.3594,-2.71875 -0.3594,-1.3125 -1.1094,-2.29687 -0.7343,-1 -1.875,-1.59375 -1.1406,-0.59375 -2.7031,-0.59375 -1.5312,0 -2.625,0.5625 -1.0781,0.5625 -1.7969,1.5 -0.7031,0.92187 -1.0468,2.17187 -0.3282,1.25 -0.3282,2.64063 0,1.40625 0.3594,2.71875 0.3594,1.3125 1.0781,2.32812 0.7344,1 1.875,1.59375 1.1407,0.59375 2.7032,0.59375 z m 16.1286,1.53125 h -2.6093 V 22.42627 h 2.6093 z m 8.6654,0 h -2.625 V 32.87941 h 2.625 z m -3.1718,-23.43751 q 0,-0.75 0.5312,-1.34375 0.5469,-0.60938 1.3281,-0.60938 0.75,0 1.3438,0.60938 0.5937,0.59375 0.5937,1.34375 0,0.78125 -0.5937,1.32812 -0.5938,0.53125 -1.3438,0.53125 -0.7812,0 -1.3281,-0.53125 -0.5312,-0.54687 -0.5312,-1.32812 z m 22.3892,9.40626 q -0.8593,-0.64062 -2.4687,-1.14062 -1.5938,-0.5 -3.2031,-0.5 -1.6407,0 -2.7813,0.5625 -1.1406,0.54687 -1.8906,1.48437 -0.75,0.9375 -1.0938,2.15625 -0.3281,1.20313 -0.3281,2.51563 0,1.45312 0.4063,2.79687 0.4218,1.34375 1.2187,2.35938 0.8125,1 1.9844,1.59375 1.1719,0.59375 2.75,0.59375 1.4844,0 3.0625,-0.625 1.5937,-0.64063 2.6406,-1.60938 l 0.5313,2.42188 q -1.0469,0.67187 -2.8594,1.28125 -1.8125,0.59375 -3.8594,0.59375 -2.1719,0 -3.7969,-0.75 -1.625,-0.75 -2.6875,-2 -1.0625,-1.25 -1.6093,-2.90625 -0.5313,-1.67188 -0.5313,-3.53125 0,-1.79688 0.5,-3.42188 0.5,-1.625 1.5781,-2.875 1.0938,-1.25 2.7657,-1.96875 1.6875,-0.73437 4.0312,-0.73437 1.7969,0 3.5156,0.42187 1.7188,0.40625 2.7657,1.07813 z m 13.3986,14.1875 q -0.5625,1.1875 -1.3437,2.8125 -0.7813,1.625 -1.875,3.07813 -1.0782,1.45312 -2.5313,2.48437 -1.4531,1.03125 -3.2812,1.03125 -0.2969,0 -0.4532,-0.0312 -0.1406,-0.0156 -0.3281,-0.0937 l -0.4844,-2.45312 q 0.1094,0.0312 0.25,0.0625 0.1563,0.0469 0.5313,0.0469 0.75,0 1.3906,-0.15625 0.6563,-0.14062 1.2969,-0.59375 1.3125,-0.9375 2.375,-2.73437 1.0625,-1.78125 1.9219,-4.17188 l -8.5938,-16.60937 h 3.1094 l 6.8281,14.29687 6.1094,-14.29687 h 2.9531 z"
     id="path29"
     style="fill:#ffffff;fill-rule:nonzero" />
  <path
     d="M 1305.4994,74.99821 H 930.46144 l -37.79529,37.79529 37.79529,37.79526 h 375.03796 z"
     id="path31"
     style="fill:#9fbadd;fill-rule:evenodd" />
  <path
     d="m 1008.9262,111.04948 h 13.2812 v -10.64063 h 2.7969 v 24.64063 h -2.7969 v -11.39063 h -13.2812 v 11.39063 h -2.7969 v -24.64063 h 2.7969 z m 29.8215,-3.73438 q 2.2812,0 3.9218,0.76563 1.6407,0.76562 2.7032,2.0625 1.0625,1.28125 1.5625,2.95312 0.5156,1.65625 0.5156,3.48438 0,1.82812 -0.5156,3.45312 -0.5,1.625 -1.5469,2.84375 -1.0469,1.20313 -2.6719,1.92188 -1.625,0.70312 -3.8281,0.70312 -2.2656,0 -3.9375,-0.75 -1.6563,-0.75 -2.7344,-2 -1.0781,-1.25 -1.6094,-2.89062 -0.5156,-1.64063 -0.5156,-3.46875 0,-1.82813 0.5156,-3.46875 0.5313,-1.65625 1.5938,-2.90625 1.0625,-1.25 2.7031,-1.96875 1.6406,-0.73438 3.8438,-0.73438 z m 0.1093,16.20313 q 1.5,0 2.5938,-0.5625 1.1094,-0.5625 1.8281,-1.5 0.7344,-0.95313 1.0625,-2.20313 0.3438,-1.26562 0.3438,-2.64062 0,-1.42188 -0.3594,-2.71875 -0.3594,-1.3125 -1.1094,-2.29688 -0.7344,-1 -1.875,-1.59375 -1.1406,-0.59375 -2.7031,-0.59375 -1.5313,0 -2.625,0.5625 -1.0781,0.5625 -1.7969,1.5 -0.7031,0.92188 -1.0469,2.17188 -0.3281,1.25 -0.3281,2.64062 0,1.40625 0.3594,2.71875 0.3594,1.3125 1.0781,2.32813 0.7344,1 1.875,1.59375 1.1406,0.59375 2.7031,0.59375 z m 33.8232,1.53125 h -3.5469 l -4.6719,-13.4375 -4.9219,13.4375 h -3.5468 l -6.3125,-17.17188 h 2.7656 l 5.375,14.64063 5.375,-14.64063 h 2.7656 l 5.0313,14.64063 5.7187,-14.64063 h 2.6406 z m 18.5572,-15.42188 h -2.875 v -1.375 l 2.9375,-0.375 0.5625,-5.1875 h 1.9844 v 5.1875 h 4.0312 v 1.75 h -4.0312 v 11.90625 q 0,1.20313 0.3437,1.57813 0.3594,0.375 1.1094,0.375 0.8594,0 1.5313,-0.26563 0.6718,-0.26562 1.1875,-0.64062 l 0.5312,1.98437 q -0.6406,0.29688 -1.6719,0.59375 -1.0156,0.29688 -2.25,0.29688 -1.2031,0 -1.875,-0.34375 -0.6718,-0.32813 -1.0156,-0.875 -0.3281,-0.5625 -0.4219,-1.25 -0.078,-0.70313 -0.078,-1.375 z m 18.4337,-2.3125 q 2.2813,0 3.9219,0.76563 1.6406,0.76562 2.7031,2.0625 1.0625,1.28125 1.5625,2.95312 0.5157,1.65625 0.5157,3.48438 0,1.82812 -0.5157,3.45312 -0.5,1.625 -1.5468,2.84375 -1.0469,1.20313 -2.6719,1.92188 -1.625,0.70312 -3.8281,0.70312 -2.2657,0 -3.9375,-0.75 -1.6563,-0.75 -2.7344,-2 -1.0781,-1.25 -1.6094,-2.89062 -0.5156,-1.64063 -0.5156,-3.46875 0,-1.82813 0.5156,-3.46875 0.5313,-1.65625 1.5938,-2.90625 1.0625,-1.25 2.7031,-1.96875 1.6406,-0.73438 3.8437,-0.73438 z m 0.1094,16.20313 q 1.5,0 2.5938,-0.5625 1.1093,-0.5625 1.8281,-1.5 0.7344,-0.95313 1.0625,-2.20313 0.3437,-1.26562 0.3437,-2.64062 0,-1.42188 -0.3593,-2.71875 -0.3594,-1.3125 -1.1094,-2.29688 -0.7344,-1 -1.875,-1.59375 -1.1406,-0.59375 -2.7031,-0.59375 -1.5313,0 -2.625,0.5625 -1.0782,0.5625 -1.7969,1.5 -0.7031,0.92188 -1.0469,2.17188 -0.3281,1.25 -0.3281,2.64062 0,1.40625 0.3594,2.71875 0.3593,1.3125 1.0781,2.32813 0.7344,1 1.875,1.59375 1.1406,0.59375 2.7031,0.59375 z m 24.8679,-15.64063 v 11.34375 q 0,1.15625 0.2657,1.95313 0.2812,0.78125 0.75,1.25 0.4687,0.45312 1.125,0.67187 0.6562,0.20313 1.4375,0.20313 0.9375,0 1.8437,-0.28125 0.9219,-0.28125 1.7031,-0.84375 0.7813,-0.5625 1.375,-1.375 0.6094,-0.82813 0.9375,-1.90625 V 107.8776 h 2.6094 v 17.17188 h -2.0469 l -0.2968,-3.20313 h -0.1563 q -0.4844,1.5625 -2.1719,2.60938 -1.6718,1.04687 -4.1718,1.04687 -1.1875,0 -2.2657,-0.3125 -1.0625,-0.29687 -1.8437,-0.98437 -0.7813,-0.6875 -1.25,-1.82813 -0.4688,-1.14062 -0.4688,-2.8125 v -11.6875 z m 22.9159,1.53125 q -1.7969,0 -2.6094,0.65625 -0.7968,0.65625 -0.7968,1.76563 0,0.375 0.1093,0.79687 0.125,0.40625 0.4375,0.76563 0.3125,0.34375 0.8594,0.67187 0.5469,0.3125 1.4375,0.5 l 2.6563,0.59375 q 1.5625,0.32813 2.5156,0.90625 0.9531,0.57813 1.4687,1.25 0.5313,0.67188 0.6875,1.375 0.1719,0.6875 0.1719,1.28125 0,1.15625 -0.4687,2.17188 -0.4688,1 -1.3438,1.75 -0.875,0.75 -2.1406,1.17187 -1.2656,0.4375 -2.8438,0.4375 -1.9687,0 -3.6562,-0.57812 -1.6719,-0.57813 -2.6875,-1.29688 l 0.6719,-2.42187 q 1.3437,1.23437 2.9843,1.79687 1.6563,0.54688 2.9532,0.54688 1.875,0 2.8437,-0.90625 0.9688,-0.92188 0.9688,-1.92188 0,-0.34375 -0.047,-0.76562 -0.031,-0.4375 -0.2969,-0.875 -0.25,-0.45313 -0.7812,-0.84375 -0.5157,-0.39063 -1.4844,-0.60938 l -3.5938,-0.90625 q -1.2343,-0.29687 -2.0156,-0.78125 -0.7812,-0.48437 -1.2344,-1.0625 -0.4375,-0.57812 -0.625,-1.23437 -0.1875,-0.65625 -0.1875,-1.32813 0,-2.26562 1.6875,-3.625 1.7032,-1.375 4.5469,-1.375 1.4531,0 3.125,0.39063 1.6875,0.39062 2.8438,1.14062 l -0.7032,2.25 q -0.75,-0.64062 -2.2343,-1.15625 -1.4688,-0.53125 -3.2188,-0.53125 z m 19.1024,-2.09375 q 3.2969,0 5.0782,1.67188 1.7968,1.65625 1.7968,4.67187 0,0.64063 -0.078,1.29688 -0.078,0.65625 -0.25,0.95312 H 1170.62 v 0.375 q 0,1.40625 0.375,2.71875 0.375,1.3125 1.125,2.32813 0.75,1 1.8906,1.59375 1.1406,0.59375 2.7031,0.59375 0.8906,0 1.75,-0.20313 0.8594,-0.20312 1.6406,-0.51562 0.7813,-0.32813 1.4532,-0.70313 0.6718,-0.375 1.2031,-0.75 l 0.4531,2.14063 q -0.5,0.29687 -1.2031,0.65625 -0.7031,0.34375 -1.5625,0.64062 -0.8594,0.29688 -1.8906,0.5 -1.0313,0.21875 -2.1407,0.21875 -2.0937,0 -3.7031,-0.73437 -1.5937,-0.73438 -2.6875,-1.98438 -1.0781,-1.25 -1.6406,-2.89062 -0.5625,-1.64063 -0.5625,-3.42188 0,-1.84375 0.5781,-3.5 0.5781,-1.65625 1.7031,-2.92187 1.125,-1.28125 2.7813,-2 1.6562,-0.73438 3.7812,-0.73438 z m -0.1093,2.09375 q -2.4532,0 -3.8282,1.29688 -1.3593,1.28125 -1.8437,3.21875 h 10.1875 q 0.047,-0.1875 0.047,-0.32813 0,-0.15625 0,-0.34375 0,-0.9375 -0.375,-1.65625 -0.375,-0.73437 -1.0157,-1.21875 -0.625,-0.48437 -1.4531,-0.71875 -0.8125,-0.25 -1.7187,-0.25 z m 23.4909,15.64063 h -2.625 V 107.8776 h 2.625 z m -3.1718,-23.4375 q 0,-0.75 0.5312,-1.34375 0.5469,-0.60938 1.3281,-0.60938 0.75,0 1.3438,0.60938 0.5937,0.59375 0.5937,1.34375 0,0.78125 -0.5937,1.32812 -0.5938,0.53125 -1.3438,0.53125 -0.7812,0 -1.3281,-0.53125 -0.5312,-0.54687 -0.5312,-1.32812 z m 9.7799,8.01562 h -2.875 v -1.375 l 2.9375,-0.375 0.5625,-5.1875 h 1.9843 v 5.1875 h 4.0313 v 1.75 h -4.0313 v 11.90625 q 0,1.20313 0.3438,1.57813 0.3594,0.375 1.1094,0.375 0.8593,0 1.5312,-0.26563 0.6719,-0.26562 1.1875,-0.64062 l 0.5313,1.98437 q -0.6407,0.29688 -1.6719,0.59375 -1.0156,0.29688 -2.25,0.29688 -1.2031,0 -1.875,-0.34375 -0.6719,-0.32813 -1.0156,-0.875 -0.3282,-0.5625 -0.4219,-1.25 -0.078,-0.70313 -0.078,-1.375 z"
     id="path33"
     style="fill:#ffffff;fill-rule:nonzero" />
  <path
     d="M 1305.4994,150.58879 H 834.4615 l -37.79523,37.79529 37.79523,37.79526 h 471.0379 z"
     id="path35"
     style="fill:#f6b347;fill-rule:evenodd" />
  <path
     d="m 857.42786,180.26506 -6.9375,20.375 h -3.54688 l -9.70312,-24.64063 h 3.17187 l 8.28125,21.09375 7.20313,-21.09375 h 3.17187 l 7.65625,21.01563 7.5,-21.01563 h 2.98438 l -8.76563,24.64063 h -3.54687 z m 34.97772,20.375 v -11.34375 q 0,-2.28125 -1.01562,-3.23438 -1,-0.95312 -2.5625,-0.95312 -0.9375,0 -1.85938,0.29687 -0.90625,0.29688 -1.6875,0.875 -0.78125,0.57813 -1.39062,1.42188 -0.59375,0.84375 -0.92188,1.92187 v 11.01563 h -2.625 v -27.625 h 2.625 v 13.67187 q 0.48438,-1.57812 2.09375,-2.67187 1.625,-1.10938 4.14063,-1.10938 1.1875,0 2.25,0.32813 1.0625,0.3125 1.84375,1.03125 0.78125,0.70312 1.25,1.85937 0.46875,1.15625 0.46875,2.82813 v 11.6875 z m 15.96887,-17.73438 q 3.29688,0 5.07813,1.67188 1.79687,1.65625 1.79687,4.67187 0,0.64063 -0.0781,1.29688 -0.0781,0.65625 -0.25,0.95312 H 902.3276 v 0.375 q 0,1.40625 0.375,2.71875 0.375,1.3125 1.125,2.32813 0.75,1 1.89062,1.59375 1.14063,0.59375 2.70313,0.59375 0.89062,0 1.75,-0.20313 0.85937,-0.20312 1.64062,-0.51562 0.78125,-0.32813 1.45313,-0.70313 0.67187,-0.375 1.20312,-0.75 l 0.45313,2.14063 q -0.5,0.29687 -1.20313,0.65625 -0.70312,0.34375 -1.5625,0.64062 -0.85937,0.29688 -1.89062,0.5 -1.03125,0.21875 -2.14063,0.21875 -2.09375,0 -3.70312,-0.73437 -1.59375,-0.73438 -2.6875,-1.98438 -1.07813,-1.25 -1.64063,-2.89062 -0.5625,-1.64063 -0.5625,-3.42188 0,-1.84375 0.57813,-3.5 0.57812,-1.65625 1.70312,-2.92187 1.125,-1.28125 2.78125,-2 1.65625,-0.73438 3.78125,-0.73438 z m -0.10937,2.09375 q -2.45313,0 -3.82813,1.29688 -1.35937,1.28125 -1.84375,3.21875 h 10.1875 q 0.0469,-0.1875 0.0469,-0.32813 0,-0.15625 0,-0.34375 0,-0.9375 -0.375,-1.65625 -0.375,-0.73437 -1.01563,-1.21875 -0.625,-0.48437 -1.45312,-0.71875 -0.8125,-0.25 -1.71875,-0.25 z m 20.98621,1.23438 q -0.59375,-0.34375 -1.20313,-0.54688 -0.59375,-0.20312 -1.15625,-0.20312 -0.73437,0 -1.40625,0.42187 -0.67187,0.40625 -1.23437,1.10938 -0.5625,0.70312 -1,1.64062 -0.42188,0.9375 -0.64063,1.9375 v 10.04688 h -2.625 v -17.17188 h 2.0625 l 0.29688,3.76563 h 0.14062 q 0.26563,-0.85938 0.6875,-1.64063 0.4375,-0.78125 1.04688,-1.375 0.625,-0.59375 1.40625,-0.95312 0.78125,-0.35938 1.79687,-0.35938 0.70313,0 1.48438,0.25 0.78125,0.23438 1.125,0.60938 z m 11.37469,-3.32813 q 3.29688,0 5.07813,1.67188 1.79687,1.65625 1.79687,4.67187 0,0.64063 -0.0781,1.29688 -0.0781,0.65625 -0.25,0.95312 h -12.59375 v 0.375 q 0,1.40625 0.375,2.71875 0.375,1.3125 1.125,2.32813 0.75,1 1.89062,1.59375 1.14063,0.59375 2.70313,0.59375 0.89062,0 1.75,-0.20313 0.85937,-0.20312 1.64062,-0.51562 0.78125,-0.32813 1.45313,-0.70313 0.67187,-0.375 1.20312,-0.75 l 0.45313,2.14063 q -0.5,0.29687 -1.20313,0.65625 -0.70312,0.34375 -1.5625,0.64062 -0.85937,0.29688 -1.89062,0.5 -1.03125,0.21875 -2.14063,0.21875 -2.09375,0 -3.70312,-0.73437 -1.59375,-0.73438 -2.6875,-1.98438 -1.07813,-1.25 -1.64063,-2.89062 -0.5625,-1.64063 -0.5625,-3.42188 0,-1.84375 0.57813,-3.5 0.57812,-1.65625 1.70312,-2.92187 1.125,-1.28125 2.78125,-2 1.65625,-0.73438 3.78125,-0.73438 z m -0.10937,2.09375 q -2.45313,0 -3.82813,1.29688 -1.35937,1.28125 -1.84375,3.21875 h 10.1875 q 0.0469,-0.1875 0.0469,-0.32813 0,-0.15625 0,-0.34375 0,-0.9375 -0.375,-1.65625 -0.375,-0.73437 -1.01563,-1.21875 -0.625,-0.48437 -1.45312,-0.71875 -0.8125,-0.25 -1.71875,-0.25 z m 23.49102,15.64063 h -2.625 v -17.17188 h 2.625 z m -3.17187,-23.4375 q 0,-0.75 0.53125,-1.34375 0.54687,-0.60938 1.32812,-0.60938 0.75,0 1.34375,0.60938 0.59375,0.59375 0.59375,1.34375 0,0.78125 -0.59375,1.32812 -0.59375,0.53125 -1.34375,0.53125 -0.78125,0 -1.32812,-0.53125 -0.53125,-0.54687 -0.53125,-1.32812 z m 9.77991,8.01562 h -2.875 v -1.375 l 2.9375,-0.375 0.5625,-5.1875 h 1.98437 v 5.1875 h 4.03125 v 1.75 h -4.03125 v 11.90625 q 0,1.20313 0.34375,1.57813 0.35938,0.375 1.10938,0.375 0.85937,0 1.53125,-0.26563 0.67187,-0.26562 1.1875,-0.64062 l 0.53125,1.98437 q -0.64063,0.29688 -1.67188,0.59375 -1.01562,0.29688 -2.25,0.29688 -1.20312,0 -1.875,-0.34375 -0.67187,-0.32813 -1.01562,-0.875 -0.32813,-0.5625 -0.42188,-1.25 -0.0781,-0.70313 -0.0781,-1.375 z m 33.43853,1.39063 q -0.8594,-0.64063 -2.4687,-1.14063 -1.5938,-0.5 -3.20317,-0.5 -1.64063,0 -2.78125,0.5625 -1.14063,0.54688 -1.89063,1.48438 -0.75,0.9375 -1.09375,2.15625 -0.32812,1.20312 -0.32812,2.51562 0,1.45313 0.40625,2.79688 0.42187,1.34375 1.21875,2.35937 0.8125,1 1.98437,1.59375 1.17188,0.59375 2.75,0.59375 1.48435,0 3.06255,-0.625 1.5937,-0.64062 2.6406,-1.60937 l 0.5312,2.42187 q -1.0468,0.67188 -2.8593,1.28125 -1.8125,0.59375 -3.85942,0.59375 -2.17188,0 -3.79688,-0.75 -1.625,-0.75 -2.6875,-2 -1.0625,-1.25 -1.60937,-2.90625 -0.53125,-1.67187 -0.53125,-3.53125 0,-1.79687 0.5,-3.42187 0.5,-1.625 1.57812,-2.875 1.09375,-1.25 2.76563,-1.96875 1.6875,-0.73438 4.03125,-0.73438 1.79692,0 3.51562,0.42188 1.7188,0.40625 2.7656,1.07812 z m 16.1641,14.03125 -0.2968,-3.0625 h -0.1563 q -0.4375,0.70312 -1.1875,1.34375 -0.75,0.64062 -1.6719,1.125 -0.9062,0.48437 -1.9687,0.76562 -1.0625,0.28125 -2.1094,0.28125 -2.4687,0 -3.7031,-1.4375 -1.2188,-1.4375 -1.2188,-3.60937 0,-2.125 1.0782,-3.39063 1.0781,-1.26562 2.6406,-1.90625 1.5781,-0.64062 3.3125,-0.82812 1.7344,-0.1875 3.0469,-0.1875 h 1.6718 v -0.4375 q 0,-1.42188 -0.3906,-2.17188 -0.3906,-0.75 -1.1406,-1.26562 -0.625,-0.40625 -1.3594,-0.57813 -0.7344,-0.17187 -1.9219,-0.17187 -1.5625,0 -2.7656,0.42187 -1.1875,0.40625 -2.3125,1.07813 l -0.5937,-2.25 q 2.5,-1.45313 5.9687,-1.45313 1.375,0 2.6094,0.25 1.2344,0.23438 2.1719,0.84375 1.0781,0.67188 1.7031,1.90625 0.6406,1.21875 0.6406,3.04688 v 11.6875 z m -6.6093,-1.75 q 1.5312,0 3.25,-0.96875 1.7187,-0.98438 2.7968,-2.8125 v -3.46875 h -0.3281 q -1.5312,0 -3.0625,0.125 -1.5312,0.10937 -2.7812,0.5625 -1.25,0.4375 -2.0469,1.28125 -0.7813,0.82812 -0.7813,2.29687 0,1.45313 0.7969,2.21875 0.8125,0.76563 2.1563,0.76563 z m 26.1989,1.75 v -11.34375 q 0,-2.28125 -1.0469,-3.23438 -1.0313,-0.95312 -2.6094,-0.95312 -1.9062,0 -3.4375,1.1875 -1.5156,1.17187 -2.1875,3.32812 v 11.01563 h -2.625 v -17.17188 h 2.0625 l 0.2969,3.21875 h 0.1406 q 0.4844,-1.57812 2.0313,-2.67187 1.5625,-1.10938 4.0156,-1.10938 2.25,0 3.75,1 1.5156,0.98438 1.9375,2.78125 0.3594,-0.75 0.9219,-1.42187 0.5625,-0.67188 1.3437,-1.1875 0.7813,-0.53125 1.7813,-0.84375 1.0156,-0.32813 2.2968,-0.32813 1.1563,0 2.2188,0.32813 1.0625,0.3125 1.8594,1.03125 0.8125,0.70312 1.2968,1.85937 0.4844,1.15625 0.4844,2.82813 v 11.6875 h -2.6094 v -11.34375 q 0,-2.28125 -1.0468,-3.23438 -1.0469,-0.95312 -2.625,-0.95312 -1.8907,0 -3.4219,1.1875 -1.5313,1.17187 -2.2031,3.32812 v 11.01563 z m 27.8462,-17.73438 q 3.2968,0 5.0781,1.67188 1.7969,1.65625 1.7969,4.67187 0,0.64063 -0.078,1.29688 -0.078,0.65625 -0.25,0.95312 h -12.5937 v 0.375 q 0,1.40625 0.375,2.71875 0.375,1.3125 1.125,2.32813 0.75,1 1.8906,1.59375 1.1406,0.59375 2.7031,0.59375 0.8907,0 1.75,-0.20313 0.8594,-0.20312 1.6407,-0.51562 0.7812,-0.32813 1.4531,-0.70313 0.6719,-0.375 1.2031,-0.75 l 0.4531,2.14063 q -0.5,0.29687 -1.2031,0.65625 -0.7031,0.34375 -1.5625,0.64062 -0.8594,0.29688 -1.8906,0.5 -1.0313,0.21875 -2.1406,0.21875 -2.0938,0 -3.7032,-0.73437 -1.5937,-0.73438 -2.6875,-1.98438 -1.0781,-1.25 -1.6406,-2.89062 -0.5625,-1.64063 -0.5625,-3.42188 0,-1.84375 0.5781,-3.5 0.5782,-1.65625 1.7032,-2.92187 1.125,-1.28125 2.7812,-2 1.6563,-0.73438 3.7813,-0.73438 z m -0.1094,2.09375 q -2.4531,0 -3.8281,1.29688 -1.3594,1.28125 -1.8438,3.21875 h 10.1875 q 0.047,-0.1875 0.047,-0.32813 0,-0.15625 0,-0.34375 0,-0.9375 -0.375,-1.65625 -0.375,-0.73437 -1.0156,-1.21875 -0.625,-0.48437 -1.4532,-0.71875 -0.8125,-0.25 -1.7187,-0.25 z m 21.7722,0.21875 h -2.875 v -1.375 l 2.875,-0.34375 q 0,-2.07812 0.125,-3.5625 0.125,-1.5 0.3437,-2.53125 0.2344,-1.03125 0.5157,-1.67187 0.2812,-0.65625 0.5468,-1.07813 0.7032,-1.04687 1.75,-1.4375 1.0469,-0.39062 2.1563,-0.39062 0.1562,0 0.5312,0.0312 0.375,0.0156 0.8438,0.0781 0.4687,0.0469 0.9531,0.17188 0.4844,0.125 0.9219,0.35937 l -0.625,2.20313 q -0.1094,0 -0.5313,-0.125 -0.4062,-0.14063 -0.9218,-0.29688 -0.5,-0.17187 -1.0782,-0.32812 -0.5781,-0.15625 -1.0156,-0.15625 -0.5625,0 -0.9375,0.32812 -0.375,0.3125 -0.5781,1.04688 -0.2031,0.71875 -0.2969,1.92187 -0.094,1.1875 -0.094,2.9375 v 2.46875 h 4.0312 v 1.75 h -4.0312 v 15.42188 h -2.6094 z m 19.4832,1.01563 q -0.5938,-0.34375 -1.2032,-0.54688 -0.5937,-0.20312 -1.1562,-0.20312 -0.7344,0 -1.4063,0.42187 -0.6718,0.40625 -1.2343,1.10938 -0.5625,0.70312 -1,1.64062 -0.4219,0.9375 -0.6407,1.9375 v 10.04688 h -2.625 v -17.17188 h 2.0625 l 0.2969,3.76563 h 0.1406 q 0.2657,-0.85938 0.6875,-1.64063 0.4375,-0.78125 1.0469,-1.375 0.625,-0.59375 1.4063,-0.95312 0.7812,-0.35938 1.7968,-0.35938 0.7032,0 1.4844,0.25 0.7813,0.23438 1.125,0.60938 z m 11.2341,-3.32813 q 2.2812,0 3.9219,0.76563 1.6406,0.76562 2.7031,2.0625 1.0625,1.28125 1.5625,2.95312 0.5156,1.65625 0.5156,3.48438 0,1.82812 -0.5156,3.45312 -0.5,1.625 -1.5469,2.84375 -1.0469,1.20313 -2.6719,1.92188 -1.625,0.70312 -3.8281,0.70312 -2.2656,0 -3.9375,-0.75 -1.6562,-0.75 -2.7344,-2 -1.0781,-1.25 -1.6093,-2.89062 -0.5157,-1.64063 -0.5157,-3.46875 0,-1.82813 0.5157,-3.46875 0.5312,-1.65625 1.5937,-2.90625 1.0625,-1.25 2.7031,-1.96875 1.6407,-0.73438 3.8438,-0.73438 z m 0.1094,16.20313 q 1.5,0 2.5937,-0.5625 1.1094,-0.5625 1.8281,-1.5 0.7344,-0.95313 1.0625,-2.20313 0.3438,-1.26562 0.3438,-2.64062 0,-1.42188 -0.3594,-2.71875 -0.3594,-1.3125 -1.1094,-2.29688 -0.7343,-1 -1.875,-1.59375 -1.1406,-0.59375 -2.7031,-0.59375 -1.5312,0 -2.625,0.5625 -1.0781,0.5625 -1.7969,1.5 -0.7031,0.92188 -1.0468,2.17188 -0.3282,1.25 -0.3282,2.64062 0,1.40625 0.3594,2.71875 0.3594,1.3125 1.0781,2.32813 0.7344,1 1.875,1.59375 1.1407,0.59375 2.7032,0.59375 z m 25.1911,1.53125 v -11.34375 q 0,-2.28125 -1.0469,-3.23438 -1.0312,-0.95312 -2.6093,-0.95312 -1.9063,0 -3.4375,1.1875 -1.5157,1.17187 -2.1875,3.32812 v 11.01563 h -2.625 v -17.17188 h 2.0625 l 0.2968,3.21875 h 0.1407 q 0.4843,-1.57812 2.0312,-2.67187 1.5625,-1.10938 4.0156,-1.10938 2.25,0 3.75,1 1.5157,0.98438 1.9375,2.78125 0.3594,-0.75 0.9219,-1.42187 0.5625,-0.67188 1.3438,-1.1875 0.7812,-0.53125 1.7812,-0.84375 1.0156,-0.32813 2.2969,-0.32813 1.1562,0 2.2187,0.32813 1.0625,0.3125 1.8594,1.03125 0.8125,0.70312 1.2969,1.85937 0.4844,1.15625 0.4844,2.82813 v 11.6875 h -2.6094 v -11.34375 q 0,-2.28125 -1.0469,-3.23438 -1.0469,-0.95312 -2.625,-0.95312 -1.8906,0 -3.4219,1.1875 -1.5312,1.17187 -2.2031,3.32812 v 11.01563 z m 37.226,-28.29688 q -1.5313,1.71875 -2.5938,3.51563 -1.0625,1.78125 -1.7344,3.75 -0.6718,1.95312 -0.9843,4.14062 -0.2969,2.1875 -0.2969,4.6875 0,1.53125 0.125,3.375 0.1406,1.84375 0.7031,3.92188 0.5625,2.0625 1.6719,4.29687 1.125,2.21875 3.0625,4.48438 l -1.375,0.5 q -3.5781,-3.21875 -5.5625,-7.5 -1.9844,-4.29688 -1.9844,-9.07813 0,-4.78125 1.9844,-9.03125 1.9844,-4.26562 5.5625,-7.54687 z m 10.2634,10.5625 q 2.2813,0 3.9219,0.76563 1.6406,0.76562 2.7031,2.0625 1.0625,1.28125 1.5625,2.95312 0.5156,1.65625 0.5156,3.48438 0,1.82812 -0.5156,3.45312 -0.5,1.625 -1.5469,2.84375 -1.0468,1.20313 -2.6718,1.92188 -1.625,0.70312 -3.8282,0.70312 -2.2656,0 -3.9375,-0.75 -1.6562,-0.75 -2.7343,-2 -1.0782,-1.25 -1.6094,-2.89062 -0.5156,-1.64063 -0.5156,-3.46875 0,-1.82813 0.5156,-3.46875 0.5312,-1.65625 1.5937,-2.90625 1.0625,-1.25 2.7032,-1.96875 1.6406,-0.73438 3.8437,-0.73438 z m 0.1094,16.20313 q 1.5,0 2.5937,-0.5625 1.1094,-0.5625 1.8282,-1.5 0.7343,-0.95313 1.0625,-2.20313 0.3437,-1.26562 0.3437,-2.64062 0,-1.42188 -0.3594,-2.71875 -0.3593,-1.3125 -1.1093,-2.29688 -0.7344,-1 -1.875,-1.59375 -1.1407,-0.59375 -2.7032,-0.59375 -1.5312,0 -2.625,0.5625 -1.0781,0.5625 -1.7968,1.5 -0.7032,0.92188 -1.0469,2.17188 -0.3281,1.25 -0.3281,2.64062 0,1.40625 0.3593,2.71875 0.3594,1.3125 1.0782,2.32813 0.7343,1 1.875,1.59375 1.1406,0.59375 2.7031,0.59375 z m 22.5505,-12.875 q -0.5937,-0.34375 -1.2031,-0.54688 -0.5938,-0.20312 -1.1563,-0.20312 -0.7343,0 -1.4062,0.42187 -0.6719,0.40625 -1.2344,1.10938 -0.5625,0.70312 -1,1.64062 -0.4219,0.9375 -0.6406,1.9375 v 10.04688 h -2.625 v -17.17188 h 2.0625 l 0.2969,3.76563 h 0.1406 q 0.2656,-0.85938 0.6875,-1.64063 0.4375,-0.78125 1.0469,-1.375 0.625,-0.59375 1.4062,-0.95312 0.7813,-0.35938 1.7969,-0.35938 0.7031,0 1.4844,0.25 0.7812,0.23438 1.125,0.60938 z m 6.6856,14.40625 h -2.625 v -17.17188 h 2.625 z m -3.1719,-23.4375 q 0,-0.75 0.5312,-1.34375 0.5469,-0.60938 1.3282,-0.60938 0.75,0 1.3437,0.60938 0.5938,0.59375 0.5938,1.34375 0,0.78125 -0.5938,1.32812 -0.5937,0.53125 -1.3437,0.53125 -0.7813,0 -1.3282,-0.53125 -0.5312,-0.54687 -0.5312,-1.32812 z m 11.3424,18.14062 q -1.7969,-0.71875 -2.5781,-2.26562 -0.7813,-1.54688 -0.7813,-3.34375 0,-1.45313 0.4844,-2.67188 0.4844,-1.23437 1.3906,-2.17187 0.9219,-0.9375 2.2031,-1.45313 1.2969,-0.53125 2.9375,-0.53125 0.9688,0 1.9219,0.1875 0.9531,0.1875 1.6563,0.5625 1.5781,-0.0312 2.9375,-0.17187 1.3593,-0.15625 2.5625,-0.5 l 0.1718,0.15625 -0.25,2.04687 -0.1875,0.1875 -3.4062,-0.15625 -0.031,0.125 q 0.9688,0.78125 1.4063,2.04688 0.4531,1.26562 0.4531,2.46875 0,1.21875 -0.4687,2.34375 -0.4532,1.125 -1.3594,1.96875 -0.8906,0.82812 -2.2188,1.34375 -1.3281,0.5 -3.0312,0.5 -0.4219,0 -0.7188,-0.0156 -0.2968,-0.0312 -0.5625,-0.0312 -0.7812,0.26563 -1.1718,0.71875 -0.3907,0.4375 -0.3907,0.75 0,0.35938 0.5,0.64063 0.5,0.28125 1.625,0.39062 l 3.625,0.375 q 1.2344,0.10938 2.2969,0.51563 1.0625,0.39062 1.8438,1.01562 0.7812,0.60938 1.25,1.48438 0.4687,0.875 0.4687,1.98437 0,1.09375 -0.4844,2.21875 -0.4843,1.14063 -1.4531,1.96875 -0.9687,0.82813 -2.6875,1.34375 -1.7187,0.51563 -3.9687,0.51563 -1.8907,0 -3.4063,-0.39063 -1.5156,-0.39062 -2.5469,-1.07812 -1.0156,-0.6875 -1.5625,-1.59375 -0.5468,-0.89063 -0.5468,-1.89063 0,-0.75 0.2968,-1.48437 0.3125,-0.71875 0.7969,-1.35938 0.4844,-0.625 1.125,-1.125 0.6563,-0.48437 1.375,-0.73437 v -0.15625 q -1.5312,-0.70313 -1.5312,-1.9375 0,-0.78125 0.5781,-1.40625 0.5781,-0.64063 1.4375,-1.25 z m 3.8125,-1.20312 q 1.0312,0 1.8281,-0.34375 0.8125,-0.35938 1.375,-0.9375 0.5625,-0.57813 0.8594,-1.35938 0.2969,-0.78125 0.2969,-1.64062 0,-0.85938 -0.2969,-1.75 -0.2969,-0.90625 -0.875,-1.625 -0.5781,-0.73438 -1.4375,-1.1875 -0.8594,-0.45313 -1.9844,-0.45313 -1.0781,0 -1.8906,0.4375 -0.7969,0.42188 -1.3438,1.09375 -0.5312,0.67188 -0.7968,1.5 -0.2657,0.82813 -0.2657,1.64063 0,0.85937 0.2813,1.6875 0.2812,0.8125 0.8594,1.46875 0.5781,0.65625 1.4218,1.0625 0.8438,0.40625 1.9688,0.40625 z m -1.2031,6.6875 q -0.8594,0 -1.5938,0.32812 -0.7187,0.34375 -1.2656,0.85938 -0.5313,0.53125 -0.8594,1.17187 -0.3125,0.65625 -0.3125,1.29688 0,1.42187 1.5156,2.25 1.5157,0.84375 4.0782,0.84375 1.2343,0 2.2968,-0.20313 1.0625,-0.20312 1.8282,-0.64062 0.7656,-0.42188 1.2187,-1.04688 0.4531,-0.60937 0.4531,-1.46875 0,-1.67187 -1.8125,-2.40625 -1.8125,-0.71875 -5.5468,-0.98437 z m 16.619,-0.1875 h -2.625 v -17.17188 h 2.625 z m -3.1719,-23.4375 q 0,-0.75 0.5313,-1.34375 0.5468,-0.60938 1.3281,-0.60938 0.75,0 1.3437,0.60938 0.5938,0.59375 0.5938,1.34375 0,0.78125 -0.5938,1.32812 -0.5937,0.53125 -1.3437,0.53125 -0.7813,0 -1.3281,-0.53125 -0.5313,-0.54687 -0.5313,-1.32812 z m 21.0455,23.4375 v -11.34375 q 0,-2.25 -1.0156,-3.21875 -1,-0.96875 -2.5625,-0.96875 -0.9375,0 -1.8594,0.29687 -0.9062,0.29688 -1.6875,0.875 -0.7812,0.57813 -1.3906,1.42188 -0.5937,0.84375 -0.9219,1.92187 v 11.01563 h -2.625 v -17.17188 h 2.0625 l 0.2969,3.21875 h 0.1406 q 0.4844,-1.57812 2.1563,-2.67187 1.6875,-1.10938 4.2031,-1.10938 1.1875,0 2.25,0.32813 1.0625,0.3125 1.8438,1.03125 0.7812,0.70312 1.25,1.85937 0.4687,1.15625 0.4687,2.82813 v 11.6875 z m 6.9436,-28.78125 q 3.5782,3.28125 5.5625,7.54687 1.9844,4.25 1.9844,9.03125 0,4.78125 -1.9844,9.07813 -1.9843,4.28125 -5.5625,7.5 l -1.375,-0.5 q 1.9375,-2.26563 3.0469,-4.48438 1.125,-2.23437 1.6875,-4.29687 0.5625,-2.07813 0.6875,-3.92188 0.1406,-1.84375 0.1406,-3.375 0,-2.5 -0.3125,-4.6875 -0.2968,-2.1875 -0.9687,-4.14062 -0.6719,-1.96875 -1.7344,-3.75 -1.0625,-1.79688 -2.5937,-3.51563 z"
     id="path37"
     style="fill:#ffffff;fill-rule:nonzero" />
  <path
     d="M 1305.4996,226.17933 H 738.4615 l -37.79529,37.79529 37.79529,37.79529 h 567.0381 z"
     id="path39"
     style="fill:#33b5a1;fill-rule:evenodd" />
  <path
     d="m 874.2516,276.23061 h -3.17187 l -3.625,-8.28125 H 856.4391 l -3.28125,8.28125 h -2.98437 l 9.85937,-24.64063 h 3.39063 z m -16.76562,-10.90625 h 8.8125 l -4.625,-10.59375 z m 25.56884,11.35937 q -1.90625,0 -3.32812,-0.75 -1.40625,-0.75 -2.34375,-1.98437 -0.9375,-1.23438 -1.40625,-2.84375 -0.45313,-1.625 -0.45313,-3.42188 0,-1.82812 0.5,-3.5 0.5,-1.6875 1.48438,-2.9375 1,-1.25 2.48437,-2 1.5,-0.75 3.48438,-0.75 2.5,0 4.09375,1.09375 1.60937,1.07813 2.09375,2.6875 v -13.67187 h 2.60937 v 27.625 h -2.04687 l -0.29688,-3.0625 h -0.15625 q -0.89062,1.375 -2.60937,2.45312 -1.71875,1.0625 -4.10938,1.0625 z m 0.29688,-2.20312 q 1.79687,0 3.53125,-0.96875 1.73437,-0.98438 2.78125,-2.8125 v -5.48438 q -0.67188,-2.125 -2.26563,-3.3125 -1.57812,-1.20312 -3.5625,-1.20312 -1.29687,0 -2.32812,0.53125 -1.03125,0.51562 -1.73438,1.45312 -0.70312,0.9375 -1.10937,2.25 -0.39063,1.29688 -0.39063,2.85938 0,1.20312 0.26563,2.39062 0.26562,1.1875 0.85937,2.14063 0.59375,0.95312 1.5625,1.5625 0.98438,0.59375 2.39063,0.59375 z m 21.16687,2.20312 q -1.90625,0 -3.32813,-0.75 -1.40625,-0.75 -2.34375,-1.98437 -0.9375,-1.23438 -1.40625,-2.84375 -0.45312,-1.625 -0.45312,-3.42188 0,-1.82812 0.5,-3.5 0.5,-1.6875 1.48437,-2.9375 1,-1.25 2.48438,-2 1.5,-0.75 3.48437,-0.75 2.5,0 4.09375,1.09375 1.60938,1.07813 2.09375,2.6875 v -13.67187 h 2.60938 v 27.625 h -2.04688 l -0.29687,-3.0625 h -0.15625 q -0.89063,1.375 -2.60938,2.45312 -1.71875,1.0625 -4.10937,1.0625 z m 0.29687,-2.20312 q 1.79688,0 3.53125,-0.96875 1.73438,-0.98438 2.78125,-2.8125 v -5.48438 q -0.67187,-2.125 -2.26562,-3.3125 -1.57813,-1.20312 -3.5625,-1.20312 -1.29688,0 -2.32813,0.53125 -1.03125,0.51562 -1.73437,1.45312 -0.70313,0.9375 -1.10938,2.25 -0.39062,1.29688 -0.39062,2.85938 0,1.20312 0.26562,2.39062 0.26563,1.1875 0.85938,2.14063 0.59375,0.95312 1.5625,1.5625 0.98437,0.59375 2.39062,0.59375 z m 17.37,1.75 h -2.625 v -17.17188 h 2.625 z m -3.17188,-23.4375 q 0,-0.75 0.53125,-1.34375 0.54688,-0.60938 1.32813,-0.60938 0.75,0 1.34375,0.60938 0.59375,0.59375 0.59375,1.34375 0,0.78125 -0.59375,1.32812 -0.59375,0.53125 -1.34375,0.53125 -0.78125,0 -1.32813,-0.53125 -0.53125,-0.54687 -0.53125,-1.32812 z m 9.77991,8.01562 h -2.875 v -1.375 l 2.9375,-0.375 0.5625,-5.1875 h 1.98438 v 5.1875 h 4.03125 v 1.75 h -4.03125 v 11.90625 q 0,1.20313 0.34375,1.57813 0.35937,0.375 1.10937,0.375 0.85938,0 1.53125,-0.26563 0.67188,-0.26562 1.1875,-0.64062 l 0.53125,1.98437 q -0.64062,0.29688 -1.67187,0.59375 -1.01563,0.29688 -2.25,0.29688 -1.20313,0 -1.875,-0.34375 -0.67188,-0.32813 -1.01563,-0.875 -0.32812,-0.5625 -0.42187,-1.25 -0.0781,-0.70313 -0.0781,-1.375 z m 13.5119,15.42188 h -2.625 v -17.17188 h 2.625 z m -3.17187,-23.4375 q 0,-0.75 0.53125,-1.34375 0.54687,-0.60938 1.32812,-0.60938 0.75,0 1.34375,0.60938 0.59375,0.59375 0.59375,1.34375 0,0.78125 -0.59375,1.32812 -0.59375,0.53125 -1.34375,0.53125 -0.78125,0 -1.32812,-0.53125 -0.53125,-0.54687 -0.53125,-1.32812 z m 16.5299,5.70312 q 2.28125,0 3.92188,0.76563 1.64062,0.76562 2.70312,2.0625 1.0625,1.28125 1.5625,2.95312 0.51563,1.65625 0.51563,3.48438 0,1.82812 -0.51563,3.45312 -0.5,1.625 -1.54687,2.84375 -1.04688,1.20313 -2.67188,1.92188 -1.625,0.70312 -3.82812,0.70312 -2.26563,0 -3.9375,-0.75 -1.65625,-0.75 -2.73438,-2 -1.07812,-1.25 -1.60937,-2.89062 -0.51563,-1.64063 -0.51563,-3.46875 0,-1.82813 0.51563,-3.46875 0.53125,-1.65625 1.59375,-2.90625 1.0625,-1.25 2.70312,-1.96875 1.64063,-0.73438 3.84375,-0.73438 z m 0.10938,16.20313 q 1.5,0 2.59375,-0.5625 1.10937,-0.5625 1.82812,-1.5 0.73438,-0.95313 1.0625,-2.20313 0.34375,-1.26562 0.34375,-2.64062 0,-1.42188 -0.35937,-2.71875 -0.35938,-1.3125 -1.10938,-2.29688 -0.73437,-1 -1.875,-1.59375 -1.14062,-0.59375 -2.70312,-0.59375 -1.53125,0 -2.625,0.5625 -1.07813,0.5625 -1.79688,1.5 -0.70312,0.92188 -1.04687,2.17188 -0.32813,1.25 -0.32813,2.64062 0,1.40625 0.35938,2.71875 0.35937,1.3125 1.07812,2.32813 0.73438,1 1.875,1.59375 1.14063,0.59375 2.70313,0.59375 z m 25.34741,1.53125 v -11.34375 q 0,-2.25 -1.01562,-3.21875 -1,-0.96875 -2.5625,-0.96875 -0.9375,0 -1.85938,0.29687 -0.90625,0.29688 -1.6875,0.875 -0.78125,0.57813 -1.39062,1.42188 -0.59375,0.84375 -0.92188,1.92187 v 11.01563 h -2.625 v -17.17188 h 2.0625 l 0.29688,3.21875 h 0.14062 q 0.48438,-1.57812 2.15625,-2.67187 1.6875,-1.10938 4.20313,-1.10938 1.1875,0 2.25,0.32813 1.0625,0.3125 1.84375,1.03125 0.78125,0.70312 1.25,1.85937 0.46875,1.15625 0.46875,2.82813 v 11.6875 z m 19.18761,0 -0.2969,-3.0625 h -0.15621 q -0.4375,0.70312 -1.1875,1.34375 -0.75,0.64062 -1.67188,1.125 -0.90625,0.48437 -1.96875,0.76562 -1.0625,0.28125 -2.10937,0.28125 -2.46875,0 -3.70313,-1.4375 -1.21875,-1.4375 -1.21875,-3.60937 0,-2.125 1.07813,-3.39063 1.07812,-1.26562 2.64062,-1.90625 1.57813,-0.64062 3.3125,-0.82812 1.73438,-0.1875 3.04688,-0.1875 h 1.67187 v -0.4375 q 0,-1.42188 -0.39062,-2.17188 -0.39063,-0.75 -1.14063,-1.26562 -0.625,-0.40625 -1.35937,-0.57813 -0.73438,-0.17187 -1.92188,-0.17187 -1.5625,0 -2.76562,0.42187 -1.1875,0.40625 -2.3125,1.07813 l -0.59375,-2.25 q 2.5,-1.45313 5.96875,-1.45313 1.375,0 2.60937,0.25 1.23438,0.23438 2.17184,0.84375 1.0782,0.67188 1.7032,1.90625 0.6406,1.21875 0.6406,3.04688 v 11.6875 z m -6.60936,-1.75 q 1.53125,0 3.25,-0.96875 1.71875,-0.98438 2.79687,-2.8125 v -3.46875 h -0.32812 q -1.53125,0 -3.0625,0.125 -1.53125,0.10937 -2.78125,0.5625 -1.25,0.4375 -2.04688,1.28125 -0.78125,0.82812 -0.78125,2.29687 0,1.45313 0.79688,2.21875 0.8125,0.76563 2.15625,0.76563 z m 17.13636,1.75 h -2.6094 v -27.625 h 2.6094 z m 27.0921,0 v -11.34375 q 0,-2.28125 -1.0469,-3.23438 -1.0312,-0.95312 -2.6094,-0.95312 -1.9062,0 -3.4375,1.1875 -1.5156,1.17187 -2.1875,3.32812 v 11.01563 h -2.625 v -17.17188 h 2.0625 l 0.2969,3.21875 h 0.1406 q 0.4844,-1.57812 2.0313,-2.67187 1.5625,-1.10938 4.0156,-1.10938 2.25,0 3.75,1 1.5156,0.98438 1.9375,2.78125 0.3594,-0.75 0.9219,-1.42187 0.5625,-0.67188 1.3437,-1.1875 0.7813,-0.53125 1.7813,-0.84375 1.0156,-0.32813 2.2969,-0.32813 1.1562,0 2.2187,0.32813 1.0625,0.3125 1.8594,1.03125 0.8125,0.70312 1.2969,1.85937 0.4843,1.15625 0.4843,2.82813 v 11.6875 h -2.6093 v -11.34375 q 0,-2.28125 -1.0469,-3.23438 -1.0469,-0.95312 -2.625,-0.95312 -1.8906,0 -3.4219,1.1875 -1.5312,1.17187 -2.2031,3.32812 v 11.01563 z m 27.8462,-17.73438 q 3.2969,0 5.0781,1.67188 1.7969,1.65625 1.7969,4.67187 0,0.64063 -0.078,1.29688 -0.078,0.65625 -0.25,0.95312 h -12.5938 v 0.375 q 0,1.40625 0.375,2.71875 0.375,1.3125 1.125,2.32813 0.75,1 1.8906,1.59375 1.1407,0.59375 2.7032,0.59375 0.8906,0 1.75,-0.20313 0.8593,-0.20312 1.6406,-0.51562 0.7812,-0.32813 1.4531,-0.70313 0.6719,-0.375 1.2031,-0.75 l 0.4532,2.14063 q -0.5,0.29687 -1.2032,0.65625 -0.7031,0.34375 -1.5625,0.64062 -0.8593,0.29688 -1.8906,0.5 -1.0312,0.21875 -2.1406,0.21875 -2.0938,0 -3.7031,-0.73437 -1.5938,-0.73438 -2.6875,-1.98438 -1.0782,-1.25 -1.6407,-2.89062 -0.5625,-1.64063 -0.5625,-3.42188 0,-1.84375 0.5782,-3.5 0.5781,-1.65625 1.7031,-2.92187 1.125,-1.28125 2.7812,-2 1.6563,-0.73438 3.7813,-0.73438 z m -0.1094,2.09375 q -2.4531,0 -3.8281,1.29688 -1.3594,1.28125 -1.8438,3.21875 h 10.1875 q 0.047,-0.1875 0.047,-0.32813 0,-0.15625 0,-0.34375 0,-0.9375 -0.375,-1.65625 -0.375,-0.73437 -1.0156,-1.21875 -0.625,-0.48437 -1.4531,-0.71875 -0.8125,-0.25 -1.7188,-0.25 z m 12.5175,0.21875 h -2.875 v -1.375 l 2.9375,-0.375 0.5625,-5.1875 h 1.9843 v 5.1875 h 4.0313 v 1.75 h -4.0313 v 11.90625 q 0,1.20313 0.3438,1.57813 0.3594,0.375 1.1094,0.375 0.8593,0 1.5312,-0.26563 0.6719,-0.26562 1.1875,-0.64062 l 0.5313,1.98437 q -0.6407,0.29688 -1.6719,0.59375 -1.0156,0.29688 -2.25,0.29688 -1.2031,0 -1.875,-0.34375 -0.6719,-0.32813 -1.0156,-0.875 -0.3282,-0.5625 -0.4219,-1.25 -0.078,-0.70313 -0.078,-1.375 z m 21.7931,15.42188 -0.2969,-3.0625 h -0.1563 q -0.4375,0.70312 -1.1875,1.34375 -0.75,0.64062 -1.6718,1.125 -0.9063,0.48437 -1.9688,0.76562 -1.0625,0.28125 -2.1094,0.28125 -2.4687,0 -3.7031,-1.4375 -1.2187,-1.4375 -1.2187,-3.60937 0,-2.125 1.0781,-3.39063 1.0781,-1.26562 2.6406,-1.90625 1.5781,-0.64062 3.3125,-0.82812 1.7344,-0.1875 3.0469,-0.1875 h 1.6719 v -0.4375 q 0,-1.42188 -0.3907,-2.17188 -0.3906,-0.75 -1.1406,-1.26562 -0.625,-0.40625 -1.3594,-0.57813 -0.7343,-0.17187 -1.9218,-0.17187 -1.5625,0 -2.7657,0.42187 -1.1875,0.40625 -2.3125,1.07813 l -0.5937,-2.25 q 2.5,-1.45313 5.9687,-1.45313 1.375,0 2.6094,0.25 1.2344,0.23438 2.1719,0.84375 1.0781,0.67188 1.7031,1.90625 0.6406,1.21875 0.6406,3.04688 v 11.6875 z m -6.6094,-1.75 q 1.5312,0 3.25,-0.96875 1.7187,-0.98438 2.7969,-2.8125 v -3.46875 h -0.3282 q -1.5312,0 -3.0625,0.125 -1.5312,0.10937 -2.7812,0.5625 -1.25,0.4375 -2.0469,1.28125 -0.7812,0.82812 -0.7812,2.29687 0,1.45313 0.7968,2.21875 0.8125,0.76563 2.1563,0.76563 z m 20.7145,2.20312 q -1.9063,0 -3.3282,-0.75 -1.4062,-0.75 -2.3437,-1.98437 -0.9375,-1.23438 -1.4063,-2.84375 -0.4531,-1.625 -0.4531,-3.42188 0,-1.82812 0.5,-3.5 0.5,-1.6875 1.4844,-2.9375 1,-1.25 2.4844,-2 1.5,-0.75 3.4843,-0.75 2.5,0 4.0938,1.09375 1.6094,1.07813 2.0937,2.6875 v -13.67187 h 2.6094 v 27.625 h -2.0469 l -0.2968,-3.0625 h -0.1563 q -0.8906,1.375 -2.6094,2.45312 -1.7187,1.0625 -4.1093,1.0625 z m 0.2968,-2.20312 q 1.7969,0 3.5313,-0.96875 1.7344,-0.98438 2.7812,-2.8125 v -5.48438 q -0.6718,-2.125 -2.2656,-3.3125 -1.5781,-1.20312 -3.5625,-1.20312 -1.2969,0 -2.3281,0.53125 -1.0313,0.51562 -1.7344,1.45312 -0.7031,0.9375 -1.1094,2.25 -0.3906,1.29688 -0.3906,2.85938 0,1.20312 0.2656,2.39062 0.2657,1.1875 0.8594,2.14063 0.5938,0.95312 1.5625,1.5625 0.9844,0.59375 2.3906,0.59375 z m 25.6513,1.75 -0.2969,-3.0625 h -0.1562 q -0.4375,0.70312 -1.1875,1.34375 -0.75,0.64062 -1.6719,1.125 -0.9063,0.48437 -1.9688,0.76562 -1.0625,0.28125 -2.1093,0.28125 -2.4688,0 -3.7032,-1.4375 -1.2187,-1.4375 -1.2187,-3.60937 0,-2.125 1.0781,-3.39063 1.0781,-1.26562 2.6406,-1.90625 1.5782,-0.64062 3.3125,-0.82812 1.7344,-0.1875 3.0469,-0.1875 h 1.6719 v -0.4375 q 0,-1.42188 -0.3906,-2.17188 -0.3907,-0.75 -1.1407,-1.26562 -0.625,-0.40625 -1.3593,-0.57813 -0.7344,-0.17187 -1.9219,-0.17187 -1.5625,0 -2.7656,0.42187 -1.1875,0.40625 -2.3125,1.07813 l -0.5938,-2.25 q 2.5,-1.45313 5.9688,-1.45313 1.375,0 2.6093,0.25 1.2344,0.23438 2.1719,0.84375 1.0781,0.67188 1.7031,1.90625 0.6407,1.21875 0.6407,3.04688 v 11.6875 z m -6.6094,-1.75 q 1.5313,0 3.25,-0.96875 1.7188,-0.98438 2.7969,-2.8125 v -3.46875 h -0.3281 q -1.5313,0 -3.0625,0.125 -1.5313,0.10937 -2.7813,0.5625 -1.25,0.4375 -2.0469,1.28125 -0.7812,0.82812 -0.7812,2.29687 0,1.45313 0.7969,2.21875 0.8125,0.76563 2.1562,0.76563 z m 15.0895,-13.67188 h -2.875 v -1.375 l 2.9375,-0.375 0.5625,-5.1875 h 1.9844 v 5.1875 h 4.0312 v 1.75 h -4.0312 v 11.90625 q 0,1.20313 0.3437,1.57813 0.3594,0.375 1.1094,0.375 0.8594,0 1.5312,-0.26563 0.6719,-0.26562 1.1875,-0.64062 l 0.5313,1.98437 q -0.6406,0.29688 -1.6719,0.59375 -1.0156,0.29688 -2.25,0.29688 -1.2031,0 -1.875,-0.34375 -0.6719,-0.32813 -1.0156,-0.875 -0.3281,-0.5625 -0.4219,-1.25 -0.078,-0.70313 -0.078,-1.375 z m 21.7931,15.42188 -0.2969,-3.0625 h -0.1563 q -0.4375,0.70312 -1.1875,1.34375 -0.75,0.64062 -1.6718,1.125 -0.9063,0.48437 -1.9688,0.76562 -1.0625,0.28125 -2.1094,0.28125 -2.4687,0 -3.7031,-1.4375 -1.2187,-1.4375 -1.2187,-3.60937 0,-2.125 1.0781,-3.39063 1.0781,-1.26562 2.6406,-1.90625 1.5781,-0.64062 3.3125,-0.82812 1.7344,-0.1875 3.0469,-0.1875 h 1.6719 v -0.4375 q 0,-1.42188 -0.3907,-2.17188 -0.3906,-0.75 -1.1406,-1.26562 -0.625,-0.40625 -1.3594,-0.57813 -0.7343,-0.17187 -1.9218,-0.17187 -1.5625,0 -2.7657,0.42187 -1.1875,0.40625 -2.3125,1.07813 l -0.5937,-2.25 q 2.5,-1.45313 5.9687,-1.45313 1.375,0 2.6094,0.25 1.2344,0.23438 2.1719,0.84375 1.0781,0.67188 1.7031,1.90625 0.6406,1.21875 0.6406,3.04688 v 11.6875 z m -6.6094,-1.75 q 1.5312,0 3.25,-0.96875 1.7187,-0.98438 2.7969,-2.8125 v -3.46875 h -0.3282 q -1.5312,0 -3.0625,0.125 -1.5312,0.10937 -2.7812,0.5625 -1.25,0.4375 -2.0469,1.28125 -0.7812,0.82812 -0.7812,2.29687 0,1.45313 0.7968,2.21875 0.8125,0.76563 2.1563,0.76563 z"
     id="path41"
     style="fill:#ffffff;fill-rule:nonzero" />
</svg>
