<?xml version="1.0" encoding="UTF-8"?>
<svg fill="none" stroke-linecap="square" stroke-miterlimit="10" version="1.1" viewBox="0 0 806.03 430.53" xmlns="http://www.w3.org/2000/svg">
<path d="m2 73.09c0-39.262 31.828-71.09 71.09-71.09h659.85c18.854 0 36.936 7.4898 50.268 20.822 13.332 13.332 20.822 31.414 20.822 50.268v284.35c0 39.262-31.828 71.09-71.09 71.09h-659.85c-39.262 0-71.09-31.828-71.09-71.09z" fill-opacity="0"/>
<path d="m2 73.09c0-39.262 31.828-71.09 71.09-71.09h659.85c18.854 0 36.936 7.4898 50.268 20.822 13.332 13.332 20.822 31.414 20.822 50.268v284.35c0 39.262-31.828 71.09-71.09 71.09h-659.85c-39.262 0-71.09-31.828-71.09-71.09z" fill-rule="evenodd" stroke="#fff" stroke-dasharray="4, 12" stroke-linejoin="round" stroke-width="4"/>
<path d="m137.49 63.367c0-10.403 8.4331-18.836 18.836-18.836h179.85c4.9955 0 9.7866 1.9845 13.319 5.5169 3.5323 3.5324 5.5168 8.3234 5.5168 13.319v75.341c0 10.403-8.4331 18.836-18.836 18.836h-179.85c-10.403 0-18.836-8.4331-18.836-18.836z" fill="#8ea7c8" fill-rule="evenodd"/>
<path d="m186.17 75.228-5.9531 17.469h-3.0469l-8.3125-21.125h2.7188l7.1094 18.078 6.1719-18.078h2.7188l6.5625 18.016 6.4375-18.016h2.5469l-7.5156 21.125h-3.0312zm25.029 2.2656q2.8125 0 4.3438 1.4219 1.5312 1.4219 1.5312 4.0156 0 0.54687-0.0625 1.1094t-0.21875 0.8125h-10.781v0.32813q0 1.2188 0.3125 2.3438 0.32813 1.1094 0.96875 1.9688 0.64063 0.85937 1.6094 1.375 0.98437 0.51562 2.3281 0.51562 0.76563 0 1.5-0.17187 0.73438-0.17188 1.4062-0.4375 0.67188-0.28125 1.25-0.59375 0.57813-0.32813 1.0156-0.65625l0.39062 1.8281q-0.42187 0.25-1.0312 0.5625-0.59375 0.29688-1.3438 0.5625-0.73437 0.25-1.6094 0.42188-0.875 0.1875-1.8438 0.1875-1.7812 0-3.1719-0.625-1.375-0.625-2.2969-1.7031-0.92188-1.0781-1.4062-2.4844-0.48438-1.4062-0.48438-2.9375 0-1.5625 0.5-2.9844 0.5-1.4375 1.4531-2.5156 0.96875-1.0938 2.3906-1.7188 1.4219-0.625 3.25-0.625zm-0.10937 1.7969q-2.1094 0-3.2812 1.1094-1.1562 1.0938-1.5781 2.7656h8.7344q0.0312-0.17187 0.0312-0.29687t0-0.28125q0-0.79688-0.32813-1.4219-0.3125-0.625-0.85937-1.0312-0.53125-0.42187-1.2344-0.625-0.70312-0.21875-1.4844-0.21875zm17.966 13.797q-2.0469 0-3.5312-0.90625-1.4688-0.92188-2.2344-2.1094h-0.125l-0.26563 2.625h-1.75v-23.687h2.2344v11.719q0.42187-1.375 1.8281-2.2969 1.4062-0.9375 3.4844-0.9375 1.7031 0 2.9688 0.64062 1.2812 0.64063 2.125 1.7188 0.85937 1.0625 1.2812 2.5156 0.4375 1.4375 0.4375 3 0 1.5312-0.40625 2.9219-0.39063 1.3906-1.1875 2.4531-0.79688 1.0625-2.0156 1.7031-1.2188 0.64063-2.8438 0.64063zm-0.26562-1.8906q1.2188 0 2.0469-0.51562 0.84375-0.51563 1.3438-1.3281 0.51563-0.8125 0.73438-1.8281 0.23437-1.0312 0.23437-2.0625 0-1.3438-0.34375-2.4531-0.32812-1.125-0.9375-1.9219-0.60937-0.8125-1.5156-1.25-0.89063-0.45313-1.9688-0.45313-1.7031 0-3.0625 1.0312-1.3594 1.0156-1.9375 2.8438v4.7031q0.92187 1.5312 2.3906 2.3906 1.4844 0.84375 3.0156 0.84375zm15.072-11.906q-1.5312 0-2.2188 0.5625t-0.6875 1.5156q0 0.3125 0.0937 0.67187 0.0937 0.35938 0.35937 0.65625 0.28125 0.29688 0.73438 0.57813 0.46875 0.26562 1.25 0.4375l2.2656 0.5q1.3438 0.29687 2.1562 0.79687 0.8125 0.48438 1.2656 1.0625 0.45312 0.57813 0.59375 1.1719 0.14062 0.59375 0.14062 1.0938 0 1-0.40625 1.875-0.39062 0.85937-1.1406 1.5-0.75 0.625-1.8438 1t-2.4375 0.375q-1.6875 0-3.125-0.5t-2.3125-1.1094l0.57812-2.0781q1.1562 1.0625 2.5625 1.5469 1.4062 0.46875 2.5312 0.46875 1.5938 0 2.4219-0.78125 0.84375-0.78125 0.84375-1.6562 0-0.28125-0.0312-0.64062-0.0312-0.375-0.26563-0.75-0.21875-0.39063-0.67187-0.71875-0.4375-0.34375-1.2812-0.54688l-3.0625-0.76562q-1.0625-0.25-1.7344-0.65625-0.67187-0.42188-1.0625-0.92188-0.375-0.5-0.54687-1.0625-0.15625-0.5625-0.15625-1.125 0-1.9531 1.4531-3.125 1.4688-1.1719 3.8906-1.1719 1.25 0 2.6875 0.34375 1.4531 0.32812 2.4375 0.96875l-0.60938 1.9219q-0.64062-0.54687-1.9062-0.98437-1.2656-0.45313-2.7656-0.45313zm16.393-1.7969q2.8125 0 4.3437 1.4219 1.5312 1.4219 1.5312 4.0156 0 0.54687-0.0625 1.1094t-0.21875 0.8125h-10.781v0.32813q0 1.2188 0.3125 2.3438 0.32812 1.1094 0.96875 1.9688 0.64062 0.85937 1.6094 1.375 0.98438 0.51562 2.3281 0.51562 0.76562 0 1.5-0.17187 0.73434-0.17188 1.4062-0.4375 0.67187-0.28125 1.25-0.59375 0.57812-0.32813 1.0156-0.65625l0.39063 1.8281q-0.42188 0.25-1.0312 0.5625-0.59375 0.29688-1.3438 0.5625-0.73438 0.25-1.6094 0.42188-0.875 0.1875-1.8438 0.1875-1.7812 0-3.1719-0.625-1.375-0.625-2.2969-1.7031-0.92187-1.0781-1.4062-2.4844-0.48437-1.4062-0.48437-2.9375 0-1.5625 0.5-2.9844 0.5-1.4375 1.4531-2.5156 0.96875-1.0938 2.3906-1.7188 1.4219-0.625 3.25-0.625zm-0.10938 1.7969q-2.1094 0-3.2812 1.1094-1.1562 1.0938-1.5781 2.7656h8.7343q0.0312-0.17187 0.0312-0.29687t0-0.28125q0-0.79688-0.32812-1.4219-0.3125-0.625-0.85938-1.0312-0.53125-0.42187-1.2343-0.625-0.70313-0.21875-1.4844-0.21875zm17.997 1.0469q-0.51562-0.28125-1.0312-0.45313-0.51562-0.17187-0.98437-0.17187-0.64063 0-1.2188 0.35937-0.57813 0.34375-1.0625 0.95313-0.48438 0.59375-0.85938 1.4062-0.35937 0.79687-0.54687 1.6562v8.6094h-2.2344v-14.719h1.75l0.26563 3.2344h0.125q0.21875-0.73438 0.57812-1.4062 0.375-0.67188 0.90625-1.1875 0.53125-0.51563 1.2031-0.8125 0.67187-0.3125 1.5312-0.3125 0.60937 0 1.2812 0.21875 0.67187 0.20312 0.96875 0.51562zm10.752 12.359h-2.8594l-6.6875-14.719h2.4375l5.7344 12.609 5.7188-12.609h2.3438zm15.84-15.203q2.8125 0 4.3438 1.4219 1.5312 1.4219 1.5312 4.0156 0 0.54687-0.0625 1.1094t-0.21875 0.8125h-10.781v0.32813q0 1.2188 0.3125 2.3438 0.32812 1.1094 0.96875 1.9688 0.64062 0.85937 1.6094 1.375 0.98438 0.51562 2.3281 0.51562 0.76562 0 1.5-0.17187 0.73437-0.17188 1.4062-0.4375 0.67187-0.28125 1.25-0.59375 0.57812-0.32813 1.0156-0.65625l0.39063 1.8281q-0.42188 0.25-1.0312 0.5625-0.59375 0.29688-1.3438 0.5625-0.73438 0.25-1.6094 0.42188-0.875 0.1875-1.8438 0.1875-1.7812 0-3.1719-0.625-1.375-0.625-2.2969-1.7031-0.92187-1.0781-1.4062-2.4844-0.48437-1.4062-0.48437-2.9375 0-1.5625 0.5-2.9844 0.5-1.4375 1.4531-2.5156 0.96875-1.0938 2.3906-1.7188 1.4219-0.625 3.25-0.625zm-0.10938 1.7969q-2.1094 0-3.2812 1.1094-1.1562 1.0938-1.5781 2.7656h8.7344q0.0312-0.17187 0.0312-0.29687t0-0.28125q0-0.79688-0.32812-1.4219-0.3125-0.625-0.85938-1.0312-0.53125-0.42187-1.2344-0.625-0.70313-0.21875-1.4844-0.21875zm17.997 1.0469q-0.51563-0.28125-1.0312-0.45313-0.51563-0.17187-0.98438-0.17187-0.64062 0-1.2188 0.35937-0.57812 0.34375-1.0625 0.95313-0.48437 0.59375-0.85937 1.4062-0.35938 0.79687-0.54688 1.6562v8.6094h-2.2344v-14.719h1.75l0.26562 3.2344h0.125q0.21875-0.73438 0.57813-1.4062 0.375-0.67188 0.90625-1.1875 0.53125-0.51563 1.2031-0.8125 0.67188-0.3125 1.5312-0.3125 0.60938 0 1.2812 0.21875 0.67188 0.20312 0.96875 0.51562z" fill="#fff"/>
<path d="m197.32 110.1q-1.0156-0.67188-2.5312-1.125-1.5-0.45313-3.4219-0.45313-2.1406 0-3.6094 0.625t-2.3906 1.75q-0.90625 1.1094-1.3125 2.7031-0.39062 1.5781-0.39062 3.5 0 4.3906 1.9062 6.625 1.9219 2.2344 5.7344 2.2344 2.0156 0 3.7031-0.5625 1.7031-0.57812 2.7344-1.4219l0.64063 2.1562q-1.2812 0.76562-3.0938 1.3594t-4.0781 0.59375q-2.625 0-4.5469-0.85937-1.9219-0.875-3.1875-2.3438-1.25-1.4688-1.8594-3.4062-0.60937-1.9375-0.60937-4.125 0-2.2656 0.67187-4.25 0.67188-1.9844 2-3.4688 1.3281-1.4844 3.2969-2.3438 1.9688-0.875 4.5938-0.875 1.7188 0 3.4375 0.375 1.7344 0.35937 2.9844 1zm10.973 2.3906q1.9531 0 3.3594 0.65625 1.4219 0.65625 2.3281 1.7656 0.90625 1.0938 1.3438 2.5312 0.4375 1.4219 0.4375 2.9844t-0.4375 2.9688q-0.4375 1.3906-1.3281 2.4375-0.89063 1.0312-2.2969 1.6406-1.3906 0.60937-3.2656 0.60937-1.9531 0-3.3906-0.64062-1.4219-0.64063-2.3438-1.7188-0.92187-1.0781-1.375-2.4844-0.45312-1.4062-0.45312-2.9688t0.45312-2.9688q0.45313-1.4219 1.3594-2.4844 0.90625-1.0781 2.3125-1.7031 1.4219-0.625 3.2969-0.625zm0.10938 13.891q1.2812 0 2.2188-0.46875 0.9375-0.48438 1.5625-1.2969 0.625-0.82812 0.90625-1.8906 0.29687-1.0781 0.29687-2.2656 0-1.2188-0.3125-2.3281-0.29687-1.125-0.9375-1.9688-0.64062-0.85938-1.625-1.3594-0.96875-0.51562-2.3125-0.51562-1.3125 0-2.2344 0.48437-0.92188 0.46875-1.5312 1.2812-0.60938 0.79688-0.90625 1.875-0.28125 1.0625-0.28125 2.25 0 1.2188 0.29687 2.3438 0.3125 1.1094 0.9375 1.9688 0.625 0.85938 1.5938 1.375 0.98438 0.51563 2.3281 0.51563zm21.718 1.3125v-9.7344q0-1.9062-0.85937-2.7344-0.85938-0.84375-2.2031-0.84375-0.8125 0-1.5938 0.26562-0.78125 0.25-1.4531 0.75-0.67188 0.48438-1.1875 1.2031-0.5 0.71875-0.79688 1.6562v9.4375h-2.2344v-14.719h1.75l0.26562 2.75h0.125q0.42188-1.3438 1.8594-2.2812 1.4375-0.95313 3.5781-0.95313 1.0312 0 1.9375 0.28125 0.90625 0.26563 1.5781 0.875 0.67187 0.60938 1.0781 1.6094 0.40625 0.98437 0.40625 2.4219v10.016zm7.7838-13.219h-2.4688v-1.1875l2.5312-0.3125 0.48438-4.4531h1.6875v4.4531h3.4531v1.5h-3.4531v10.203q0 1.0312 0.29687 1.3594 0.3125 0.3125 0.95313 0.3125 0.73437 0 1.3125-0.21875 0.57812-0.23438 1.0156-0.54688l0.45313 1.6875q-0.54688 0.26563-1.4219 0.51563-0.875 0.26562-1.9375 0.26562-1.0156 0-1.5938-0.29687-0.57812-0.28125-0.875-0.76563-0.28125-0.48437-0.35937-1.0781-0.0781-0.59375-0.0781-1.1562zm18.688 13.219-0.26562-2.625h-0.125q-0.375 0.60937-1.0156 1.1562-0.64062 0.54687-1.4375 0.96875-0.78125 0.40625-1.6875 0.64062-0.90625 0.25-1.8125 0.25-2.1094 0-3.1719-1.2344-1.0469-1.2344-1.0469-3.0938 0-1.8281 0.92188-2.9062 0.9375-1.0938 2.2812-1.6406 1.3438-0.54687 2.8281-0.70312 1.4844-0.15625 2.6094-0.15625h1.4375v-0.39063q0-1.2031-0.34375-1.8438-0.32813-0.64062-0.96875-1.0938-0.54688-0.35937-1.1719-0.5-0.625-0.14062-1.6406-0.14062-1.3438 0-2.375 0.35937-1.0156 0.34375-1.9844 0.92188l-0.5-1.9219q2.1406-1.25 5.1094-1.25 1.1875 0 2.2344 0.21875 1.0625 0.20313 1.8594 0.71875 0.9375 0.5625 1.4688 1.625 0.54687 1.0625 0.54687 2.625v10.016zm-5.6719-1.5q1.3125 0 2.7812-0.82813 1.4844-0.84375 2.4062-2.4062v-2.9844h-0.28125q-1.3125 0-2.625 0.10937-1.3125 0.0937-2.3906 0.48438-1.0781 0.375-1.75 1.0938-0.67187 0.71875-0.67187 1.9688t0.6875 1.9062q0.70312 0.65625 1.8438 0.65625zm14.498 1.5h-2.2344v-14.719h2.2344zm-2.7188-20.094q0-0.64063 0.45313-1.1562 0.46875-0.51563 1.1406-0.51563 0.64063 0 1.1562 0.51563 0.51563 0.51562 0.51563 1.1562 0 0.67187-0.51563 1.1406-0.51562 0.45313-1.1562 0.45313-0.67187 0-1.1406-0.45313-0.45313-0.46875-0.45313-1.1406zm18.045 20.094v-9.7344q0-1.9062-0.85938-2.7344-0.85937-0.84375-2.2031-0.84375-0.8125 0-1.5938 0.26562-0.78125 0.25-1.4531 0.75-0.67187 0.48438-1.1875 1.2031-0.5 0.71875-0.79687 1.6562v9.4375h-2.2344v-14.719h1.75l0.26563 2.75h0.125q0.42187-1.3438 1.8594-2.2812 1.4375-0.95313 3.5781-0.95313 1.0312 0 1.9375 0.28125 0.90625 0.26563 1.5781 0.875 0.67188 0.60938 1.0781 1.6094 0.40625 0.98437 0.40625 2.4219v10.016zm13.706-15.203q2.8125 0 4.3438 1.4219 1.5312 1.4219 1.5312 4.0156 0 0.54688-0.0625 1.1094t-0.21875 0.8125h-10.781v0.32812q0 1.2188 0.3125 2.3438 0.32813 1.1094 0.96875 1.9688 0.64063 0.85938 1.6094 1.375 0.98437 0.51563 2.3281 0.51563 0.76563 0 1.5-0.17188 0.73438-0.17187 1.4062-0.4375 0.67188-0.28125 1.25-0.59375 0.57813-0.32812 1.0156-0.65625l0.39062 1.8281q-0.42187 0.25-1.0312 0.5625-0.59375 0.29687-1.3438 0.5625-0.73437 0.25-1.6094 0.42187-0.875 0.1875-1.8438 0.1875-1.7812 0-3.1719-0.625-1.375-0.625-2.2969-1.7031-0.92188-1.0781-1.4062-2.4844-0.48438-1.4062-0.48438-2.9375 0-1.5625 0.5-2.9844 0.5-1.4375 1.4531-2.5156 0.96875-1.0938 2.3906-1.7188 1.4219-0.625 3.25-0.625zm-0.10937 1.7969q-2.1094 0-3.2812 1.1094-1.1562 1.0938-1.5781 2.7656h8.7344q0.0312-0.17188 0.0312-0.29688t0-0.28125q0-0.79687-0.32813-1.4219-0.3125-0.625-0.85937-1.0312-0.53125-0.42188-1.2344-0.625-0.70312-0.21875-1.4844-0.21875zm17.997 1.0469q-0.51562-0.28125-1.0312-0.45312-0.51562-0.17188-0.98437-0.17188-0.64063 0-1.2188 0.35938-0.57813 0.34375-1.0625 0.95312-0.48438 0.59375-0.85938 1.4062-0.35937 0.79688-0.54687 1.6562v8.6094h-2.2344v-14.719h1.75l0.26563 3.2344h0.125q0.21875-0.73437 0.57812-1.4062 0.375-0.67187 0.90625-1.1875 0.53125-0.51562 1.2031-0.8125 0.67187-0.3125 1.5312-0.3125 0.60937 0 1.2812 0.21875 0.67187 0.20313 0.96875 0.51563z" fill="#fff"/>
<path d="m450.85 64.762c0-10.403 8.433-18.836 18.836-18.836h179.85c4.9956 0 9.7866 1.9845 13.319 5.5169 3.5323 3.5324 5.5168 8.3234 5.5168 13.319v75.341c0 10.403-8.433 18.836-18.836 18.836h-179.85c-10.403 0-18.836-8.4331-18.836-18.836z" fill="#8ea7c8" fill-rule="evenodd"/>
<path d="m518.39 92.325q-1.4375 0.96875-3.2812 1.5625t-4.1094 0.59375q-2.625 0-4.5469-0.85937-1.9219-0.875-3.1875-2.3438-1.25-1.4688-1.8594-3.4062-0.60937-1.9375-0.60937-4.125 0-2.2656 0.67187-4.25 0.67188-1.9844 2-3.4688 1.3281-1.4844 3.2969-2.3438 1.9688-0.875 4.5938-0.875 1.8438 0 3.6094 0.375 1.7656 0.35937 3.1406 1l-0.67188 2.3125q-1.0312-0.67188-2.6562-1.125-1.6094-0.45313-3.625-0.45313-2.1406 0-3.6094 0.625t-2.3906 1.75q-0.90625 1.1094-1.3125 2.7032-0.39062 1.5781-0.39062 3.5 0 4.3906 1.9062 6.625 1.9219 2.2344 5.7344 2.2344 1.4062 0 2.6406-0.28125 1.2344-0.28125 2.2656-0.73437v-5.9531h2.3906zm6.8165 1.7656h-2.2344v-14.719h2.2344zm-2.7188-20.094q0-0.64062 0.45312-1.1562 0.46875-0.51562 1.1406-0.51562 0.64062 0 1.1562 0.51562 0.51562 0.51563 0.51562 1.1562 0 0.67188-0.51562 1.1406-0.51563 0.45312-1.1562 0.45312-0.67188 0-1.1406-0.45312-0.45312-0.46875-0.45312-1.1406zm8.3883 6.875h-2.4688v-1.1875l2.5312-0.3125 0.48438-4.4531h1.6875v4.4531h3.4531v1.5h-3.4531v10.203q0 1.0312 0.29687 1.3594 0.3125 0.3125 0.95313 0.3125 0.73437 0 1.3125-0.21875 0.57812-0.23438 1.0156-0.54688l0.45313 1.6875q-0.54688 0.26563-1.4219 0.51563-0.875 0.26562-1.9375 0.26562-1.0156 0-1.5938-0.29687-0.57812-0.28125-0.875-0.76563-0.28125-0.48437-0.35937-1.0781-0.0781-0.59375-0.0781-1.1562zm19.106-2.8125q0 0.79687 0.29688 1.3281 0.3125 0.53125 0.96875 0.95313 0.65625 0.40625 1.6562 0.78125 1.0156 0.35937 2.4219 0.84375 1.1719 0.375 2.3281 0.875t2.0625 1.2188q0.92187 0.71875 1.4531 1.7969 0.54688 1.0625 0.54688 2.6094 0 1.625-0.64063 2.7812-0.64062 1.1406-1.7031 1.875-1.0469 0.71875-2.4219 1.0312-1.375 0.32812-2.8438 0.32812-2.0781 0-3.875-0.51562-1.7969-0.51563-3.1094-1.25l0.67187-2.3438q0.60938 0.42187 1.2188 0.79687 0.60938 0.35938 1.3281 0.625 0.71875 0.25 1.5781 0.40625 0.875 0.15625 2 0.15625 1.4375 0 2.4531-0.25 1.0312-0.25 1.6719-0.71875 0.64063-0.46875 0.92188-1.1094 0.29687-0.64063 0.29687-1.375 0-1.0781-0.51562-1.8281-0.51563-0.76562-1.3281-1.2969-0.8125-0.54688-1.7969-0.90625-0.96875-0.375-1.9375-0.70313-1.375-0.45312-2.5-0.95312-1.1094-0.51563-1.9062-1.2188-0.78125-0.70313-1.2188-1.625-0.42188-0.9375-0.42188-2.2188 0-1.4375 0.53125-2.4375 0.53125-1.0156 1.4375-1.6562 0.90625-0.64062 2.1562-0.9375 1.25-0.3125 2.6875-0.3125 1.7344 0 3.3281 0.35938 1.6094 0.34375 2.7188 0.85937l-0.67188 2.4688q-0.5-0.45312-1.1875-0.75-0.6875-0.3125-1.4531-0.48437-0.75-0.1875-1.4844-0.26563-0.73437-0.0781-1.375-0.0781-2.0156 0-3.1875 0.76562-1.1562 0.75-1.1562 2.375zm22.167 16.156q-0.48437 1.0312-1.1562 2.4219-0.67187 1.3906-1.5938 2.6406-0.92187 1.25-2.1719 2.125t-2.8125 0.875q-0.26563 0-0.39063-0.0156t-0.28125-0.0781l-0.42187-2.1094q0.0937 0.0312 0.21875 0.0625 0.125 0.0312 0.45312 0.0312 0.64063 0 1.2031-0.125t1.0938-0.51562q1.125-0.79688 2.0312-2.3438 0.92187-1.5312 1.6562-3.5781l-7.3594-14.234h2.6562l5.8594 12.25 5.25-12.25h2.5156zm19.967-0.125v-9.7344q0-1.9062-0.85937-2.7344-0.85938-0.84375-2.2031-0.84375-0.8125 0-1.5938 0.26562-0.78125 0.25-1.4531 0.75-0.67188 0.48438-1.1875 1.2031-0.5 0.71875-0.79688 1.6562v9.4375h-2.2344v-14.719h1.75l0.26562 2.75h0.125q0.42188-1.3438 1.8594-2.2812 1.4375-0.95313 3.5781-0.95313 1.0312 0 1.9375 0.28125 0.90625 0.26563 1.5781 0.875 0.67187 0.60938 1.0781 1.6094 0.40625 0.98437 0.40625 2.4219v10.016zm18.596-12.031q-0.73437-0.54688-2.1094-0.96875-1.375-0.4375-2.75-0.4375-1.4062 0-2.3906 0.48437-0.96875 0.46875-1.6094 1.2812-0.64063 0.79688-0.9375 1.8438-0.28125 1.0312-0.28125 2.1406 0 1.25 0.34375 2.4062 0.35937 1.1562 1.0469 2.0156 0.6875 0.85938 1.6875 1.375 1.0156 0.51563 2.3594 0.51563 1.2812 0 2.6406-0.54688 1.3594-0.54687 2.25-1.375l0.45313 2.0781q-0.89063 0.57812-2.4531 1.0938-1.5469 0.51562-3.3125 0.51562-1.8438 0-3.25-0.64062-1.3906-0.64063-2.2969-1.7188-0.90625-1.0781-1.375-2.5-0.46875-1.4219-0.46875-3.0156 0-1.5469 0.4375-2.9375 0.4375-1.3906 1.3594-2.4531 0.92188-1.0781 2.3594-1.7031 1.4531-0.625 3.4688-0.625 1.5312 0 3 0.35938 1.4688 0.34375 2.375 0.92187zm4.2813 10.906q0-0.60938 0.42188-1.0625 0.42187-0.46875 1.0625-0.46875 0.60937 0 1.0625 0.46875 0.46875 0.45312 0.46875 1.0625 0 0.60937-0.46875 1.0469-0.45313 0.4375-1.0625 0.4375-0.64063 0-1.0625-0.4375-0.42188-0.4375-0.42188-1.0469z" fill="#fff"/>
<path d="m510.67 111.5q-1.0156-0.67188-2.5312-1.125-1.5-0.45313-3.4219-0.45313-2.1406 0-3.6094 0.625t-2.3906 1.75q-0.90625 1.1094-1.3125 2.7031-0.39062 1.5781-0.39062 3.5 0 4.3906 1.9062 6.625 1.9219 2.2344 5.7344 2.2344 2.0156 0 3.7031-0.5625 1.7031-0.57812 2.7344-1.4219l0.64063 2.1562q-1.2812 0.76562-3.0938 1.3594t-4.0781 0.59375q-2.625 0-4.5469-0.85937-1.9219-0.875-3.1875-2.3438-1.25-1.4688-1.8594-3.4062-0.60937-1.9375-0.60937-4.125 0-2.2656 0.67187-4.25 0.67188-1.9844 2-3.4688 1.3281-1.4844 3.2969-2.3438 1.9688-0.875 4.5938-0.875 1.7188 0 3.4375 0.375 1.7344 0.35937 2.9844 1zm10.973 2.3906q1.9531 0 3.3594 0.65625 1.4219 0.65625 2.3281 1.7656 0.90625 1.0938 1.3438 2.5312 0.4375 1.4219 0.4375 2.9844t-0.4375 2.9688q-0.4375 1.3906-1.3281 2.4375-0.89063 1.0312-2.2969 1.6406-1.3906 0.60937-3.2656 0.60937-1.9531 0-3.3906-0.64062-1.4219-0.64063-2.3438-1.7188-0.92187-1.0781-1.375-2.4844-0.45312-1.4062-0.45312-2.9688t0.45312-2.9688q0.45313-1.4219 1.3594-2.4844 0.90625-1.0781 2.3125-1.7031 1.4219-0.625 3.2969-0.625zm0.10938 13.891q1.2812 0 2.2188-0.46875 0.9375-0.48438 1.5625-1.2969 0.625-0.82812 0.90625-1.8906 0.29687-1.0781 0.29687-2.2656 0-1.2188-0.3125-2.3281-0.29687-1.125-0.9375-1.9688-0.64062-0.85938-1.625-1.3594-0.96875-0.51562-2.3125-0.51562-1.3125 0-2.2344 0.48437-0.92188 0.46875-1.5312 1.2812-0.60938 0.79688-0.90625 1.875-0.28125 1.0625-0.28125 2.25 0 1.2188 0.29687 2.3438 0.3125 1.1094 0.9375 1.9688 0.625 0.85938 1.5938 1.375 0.98438 0.51563 2.3281 0.51563zm21.718 1.3125v-9.7344q0-1.9062-0.85937-2.7344-0.85938-0.84375-2.2031-0.84375-0.8125 0-1.5938 0.26562-0.78125 0.25-1.4531 0.75-0.67188 0.48438-1.1875 1.2031-0.5 0.71875-0.79688 1.6562v9.4375h-2.2344v-14.719h1.75l0.26562 2.75h0.125q0.42188-1.3438 1.8594-2.2812 1.4375-0.95313 3.5781-0.95313 1.0312 0 1.9375 0.28125 0.90625 0.26563 1.5781 0.875 0.67187 0.60938 1.0781 1.6094 0.40625 0.98437 0.40625 2.4219v10.016zm7.7838-13.219h-2.4688v-1.1875l2.5312-0.3125 0.48438-4.4531h1.6875v4.4531h3.4531v1.5h-3.4531v10.203q0 1.0312 0.29687 1.3594 0.3125 0.3125 0.95313 0.3125 0.73437 0 1.3125-0.21875 0.57812-0.23438 1.0156-0.54688l0.45313 1.6875q-0.54688 0.26563-1.4219 0.51563-0.875 0.26562-1.9375 0.26562-1.0156 0-1.5938-0.29687-0.57812-0.28125-0.875-0.76563-0.28125-0.48437-0.35937-1.0781-0.0781-0.59375-0.0781-1.1562zm18.688 13.219-0.26563-2.625h-0.125q-0.375 0.60937-1.0156 1.1562-0.64063 0.54687-1.4375 0.96875-0.78125 0.40625-1.6875 0.64062-0.90625 0.25-1.8125 0.25-2.1094 0-3.1719-1.2344-1.0469-1.2344-1.0469-3.0938 0-1.8281 0.92187-2.9062 0.9375-1.0938 2.2812-1.6406 1.3438-0.54687 2.8281-0.70312 1.4844-0.15625 2.6094-0.15625h1.4375v-0.39063q0-1.2031-0.34375-1.8438-0.32812-0.64062-0.96875-1.0938-0.54687-0.35937-1.1719-0.5-0.625-0.14062-1.6406-0.14062-1.3438 0-2.375 0.35937-1.0156 0.34375-1.9844 0.92188l-0.5-1.9219q2.1406-1.25 5.1094-1.25 1.1875 0 2.2344 0.21875 1.0625 0.20313 1.8594 0.71875 0.9375 0.5625 1.4688 1.625 0.54688 1.0625 0.54688 2.625v10.016zm-5.6719-1.5q1.3125 0 2.7812-0.82813 1.4844-0.84375 2.4062-2.4062v-2.9844h-0.28125q-1.3125 0-2.625 0.10937-1.3125 0.0937-2.3906 0.48438-1.0781 0.375-1.75 1.0938-0.67188 0.71875-0.67188 1.9688t0.6875 1.9062q0.70313 0.65625 1.8438 0.65625zm14.499 1.5h-2.2344v-14.719h2.2344zm-2.7188-20.094q0-0.64063 0.45312-1.1562 0.46875-0.51563 1.1406-0.51563 0.64062 0 1.1562 0.51563 0.51562 0.51562 0.51562 1.1562 0 0.67187-0.51562 1.1406-0.51563 0.45313-1.1562 0.45313-0.67188 0-1.1406-0.45313-0.45312-0.46875-0.45312-1.1406zm18.045 20.094v-9.7344q0-1.9062-0.85938-2.7344-0.85937-0.84375-2.2031-0.84375-0.8125 0-1.5938 0.26562-0.78125 0.25-1.4531 0.75-0.67187 0.48438-1.1875 1.2031-0.5 0.71875-0.79687 1.6562v9.4375h-2.2344v-14.719h1.75l0.26563 2.75h0.125q0.42187-1.3438 1.8594-2.2812 1.4375-0.95313 3.5781-0.95313 1.0312 0 1.9375 0.28125 0.90625 0.26563 1.5781 0.875 0.67188 0.60938 1.0781 1.6094 0.40625 0.98437 0.40625 2.4219v10.016zm13.706-15.203q2.8125 0 4.3438 1.4219 1.5312 1.4219 1.5312 4.0156 0 0.54688-0.0625 1.1094t-0.21875 0.8125h-10.781v0.32812q0 1.2188 0.3125 2.3438 0.32813 1.1094 0.96875 1.9688 0.64063 0.85938 1.6094 1.375 0.98437 0.51563 2.3281 0.51563 0.76563 0 1.5-0.17188 0.73438-0.17187 1.4062-0.4375 0.67188-0.28125 1.25-0.59375 0.57813-0.32812 1.0156-0.65625l0.39062 1.8281q-0.42187 0.25-1.0312 0.5625-0.59375 0.29687-1.3438 0.5625-0.73437 0.25-1.6094 0.42187-0.875 0.1875-1.8438 0.1875-1.7812 0-3.1719-0.625-1.375-0.625-2.2969-1.7031-0.92188-1.0781-1.4062-2.4844-0.48438-1.4062-0.48438-2.9375 0-1.5625 0.5-2.9844 0.5-1.4375 1.4531-2.5156 0.96875-1.0938 2.3906-1.7188 1.4219-0.625 3.25-0.625zm-0.10937 1.7969q-2.1094 0-3.2812 1.1094-1.1562 1.0938-1.5781 2.7656h8.7344q0.0312-0.17188 0.0312-0.29688t0-0.28125q0-0.79687-0.32813-1.4219-0.3125-0.625-0.85937-1.0312-0.53125-0.42188-1.2344-0.625-0.70312-0.21875-1.4844-0.21875zm17.997 1.0469q-0.51563-0.28125-1.0312-0.45312-0.51563-0.17188-0.98438-0.17188-0.64062 0-1.2188 0.35938-0.57812 0.34375-1.0625 0.95312-0.48437 0.59375-0.85937 1.4062-0.35938 0.79688-0.54688 1.6562v8.6094h-2.2344v-14.719h1.75l0.26562 3.2344h0.125q0.21875-0.73437 0.57813-1.4062 0.375-0.67187 0.90625-1.1875 0.53125-0.51562 1.2031-0.8125 0.67188-0.3125 1.5312-0.3125 0.60938 0 1.2812 0.21875 0.67188 0.20313 0.96875 0.51563z" fill="#fff"/>
<path d="m246.25 157.54 156.76 98.425" fill-opacity="0"/>
<path d="m269.97 172.43 109.33 68.647" fill-rule="evenodd" stroke="#fff" stroke-linejoin="round" stroke-width="4.6667"/>
<path d="m274.07 165.91-22.034-4.7335 13.837 17.789z" fill="#fff" fill-rule="evenodd" stroke="#fff" stroke-width="4.6667"/>
<path d="m375.2 247.61 22.034 4.7335-13.837-17.789z" fill="#fff" fill-rule="evenodd" stroke="#fff" stroke-width="4.6667"/>
<path d="m559.61 158.94-156.6 97.039" fill-opacity="0"/>
<path d="m535.8 173.69-109 67.542" fill-rule="evenodd" stroke="#fff" stroke-linejoin="round" stroke-width="4.6667"/>
<path d="m539.86 180.24 13.942-17.707-22.062 4.603z" fill="#fff" fill-rule="evenodd" stroke="#fff" stroke-width="4.6667"/>
<path d="m422.75 234.68-13.942 17.707 22.062-4.603z" fill="#fff" fill-rule="evenodd" stroke="#fff" stroke-width="4.6667"/>
<path d="m313.84 275.11c0 10.57 39.925 19.139 89.174 19.139 49.25 0 89.175-8.5689 89.175-19.139v114.84c0 10.57-39.925 19.139-89.175 19.139-49.25 0-89.174-8.569-89.174-19.139z" fill="#8ea7c8" fill-rule="evenodd"/>
<path d="m313.84 275.11c0-10.57 39.925-19.139 89.174-19.139 49.25 0 89.175 8.5689 89.175 19.139 0 10.57-39.925 19.139-89.175 19.139-49.25 0-89.174-8.5689-89.174-19.139z" fill="#bbcade" fill-rule="evenodd"/>
<path d="m492.19 275.11c0 10.57-39.925 19.139-89.175 19.139-49.25 0-89.174-8.5689-89.174-19.139 0-10.57 39.925-19.139 89.174-19.139 49.25 0 89.175 8.5689 89.175 19.139v114.84c0 10.57-39.925 19.139-89.175 19.139-49.25 0-89.174-8.569-89.174-19.139v-114.84" fill-opacity="0"/>
<path d="m358.99 320.87q0 0.79687 0.29687 1.3281 0.3125 0.53125 0.96875 0.95313 0.65625 0.40625 1.6562 0.78125 1.0156 0.35937 2.4219 0.84375 1.1719 0.375 2.3281 0.875t2.0625 1.2188q0.92188 0.71875 1.4531 1.7969 0.54687 1.0625 0.54687 2.6094 0 1.625-0.64062 2.7812-0.64063 1.1406-1.7031 1.875-1.0469 0.71875-2.4219 1.0312-1.375 0.32813-2.8438 0.32813-2.0781 0-3.875-0.51563-1.7969-0.51562-3.1094-1.25l0.67188-2.3438q0.60937 0.42188 1.2188 0.79688 0.60937 0.35937 1.3281 0.625 0.71875 0.25 1.5781 0.40625 0.875 0.15625 2 0.15625 1.4375 0 2.4531-0.25 1.0312-0.25 1.6719-0.71875 0.64062-0.46875 0.92187-1.1094 0.29688-0.64062 0.29688-1.375 0-1.0781-0.51563-1.8281-0.51562-0.76563-1.3281-1.2969-0.8125-0.54687-1.7969-0.90625-0.96875-0.375-1.9375-0.70312-1.375-0.45313-2.5-0.95313-1.1094-0.51562-1.9062-1.2188-0.78125-0.70312-1.2188-1.625-0.42187-0.9375-0.42187-2.2188 0-1.4375 0.53125-2.4375 0.53125-1.0156 1.4375-1.6562 0.90625-0.64062 2.1562-0.9375 1.25-0.3125 2.6875-0.3125 1.7344 0 3.3281 0.35938 1.6094 0.34375 2.7188 0.85937l-0.67187 2.4688q-0.5-0.45312-1.1875-0.75-0.6875-0.3125-1.4531-0.48437-0.75-0.1875-1.4844-0.26563-0.73438-0.0781-1.375-0.0781-2.0156 0-3.1875 0.76562-1.1562 0.75-1.1562 2.375zm25.878 16.031v-9.7344q0-1.9531-0.85937-2.7656-0.85938-0.8125-2.2031-0.8125-0.8125 0-1.5938 0.26563-0.78125 0.25-1.4531 0.75-0.67188 0.48437-1.1875 1.2031-0.5 0.71875-0.79688 1.6562v9.4375h-2.2344v-23.688h2.2344v11.719q0.42188-1.3438 1.8125-2.2812 1.3906-0.95312 3.5312-0.95312 1.0312 0 1.9375 0.28125 0.90625 0.26562 1.5781 0.875 0.67187 0.60937 1.0781 1.6094 0.40625 0.98438 0.40625 2.4219v10.016zm16.456 0-0.26562-2.625h-0.125q-0.375 0.60938-1.0156 1.1562-0.64062 0.54688-1.4375 0.96875-0.78125 0.40625-1.6875 0.64063-0.90625 0.25-1.8125 0.25-2.1094 0-3.1719-1.2344-1.0469-1.2344-1.0469-3.0938 0-1.8281 0.92188-2.9062 0.9375-1.0938 2.2812-1.6406 1.3438-0.54688 2.8281-0.70313 1.4844-0.15625 2.6094-0.15625h1.4375v-0.39062q0-1.2031-0.34375-1.8438-0.32813-0.64063-0.96875-1.0938-0.54688-0.35938-1.1719-0.5-0.625-0.14063-1.6406-0.14063-1.3438 0-2.375 0.35938-1.0156 0.34375-1.9844 0.92187l-0.5-1.9219q2.1406-1.25 5.1094-1.25 1.1875 0 2.2344 0.21875 1.0625 0.20312 1.8594 0.71875 0.9375 0.5625 1.4688 1.625 0.54687 1.0625 0.54687 2.625v10.016zm-5.6719-1.5q1.3125 0 2.7812-0.82812 1.4844-0.84375 2.4062-2.4062v-2.9844h-0.28125q-1.3125 0-2.625 0.10938-1.3125 0.0937-2.3906 0.48437-1.0781 0.375-1.75 1.0938-0.67187 0.71875-0.67187 1.9688t0.6875 1.9062q0.70312 0.65625 1.8438 0.65625zm20.202-10.859q-0.51563-0.28125-1.0312-0.45313-0.51563-0.17187-0.98438-0.17187-0.64062 0-1.2188 0.35937-0.57812 0.34375-1.0625 0.95313-0.48437 0.59375-0.85937 1.4062-0.35938 0.79687-0.54688 1.6562v8.6094h-2.2344v-14.719h1.75l0.26562 3.2344h0.125q0.21875-0.73438 0.57813-1.4062 0.375-0.67188 0.90625-1.1875 0.53125-0.51563 1.2031-0.8125 0.67188-0.3125 1.5312-0.3125 0.60938 0 1.2812 0.21875 0.67188 0.20312 0.96875 0.51562zm9.7602-2.8438q2.8125 0 4.3438 1.4219 1.5312 1.4219 1.5312 4.0156 0 0.54687-0.0625 1.1094t-0.21875 0.8125h-10.781v0.32813q0 1.2188 0.3125 2.3438 0.32813 1.1094 0.96875 1.9688 0.64063 0.85937 1.6094 1.375 0.98437 0.51562 2.3281 0.51562 0.76563 0 1.5-0.17187 0.73438-0.17188 1.4062-0.4375 0.67188-0.28125 1.25-0.59375 0.57813-0.32813 1.0156-0.65625l0.39062 1.8281q-0.42187 0.25-1.0312 0.5625-0.59375 0.29688-1.3438 0.5625-0.73437 0.25-1.6094 0.42188-0.875 0.1875-1.8438 0.1875-1.7812 0-3.1719-0.625-1.375-0.625-2.2969-1.7031-0.92188-1.0781-1.4062-2.4844-0.48438-1.4062-0.48438-2.9375 0-1.5625 0.5-2.9844 0.5-1.4375 1.4531-2.5156 0.96875-1.0938 2.3906-1.7188 1.4219-0.625 3.25-0.625zm-0.10937 1.7969q-2.1094 0-3.2812 1.1094-1.1562 1.0938-1.5781 2.7656h8.7344q0.0312-0.17187 0.0312-0.29687t0-0.28125q0-0.79688-0.32813-1.4219-0.3125-0.625-0.85937-1.0312-0.53125-0.42187-1.2344-0.625-0.70312-0.21875-1.4844-0.21875zm15.56 13.797q-1.625 0-2.8438-0.64063-1.2188-0.64062-2.0156-1.7031-0.79687-1.0625-1.2031-2.4531-0.40625-1.3906-0.40625-2.9219 0-1.5625 0.4375-3 0.4375-1.4531 1.2812-2.5156 0.84375-1.0781 2.125-1.7188 1.2812-0.64062 2.9844-0.64062 2.1406 0 3.5156 0.9375 1.375 0.92187 1.7812 2.2969v-11.719h2.25v23.688h-1.7656l-0.25-2.625h-0.125q-0.78125 1.1875-2.25 2.1094-1.4688 0.90625-3.5156 0.90625zm0.25-1.8906q1.5469 0 3.0312-0.82812 1.4844-0.84375 2.375-2.4062v-4.7031q-0.5625-1.8281-1.9219-2.8438-1.3594-1.0312-3.0625-1.0312-1.125 0-2 0.45313-0.875 0.4375-1.4844 1.25-0.60938 0.79687-0.95313 1.9219-0.32812 1.1094-0.32812 2.4531 0 1.0312 0.21875 2.0625 0.23437 1.0156 0.73437 1.8281 0.51563 0.8125 1.3438 1.3281 0.84375 0.51562 2.0469 0.51562z" fill="#fff"/>
<path d="m342.51 361.82h-6.6875v10.078h-2.3906v-21.125h11.422v2.25h-9.0312v6.5625h6.6875zm7.8444 10.078h-2.2344v-14.719h2.2344zm-2.7188-20.094q0-0.64063 0.45313-1.1562 0.46875-0.51563 1.1406-0.51563 0.64063 0 1.1562 0.51563 0.51563 0.51562 0.51563 1.1562 0 0.67187-0.51563 1.1406-0.51562 0.45313-1.1562 0.45313-0.67187 0-1.1406-0.45313-0.45313-0.46875-0.45313-1.1406zm10.138 20.094h-2.2344v-23.688h2.2344zm11.788-15.203q2.8125 0 4.3438 1.4219 1.5312 1.4219 1.5312 4.0156 0 0.54688-0.0625 1.1094t-0.21875 0.8125h-10.781v0.32812q0 1.2188 0.3125 2.3438 0.32812 1.1094 0.96875 1.9688 0.64062 0.85938 1.6094 1.375 0.98438 0.51563 2.3281 0.51563 0.76562 0 1.5-0.17188 0.73437-0.17187 1.4062-0.4375 0.67187-0.28125 1.25-0.59375 0.57812-0.32812 1.0156-0.65625l0.39063 1.8281q-0.42188 0.25-1.0312 0.5625-0.59375 0.29687-1.3438 0.5625-0.73438 0.25-1.6094 0.42187-0.875 0.1875-1.8438 0.1875-1.7812 0-3.1719-0.625-1.375-0.625-2.2969-1.7031-0.92187-1.0781-1.4062-2.4844-0.48437-1.4062-0.48437-2.9375 0-1.5625 0.5-2.9844 0.5-1.4375 1.4531-2.5156 0.96875-1.0938 2.3906-1.7188 1.4219-0.625 3.25-0.625zm-0.10938 1.7969q-2.1094 0-3.2812 1.1094-1.1562 1.0938-1.5781 2.7656h8.7344q0.0312-0.17188 0.0312-0.29688t0-0.28125q0-0.79687-0.32812-1.4219-0.3125-0.625-0.85938-1.0312-0.53125-0.42188-1.2344-0.625-0.70313-0.21875-1.4844-0.21875zm14.372 0q-1.5312 0-2.2188 0.5625t-0.6875 1.5156q0 0.3125 0.0937 0.67188 0.0937 0.35937 0.35937 0.65625 0.28125 0.29687 0.73438 0.57812 0.46875 0.26563 1.25 0.4375l2.2656 0.5q1.3438 0.29688 2.1562 0.79688 0.8125 0.48437 1.2656 1.0625 0.45312 0.57812 0.59375 1.1719 0.14062 0.59375 0.14062 1.0938 0 1-0.40625 1.875-0.39062 0.85938-1.1406 1.5-0.75 0.625-1.8438 1t-2.4375 0.375q-1.6875 0-3.125-0.5t-2.3125-1.1094l0.57812-2.0781q1.1562 1.0625 2.5625 1.5469 1.4062 0.46875 2.5312 0.46875 1.5938 0 2.4219-0.78125 0.84375-0.78125 0.84375-1.6562 0-0.28125-0.0312-0.64063-0.0312-0.375-0.26563-0.75-0.21875-0.39062-0.67187-0.71875-0.4375-0.34375-1.2812-0.54687l-3.0625-0.76563q-1.0625-0.25-1.7344-0.65625-0.67187-0.42187-1.0625-0.92187-0.375-0.5-0.54687-1.0625-0.15625-0.5625-0.15625-1.125 0-1.9531 1.4531-3.125 1.4688-1.1719 3.8906-1.1719 1.25 0 2.6875 0.34375 1.4531 0.32813 2.4375 0.96875l-0.60938 1.9219q-0.64062-0.54688-1.9062-0.98438-1.2656-0.45312-2.7656-0.45312zm16.64 13.531q-0.48438 1.0312-1.1562 2.4219-0.67188 1.3906-1.5938 2.6406-0.92188 1.25-2.1719 2.125t-2.8125 0.875q-0.26562 0-0.39062-0.0156t-0.28125-0.0781l-0.42188-2.1094q0.0937 0.0312 0.21875 0.0625 0.125 0.0312 0.45313 0.0312 0.64062 0 1.2031-0.125t1.0938-0.51562q1.125-0.79688 2.0312-2.3438 0.92188-1.5312 1.6562-3.5781l-7.3594-14.234h2.6562l5.8594 12.25 5.25-12.25h2.5156zm13.952-13.531q-1.5312 0-2.2188 0.5625t-0.6875 1.5156q0 0.3125 0.0937 0.67188 0.0937 0.35937 0.35937 0.65625 0.28125 0.29687 0.73438 0.57812 0.46875 0.26563 1.25 0.4375l2.2656 0.5q1.3438 0.29688 2.1562 0.79688 0.8125 0.48437 1.2656 1.0625 0.45312 0.57812 0.59375 1.1719 0.14062 0.59375 0.14062 1.0938 0 1-0.40625 1.875-0.39062 0.85938-1.1406 1.5-0.75 0.625-1.8438 1t-2.4375 0.375q-1.6875 0-3.125-0.5t-2.3125-1.1094l0.57812-2.0781q1.1562 1.0625 2.5625 1.5469 1.4062 0.46875 2.5312 0.46875 1.5938 0 2.4219-0.78125 0.84375-0.78125 0.84375-1.6562 0-0.28125-0.0312-0.64063-0.0312-0.375-0.26563-0.75-0.21875-0.39062-0.67187-0.71875-0.4375-0.34375-1.2812-0.54687l-3.0625-0.76563q-1.0625-0.25-1.7344-0.65625-0.67187-0.42187-1.0625-0.92187-0.375-0.5-0.54687-1.0625-0.15625-0.5625-0.15625-1.125 0-1.9531 1.4531-3.125 1.4688-1.1719 3.8906-1.1719 1.25 0 2.6875 0.34375 1.4531 0.32813 2.4375 0.96875l-0.60938 1.9219q-0.64062-0.54688-1.9062-0.98438-1.2656-0.45312-2.7656-0.45312zm10.471 0.1875h-2.4688v-1.1875l2.5312-0.3125 0.48438-4.4531h1.6875v4.4531h3.4531v1.5h-3.4531v10.203q0 1.0312 0.29687 1.3594 0.3125 0.3125 0.95313 0.3125 0.73437 0 1.3125-0.21875 0.57812-0.23438 1.0156-0.54688l0.45313 1.6875q-0.54688 0.26563-1.4219 0.51563-0.875 0.26562-1.9375 0.26562-1.0156 0-1.5938-0.29687-0.57812-0.28125-0.875-0.76563-0.28125-0.48437-0.35937-1.0781-0.0781-0.59375-0.0781-1.1562zm15.938-1.9844q2.8125 0 4.3438 1.4219 1.5312 1.4219 1.5312 4.0156 0 0.54688-0.0625 1.1094t-0.21875 0.8125h-10.781v0.32812q0 1.2188 0.3125 2.3438 0.32812 1.1094 0.96875 1.9688 0.64062 0.85938 1.6094 1.375 0.98438 0.51563 2.3281 0.51563 0.76562 0 1.5-0.17188 0.73437-0.17187 1.4062-0.4375 0.67187-0.28125 1.25-0.59375 0.57812-0.32812 1.0156-0.65625l0.39063 1.8281q-0.42188 0.25-1.0312 0.5625-0.59375 0.29687-1.3438 0.5625-0.73438 0.25-1.6094 0.42187-0.875 0.1875-1.8438 0.1875-1.7812 0-3.1719-0.625-1.375-0.625-2.2969-1.7031-0.92187-1.0781-1.4062-2.4844-0.48437-1.4062-0.48437-2.9375 0-1.5625 0.5-2.9844 0.5-1.4375 1.4531-2.5156 0.96875-1.0938 2.3906-1.7188 1.4219-0.625 3.25-0.625zm-0.10938 1.7969q-2.1094 0-3.2812 1.1094-1.1562 1.0938-1.5781 2.7656h8.7344q0.0312-0.17188 0.0312-0.29688t0-0.28125q0-0.79687-0.32812-1.4219-0.3125-0.625-0.85938-1.0312-0.53125-0.42188-1.2344-0.625-0.70313-0.21875-1.4844-0.21875zm20.263 13.406v-9.7344q0-1.9531-0.90625-2.7656-0.89063-0.8125-2.2344-0.8125-1.625 0-2.9375 1.0156-1.3125 1-1.8906 2.8594v9.4375h-2.2344v-14.719h1.75l0.26563 2.75h0.125q0.42187-1.3438 1.75-2.2812 1.3281-0.95313 3.4375-0.95313 1.9219 0 3.2188 0.85938 1.2969 0.84375 1.6406 2.375 0.32813-0.64063 0.79688-1.2188 0.48437-0.57813 1.1562-1.0156 0.67187-0.45312 1.5312-0.71875 0.875-0.28125 1.9531-0.28125 1 0 1.9062 0.28125 0.90625 0.26563 1.5938 0.875 0.6875 0.60938 1.1094 1.6094 0.42187 0.98437 0.42187 2.4219v10.016h-2.25v-9.7344q0-1.9531-0.89062-2.7656-0.89063-0.8125-2.2344-0.8125-1.6406 0-2.9531 1.0156-1.3125 1-1.8906 2.8594v9.4375z" fill="#fff"/>
</svg>
