<?xml version="1.0" encoding="UTF-8"?>
<svg fill="none" stroke-linecap="square" stroke-miterlimit="10" version="1.1" viewBox="0 0 986.82 638.3" xmlns="http://www.w3.org/2000/svg">
<path d="m540.65 321.05c0-6.5141 5.2807-11.795 11.795-11.795h306.96c3.1282 0 6.1283 1.2426 8.3402 3.4546 2.2119 2.212 3.4546 5.212 3.4546 8.3402v47.178c0 6.5141-5.2807 11.795-11.795 11.795h-306.96c-6.514 0-11.795-5.2807-11.795-11.795z" fill="#c27ba0" fill-rule="evenodd"/>
<path d="m540.65 321.05c0-6.5141 5.2807-11.795 11.795-11.795h306.96c3.1282 0 6.1283 1.2426 8.3402 3.4546 2.2119 2.212 3.4546 5.212 3.4546 8.3402v47.178c0 6.5141-5.2807 11.795-11.795 11.795h-306.96c-6.514 0-11.795-5.2807-11.795-11.795z" fill-rule="evenodd" stroke="#002050" stroke-linejoin="round"/>
<path d="m580.58 339.15q-0.42187 0-0.82812 0t-0.76563-0.0312v6.0938h-2.8125v-16.156q0.35938-0.0156 0.82813-0.0312 0.48437-0.0312 1.0156-0.0469 0.53125-0.0156 1.0469-0.0156 0.53125-0.0156 1-0.0156 1.3594 0 2.4844 0.32813 1.1406 0.32812 1.9375 0.98437 0.8125 0.65625 1.25 1.625t0.4375 2.25q0 1.0156-0.34375 1.9219t-1.0312 1.5938q-0.67187 0.6875-1.7344 1.0938t-2.4844 0.40625zm-0.125-7.8594q-0.39062 0-0.76562 0-0.35938 0-0.70313 0.0312v5.4531q0.34375 0.0156 0.71875 0.0156t0.79688 0q1.3281 0 2-0.73437 0.67187-0.73438 0.67187-2.125 0-1.1719-0.60937-1.9062-0.59375-0.73438-2.1094-0.73438zm12.887 2.2969q2.1562 0 3.3281 1.0938 1.1719 1.0938 1.1719 3.0625 0 0.28125-0.0312 0.59375-0.0312 0.29687-0.0937 0.59375-0.0625 0.28125-0.15625 0.51562-0.0781 0.23438-0.17188 0.375h-7.125q0.0469 0.73438 0.26563 1.3906 0.21875 0.64062 0.64062 1.125 0.42188 0.48437 1.0156 0.76562t1.4062 0.28125q0.90625 0 1.9219-0.34375 1.0156-0.34375 1.7188-0.85937l0.45313 2q-0.32813 0.20312-0.79688 0.4375-0.45312 0.23437-1.0469 0.4375-0.59375 0.1875-1.2656 0.3125-0.67187 0.14062-1.4062 0.14062-1.3594 0-2.4219-0.46875-1.0469-0.48437-1.7656-1.2969-0.70312-0.82813-1.0781-1.9062-0.35938-1.0781-0.35938-2.25 0-1.2031 0.375-2.2812 0.39063-1.0938 1.125-1.9219 0.73438-0.84375 1.8125-1.3125 1.0938-0.48437 2.4844-0.48437zm-0.0625 2.1094q-1.0312 0-1.7656 0.60938-0.71875 0.59375-1.0312 1.6094h4.6719q0.0312-0.0625 0.0312-0.15625 0.0156-0.10937 0.0156-0.25 0-0.78125-0.54687-1.2969-0.53125-0.51563-1.375-0.51563zm13.747 0.70313q-0.25-0.1875-0.76562-0.3125-0.51563-0.125-0.875-0.125-0.48438 0-0.8125 0.23437-0.3125 0.23438-0.5625 0.60938-0.23438 0.375-0.40625 0.875-0.17188 0.48437-0.32813 1v6.5312h-2.6875v-11.25h2.1094l0.125 2.3438h0.0937q0.23437-0.51563 0.5-1 0.28125-0.5 0.625-0.875t0.79687-0.60938q0.45313-0.23437 1.0625-0.23437 0.98438 0 1.8281 0.64062zm6.1356-0.79688q-0.79687 0-1.25 0.3125-0.45312 0.29688-0.45312 0.85938 0 0.35937 0.25 0.67187 0.26562 0.29688 1.0938 0.5l1.7344 0.39063q1.0312 0.21875 1.6562 0.64062 0.625 0.40625 0.96875 0.90625 0.35938 0.48438 0.48438 1 0.125 0.51563 0.125 0.95313 0 0.78125-0.32813 1.4531-0.3125 0.67188-0.90625 1.1719-0.57812 0.48437-1.4219 0.76562-0.82813 0.28125-1.8438 0.28125-1.2969 0-2.4062-0.375-1.0938-0.39062-1.7656-0.85937l0.64063-2.3125q0.82812 0.79687 1.8594 1.2031 1.0469 0.39063 1.9375 0.39063 0.92188 0 1.4062-0.40625 0.5-0.40625 0.5-1.125 0-0.40625-0.25-0.6875-0.23437-0.28125-0.96875-0.48438l-2.3594-0.57812q-0.82813-0.20313-1.3594-0.5625-0.51562-0.375-0.82812-0.82813-0.29688-0.45312-0.42188-0.9375-0.10937-0.48437-0.10937-0.9375 0-1.6406 1.1562-2.5312 1.1562-0.89062 2.9844-0.89062 0.95313 0 2.0469 0.26562 1.1094 0.25 1.875 0.73438l-0.71875 2.2031q-0.48438-0.39062-1.375-0.78125-0.875-0.40625-1.9531-0.40625zm9.8605 9.6094h-2.6875v-11.25h2.6875zm-3.0781-14.875q0-0.34375 0.125-0.65625 0.14063-0.32813 0.39063-0.57813 0.25-0.26562 0.54687-0.40625 0.3125-0.14062 0.67188-0.14062 0.34375 0 0.65625 0.14062 0.32812 0.14063 0.57812 0.40625 0.26563 0.25 0.40625 0.57813 0.15625 0.3125 0.15625 0.65625 0 0.35937-0.15625 0.67187-0.14062 0.3125-0.40625 0.5625-0.25 0.23438-0.57812 0.375-0.3125 0.125-0.65625 0.125-0.70313 0-1.2188-0.51562-0.51563-0.51563-0.51563-1.2188zm9.8807 5.2656q-0.79688 0-1.25 0.3125-0.45313 0.29688-0.45313 0.85938 0 0.35937 0.25 0.67187 0.26563 0.29688 1.0938 0.5l1.7344 0.39063q1.0312 0.21875 1.6562 0.64062 0.625 0.40625 0.96875 0.90625 0.35937 0.48438 0.48437 1 0.125 0.51563 0.125 0.95313 0 0.78125-0.32812 1.4531-0.3125 0.67188-0.90625 1.1719-0.57813 0.48437-1.4219 0.76562-0.82812 0.28125-1.8438 0.28125-1.2969 0-2.4062-0.375-1.0938-0.39062-1.7656-0.85937l0.64062-2.3125q0.82813 0.79687 1.8594 1.2031 1.0469 0.39063 1.9375 0.39063 0.92187 0 1.4062-0.40625 0.5-0.40625 0.5-1.125 0-0.40625-0.25-0.6875-0.23438-0.28125-0.96875-0.48438l-2.3594-0.57812q-0.82812-0.20313-1.3594-0.5625-0.51563-0.375-0.82813-0.82813-0.29687-0.45312-0.42187-0.9375-0.10938-0.48437-0.10938-0.9375 0-1.6406 1.1562-2.5312 1.1562-0.89062 2.9844-0.89062 0.95312 0 2.0469 0.26562 1.1094 0.25 1.875 0.73438l-0.71875 2.2031q-0.48437-0.39062-1.375-0.78125-0.875-0.40625-1.9531-0.40625zm7.6887 0h-1.3906v-1.4688l1.5781-0.25 0.45312-3.3281h2.0469v3.4062h2.1562v1.6406h-2.1562v6.4531q0 0.73437 0.14062 1 0.15625 0.25 0.57813 0.25 0.3125 0 0.625-0.125 0.32812-0.125 0.9375-0.46875l0.4375 1.9375q-0.46875 0.39062-1.3125 0.625-0.84375 0.23437-1.6719 0.23437-0.73437 0-1.2188-0.20312-0.46875-0.1875-0.75-0.5625-0.26562-0.39063-0.35937-0.92188-0.0937-0.54687-0.0937-1.2031zm12.717-2.0156q2.1562 0 3.3281 1.0938 1.1719 1.0938 1.1719 3.0625 0 0.28125-0.0312 0.59375-0.0312 0.29687-0.0937 0.59375-0.0625 0.28125-0.15625 0.51562-0.0781 0.23438-0.17187 0.375h-7.125q0.0469 0.73438 0.26562 1.3906 0.21875 0.64062 0.64063 1.125 0.42187 0.48437 1.0156 0.76562t1.4062 0.28125q0.90625 0 1.9219-0.34375 1.0156-0.34375 1.7188-0.85937l0.45312 2q-0.32812 0.20312-0.79687 0.4375-0.45313 0.23437-1.0469 0.4375-0.59375 0.1875-1.2656 0.3125-0.67188 0.14062-1.4062 0.14062-1.3594 0-2.4219-0.46875-1.0469-0.48437-1.7656-1.2969-0.70313-0.82813-1.0781-1.9062-0.35937-1.0781-0.35937-2.25 0-1.2031 0.375-2.2812 0.39062-1.0938 1.125-1.9219 0.73437-0.84375 1.8125-1.3125 1.0938-0.48437 2.4844-0.48437zm-0.0625 2.1094q-1.0312 0-1.7656 0.60938-0.71875 0.59375-1.0312 1.6094h4.6719q0.0312-0.0625 0.0312-0.15625 0.0156-0.10937 0.0156-0.25 0-0.78125-0.54688-1.2969-0.53125-0.51563-1.375-0.51563zm14.841 9.5156v-7.4375q0-2-1.7031-2-0.42187 0-0.90625 0.14062-0.46875 0.14063-0.90625 0.42188t-0.79687 0.70312q-0.35938 0.42188-0.53125 0.95313v7.2188h-2.6875v-11.25h2.1094l0.125 1.6562h0.0937q0.51563-1.0312 1.5938-1.5312 1.0938-0.5 2.3438-0.5 0.8125 0 1.5156 0.21875 0.70312 0.20312 1.25 0.67187 0.5625 0.45313 0.875 1.2188 0.32812 0.75 0.32812 1.8594v7.6562zm6.3687-9.6094h-1.3906v-1.4688l1.5781-0.25 0.45313-3.3281h2.0469v3.4062h2.1562v1.6406h-2.1562v6.4531q0 0.73437 0.14063 1 0.15625 0.25 0.57812 0.25 0.3125 0 0.625-0.125 0.32813-0.125 0.9375-0.46875l0.4375 1.9375q-0.46875 0.39062-1.3125 0.625-0.84375 0.23437-1.6719 0.23437-0.73438 0-1.2188-0.20312-0.46875-0.1875-0.75-0.5625-0.26563-0.39063-0.35938-0.92188-0.0937-0.54687-0.0937-1.2031zm10.811-6.5469h3.0625l5.1406 12.734 4.6406-12.734h2.9375l-6.4531 16.156h-2.2344zm21.167 4.5312q1.5 0 2.5625 0.5 1.0781 0.5 1.7812 1.3438 0.70312 0.84375 1.0312 1.9375 0.32812 1.0938 0.32812 2.2969 0 1.1875-0.32812 2.25-0.32813 1.0625-1.0312 1.8594-0.70313 0.79687-1.7656 1.2656t-2.5 0.46875q-1.5 0-2.5781-0.48437-1.0781-0.5-1.7812-1.3125-0.70313-0.82813-1.0469-1.9062-0.34375-1.0781-0.34375-2.2656 0-1.2031 0.34375-2.2812 0.34375-1.0781 1.0312-1.8906 0.70313-0.82813 1.7812-1.2969 1.0781-0.48437 2.5156-0.48437zm0.0469 9.8906q0.71875 0 1.2344-0.29687 0.53125-0.3125 0.875-0.84375t0.5-1.2031q0.15625-0.6875 0.15625-1.4531 0-0.78125-0.17188-1.5-0.17187-0.71875-0.53125-1.2656-0.34375-0.5625-0.89062-0.89062-0.53125-0.32813-1.2969-0.32813-0.70312 0-1.2188 0.3125-0.51562 0.29688-0.84375 0.8125-0.32812 0.51563-0.48437 1.2031-0.15625 0.67187-0.15625 1.4375 0 0.78125 0.15625 1.5t0.5 1.2969q0.35937 0.5625 0.89062 0.89063 0.54688 0.32812 1.2812 0.32812zm11.215 1.7344h-2.7031v-18.109h2.7031zm6.1118-11.25v7.3125q0 1 0.51562 1.5312 0.53125 0.51562 1.375 0.51562t1.5469-0.5625q0.71875-0.57812 1.0625-1.6562v-7.1406h2.7188v11.25h-2.1094l-0.14062-1.5625h-0.0937q-0.28125 0.5625-0.70313 0.92187-0.40625 0.34375-0.90625 0.5625-0.5 0.20313-1.0469 0.28125-0.53125 0.0937-1.0469 0.0937-0.79687 0-1.5-0.20312-0.70312-0.1875-1.2344-0.64063-0.51563-0.45312-0.82813-1.2031-0.29687-0.75-0.29687-1.8438v-7.6562zm17.892 11.25v-7.4375q0-2-1.5938-2-0.39062 0-0.84375 0.14062-0.45312 0.14063-0.89062 0.42188-0.42188 0.28125-0.78125 0.70312-0.34375 0.42188-0.5 0.95313v7.2188h-2.6875v-11.25h2.1094l0.125 1.6562h0.0937q0.48438-1.0312 1.5469-1.5312t2.2656-0.5q1.1562 0 2.0938 0.45312 0.9375 0.45313 1.4062 1.5625 0.48438-1.0156 1.5312-1.5156 1.0625-0.5 2.2656-0.5 0.78125 0 1.4688 0.21875 0.70312 0.20312 1.2188 0.67187 0.53125 0.45313 0.84375 1.2188 0.3125 0.75 0.3125 1.8594v7.6562h-2.7031v-7.4375q0-2-1.5781-2-0.39063 0-0.84375 0.14062-0.45313 0.14063-0.89063 0.42188-0.42187 0.28125-0.78125 0.70312-0.35937 0.42188-0.5 0.95313v7.2188zm18.244-11.625q2.1562 0 3.3281 1.0938 1.1719 1.0938 1.1719 3.0625 0 0.28125-0.0312 0.59375-0.0312 0.29687-0.0937 0.59375-0.0625 0.28125-0.15625 0.51562-0.0781 0.23438-0.17188 0.375h-7.125q0.0469 0.73438 0.26563 1.3906 0.21875 0.64062 0.64062 1.125 0.42188 0.48437 1.0156 0.76562t1.4062 0.28125q0.90625 0 1.9219-0.34375 1.0156-0.34375 1.7188-0.85937l0.45313 2q-0.32813 0.20312-0.79688 0.4375-0.45312 0.23437-1.0469 0.4375-0.59375 0.1875-1.2656 0.3125-0.67187 0.14062-1.4062 0.14062-1.3594 0-2.4219-0.46875-1.0469-0.48437-1.7656-1.2969-0.70312-0.82813-1.0781-1.9062-0.35938-1.0781-0.35938-2.25 0-1.2031 0.375-2.2812 0.39063-1.0938 1.125-1.9219 0.73438-0.84375 1.8125-1.3125 1.0938-0.48437 2.4844-0.48437zm-0.0625 2.1094q-1.0312 0-1.7656 0.60938-0.71875 0.59375-1.0312 1.6094h4.6719q0.0312-0.0625 0.0312-0.15625 0.0156-0.10937 0.0156-0.25 0-0.78125-0.54687-1.2969-0.53125-0.51563-1.375-0.51563zm22.476 5.7031 5.3594-12.344h3.2031v16.156h-2.7812v-10.641l-4.6562 10.641h-2.25l-4.7656-10.641v10.641h-2.8125v-16.156h3.2031zm17.131-7.8125q1.5 0 2.5625 0.5 1.0781 0.5 1.7813 1.3438 0.70312 0.84375 1.0312 1.9375 0.32812 1.0938 0.32812 2.2969 0 1.1875-0.32812 2.25-0.32813 1.0625-1.0312 1.8594-0.70319 0.79687-1.7657 1.2656t-2.5 0.46875q-1.5 0-2.5781-0.48437-1.0781-0.5-1.7812-1.3125-0.70312-0.82813-1.0469-1.9062-0.34375-1.0781-0.34375-2.2656 0-1.2031 0.34375-2.2812 0.34375-1.0781 1.0312-1.8906 0.70312-0.82813 1.7812-1.2969 1.0781-0.48437 2.5156-0.48437zm0.0469 9.8906q0.71875 0 1.2344-0.29687 0.53125-0.3125 0.875-0.84375t0.5-1.2031q0.15625-0.6875 0.15625-1.4531 0-0.78125-0.17187-1.5-0.17188-0.71875-0.53125-1.2656-0.34375-0.5625-0.89063-0.89062-0.53125-0.32813-1.2969-0.32813-0.70313 0-1.2188 0.3125-0.51563 0.29688-0.84375 0.8125-0.32813 0.51563-0.48438 1.2031-0.15625 0.67187-0.15625 1.4375 0 0.78125 0.15625 1.5t0.5 1.2969q0.35938 0.5625 0.89063 0.89063 0.54687 0.32812 1.2812 0.32812zm10.965-9.5156v7.3125q0 1 0.5156 1.5312 0.5313 0.51562 1.375 0.51562 0.8438 0 1.5469-0.5625 0.7188-0.57812 1.0625-1.6562v-7.1406h2.7188v11.25h-2.1093l-0.1407-1.5625h-0.094q-0.2813 0.5625-0.703 0.92187-0.4063 0.34375-0.9063 0.5625-0.5 0.20313-1.047 0.28125-0.5312 0.0937-1.0467 0.0937-0.797 0-1.5-0.20312-0.7033-0.1875-1.2345-0.64063-0.5155-0.45312-0.828-1.2031-0.297-0.75-0.297-1.8438v-7.6562zm18.126 11.25v-7.4375q0-2-1.7031-2-0.4219 0-0.9062 0.14062-0.4688 0.14063-0.9063 0.42188t-0.7969 0.70312q-0.3594 0.42188-0.5313 0.95313v7.2188h-2.6875v-11.25h2.1095l0.125 1.6562h0.094q0.5156-1.0312 1.5937-1.5312 1.0938-0.5 2.3438-0.5 0.8125 0 1.5156 0.21875 0.703 0.20312 1.25 0.67187 0.5625 0.45313 0.875 1.2188 0.3281 0.75 0.3281 1.8594v7.6562zm6.3687-9.6094h-1.3906v-1.4688l1.5781-0.25 0.4531-3.3281h2.0469v3.4062h2.1563v1.6406h-2.1563v6.4531q0 0.73437 0.1406 1 0.1562 0.25 0.5781 0.25 0.3125 0 0.625-0.125 0.3281-0.125 0.9375-0.46875l0.4375 1.9375q-0.4688 0.39062-1.3125 0.625-0.8438 0.23437-1.6719 0.23437-0.7344 0-1.2187-0.20312-0.4688-0.1875-0.75-0.5625-0.2656-0.39063-0.3594-0.92188-0.094-0.54687-0.094-1.2031z" fill="#fff"/>
<path d="m871.2 344.64h74.821v216.85h-74.758" fill-opacity="0"/>
<path d="m871.2 344.64h74.821v216.85h-26.758" fill-rule="evenodd" stroke="#d5a6bd" stroke-linejoin="round" stroke-width="8"/>
<path d="m919.26 548.28-36.305 13.214 36.305 13.214z" fill="#d5a6bd" fill-rule="evenodd" stroke="#d5a6bd" stroke-width="8"/>
</svg>
