<?xml version="1.0" encoding="UTF-8"?>
<svg fill="none" stroke-linecap="square" stroke-miterlimit="10" version="1.1" viewBox="0 0 1061.5 608.93" xmlns="http://www.w3.org/2000/svg">
<path d="m841.24 260.6h196.3v153.07h-196.3z" fill="#ffd966" fill-rule="evenodd"/>
<path d="m841.24 260.6h196.3v153.07h-196.3z" fill-rule="evenodd" stroke="#002050" stroke-linejoin="round"/>
<path d="m884.28 293.11h-2.8125v-16.156h2.8125v7.0469q1.3906-1.3125 2.5-2.5625 1.0156-1.1719 1.8438-2.2812 0.8437-1.125 1.4531-2.2031h3.0781q-1.0781 1.4688-2.0625 2.7031-0.9687 1.2188-2.1406 2.5469-0.4375 0.48437-0.9063 1-0.4687 0.51562-0.9531 1.0312l7.2188 8.875h-3.25l-5.75-7.0781-1.0313 0.96875zm13.969-11.25v7.3125q0 1 0.5156 1.5312 0.5313 0.51562 1.375 0.51562 0.8438 0 1.5469-0.5625 0.7188-0.57812 1.0625-1.6562v-7.1406h2.7188v11.25h-2.1094l-0.1406-1.5625h-0.094q-0.2812 0.5625-0.7031 0.92187-0.4063 0.34375-0.9063 0.5625-0.5 0.20313-1.0468 0.28125-0.5313 0.0937-1.0469 0.0937-0.7969 0-1.5-0.20312-0.7031-0.1875-1.2344-0.64063-0.5156-0.45312-0.8281-1.2031-0.2969-0.75-0.2969-1.8438v-7.6562zm16.782 11.547q-1.3125 0-2.1875-0.53125-0.8594-0.54687-1.5469-1.3125h-0.1094l-0.1875 1.5469h-2.1562v-18.109h2.6719v7.9844q0.5625-0.71875 1.4843-1.1094 0.9375-0.39062 2.1094-0.39062 1.2656 0 2.2188 0.5 0.9687 0.48437 1.5937 1.2969 0.6406 0.79688 0.9375 1.8594 0.3125 1.0625 0.3125 2.2188 0 1.2969-0.375 2.4062-0.3594 1.0938-1.0312 1.9062-0.6719 0.79687-1.625 1.2656-0.9532 0.46875-2.1094 0.46875zm-0.3438-2.0312q0.7188 0 1.2344-0.34375 0.5313-0.34375 0.875-0.89062 0.3594-0.5625 0.5313-1.2812 0.1718-0.71875 0.1718-1.4531 0-0.75-0.1875-1.4531-0.1718-0.70313-0.5625-1.2344-0.375-0.54687-0.9531-0.84375-0.5625-0.3125-1.3281-0.3125-0.7031 0-1.4688 0.34375-0.75 0.32813-1.4843 1.2188v4.7031q0.2656 0.375 0.6562 0.65625t0.8125 0.48437q0.4375 0.1875 0.875 0.29688 0.4375 0.10937 0.8281 0.10937zm13.311-9.8906q2.1562 0 3.3281 1.0938t1.1719 3.0625q0 0.28125-0.031 0.59375-0.031 0.29687-0.094 0.59375-0.062 0.28125-0.1563 0.51562-0.078 0.23438-0.1718 0.375h-7.125q0.047 0.73438 0.2656 1.3906 0.2187 0.64062 0.6406 1.125 0.4219 0.48437 1.0156 0.76562 0.5938 0.28125 1.4063 0.28125 0.9062 0 1.9219-0.34375 1.0156-0.34375 1.7187-0.85937l0.4531 2q-0.3281 0.20312-0.7968 0.4375-0.4532 0.23437-1.0469 0.4375-0.5938 0.1875-1.2656 0.3125-0.6719 0.14062-1.4063 0.14062-1.3594 0-2.4219-0.46875-1.0468-0.48437-1.7656-1.2969-0.7031-0.82813-1.0781-1.9062-0.3594-1.0781-0.3594-2.25 0-1.2031 0.375-2.2812 0.3906-1.0938 1.125-1.9219 0.7344-0.84375 1.8125-1.3125 1.0938-0.48437 2.4844-0.48437zm-0.062 2.1094q-1.0313 0-1.7656 0.60938-0.7188 0.59375-1.0313 1.6094h4.6719q0.031-0.0625 0.031-0.15625 0.016-0.10937 0.016-0.25 0-0.78125-0.5469-1.2969-0.5313-0.51563-1.375-0.51563zm18.18 3.4531q-0.4219 0-0.8282 0-0.4062 0-0.7656-0.0312v6.0938h-2.8125v-16.156q0.3594-0.0156 0.8281-0.0312 0.4844-0.0312 1.0157-0.0469 0.5312-0.0156 1.0468-0.0156 0.5313-0.0156 1-0.0156 1.3594 0 2.4844 0.32813 1.1406 0.32812 1.9375 0.98437 0.8125 0.65625 1.25 1.625t0.4375 2.25q0 1.0156-0.3437 1.9219-0.3438 0.90625-1.0313 1.5938-0.6719 0.6875-1.7344 1.0938t-2.4843 0.40625zm-0.125-7.8594q-0.3907 0-0.7657 0-0.3593 0-0.7031 0.0312v5.4531q0.3438 0.0156 0.7188 0.0156t0.7968 0q1.3282 0 2-0.73437 0.6719-0.73438 0.6719-2.125 0-1.1719-0.6094-1.9062-0.5937-0.73438-2.1093-0.73438zm14.533 5.1094q-0.25-0.1875-0.7656-0.3125t-0.875-0.125q-0.4844 0-0.8125 0.23437-0.3125 0.23438-0.5625 0.60938-0.2344 0.375-0.4063 0.875-0.1718 0.48437-0.3281 1v6.5312h-2.6875v-11.25h2.1094l0.125 2.3438h0.094q0.2344-0.51563 0.5-1 0.2813-0.5 0.625-0.875 0.3438-0.375 0.7969-0.60938 0.4531-0.23437 1.0625-0.23437 0.9844 0 1.8281 0.64062zm7.5091-2.8125q1.5 0 2.5625 0.5 1.0781 0.5 1.7812 1.3438t1.0313 1.9375q0.3281 1.0938 0.3281 2.2969 0 1.1875-0.3281 2.25-0.3282 1.0625-1.0313 1.8594-0.7031 0.79687-1.7656 1.2656t-2.5 0.46875q-1.5 0-2.5781-0.48437-1.0782-0.5-1.7813-1.3125-0.7031-0.82813-1.0469-1.9062-0.3437-1.0781-0.3437-2.2656 0-1.2031 0.3437-2.2812 0.3438-1.0781 1.0313-1.8906 0.7031-0.82813 1.7812-1.2969 1.0782-0.48437 2.5157-0.48437zm0.047 9.8906q0.7188 0 1.2344-0.29687 0.5313-0.3125 0.875-0.84375 0.3438-0.53125 0.5-1.2031 0.1563-0.6875 0.1563-1.4531 0-0.78125-0.1719-1.5t-0.5313-1.2656q-0.3437-0.5625-0.8906-0.89062-0.5312-0.32813-1.2969-0.32813-0.7031 0-1.2187 0.3125-0.5156 0.29688-0.8438 0.8125-0.3281 0.51563-0.4843 1.2031-0.1563 0.67187-0.1563 1.4375 0 0.78125 0.1563 1.5 0.1562 0.71875 0.5 1.2969 0.3593 0.5625 0.8906 0.89063 0.5469 0.32812 1.2812 0.32812zm9.9079-9.5156 2.6406 3.7812 2.5312-3.7812h3.0625l-4.125 5.4531 4.3594 5.7969h-3.0625l-2.8594-4.1094-2.7812 4.1094h-3.0625l4.3281-5.75-4.0781-5.5zm15.352 8 3.125-8h2.5937l-4.6406 11.344q-0.3437 0.85937-0.9531 1.9219-0.5938 1.0625-1.4219 2-0.8125 0.95313-1.8437 1.5938-1.0313 0.65625-2.2188 0.65625-0.2031 0-0.2969-0.0156-0.094-0.0156-0.2187-0.0625l-0.4688-2.0938q0.078 0.0156 0.1719 0.0312 0.094 0.0312 0.4219 0.0312 0.4531 0 0.9062-0.0937 0.4532-0.0937 0.9219-0.39063 0.8906-0.5625 1.5313-1.5781 0.6562-1 1.2656-2.4531l-5.6094-10.891h2.8125z" fill="#000"/>
<path d="m893.41 332.86q-0.9219 1.0938-1.6094 2.2344-0.6875 1.1406-1.1406 2.3906-0.4375 1.25-0.6406 2.6406-0.2031 1.3906-0.2031 3 0 0.96875 0.1093 2.1406 0.1094 1.1719 0.4688 2.5 0.375 1.3125 1.0781 2.7344 0.7188 1.4219 1.9063 2.8594l-1.625 0.60937q-2.3594-2.0938-3.6563-4.9062-1.2969-2.8281-1.2969-5.9531 0-3.1406 1.2969-5.9219 1.2969-2.7969 3.6563-4.9375zm5.1158 18.25h-2.8125v-16.156h2.8125zm8.7142-6.0625q-0.4219 0-0.8282 0-0.4062 0-0.7656-0.0312v6.0938h-2.8125v-16.156q0.3594-0.0156 0.8281-0.0312 0.4844-0.0312 1.0157-0.0469 0.5312-0.0156 1.0468-0.0156 0.5313-0.0156 1-0.0156 1.3594 0 2.4844 0.32813 1.1406 0.32812 1.9375 0.98437 0.8125 0.65625 1.25 1.625t0.4375 2.25q0 1.0156-0.3437 1.9219-0.3438 0.90625-1.0313 1.5938-0.6719 0.6875-1.7344 1.0938t-2.4843 0.40625zm-0.125-7.8594q-0.3907 0-0.7657 0-0.3593 0-0.7031 0.0312v5.4531q0.3438 0.0156 0.7188 0.0156t0.7968 0q1.3282 0 2-0.73437 0.6719-0.73438 0.6719-2.125 0-1.1719-0.6094-1.9062-0.5937-0.73438-2.1093-0.73438zm24.267 0.21875h-4.6719v13.703h-2.8125v-13.703h-4.6719v-2.4531h12.156zm7.1787 13.703-0.2031-1.5469h-0.094q-0.6718 0.84375-1.8125 1.3438-1.125 0.5-2.2968 0.5-1.5469 0-2.4375-0.89062-0.875-0.90625-0.875-2.3594 0-1.0156 0.4218-1.7969 0.4375-0.79688 1.2344-1.3438 0.8125-0.5625 1.9375-0.85938 1.125-0.29687 2.5313-0.29687h1.0468v-0.35938q0-0.95312-0.6093-1.3906-0.6407-0.4375-1.9844-0.4375-1.8125 0-3.2344 0.79687l-0.5156-2.0312q1.6406-0.95312 3.9687-0.95312 2.4532 0 3.7188 1 0.5937 0.46875 0.9687 1.2031 0.375 0.73438 0.375 1.7656v7.6562zm-3.3594-1.8906q0.7813 0 1.5625-0.375 0.7813-0.375 1.25-1.0156v-2.2188h-0.4687q-2 0-2.9219 0.51562-0.9219 0.5-0.9219 1.625 0 1.4688 1.5 1.4688zm14.946 2.1875q-1.3125 0-2.1875-0.53125-0.8594-0.54687-1.5469-1.3125h-0.1093l-0.1875 1.5469h-2.1563v-18.109h2.6719v7.9844q0.5625-0.71875 1.4844-1.1094 0.9375-0.39062 2.1093-0.39062 1.2657 0 2.2188 0.5 0.9687 0.48437 1.5937 1.2969 0.6407 0.79688 0.9375 1.8594 0.3125 1.0625 0.3125 2.2188 0 1.2969-0.375 2.4062-0.3593 1.0938-1.0312 1.9062-0.6719 0.79687-1.625 1.2656t-2.1094 0.46875zm-0.3437-2.0312q0.7187 0 1.2343-0.34375 0.5313-0.34375 0.875-0.89062 0.3594-0.5625 0.5313-1.2812t0.1719-1.4531q0-0.75-0.1875-1.4531-0.1719-0.70313-0.5625-1.2344-0.375-0.54687-0.9532-0.84375-0.5625-0.3125-1.3281-0.3125-0.7031 0-1.4687 0.34375-0.75 0.32813-1.4844 1.2188v4.7031q0.2656 0.375 0.6562 0.65625 0.3907 0.28125 0.8125 0.48437 0.4375 0.1875 0.875 0.29688 0.4375 0.10937 0.8282 0.10937zm11.045 1.7344h-2.7031v-18.109h2.7031zm8.6275-11.625q2.1563 0 3.3282 1.0938 1.1718 1.0938 1.1718 3.0625 0 0.28125-0.031 0.59375-0.031 0.29687-0.094 0.59375-0.062 0.28125-0.1562 0.51562-0.078 0.23438-0.1719 0.375h-7.125q0.047 0.73438 0.2656 1.3906 0.2188 0.64062 0.6407 1.125 0.4218 0.48437 1.0156 0.76562 0.5937 0.28125 1.4062 0.28125 0.9063 0 1.9219-0.34375t1.7188-0.85937l0.4531 2q-0.3281 0.20312-0.7969 0.4375-0.4531 0.23437-1.0469 0.4375-0.5937 0.1875-1.2656 0.3125-0.6719 0.14062-1.4062 0.14062-1.3594 0-2.4219-0.46875-1.0469-0.48437-1.7656-1.2969-0.7032-0.82813-1.0782-1.9062-0.3593-1.0781-0.3593-2.25 0-1.2031 0.375-2.2812 0.3906-1.0938 1.125-1.9219 0.7343-0.84375 1.8125-1.3125 1.0937-0.48437 2.4843-0.48437zm-0.062 2.1094q-1.0312 0-1.7656 0.60938-0.7187 0.59375-1.0312 1.6094h4.6718q0.031-0.0625 0.031-0.15625 0.016-0.10937 0.016-0.25 0-0.78125-0.5469-1.2969-0.5312-0.51563-1.375-0.51563zm10.732-0.0937q-0.7968 0-1.25 0.3125-0.4531 0.29688-0.4531 0.85938 0 0.35937 0.25 0.67187 0.2656 0.29688 1.0938 0.5l1.7343 0.39063q1.0313 0.21875 1.6563 0.64062 0.625 0.40625 0.9687 0.90625 0.3594 0.48438 0.4844 1 0.125 0.51563 0.125 0.95313 0 0.78125-0.3281 1.4531-0.3125 0.67188-0.9063 1.1719-0.5781 0.48437-1.4218 0.76562-0.8282 0.28125-1.8438 0.28125-1.2969 0-2.4062-0.375-1.0938-0.39062-1.7657-0.85937l0.6407-2.3125q0.8281 0.79687 1.8593 1.2031 1.0469 0.39063 1.9375 0.39063 0.9219 0 1.4063-0.40625 0.5-0.40625 0.5-1.125 0-0.40625-0.25-0.6875-0.2344-0.28125-0.9688-0.48438l-2.3593-0.57812q-0.8282-0.20313-1.3594-0.5625-0.5156-0.375-0.8281-0.82813-0.2969-0.45312-0.4219-0.9375-0.1094-0.48437-0.1094-0.9375 0-1.6406 1.1563-2.5312 1.1562-0.89062 2.9843-0.89062 0.9532 0 2.0469 0.26562 1.1094 0.25 1.875 0.73438l-0.7187 2.2031q-0.4844-0.39062-1.375-0.78125-0.875-0.40625-1.9532-0.40625zm6.9115-9.25q2.3438 2.1406 3.6407 4.9375 1.2968 2.7812 1.2968 5.9219 0 3.125-1.2968 5.9531-1.2969 2.8125-3.6407 4.9062l-1.6406-0.60937q1.1875-1.4375 1.8906-2.8594 0.7188-1.4219 1.0782-2.7344 0.375-1.3281 0.4843-2.5 0.1094-1.1719 0.1094-2.1406 0-1.6094-0.2031-3-0.2031-1.3906-0.6563-2.6406-0.4375-1.25-1.125-2.3906-0.6718-1.1406-1.6093-2.2344z" fill="#000"/>
<path d="m843.62 0.5h191.55v70.767h-191.55z" fill="#ffd966" fill-rule="evenodd"/>
<path d="m843.62 0.5h191.55v70.767h-191.55z" fill-rule="evenodd" stroke="#002050" stroke-linejoin="round"/>
<path d="m901.14 33.001h-3.0625l-1.8437-4.7031h-6.0782l-1.6718 4.7031h-2.9375l6.2656-16.156h2.4219zm-10.203-6.9062h4.4219l-2.3282-5.9375zm16.491 0.84375q-0.4219 0-0.8281 0-0.4063 0-0.7656-0.0312v6.0938h-2.8125v-16.156q0.3593-0.0156 0.8281-0.0312 0.4844-0.0312 1.0156-0.0469 0.5313-0.0156 1.0469-0.0156 0.5312-0.0156 1-0.0156 1.3594 0 2.4844 0.32812 1.1406 0.32813 1.9375 0.98438 0.8125 0.65625 1.25 1.625t0.4375 2.25q0 1.0156-0.3438 1.9219-0.3437 0.90625-1.0312 1.5938-0.6719 0.6875-1.7344 1.0938t-2.4844 0.40625zm-0.125-7.8594q-0.3906 0-0.7656 0-0.3594 0-0.7031 0.0312v5.4531q0.3437 0.0156 0.7187 0.0156t0.7969 0q1.3281 0 2-0.73438 0.6719-0.73437 0.6719-2.125 0-1.1719-0.6094-1.9062-0.5938-0.73437-2.1094-0.73437zm11.524 13.922h-2.8125v-16.156h2.8125zm13.256-9.6094q-0.7968 0-1.25 0.3125-0.4531 0.29687-0.4531 0.85937 0 0.35938 0.25 0.67188 0.2656 0.29687 1.0938 0.5l1.7343 0.39062q1.0313 0.21875 1.6563 0.64063 0.625 0.40625 0.9687 0.90624 0.3594 0.48438 0.4844 1 0.125 0.51563 0.125 0.95313 0 0.78125-0.3281 1.4531-0.3125 0.67188-0.9063 1.1719-0.5781 0.48437-1.4218 0.76562-0.8282 0.28125-1.8438 0.28125-1.2969 0-2.4062-0.375-1.0938-0.39062-1.7657-0.85937l0.6407-2.3125q0.8281 0.79687 1.8593 1.2031 1.0469 0.39063 1.9375 0.39063 0.9219 0 1.4063-0.40625 0.5-0.40625 0.5-1.125 0-0.40625-0.25-0.6875-0.2344-0.28125-0.9688-0.48438l-2.3593-0.57812q-0.8282-0.20313-1.3594-0.5625-0.5156-0.375-0.8281-0.82812-0.2969-0.45313-0.4219-0.9375-0.1094-0.48438-0.1094-0.9375 0-1.6406 1.1563-2.5312 1.1562-0.89063 2.9843-0.89063 0.9532 0 2.0469 0.26563 1.1094 0.25 1.875 0.73437l-0.7187 2.2031q-0.4844-0.39063-1.375-0.78125-0.875-0.40625-1.9532-0.40625zm12.282-2.0156q2.1562 0 3.3281 1.0938t1.1719 3.0625q0 0.28125-0.031 0.59375-0.031 0.29688-0.094 0.59375-0.062 0.28125-0.1563 0.51563-0.078 0.23437-0.1718 0.37499h-7.125q0.047 0.73438 0.2656 1.3906 0.2187 0.64062 0.6406 1.125 0.4219 0.48437 1.0156 0.76562 0.5938 0.28125 1.4063 0.28125 0.9062 0 1.9219-0.34375 1.0156-0.34375 1.7187-0.85937l0.4531 2q-0.3281 0.20312-0.7968 0.4375-0.4532 0.23437-1.0469 0.4375-0.5938 0.1875-1.2656 0.3125-0.6719 0.14062-1.4063 0.14062-1.3594 0-2.4219-0.46875-1.0468-0.48437-1.7656-1.2969-0.7031-0.82813-1.0781-1.9062-0.3594-1.0781-0.3594-2.25 0-1.2031 0.375-2.2812 0.3906-1.0938 1.125-1.9219 0.7344-0.84375 1.8125-1.3125 1.0938-0.48438 2.4844-0.48438zm-0.062 2.1094q-1.0313 0-1.7656 0.60937-0.7188 0.59375-1.0313 1.6094h4.6719q0.031-0.0625 0.031-0.15625 0.016-0.10938 0.016-0.25 0-0.78125-0.5469-1.2969-0.5313-0.51562-1.375-0.51562zm13.747 0.70312q-0.25-0.1875-0.7656-0.3125t-0.875-0.125q-0.4844 0-0.8125 0.23438-0.3125 0.23437-0.5625 0.60937-0.2344 0.375-0.4063 0.875-0.1718 0.48438-0.3281 1v6.5312h-2.6875v-11.25h2.1094l0.125 2.3438h0.094q0.2344-0.51562 0.5-1 0.2813-0.5 0.625-0.875 0.3438-0.375 0.7969-0.60937 0.4531-0.23438 1.0625-0.23438 0.9844 0 1.8281 0.64063zm9.0262 8.8125h-3.25l-4.5-11.25h2.8125l3.3907 9.0156 3.5468-9.0156h2.6563zm11.496-11.625q2.1563 0 3.3282 1.0938 1.1718 1.0938 1.1718 3.0625 0 0.28125-0.031 0.59375-0.031 0.29688-0.094 0.59375-0.062 0.28125-0.1562 0.51563-0.078 0.23437-0.1719 0.37499h-7.125q0.047 0.73438 0.2656 1.3906 0.2188 0.64062 0.6407 1.125 0.4218 0.48437 1.0156 0.76562 0.5937 0.28125 1.4062 0.28125 0.9063 0 1.9219-0.34375t1.7188-0.85937l0.4531 2q-0.3281 0.20312-0.7969 0.4375-0.4531 0.23437-1.0469 0.4375-0.5937 0.1875-1.2656 0.3125-0.6719 0.14062-1.4062 0.14062-1.3594 0-2.4219-0.46875-1.0469-0.48437-1.7656-1.2969-0.7032-0.82813-1.0782-1.9062-0.3593-1.0781-0.3593-2.25 0-1.2031 0.375-2.2812 0.3906-1.0938 1.125-1.9219 0.7343-0.84375 1.8125-1.3125 1.0937-0.48438 2.4843-0.48438zm-0.062 2.1094q-1.0312 0-1.7656 0.60937-0.7187 0.59375-1.0312 1.6094h4.6718q0.031-0.0625 0.031-0.15625 0.016-0.10938 0.016-0.25 0-0.78125-0.5469-1.2969-0.5312-0.51562-1.375-0.51562zm13.747 0.70312q-0.25-0.1875-0.7657-0.3125-0.5156-0.125-0.875-0.125-0.4843 0-0.8125 0.23438-0.3125 0.23437-0.5625 0.60937-0.2343 0.375-0.4062 0.875-0.1719 0.48438-0.3281 1v6.5312h-2.6875v-11.25h2.1093l0.125 2.3438h0.094q0.2344-0.51562 0.5-1 0.2812-0.5 0.625-0.875 0.3437-0.375 0.7969-0.60937 0.4531-0.23438 1.0625-0.23438 0.9843 0 1.8281 0.64063z" fill="#000"/>
<path d="m939.4 260.6v-94.669h0.063v-94.654" fill-opacity="0"/>
<path d="m939.4 260.6v-94.669h0.063v-46.654" fill-rule="evenodd" stroke="#9fc5e8" stroke-linejoin="round" stroke-width="8"/>
<path d="m952.67 119.28-13.214-36.305-13.214 36.305z" fill="#9fc5e8" fill-rule="evenodd" stroke="#9fc5e8" stroke-width="8"/>
<path d="m842.5 227.14h-2.3281l-4.4062-12.281-4.375 12.281h-2.3281l-6.0156-16.156h3.0469l4.1406 12.531 4.1562-12.531h2.7656l4.1406 12.531 4.125-12.531h3.0625zm13.555 0-0.2031-1.5469h-0.094q-0.6719 0.84375-1.8125 1.3438-1.125 0.5-2.2969 0.5-1.5469 0-2.4375-0.89062-0.875-0.90625-0.875-2.3594 0-1.0156 0.42187-1.7969 0.4375-0.79688 1.2344-1.3438 0.8125-0.5625 1.9375-0.85938 1.125-0.29687 2.5312-0.29687h1.0469v-0.35938q0-0.95312-0.60937-1.3906-0.64063-0.4375-1.9844-0.4375-1.8125 0-3.2344 0.79687l-0.51563-2.0312q1.6406-0.95312 3.9688-0.95312 2.4531 0 3.7188 1 0.5937 0.46875 0.9687 1.2031 0.375 0.73438 0.375 1.7656v7.6562zm-3.3594-1.8906q0.78125 0 1.5625-0.375 0.7813-0.375 1.25-1.0156v-2.2188h-0.4687q-2 0-2.9219 0.51562-0.92188 0.5-0.92188 1.625 0 1.4688 1.5 1.4688zm9.1765-7.7188h-1.3906v-1.4688l1.5781-0.25 0.4531-3.3281h2.0469v3.4062h2.1563v1.6406h-2.1563v6.4531q0 0.73437 0.1406 1 0.1563 0.25 0.5782 0.25 0.3125 0 0.625-0.125 0.3281-0.125 0.9375-0.46875l0.4375 1.9375q-0.4688 0.39062-1.3125 0.625-0.8438 0.23437-1.6719 0.23437-0.7344 0-1.2188-0.20312-0.4687-0.1875-0.75-0.5625-0.2656-0.39063-0.3593-0.92188-0.094-0.54687-0.094-1.2031zm16.296 1.1406q-0.2656-0.1875-0.6719-0.375-0.4062-0.20313-0.875-0.34375-0.4531-0.15625-0.9687-0.23438-0.5-0.0937-0.9375-0.0937-0.8282 0-1.4063 0.3125-0.5781 0.29688-0.9375 0.79688-0.3437 0.5-0.5 1.1719-0.1562 0.65625-0.1562 1.3594 0 0.82812 0.1875 1.5625 0.2031 0.71875 0.5937 1.2656 0.3906 0.53125 0.9844 0.84375 0.5937 0.3125 1.3906 0.3125 0.875 0 1.8594-0.34375 1-0.35937 1.6562-1l0.4844 2.2969q-0.6719 0.45312-1.8594 0.84375-1.1875 0.39062-2.5312 0.39062-1.4219 0-2.5-0.48437-1.0625-0.5-1.7656-1.3125-0.6875-0.82813-1.0469-1.9062-0.3438-1.0938-0.3438-2.3125 0-1.1875 0.3282-2.25 0.3281-1.0625 1.0312-1.875 0.7188-0.82813 1.8125-1.2969 1.1094-0.48437 2.6406-0.48437 1.1875 0 2.3125 0.28125 1.125 0.26562 1.8125 0.70312zm5.9651-1.125q0.6875-1.0781 1.6094-1.5469 0.9219-0.48437 2.1563-0.48437 0.7343 0 1.4218 0.21875 0.6875 0.20312 1.2032 0.67187 0.5312 0.45313 0.8437 1.2188 0.3125 0.75 0.3125 1.8594v7.6562h-2.7031v-7.4375q0-1-0.4375-1.5t-1.2031-0.5q-0.4532 0-0.9688 0.14062-0.5 0.14063-0.9375 0.4375-0.4375 0.29688-0.7812 0.71875-0.3438 0.40625-0.5157 0.92188v7.2188h-2.6875v-18.109h2.6875zm15.929-2.0312q2.1563 0 3.3281 1.0938 1.1719 1.0938 1.1719 3.0625 0 0.28125-0.031 0.59375-0.031 0.29687-0.094 0.59375-0.062 0.28125-0.1562 0.51562-0.078 0.23438-0.1719 0.375h-7.125q0.047 0.73438 0.2656 1.3906 0.2188 0.64062 0.6406 1.125 0.4219 0.48437 1.0157 0.76562 0.5937 0.28125 1.4062 0.28125 0.9063 0 1.9219-0.34375t1.7187-0.85937l0.4532 2q-0.3282 0.20312-0.7969 0.4375-0.4531 0.23437-1.0469 0.4375-0.5937 0.1875-1.2656 0.3125-0.6719 0.14062-1.4063 0.14062-1.3593 0-2.4218-0.46875-1.0469-0.48437-1.7657-1.2969-0.7031-0.82813-1.0781-1.9062-0.3594-1.0781-0.3594-2.25 0-1.2031 0.375-2.2812 0.3907-1.0938 1.125-1.9219 0.7344-0.84375 1.8125-1.3125 1.0938-0.48437 2.4844-0.48437zm-0.062 2.1094q-1.0312 0-1.7656 0.60938-0.7188 0.59375-1.0313 1.6094h4.6719q0.031-0.0625 0.031-0.15625 0.016-0.10937 0.016-0.25 0-0.78125-0.5469-1.2969-0.5312-0.51563-1.375-0.51563zm10.732-0.0937q-0.7969 0-1.25 0.3125-0.4531 0.29688-0.4531 0.85938 0 0.35937 0.25 0.67187 0.2656 0.29688 1.0937 0.5l1.7344 0.39063q1.0313 0.21875 1.6563 0.64062 0.625 0.40625 0.9687 0.90625 0.3594 0.48438 0.4844 1 0.125 0.51563 0.125 0.95313 0 0.78125-0.3281 1.4531-0.3125 0.67188-0.9063 1.1719-0.5781 0.48437-1.4219 0.76562-0.8281 0.28125-1.8437 0.28125-1.2969 0-2.4063-0.375-1.0937-0.39062-1.7656-0.85937l0.6406-2.3125q0.8282 0.79687 1.8594 1.2031 1.0469 0.39063 1.9375 0.39063 0.9219 0 1.4063-0.40625 0.5-0.40625 0.5-1.125 0-0.40625-0.25-0.6875-0.2344-0.28125-0.9688-0.48438l-2.3594-0.57812q-0.8281-0.20313-1.3593-0.5625-0.5157-0.375-0.8282-0.82813-0.2968-0.45312-0.4218-0.9375-0.1094-0.48437-0.1094-0.9375 0-1.6406 1.1562-2.5312 1.1563-0.89062 2.9844-0.89062 0.9531 0 2.0469 0.26562 1.1094 0.25 1.875 0.73438l-0.7188 2.2031q-0.4843-0.39062-1.375-0.78125-0.875-0.40625-1.9531-0.40625z" fill="#fff"/>
</svg>
