<?xml version="1.0" encoding="UTF-8" standalone="no"?>
<svg
   xmlns:dc="http://purl.org/dc/elements/1.1/"
   xmlns:cc="http://creativecommons.org/ns#"
   xmlns:rdf="http://www.w3.org/1999/02/22-rdf-syntax-ns#"
   xmlns:svg="http://www.w3.org/2000/svg"
   xmlns="http://www.w3.org/2000/svg"
   version="1.1"
   viewBox="0 0 951.0331 281.30778"
   stroke-miterlimit="10"
   id="svg109"
   width="951.03308"
   height="281.30777"
   style="fill:none;stroke:none;stroke-linecap:square;stroke-miterlimit:10">
  <metadata
     id="metadata115">
    <rdf:RDF>
      <cc:Work
         rdf:about="">
        <dc:format>image/svg+xml</dc:format>
        <dc:type
           rdf:resource="http://purl.org/dc/dcmitype/StillImage" />
        <dc:title></dc:title>
      </cc:Work>
    </rdf:RDF>
  </metadata>
  <defs
     id="defs113" />
  <clipPath
     id="p34.0">
    <path
       d="M 0,0 H 1305.4987 V 734.3333 H 0 Z"
       id="path2"
       style="clip-rule:nonzero" />
  </clipPath>
  <path
     style="fill:#e06666;fill-rule:evenodd"
     id="path7"
     d="m 490.56691,26.0116 v 0 c 0,-14.08966 11.42194,-25.5116 25.5116,-25.5116 h 163.91223 c 6.76611,0 13.25506,2.68784 18.03943,7.4722 4.78436,4.78433 7.47216,11.27332 7.47216,18.0394 v 102.0433 c 0,14.08966 -11.42193,25.51157 -25.51159,25.51157 H 516.07851 c -14.08966,0 -25.5116,-11.42191 -25.5116,-25.51157 z" />
  <path
     style="fill-rule:evenodd;stroke:#002050;stroke-width:1;stroke-linecap:butt;stroke-linejoin:round"
     id="path9"
     d="m 490.56691,26.0116 v 0 c 0,-14.08966 11.42194,-25.5116 25.5116,-25.5116 h 163.91223 c 6.76611,0 13.25506,2.68784 18.03943,7.4722 4.78436,4.78433 7.47216,11.27332 7.47216,18.0394 v 102.0433 c 0,14.08966 -11.42193,25.51157 -25.51159,25.51157 H 516.07851 c -14.08966,0 -25.5116,-11.42191 -25.5116,-25.51157 z" />
  <path
     style="fill:#ffffff;fill-rule:nonzero"
     id="path11"
     d="m 584.59405,34.4104 q -0.42188,0 -0.82813,0 -0.40625,0 -0.76562,-0.0312 v 6.09375 h -2.8125 V 24.3167 q 0.35937,-0.0156 0.82812,-0.0312 0.48438,-0.0312 1.01563,-0.0469 0.53125,-0.0156 1.04687,-0.0156 0.53125,-0.0156 1,-0.0156 1.35938,0 2.48438,0.32813 1.14062,0.32812 1.9375,0.98437 0.8125,0.65625 1.25,1.625 0.4375,0.96875 0.4375,2.25 0,1.01563 -0.34375,1.92188 -0.34375,0.90625 -1.03125,1.59375 -0.67188,0.6875 -1.73438,1.09375 -1.0625,0.40625 -2.48437,0.40625 z m -0.125,-7.85938 q -0.39063,0 -0.76563,0 -0.35937,0 -0.70312,0.0312 v 5.45313 q 0.34375,0.0156 0.71875,0.0156 0.375,0 0.79687,0 1.32813,0 2,-0.73437 0.67188,-0.73438 0.67188,-2.125 0,-1.17188 -0.60938,-1.90625 -0.59375,-0.73438 -2.10937,-0.73438 z m 12.7934,2.29688 q 1.5,0 2.5625,0.5 1.07812,0.5 1.78125,1.34375 0.70312,0.84375 1.03125,1.9375 0.32812,1.09375 0.32812,2.29687 0,1.1875 -0.32812,2.25 -0.32813,1.0625 -1.03125,1.85938 -0.70313,0.79687 -1.76563,1.26562 -1.0625,0.46875 -2.5,0.46875 -1.5,0 -2.57812,-0.48437 -1.07813,-0.5 -1.78125,-1.3125 -0.70313,-0.82813 -1.04688,-1.90625 -0.34375,-1.07813 -0.34375,-2.26563 0,-1.20312 0.34375,-2.28125 0.34375,-1.07812 1.03125,-1.89062 0.70313,-0.82813 1.78125,-1.29688 1.07813,-0.48437 2.51563,-0.48437 z m 0.0469,9.89062 q 0.71875,0 1.23438,-0.29687 0.53125,-0.3125 0.875,-0.84375 0.34375,-0.53125 0.5,-1.20313 0.15625,-0.6875 0.15625,-1.45312 0,-0.78125 -0.17188,-1.5 -0.17187,-0.71875 -0.53125,-1.26563 -0.34375,-0.5625 -0.89062,-0.89062 -0.53125,-0.32813 -1.29688,-0.32813 -0.70312,0 -1.21875,0.3125 -0.51562,0.29688 -0.84375,0.8125 -0.32812,0.51563 -0.48437,1.20313 -0.15625,0.67187 -0.15625,1.4375 0,0.78125 0.15625,1.5 0.15625,0.71875 0.5,1.29687 0.35937,0.5625 0.89062,0.89063 0.54688,0.32812 1.28125,0.32812 z m 12.85516,2.03125 q -1.15625,0 -2.10937,-0.46875 -0.95313,-0.46875 -1.625,-1.26562 -0.67188,-0.8125 -1.04688,-1.90625 -0.35937,-1.10938 -0.35937,-2.40625 0,-1.15625 0.29687,-2.21875 0.3125,-1.0625 0.9375,-1.85938 0.64063,-0.8125 1.57813,-1.29687 0.95312,-0.5 2.25,-0.5 1.17187,0 2.09375,0.39062 0.9375,0.39063 1.5,1.10938 v -7.98438 h 2.67187 V 40.4729 h -2.15625 l -0.20312,-1.54688 h -0.0937 q -0.6875,0.76563 -1.5625,1.3125 -0.85938,0.53125 -2.17188,0.53125 z m 0.34375,-2.03125 q 0.39063,0 0.82813,-0.10937 0.4375,-0.10938 0.85937,-0.29688 0.4375,-0.20312 0.82813,-0.48437 0.39062,-0.28125 0.65625,-0.65625 v -4.70313 q -0.73438,-0.89062 -1.5,-1.21875 -0.75,-0.34375 -1.45313,-0.34375 -0.78125,0 -1.34375,0.3125 -0.5625,0.29688 -0.95312,0.84375 -0.375,0.53125 -0.5625,1.23438 -0.1875,0.70312 -0.1875,1.45312 0,0.73438 0.17187,1.45313 0.17188,0.71875 0.51563,1.28125 0.34375,0.54687 0.875,0.89062 0.54687,0.34375 1.26562,0.34375 z" />
  <path
     style="fill:#990000;fill-rule:evenodd"
     id="path13"
     d="m 508.51031,76.51685 v 0 c 0,-6.89255 5.58752,-12.48007 12.48004,-12.48007 h 56.40759 c 3.30994,0 6.48426,1.31488 8.82477,3.65533 2.34046,2.34049 3.65534,5.51483 3.65534,8.82474 v 49.91876 c 0,6.89255 -5.58753,12.48007 -12.48011,12.48007 h -56.40759 c -6.89252,0 -12.48004,-5.58752 -12.48004,-12.48007 z" />
  <path
     style="fill-rule:evenodd;stroke:#002050;stroke-width:1;stroke-linecap:butt;stroke-linejoin:round"
     id="path15"
     d="m 508.51031,76.51685 v 0 c 0,-6.89255 5.58752,-12.48007 12.48004,-12.48007 h 56.40759 c 3.30994,0 6.48426,1.31488 8.82477,3.65533 2.34046,2.34049 3.65534,5.51483 3.65534,8.82474 v 49.91876 c 0,6.89255 -5.58753,12.48007 -12.48011,12.48007 h -56.40759 c -6.89252,0 -12.48004,-5.58752 -12.48004,-12.48007 z" />
  <path
     style="fill:#ffffff;fill-rule:nonzero"
     id="path17"
     d="m 530.66561,88.19397 q -0.5,-0.375 -1.4375,-0.67188 -0.92187,-0.29687 -1.85937,-0.29687 -0.96875,0 -1.625,0.32812 -0.65625,0.32813 -1.09375,0.875 -0.4375,0.54688 -0.64063,1.25 -0.1875,0.70313 -0.1875,1.46875 0,0.84375 0.23438,1.625 0.23437,0.78125 0.70312,1.375 0.46875,0.59375 1.15625,0.9375 0.6875,0.34375 1.59375,0.34375 0.875,0 1.79688,-0.35937 0.92187,-0.375 1.53125,-0.9375 l 0.3125,1.40625 q -0.60938,0.39062 -1.67188,0.75 -1.04687,0.34375 -2.25,0.34375 -1.25,0 -2.20312,-0.4375 -0.9375,-0.4375 -1.5625,-1.15625 -0.625,-0.73438 -0.9375,-1.70313 -0.3125,-0.96875 -0.3125,-2.0625 0,-1.04687 0.28125,-1.98437 0.29687,-0.95313 0.92187,-1.67188 0.64063,-0.73437 1.60938,-1.15625 0.98437,-0.42187 2.35937,-0.42187 1.04688,0 2.04688,0.23437 1,0.23438 1.60937,0.625 z m 7.31641,-2.15625 q 1.32812,0 2.28125,0.45312 0.95312,0.4375 1.57812,1.1875 0.625,0.75 0.90625,1.71875 0.29688,0.96875 0.29688,2.03125 0,1.0625 -0.29688,2.01563 -0.28125,0.9375 -0.89062,1.65625 -0.60938,0.70312 -1.5625,1.125 -0.95313,0.40625 -2.23438,0.40625 -1.32812,0 -2.29687,-0.4375 -0.95313,-0.4375 -1.59375,-1.15625 -0.625,-0.73438 -0.9375,-1.6875 -0.29688,-0.96875 -0.29688,-2.03125 0,-1.0625 0.29688,-2.01563 0.3125,-0.96875 0.92187,-1.6875 0.625,-0.73437 1.57813,-1.15625 0.96875,-0.42187 2.25,-0.42187 z m 0.0625,9.4375 q 0.875,0 1.51562,-0.32813 0.64063,-0.32812 1.0625,-0.875 0.42188,-0.5625 0.60938,-1.28125 0.20312,-0.73437 0.20312,-1.54687 0,-0.8125 -0.20312,-1.57813 -0.20313,-0.76562 -0.64063,-1.34375 -0.4375,-0.57812 -1.10937,-0.92187 -0.65625,-0.34375 -1.5625,-0.34375 -0.89063,0 -1.53125,0.32812 -0.625,0.32813 -1.04688,0.875 -0.40625,0.53125 -0.60937,1.26563 -0.1875,0.71875 -0.1875,1.53125 0,0.82812 0.20312,1.59375 0.20313,0.75 0.625,1.34375 0.4375,0.57812 1.09375,0.9375 0.65625,0.34375 1.57813,0.34375 z m 14.76422,0.89062 v -6.60937 q 0,-1.3125 -0.59375,-1.875 -0.57813,-0.5625 -1.48438,-0.5625 -0.54687,0 -1.07812,0.17187 -0.53125,0.17188 -1,0.51563 -0.45313,0.32812 -0.79688,0.82812 -0.34375,0.48438 -0.54687,1.10938 v 6.42187 h -1.51563 v -10 h 1.1875 l 0.17188,1.85938 h 0.0937 q 0.28125,-0.90625 1.25,-1.54688 0.98437,-0.64062 2.4375,-0.64062 0.70312,0 1.3125,0.1875 0.625,0.17187 1.07812,0.59375 0.46875,0.40625 0.73438,1.09375 0.28125,0.67187 0.28125,1.64062 v 6.8125 z m 12.10376,-5.76562 v 1.14062 h -7.35938 v -1.14062 z" />
  <path
     style="fill:#ffffff;fill-rule:nonzero"
     id="path19"
     d="m 523.32181,113.38147 h -1.67187 v -0.79688 l 1.71875,-0.21875 0.3125,-3.03125 h 1.15625 v 3.03125 h 2.35937 v 1.01563 h -2.35937 v 6.9375 q 0,0.70312 0.20312,0.92187 0.21875,0.21875 0.65625,0.21875 0.5,0 0.89063,-0.15625 0.39062,-0.15625 0.6875,-0.375 l 0.3125,1.15625 q -0.375,0.17188 -0.98438,0.34375 -0.59375,0.17188 -1.3125,0.17188 -0.6875,0 -1.07812,-0.20313 -0.39063,-0.1875 -0.59375,-0.51562 -0.1875,-0.32813 -0.25,-0.71875 -0.0469,-0.40625 -0.0469,-0.79688 z m 12.69836,8.98437 -0.17187,-1.78125 h -0.0937 q -0.25,0.40625 -0.6875,0.78125 -0.4375,0.375 -0.96875,0.65625 -0.53125,0.28125 -1.15625,0.4375 -0.625,0.17188 -1.23438,0.17188 -1.42187,0 -2.14062,-0.82813 -0.71875,-0.84375 -0.71875,-2.10937 0,-1.25 0.625,-1.98438 0.625,-0.73437 1.53125,-1.10937 0.92187,-0.375 1.9375,-0.46875 1.01562,-0.10938 1.78125,-0.10938 h 0.96875 v -0.26562 q 0,-0.82813 -0.23438,-1.26563 -0.21875,-0.4375 -0.65625,-0.73437 -0.375,-0.25 -0.79687,-0.34375 -0.42188,-0.0937 -1.10938,-0.0937 -0.92187,0 -1.625,0.25 -0.6875,0.23437 -1.34375,0.625 l -0.34375,-1.3125 q 1.45313,-0.84375 3.48438,-0.84375 0.79687,0 1.51562,0.14062 0.71875,0.14063 1.26563,0.48438 0.625,0.39062 1,1.10937 0.375,0.71875 0.375,1.78125 v 6.8125 z m -3.84375,-1.01562 q 0.89063,0 1.89063,-0.5625 1,-0.57813 1.625,-1.64063 v -2.01562 h -0.1875 q -0.89063,0 -1.79688,0.0625 -0.89062,0.0625 -1.625,0.32812 -0.71875,0.25 -1.17187,0.75 -0.45313,0.48438 -0.45313,1.32813 0,0.85937 0.46875,1.3125 0.46875,0.4375 1.25,0.4375 z m 9.84711,1.01562 h -1.51562 v -10 h 1.51562 z m -1.84375,-13.65625 q 0,-0.4375 0.3125,-0.78125 0.3125,-0.35937 0.76563,-0.35937 0.4375,0 0.78125,0.35937 0.35937,0.34375 0.35937,0.78125 0,0.45313 -0.35937,0.76563 -0.34375,0.3125 -0.78125,0.3125 -0.45313,0 -0.76563,-0.3125 -0.3125,-0.3125 -0.3125,-0.76563 z m 12.25922,13.65625 v -6.60937 q 0,-1.3125 -0.59375,-1.875 -0.57813,-0.5625 -1.48438,-0.5625 -0.54687,0 -1.07812,0.17187 -0.53125,0.17188 -1,0.51563 -0.45313,0.32812 -0.79688,0.82812 -0.34375,0.48438 -0.54687,1.10938 v 6.42187 h -1.51563 v -10 h 1.1875 l 0.17188,1.85938 h 0.0937 q 0.28125,-0.90625 1.25,-1.54688 0.98437,-0.64062 2.4375,-0.64062 0.70312,0 1.3125,0.1875 0.625,0.17187 1.07812,0.59375 0.46875,0.40625 0.73438,1.09375 0.28125,0.67187 0.28125,1.64062 v 6.8125 z m 9.30688,-10.32812 q 1.92188,0 2.95313,0.96875 1.04687,0.96875 1.04687,2.71875 0,0.375 -0.0469,0.76562 -0.0312,0.375 -0.14063,0.54688 h -7.32812 v 0.21875 q 0,0.82812 0.21875,1.59375 0.21875,0.75 0.64062,1.34375 0.4375,0.57812 1.09375,0.9375 0.67188,0.34375 1.59375,0.34375 0.51563,0 1.01563,-0.10938 0.5,-0.125 0.95312,-0.3125 0.46875,-0.1875 0.85938,-0.40625 0.39062,-0.21875 0.6875,-0.4375 l 0.26562,1.25 q -0.28125,0.17188 -0.70312,0.375 -0.40625,0.20313 -0.90625,0.375 -0.5,0.17188 -1.10938,0.29688 -0.59375,0.125 -1.23437,0.125 -1.21875,0 -2.15625,-0.42188 -0.9375,-0.4375 -1.57813,-1.15625 -0.625,-0.73437 -0.95312,-1.6875 -0.32813,-0.95312 -0.32813,-2 0,-1.0625 0.34375,-2.03125 0.34375,-0.96875 0.98438,-1.70312 0.65625,-0.75 1.625,-1.17188 0.96875,-0.42187 2.20312,-0.42187 z m -0.0625,1.21875 q -1.4375,0 -2.23437,0.75 -0.78125,0.75 -1.0625,1.875 h 5.9375 q 0.0156,-0.10938 0.0156,-0.1875 0,-0.0937 0,-0.20313 0,-0.54687 -0.21875,-0.96875 -0.21875,-0.42187 -0.59375,-0.70312 -0.35937,-0.28125 -0.84375,-0.42188 -0.46875,-0.14062 -1,-0.14062 z m 12.22913,0.71875 q -0.34375,-0.20313 -0.70313,-0.3125 -0.34375,-0.125 -0.67187,-0.125 -0.4375,0 -0.82813,0.23437 -0.39062,0.23438 -0.71875,0.65625 -0.32812,0.40625 -0.57812,0.95313 -0.25,0.54687 -0.375,1.14062 v 5.84375 h -1.51563 v -10 h 1.1875 l 0.17188,2.1875 h 0.0937 q 0.15625,-0.5 0.40625,-0.95312 0.25,-0.45313 0.60937,-0.79688 0.35938,-0.35937 0.8125,-0.5625 0.45313,-0.20312 1.04688,-0.20312 0.40625,0 0.85937,0.14062 0.45313,0.14063 0.65625,0.35938 z" />
  <path
     style="fill:#990000;fill-rule:evenodd"
     id="path21"
     d="m 606.24206,76.51685 v 0 c 0,-6.89255 5.58752,-12.48007 12.48004,-12.48007 h 56.40759 c 3.30994,0 6.48432,1.31488 8.82477,3.65533 2.34046,2.34049 3.65534,5.51483 3.65534,8.82474 v 49.91876 c 0,6.89255 -5.58753,12.48007 -12.48011,12.48007 H 618.7221 c -6.89252,0 -12.48004,-5.58752 -12.48004,-12.48007 z" />
  <path
     style="fill-rule:evenodd;stroke:#002050;stroke-width:1;stroke-linecap:butt;stroke-linejoin:round"
     id="path23"
     d="m 606.24206,76.51685 v 0 c 0,-6.89255 5.58752,-12.48007 12.48004,-12.48007 h 56.40759 c 3.30994,0 6.48432,1.31488 8.82477,3.65533 2.34046,2.34049 3.65534,5.51483 3.65534,8.82474 v 49.91876 c 0,6.89255 -5.58753,12.48007 -12.48011,12.48007 H 618.7221 c -6.89252,0 -12.48004,-5.58752 -12.48004,-12.48007 z" />
  <path
     style="fill:#ffffff;fill-rule:nonzero"
     id="path25"
     d="m 628.39731,88.19397 q -0.5,-0.375 -1.4375,-0.67188 -0.92188,-0.29687 -1.85938,-0.29687 -0.96875,0 -1.625,0.32812 -0.65625,0.32813 -1.09375,0.875 -0.4375,0.54688 -0.64062,1.25 -0.1875,0.70313 -0.1875,1.46875 0,0.84375 0.23437,1.625 0.23438,0.78125 0.70313,1.375 0.46875,0.59375 1.15625,0.9375 0.6875,0.34375 1.59375,0.34375 0.875,0 1.79687,-0.35937 0.92188,-0.375 1.53125,-0.9375 l 0.3125,1.40625 q -0.60937,0.39062 -1.67187,0.75 -1.04688,0.34375 -2.25,0.34375 -1.25,0 -2.20313,-0.4375 -0.9375,-0.4375 -1.5625,-1.15625 -0.625,-0.73438 -0.9375,-1.70313 -0.3125,-0.96875 -0.3125,-2.0625 0,-1.04687 0.28125,-1.98437 0.29688,-0.95313 0.92188,-1.67188 0.64062,-0.73437 1.60937,-1.15625 0.98438,-0.42187 2.35938,-0.42187 1.04687,0 2.04687,0.23437 1,0.23438 1.60938,0.625 z m 7.31641,-2.15625 q 1.32812,0 2.28125,0.45312 0.95312,0.4375 1.57812,1.1875 0.625,0.75 0.90625,1.71875 0.29688,0.96875 0.29688,2.03125 0,1.0625 -0.29688,2.01563 -0.28125,0.9375 -0.89062,1.65625 -0.60938,0.70312 -1.5625,1.125 -0.95313,0.40625 -2.23438,0.40625 -1.32812,0 -2.29687,-0.4375 -0.95313,-0.4375 -1.59375,-1.15625 -0.625,-0.73438 -0.9375,-1.6875 -0.29688,-0.96875 -0.29688,-2.03125 0,-1.0625 0.29688,-2.01563 0.3125,-0.96875 0.92187,-1.6875 0.625,-0.73437 1.57813,-1.15625 0.96875,-0.42187 2.25,-0.42187 z m 0.0625,9.4375 q 0.875,0 1.51562,-0.32813 0.64063,-0.32812 1.0625,-0.875 0.42188,-0.5625 0.60938,-1.28125 0.20312,-0.73437 0.20312,-1.54687 0,-0.8125 -0.20312,-1.57813 -0.20313,-0.76562 -0.64063,-1.34375 -0.4375,-0.57812 -1.10937,-0.92187 -0.65625,-0.34375 -1.5625,-0.34375 -0.89063,0 -1.53125,0.32812 -0.625,0.32813 -1.04688,0.875 -0.40625,0.53125 -0.60937,1.26563 -0.1875,0.71875 -0.1875,1.53125 0,0.82812 0.20312,1.59375 0.20313,0.75 0.625,1.34375 0.4375,0.57812 1.09375,0.9375 0.65625,0.34375 1.57813,0.34375 z m 14.76422,0.89062 v -6.60937 q 0,-1.3125 -0.59375,-1.875 -0.57813,-0.5625 -1.48438,-0.5625 -0.54687,0 -1.07812,0.17187 -0.53125,0.17188 -1,0.51563 -0.45313,0.32812 -0.79688,0.82812 -0.34375,0.48438 -0.54687,1.10938 v 6.42187 h -1.51563 v -10 h 1.1875 l 0.17188,1.85938 h 0.0937 q 0.28125,-0.90625 1.25,-1.54688 0.98437,-0.64062 2.4375,-0.64062 0.70312,0 1.3125,0.1875 0.625,0.17187 1.07812,0.59375 0.46875,0.40625 0.73438,1.09375 0.28125,0.67187 0.28125,1.64062 v 6.8125 z m 12.10376,-5.76562 v 1.14062 h -7.35938 v -1.14062 z" />
  <path
     style="fill:#ffffff;fill-rule:nonzero"
     id="path27"
     d="m 621.05361,113.38147 h -1.67188 v -0.79688 l 1.71875,-0.21875 0.3125,-3.03125 h 1.15625 v 3.03125 h 2.35938 v 1.01563 h -2.35938 v 6.9375 q 0,0.70312 0.20313,0.92187 0.21875,0.21875 0.65625,0.21875 0.5,0 0.89062,-0.15625 0.39063,-0.15625 0.6875,-0.375 l 0.3125,1.15625 q -0.375,0.17188 -0.98437,0.34375 -0.59375,0.17188 -1.3125,0.17188 -0.6875,0 -1.07813,-0.20313 -0.39062,-0.1875 -0.59375,-0.51562 -0.1875,-0.32813 -0.25,-0.71875 -0.0469,-0.40625 -0.0469,-0.79688 z m 12.69836,8.98437 -0.17187,-1.78125 h -0.0937 q -0.25,0.40625 -0.6875,0.78125 -0.4375,0.375 -0.96875,0.65625 -0.53125,0.28125 -1.15625,0.4375 -0.625,0.17188 -1.23438,0.17188 -1.42187,0 -2.14062,-0.82813 -0.71875,-0.84375 -0.71875,-2.10937 0,-1.25 0.625,-1.98438 0.625,-0.73437 1.53125,-1.10937 0.92187,-0.375 1.9375,-0.46875 1.01562,-0.10938 1.78125,-0.10938 h 0.96875 v -0.26562 q 0,-0.82813 -0.23438,-1.26563 -0.21875,-0.4375 -0.65625,-0.73437 -0.375,-0.25 -0.79687,-0.34375 -0.42188,-0.0937 -1.10938,-0.0937 -0.92187,0 -1.625,0.25 -0.6875,0.23437 -1.34375,0.625 l -0.34375,-1.3125 q 1.45313,-0.84375 3.48438,-0.84375 0.79687,0 1.51562,0.14062 0.71875,0.14063 1.26563,0.48438 0.625,0.39062 1,1.10937 0.375,0.71875 0.375,1.78125 v 6.8125 z m -3.84375,-1.01562 q 0.89063,0 1.89063,-0.5625 1,-0.57813 1.625,-1.64063 v -2.01562 h -0.1875 q -0.89063,0 -1.79688,0.0625 -0.89062,0.0625 -1.625,0.32812 -0.71875,0.25 -1.17187,0.75 -0.45313,0.48438 -0.45313,1.32813 0,0.85937 0.46875,1.3125 0.46875,0.4375 1.25,0.4375 z m 9.84711,1.01562 h -1.51562 v -10 h 1.51562 z m -1.84375,-13.65625 q 0,-0.4375 0.3125,-0.78125 0.3125,-0.35937 0.76563,-0.35937 0.4375,0 0.78125,0.35937 0.35937,0.34375 0.35937,0.78125 0,0.45313 -0.35937,0.76563 -0.34375,0.3125 -0.78125,0.3125 -0.45313,0 -0.76563,-0.3125 -0.3125,-0.3125 -0.3125,-0.76563 z m 12.25922,13.65625 v -6.60937 q 0,-1.3125 -0.59375,-1.875 -0.57813,-0.5625 -1.48438,-0.5625 -0.54687,0 -1.07812,0.17187 -0.53125,0.17188 -1,0.51563 -0.45313,0.32812 -0.79688,0.82812 -0.34375,0.48438 -0.54687,1.10938 v 6.42187 h -1.51563 v -10 h 1.1875 l 0.17188,1.85938 h 0.0937 q 0.28125,-0.90625 1.25,-1.54688 0.98437,-0.64062 2.4375,-0.64062 0.70312,0 1.3125,0.1875 0.625,0.17187 1.07812,0.59375 0.46875,0.40625 0.73438,1.09375 0.28125,0.67187 0.28125,1.64062 v 6.8125 z m 9.30688,-10.32812 q 1.92188,0 2.95313,0.96875 1.04687,0.96875 1.04687,2.71875 0,0.375 -0.0469,0.76562 -0.0312,0.375 -0.14063,0.54688 h -7.32812 v 0.21875 q 0,0.82812 0.21875,1.59375 0.21875,0.75 0.64062,1.34375 0.4375,0.57812 1.09375,0.9375 0.67188,0.34375 1.59375,0.34375 0.51563,0 1.01563,-0.10938 0.5,-0.125 0.95312,-0.3125 0.46875,-0.1875 0.85938,-0.40625 0.39062,-0.21875 0.6875,-0.4375 l 0.26562,1.25 q -0.28125,0.17188 -0.70312,0.375 -0.40625,0.20313 -0.90625,0.375 -0.5,0.17188 -1.10938,0.29688 -0.59375,0.125 -1.23437,0.125 -1.21875,0 -2.15625,-0.42188 -0.9375,-0.4375 -1.57813,-1.15625 -0.625,-0.73437 -0.95312,-1.6875 -0.32813,-0.95312 -0.32813,-2 0,-1.0625 0.34375,-2.03125 0.34375,-0.96875 0.98438,-1.70312 0.65625,-0.75 1.625,-1.17188 0.96875,-0.42187 2.20312,-0.42187 z m -0.0625,1.21875 q -1.4375,0 -2.23437,0.75 -0.78125,0.75 -1.0625,1.875 h 5.9375 q 0.0156,-0.10938 0.0156,-0.1875 0,-0.0937 0,-0.20313 0,-0.54687 -0.21875,-0.96875 -0.21875,-0.42187 -0.59375,-0.70312 -0.35937,-0.28125 -0.84375,-0.42188 -0.46875,-0.14062 -1,-0.14062 z m 12.22913,0.71875 q -0.34375,-0.20313 -0.70313,-0.3125 -0.34375,-0.125 -0.67187,-0.125 -0.4375,0 -0.82813,0.23437 -0.39062,0.23438 -0.71875,0.65625 -0.32812,0.40625 -0.57812,0.95313 -0.25,0.54687 -0.375,1.14062 v 5.84375 h -1.51563 v -10 h 1.1875 l 0.17188,2.1875 h 0.0937 q 0.15625,-0.5 0.40625,-0.95312 0.25,-0.45313 0.60937,-0.79688 0.35938,-0.35937 0.8125,-0.5625 0.45313,-0.20312 1.04688,-0.20312 0.40625,0 0.85937,0.14062 0.45313,0.14063 0.65625,0.35938 z" />
  <path
     style="fill:#000000;fill-opacity:0;fill-rule:evenodd"
     id="path41"
     d="M 107.96771,153.56647 V 275.68003 H 598.04645 V 153.62946" />
  <path
     style="fill-rule:evenodd;stroke:#9fc5e8;stroke-width:8;stroke-linecap:butt;stroke-linejoin:round"
     id="path43"
     d="m 107.96771,153.5665 v 122.11352 h 490.0788 v -74.05053" />
  <path
     style="fill:#9fc5e8;fill-rule:evenodd;stroke:#9fc5e8;stroke-width:8;stroke-linecap:butt"
     id="path45"
     d="M 611.26037,201.62949 598.0465,165.32471 584.83264,201.62949 Z" />
  <path
     style="fill:#e06666;fill-rule:evenodd"
     id="path69"
     d="m 735.59765,26.0116 v 0 c 0,-14.08966 11.42194,-25.5116 25.5116,-25.5116 h 163.91226 c 6.7661,0 13.2551,2.68784 18.0394,7.4722 4.7843,4.78433 7.4722,11.27332 7.4722,18.0394 v 102.0433 c 0,14.08966 -11.4219,25.51157 -25.5116,25.51157 H 761.10925 c -14.08966,0 -25.5116,-11.42191 -25.5116,-25.51157 z" />
  <path
     style="fill-rule:evenodd;stroke:#002050;stroke-width:1;stroke-linecap:butt;stroke-linejoin:round"
     id="path71"
     d="m 735.59765,26.0116 v 0 c 0,-14.08966 11.42194,-25.5116 25.5116,-25.5116 h 163.91226 c 6.7661,0 13.2551,2.68784 18.0394,7.4722 4.7843,4.78433 7.4722,11.27332 7.4722,18.0394 v 102.0433 c 0,14.08966 -11.4219,25.51157 -25.5116,25.51157 H 761.10925 c -14.08966,0 -25.5116,-11.42191 -25.5116,-25.51157 z" />
  <path
     style="fill:#ffffff;fill-rule:nonzero"
     id="path73"
     d="m 829.62481,34.4104 q -0.4219,0 -0.8281,0 -0.4063,0 -0.7656,-0.0312 v 6.09375 h -2.8125 V 24.3167 q 0.3593,-0.0156 0.8281,-0.0312 0.4844,-0.0312 1.0156,-0.0469 0.5313,-0.0156 1.0469,-0.0156 0.5312,-0.0156 1,-0.0156 1.3594,0 2.4844,0.32813 1.1406,0.32812 1.9375,0.98437 0.8125,0.65625 1.25,1.625 0.4375,0.96875 0.4375,2.25 0,1.01563 -0.3438,1.92188 -0.3437,0.90625 -1.0312,1.59375 -0.6719,0.6875 -1.7344,1.09375 -1.0625,0.40625 -2.4844,0.40625 z m -0.125,-7.85938 q -0.3906,0 -0.7656,0 -0.3594,0 -0.7031,0.0312 v 5.45313 q 0.3437,0.0156 0.7187,0.0156 0.375,0 0.7969,0 1.3281,0 2,-0.73437 0.6719,-0.73438 0.6719,-2.125 0,-1.17188 -0.6094,-1.90625 -0.5938,-0.73438 -2.1094,-0.73438 z m 12.7934,2.29688 q 1.5,0 2.5625,0.5 1.0781,0.5 1.7812,1.34375 0.7032,0.84375 1.0313,1.9375 0.3281,1.09375 0.3281,2.29687 0,1.1875 -0.3281,2.25 -0.3281,1.0625 -1.0313,1.85938 -0.7031,0.79687 -1.7656,1.26562 -1.0625,0.46875 -2.5,0.46875 -1.5,0 -2.5781,-0.48437 -1.0781,-0.5 -1.7813,-1.3125 -0.7031,-0.82813 -1.0468,-1.90625 -0.3438,-1.07813 -0.3438,-2.26563 0,-1.20312 0.3438,-2.28125 0.3437,-1.07812 1.0312,-1.89062 0.7031,-0.82813 1.7813,-1.29688 1.0781,-0.48437 2.5156,-0.48437 z m 0.047,9.89062 q 0.7187,0 1.2343,-0.29687 0.5313,-0.3125 0.875,-0.84375 0.3438,-0.53125 0.5,-1.20313 0.1563,-0.6875 0.1563,-1.45312 0,-0.78125 -0.1719,-1.5 -0.1719,-0.71875 -0.5312,-1.26563 -0.3438,-0.5625 -0.8907,-0.89062 -0.5312,-0.32813 -1.2968,-0.32813 -0.7032,0 -1.2188,0.3125 -0.5156,0.29688 -0.8437,0.8125 -0.3282,0.51563 -0.4844,1.20313 -0.1563,0.67187 -0.1563,1.4375 0,0.78125 0.1563,1.5 0.1562,0.71875 0.5,1.29687 0.3594,0.5625 0.8906,0.89063 0.5469,0.32812 1.2813,0.32812 z m 12.8551,2.03125 q -1.1563,0 -2.1094,-0.46875 -0.9531,-0.46875 -1.625,-1.26562 -0.6719,-0.8125 -1.0469,-1.90625 -0.3594,-1.10938 -0.3594,-2.40625 0,-1.15625 0.2969,-2.21875 0.3125,-1.0625 0.9375,-1.85938 0.6406,-0.8125 1.5781,-1.29687 0.9532,-0.5 2.25,-0.5 1.1719,0 2.0938,0.39062 0.9375,0.39063 1.5,1.10938 v -7.98438 h 2.6719 V 40.4729 h -2.1563 l -0.2031,-1.54688 h -0.094 q -0.6875,0.76563 -1.5625,1.3125 -0.8593,0.53125 -2.1718,0.53125 z m 0.3437,-2.03125 q 0.3906,0 0.8281,-0.10937 0.4375,-0.10938 0.8594,-0.29688 0.4375,-0.20312 0.8281,-0.48437 0.3907,-0.28125 0.6563,-0.65625 v -4.70313 q -0.7344,-0.89062 -1.5,-1.21875 -0.75,-0.34375 -1.4531,-0.34375 -0.7813,0 -1.3438,0.3125 -0.5625,0.29688 -0.9531,0.84375 -0.375,0.53125 -0.5625,1.23438 -0.1875,0.70312 -0.1875,1.45312 0,0.73438 0.1719,1.45313 0.1718,0.71875 0.5156,1.28125 0.3437,0.54687 0.875,0.89062 0.5469,0.34375 1.2656,0.34375 z" />
  <path
     style="fill:#990000;fill-rule:evenodd"
     id="path75"
     d="m 753.54107,76.51685 v 0 c 0,-6.89255 5.58746,-12.48007 12.48004,-12.48007 h 56.40759 c 3.30991,0 6.48421,1.31488 8.82481,3.65533 2.3404,2.34049 3.6552,5.51483 3.6552,8.82474 v 49.91876 c 0,6.89255 -5.5874,12.48007 -12.48001,12.48007 h -56.40759 c -6.89258,0 -12.48004,-5.58752 -12.48004,-12.48007 z" />
  <path
     style="fill-rule:evenodd;stroke:#002050;stroke-width:1;stroke-linecap:butt;stroke-linejoin:round"
     id="path77"
     d="m 753.54107,76.51685 v 0 c 0,-6.89255 5.58746,-12.48007 12.48004,-12.48007 h 56.40759 c 3.30991,0 6.48421,1.31488 8.82481,3.65533 2.3404,2.34049 3.6552,5.51483 3.6552,8.82474 v 49.91876 c 0,6.89255 -5.5874,12.48007 -12.48001,12.48007 h -56.40759 c -6.89258,0 -12.48004,-5.58752 -12.48004,-12.48007 z" />
  <path
     style="fill:#ffffff;fill-rule:nonzero"
     id="path79"
     d="m 775.69635,88.19397 q -0.5,-0.375 -1.4375,-0.67188 -0.92188,-0.29687 -1.85938,-0.29687 -0.96875,0 -1.625,0.32812 -0.65625,0.32813 -1.09375,0.875 -0.4375,0.54688 -0.64062,1.25 -0.1875,0.70313 -0.1875,1.46875 0,0.84375 0.23437,1.625 0.23438,0.78125 0.70313,1.375 0.46875,0.59375 1.15625,0.9375 0.6875,0.34375 1.59375,0.34375 0.875,0 1.79687,-0.35937 0.92188,-0.375 1.53125,-0.9375 l 0.3125,1.40625 q -0.60937,0.39062 -1.67187,0.75 -1.04688,0.34375 -2.25,0.34375 -1.25,0 -2.20313,-0.4375 -0.9375,-0.4375 -1.5625,-1.15625 -0.625,-0.73438 -0.9375,-1.70313 -0.3125,-0.96875 -0.3125,-2.0625 0,-1.04687 0.28125,-1.98437 0.29688,-0.95313 0.92188,-1.67188 0.64062,-0.73437 1.60937,-1.15625 0.98438,-0.42187 2.35938,-0.42187 1.04687,0 2.04687,0.23437 1,0.23438 1.60938,0.625 z m 7.31641,-2.15625 q 1.32812,0 2.28125,0.45312 0.95312,0.4375 1.57812,1.1875 0.625,0.75 0.90625,1.71875 0.29688,0.96875 0.29688,2.03125 0,1.0625 -0.29688,2.01563 -0.28125,0.9375 -0.89062,1.65625 -0.60938,0.70312 -1.5625,1.125 -0.95313,0.40625 -2.23438,0.40625 -1.32812,0 -2.29687,-0.4375 -0.95313,-0.4375 -1.59375,-1.15625 -0.625,-0.73438 -0.9375,-1.6875 -0.29688,-0.96875 -0.29688,-2.03125 0,-1.0625 0.29688,-2.01563 0.3125,-0.96875 0.92187,-1.6875 0.625,-0.73437 1.57813,-1.15625 0.96875,-0.42187 2.25,-0.42187 z m 0.0625,9.4375 q 0.875,0 1.51562,-0.32813 0.64063,-0.32812 1.0625,-0.875 0.42188,-0.5625 0.60938,-1.28125 0.20312,-0.73437 0.20312,-1.54687 0,-0.8125 -0.20312,-1.57813 -0.20313,-0.76562 -0.64063,-1.34375 -0.4375,-0.57812 -1.10937,-0.92187 -0.65625,-0.34375 -1.5625,-0.34375 -0.89063,0 -1.53125,0.32812 -0.625,0.32813 -1.04688,0.875 -0.40625,0.53125 -0.60937,1.26563 -0.1875,0.71875 -0.1875,1.53125 0,0.82812 0.20312,1.59375 0.20313,0.75 0.625,1.34375 0.4375,0.57812 1.09375,0.9375 0.65625,0.34375 1.57813,0.34375 z m 14.76422,0.89062 v -6.60937 q 0,-1.3125 -0.59375,-1.875 -0.57813,-0.5625 -1.48438,-0.5625 -0.54687,0 -1.07812,0.17187 -0.53125,0.17188 -1,0.51563 -0.45313,0.32812 -0.79688,0.82812 -0.34375,0.48438 -0.54687,1.10938 v 6.42187 h -1.51563 v -10 h 1.1875 l 0.17188,1.85938 h 0.0937 q 0.28125,-0.90625 1.25,-1.54688 0.98437,-0.64062 2.4375,-0.64062 0.70312,0 1.3125,0.1875 0.625,0.17187 1.07812,0.59375 0.46875,0.40625 0.73438,1.09375 0.28125,0.67187 0.28125,1.64062 v 6.8125 z m 12.10376,-5.76562 v 1.14062 h -7.35938 v -1.14062 z" />
  <path
     style="fill:#ffffff;fill-rule:nonzero"
     id="path81"
     d="m 768.35261,113.38147 h -1.67187 v -0.79688 l 1.71875,-0.21875 0.3125,-3.03125 h 1.15625 v 3.03125 h 2.35937 v 1.01563 h -2.35937 v 6.9375 q 0,0.70312 0.20312,0.92187 0.21875,0.21875 0.65625,0.21875 0.5,0 0.89063,-0.15625 0.39062,-0.15625 0.6875,-0.375 l 0.3125,1.15625 q -0.375,0.17188 -0.98438,0.34375 -0.59375,0.17188 -1.3125,0.17188 -0.6875,0 -1.07812,-0.20313 -0.39063,-0.1875 -0.59375,-0.51562 -0.1875,-0.32813 -0.25,-0.71875 -0.0469,-0.40625 -0.0469,-0.79688 z m 12.69836,8.98437 -0.17187,-1.78125 h -0.0937 q -0.25,0.40625 -0.6875,0.78125 -0.4375,0.375 -0.96875,0.65625 -0.53125,0.28125 -1.15625,0.4375 -0.625,0.17188 -1.23438,0.17188 -1.42187,0 -2.14062,-0.82813 -0.71875,-0.84375 -0.71875,-2.10937 0,-1.25 0.625,-1.98438 0.625,-0.73437 1.53125,-1.10937 0.92187,-0.375 1.9375,-0.46875 1.01562,-0.10938 1.78125,-0.10938 h 0.96875 v -0.26562 q 0,-0.82813 -0.23438,-1.26563 -0.21875,-0.4375 -0.65625,-0.73437 -0.375,-0.25 -0.79687,-0.34375 -0.42188,-0.0937 -1.10938,-0.0937 -0.92187,0 -1.625,0.25 -0.6875,0.23437 -1.34375,0.625 l -0.34375,-1.3125 q 1.45313,-0.84375 3.48438,-0.84375 0.79687,0 1.51562,0.14062 0.71875,0.14063 1.26563,0.48438 0.625,0.39062 1,1.10937 0.375,0.71875 0.375,1.78125 v 6.8125 z m -3.84375,-1.01562 q 0.89063,0 1.89063,-0.5625 1,-0.57813 1.625,-1.64063 v -2.01562 h -0.1875 q -0.89063,0 -1.79688,0.0625 -0.89062,0.0625 -1.625,0.32812 -0.71875,0.25 -1.17187,0.75 -0.45313,0.48438 -0.45313,1.32813 0,0.85937 0.46875,1.3125 0.46875,0.4375 1.25,0.4375 z m 9.84711,1.01562 h -1.51562 v -10 h 1.51562 z m -1.84375,-13.65625 q 0,-0.4375 0.3125,-0.78125 0.3125,-0.35937 0.76563,-0.35937 0.4375,0 0.78125,0.35937 0.35937,0.34375 0.35937,0.78125 0,0.45313 -0.35937,0.76563 -0.34375,0.3125 -0.78125,0.3125 -0.45313,0 -0.76563,-0.3125 -0.3125,-0.3125 -0.3125,-0.76563 z m 12.25922,13.65625 v -6.60937 q 0,-1.3125 -0.59375,-1.875 -0.57813,-0.5625 -1.48438,-0.5625 -0.54687,0 -1.07812,0.17187 -0.53125,0.17188 -1,0.51563 -0.45313,0.32812 -0.79688,0.82812 -0.34375,0.48438 -0.54687,1.10938 v 6.42187 h -1.51563 v -10 h 1.1875 l 0.17188,1.85938 h 0.0937 q 0.28125,-0.90625 1.25,-1.54688 0.98437,-0.64062 2.4375,-0.64062 0.70312,0 1.3125,0.1875 0.625,0.17187 1.07812,0.59375 0.46875,0.40625 0.73438,1.09375 0.28125,0.67187 0.28125,1.64062 v 6.8125 z m 9.30688,-10.32812 q 1.92188,0 2.95313,0.96875 1.04687,0.96875 1.04687,2.71875 0,0.375 -0.0469,0.76562 -0.0312,0.375 -0.14063,0.54688 h -7.32812 v 0.21875 q 0,0.82812 0.21875,1.59375 0.21875,0.75 0.64062,1.34375 0.4375,0.57812 1.09375,0.9375 0.67188,0.34375 1.59375,0.34375 0.51563,0 1.01563,-0.10938 0.5,-0.125 0.95312,-0.3125 0.46875,-0.1875 0.85938,-0.40625 0.39062,-0.21875 0.6875,-0.4375 l 0.26562,1.25 q -0.28125,0.17188 -0.70312,0.375 -0.40625,0.20313 -0.90625,0.375 -0.5,0.17188 -1.10938,0.29688 -0.59375,0.125 -1.23437,0.125 -1.21875,0 -2.15625,-0.42188 -0.9375,-0.4375 -1.57813,-1.15625 -0.625,-0.73437 -0.95312,-1.6875 -0.32813,-0.95312 -0.32813,-2 0,-1.0625 0.34375,-2.03125 0.34375,-0.96875 0.98438,-1.70312 0.65625,-0.75 1.625,-1.17188 0.96875,-0.42187 2.20312,-0.42187 z m -0.0625,1.21875 q -1.4375,0 -2.23437,0.75 -0.78125,0.75 -1.0625,1.875 h 5.9375 q 0.0156,-0.10938 0.0156,-0.1875 0,-0.0937 0,-0.20313 0,-0.54687 -0.21875,-0.96875 -0.21875,-0.42187 -0.59375,-0.70312 -0.35937,-0.28125 -0.84375,-0.42188 -0.46875,-0.14062 -1,-0.14062 z m 12.22913,0.71875 q -0.34375,-0.20313 -0.70313,-0.3125 -0.34375,-0.125 -0.67187,-0.125 -0.4375,0 -0.82813,0.23437 -0.39062,0.23438 -0.71875,0.65625 -0.32812,0.40625 -0.57812,0.95313 -0.25,0.54687 -0.375,1.14062 v 5.84375 h -1.51563 v -10 h 1.1875 l 0.17188,2.1875 h 0.0937 q 0.15625,-0.5 0.40625,-0.95312 0.25,-0.45313 0.60937,-0.79688 0.35938,-0.35937 0.8125,-0.5625 0.45313,-0.20312 1.04688,-0.20312 0.40625,0 0.85937,0.14062 0.45313,0.14063 0.65625,0.35938 z" />
  <path
     style="fill:#990000;fill-rule:evenodd"
     id="path83"
     d="m 851.27281,76.51685 v 0 c 0,-6.89255 5.5875,-12.48007 12.4801,-12.48007 h 56.4076 c 3.3098,0 6.4842,1.31488 8.8247,3.65533 2.3405,2.34049 3.6553,5.51483 3.6553,8.82474 v 49.91876 c 0,6.89255 -5.5875,12.48007 -12.48,12.48007 h -56.4076 c -6.8926,0 -12.4801,-5.58752 -12.4801,-12.48007 z" />
  <path
     style="fill-rule:evenodd;stroke:#002050;stroke-width:1;stroke-linecap:butt;stroke-linejoin:round"
     id="path85"
     d="m 851.27281,76.51685 v 0 c 0,-6.89255 5.5875,-12.48007 12.4801,-12.48007 h 56.4076 c 3.3098,0 6.4842,1.31488 8.8247,3.65533 2.3405,2.34049 3.6553,5.51483 3.6553,8.82474 v 49.91876 c 0,6.89255 -5.5875,12.48007 -12.48,12.48007 h -56.4076 c -6.8926,0 -12.4801,-5.58752 -12.4801,-12.48007 z" />
  <path
     style="fill:#ffffff;fill-rule:nonzero"
     id="path87"
     d="m 873.42811,88.19397 q -0.5,-0.375 -1.4375,-0.67188 -0.9219,-0.29687 -1.8594,-0.29687 -0.9687,0 -1.625,0.32812 -0.6562,0.32813 -1.0937,0.875 -0.4375,0.54688 -0.6406,1.25 -0.1875,0.70313 -0.1875,1.46875 0,0.84375 0.2343,1.625 0.2344,0.78125 0.7032,1.375 0.4687,0.59375 1.1562,0.9375 0.6875,0.34375 1.5938,0.34375 0.875,0 1.7968,-0.35937 0.9219,-0.375 1.5313,-0.9375 l 0.3125,1.40625 q -0.6094,0.39062 -1.6719,0.75 -1.0469,0.34375 -2.25,0.34375 -1.25,0 -2.2031,-0.4375 -0.9375,-0.4375 -1.5625,-1.15625 -0.625,-0.73438 -0.9375,-1.70313 -0.3125,-0.96875 -0.3125,-2.0625 0,-1.04687 0.2812,-1.98437 0.2969,-0.95313 0.9219,-1.67188 0.6406,-0.73437 1.6094,-1.15625 0.9844,-0.42187 2.3594,-0.42187 1.0468,0 2.0468,0.23437 1,0.23438 1.6094,0.625 z m 7.3164,-2.15625 q 1.3281,0 2.2813,0.45312 0.9531,0.4375 1.5781,1.1875 0.625,0.75 0.9062,1.71875 0.2969,0.96875 0.2969,2.03125 0,1.0625 -0.2969,2.01563 -0.2812,0.9375 -0.8906,1.65625 -0.6094,0.70312 -1.5625,1.125 -0.9531,0.40625 -2.2344,0.40625 -1.3281,0 -2.2968,-0.4375 -0.9532,-0.4375 -1.5938,-1.15625 -0.625,-0.73438 -0.9375,-1.6875 -0.2969,-0.96875 -0.2969,-2.03125 0,-1.0625 0.2969,-2.01563 0.3125,-0.96875 0.9219,-1.6875 0.625,-0.73437 1.5781,-1.15625 0.9688,-0.42187 2.25,-0.42187 z m 0.062,9.4375 q 0.875,0 1.5156,-0.32813 0.6407,-0.32812 1.0625,-0.875 0.4219,-0.5625 0.6094,-1.28125 0.2031,-0.73437 0.2031,-1.54687 0,-0.8125 -0.2031,-1.57813 -0.2031,-0.76562 -0.6406,-1.34375 -0.4375,-0.57812 -1.1094,-0.92187 -0.6562,-0.34375 -1.5625,-0.34375 -0.8906,0 -1.5312,0.32812 -0.625,0.32813 -1.0469,0.875 -0.4063,0.53125 -0.6094,1.26563 -0.1875,0.71875 -0.1875,1.53125 0,0.82812 0.2031,1.59375 0.2032,0.75 0.625,1.34375 0.4375,0.57812 1.0938,0.9375 0.6562,0.34375 1.5781,0.34375 z m 14.7643,0.89062 v -6.60937 q 0,-1.3125 -0.5938,-1.875 -0.5781,-0.5625 -1.4843,-0.5625 -0.5469,0 -1.0782,0.17187 -0.5312,0.17188 -1,0.51563 -0.4531,0.32812 -0.7968,0.82812 -0.3438,0.48438 -0.5469,1.10938 v 6.42187 h -1.5156 v -10 h 1.1875 l 0.1718,1.85938 h 0.094 q 0.2812,-0.90625 1.25,-1.54688 0.9844,-0.64062 2.4375,-0.64062 0.7031,0 1.3125,0.1875 0.625,0.17187 1.0781,0.59375 0.4688,0.40625 0.7344,1.09375 0.2812,0.67187 0.2812,1.64062 v 6.8125 z m 12.1036,-5.76562 v 1.14062 h -7.3593 v -1.14062 z" />
  <path
     style="fill:#ffffff;fill-rule:nonzero"
     id="path89"
     d="m 866.08431,113.38147 h -1.6719 v -0.79688 l 1.7188,-0.21875 0.3125,-3.03125 h 1.1562 v 3.03125 h 2.3594 v 1.01563 h -2.3594 v 6.9375 q 0,0.70312 0.2032,0.92187 0.2187,0.21875 0.6562,0.21875 0.5,0 0.8906,-0.15625 0.3907,-0.15625 0.6875,-0.375 l 0.3125,1.15625 q -0.375,0.17188 -0.9843,0.34375 -0.5938,0.17188 -1.3125,0.17188 -0.6875,0 -1.0782,-0.20313 -0.3906,-0.1875 -0.5937,-0.51562 -0.1875,-0.32813 -0.25,-0.71875 -0.047,-0.40625 -0.047,-0.79688 z m 12.6984,8.98437 -0.1719,-1.78125 h -0.094 q -0.25,0.40625 -0.6875,0.78125 -0.4375,0.375 -0.9687,0.65625 -0.5313,0.28125 -1.1563,0.4375 -0.625,0.17188 -1.2343,0.17188 -1.4219,0 -2.1407,-0.82813 -0.7187,-0.84375 -0.7187,-2.10937 0,-1.25 0.625,-1.98438 0.625,-0.73437 1.5312,-1.10937 0.9219,-0.375 1.9375,-0.46875 1.0157,-0.10938 1.7813,-0.10938 h 0.9687 v -0.26562 q 0,-0.82813 -0.2343,-1.26563 -0.2188,-0.4375 -0.6563,-0.73437 -0.375,-0.25 -0.7969,-0.34375 -0.4218,-0.0937 -1.1093,-0.0937 -0.9219,0 -1.625,0.25 -0.6875,0.23437 -1.3438,0.625 l -0.3437,-1.3125 q 1.4531,-0.84375 3.4843,-0.84375 0.7969,0 1.5157,0.14062 0.7187,0.14063 1.2656,0.48438 0.625,0.39062 1,1.10937 0.375,0.71875 0.375,1.78125 v 6.8125 z m -3.8438,-1.01562 q 0.8906,0 1.8906,-0.5625 1,-0.57813 1.625,-1.64063 v -2.01562 h -0.1875 q -0.8906,0 -1.7968,0.0625 -0.8907,0.0625 -1.625,0.32812 -0.7188,0.25 -1.1719,0.75 -0.4531,0.48438 -0.4531,1.32813 0,0.85937 0.4687,1.3125 0.4688,0.4375 1.25,0.4375 z m 9.8471,1.01562 h -1.5157 v -10 h 1.5157 z m -1.8438,-13.65625 q 0,-0.4375 0.3125,-0.78125 0.3125,-0.35937 0.7656,-0.35937 0.4375,0 0.7813,0.35937 0.3594,0.34375 0.3594,0.78125 0,0.45313 -0.3594,0.76563 -0.3438,0.3125 -0.7813,0.3125 -0.4531,0 -0.7656,-0.3125 -0.3125,-0.3125 -0.3125,-0.76563 z m 12.2593,13.65625 v -6.60937 q 0,-1.3125 -0.5938,-1.875 -0.5781,-0.5625 -1.4843,-0.5625 -0.5469,0 -1.0782,0.17187 -0.5312,0.17188 -1,0.51563 -0.4531,0.32812 -0.7968,0.82812 -0.3438,0.48438 -0.5469,1.10938 v 6.42187 h -1.5156 v -10 h 1.1875 l 0.1718,1.85938 h 0.094 q 0.2812,-0.90625 1.25,-1.54688 0.9844,-0.64062 2.4375,-0.64062 0.7031,0 1.3125,0.1875 0.625,0.17187 1.0781,0.59375 0.4688,0.40625 0.7344,1.09375 0.2812,0.67187 0.2812,1.64062 v 6.8125 z m 9.3069,-10.32812 q 1.9218,0 2.9531,0.96875 1.0469,0.96875 1.0469,2.71875 0,0.375 -0.047,0.76562 -0.031,0.375 -0.1406,0.54688 h -7.3282 v 0.21875 q 0,0.82812 0.2188,1.59375 0.2187,0.75 0.6406,1.34375 0.4375,0.57812 1.0938,0.9375 0.6718,0.34375 1.5937,0.34375 0.5156,0 1.0156,-0.10938 0.5,-0.125 0.9532,-0.3125 0.4687,-0.1875 0.8593,-0.40625 0.3907,-0.21875 0.6875,-0.4375 l 0.2657,1.25 q -0.2813,0.17188 -0.7032,0.375 -0.4062,0.20313 -0.9062,0.375 -0.5,0.17188 -1.1094,0.29688 -0.5937,0.125 -1.2344,0.125 -1.2187,0 -2.1562,-0.42188 -0.9375,-0.4375 -1.5781,-1.15625 -0.625,-0.73437 -0.9532,-1.6875 -0.3281,-0.95312 -0.3281,-2 0,-1.0625 0.3438,-2.03125 0.3437,-0.96875 0.9843,-1.70312 0.6563,-0.75 1.625,-1.17188 0.9688,-0.42187 2.2032,-0.42187 z m -0.062,1.21875 q -1.4375,0 -2.2344,0.75 -0.7813,0.75 -1.0625,1.875 h 5.9375 q 0.016,-0.10938 0.016,-0.1875 0,-0.0937 0,-0.20313 0,-0.54687 -0.2187,-0.96875 -0.2188,-0.42187 -0.5938,-0.70312 -0.3594,-0.28125 -0.8437,-0.42188 -0.4688,-0.14062 -1,-0.14062 z m 12.2291,0.71875 q -0.3438,-0.20313 -0.7031,-0.3125 -0.3438,-0.125 -0.6719,-0.125 -0.4375,0 -0.8281,0.23437 -0.3907,0.23438 -0.7188,0.65625 -0.3281,0.40625 -0.5781,0.95313 -0.25,0.54687 -0.375,1.14062 v 5.84375 h -1.5156 v -10 h 1.1875 l 0.1718,2.1875 h 0.094 q 0.1562,-0.5 0.4062,-0.95312 0.25,-0.45313 0.6094,-0.79688 0.3594,-0.35937 0.8125,-0.5625 0.4531,-0.20312 1.0469,-0.20312 0.4062,0 0.8594,0.14062 0.4531,0.14063 0.6562,0.35938 z" />
  <path
     style="fill:#000000;fill-opacity:0;fill-rule:evenodd"
     id="path97"
     d="m 107.96771,153.56647 v 123.74124 h 735.0866 V 153.62946" />
  <path
     style="fill-rule:evenodd;stroke:#9fc5e8;stroke-width:8;stroke-linecap:butt;stroke-linejoin:round"
     id="path99"
     d="m 107.96771,153.5665 v 123.74127 h 735.0867 v -75.67828" />
  <path
     style="fill:#9fc5e8;fill-rule:evenodd;stroke:#9fc5e8;stroke-width:8;stroke-linecap:butt"
     id="path101"
     d="m 856.26821,201.62949 -13.2138,-36.30478 -13.2139,36.30478 z" />
</svg>
