<?xml version="1.0" encoding="UTF-8"?>
<svg fill="none" stroke-linecap="square" stroke-miterlimit="10" version="1.1" viewBox="0 0 1191.3 490.83" xmlns="http://www.w3.org/2000/svg">
<path d="m39.694 250.27c0-13.457 10.909-24.366 24.366-24.366h97.46c6.4622 0 12.66 2.5671 17.229 7.1366 4.5695 4.5695 7.1366 10.767 7.1366 17.229v116.54c0 13.457-10.909 24.366-24.366 24.366h-97.46c-13.457 0-24.366-10.909-24.366-24.366z" fill="#e06666" fill-rule="evenodd"/>
<path d="m39.694 250.27c0-13.457 10.909-24.366 24.366-24.366h97.46c6.4622 0 12.66 2.5671 17.229 7.1366 4.5695 4.5695 7.1366 10.767 7.1366 17.229v116.54c0 13.457-10.909 24.366-24.366 24.366h-97.46c-13.457 0-24.366-10.909-24.366-24.366z" fill-rule="evenodd" stroke="#002050" stroke-linejoin="round"/>
<path d="m99.349 259.48q-0.42188 0-0.82813 0t-0.76562-0.0312v6.0938h-2.8125v-16.156q0.35937-0.0156 0.82812-0.0312 0.48438-0.0312 1.0156-0.0469 0.53125-0.0156 1.0469-0.0156 0.53125-0.0156 1-0.0156 1.3594 0 2.4844 0.32813 1.1406 0.32812 1.9375 0.98437 0.8125 0.65625 1.25 1.625t0.4375 2.25q0 1.0156-0.34375 1.9219t-1.0312 1.5938q-0.67188 0.6875-1.7344 1.0938t-2.4844 0.40625zm-0.125-7.8594q-0.39063 0-0.76563 0-0.35937 0-0.70312 0.0312v5.4531q0.34375 0.0156 0.71875 0.0156t0.79687 0q1.3281 0 2-0.73437 0.67188-0.73438 0.67188-2.125 0-1.1719-0.60938-1.9062-0.59375-0.73438-2.1094-0.73438zm12.793 2.2969q1.5 0 2.5625 0.5 1.0781 0.5 1.7812 1.3438 0.70312 0.84375 1.0312 1.9375 0.32812 1.0938 0.32812 2.2969 0 1.1875-0.32812 2.25-0.32813 1.0625-1.0312 1.8594-0.70313 0.79687-1.7656 1.2656t-2.5 0.46875q-1.5 0-2.5781-0.48437-1.0781-0.5-1.7812-1.3125-0.70313-0.82813-1.0469-1.9062-0.34375-1.0781-0.34375-2.2656 0-1.2031 0.34375-2.2812 0.34375-1.0781 1.0312-1.8906 0.70313-0.82813 1.7812-1.2969 1.0781-0.48437 2.5156-0.48437zm0.0469 9.8906q0.71875 0 1.2344-0.29687 0.53125-0.3125 0.875-0.84375t0.5-1.2031q0.15625-0.6875 0.15625-1.4531 0-0.78125-0.17188-1.5-0.17187-0.71875-0.53125-1.2656-0.34375-0.5625-0.89062-0.89062-0.53125-0.32813-1.2969-0.32813-0.70312 0-1.2188 0.3125-0.51562 0.29688-0.84375 0.8125-0.32812 0.51563-0.48437 1.2031-0.15625 0.67187-0.15625 1.4375 0 0.78125 0.15625 1.5t0.5 1.2969q0.35937 0.5625 0.89062 0.89063 0.54688 0.32812 1.2812 0.32812zm12.855 2.0312q-1.1562 0-2.1094-0.46875-0.95313-0.46875-1.625-1.2656-0.67188-0.8125-1.0469-1.9062-0.35937-1.1094-0.35937-2.4062 0-1.1562 0.29687-2.2188 0.3125-1.0625 0.9375-1.8594 0.64063-0.8125 1.5781-1.2969 0.95312-0.5 2.25-0.5 1.1719 0 2.0938 0.39062 0.9375 0.39063 1.5 1.1094v-7.9844h2.6719v18.109h-2.1562l-0.20312-1.5469h-0.0937q-0.6875 0.76563-1.5625 1.3125-0.85938 0.53125-2.1719 0.53125zm0.34375-2.0312q0.39063 0 0.82813-0.10937 0.4375-0.10938 0.85937-0.29688 0.4375-0.20312 0.82813-0.48437 0.39062-0.28125 0.65625-0.65625v-4.7031q-0.73438-0.89062-1.5-1.2188-0.75-0.34375-1.4531-0.34375-0.78125 0-1.3438 0.3125-0.5625 0.29688-0.95312 0.84375-0.375 0.53125-0.5625 1.2344-0.1875 0.70312-0.1875 1.4531 0 0.73438 0.17187 1.4531 0.17188 0.71875 0.51563 1.2812 0.34375 0.54687 0.875 0.89062 0.54687 0.34375 1.2656 0.34375z" fill="#fff"/>
<path d="m76.215 323.54h-2.8125v-11.891l-1.9844 0.875-0.54688-2.4375 5.3438-2.7031zm9.9293-16.266q1.5625 0 2.7656 0.67187 1.2188 0.67188 2.0469 1.7969 0.84375 1.125 1.2656 2.6094 0.4375 1.4688 0.4375 3.1094 0 1.6406-0.45313 3.1562-0.4375 1.5-1.2812 2.6718-0.84375 1.1562-2.0938 1.8594-1.25 0.6875-2.8594 0.6875-1.5938 0-2.7812-0.65625-1.1875-0.67188-1.9688-1.7969t-1.1875-2.5937q-0.40625-1.4844-0.40625-3.125 0-1.7344 0.4375-3.2656 0.45312-1.5312 1.2812-2.6719 0.82812-1.1406 2.0312-1.7969 1.2188-0.65625 2.7656-0.65625zm-0.0781 14.203q0.9375 0 1.6094-0.4375 0.67188-0.45312 1.1094-1.2656 0.4375-0.81247 0.65625-1.9062 0.21875-1.1094 0.21875-2.375 0-1.2969-0.21875-2.375-0.21875-1.0781-0.67188-1.8594-0.45312-0.78125-1.1406-1.2031-0.67188-0.4375-1.5781-0.4375t-1.5625 0.4375q-0.64062 0.42187-1.0469 1.1875-0.40625 0.76562-0.60938 1.8594-0.1875 1.0938-0.1875 2.3906 0 2.9531 0.89063 4.4687 0.89062 1.5156 2.5312 1.5156zm8.8178 0.625q0-0.34375 0.125-0.65625 0.14063-0.32812 0.375-0.57812 0.25-0.26563 0.54688-0.40625 0.3125-0.15625 0.6875-0.15625 0.34375 0 0.65625 0.15625 0.32812 0.14062 0.57812 0.40625 0.25 0.25 0.39063 0.57812 0.15625 0.3125 0.15625 0.65625 0 0.35938-0.15625 0.67188-0.14063 0.29687-0.39063 0.54687t-0.57812 0.375q-0.3125 0.14063-0.65625 0.14063-0.71875 0-1.2344-0.51563-0.5-0.51562-0.5-1.2188zm10.35 1.4375h-2.8125v-11.891l-1.9844 0.875-0.54687-2.4375 5.3438-2.7031zm3.5231-1.4375q0-0.34375 0.125-0.65625 0.14063-0.32812 0.375-0.57812 0.25-0.26563 0.54688-0.40625 0.3125-0.15625 0.6875-0.15625 0.34375 0 0.65625 0.15625 0.32812 0.14062 0.57812 0.40625 0.25 0.25 0.39063 0.57812 0.15625 0.3125 0.15625 0.65625 0 0.35938-0.15625 0.67188-0.14063 0.29687-0.39063 0.54687t-0.57812 0.375q-0.3125 0.14063-0.65625 0.14063-0.71875 0-1.2344-0.51563-0.5-0.51562-0.5-1.2188zm10.35 1.4375h-2.8125v-11.891l-1.9844 0.875-0.54687-2.4375 5.3438-2.7031zm3.5231-1.4375q0-0.34375 0.125-0.65625 0.14062-0.32812 0.375-0.57812 0.25-0.26563 0.54687-0.40625 0.3125-0.15625 0.6875-0.15625 0.34375 0 0.65625 0.15625 0.32813 0.14062 0.57813 0.40625 0.25 0.25 0.39062 0.57812 0.15625 0.3125 0.15625 0.65625 0 0.35938-0.15625 0.67188-0.14062 0.29687-0.39062 0.54687t-0.57813 0.375q-0.3125 0.14063-0.65625 0.14063-0.71875 0-1.2344-0.51563-0.5-0.51562-0.5-1.2188zm6.0832-13.562q0.46875-0.25 1.0625-0.46875 0.60938-0.23437 1.25-0.42187 0.65625-0.1875 1.3125-0.28125 0.65625-0.0937 1.2969-0.0937 1.0312 0 1.9062 0.28125 0.89062 0.28125 1.5 0.8125 0.625 0.51562 0.98437 1.2656 0.35938 0.73438 0.35938 1.6406 0 1.25-0.625 2.4844-0.625 1.2344-1.5781 2.4844-0.9375 1.2344-2.0625 2.4531-1.125 1.2031-2.0938 2.3906h6.5312v2.4531h-9.9062v-2.4531q0.95313-1.2969 2.1562-2.5468 1.2188-1.2656 2.2812-2.4531 1.0625-1.2031 1.7969-2.3594 0.73437-1.1562 0.73437-2.25 0-1.0469-0.6875-1.4844-0.6875-0.45313-1.7812-0.45313-1.0625 0-2.0781 0.34375-1.0156 0.32813-1.7969 0.76563zm18.895-1.2656q1.5625 0 2.7656 0.67187 1.2188 0.67188 2.0469 1.7969 0.84375 1.125 1.2656 2.6094 0.4375 1.4688 0.4375 3.1094 0 1.6406-0.45313 3.1562-0.4375 1.5-1.2812 2.6718-0.84375 1.1562-2.0938 1.8594-1.25 0.6875-2.8594 0.6875-1.5938 0-2.7812-0.65625-1.1875-0.67188-1.9688-1.7969t-1.1875-2.5937q-0.40625-1.4844-0.40625-3.125 0-1.7344 0.4375-3.2656 0.45312-1.5312 1.2812-2.6719 0.82812-1.1406 2.0312-1.7969 1.2188-0.65625 2.7656-0.65625zm-0.0781 14.203q0.9375 0 1.6094-0.4375 0.67188-0.45312 1.1094-1.2656 0.4375-0.81247 0.65625-1.9062 0.21875-1.1094 0.21875-2.375 0-1.2969-0.21875-2.375-0.21875-1.0781-0.67188-1.8594-0.45312-0.78125-1.1406-1.2031-0.67188-0.4375-1.5781-0.4375t-1.5625 0.4375q-0.64062 0.42187-1.0469 1.1875-0.40625 0.76562-0.60938 1.8594-0.1875 1.0938-0.1875 2.3906 0 2.9531 0.89063 4.4687 0.89062 1.5156 2.5312 1.5156z" fill="#fff"/>
<path d="m51.898 343.26c0-4.2872 3.4754-7.7626 7.7626-7.7626h39.821c2.0588 0 4.0332 0.81781 5.489 2.2736 1.4558 1.4558 2.2736 3.4302 2.2736 5.489v31.05c0 4.2872-3.4754 7.7626-7.7626 7.7626h-39.821c-4.2872 0-7.7626-3.4755-7.7626-7.7626z" fill="#900" fill-rule="evenodd"/>
<path d="m51.898 343.26c0-4.2872 3.4754-7.7626 7.7626-7.7626h39.821c2.0588 0 4.0332 0.81781 5.489 2.2736 1.4558 1.4558 2.2736 3.4302 2.2736 5.489v31.05c0 4.2872-3.4754 7.7626-7.7626 7.7626h-39.821c-4.2872 0-7.7626-3.4755-7.7626-7.7626z" fill-rule="evenodd" stroke="#002050" stroke-linejoin="round"/>
<path d="m118.38 343.26c0-4.2872 3.4754-7.7626 7.7626-7.7626h39.821c2.0588 0 4.0332 0.81781 5.489 2.2736 1.4558 1.4558 2.2736 3.4302 2.2736 5.489v31.05c0 4.2872-3.4754 7.7626-7.7626 7.7626h-39.821c-4.2872 0-7.7626-3.4755-7.7626-7.7626z" fill="#900" fill-rule="evenodd"/>
<path d="m118.38 343.26c0-4.2872 3.4754-7.7626 7.7626-7.7626h39.821c2.0588 0 4.0332 0.81781 5.489 2.2736 1.4558 1.4558 2.2736 3.4302 2.2736 5.489v31.05c0 4.2872-3.4754 7.7626-7.7626 7.7626h-39.821c-4.2872 0-7.7626-3.4755-7.7626-7.7626z" fill-rule="evenodd" stroke="#002050" stroke-linejoin="round"/>
</svg>
