<?xml version="1.0" encoding="UTF-8"?>
<svg fill="none" stroke-linecap="square" stroke-miterlimit="10" version="1.1" viewBox="0 0 1191.3 490.83" xmlns="http://www.w3.org/2000/svg">
<path d="m669.83 157.5c-2.8661 0-5.1895 9.2937-5.1895 20.758 0 11.464 2.3234 20.758 5.1895 20.758h-148.98c-2.866 0-5.1894-9.2937-5.1894-20.758 0-11.464 2.3234-20.758 5.1894-20.758z" fill="#badfa6" fill-rule="evenodd"/>
<path d="m669.83 157.5c2.8661 0 5.1895 9.2937 5.1895 20.758 0 11.464-2.3234 20.758-5.1895 20.758s-5.1895-9.2937-5.1895-20.758c0-11.464 2.3234-20.758 5.1895-20.758z" fill="#d5ebc9" fill-rule="evenodd"/>
<path d="m669.83 199.01c-2.8661 0-5.1895-9.2937-5.1895-20.758 0-11.464 2.3234-20.758 5.1895-20.758s5.1895 9.2937 5.1895 20.758c0 11.464-2.3234 20.758-5.1895 20.758h-148.98c-2.866 0-5.1894-9.2937-5.1894-20.758 0-11.464 2.3234-20.758 5.1894-20.758h148.98" fill-opacity="0"/>
<path d="m911.88 225.91v-47.323h-632.44v47.386" fill-opacity="0"/>
<path d="m911.88 225.91v-47.323h-624.79" fill-rule="evenodd" stroke="#9fc5e8" stroke-linejoin="round" stroke-width="8"/>
<path d="m274.05 176.48 7.2586 37.947 18.831-33.735z" fill="#9fc5e8" fill-rule="evenodd" stroke="#9fc5e8" stroke-width="8"/>
</svg>
