<?xml version="1.0" encoding="UTF-8"?>
<svg width="70mm" height="70mm" version="1.1" viewBox="0 0 70 70" xmlns="http://www.w3.org/2000/svg">
<path d="m0 35c0-19.33 15.67-35 35-35q17.5 0 35 0 0 17.5 0 35c0 19.33-15.67 35-35 35-19.33 0-35-15.67-35-35z" fill="#9fbadd" fill-rule="evenodd" stroke-width=".26458"/>
<path d="m5.1378 35.464c0-16.478 13.358-29.837 29.837-29.837 7.9131 0 15.502 3.1435 21.098 8.7389 5.5954 5.5954 8.7389 13.184 8.7389 21.098 0 16.478-13.358 29.837-29.837 29.837s-29.837-13.358-29.837-29.837z" fill="#fff" fill-rule="evenodd" stroke-width=".26458"/>
</svg>
