<?xml version="1.0" encoding="UTF-8"?>
<svg version="1.1" viewBox="0 0 805.48 640.1" xml:space="preserve" xmlns="http://www.w3.org/2000/svg">
<path d="m53.267 74.056 83.959-33.001-0.976-2.4827-83.959 33.001zm84.669-27.551 9.9693-11.083-14.848-1.3267z" fill="#666"/>
<path d="m475.78 84.316c0-5.4133 4.388-9.8013 9.8013-9.8013h161.87c5.4133 0 9.8013 4.388 9.8013 9.8013v39.204c0 5.4133-4.388 9.8013-9.8013 9.8013h-161.87c-5.4133 0-9.8013-4.388-9.8013-9.8013z" fill="#ead1dc"/>
<path d="m475.78 84.316c0-5.4131 4.3882-9.8013 9.8013-9.8013h161.87c5.4131 0 9.8016 4.3882 9.8016 9.8013v39.204c0 5.413-4.3885 9.8013-9.8016 9.8013h-161.87c-5.4131 0-9.8013-4.3882-9.8013-9.8013z" fill="none" stroke="#000" stroke-linejoin="round" stroke-miterlimit="10" stroke-width="2"/>
<text x="488.43994" y="110.45467" fill="#000000" font-family="Calibri" font-size="20px" stroke-width=".32"><tspan x="488.43994 502.76001 512.91998 523.58002 528.23999 538.89996 545.73999 556.5 570.82001 578.82001 588.97998 595.79999" y="110.45467" stroke-width=".32">web browsers</tspan></text>
<path d="m520.27 465.17h110.45v141.29h-110.45z" fill="#cfe2f3"/>
<path d="m630.72 465.17 10.759-10.759v141.29l-10.759 10.759z" fill="#a6b6c3"/>
<path d="m520.27 465.17 10.759-10.759h110.45l-10.759 10.759z" fill="#d8e8f5"/>
<path d="m520.27 465.17 10.759-10.759h110.45v141.29l-10.758 10.759h-110.45zh110.45l10.758-10.759m-10.758 10.759v141.29" fill="none" stroke="#000" stroke-miterlimit="8" stroke-width="2"/>
<path d="m503.95 481.49h110.45v141.29h-110.45z" fill="#cfe2f3"/>
<path d="m614.4 481.49 10.759-10.759v141.29l-10.759 10.759z" fill="#a6b6c3"/>
<path d="m503.95 481.49 10.759-10.759h110.45l-10.759 10.759z" fill="#d8e8f5"/>
<path d="m503.95 481.49 10.759-10.759h110.45v141.29l-10.758 10.759h-110.45zh110.45l10.758-10.759m-10.758 10.759v141.29" fill="none" stroke="#000" stroke-miterlimit="8" stroke-width="2"/>
<path d="m373.36 465.17h110.45v141.29h-110.45z" fill="#cfe2f3"/>
<path d="m483.82 465.17 10.759-10.759v141.29l-10.759 10.759z" fill="#a6b6c3"/>
<path d="m373.36 465.17 10.759-10.759h110.45l-10.759 10.759z" fill="#d8e8f5"/>
<path d="m373.36 465.17 10.759-10.759h110.45v141.29l-10.758 10.759h-110.45zh110.45l10.758-10.759m-10.758 10.759v141.29" fill="none" stroke="#000" stroke-miterlimit="8" stroke-width="2"/>
<path d="m357.04 481.49h110.45v141.29h-110.45z" fill="#cfe2f3"/>
<path d="m467.49 481.49 10.759-10.759v141.29l-10.759 10.759z" fill="#a6b6c3"/>
<path d="m357.04 481.49 10.759-10.759h110.45l-10.759 10.759z" fill="#d8e8f5"/>
<path d="m357.04 481.49 10.759-10.759h110.45v141.29l-10.758 10.759h-110.45zh110.45l10.758-10.759m-10.758 10.759v141.29" fill="none" stroke="#000" stroke-miterlimit="8" stroke-width="2"/>
<path d="m226.46 465.17h110.45v141.29h-110.45z" fill="#cfe2f3"/>
<path d="m336.91 465.17 10.759-10.759v141.29l-10.759 10.759z" fill="#a6b6c3"/>
<path d="m226.46 465.17 10.759-10.759h110.45l-10.759 10.759z" fill="#d8e8f5"/>
<path d="m226.46 465.17 10.759-10.759h110.45v141.29l-10.758 10.759h-110.45zh110.45l10.758-10.759m-10.758 10.759v141.29" fill="none" stroke="#000" stroke-miterlimit="8" stroke-width="2"/>
<path d="m210.14 481.49h110.45v141.29h-110.45z" fill="#cfe2f3"/>
<path d="m320.59 481.49 10.759-10.759v141.29l-10.759 10.759z" fill="#a6b6c3"/>
<path d="m210.14 481.49 10.759-10.759h110.45l-10.759 10.759z" fill="#d8e8f5"/>
<path d="m210.14 481.49 10.759-10.759h110.45v141.29l-10.758 10.759h-110.45zh110.45l10.758-10.759m-10.758 10.759v141.29" fill="none" stroke="#000" stroke-miterlimit="8" stroke-width="2"/>
<path d="m79.553 465.17h110.45v141.29h-110.45z" fill="#cfe2f3"/>
<path d="m190.01 465.17 10.759-10.759v141.29l-10.759 10.759z" fill="#a6b6c3"/>
<path d="m79.553 465.17 10.759-10.759h110.45l-10.759 10.759z" fill="#d8e8f5"/>
<path d="m79.553 465.17 10.759-10.759h110.45v141.29l-10.758 10.759h-110.45zh110.45l10.758-10.759m-10.758 10.759v141.29" fill="none" stroke="#000" stroke-miterlimit="8" stroke-width="2"/>
<path d="m63.231 481.49h110.45v141.29h-110.45z" fill="#cfe2f3"/>
<path d="m173.68 481.49 10.759-10.759v141.29l-10.759 10.759z" fill="#a6b6c3"/>
<path d="m63.231 481.49 10.759-10.759h110.45l-10.759 10.759z" fill="#d8e8f5"/>
<path d="m63.231 481.49 10.759-10.759h110.45v141.29l-10.758 10.759h-110.45zh110.45l10.758-10.759m-10.758 10.759v141.29" fill="none" stroke="#000" stroke-miterlimit="8" stroke-width="2"/>
<path d="m42.636 289.49h118v43.731h-118z" fill="#fff2cc"/>
<path d="m42.636 289.49h118v43.73h-118z" fill="none" stroke="#000" stroke-linejoin="round" stroke-miterlimit="10" stroke-width="2"/>
<text x="52.425312" y="317.81464" fill="#000000" font-family="Calibri" font-size="20px" stroke-width=".32"><tspan x="52.425312 61.759338 70.433327 81.107315 91.281349 101.95534 112.62933 117.30332 127.47731" y="317.81464" stroke-width=".32">Scheduler</tspan></text>
<path d="m67.711 92.475c0-5.412 4.388-9.8 9.8013-9.8h161.87c5.412 0 9.8 4.388 9.8 9.8v39.204c0 5.4133-4.388 9.8013-9.8 9.8013h-161.87c-5.4133 0-9.8013-4.388-9.8013-9.8013z" fill="#ead1dc"/>
<path d="m67.711 92.476c0-5.4131 4.3882-9.8013 9.8013-9.8013h161.87c5.4131 0 9.8016 4.3882 9.8016 9.8013v39.204c0 5.413-4.3885 9.8013-9.8016 9.8013h-161.87c-5.4131 0-9.8013-4.3882-9.8013-9.8013z" fill="none" stroke="#000" stroke-linejoin="round" stroke-miterlimit="10" stroke-width="2"/>
<text x="80.370667" y="118.45467" fill="#000000" font-family="Calibri" font-size="20px" stroke-width=".32"><tspan x="80.370667 89.444679 100.11867 110.79266 120.96665 129.64069 136.47467" y="118.45467" stroke-width=".32">kubectl</tspan></text>
<path d="m467.62 92.475c0-5.412 4.388-9.8 9.8013-9.8h161.87c5.4133 0 9.8013 4.388 9.8013 9.8v39.204c0 5.4133-4.388 9.8013-9.8013 9.8013h-161.87c-5.4133 0-9.8013-4.388-9.8013-9.8013z" fill="#ead1dc"/>
<path d="m467.62 92.476c0-5.4131 4.3882-9.8013 9.8013-9.8013h161.87c5.4131 0 9.8016 4.3882 9.8016 9.8013v39.204c0 5.413-4.3885 9.8013-9.8016 9.8013h-161.87c-5.4131 0-9.8013-4.3882-9.8013-9.8013z" fill="none" stroke="#000" stroke-linejoin="round" stroke-miterlimit="10" stroke-width="2"/>
<text x="480.27866" y="118.45467" fill="#000000" font-family="Calibri" font-size="20px" stroke-width=".32"><tspan x="480.27866 494.59863 504.75864 515.41864 520.07861 530.73859 537.57861 548.33862 562.65863 570.65863 580.81866 587.63867" y="118.45467" stroke-width=".32">web browsers</tspan></text>
<path d="m34.475 296.93h118v43.731h-118z" fill="#fff2cc"/>
<path d="m34.475 296.93h118v43.73h-118z" fill="none" stroke="#000" stroke-linejoin="round" stroke-miterlimit="10" stroke-width="2"/>
<text x="44.264015" y="325.49466" fill="#000000" font-family="Calibri" font-size="20px" stroke-width=".32"><tspan x="44.264015 52.264015 60.924011 71.584 81.743996 92.403992 103.06398 107.72401 117.88401" y="325.49466" stroke-width=".32">scheduler</tspan></text>
<path d="m164.47 317.47h21.301c0.736 0 1.3333 0.59733 1.3333 1.3333v0.096l-1.3333-1.3333h21.289v2.6667h-21.289c-0.73733 0-1.3333-0.596-1.3333-1.3333v-0.096l1.3333 1.3333h-21.301zm1.3333 8-13.333-6.6667 13.333-6.6667zm39.924-13.237 13.333 6.6667-13.333 6.6667z"/>
<path d="m46.909 497.81h110.47v141.28h-110.47z" fill="#cfe2f3"/>
<path d="m157.38 497.81 10.76-10.761v141.28l-10.76 10.761z" fill="#a6b6c3"/>
<path d="m46.909 497.81 10.76-10.761h110.47l-10.76 10.761z" fill="#d8e8f5"/>
<path d="m46.909 497.81 10.761-10.761h110.47v141.28l-10.76 10.761h-110.47zh110.47l10.76-10.761m-10.76 10.761v141.28" fill="none" stroke="#000" stroke-miterlimit="8" stroke-width="2"/>
<path d="m109.11 551.89c0-3.872 3.1387-7.0107 7.0107-7.0107h28.04c3.8707 0 7.0093 3.1387 7.0093 7.0107v39.4c0 3.8716-3.1387 7.0103-7.0093 7.0103h-28.04c-3.872 0-7.0107-3.1387-7.0107-7.0103z" fill="#ccc"/>
<path d="m109.11 551.88c0-3.8716 3.1386-7.0102 7.0102-7.0102h28.04c3.8716 0 7.0102 3.1386 7.0102 7.0102v39.4c0 3.8716-3.1386 7.0102-7.0102 7.0102h-28.04c-3.8716 0-7.0102-3.1386-7.0102-7.0102z" fill="none" stroke="#000" stroke-linejoin="round" stroke-miterlimit="10" stroke-width="2"/>
<path d="m53.365 571.41c0-2.576 2.088-4.664 4.6627-4.664h41.603c2.5747 0 4.6627 2.088 4.6627 4.664v18.652c0 2.5755-2.088 4.6633-4.6627 4.6633h-41.603c-2.5747 0-4.6627-2.0879-4.6627-4.6633z" fill="#b7b7b7"/>
<path d="m53.365 571.41c0-2.5755 2.0878-4.6633 4.6633-4.6633h41.602c2.5754 0 4.6633 2.0878 4.6633 4.6633v18.653c0 2.5754-2.0879 4.6633-4.6633 4.6633h-41.602c-2.5755 0-4.6633-2.0879-4.6633-4.6633z" fill="none" stroke="#000" stroke-linejoin="round" stroke-miterlimit="10" stroke-width="2"/>
<path d="m53.365 503.55h98.259v27.979h-98.259z" fill="#d9ead3"/>
<path d="m53.365 503.55h98.259v27.979h-98.259z" fill="none" stroke="#000" stroke-linejoin="round" stroke-miterlimit="10" stroke-width="2"/>
<text x="60.707985" y="523.89465" fill="#000000" font-family="Calibri" font-size="20px" stroke-width=".32"><tspan x="60.707985 71.054016 81.719986 92.386002 102.55198 107.21799 117.284" y="523.89465" stroke-width=".32">Kubelet</tspan></text>
<path d="m53.365 607.63c0-2.5755 2.088-4.6633 4.6627-4.6633h88.932c2.576 0 4.664 2.0879 4.664 4.6633v18.653c0 2.5755-2.088 4.6632-4.664 4.6632h-88.932c-2.5747 0-4.6627-2.0877-4.6627-4.6632z" fill="#999"/>
<path d="m53.365 607.63c0-2.5755 2.0878-4.6633 4.6633-4.6633h88.932c2.5754 0 4.6633 2.0878 4.6633 4.6633v18.653c0 2.5754-2.0879 4.6633-4.6633 4.6633h-88.932c-2.5755 0-4.6633-2.0879-4.6633-4.6633z" fill="none" stroke="#000" stroke-linejoin="round" stroke-miterlimit="10" stroke-width="2"/>
<path d="m53.365 547.75c0-1.5853 1.284-2.8707 2.8693-2.8707h45.189c1.5853 0 2.8693 1.2853 2.8693 2.8707v11.477c0 1.5853-1.284 2.8707-2.8693 2.8707h-45.189c-1.5853 0-2.8693-1.2853-2.8693-2.8707z" fill="#efefef"/>
<path d="m53.365 547.75c0-1.5849 1.2848-2.8697 2.8697-2.8697h45.189c1.5849 0 2.8697 1.2848 2.8697 2.8697v11.478c0 1.5849-1.2848 2.8697-2.8697 2.8697h-45.189c-1.5849 0-2.8697-1.2848-2.8697-2.8697z" fill="none" stroke="#000" stroke-linejoin="round" stroke-miterlimit="10" stroke-width="2"/>
<path d="m193.81 497.81h110.45v141.29h-110.45z" fill="#cfe2f3"/>
<path d="m304.27 497.81 10.759-10.759v141.29l-10.759 10.759z" fill="#a6b6c3"/>
<path d="m193.81 497.81 10.759-10.759h110.45l-10.759 10.759z" fill="#d8e8f5"/>
<path d="m193.81 497.81 10.759-10.759h110.45v141.29l-10.758 10.759h-110.45zh110.45l10.758-10.759m-10.758 10.759v141.29" fill="none" stroke="#000" stroke-miterlimit="8" stroke-width="2"/>
<path d="m200.27 555.5c0-3.8707 3.1387-7.0093 7.0093-7.0093h28.04c3.872 0 7.0107 3.1387 7.0107 7.0093v39.39c0 3.8716-3.1387 7.0101-7.0107 7.0101h-28.04c-3.8707 0-7.0093-3.1385-7.0093-7.0101z" fill="#ccc"/>
<path d="m200.27 555.5c0-3.8716 3.1385-7.0101 7.0101-7.0101h28.04c3.8715 0 7.0101 3.1386 7.0101 7.0101v39.39c0 3.8715-3.1386 7.0101-7.0101 7.0101h-28.04c-3.8716 0-7.0101-3.1386-7.0101-7.0101z" fill="none" stroke="#000" stroke-linejoin="round" stroke-miterlimit="10" stroke-width="2"/>
<path d="m200.27 503.55h98.253v27.968h-98.253z" fill="#d9ead3"/>
<path d="m200.27 503.55h98.254v27.969h-98.254z" fill="none" stroke="#000" stroke-linejoin="round" stroke-miterlimit="10" stroke-width="2"/>
<text x="210.05865" y="523.89465" fill="#000000" font-family="Calibri" font-size="20px" stroke-width=".32"><tspan x="210.05865 220.40468 231.07065 241.73666 251.90265 256.56866 266.6347" y="523.89465" stroke-width=".32">Kubelet</tspan></text>
<path d="m272.71 633.44c-2.5747 0-4.6613-2.0869-4.6613-4.6615v-73.212c0-2.5747 2.0867-4.6613 4.6613-4.6613h18.645c2.5747 0 4.6613 2.0867 4.6613 4.6613v73.212c0 2.5745-2.0867 4.6615-4.6613 4.6615z" fill="#999"/>
<path d="m272.71 633.44c-2.5745 0-4.6616-2.087-4.6616-4.6615v-73.212c0-2.5745 2.087-4.6615 4.6616-4.6615h18.645c2.5745 0 4.6615 2.087 4.6615 4.6615v73.212c0 2.5745-2.087 4.6615-4.6615 4.6615z" fill="none" stroke="#000" stroke-linejoin="round" stroke-miterlimit="10" stroke-width="2"/>
<path d="m200.27 613.02c0-1.5849 1.284-2.8697 2.8693-2.8697h45.187c1.584 0 2.8693 1.2848 2.8693 2.8697v11.478c0 1.5848-1.2853 2.8697-2.8693 2.8697h-45.187c-1.5853 0-2.8693-1.2849-2.8693-2.8697z" fill="#efefef"/>
<path d="m200.27 613.02c0-1.5849 1.2848-2.8697 2.8697-2.8697h45.186c1.5849 0 2.8697 1.2848 2.8697 2.8697v11.478c0 1.5849-1.2848 2.8697-2.8697 2.8697h-45.186c-1.5849 0-2.8697-1.2848-2.8697-2.8697z" fill="none" stroke="#000" stroke-linejoin="round" stroke-miterlimit="10" stroke-width="2"/>
<path d="m340.72 497.81h110.45v141.29h-110.45z" fill="#cfe2f3"/>
<path d="m451.17 497.81 10.759-10.759v141.29l-10.759 10.759z" fill="#a6b6c3"/>
<path d="m340.72 497.81 10.759-10.759h110.45l-10.759 10.759z" fill="#d8e8f5"/>
<path d="m340.72 497.81 10.759-10.759h110.45v141.29l-10.758 10.759h-110.45zh110.45l10.758-10.759m-10.758 10.759v141.29" fill="none" stroke="#000" stroke-miterlimit="8" stroke-width="2"/>
<path d="m387.98 572.84c0-2.5747 2.0867-4.6613 4.6613-4.6613h41.603c2.5747 0 4.6613 2.0867 4.6613 4.6613v18.645c0 2.5745-2.0867 4.6616-4.6613 4.6616h-41.603c-2.5747 0-4.6613-2.0871-4.6613-4.6616z" fill="#b7b7b7"/>
<path d="m387.98 572.84c0-2.5745 2.087-4.6615 4.6615-4.6615h41.603c2.5745 0 4.6615 2.087 4.6615 4.6615v18.645c0 2.5745-2.087 4.6615-4.6615 4.6615h-41.603c-2.5745 0-4.6615-2.087-4.6615-4.6615z" fill="none" stroke="#000" stroke-linejoin="round" stroke-miterlimit="10" stroke-width="2"/>
<path d="m347.17 503.55h98.253v27.968h-98.253z" fill="#d9ead3"/>
<path d="m347.17 503.55h98.254v27.969h-98.254z" fill="none" stroke="#000" stroke-linejoin="round" stroke-miterlimit="10" stroke-width="2"/>
<text x="356.96396" y="523.89465" fill="#000000" font-family="Calibri" font-size="20px" stroke-width=".32"><tspan x="356.96396 367.31 377.97601 388.64203 398.80795 403.47397 413.53998" y="523.89465" stroke-width=".32">Kubelet</tspan></text>
<path d="m347.17 607.63c0-2.5744 2.0867-4.6615 4.6613-4.6615h88.931c2.5733 0 4.6613 2.0871 4.6613 4.6615v18.646c0 2.5745-2.088 4.6615-4.6613 4.6615h-88.931c-2.5747 0-4.6613-2.0869-4.6613-4.6615z" fill="#999"/>
<path d="m347.17 607.63c0-2.5745 2.087-4.6615 4.6615-4.6615h88.931c2.5744 0 4.6614 2.087 4.6614 4.6615v18.646c0 2.5745-2.087 4.6615-4.6614 4.6615h-88.931c-2.5745 0-4.6615-2.087-4.6615-4.6615z" fill="none" stroke="#000" stroke-linejoin="round" stroke-miterlimit="10" stroke-width="2"/>
<path d="m347.17 547.75c0-1.5853 1.2853-2.8693 2.8707-2.8693h45.185c1.5853 0 2.8707 1.284 2.8707 2.8693v11.479c0 1.584-1.2853 2.8693-2.8707 2.8693h-45.185c-1.5853 0-2.8707-1.2853-2.8707-2.8693z" fill="#efefef"/>
<path d="m347.17 547.75c0-1.5849 1.2848-2.8697 2.8697-2.8697h45.186c1.5849 0 2.8697 1.2848 2.8697 2.8697v11.478c0 1.5849-1.2848 2.8697-2.8697 2.8697h-45.186c-1.5849 0-2.8697-1.2848-2.8697-2.8697z" fill="none" stroke="#000" stroke-linejoin="round" stroke-miterlimit="10" stroke-width="2"/>
<path d="m487.62 497.81h110.45v141.29h-110.45z" fill="#cfe2f3"/>
<path d="m598.08 497.81 10.759-10.759v141.29l-10.759 10.759z" fill="#a6b6c3"/>
<path d="m487.62 497.81 10.759-10.759h110.45l-10.759 10.759z" fill="#d8e8f5"/>
<path d="m487.62 497.81 10.759-10.759h110.45v141.29l-10.758 10.759h-110.45zh110.45l10.758-10.759m-10.758 10.759v141.29" fill="none" stroke="#000" stroke-miterlimit="8" stroke-width="2"/>
<path d="m494.08 547.32c0-1.348 1.0933-2.4413 2.4413-2.4413h9.7653c1.348 0 2.4413 1.0933 2.4413 2.4413v79.108c0 1.3483-1.0933 2.4413-2.4413 2.4413h-9.7653c-1.348 0-2.4413-1.0931-2.4413-2.4413z" fill="#ccc"/>
<path d="m494.08 547.32c0-1.3483 1.093-2.4414 2.4414-2.4414h9.7653c1.3484 0 2.4414 1.093 2.4414 2.4414v79.108c0 1.3484-1.093 2.4414-2.4414 2.4414h-9.7653c-1.3483 0-2.4414-1.093-2.4414-2.4414z" fill="none" stroke="#000" stroke-linejoin="round" stroke-miterlimit="10" stroke-width="2"/>
<path d="m551.95 580.11c0-2.5733 2.0867-4.6613 4.6613-4.6613h28.924c2.5747 0 4.6627 2.088 4.6627 4.6613v18.646c0 2.5745-2.088 4.6616-4.6627 4.6616h-28.924c-2.5747 0-4.6613-2.0871-4.6613-4.6616z" fill="#b7b7b7"/>
<path d="m551.95 580.11c0-2.5745 2.087-4.6615 4.6615-4.6615h28.925c2.5745 0 4.6615 2.087 4.6615 4.6615v18.645c0 2.5745-2.087 4.6615-4.6615 4.6615h-28.925c-2.5745 0-4.6615-2.087-4.6615-4.6615z" fill="none" stroke="#000" stroke-linejoin="round" stroke-miterlimit="10" stroke-width="2"/>
<path d="m494.08 503.55h98.253v27.968h-98.253z" fill="#d9ead3"/>
<path d="m494.08 503.55h98.254v27.969h-98.254z" fill="none" stroke="#000" stroke-linejoin="round" stroke-miterlimit="10" stroke-width="2"/>
<text x="503.86801" y="523.89465" fill="#000000" font-family="Calibri" font-size="20px" stroke-width=".32"><tspan x="503.86801 514.21393 524.87994 535.54596 545.71198 550.37799 560.44403" y="523.89465" stroke-width=".32">Kubelet</tspan></text>
<path d="m539.28 614.52c0-1.5849 1.284-2.8697 2.8693-2.8697h45.187c1.5853 0 2.8693 1.2848 2.8693 2.8697v11.478c0 1.5849-1.284 2.8697-2.8693 2.8697h-45.187c-1.5853 0-2.8693-1.2848-2.8693-2.8697z" fill="#666"/>
<path d="m539.28 614.52c0-1.5849 1.2848-2.8697 2.8697-2.8697h45.186c1.5849 0 2.8697 1.2848 2.8697 2.8697v11.478c0 1.5849-1.2848 2.8697-2.8697 2.8697h-45.186c-1.5849 0-2.8697-1.2848-2.8697-2.8697z" fill="none" stroke="#000" stroke-linejoin="round" stroke-miterlimit="10" stroke-width="2"/>
<path d="m333.35 407.2-220.27 90.553 1.0133 2.4667 220.27-90.553zm1.8093 7.9067 9.796-11.236-14.867-1.096zm-222.87 77.207-9.7973 11.236 14.867 1.096z"/>
<path d="m335.69 411.61-78.956 82.353 1.924 1.8453 78.957-82.353zm4.852 6.4987 4.4147-14.239-14.039 5.0107zm-86.736 71.201-4.4147 14.239 14.04-5.0107z"/>
<path d="m351.62 413.92 40.371 78.343-2.3707 1.2227-40.371-78.344zm-6.5013 4.8493-0.18133-14.907 12.033 8.7987zm51.003 69.865 0.18133 14.907-12.035-8.7987z"/>
<path d="m356.26 408.07 176.82 88.899-1.1973 2.3827-176.82-88.899zm-2.4027 7.7467-8.9173-11.945 14.907 0.0333zm180.43 75.788 8.9173 11.945-14.907-0.0333z"/>
<path d="m169.79 145.61 165.03 81.763-1.184 2.3893-165.03-81.763zm-2.356 7.76-8.988-11.893 14.907-0.0547zm168.56 68.632 8.988 11.893-14.908 0.0547z"/>
<path d="m1 41.797h86.077v55.211c-43.039 0-43.039 21.036-86.077 9.084z" fill="#e6b8af"/>
<path d="m1 41.797h86.077v55.211c-43.039 0-43.039 21.036-86.077 9.0839z" fill="none" stroke="#000" stroke-linejoin="round" stroke-miterlimit="10" stroke-width="2"/>
<text x="10.789327" y="63.734653" fill="#000000" font-family="Calibri" font-size="20px" stroke-width=".32"><tspan x="10.789327 21.623352 32.457336 43.01133 49.185322 53.859314 63.533344" y="63.734653" stroke-width=".32">Config </tspan></text>
<text x="10.789327" y="89.014687" fill="#000000" font-family="Calibri" font-size="20px" stroke-width=".32"><tspan x="10.789327 16.955341 21.621317 26.287333" y="89.014687" stroke-width=".32">file</tspan></text>
<path d="m547.34 146.43-108.05 63.744 1.3547 2.2973 108.05-63.744zm2.916 7.568 8.0973-12.517-14.872 1.0333zm-112.52 50.905-8.096 12.517 14.871-1.0333z"/>
<path d="m219.06 233.5h251.8v169.95h-251.8z" fill="#fff2cc"/>
<path d="m219.06 233.5h251.8v169.95h-251.8z" fill="none" stroke="#000" stroke-linejoin="round" stroke-miterlimit="10" stroke-width="2"/>
<text x="228.85333" y="261.81464" fill="#000000" font-family="Calibri" font-size="20px" font-weight="bold" stroke-width=".32"><tspan x="228.85333 239.79933 250.80531 261.81134 272.1373 279.46332 290.46933 300.65536 307.40131 317.72729 325.89331 330.55933 348.38535 358.3913 366.33734 373.08334 383.40936" y="261.81464" stroke-width=".32">Kubernetes Master</tspan></text>
<path d="m737.87 524.87c0-6.336 14.911-11.473 33.304-11.473 18.393 0 33.304 5.1373 33.304 11.473v45.895c0 6.3373-14.911 11.475-33.304 11.475-18.393 0-33.304-5.1373-33.304-11.475z" fill="#e6b8af"/>
<path d="m804.48 524.87c0 6.3368-14.911 11.474-33.304 11.474-18.393 0-33.304-5.1369-33.304-11.474" fill="none" stroke="#980000" stroke-linejoin="round" stroke-miterlimit="10" stroke-width="2"/>
<path d="m737.87 524.87c0-6.3367 14.911-11.474 33.304-11.474 18.394 0 33.304 5.137 33.304 11.474v45.895c0 6.3368-14.911 11.474-33.304 11.474-18.393 0-33.304-5.1369-33.304-11.474z" fill="none" stroke="#980000" stroke-linejoin="round" stroke-miterlimit="10" stroke-width="2"/>
<path d="m147.91 1h118v55.211c-59.001 0-59.001 21.036-118 9.084z" fill="#e6b8af"/>
<path d="m147.91 1h118v55.211c-59.001 0-59.001 21.036-118 9.0839z" fill="none" stroke="#000" stroke-linejoin="round" stroke-miterlimit="10" stroke-width="2"/>
<text x="157.69598" y="22.774654" fill="#000000" font-family="Calibri" font-size="20px" stroke-width=".32"><tspan x="157.69598 168.53 179.36398 189.83798 196.43198 206.26601 210.94 221.61398 231.78798 238.96201" y="22.774654" stroke-width=".32">Container </tspan></text>
<text x="157.69598" y="48.054684" fill="#000000" font-family="Calibri" font-size="20px" stroke-width=".32"><tspan x="157.69598 162.862 179.188 189.01401 198.51999" y="48.054684" stroke-width=".32">Image</tspan></text>
<path d="m306.71 302.61c0 3.4913-14.911 6.3215-33.304 6.3215-18.393 0-33.304-2.8302-33.304-6.3215" fill="none" stroke="#999" stroke-linejoin="round" stroke-miterlimit="10" stroke-width="2"/>
<path d="m240.1 302.61c0-3.4913 14.911-6.3216 33.304-6.3216 18.394 0 33.304 2.8302 33.304 6.3216v25.286c0 3.4914-14.911 6.3216-33.304 6.3216-18.393 0-33.304-2.8302-33.304-6.3216z" fill="none" stroke="#999" stroke-linejoin="round" stroke-miterlimit="10" stroke-width="2"/>
</svg>
