<?xml version="1.0" encoding="UTF-8"?>
<svg version="1.1" viewBox="0 0 805.48 640.1" xml:space="preserve" xmlns="http://www.w3.org/2000/svg">
<path d="m769.06 557.85-3.888-0.29333-4.2293-0.34267-4.5347-0.388-4.8307-0.432-5.12-0.47333-5.396-0.512-5.664-0.55067-5.924-0.58666-6.1707-0.62-6.4107-0.652-6.6387-0.68267-6.8573-0.71067-7.068-0.736-7.2653-0.76133-7.4547-0.784-7.6347-0.804-7.804-0.82267-7.9627-0.84-8.112-0.85333-8.252-0.86667-8.38-0.87866-8.5-0.88667-17.32-1.7933-17.676-1.8067-17.953-1.804-18.151-1.7867-18.269-1.7533-18.305-1.7053-18.263-1.6413-18.139-1.5613-17.936-1.468-17.652-1.3573-17.288-1.2333-8.476-0.564-8.36-0.52666-8.2293-0.488-8.088-0.448-7.936-0.40534-7.7733-0.36-7.6027-0.31333-7.42-0.264-7.228-0.21467-7.0253-0.16266-6.8133-0.108-6.588-0.0507-6.356 5e-3 -6.1107 0.0667-5.856 0.12667-5.5907 0.19066-5.3133 0.256-5.0253 0.32134-4.7253 0.39066-4.4133 0.45867-4.1613 0.536-3.984 0.62-3.812 0.7-3.644 0.77733-3.48 0.852-3.32 0.92267-3.1627 0.99067-3.0107 1.056-2.8613 1.1173-2.716 1.176-2.576 1.232-2.44 1.2853-2.3093 1.336-2.1813 1.3827-2.0573 1.4267-1.9413 1.4693-3.6093 3.1147-3.1213 3.2053-2.736 3.332-2.3867 3.4453-2.068 3.5453-1.776 3.6307-1.5133 3.704-1.2773 3.7573-1.0653 3.796-0.88 3.8147-0.71734 3.8147-0.584 3.792-0.87333 7.4811-0.33467 3.5676-1.0107 5.2891-7.852-1.5295 0.89866-4.5097 0.35334-3.7475 0.912-7.7724 0.62933-4.0587 0.78533-4.132 0.97334-4.1827 1.1947-4.2107 1.4493-4.2147 1.7347-4.1933 2.0547-4.1467 2.404-4.0707 2.784-3.9667 3.188-3.8347 3.62-3.672 4.0027-3.432 2.212-1.6653 2.3333-1.6093 2.4587-1.5507 2.5853-1.4867 2.716-1.424 2.8493-1.356 2.984-1.2867 3.124-1.2147 3.2653-1.14 3.4107-1.064 3.56-0.98534 3.7133-0.90533 3.868-0.82133 4.0267-0.736 4.1907-0.64933 4.3547-0.55867 4.5827-0.47467 4.872-0.4 5.152-0.32933 5.4253-0.26133 5.6893-0.19334 5.9427-0.128 6.1907-0.0667 6.4253-5e-3 6.6533 0.052 6.8693 0.10934 7.0787 0.164 7.276 0.216 7.464 0.26666 7.6427 0.31467 7.812 0.36133 7.9707 0.40667 8.12 0.44933 8.2587 0.49067 8.388 0.52933 8.5133 0.56667 17.332 1.2347 17.691 1.3613 17.971 1.4707 18.169 1.564 18.288 1.644 18.328 1.7067 18.287 1.756 18.167 1.788 17.968 1.8053 17.687 1.808 17.325 1.7933 8.504 0.888 8.3827 0.87733 8.2533 0.868 16.076 1.6933 7.8027 0.82267 7.6333 0.804 7.452 0.78267 7.2627 0.76133 7.0613 0.736 6.852 0.71067 6.6307 0.68133 6.4 0.65067 6.1587 0.61866 5.9093 0.58534 5.648 0.54933 5.376 0.51067 5.0933 0.47066 4.8027 0.42934 4.4987 0.38533 4.1853 0.33867 3.888 0.29333zm-538.93 39.619-16.909 20.835-6.5227-26.028z" fill="#9f3c4b"/>
</svg>
