<?xml version="1.0" encoding="UTF-8"?>
<svg version="1.1" viewBox="0 0 805.48 640.1" xml:space="preserve" xmlns="http://www.w3.org/2000/svg">
<path d="m275.85 321.59 0.86533 0.77466 0.77733 0.568 1.004 0.656 1.2067 0.72134 1.3827 0.772 1.5387 0.81866 3.4787 1.7787 3.8573 1.9507 4.148 2.1653 4.3227 2.4093 4.3867 2.6893 4.344 3.0093 4.192 3.3733 3.932 3.784 1.9053 2.1427 1.724 2.196 1.5947 2.3227 1.452 2.4547 1.288 2.5907 1.108 2.728 0.90934 2.8667 0.69466 3.0027 0.46134 3.1387 0.21733 3.272-7e-3 3.3973-0.18666 3.536-0.34934 3.704-0.504 3.8627-0.648 4.016-0.784 4.1613-0.91066 4.2973-1.0307 4.4227-1.1413 4.5387-1.2453 4.6427-2.7667 9.532-3.0987 9.8427-3.364 10.035-3.568 10.128-3.7133 10.131-3.7987 10.035-3.8227 9.8413-3.7853 9.5547-3.6907 9.168-1.7907 4.412-1.7427 4.2747-1.6893 4.1293-1.6253 3.9707-3.3587 7.872-3.6413 7.9693-3.8533 7.964-4.0147 7.912-4.1253 7.8147-4.184 7.6693-4.1947 7.4773-4.1533 7.2387-4.0627 6.9504-3.92 6.6151-3.728 6.2307-3.8493 6.4789-6.8773-4.0863 3.8613-6.5 3.7107-6.2021 3.896-6.5733 4.0307-6.896 4.1147-7.1693 4.1493-7.396 4.132-7.572 4.0653-7.7 3.948-7.7773 3.7787-7.8053 3.56-7.7813 3.312-7.7653 1.6253-3.9667 1.6853-4.1213 1.7387-4.264 1.7813-4.3907 3.6747-9.128 3.7667-9.5013 3.7973-9.7787 3.768-9.9573 3.68-10.033 3.528-10.015 3.3187-9.8933 3.0467-9.6707 2.7227-9.376 1.2147-4.5213 1.108-4.4013 0.996-4.2667 0.87466-4.12 0.748-3.956 0.61333-3.7787 0.472-3.584 0.32534-3.3733 0.17466-3.144 0.0227-2.86-0.152-2.636-0.34533-2.5053-0.52667-2.384-0.69866-2.2733-0.86-2.172-1.012-2.0787-1.1587-1.992-1.2933-1.9093-1.4213-1.8307-1.468-1.684-3.3933-3.3093-3.7293-3.0253-3.9667-2.7627-4.0973-2.52-4.128-2.304-4.056-2.1173-3.8893-1.968-3.6-1.8413-1.6853-0.9-1.5947-0.89466-1.5-0.90667-1.4013-0.93733-1.304-1-0.86533-0.776zm-32.624 286.6-22.512 14.604 1.824-26.771z" fill="#9f3c4b"/>
</svg>
