<?xml version="1.0" encoding="UTF-8"?>
<svg version="1.1" viewBox="0 0 805.48 640.1" xml:space="preserve" xmlns="http://www.w3.org/2000/svg">
<path d="m182.28 35.775 8.4547 0.10267 4.7467-0.04533 5.1267-0.13733 5.4907-0.22667 5.8427-0.31067 6.18-0.38933 6.5027-0.464 6.812-0.532 7.1107-0.59733 7.396-0.656 7.6667-0.70933 7.928-0.76 8.176-0.80267 8.4093-0.84133 8.6347-0.876 8.844-0.90533 9.044-0.928 9.2307-0.94667 9.4053-0.96133 9.568-0.96933 9.7173-0.97333 9.8573-0.97067 9.984-0.96533 10.099-0.95333 20.487-1.852 20.805-1.744 21.025-1.5973 21.148-1.4093 21.176-1.1813 21.111-0.91333 20.947-0.60267 20.691-0.25333 20.34 0.13867 10.031 0.228 9.8867 0.34133 9.752 0.46 9.6053 0.584 9.448 0.712 9.2787 0.84533 9.096 0.98533 8.904 1.1307 8.7 1.28 8.4853 1.4347 8.2573 1.5973 8.0187 1.764 7.7693 1.936 7.5093 2.1147 7.236 2.3 6.9533 2.492 6.66 2.6907 6.3533 2.896 6.0347 3.1093 5.7053 3.3293 5.3627 3.5587 5.0067 3.796 4.7067 4.0947 4.4627 4.4293 4.2187 4.7453 3.98 5.0493 3.748 5.3413 3.524 5.6173 3.3053 5.884 3.0933 6.1387 2.8893 6.3827 2.6933 6.6147 2.5013 6.836 2.3173 7.048 2.14 7.2493 1.968 7.44 1.8027 7.6213 1.6427 7.792 1.4893 7.9533 1.3413 8.104 1.1987 8.244 1.0627 8.3747 0.932 8.4947 0.80667 8.604 1.2547 17.471 0.82133 17.819 0.42667 18.051 0.0747 18.201-0.23466 18.271-0.50267 18.253-0.728 18.153-0.91067 17.972-1.052 17.704-1.1507 17.352-0.6 8.524-0.60934 8.3973-0.61333 8.268-0.61067 8.1267-0.60533 7.9747-0.59333 7.8147-0.576 7.64-0.55334 7.4573-0.52666 7.264-0.49467 7.0573-0.456 6.8427-0.412 6.616-0.36533 6.3787-0.31067 6.1293-0.252 5.868-0.18933 5.5973 0.016 7.508-8 0.0147-0.0107-7.792 0.19067-5.672 0.256-5.9307 0.31333-6.18 0.36667-6.42 0.416-6.6493 0.45733-6.868 0.49467-7.0787 0.528-7.2773 0.55466-7.4667 0.576-7.6453 0.59334-7.812 0.60533-7.9707 0.61067-8.1187 0.612-8.2547 0.60666-8.3813 0.59867-8.4907 1.148-17.297 1.048-17.635 0.90667-17.887 0.724-18.053 0.5-18.137 0.23466-18.133-0.072-18.047-0.42133-17.872-0.808-17.612-1.2413-17.297-0.79334-8.4787-0.916-8.36-1.0427-8.2307-1.176-8.0893-1.312-7.9373-1.4533-7.776-1.6013-7.6013-1.7507-7.4173-1.9067-7.2213-2.0667-7.016-2.2307-6.7973-2.4-6.5707-2.5707-6.3307-2.7453-6.0813-2.9267-5.8227-3.108-5.552-3.2947-5.2733-3.484-4.984-3.6787-4.688-3.876-4.384-4.0773-4.0707-4.2893-3.7533-4.596-3.504-4.9707-3.3147-5.3347-3.1267-5.6893-2.94-6.0307-2.7573-6.3613-2.576-6.6773-2.3987-6.9827-2.224-7.2733-2.0533-7.5533-1.8853-7.8187-1.7227-8.0733-1.5627-8.3133-1.408-8.5427-1.2587-8.7587-1.1133-8.9627-0.972-9.152-0.83467-9.332-0.704-9.4973-0.57867-9.6507-0.45467-9.7933-0.34-9.9027-0.22667-20.187-0.13733-20.559 0.24933-20.832 0.6-21.009 0.90667-21.091 1.176-21.075 1.4053-20.963 1.592-20.753 1.74-20.455 1.848-10.081 0.952-9.968 0.964-9.8453 0.96933-9.7093 0.972-9.5613 0.96933-9.4013 0.96-9.2293 0.948-9.0467 0.928-8.852 0.90533-8.644 0.87733-8.4253 0.84267-8.1947 0.80533-7.952 0.76133-7.6987 0.71333-7.4333 0.65867-7.156 0.6-6.868 0.53733-6.568 0.468-6.2587 0.39333-5.9373 0.31467-5.6067 0.23067-5.2653 0.14133-4.9173 0.04533-8.4547-0.10267zm605.98 460.84-11.423 24.279-12.569-23.707z" fill="#9f3c4b"/>
</svg>
