<?xml version="1.0" encoding="UTF-8"?>
<svg version="1.1" viewBox="0 0 805.48 640.1" xml:space="preserve" xmlns="http://www.w3.org/2000/svg">
<path d="m269.23 308.97-2.8333-0.68933-3.3293-0.852-3.732-0.99067-4.1107-1.1147-4.464-1.2307-4.7867-1.3347-5.084-1.4267-5.352-1.5067-5.5907-1.576-5.8-1.632-5.98-1.6787-6.1307-1.7107-6.252-1.7333-6.344-1.744-12.851-3.472-12.859-3.368-12.633-3.1733-6.1453-1.48-6.0093-1.3987-5.832-1.3013-5.624-1.1933-5.3867-1.072-5.1173-0.94134-4.8147-0.796-4.4787-0.64133-4.1093-0.47467-3.6987-0.296-3.248-0.10933-2.7427 0.084-2.372 0.272-2.228 0.452-2.0893 0.616-1.9547 0.768-1.8253 0.90933-1.6973 1.0413-1.5707 1.1613-1.448 1.2733-1.3227 1.3773-1.1987 1.4707-1.072 1.5547-0.94267 1.6293-0.81333 1.6933-0.67867 1.7453-0.544 1.7867-0.40533 1.8147-0.26667 1.8307-0.12533 1.836 0.01733 1.8253 0.16 1.8067 0.30267 1.772 0.44533 1.7293 0.58933 1.6733 0.73067 1.6093 0.87467 1.536 1.0173 1.4547 1.164 1.3667 1.3147 1.272 1.4693 1.1707 1.632 1.0613 1.8027 0.944 1.9827 0.816 1.0133 0.33734 1.236 0.36533 2.9453 0.72 3.3813 0.65467 3.8373 0.59866 4.2493 0.54134 4.62 0.48266 4.952 0.42534 5.2507 0.37066 5.516 0.31867 5.7467 0.27067 5.944 0.224 6.1107 0.18266 6.2453 0.14267 6.3467 0.108 12.883 0.12533 12.903 0.024 12.683-0.0453 6.1773-0.04 6.032-0.048 5.8533-0.0507 5.6413-0.0507 5.4013-0.048 8.3693-0.016 0.0147 8-8.3147 0.016-5.3973 0.0467-5.6453 0.0507-5.8587 0.052-6.044 0.048-6.2 0.04-12.727 0.0453-12.964-0.0253-12.943-0.124-6.3947-0.10933-6.3-0.14534-6.1733-0.184-6.0187-0.228-5.8333-0.27466-5.6173-0.32534-5.372-0.38-5.1-0.44-4.8-0.50266-4.4747-0.57334-4.128-0.65066-3.764-0.73867-3.3187-0.82133-1.544-0.464-1.524-0.532-2.652-1.1347-2.456-1.3347-2.252-1.5173-2.0453-1.6867-1.8333-1.8373-1.6213-1.9707-1.408-2.0853-1.1973-2.1827-0.988-2.2627-0.78133-2.3267-0.57867-2.3773-0.38133-2.412-0.18667-2.4347 0.0053-2.4427 0.19333-2.4413 0.38-2.4253 0.56267-2.3973 0.74533-2.3573 0.92667-2.3053 1.1053-2.2387 1.284-2.16 1.4613-2.068 1.6373-1.9587 1.8107-1.8373 1.9813-1.6973 2.1493-1.5453 2.3107-1.3747 2.468-1.1893 2.6173-0.99066 2.76-0.77734 2.8973-0.55333 3.0213-0.31733 3.2413-0.0813 3.612 0.13067 3.976 0.32267 4.324 0.50133 4.652 0.668 4.9547 0.82133 5.232 0.96267 5.484 1.0933 5.7067 1.2107 5.9027 1.3187 6.0707 1.412 6.2187 1.4987 12.712 3.192 12.919 3.3853 12.884 3.48 6.3613 1.7493 6.2667 1.7373 6.14 1.7133 5.9867 1.68 5.8027 1.6333 5.588 1.576 5.344 1.504 5.0707 1.4227 4.7667 1.3293 4.432 1.2213 4.0667 1.104 3.6667 0.97334 3.2333 0.828 2.8347 0.68933zm-34.993 1.992 23.947 12.105-24.052 11.893z" fill="#9f3c4b"/>
</svg>
