<?xml version="1.0" encoding="UTF-8"?>
<svg fill="none" stroke-linecap="square" stroke-miterlimit="10" version="1.1" viewBox="0 0 1191.3 490.83" xmlns="http://www.w3.org/2000/svg">
<path d="m2 35.844c0-18.692 15.153-33.844 33.844-33.844h487.21c8.976 0 17.584 3.5657 23.931 9.9127 6.347 6.347 9.9127 14.955 9.9127 23.931v419.14c0 18.692-15.153 33.844-33.844 33.844h-487.21c-18.692 0-33.844-15.152-33.844-33.844z" fill-opacity="0"/>
<path d="m2 35.844c0-18.692 15.153-33.844 33.844-33.844h487.21c8.976 0 17.584 3.5657 23.931 9.9127 6.347 6.347 9.9127 14.955 9.9127 23.931v419.14c0 18.692-15.153 33.844-33.844 33.844h-487.21c-18.692 0-33.844-15.152-33.844-33.844z" fill-rule="evenodd" stroke="#ff0" stroke-linejoin="round" stroke-width="4"/>
<path d="m220.07 40.132v-11.875h2.8125v16.156h-3.4531l-7.0938-11.844v11.844h-2.8125v-16.156h3.4531zm13.29 4.2812-0.20313-1.5469h-0.0937q-0.67187 0.84375-1.8125 1.3438-1.125 0.5-2.2969 0.5-1.5469 0-2.4375-0.89062-0.875-0.90625-0.875-2.3594 0-1.0156 0.42187-1.7969 0.4375-0.79688 1.2344-1.3438 0.8125-0.5625 1.9375-0.85938 1.125-0.29687 2.5312-0.29687h1.0469v-0.35938q0-0.95312-0.60937-1.3906-0.64063-0.4375-1.9844-0.4375-1.8125 0-3.2344 0.79687l-0.51563-2.0312q1.6406-0.95312 3.9688-0.95312 2.4531 0 3.7188 1 0.59375 0.46875 0.96875 1.2031 0.375 0.73438 0.375 1.7656v7.6562zm-3.3594-1.8906q0.78125 0 1.5625-0.375t1.25-1.0156v-2.2188h-0.46875q-2 0-2.9219 0.51562-0.92188 0.5-0.92188 1.625 0 1.4688 1.5 1.4688zm16.056 1.8906v-7.4375q0-2-1.5938-2-0.39063 0-0.84375 0.14062-0.45313 0.14063-0.89063 0.42188-0.42187 0.28125-0.78125 0.70312-0.34375 0.42188-0.5 0.95313v7.2188h-2.6875v-11.25h2.1094l0.125 1.6562h0.0937q0.48437-1.0312 1.5469-1.5312t2.2656-0.5q1.1562 0 2.0938 0.45312 0.9375 0.45313 1.4062 1.5625 0.48437-1.0156 1.5312-1.5156 1.0625-0.5 2.2656-0.5 0.78125 0 1.4688 0.21875 0.70313 0.20312 1.2188 0.67187 0.53125 0.45313 0.84375 1.2188 0.3125 0.75 0.3125 1.8594v7.6562h-2.7031v-7.4375q0-2-1.5781-2-0.39062 0-0.84375 0.14062-0.45312 0.14063-0.89062 0.42188-0.42188 0.28125-0.78125 0.70312-0.35938 0.42188-0.5 0.95313v7.2188zm18.244-11.625q2.1562 0 3.3281 1.0938 1.1719 1.0938 1.1719 3.0625 0 0.28125-0.0312 0.59375-0.0312 0.29687-0.0937 0.59375-0.0625 0.28125-0.15625 0.51562-0.0781 0.23438-0.17187 0.375h-7.125q0.0469 0.73438 0.26562 1.3906 0.21875 0.64062 0.64063 1.125 0.42187 0.48437 1.0156 0.76562t1.4062 0.28125q0.90625 0 1.9219-0.34375 1.0156-0.34375 1.7188-0.85937l0.45312 2q-0.32812 0.20312-0.79687 0.4375-0.45313 0.23437-1.0469 0.4375-0.59375 0.1875-1.2656 0.3125-0.67188 0.14062-1.4062 0.14062-1.3594 0-2.4219-0.46875-1.0469-0.48437-1.7656-1.2969-0.70313-0.82813-1.0781-1.9062-0.35937-1.0781-0.35937-2.25 0-1.2031 0.375-2.2812 0.39062-1.0938 1.125-1.9219 0.73437-0.84375 1.8125-1.3125 1.0938-0.48437 2.4844-0.48437zm-0.0625 2.1094q-1.0312 0-1.7656 0.60938-0.71875 0.59375-1.0312 1.6094h4.6719q0.0312-0.0625 0.0312-0.15625 0.0156-0.10937 0.0156-0.25 0-0.78125-0.54688-1.2969-0.53125-0.51563-1.375-0.51563zm10.732-0.0937q-0.79688 0-1.25 0.3125-0.45313 0.29688-0.45313 0.85938 0 0.35937 0.25 0.67187 0.26563 0.29688 1.0938 0.5l1.7344 0.39063q1.0312 0.21875 1.6562 0.64062 0.625 0.40625 0.96875 0.90625 0.35937 0.48438 0.48437 1 0.125 0.51563 0.125 0.95313 0 0.78125-0.32812 1.4531-0.3125 0.67188-0.90625 1.1719-0.57813 0.48437-1.4219 0.76562-0.82812 0.28125-1.8438 0.28125-1.2969 0-2.4062-0.375-1.0938-0.39062-1.7656-0.85937l0.64062-2.3125q0.82813 0.79687 1.8594 1.2031 1.0469 0.39063 1.9375 0.39063 0.92187 0 1.4062-0.40625 0.5-0.40625 0.5-1.125 0-0.40625-0.25-0.6875-0.23438-0.28125-0.96875-0.48438l-2.3594-0.57812q-0.82812-0.20313-1.3594-0.5625-0.51563-0.375-0.82813-0.82813-0.29687-0.45312-0.42187-0.9375-0.10938-0.48437-0.10938-0.9375 0-1.6406 1.1562-2.5312 1.1562-0.89062 2.9844-0.89062 0.95312 0 2.0469 0.26562 1.1094 0.25 1.875 0.73438l-0.71875 2.2031q-0.48437-0.39062-1.375-0.78125-0.875-0.40625-1.9531-0.40625zm13.439-2.0156q1.3281 0 2.2812 0.5 0.95312 0.5 1.5781 1.3438 0.625 0.82812 0.90625 1.9219 0.29688 1.0781 0.29688 2.25 0 1.2031-0.3125 2.2812-0.29688 1.0781-0.9375 1.8906-0.625 0.79687-1.5938 1.2656-0.95313 0.46875-2.2656 0.46875-1.1094 0-2.0469-0.3125-0.9375-0.32812-1.5-1.0312v7.4062h-2.6719v-17.609h2.1562l0.1875 1.5312h0.10938q0.3125-0.39063 0.75-0.73438 0.4375-0.35937 0.95312-0.60937 0.51563-0.26563 1.0469-0.40625 0.54687-0.15625 1.0625-0.15625zm-0.4375 2.0625q-0.375 0-0.8125 0.10937-0.4375 0.10938-0.875 0.3125-0.42188 0.20313-0.8125 0.5-0.39063 0.29688-0.65625 0.65625v4.7812q0.73437 0.90625 1.5 1.1406 0.76562 0.23437 1.4062 0.23437 0.8125 0 1.375-0.29687 0.57812-0.29688 0.95312-0.79688 0.39063-0.5 0.5625-1.1719 0.1875-0.67188 0.1875-1.4531 0-0.73437-0.15625-1.4531-0.15625-0.73438-0.51562-1.2969-0.34375-0.5625-0.89063-0.90625-0.53125-0.35937-1.2656-0.35937zm15.101 9.5625-0.20313-1.5469h-0.0937q-0.67187 0.84375-1.8125 1.3438-1.125 0.5-2.2969 0.5-1.5469 0-2.4375-0.89062-0.875-0.90625-0.875-2.3594 0-1.0156 0.42187-1.7969 0.4375-0.79688 1.2344-1.3438 0.8125-0.5625 1.9375-0.85938 1.125-0.29687 2.5312-0.29687h1.0469v-0.35938q0-0.95312-0.60937-1.3906-0.64063-0.4375-1.9844-0.4375-1.8125 0-3.2344 0.79687l-0.51563-2.0312q1.6406-0.95312 3.9688-0.95312 2.4531 0 3.7188 1 0.59375 0.46875 0.96875 1.2031 0.375 0.73438 0.375 1.7656v7.6562zm-3.3594-1.8906q0.78125 0 1.5625-0.375t1.25-1.0156v-2.2188h-0.46875q-2 0-2.9219 0.51562-0.92188 0.5-0.92188 1.625 0 1.4688 1.5 1.4688zm17.446-6.5781q-0.26562-0.1875-0.67187-0.375-0.40625-0.20313-0.875-0.34375-0.45313-0.15625-0.96875-0.23438-0.5-0.0937-0.9375-0.0937-0.82813 0-1.4062 0.3125-0.57813 0.29688-0.9375 0.79688-0.34375 0.5-0.5 1.1719-0.15625 0.65625-0.15625 1.3594 0 0.82812 0.1875 1.5625 0.20312 0.71875 0.59375 1.2656 0.39062 0.53125 0.98437 0.84375t1.3906 0.3125q0.875 0 1.8594-0.34375 1-0.35937 1.6562-1l0.48438 2.2969q-0.67188 0.45312-1.8594 0.84375-1.1875 0.39062-2.5312 0.39062-1.4219 0-2.5-0.48437-1.0625-0.5-1.7656-1.3125-0.6875-0.82813-1.0469-1.9062-0.34375-1.0938-0.34375-2.3125 0-1.1875 0.32813-2.25 0.32812-1.0625 1.0312-1.875 0.71875-0.82813 1.8125-1.2969 1.1094-0.48437 2.6406-0.48437 1.1875 0 2.3125 0.28125 1.125 0.26562 1.8125 0.70312zm8.2157-3.1562q2.1562 0 3.3281 1.0938 1.1719 1.0938 1.1719 3.0625 0 0.28125-0.0312 0.59375-0.0312 0.29687-0.0937 0.59375-0.0625 0.28125-0.15625 0.51562-0.0781 0.23438-0.17188 0.375h-7.125q0.0469 0.73438 0.26563 1.3906 0.21875 0.64062 0.64062 1.125 0.42188 0.48437 1.0156 0.76562t1.4062 0.28125q0.90625 0 1.9219-0.34375 1.0156-0.34375 1.7188-0.85937l0.45313 2q-0.32813 0.20312-0.79688 0.4375-0.45312 0.23437-1.0469 0.4375-0.59375 0.1875-1.2656 0.3125-0.67187 0.14062-1.4062 0.14062-1.3594 0-2.4219-0.46875-1.0469-0.48437-1.7656-1.2969-0.70312-0.82813-1.0781-1.9062-0.35938-1.0781-0.35938-2.25 0-1.2031 0.375-2.2812 0.39063-1.0938 1.125-1.9219 0.73438-0.84375 1.8125-1.3125 1.0938-0.48437 2.4844-0.48437zm-0.0625 2.1094q-1.0312 0-1.7656 0.60938-0.71875 0.59375-1.0312 1.6094h4.6719q0.0312-0.0625 0.0312-0.15625 0.0156-0.10937 0.0156-0.25 0-0.78125-0.54687-1.2969-0.53125-0.51563-1.375-0.51563zm26.499 9.5156h-3.0625l-1.8438-4.7031h-6.0781l-1.6719 4.7031h-2.9375l6.2656-16.156h2.4219zm-10.203-6.9062h4.4219l-2.3281-5.9375z" fill="#fff"/>
<path d="m847.53 276.81c0-8.7638 7.1044-15.868 15.868-15.868h114.46c4.2085 0 8.2446 1.6718 11.22 4.6477 2.976 2.9759 4.6477 7.012 4.6477 11.221v63.471c0 8.7638-7.1043 15.868-15.868 15.868h-114.46c-8.7638 0-15.868-7.1044-15.868-15.868z" fill="#e06666" fill-rule="evenodd"/>
<path d="m847.53 276.81c0-8.7638 7.1044-15.868 15.868-15.868h114.46c4.2085 0 8.2446 1.6718 11.22 4.6477 2.976 2.9759 4.6477 7.012 4.6477 11.221v63.471c0 8.7638-7.1043 15.868-15.868 15.868h-114.46c-8.7638 0-15.868-7.1044-15.868-15.868z" fill-rule="evenodd" stroke="#002050" stroke-linejoin="round"/>
<path d="m910.38 287.89q-0.3125 0-0.625 0t-0.59375-0.0156v4.6406h-2.1406v-12.312q0.28125-0.0156 0.64062-0.0312 0.375-0.0312 0.76563-0.0312 0.40625-0.0156 0.79687-0.0156 0.40625-0.0156 0.76563-0.0156 1.0469 0 1.9062 0.25 0.85937 0.25 1.4688 0.76562 0.60937 0.5 0.9375 1.2344 0.34375 0.73437 0.34375 1.7031 0 0.78125-0.26563 1.4844-0.25 0.6875-0.78125 1.2031-0.51562 0.51563-1.3281 0.82813t-1.8906 0.3125zm-0.0937-5.9844q-0.29687 0-0.57812 0t-0.54688 0.0156v4.1562q0.26563 0.0156 0.54688 0.0156 0.29687 0 0.60937 0 1.0156 0 1.5312-0.54687 0.51563-0.5625 0.51563-1.625 0-0.90625-0.46875-1.4531-0.45313-0.5625-1.6094-0.5625zm9.7549 1.75q1.1406 0 1.9531 0.39063 0.82812 0.375 1.3594 1.0156 0.53125 0.64063 0.78125 1.4688 0.25 0.82813 0.25 1.75 0 0.90625-0.25 1.7188t-0.78125 1.4219q-0.53125 0.60937-1.3438 0.96875-0.8125 0.34375-1.9062 0.34375-1.1406 0-1.9688-0.35938-0.8125-0.375-1.3594-1-0.53125-0.625-0.79688-1.4531-0.26562-0.82813-0.26562-1.7344 0-0.92187 0.26562-1.7344 0.26563-0.82813 0.79688-1.4531t1.3438-0.98437q0.82812-0.35938 1.9219-0.35938zm0.0469 7.5312q0.53125 0 0.9375-0.23437 0.40625-0.23438 0.65625-0.625 0.26562-0.40625 0.375-0.92188 0.125-0.53125 0.125-1.1094 0-0.59375-0.125-1.1406-0.125-0.54687-0.40625-0.96875-0.26563-0.42187-0.67188-0.67187t-0.98437-0.25q-0.54688 0-0.9375 0.23437-0.39063 0.21875-0.64063 0.625-0.25 0.39063-0.375 0.90625-0.125 0.51563-0.125 1.0938 0 0.60938 0.125 1.1562 0.125 0.54688 0.39063 0.98438 0.26562 0.42187 0.67187 0.67187 0.42188 0.25 0.98438 0.25zm9.7891 1.5469q-0.875 0-1.6094-0.34375-0.71875-0.35938-1.2344-0.96875-0.51562-0.625-0.79687-1.4531-0.28125-0.84375-0.28125-1.8438 0-0.875 0.23437-1.6875 0.23438-0.8125 0.71875-1.4219 0.48438-0.60938 1.2031-0.98438t1.7031-0.375q0.90625 0 1.6094 0.29688 0.70312 0.29687 1.1406 0.84375v-6.0938h2.0312v13.812h-1.6406l-0.15625-1.1719h-0.0625q-0.53125 0.57813-1.2031 0.98438-0.65625 0.40625-1.6562 0.40625zm0.26563-1.5469q0.29687 0 0.625-0.0781 0.34375-0.0937 0.65625-0.23438 0.32812-0.15625 0.625-0.35937 0.3125-0.21875 0.51562-0.5v-3.5781q-0.5625-0.6875-1.1406-0.9375-0.57813-0.26562-1.125-0.26562-0.59375 0-1.0312 0.23437-0.42188 0.23438-0.71875 0.65625-0.28125 0.40625-0.42188 0.9375-0.14062 0.53125-0.14062 1.1094 0 0.5625 0.125 1.1094 0.14062 0.54688 0.39062 0.96875 0.26563 0.42188 0.67188 0.6875 0.42187 0.25 0.96875 0.25z" fill="#fff"/>
<path d="m859.74 308.23c0-4.2872 3.4755-7.7626 7.7626-7.7626h39.821c2.0588 0 4.0332 0.81784 5.489 2.2736 1.4558 1.4558 2.2736 3.4302 2.2736 5.489v31.049c0 4.2872-3.4754 7.7626-7.7626 7.7626h-39.821c-4.2872 0-7.7626-3.4755-7.7626-7.7626z" fill="#900" fill-rule="evenodd"/>
<path d="m859.74 308.23c0-4.2872 3.4755-7.7626 7.7626-7.7626h39.821c2.0588 0 4.0332 0.81784 5.489 2.2736 1.4558 1.4558 2.2736 3.4302 2.2736 5.489v31.049c0 4.2872-3.4754 7.7626-7.7626 7.7626h-39.821c-4.2872 0-7.7626-3.4755-7.7626-7.7626z" fill-rule="evenodd" stroke="#002050" stroke-linejoin="round"/>
<path d="m926.22 308.23c0-4.2872 3.4754-7.7626 7.7626-7.7626h39.821c2.0588 0 4.0332 0.81784 5.489 2.2736s2.2736 3.4302 2.2736 5.489v31.049c0 4.2872-3.4754 7.7626-7.7626 7.7626h-39.821c-4.2872 0-7.7626-3.4755-7.7626-7.7626z" fill="#900" fill-rule="evenodd"/>
<path d="m926.22 308.23c0-4.2872 3.4754-7.7626 7.7626-7.7626h39.821c2.0588 0 4.0332 0.81784 5.489 2.2736s2.2736 3.4302 2.2736 5.489v31.049c0 4.2872-3.4754 7.7626-7.7626 7.7626h-39.821c-4.2872 0-7.7626-3.4755-7.7626-7.7626z" fill-rule="evenodd" stroke="#002050" stroke-linejoin="round"/>
<path d="m663.37 276.81c0-8.7638 7.1044-15.868 15.868-15.868h114.46c4.2085 0 8.2446 1.6718 11.221 4.6477 2.9758 2.9759 4.6476 7.012 4.6476 11.221v63.471c0 8.7638-7.1044 15.868-15.868 15.868h-114.46c-8.7638 0-15.868-7.1044-15.868-15.868z" fill="#6fa8dc" fill-rule="evenodd"/>
<path d="m663.37 276.81c0-8.7638 7.1044-15.868 15.868-15.868h114.46c4.2085 0 8.2446 1.6718 11.221 4.6477 2.9758 2.9759 4.6476 7.012 4.6476 11.221v63.471c0 8.7638-7.1044 15.868-15.868 15.868h-114.46c-8.7638 0-15.868-7.1044-15.868-15.868z" fill-rule="evenodd" stroke="#002050" stroke-linejoin="round"/>
<path d="m681.25 280.2q0.25-0.0156 0.76562-0.0312 0.51563-0.0312 1.0938-0.0312 0.57813-0.0156 1.1094-0.0156 0.54687-0.0156 0.84375-0.0156 1.7969 0 2.9688 0.375 1.1719 0.375 1.9375 1.0312 0.98437 0.84375 1.4219 2.1719 0.45313 1.3281 0.45313 2.9375 0 1.2031-0.3125 2.3125-0.29688 1.1094-1.0938 1.9531-0.79688 0.84375-2.1875 1.3438-1.3906 0.48437-3.5469 0.48437-0.78125 0-1.6875-0.0625-0.89062-0.0469-1.7656-0.14062zm3.9688 10.75q2.2656 0 3.2969-1.0781 1.0312-1.0938 1.0312-3.5312 0-1.1094-0.21875-1.9375-0.20312-0.82812-0.73437-1.3906-0.51563-0.5625-1.3906-0.82813-0.875-0.28125-2.1875-0.28125-0.25 0-0.70312 0-0.4375 0-0.92188 0.0156v8.9531q0.53125 0.0312 1.0156 0.0625 0.48437 0.0156 0.8125 0.0156zm12.675-7.2969q1.6406 0 2.5312 0.82813 0.90625 0.82812 0.90625 2.3438 0 0.20312-0.0312 0.4375-0.0312 0.23437-0.0781 0.45312t-0.10938 0.40625q-0.0625 0.17188-0.14062 0.28125h-5.4375q0.0469 0.5625 0.20312 1.0625 0.17188 0.48438 0.48438 0.85938 0.32812 0.35937 0.78125 0.57812 0.45312 0.20313 1.0781 0.20313 0.6875 0 1.4531-0.25 0.78125-0.26563 1.3281-0.65625l0.32813 1.5312q-0.23438 0.14062-0.59375 0.32812-0.35938 0.17188-0.8125 0.32813-0.4375 0.14062-0.95313 0.23437-0.51562 0.10938-1.0625 0.10938-1.0469 0-1.8594-0.35938-0.79688-0.35937-1.3438-0.98437-0.53125-0.625-0.8125-1.4375-0.28125-0.82813-0.28125-1.7344t0.28125-1.7344q0.29687-0.82813 0.85937-1.4688 0.5625-0.64063 1.3906-1 0.82812-0.35938 1.8906-0.35938zm-0.0625 1.6094q-0.78125 0-1.3281 0.45312-0.54688 0.45313-0.79688 1.2344h3.5625q0.0156-0.0469 0.0312-0.125t0.0156-0.1875q0-0.59375-0.42188-0.98438-0.40625-0.39062-1.0625-0.39062zm10.359-1.6094q1.0156 0 1.7344 0.39063 0.73437 0.375 1.2031 1.0156 0.48438 0.625 0.70313 1.4531 0.21875 0.82812 0.21875 1.7344t-0.23438 1.7344q-0.23437 0.8125-0.71875 1.4375-0.48437 0.60937-1.2188 0.96875-0.71875 0.34375-1.7188 0.34375-0.84375 0-1.5625-0.23438-0.71875-0.25-1.1406-0.78125v5.6406h-2.0469v-13.422h1.6406l0.15625 1.1719h0.0781q0.23438-0.29688 0.5625-0.5625 0.34375-0.28125 0.73438-0.46875 0.39062-0.20313 0.79687-0.3125 0.42188-0.10938 0.8125-0.10938zm-0.32812 1.5625q-0.28125 0-0.625 0.0937-0.32813 0.0781-0.65625 0.23438-0.32813 0.15625-0.625 0.39062-0.29688 0.21875-0.5 0.5v3.6406q0.54687 0.6875 1.1406 0.85937 0.59375 0.17188 1.0781 0.17188 0.60937 0 1.0469-0.21875t0.71875-0.59375q0.29688-0.39063 0.4375-0.90625 0.14063-0.51563 0.14063-1.1094 0-0.5625-0.125-1.1094-0.10938-0.54688-0.39063-0.96875-0.26562-0.4375-0.6875-0.70313-0.40625-0.28125-0.95312-0.28125zm8.4461 7.2969h-2.0469v-13.812h2.0469zm6.5069-8.8594q1.1406 0 1.9531 0.39063 0.82813 0.375 1.3594 1.0156 0.53125 0.64063 0.78125 1.4688 0.25 0.82813 0.25 1.75 0 0.90625-0.25 1.7188t-0.78125 1.4219q-0.53125 0.60937-1.3438 0.96875-0.8125 0.34375-1.9062 0.34375-1.1406 0-1.9688-0.35938-0.8125-0.375-1.3594-1-0.53125-0.625-0.79687-1.4531-0.26563-0.82813-0.26563-1.7344 0-0.92187 0.26563-1.7344 0.26562-0.82813 0.79687-1.4531t1.3438-0.98437q0.82813-0.35938 1.9219-0.35938zm0.0469 7.5312q0.53125 0 0.9375-0.23437 0.40625-0.23438 0.65625-0.625 0.26563-0.40625 0.375-0.92188 0.125-0.53125 0.125-1.1094 0-0.59375-0.125-1.1406-0.125-0.54687-0.40625-0.96875-0.26562-0.42187-0.67187-0.67187t-0.98438-0.25q-0.54687 0-0.9375 0.23437-0.39062 0.21875-0.64062 0.625-0.25 0.39063-0.375 0.90625-0.125 0.51563-0.125 1.0938 0 0.60938 0.125 1.1562 0.125 0.54688 0.39062 0.98438 0.26563 0.42187 0.67188 0.67187 0.42187 0.25 0.98437 0.25zm9.9554-1.1562 2.3906-6.0938h1.9688l-3.5312 8.6562q-0.26562 0.65625-0.73437 1.4531-0.45313 0.8125-1.0782 1.5312-0.625 0.71875-1.4062 1.2188t-1.6875 0.5q-0.15625 0-0.23437-0.0156-0.0781-0.0156-0.17188-0.0469l-0.34375-1.6094q0.0469 0.0312 0.125 0.0469 0.0781 0.0156 0.3125 0.0156 0.35938 0 0.70313-0.0781t0.70312-0.29688q0.67188-0.42187 1.1562-1.1875 0.5-0.76562 0.96875-1.8906l-4.2656-8.2969h2.1406zm11.526 2.4844v-5.6719q0-1.5312-1.2031-1.5312-0.3125 0-0.65625 0.10938-0.34375 0.10937-0.67188 0.32812-0.3125 0.21875-0.59375 0.54688-0.26562 0.3125-0.375 0.71875v5.5h-2.0625v-8.5781h1.6094l0.0937 1.2656h0.0781q0.375-0.78125 1.1875-1.1562 0.8125-0.39063 1.7188-0.39063 0.875 0 1.5938 0.34375t1.0781 1.1875q0.375-0.76562 1.1719-1.1406 0.79688-0.39063 1.7188-0.39063 0.59375 0 1.125 0.15625t0.9375 0.51563q0.40625 0.35937 0.625 0.9375 0.23438 0.57812 0.23438 1.4062v5.8438h-2.0469v-5.6719q0-1.5312-1.2188-1.5312-0.29687 0-0.64062 0.10938-0.34375 0.10937-0.67188 0.32812-0.32812 0.21875-0.59375 0.54688-0.26562 0.3125-0.375 0.71875v5.5zm13.922-8.8594q1.6406 0 2.5312 0.82813 0.90625 0.82812 0.90625 2.3438 0 0.20312-0.0312 0.4375-0.0312 0.23437-0.0781 0.45312t-0.10937 0.40625q-0.0625 0.17188-0.14063 0.28125h-5.4375q0.0469 0.5625 0.20313 1.0625 0.17187 0.48438 0.48437 0.85938 0.32813 0.35937 0.78125 0.57812 0.45313 0.20313 1.0781 0.20313 0.6875 0 1.4531-0.25 0.78125-0.26563 1.3281-0.65625l0.32812 1.5312q-0.23437 0.14062-0.59375 0.32812-0.35937 0.17188-0.8125 0.32813-0.4375 0.14062-0.95312 0.23437-0.51563 0.10938-1.0625 0.10938-1.0469 0-1.8594-0.35938-0.79687-0.35937-1.3438-0.98437-0.53125-0.625-0.8125-1.4375-0.28125-0.82813-0.28125-1.7344t0.28125-1.7344q0.29688-0.82813 0.85938-1.4688 0.5625-0.64063 1.3906-1 0.82813-0.35938 1.8906-0.35938zm-0.0625 1.6094q-0.78125 0-1.3281 0.45312-0.54687 0.45313-0.79687 1.2344h3.5625q0.0156-0.0469 0.0312-0.125t0.0156-0.1875q0-0.59375-0.42187-0.98438-0.40625-0.39062-1.0625-0.39062zm11.328 7.25v-5.6719q0-1.5312-1.2969-1.5312-0.32813 0-0.6875 0.10938-0.35938 0.10937-0.70313 0.32812-0.32812 0.21875-0.60937 0.54688-0.26563 0.3125-0.39063 0.71875v5.5h-2.0625v-8.5781h1.6094l0.0937 1.2656h0.0781q0.39063-0.78125 1.2188-1.1562 0.82813-0.39063 1.7812-0.39063 0.60938 0 1.1562 0.15625 0.54688 0.15625 0.95313 0.51563 0.42187 0.35937 0.65625 0.9375 0.25 0.57812 0.25 1.4062v5.8438zm4.8456-7.3281h-1.0625v-1.125l1.2188-0.1875 0.34375-2.5312h1.5625v2.5938h1.6406v1.25h-1.6406v4.9219q0 0.5625 0.10938 0.76562 0.10937 0.1875 0.42187 0.1875 0.25 0 0.48438-0.0937 0.25-0.0937 0.71875-0.35937l0.32812 1.4844q-0.34375 0.29688-1 0.46875-0.64062 0.17188-1.2656 0.17188-0.5625 0-0.9375-0.15625-0.35938-0.14063-0.5625-0.42188-0.20313-0.29687-0.28125-0.70312-0.0781-0.40625-0.0781-0.92188zm8.2207-4.9844h2.4062l3.1406 5.5781 3.0312-5.5781h2.375l-4.3906 7.25v5.0625h-2.1406v-4.9844z" fill="#fff"/>
<path d="m677.74 306.65c0-4.2872 3.4754-7.7626 7.7626-7.7626h101.94c2.0588 0 4.0332 0.81784 5.489 2.2736 1.4558 1.4558 2.2736 3.4302 2.2736 5.489v31.05c0 4.2872-3.4755 7.7626-7.7626 7.7626h-101.94c-4.2872 0-7.7626-3.4754-7.7626-7.7626z" fill="#0b5394" fill-rule="evenodd"/>
<path d="m677.74 306.65c0-4.2872 3.4754-7.7626 7.7626-7.7626h101.94c2.0588 0 4.0332 0.81784 5.489 2.2736 1.4558 1.4558 2.2736 3.4302 2.2736 5.489v31.05c0 4.2872-3.4755 7.7626-7.7626 7.7626h-101.94c-4.2872 0-7.7626-3.4754-7.7626-7.7626z" fill-rule="evenodd" stroke="#002050" stroke-linejoin="round"/>
<path d="m736.47 356.15v87.112h184.16v-87.049" fill-opacity="0"/>
<path d="m736.47 356.15v87.112h184.16v-27.049" fill-rule="evenodd" stroke="#9fc5e8" stroke-linejoin="round" stroke-width="8"/>
<path d="m938.21 416.21-17.581-48.305-17.581 48.305z" fill="#9fc5e8" fill-rule="evenodd" stroke="#9fc5e8" stroke-width="8"/>
<path d="m1014.2 276.81c0-8.7638 7.1045-15.868 15.868-15.868h114.46c4.2085 0 8.2447 1.6718 11.22 4.6477 2.9759 2.9759 4.6477 7.012 4.6477 11.221v63.471c0 8.7638-7.1044 15.868-15.868 15.868h-114.46c-8.7638 0-15.868-7.1044-15.868-15.868z" fill="#e06666" fill-rule="evenodd"/>
<path d="m1014.2 276.81c0-8.7638 7.1045-15.868 15.868-15.868h114.46c4.2085 0 8.2447 1.6718 11.22 4.6477 2.9759 2.9759 4.6477 7.012 4.6477 11.221v63.471c0 8.7638-7.1044 15.868-15.868 15.868h-114.46c-8.7638 0-15.868-7.1044-15.868-15.868z" fill-rule="evenodd" stroke="#002050" stroke-linejoin="round"/>
<path d="m1077 287.89q-0.3125 0-0.625 0t-0.5937-0.0156v4.6406h-2.1407v-12.312q0.2813-0.0156 0.6407-0.0312 0.375-0.0312 0.7656-0.0312 0.4062-0.0156 0.7969-0.0156 0.4062-0.0156 0.7656-0.0156 1.0469 0 1.9062 0.25 0.8594 0.25 1.4688 0.76562 0.6094 0.5 0.9375 1.2344 0.3437 0.73437 0.3437 1.7031 0 0.78125-0.2656 1.4844-0.25 0.6875-0.7812 1.2031-0.5157 0.51563-1.3282 0.82813t-1.8906 0.3125zm-0.094-5.9844q-0.2969 0-0.5782 0-0.2812 0-0.5468 0.0156v4.1562q0.2656 0.0156 0.5468 0.0156 0.2969 0 0.6094 0 1.0156 0 1.5313-0.54687 0.5156-0.5625 0.5156-1.625 0-0.90625-0.4688-1.4531-0.4531-0.5625-1.6093-0.5625zm9.755 1.75q1.1406 0 1.9531 0.39063 0.8281 0.375 1.3594 1.0156 0.5312 0.64063 0.7812 1.4688 0.25 0.82813 0.25 1.75 0 0.90625-0.25 1.7188t-0.7812 1.4219q-0.5313 0.60937-1.3438 0.96875-0.8125 0.34375-1.9062 0.34375-1.1407 0-1.9688-0.35938-0.8125-0.375-1.3594-1-0.5312-0.625-0.7968-1.4531-0.2657-0.82813-0.2657-1.7344 0-0.92187 0.2657-1.7344 0.2656-0.82813 0.7968-1.4531 0.5313-0.625 1.3438-0.98437 0.8281-0.35938 1.9219-0.35938zm0.047 7.5312q0.5313 0 0.9375-0.23437 0.4063-0.23438 0.6563-0.625 0.2656-0.40625 0.375-0.92188 0.125-0.53125 0.125-1.1094 0-0.59375-0.125-1.1406-0.125-0.54687-0.4063-0.96875-0.2656-0.42187-0.6718-0.67187-0.4063-0.25-0.9844-0.25-0.5469 0-0.9375 0.23437-0.3906 0.21875-0.6406 0.625-0.25 0.39063-0.375 0.90625-0.125 0.51563-0.125 1.0938 0 0.60938 0.125 1.1562 0.125 0.54688 0.3906 0.98438 0.2656 0.42187 0.6719 0.67187 0.4218 0.25 0.9843 0.25zm9.7892 1.5469q-0.875 0-1.6094-0.34375-0.7187-0.35938-1.2343-0.96875-0.5157-0.625-0.7969-1.4531-0.2813-0.84375-0.2813-1.8438 0-0.875 0.2344-1.6875t0.7188-1.4219q0.4843-0.60938 1.2031-0.98438 0.7187-0.375 1.7031-0.375 0.9063 0 1.6094 0.29688 0.7031 0.29687 1.1406 0.84375v-6.0938h2.0313v13.812h-1.6407l-0.1562-1.1719h-0.062q-0.5313 0.57813-1.2031 0.98438-0.6563 0.40625-1.6563 0.40625zm0.2656-1.5469q0.2969 0 0.625-0.0781 0.3438-0.0937 0.6563-0.23438 0.3281-0.15625 0.625-0.35937 0.3125-0.21875 0.5156-0.5v-3.5781q-0.5625-0.6875-1.1406-0.9375-0.5781-0.26562-1.125-0.26562-0.5938 0-1.0313 0.23437-0.4218 0.23438-0.7187 0.65625-0.2813 0.40625-0.4219 0.9375t-0.1406 1.1094q0 0.5625 0.125 1.1094 0.1406 0.54688 0.3906 0.96875 0.2656 0.42188 0.6719 0.6875 0.4219 0.25 0.9687 0.25z" fill="#fff"/>
<path d="m1026.4 308.23c0-4.2872 3.4753-7.7626 7.7626-7.7626h39.821c2.0588 0 4.0332 0.81784 5.4889 2.2736 1.4558 1.4558 2.2737 3.4302 2.2737 5.489v31.049c0 4.2872-3.4755 7.7626-7.7626 7.7626h-39.821c-4.2873 0-7.7626-3.4755-7.7626-7.7626z" fill="#900" fill-rule="evenodd"/>
<path d="m1026.4 308.23c0-4.2872 3.4753-7.7626 7.7626-7.7626h39.821c2.0588 0 4.0332 0.81784 5.4889 2.2736 1.4558 1.4558 2.2737 3.4302 2.2737 5.489v31.049c0 4.2872-3.4755 7.7626-7.7626 7.7626h-39.821c-4.2873 0-7.7626-3.4755-7.7626-7.7626z" fill-rule="evenodd" stroke="#002050" stroke-linejoin="round"/>
<path d="m1092.9 308.23c0-4.2872 3.4755-7.7626 7.7627-7.7626h39.821c2.0589 0 4.0332 0.81784 5.4891 2.2736 1.4558 1.4558 2.2735 3.4302 2.2735 5.489v31.049c0 4.2872-3.4753 7.7626-7.7626 7.7626h-39.821c-4.2872 0-7.7627-3.4755-7.7627-7.7626z" fill="#900" fill-rule="evenodd"/>
<path d="m1092.9 308.23c0-4.2872 3.4755-7.7626 7.7627-7.7626h39.821c2.0589 0 4.0332 0.81784 5.4891 2.2736 1.4558 1.4558 2.2735 3.4302 2.2735 5.489v31.049c0 4.2872-3.4753 7.7626-7.7626 7.7626h-39.821c-4.2872 0-7.7627-3.4755-7.7627-7.7626z" fill-rule="evenodd" stroke="#002050" stroke-linejoin="round"/>
<path d="m736.47 356.15v85.481h350.8v-85.418" fill-opacity="0"/>
<path d="m736.47 356.15v85.481h350.8v-25.418" fill-rule="evenodd" stroke="#9fc5e8" stroke-linejoin="round" stroke-width="8"/>
<path d="m1104.9 416.21-17.582-48.305-17.582 48.305z" fill="#9fc5e8" fill-rule="evenodd" stroke="#9fc5e8" stroke-width="8"/>
<path d="m810.41 108.93c0-4.7754 3.8713-8.6466 8.6467-8.6466h203.36c2.2932 0 4.4924 0.91098 6.114 2.5325 1.6216 1.6216 2.5326 3.8209 2.5326 6.1141v34.586c0 4.7754-3.8712 8.6466-8.6466 8.6466h-203.36c-4.7754 0-8.6467-3.8712-8.6467-8.6466z" fill="#93c47d" fill-rule="evenodd"/>
<path d="m810.41 108.93c0-4.7754 3.8713-8.6466 8.6467-8.6466h203.36c2.2932 0 4.4924 0.91098 6.114 2.5325 1.6216 1.6216 2.5326 3.8209 2.5326 6.1141v34.586c0 4.7754-3.8712 8.6466-8.6466 8.6466h-203.36c-4.7754 0-8.6467-3.8712-8.6467-8.6466z" fill-rule="evenodd" stroke="#002050" stroke-linejoin="round"/>
<path d="m886.04 120.39q0 0.39063 0.17187 0.67188 0.1875 0.28125 0.5 0.48437 0.32813 0.20313 0.76563 0.39063 0.4375 0.17187 0.96875 0.35937 0.67187 0.23438 1.3281 0.54688 0.67188 0.3125 1.2031 0.76562 0.53125 0.45313 0.85937 1.125 0.34375 0.67188 0.34375 1.625 0 1-0.35937 1.7031-0.35938 0.6875-0.98438 1.1094-0.60937 0.40625-1.4219 0.59375-0.79688 0.1875-1.6562 0.1875-1.2344 0-2.3125-0.29687-1.0625-0.29688-1.8281-0.71875l0.5625-2.0156q0.70313 0.53125 1.5625 0.89063 0.875 0.35937 2 0.35937 1.1875 0 1.7344-0.42187 0.54687-0.42188 0.54687-1.125 0-0.54688-0.26562-0.92188-0.26563-0.39062-0.65625-0.65625-0.39063-0.28125-0.82813-0.4375-0.4375-0.17187-0.76562-0.28125-0.60938-0.1875-1.2344-0.45312-0.60937-0.26563-1.125-0.67188-0.51562-0.42187-0.84375-1.0625-0.32812-0.64062-0.32812-1.5781 0-0.90625 0.29687-1.5156 0.3125-0.625 0.84375-1 0.53125-0.39062 1.25-0.54687 0.71875-0.17188 1.5625-0.17188 1.0312 0 1.9844 0.20313 0.96875 0.20312 1.6094 0.5l-0.5 1.9844q-0.32812-0.21875-0.71875-0.39062-0.39062-0.17188-0.8125-0.28125-0.42187-0.10938-0.84375-0.17188-0.42187-0.0781-0.79687-0.0781-0.84375 0-1.3281 0.32812-0.48437 0.3125-0.48437 0.96875zm12.096 0.48438q1.6406 0 2.5312 0.82812 0.90625 0.82813 0.90625 2.3438 0 0.20313-0.0312 0.4375-0.0312 0.23438-0.0781 0.45313t-0.10937 0.40625q-0.0625 0.17187-0.14063 0.28125h-5.4375q0.0469 0.5625 0.20313 1.0625 0.17187 0.48437 0.48437 0.85937 0.32813 0.35938 0.78125 0.57813 0.45313 0.20312 1.0781 0.20312 0.6875 0 1.4531-0.25 0.78125-0.26562 1.3281-0.65625l0.32812 1.5312q-0.23437 0.14063-0.59375 0.32813-0.35937 0.17187-0.8125 0.32812-0.4375 0.14063-0.95312 0.23438-0.51563 0.10937-1.0625 0.10937-1.0469 0-1.8594-0.35937-0.79687-0.35938-1.3438-0.98438-0.53125-0.625-0.8125-1.4375-0.28125-0.82812-0.28125-1.7344t0.28125-1.7344q0.29688-0.82812 0.85938-1.4688 0.5625-0.64062 1.3906-1 0.82813-0.35937 1.8906-0.35937zm-0.0625 1.6094q-0.78125 0-1.3281 0.45313-0.54687 0.45312-0.79687 1.2344h3.5625q0.0156-0.0469 0.0312-0.125t0.0156-0.1875q0-0.59375-0.42187-0.98437-0.40625-0.39063-1.0625-0.39063zm10.484 0.53125q-0.1875-0.14062-0.57813-0.23437-0.39062-0.0937-0.67187-0.0937-0.35938 0-0.60938 0.17187-0.25 0.17188-0.4375 0.46875-0.17187 0.28125-0.3125 0.65625-0.125 0.375-0.23437 0.76563v4.9844h-2.0625v-8.5781h1.6094l0.0937 1.7812h0.0781q0.1875-0.39063 0.39062-0.75 0.20313-0.375 0.45313-0.65625 0.26562-0.29688 0.60937-0.46875 0.35938-0.1875 0.8125-0.1875 0.75 0 1.4062 0.48437zm6.8837 6.7188h-2.4688l-3.4375-8.5781h2.1406l2.5938 6.875 2.7031-6.875h2.0156zm7.0259 0h-2.0625v-8.5781h2.0625zm-2.3594-11.344q0-0.26562 0.0937-0.5 0.10937-0.25 0.29687-0.4375 0.1875-0.20312 0.42188-0.3125 0.23437-0.10937 0.51562-0.10937 0.26563 0 0.5 0.10937 0.25 0.10938 0.4375 0.3125 0.20313 0.1875 0.3125 0.4375 0.10938 0.23438 0.10938 0.5 0 0.28125-0.10938 0.51563-0.10937 0.23437-0.3125 0.42187-0.1875 0.1875-0.4375 0.29688-0.23437 0.0937-0.5 0.0937-0.54687 0-0.9375-0.39063-0.39062-0.39062-0.39062-0.9375zm11.549 4.8906q-0.20312-0.15625-0.51562-0.29688-0.29688-0.15625-0.65625-0.26562-0.35938-0.10938-0.75-0.17188-0.375-0.0625-0.70313-0.0625-0.64062 0-1.0781 0.23438-0.4375 0.21875-0.70313 0.60937-0.26562 0.375-0.39062 0.89063-0.125 0.5-0.125 1.0312 0 0.64062 0.14062 1.1875 0.15625 0.54687 0.45313 0.96875 0.29687 0.40625 0.75 0.65625 0.46875 0.23437 1.0625 0.23437 0.67187 0 1.4219-0.26562 0.76563-0.28125 1.2656-0.76563l0.375 1.7656q-0.53125 0.32812-1.4375 0.625-0.89063 0.29687-1.9219 0.29687-1.0781 0-1.8906-0.35937-0.8125-0.375-1.3438-1t-0.8125-1.4531q-0.26563-0.84375-0.26563-1.7656 0-0.90625 0.25-1.7188t0.79688-1.4375q0.54687-0.625 1.375-0.98438 0.84375-0.35937 2.0156-0.35937 0.90625 0 1.75 0.20312 0.85938 0.20313 1.3906 0.54688zm6.2735-2.4062q1.6406 0 2.5312 0.82812 0.90625 0.82813 0.90625 2.3438 0 0.20313-0.0312 0.4375-0.0312 0.23438-0.0781 0.45313t-0.10938 0.40625q-0.0625 0.17187-0.14062 0.28125h-5.4375q0.0469 0.5625 0.20312 1.0625 0.17188 0.48437 0.48438 0.85937 0.32812 0.35938 0.78125 0.57813 0.45312 0.20312 1.0781 0.20312 0.6875 0 1.4531-0.25 0.78125-0.26562 1.3281-0.65625l0.32813 1.5312q-0.23438 0.14063-0.59375 0.32813-0.35938 0.17187-0.8125 0.32812-0.4375 0.14063-0.95313 0.23438-0.51562 0.10937-1.0625 0.10937-1.0469 0-1.8594-0.35937-0.79688-0.35938-1.3438-0.98438-0.53125-0.625-0.8125-1.4375-0.28125-0.82812-0.28125-1.7344t0.28125-1.7344q0.29687-0.82812 0.85937-1.4688 0.5625-0.64062 1.3906-1 0.82812-0.35937 1.8906-0.35937zm-0.0625 1.6094q-0.78125 0-1.3281 0.45313-0.54688 0.45312-0.79688 1.2344h3.5625q0.0156-0.0469 0.0312-0.125t0.0156-0.1875q0-0.59375-0.42188-0.98437-0.40625-0.39063-1.0625-0.39063zm14.758 2.2656-3.3281 4.9844h-2.3594l4.5469-6.3438-4.2657-5.9688h2.4063l3.1094 4.8125 3.0781-4.8125h2.3594l-4.2969 5.9844 4.5312 6.3281h-2.4062z" fill="#fff"/>
<path d="m920.73 152.16v54.383h-0.0945v54.405" fill-opacity="0"/>
<path d="m920.73 152.16v48.787" fill-rule="evenodd" stroke="#9fc5e8" stroke-linejoin="round" stroke-width="8"/>
<path d="m903.15 200.92 17.505 48.332 17.658-48.277z" fill="#9fc5e8" fill-rule="evenodd" stroke="#9fc5e8" stroke-width="8"/>
<path d="m920.73 152.16v41.929h166.55v66.859" fill-opacity="0"/>
<path d="m920.73 152.16v41.929h166.55v6.8586" fill-rule="evenodd" stroke="#9fc5e8" stroke-linejoin="round" stroke-width="8"/>
<path d="m1069.7 200.95 17.581 48.305 17.582-48.305z" fill="#9fc5e8" fill-rule="evenodd" stroke="#9fc5e8" stroke-width="8"/>
<path d="m213.31 276.81c0-8.7638 7.1044-15.868 15.868-15.868h114.46c4.2085 0 8.2447 1.6718 11.221 4.6477 2.9759 2.9759 4.6477 7.012 4.6477 11.221v63.471c0 8.7638-7.1045 15.868-15.868 15.868h-114.46c-8.7638 0-15.868-7.1044-15.868-15.868z" fill="#e06666" fill-rule="evenodd"/>
<path d="m213.31 276.81c0-8.7638 7.1044-15.868 15.868-15.868h114.46c4.2085 0 8.2447 1.6718 11.221 4.6477 2.9759 2.9759 4.6477 7.012 4.6477 11.221v63.471c0 8.7638-7.1045 15.868-15.868 15.868h-114.46c-8.7638 0-15.868-7.1044-15.868-15.868z" fill-rule="evenodd" stroke="#002050" stroke-linejoin="round"/>
<path d="m276.16 287.89q-0.3125 0-0.625 0t-0.59375-0.0156v4.6406h-2.1406v-12.312q0.28125-0.0156 0.64063-0.0312 0.375-0.0312 0.76562-0.0312 0.40625-0.0156 0.79688-0.0156 0.40625-0.0156 0.76562-0.0156 1.0469 0 1.9062 0.25 0.85938 0.25 1.4688 0.76562 0.60938 0.5 0.9375 1.2344 0.34375 0.73437 0.34375 1.7031 0 0.78125-0.26562 1.4844-0.25 0.6875-0.78125 1.2031-0.51563 0.51563-1.3281 0.82813t-1.8906 0.3125zm-0.0937-5.9844q-0.29688 0-0.57813 0t-0.54687 0.0156v4.1562q0.26562 0.0156 0.54687 0.0156 0.29688 0 0.60938 0 1.0156 0 1.5312-0.54687 0.51562-0.5625 0.51562-1.625 0-0.90625-0.46875-1.4531-0.45312-0.5625-1.6094-0.5625zm9.7549 1.75q1.1406 0 1.9531 0.39063 0.82812 0.375 1.3594 1.0156 0.53125 0.64063 0.78125 1.4688 0.25 0.82813 0.25 1.75 0 0.90625-0.25 1.7188t-0.78125 1.4219q-0.53125 0.60937-1.3438 0.96875-0.8125 0.34375-1.9062 0.34375-1.1406 0-1.9688-0.35938-0.8125-0.375-1.3594-1-0.53125-0.625-0.79691-1.4531-0.26562-0.82813-0.26562-1.7344 0-0.92187 0.26562-1.7344 0.26566-0.82813 0.79691-1.4531t1.3438-0.98437q0.82812-0.35938 1.9219-0.35938zm0.0469 7.5312q0.53125 0 0.9375-0.23437 0.40625-0.23438 0.65625-0.625 0.26562-0.40625 0.375-0.92188 0.125-0.53125 0.125-1.1094 0-0.59375-0.125-1.1406-0.125-0.54687-0.40625-0.96875-0.26563-0.42187-0.67188-0.67187t-0.98437-0.25q-0.54688 0-0.9375 0.23437-0.39063 0.21875-0.64063 0.625-0.25 0.39063-0.375 0.90625-0.125 0.51563-0.125 1.0938 0 0.60938 0.125 1.1562 0.125 0.54688 0.39063 0.98438 0.26562 0.42187 0.67187 0.67187 0.42188 0.25 0.98438 0.25zm9.7892 1.5469q-0.875 0-1.6094-0.34375-0.71875-0.35938-1.2344-0.96875-0.51562-0.625-0.79687-1.4531-0.28125-0.84375-0.28125-1.8438 0-0.875 0.23437-1.6875 0.23438-0.8125 0.71875-1.4219 0.48438-0.60938 1.2031-0.98438t1.7031-0.375q0.90625 0 1.6094 0.29688 0.70312 0.29687 1.1406 0.84375v-6.0938h2.0312v13.812h-1.6406l-0.15625-1.1719h-0.0625q-0.53125 0.57813-1.2031 0.98438-0.65625 0.40625-1.6562 0.40625zm0.26563-1.5469q0.29687 0 0.625-0.0781 0.34375-0.0937 0.65625-0.23438 0.32812-0.15625 0.625-0.35937 0.3125-0.21875 0.51562-0.5v-3.5781q-0.5625-0.6875-1.1406-0.9375-0.57813-0.26562-1.125-0.26562-0.59375 0-1.0312 0.23437-0.42188 0.23438-0.71875 0.65625-0.28125 0.40625-0.42188 0.9375-0.14062 0.53125-0.14062 1.1094 0 0.5625 0.125 1.1094 0.14062 0.54688 0.39062 0.96875 0.26563 0.42188 0.67188 0.6875 0.42187 0.25 0.96875 0.25z" fill="#fff"/>
<path d="m225.52 308.23c0-4.2872 3.4754-7.7626 7.7626-7.7626h39.821c2.0588 0 4.0332 0.81784 5.489 2.2736 1.4558 1.4558 2.2736 3.4302 2.2736 5.489v31.049c0 4.2872-3.4754 7.7626-7.7626 7.7626h-39.821c-4.2872 0-7.7626-3.4755-7.7626-7.7626z" fill="#900" fill-rule="evenodd"/>
<path d="m225.52 308.23c0-4.2872 3.4754-7.7626 7.7626-7.7626h39.821c2.0588 0 4.0332 0.81784 5.489 2.2736 1.4558 1.4558 2.2736 3.4302 2.2736 5.489v31.049c0 4.2872-3.4754 7.7626-7.7626 7.7626h-39.821c-4.2872 0-7.7626-3.4755-7.7626-7.7626z" fill-rule="evenodd" stroke="#002050" stroke-linejoin="round"/>
<path d="m291.99 308.23c0-4.2872 3.4754-7.7626 7.7626-7.7626h39.821c2.0588 0 4.0332 0.81784 5.489 2.2736s2.2736 3.4302 2.2736 5.489v31.049c0 4.2872-3.4754 7.7626-7.7626 7.7626h-39.821c-4.2872 0-7.7626-3.4755-7.7626-7.7626z" fill="#900" fill-rule="evenodd"/>
<path d="m291.99 308.23c0-4.2872 3.4754-7.7626 7.7626-7.7626h39.821c2.0588 0 4.0332 0.81784 5.489 2.2736s2.2736 3.4302 2.2736 5.489v31.049c0 4.2872-3.4754 7.7626-7.7626 7.7626h-39.821c-4.2872 0-7.7626-3.4755-7.7626-7.7626z" fill-rule="evenodd" stroke="#002050" stroke-linejoin="round"/>
<path d="m29.149 276.81c0-8.7638 7.1044-15.868 15.868-15.868h114.46c4.2085 0 8.2447 1.6718 11.221 4.6477 2.9759 2.9759 4.6477 7.012 4.6477 11.221v63.471c0 8.7638-7.1044 15.868-15.868 15.868h-114.46c-8.7638 0-15.868-7.1044-15.868-15.868z" fill="#6fa8dc" fill-rule="evenodd"/>
<path d="m29.149 276.81c0-8.7638 7.1044-15.868 15.868-15.868h114.46c4.2085 0 8.2447 1.6718 11.221 4.6477 2.9759 2.9759 4.6477 7.012 4.6477 11.221v63.471c0 8.7638-7.1044 15.868-15.868 15.868h-114.46c-8.7638 0-15.868-7.1044-15.868-15.868z" fill-rule="evenodd" stroke="#002050" stroke-linejoin="round"/>
<path d="m47.025 280.2q0.25-0.0156 0.76563-0.0312 0.51562-0.0312 1.0938-0.0312 0.57812-0.0156 1.1094-0.0156 0.54688-0.0156 0.84375-0.0156 1.7969 0 2.9688 0.375 1.1719 0.375 1.9375 1.0312 0.98438 0.84375 1.4219 2.1719 0.45312 1.3281 0.45312 2.9375 0 1.2031-0.3125 2.3125-0.29687 1.1094-1.0938 1.9531-0.79687 0.84375-2.1875 1.3438-1.3906 0.48437-3.5469 0.48437-0.78125 0-1.6875-0.0625-0.89063-0.0469-1.7656-0.14062zm3.9688 10.75q2.2656 0 3.2969-1.0781 1.0312-1.0938 1.0312-3.5312 0-1.1094-0.21875-1.9375-0.20313-0.82812-0.73438-1.3906-0.51562-0.5625-1.3906-0.82813-0.875-0.28125-2.1875-0.28125-0.25 0-0.70313 0-0.4375 0-0.92187 0.0156v8.9531q0.53125 0.0312 1.0156 0.0625 0.48438 0.0156 0.8125 0.0156zm12.675-7.2969q1.6406 0 2.5312 0.82813 0.90625 0.82812 0.90625 2.3438 0 0.20312-0.0312 0.4375-0.0312 0.23437-0.0781 0.45312t-0.10937 0.40625q-0.0625 0.17188-0.14063 0.28125h-5.4375q0.0469 0.5625 0.20313 1.0625 0.17187 0.48438 0.48437 0.85938 0.32813 0.35937 0.78125 0.57812 0.45313 0.20313 1.0781 0.20313 0.6875 0 1.4531-0.25 0.78125-0.26563 1.3281-0.65625l0.32812 1.5312q-0.23437 0.14062-0.59375 0.32812-0.35937 0.17188-0.8125 0.32813-0.4375 0.14062-0.95312 0.23437-0.51563 0.10938-1.0625 0.10938-1.0469 0-1.8594-0.35938-0.79687-0.35937-1.3438-0.98437-0.53125-0.625-0.8125-1.4375-0.28125-0.82813-0.28125-1.7344t0.28125-1.7344q0.29688-0.82813 0.85938-1.4688 0.5625-0.64063 1.3906-1 0.82813-0.35938 1.8906-0.35938zm-0.0625 1.6094q-0.78125 0-1.3281 0.45312-0.54687 0.45313-0.79687 1.2344h3.5625q0.0156-0.0469 0.0312-0.125t0.0156-0.1875q0-0.59375-0.42187-0.98438-0.40625-0.39062-1.0625-0.39062zm10.359-1.6094q1.0156 0 1.7344 0.39063 0.73438 0.375 1.2031 1.0156 0.48437 0.625 0.70312 1.4531 0.21875 0.82812 0.21875 1.7344t-0.23437 1.7344q-0.23438 0.8125-0.71875 1.4375-0.48438 0.60937-1.2188 0.96875-0.71875 0.34375-1.7188 0.34375-0.84375 0-1.5625-0.23438-0.71875-0.25-1.1406-0.78125v5.6406h-2.0469v-13.422h1.6406l0.15625 1.1719h0.0781q0.23438-0.29688 0.5625-0.5625 0.34375-0.28125 0.73438-0.46875 0.39063-0.20313 0.79688-0.3125 0.42187-0.10938 0.8125-0.10938zm-0.32813 1.5625q-0.28125 0-0.625 0.0937-0.32812 0.0781-0.65625 0.23438-0.32813 0.15625-0.625 0.39062-0.29688 0.21875-0.5 0.5v3.6406q0.54687 0.6875 1.1406 0.85937 0.59376 0.17188 1.0781 0.17188 0.60938 0 1.0469-0.21875t0.71875-0.59375q0.29687-0.39063 0.4375-0.90625 0.14062-0.51563 0.14062-1.1094 0-0.5625-0.125-1.1094-0.10937-0.54688-0.39062-0.96875-0.26563-0.4375-0.6875-0.70313-0.40625-0.28125-0.95313-0.28125zm8.4461 7.2969h-2.0469v-13.812h2.0469zm6.5069-8.8594q1.1406 0 1.9531 0.39063 0.82813 0.375 1.3594 1.0156 0.53125 0.64063 0.78125 1.4688 0.25 0.82813 0.25 1.75 0 0.90625-0.25 1.7188t-0.78125 1.4219q-0.53125 0.60937-1.3438 0.96875-0.8125 0.34375-1.9062 0.34375-1.1406 0-1.9688-0.35938-0.8125-0.375-1.3594-1-0.53125-0.625-0.79687-1.4531-0.26563-0.82813-0.26563-1.7344 0-0.92187 0.26563-1.7344 0.26562-0.82813 0.79687-1.4531t1.3438-0.98437q0.82813-0.35938 1.9219-0.35938zm0.0469 7.5312q0.53125 0 0.9375-0.23437 0.40625-0.23438 0.65625-0.625 0.26563-0.40625 0.375-0.92188 0.125-0.53125 0.125-1.1094 0-0.59375-0.125-1.1406-0.125-0.54687-0.40625-0.96875-0.26562-0.42187-0.67187-0.67187t-0.98438-0.25q-0.54687 0-0.9375 0.23437-0.39062 0.21875-0.64062 0.625-0.25 0.39063-0.375 0.90625-0.125 0.51563-0.125 1.0938 0 0.60938 0.125 1.1562 0.125 0.54688 0.39062 0.98438 0.26563 0.42187 0.67188 0.67187 0.42187 0.25 0.98437 0.25zm9.9554-1.1562 2.3906-6.0938h1.9688l-3.5312 8.6562q-0.26562 0.65625-0.73437 1.4531-0.45313 0.8125-1.0781 1.5312t-1.4062 1.2188-1.6875 0.5q-0.15625 0-0.23437-0.0156-0.0781-0.0156-0.17188-0.0469l-0.34375-1.6094q0.0469 0.0312 0.125 0.0469 0.0781 0.0156 0.3125 0.0156 0.35938 0 0.70313-0.0781t0.70312-0.29688q0.67188-0.42187 1.1562-1.1875 0.5-0.76562 0.96875-1.8906l-4.2656-8.2969h2.1406zm11.526 2.4844v-5.6719q0-1.5312-1.2031-1.5312-0.3125 0-0.65625 0.10938-0.34375 0.10937-0.67188 0.32812-0.3125 0.21875-0.59375 0.54688-0.26562 0.3125-0.375 0.71875v5.5h-2.0625v-8.5781h1.6094l0.0937 1.2656h0.0781q0.375-0.78125 1.1875-1.1562 0.8125-0.39063 1.7188-0.39063 0.875 0 1.5938 0.34375t1.0781 1.1875q0.375-0.76562 1.1719-1.1406 0.79688-0.39063 1.7188-0.39063 0.59375 0 1.125 0.15625t0.9375 0.51563q0.40625 0.35937 0.625 0.9375 0.23438 0.57812 0.23438 1.4062v5.8438h-2.0469v-5.6719q0-1.5312-1.2188-1.5312-0.29687 0-0.64062 0.10938-0.34375 0.10937-0.67188 0.32812-0.32812 0.21875-0.59375 0.54688-0.26562 0.3125-0.375 0.71875v5.5zm13.922-8.8594q1.6406 0 2.5312 0.82813 0.90625 0.82812 0.90625 2.3438 0 0.20312-0.0312 0.4375-0.0312 0.23437-0.0781 0.45312t-0.10938 0.40625q-0.0625 0.17188-0.14062 0.28125h-5.4376q0.0469 0.5625 0.20312 1.0625 0.17188 0.48438 0.48438 0.85938 0.32812 0.35937 0.78125 0.57812 0.45312 0.20313 1.0781 0.20313 0.6875 0 1.4531-0.25 0.78125-0.26563 1.3281-0.65625l0.32813 1.5312q-0.23438 0.14062-0.59375 0.32812-0.35938 0.17188-0.8125 0.32813-0.4375 0.14062-0.95313 0.23437-0.51562 0.10938-1.0625 0.10938-1.0469 0-1.8594-0.35938-0.79688-0.35937-1.3438-0.98437-0.53125-0.625-0.8125-1.4375-0.28125-0.82813-0.28125-1.7344t0.28125-1.7344q0.29687-0.82813 0.85937-1.4688 0.5625-0.64063 1.3906-1 0.82812-0.35938 1.8906-0.35938zm-0.0625 1.6094q-0.78125 0-1.3281 0.45312-0.54688 0.45313-0.79688 1.2344h3.5625q0.0156-0.0469 0.0312-0.125t0.0156-0.1875q0-0.59375-0.42188-0.98438-0.40625-0.39062-1.0625-0.39062zm11.328 7.25v-5.6719q0-1.5312-1.2969-1.5312-0.32812 0-0.6875 0.10938-0.35937 0.10937-0.70312 0.32812-0.32813 0.21875-0.60938 0.54688-0.26562 0.3125-0.39062 0.71875v5.5h-2.0625v-8.5781h1.6094l0.0937 1.2656h0.0781q0.39062-0.78125 1.2188-1.1562 0.82812-0.39063 1.7812-0.39063 0.60937 0 1.1562 0.15625 0.54687 0.15625 0.95312 0.51563 0.42188 0.35937 0.65625 0.9375 0.25 0.57812 0.25 1.4062v5.8438zm4.8456-7.3281h-1.0625v-1.125l1.2188-0.1875 0.34375-2.5312h1.5625v2.5938h1.6406v1.25h-1.6406v4.9219q0 0.5625 0.10938 0.76562 0.10937 0.1875 0.42187 0.1875 0.25 0 0.48438-0.0937 0.25-0.0937 0.71875-0.35937l0.32812 1.4844q-0.34375 0.29688-1 0.46875-0.64062 0.17188-1.2656 0.17188-0.5625 0-0.9375-0.15625-0.35938-0.14063-0.5625-0.42188-0.20313-0.29687-0.28125-0.70312-0.0781-0.40625-0.0781-0.92188zm8.2207-4.9844h2.4062l3.1406 5.5781 3.0312-5.5781h2.375l-4.3906 7.25v5.0625h-2.1406v-4.9844z" fill="#fff"/>
<path d="m43.516 306.65c0-4.2872 3.4754-7.7626 7.7626-7.7626h101.94c2.0588 0 4.0332 0.81784 5.489 2.2736 1.4558 1.4558 2.2736 3.4302 2.2736 5.489v31.05c0 4.2872-3.4754 7.7626-7.7626 7.7626h-101.94c-4.2872 0-7.7626-3.4754-7.7626-7.7626z" fill="#0b5394" fill-rule="evenodd"/>
<path d="m43.516 306.65c0-4.2872 3.4754-7.7626 7.7626-7.7626h101.94c2.0588 0 4.0332 0.81784 5.489 2.2736 1.4558 1.4558 2.2736 3.4302 2.2736 5.489v31.05c0 4.2872-3.4754 7.7626-7.7626 7.7626h-101.94c-4.2872 0-7.7626-3.4754-7.7626-7.7626z" fill-rule="evenodd" stroke="#002050" stroke-linejoin="round"/>
<path d="m102.25 356.15v91.995h184.16v-91.932" fill-opacity="0"/>
<path d="m102.25 356.15v91.995h184.16v-31.932" fill-rule="evenodd" stroke="#9fc5e8" stroke-linejoin="round" stroke-width="8"/>
<path d="m303.99 416.21-17.582-48.305-17.581 48.305z" fill="#9fc5e8" fill-rule="evenodd" stroke="#9fc5e8" stroke-width="8"/>
<path d="m379.97 276.81c0-8.7638 7.1044-15.868 15.868-15.868h114.46c4.2085 0 8.2446 1.6718 11.221 4.6477 2.9759 2.9759 4.6477 7.012 4.6477 11.221v63.471c0 8.7638-7.1044 15.868-15.868 15.868h-114.46c-8.7638 0-15.868-7.1044-15.868-15.868z" fill="#e06666" fill-rule="evenodd"/>
<path d="m379.97 276.81c0-8.7638 7.1044-15.868 15.868-15.868h114.46c4.2085 0 8.2446 1.6718 11.221 4.6477 2.9759 2.9759 4.6477 7.012 4.6477 11.221v63.471c0 8.7638-7.1044 15.868-15.868 15.868h-114.46c-8.7638 0-15.868-7.1044-15.868-15.868z" fill-rule="evenodd" stroke="#002050" stroke-linejoin="round"/>
<path d="m442.82 287.89q-0.3125 0-0.625 0t-0.59375-0.0156v4.6406h-2.1406v-12.312q0.28125-0.0156 0.64062-0.0312 0.375-0.0312 0.76563-0.0312 0.40625-0.0156 0.79687-0.0156 0.40625-0.0156 0.76563-0.0156 1.0469 0 1.9062 0.25 0.85937 0.25 1.4688 0.76562 0.60937 0.5 0.9375 1.2344 0.34375 0.73437 0.34375 1.7031 0 0.78125-0.26563 1.4844-0.25 0.6875-0.78125 1.2031-0.51562 0.51563-1.3281 0.82813t-1.8906 0.3125zm-0.0937-5.9844q-0.29687 0-0.57812 0t-0.54688 0.0156v4.1562q0.26563 0.0156 0.54688 0.0156 0.29687 0 0.60937 0 1.0156 0 1.5312-0.54687 0.51563-0.5625 0.51563-1.625 0-0.90625-0.46875-1.4531-0.45313-0.5625-1.6094-0.5625zm9.7549 1.75q1.1406 0 1.9531 0.39063 0.82812 0.375 1.3594 1.0156 0.53125 0.64063 0.78125 1.4688 0.25 0.82813 0.25 1.75 0 0.90625-0.25 1.7188t-0.78125 1.4219q-0.53125 0.60937-1.3438 0.96875-0.8125 0.34375-1.9062 0.34375-1.1406 0-1.9688-0.35938-0.8125-0.375-1.3594-1-0.53125-0.625-0.79688-1.4531-0.26562-0.82813-0.26562-1.7344 0-0.92187 0.26562-1.7344 0.26563-0.82813 0.79688-1.4531t1.3438-0.98437q0.82812-0.35938 1.9219-0.35938zm0.0469 7.5312q0.53125 0 0.9375-0.23437 0.40625-0.23438 0.65625-0.625 0.26562-0.40625 0.375-0.92188 0.125-0.53125 0.125-1.1094 0-0.59375-0.125-1.1406-0.125-0.54687-0.40625-0.96875-0.26563-0.42187-0.67188-0.67187t-0.98437-0.25q-0.54688 0-0.9375 0.23437-0.39063 0.21875-0.64063 0.625-0.25 0.39063-0.375 0.90625-0.125 0.51563-0.125 1.0938 0 0.60938 0.125 1.1562 0.125 0.54688 0.39063 0.98438 0.26562 0.42187 0.67187 0.67187 0.42188 0.25 0.98438 0.25zm9.7892 1.5469q-0.875 0-1.6094-0.34375-0.71875-0.35938-1.2344-0.96875-0.51562-0.625-0.79687-1.4531-0.28125-0.84375-0.28125-1.8438 0-0.875 0.23437-1.6875 0.23438-0.8125 0.71875-1.4219 0.48438-0.60938 1.2031-0.98438t1.7031-0.375q0.90625 0 1.6094 0.29688 0.70312 0.29687 1.1406 0.84375v-6.0938h2.0312v13.812h-1.6406l-0.15625-1.1719h-0.0625q-0.53125 0.57813-1.2031 0.98438-0.65625 0.40625-1.6562 0.40625zm0.26563-1.5469q0.29687 0 0.625-0.0781 0.34375-0.0937 0.65625-0.23438 0.32812-0.15625 0.625-0.35937 0.3125-0.21875 0.51562-0.5v-3.5781q-0.5625-0.6875-1.1406-0.9375-0.57813-0.26562-1.125-0.26562-0.59375 0-1.0312 0.23437-0.42188 0.23438-0.71875 0.65625-0.28125 0.40625-0.42188 0.9375-0.14062 0.53125-0.14062 1.1094 0 0.5625 0.125 1.1094 0.14062 0.54688 0.39062 0.96875 0.26563 0.42188 0.67188 0.6875 0.42187 0.25 0.96875 0.25z" fill="#fff"/>
<path d="m392.17 308.23c0-4.2872 3.4754-7.7626 7.7626-7.7626h39.821c2.0588 0 4.0332 0.81784 5.489 2.2736 1.4558 1.4558 2.2736 3.4302 2.2736 5.489v31.049c0 4.2872-3.4754 7.7626-7.7626 7.7626h-39.821c-4.2872 0-7.7626-3.4755-7.7626-7.7626z" fill="#900" fill-rule="evenodd"/>
<path d="m392.17 308.23c0-4.2872 3.4754-7.7626 7.7626-7.7626h39.821c2.0588 0 4.0332 0.81784 5.489 2.2736 1.4558 1.4558 2.2736 3.4302 2.2736 5.489v31.049c0 4.2872-3.4754 7.7626-7.7626 7.7626h-39.821c-4.2872 0-7.7626-3.4755-7.7626-7.7626z" fill-rule="evenodd" stroke="#002050" stroke-linejoin="round"/>
<path d="m458.65 308.23c0-4.2872 3.4755-7.7626 7.7626-7.7626h39.821c2.0588 0 4.0332 0.81784 5.489 2.2736 1.4558 1.4558 2.2736 3.4302 2.2736 5.489v31.049c0 4.2872-3.4754 7.7626-7.7626 7.7626h-39.821c-4.2872 0-7.7626-3.4755-7.7626-7.7626z" fill="#900" fill-rule="evenodd"/>
<path d="m458.65 308.23c0-4.2872 3.4755-7.7626 7.7626-7.7626h39.821c2.0588 0 4.0332 0.81784 5.489 2.2736 1.4558 1.4558 2.2736 3.4302 2.2736 5.489v31.049c0 4.2872-3.4754 7.7626-7.7626 7.7626h-39.821c-4.2872 0-7.7626-3.4755-7.7626-7.7626z" fill-rule="evenodd" stroke="#002050" stroke-linejoin="round"/>
<path d="m102.25 356.15v91.995h350.8v-91.932" fill-opacity="0"/>
<path d="m102.25 356.15v91.995h350.8v-31.932" fill-rule="evenodd" stroke="#9fc5e8" stroke-linejoin="round" stroke-width="8"/>
<path d="m470.63 416.21-17.582-48.305-17.582 48.305z" fill="#9fc5e8" fill-rule="evenodd" stroke="#9fc5e8" stroke-width="8"/>
<path d="m176.19 108.93c0-4.7754 3.8712-8.6466 8.6466-8.6466h203.36c2.2932 0 4.4926 0.91098 6.1141 2.5325 1.6216 1.6216 2.5325 3.8209 2.5325 6.1141v34.586c0 4.7754-3.8712 8.6466-8.6466 8.6466h-203.36c-4.7754 0-8.6466-3.8712-8.6466-8.6466z" fill="#93c47d" fill-rule="evenodd"/>
<path d="m176.19 108.93c0-4.7754 3.8712-8.6466 8.6466-8.6466h203.36c2.2932 0 4.4926 0.91098 6.1141 2.5325 1.6216 1.6216 2.5325 3.8209 2.5325 6.1141v34.586c0 4.7754-3.8712 8.6466-8.6466 8.6466h-203.36c-4.7754 0-8.6466-3.8712-8.6466-8.6466z" fill-rule="evenodd" stroke="#002050" stroke-linejoin="round"/>
<path d="m251.82 120.39q0 0.39063 0.17187 0.67188 0.1875 0.28125 0.5 0.48437 0.32813 0.20313 0.76563 0.39063 0.4375 0.17187 0.96875 0.35937 0.67187 0.23438 1.3281 0.54688 0.67188 0.3125 1.2031 0.76562 0.53125 0.45313 0.85937 1.125 0.34375 0.67188 0.34375 1.625 0 1-0.35937 1.7031-0.35938 0.6875-0.98438 1.1094-0.60937 0.40625-1.4219 0.59375-0.79688 0.1875-1.6562 0.1875-1.2344 0-2.3125-0.29687-1.0625-0.29688-1.8281-0.71875l0.5625-2.0156q0.70313 0.53125 1.5625 0.89063 0.875 0.35937 2 0.35937 1.1875 0 1.7344-0.42187 0.54687-0.42188 0.54687-1.125 0-0.54688-0.26562-0.92188-0.26563-0.39062-0.65625-0.65625-0.39063-0.28125-0.82813-0.4375-0.4375-0.17187-0.76562-0.28125-0.60938-0.1875-1.2344-0.45312-0.60937-0.26563-1.125-0.67188-0.51562-0.42187-0.84375-1.0625-0.32812-0.64062-0.32812-1.5781 0-0.90625 0.29687-1.5156 0.3125-0.625 0.84375-1 0.53125-0.39062 1.25-0.54687 0.71875-0.17188 1.5625-0.17188 1.0312 0 1.9844 0.20313 0.96875 0.20312 1.6094 0.5l-0.5 1.9844q-0.32812-0.21875-0.71875-0.39062-0.39062-0.17188-0.8125-0.28125-0.42187-0.10938-0.84375-0.17188-0.42187-0.0781-0.79687-0.0781-0.84375 0-1.3281 0.32812-0.48437 0.3125-0.48437 0.96875zm12.096 0.48438q1.6406 0 2.5312 0.82812 0.90625 0.82813 0.90625 2.3438 0 0.20313-0.0312 0.4375-0.0312 0.23438-0.0781 0.45313t-0.10937 0.40625q-0.0625 0.17187-0.14063 0.28125h-5.4375q0.0469 0.5625 0.20313 1.0625 0.17187 0.48437 0.48437 0.85937 0.32813 0.35938 0.78125 0.57813 0.45313 0.20312 1.0781 0.20312 0.6875 0 1.4531-0.25 0.78125-0.26562 1.3281-0.65625l0.32812 1.5312q-0.23437 0.14063-0.59375 0.32813-0.35937 0.17187-0.8125 0.32812-0.4375 0.14063-0.95312 0.23438-0.51563 0.10937-1.0625 0.10937-1.0469 0-1.8594-0.35937-0.79687-0.35938-1.3438-0.98438-0.53125-0.625-0.8125-1.4375-0.28125-0.82812-0.28125-1.7344t0.28125-1.7344q0.29688-0.82812 0.85938-1.4688 0.5625-0.64062 1.3906-1 0.82813-0.35937 1.8906-0.35937zm-0.0625 1.6094q-0.78125 0-1.3281 0.45313-0.54687 0.45312-0.79687 1.2344h3.5625q0.0156-0.0469 0.0312-0.125t0.0156-0.1875q0-0.59375-0.42187-0.98437-0.40625-0.39063-1.0625-0.39063zm10.484 0.53125q-0.1875-0.14062-0.57813-0.23437-0.39062-0.0937-0.67187-0.0937-0.35938 0-0.60938 0.17187-0.25 0.17188-0.4375 0.46875-0.17187 0.28125-0.3125 0.65625-0.125 0.375-0.23437 0.76563v4.9844h-2.0625v-8.5781h1.6094l0.0937 1.7812h0.0781q0.1875-0.39063 0.39062-0.75 0.20313-0.375 0.45313-0.65625 0.26562-0.29688 0.60937-0.46875 0.35938-0.1875 0.8125-0.1875 0.75 0 1.4062 0.48437zm6.8837 6.7188h-2.4688l-3.4375-8.5781h2.1406l2.5938 6.875 2.7031-6.875h2.0156zm7.0259 0h-2.0625v-8.5781h2.0625zm-2.3594-11.344q0-0.26562 0.0937-0.5 0.10937-0.25 0.29687-0.4375 0.1875-0.20312 0.42188-0.3125 0.23437-0.10937 0.51562-0.10937 0.26563 0 0.5 0.10937 0.25 0.10938 0.4375 0.3125 0.20313 0.1875 0.3125 0.4375 0.10938 0.23438 0.10938 0.5 0 0.28125-0.10938 0.51563-0.10937 0.23437-0.3125 0.42187-0.1875 0.1875-0.4375 0.29688-0.23437 0.0937-0.5 0.0937-0.54687 0-0.9375-0.39063-0.39062-0.39062-0.39062-0.9375zm11.549 4.8906q-0.20312-0.15625-0.51562-0.29688-0.29688-0.15625-0.65625-0.26562-0.35938-0.10938-0.75-0.17188-0.375-0.0625-0.70313-0.0625-0.64062 0-1.0781 0.23438-0.4375 0.21875-0.70313 0.60937-0.26562 0.375-0.39062 0.89063-0.125 0.5-0.125 1.0312 0 0.64062 0.14062 1.1875 0.15625 0.54687 0.45313 0.96875 0.29687 0.40625 0.75 0.65625 0.46875 0.23437 1.0625 0.23437 0.67187 0 1.4219-0.26562 0.76563-0.28125 1.2656-0.76563l0.375 1.7656q-0.53125 0.32812-1.4375 0.625-0.89063 0.29687-1.9219 0.29687-1.0781 0-1.8906-0.35937-0.8125-0.375-1.3438-1t-0.8125-1.4531q-0.26563-0.84375-0.26563-1.7656 0-0.90625 0.25-1.7188t0.79688-1.4375q0.54687-0.625 1.375-0.98438 0.84375-0.35937 2.0156-0.35937 0.90625 0 1.75 0.20312 0.85938 0.20313 1.3906 0.54688zm6.2735-2.4062q1.6406 0 2.5312 0.82812 0.90625 0.82813 0.90625 2.3438 0 0.20313-0.0312 0.4375-0.0312 0.23438-0.0781 0.45313t-0.10938 0.40625q-0.0625 0.17187-0.14062 0.28125h-5.4375q0.0469 0.5625 0.20312 1.0625 0.17188 0.48437 0.48438 0.85937 0.32812 0.35938 0.78125 0.57813 0.45312 0.20312 1.0781 0.20312 0.6875 0 1.4531-0.25 0.78125-0.26562 1.3281-0.65625l0.32813 1.5312q-0.23438 0.14063-0.59375 0.32813-0.35938 0.17187-0.8125 0.32812-0.4375 0.14063-0.95313 0.23438-0.51562 0.10937-1.0625 0.10937-1.0469 0-1.8594-0.35937-0.79688-0.35938-1.3438-0.98438-0.53125-0.625-0.8125-1.4375-0.28125-0.82812-0.28125-1.7344t0.28125-1.7344q0.29687-0.82812 0.85937-1.4688 0.5625-0.64062 1.3906-1 0.82812-0.35937 1.8906-0.35937zm-0.0625 1.6094q-0.78125 0-1.3281 0.45313-0.54688 0.45312-0.79688 1.2344h3.5625q0.0156-0.0469 0.0312-0.125t0.0156-0.1875q0-0.59375-0.42188-0.98437-0.40625-0.39063-1.0625-0.39063zm14.758 2.2656-3.3281 4.9844h-2.3594l4.5469-6.3438-4.2656-5.9688h2.4062l3.1094 4.8125 3.0781-4.8125h2.3594l-4.2969 5.9844 4.5312 6.3281h-2.4062z" fill="#fff"/>
<path d="m286.51 152.16v54.392h-0.0945v54.396" fill-opacity="0"/>
<path d="m286.51 152.16v48.787" fill-rule="evenodd" stroke="#9fc5e8" stroke-linejoin="round" stroke-width="8"/>
<path d="m268.93 200.92 17.505 48.332 17.658-48.277z" fill="#9fc5e8" fill-rule="evenodd" stroke="#9fc5e8" stroke-width="8"/>
<path d="m286.51 152.16v37.089h166.55v71.699" fill-opacity="0"/>
<path d="m286.51 152.16v37.089h166.55v11.699" fill-rule="evenodd" stroke="#9fc5e8" stroke-linejoin="round" stroke-width="8"/>
<path d="m435.48 200.95 17.582 48.305 17.581-48.305z" fill="#9fc5e8" fill-rule="evenodd" stroke="#9fc5e8" stroke-width="8"/>
<path d="m634.43 35.844c0-18.692 15.152-33.844 33.844-33.844h487.21c8.976 0 17.584 3.5657 23.931 9.9127 6.347 6.347 9.9127 14.955 9.9127 23.931v419.14c0 18.692-15.152 33.844-33.844 33.844h-487.21c-18.692 0-33.844-15.152-33.844-33.844z" fill-opacity="0"/>
<path d="m634.43 35.844c0-18.692 15.152-33.844 33.844-33.844h487.21c8.976 0 17.584 3.5657 23.931 9.9127 6.347 6.347 9.9127 14.955 9.9127 23.931v419.14c0 18.692-15.152 33.844-33.844 33.844h-487.21c-18.692 0-33.844-15.152-33.844-33.844z" fill-rule="evenodd" stroke="#ff0" stroke-linejoin="round" stroke-width="4"/>
<path d="m852.83 40.132v-11.875h2.8125v16.156h-3.4531l-7.0938-11.844v11.844h-2.8125v-16.156h3.4531zm13.29 4.2812-0.20313-1.5469h-0.0937q-0.67187 0.84375-1.8125 1.3438-1.125 0.5-2.2969 0.5-1.5469 0-2.4375-0.89062-0.875-0.90625-0.875-2.3594 0-1.0156 0.42187-1.7969 0.4375-0.79688 1.2344-1.3438 0.8125-0.5625 1.9375-0.85938 1.125-0.29687 2.5312-0.29687h1.0469v-0.35938q0-0.95312-0.60937-1.3906-0.64063-0.4375-1.9844-0.4375-1.8125 0-3.2344 0.79687l-0.51563-2.0312q1.6406-0.95312 3.9688-0.95312 2.4531 0 3.7188 1 0.59375 0.46875 0.96875 1.2031 0.375 0.73438 0.375 1.7656v7.6562zm-3.3594-1.8906q0.78125 0 1.5625-0.375t1.25-1.0156v-2.2188h-0.46875q-2 0-2.9219 0.51562-0.92188 0.5-0.92188 1.625 0 1.4688 1.5 1.4688zm16.056 1.8906v-7.4375q0-2-1.5938-2-0.39062 0-0.84375 0.14062-0.45312 0.14063-0.89062 0.42188-0.42188 0.28125-0.78125 0.70312-0.34375 0.42188-0.5 0.95313v7.2188h-2.6875v-11.25h2.1094l0.125 1.6562h0.0937q0.48438-1.0312 1.5469-1.5312t2.2656-0.5q1.1562 0 2.0938 0.45312 0.9375 0.45313 1.4062 1.5625 0.48438-1.0156 1.5312-1.5156 1.0625-0.5 2.2656-0.5 0.78125 0 1.4688 0.21875 0.70312 0.20312 1.2188 0.67187 0.53125 0.45313 0.84375 1.2188 0.3125 0.75 0.3125 1.8594v7.6562h-2.7031v-7.4375q0-2-1.5781-2-0.39063 0-0.84375 0.14062-0.45313 0.14063-0.89063 0.42188-0.42187 0.28125-0.78125 0.70312-0.35937 0.42188-0.5 0.95313v7.2188zm18.244-11.625q2.1562 0 3.3281 1.0938 1.1719 1.0938 1.1719 3.0625 0 0.28125-0.0312 0.59375-0.0312 0.29687-0.0937 0.59375-0.0625 0.28125-0.15625 0.51562-0.0781 0.23438-0.17188 0.375h-7.125q0.0469 0.73438 0.26563 1.3906 0.21875 0.64062 0.64062 1.125 0.42188 0.48437 1.0156 0.76562t1.4062 0.28125q0.90625 0 1.9219-0.34375 1.0156-0.34375 1.7188-0.85937l0.45313 2q-0.32813 0.20312-0.79688 0.4375-0.45312 0.23437-1.0469 0.4375-0.59375 0.1875-1.2656 0.3125-0.67187 0.14062-1.4062 0.14062-1.3594 0-2.4219-0.46875-1.0469-0.48437-1.7656-1.2969-0.70312-0.82813-1.0781-1.9062-0.35938-1.0781-0.35938-2.25 0-1.2031 0.375-2.2812 0.39063-1.0938 1.125-1.9219 0.73438-0.84375 1.8125-1.3125 1.0938-0.48437 2.4844-0.48437zm-0.0625 2.1094q-1.0312 0-1.7656 0.60938-0.71875 0.59375-1.0312 1.6094h4.6719q0.0312-0.0625 0.0312-0.15625 0.0156-0.10937 0.0156-0.25 0-0.78125-0.54687-1.2969-0.53125-0.51563-1.375-0.51563zm10.732-0.0937q-0.79688 0-1.25 0.3125-0.45313 0.29688-0.45313 0.85938 0 0.35937 0.25 0.67187 0.26563 0.29688 1.0938 0.5l1.7344 0.39063q1.0312 0.21875 1.6562 0.64062 0.625 0.40625 0.96875 0.90625 0.35937 0.48438 0.48437 1 0.125 0.51563 0.125 0.95313 0 0.78125-0.32812 1.4531-0.3125 0.67188-0.90625 1.1719-0.57813 0.48437-1.4219 0.76562-0.82812 0.28125-1.8438 0.28125-1.2969 0-2.4062-0.375-1.0938-0.39062-1.7656-0.85937l0.64062-2.3125q0.82813 0.79687 1.8594 1.2031 1.0469 0.39063 1.9375 0.39063 0.92187 0 1.4062-0.40625 0.5-0.40625 0.5-1.125 0-0.40625-0.25-0.6875-0.23438-0.28125-0.96875-0.48438l-2.3594-0.57812q-0.82812-0.20313-1.3594-0.5625-0.51563-0.375-0.82813-0.82813-0.29687-0.45312-0.42187-0.9375-0.10938-0.48437-0.10938-0.9375 0-1.6406 1.1562-2.5312 1.1562-0.89062 2.9844-0.89062 0.95312 0 2.0469 0.26562 1.1094 0.25 1.875 0.73438l-0.71875 2.2031q-0.48437-0.39062-1.375-0.78125-0.875-0.40625-1.9531-0.40625zm13.439-2.0156q1.3281 0 2.2812 0.5 0.95312 0.5 1.5781 1.3438 0.625 0.82812 0.90625 1.9219 0.29688 1.0781 0.29688 2.25 0 1.2031-0.3125 2.2812-0.29688 1.0781-0.9375 1.8906-0.625 0.79687-1.5938 1.2656-0.95313 0.46875-2.2656 0.46875-1.1094 0-2.0469-0.3125-0.9375-0.32812-1.5-1.0312v7.4062h-2.6719v-17.609h2.1562l0.1875 1.5312h0.10938q0.3125-0.39063 0.75-0.73438 0.4375-0.35937 0.95312-0.60937 0.51563-0.26563 1.0469-0.40625 0.54687-0.15625 1.0625-0.15625zm-0.4375 2.0625q-0.375 0-0.8125 0.10937-0.4375 0.10938-0.875 0.3125-0.42188 0.20313-0.8125 0.5-0.39063 0.29688-0.65625 0.65625v4.7812q0.73437 0.90625 1.5 1.1406 0.76562 0.23437 1.4062 0.23437 0.8125 0 1.375-0.29687 0.57812-0.29688 0.95312-0.79688 0.39063-0.5 0.5625-1.1719 0.1875-0.67188 0.1875-1.4531 0-0.73437-0.15625-1.4531-0.15625-0.73438-0.51562-1.2969-0.34375-0.5625-0.89063-0.90625-0.53125-0.35937-1.2656-0.35937zm15.101 9.5625-0.20313-1.5469h-0.0937q-0.67187 0.84375-1.8125 1.3438-1.125 0.5-2.2969 0.5-1.5469 0-2.4375-0.89062-0.875-0.90625-0.875-2.3594 0-1.0156 0.42187-1.7969 0.4375-0.79688 1.2344-1.3438 0.8125-0.5625 1.9375-0.85938 1.125-0.29687 2.5312-0.29687h1.0469v-0.35938q0-0.95312-0.60937-1.3906-0.64063-0.4375-1.9844-0.4375-1.8125 0-3.2344 0.79687l-0.51563-2.0312q1.6406-0.95312 3.9688-0.95312 2.4531 0 3.7188 1 0.59375 0.46875 0.96875 1.2031 0.375 0.73438 0.375 1.7656v7.6562zm-3.3594-1.8906q0.78125 0 1.5625-0.375t1.25-1.0156v-2.2188h-0.46875q-2 0-2.9219 0.51562-0.92188 0.5-0.92188 1.625 0 1.4688 1.5 1.4688zm17.446-6.5781q-0.2656-0.1875-0.6718-0.375-0.4063-0.20313-0.875-0.34375-0.4532-0.15625-0.9688-0.23438-0.5-0.0937-0.9375-0.0937-0.8281 0-1.4062 0.3125-0.57817 0.29688-0.93754 0.79688-0.34375 0.5-0.5 1.1719-0.15625 0.65625-0.15625 1.3594 0 0.82812 0.1875 1.5625 0.20312 0.71875 0.59375 1.2656 0.39062 0.53125 0.98434 0.84375 0.5938 0.3125 1.3907 0.3125 0.875 0 1.8593-0.34375 1-0.35937 1.6563-1l0.4844 2.2969q-0.6719 0.45312-1.8594 0.84375-1.1875 0.39062-2.5313 0.39062-1.4218 0-2.5-0.48437-1.0625-0.5-1.7656-1.3125-0.6875-0.82813-1.0469-1.9062-0.34375-1.0938-0.34375-2.3125 0-1.1875 0.32813-2.25 0.32812-1.0625 1.0312-1.875 0.71875-0.82813 1.8125-1.2969 1.1093-0.48437 2.6406-0.48437 1.1875 0 2.3125 0.28125 1.125 0.26562 1.8125 0.70312zm8.2157-3.1562q2.1563 0 3.3282 1.0938 1.1718 1.0938 1.1718 3.0625 0 0.28125-0.031 0.59375-0.031 0.29687-0.094 0.59375-0.062 0.28125-0.1562 0.51562-0.078 0.23438-0.1719 0.375h-7.125q0.047 0.73438 0.2656 1.3906 0.2188 0.64062 0.6407 1.125 0.4218 0.48437 1.0156 0.76562 0.5937 0.28125 1.4062 0.28125 0.9063 0 1.9219-0.34375t1.7188-0.85937l0.4531 2q-0.3281 0.20312-0.7969 0.4375-0.4531 0.23437-1.0469 0.4375-0.5937 0.1875-1.2656 0.3125-0.6719 0.14062-1.4062 0.14062-1.3594 0-2.4219-0.46875-1.0469-0.48437-1.7656-1.2969-0.7032-0.82813-1.0782-1.9062-0.3593-1.0781-0.3593-2.25 0-1.2031 0.375-2.2812 0.3906-1.0938 1.125-1.9219 0.7343-0.84375 1.8125-1.3125 1.0937-0.48437 2.4843-0.48437zm-0.062 2.1094q-1.0312 0-1.7656 0.60938-0.7187 0.59375-1.0312 1.6094h4.6718q0.031-0.0625 0.031-0.15625 0.016-0.10937 0.016-0.25 0-0.78125-0.5469-1.2969-0.5312-0.51563-1.375-0.51563zm23.07-2.5469q0 0.98437-0.4062 1.7812-0.4063 0.78125-1.2656 1.3438 1.4687 0.5 2.2968 1.5469 0.8438 1.0469 0.8438 2.6719 0 1.0312-0.375 1.9375-0.3594 0.89062-1.125 1.5781-0.75 0.6875-1.875 1.0938t-2.6406 0.40625q-1.3594 0-2.625-0.0937-1.2657-0.0781-2.125-0.20312v-16.156q0.2656-0.0156 0.75-0.0312 0.5-0.0156 1.0625-0.0312 0.5625-0.0312 1.125-0.0312 0.5625-0.0156 1-0.0156 2.5937 0 3.9687 1.0625 1.3906 1.0625 1.3906 3.1406zm-4.6718 4.4531q-0.4688 0-0.9375 0.0156-0.4532 0.0156-0.875 0.0312v5.4531q0.4375 0.0469 0.9062 0.0469 0.4688 0 0.9531 0 1.4844 0 2.3125-0.73438 0.8438-0.73437 0.8438-2.125 0-1.25-0.7656-1.9688-0.75-0.71875-2.4375-0.71875zm-0.2188-6.3594q-0.5 0-0.875 0.0469-0.375 0.0312-0.7187 0.0781v4.1719q0.2968 0.0312 0.5937 0.0312 0.3125 0 0.625 0 1.0781 0 1.6875-0.71875t0.6094-1.9062q0-0.73437-0.5-1.2188-0.5-0.48437-1.4219-0.48437z" fill="#fff"/>
</svg>
