<?xml version="1.0" encoding="UTF-8"?>
<svg fill="none" stroke-linecap="square" stroke-miterlimit="10" version="1.1" viewBox="0 0 760.62 542.15" xmlns="http://www.w3.org/2000/svg">
<path d="m2 41.089c0-21.588 17.501-39.089 39.089-39.089h274.83c10.367 0 20.31 4.1183 27.64 11.449 7.3307 7.3307 11.449 17.273 11.449 27.64v156.35c0 21.588-17.501 39.089-39.089 39.089h-274.83c-21.588 0-39.089-17.501-39.089-39.089z" fill-opacity="0"/>
<path d="m2 41.089c0-21.588 17.501-39.089 39.089-39.089h274.83c10.367 0 20.31 4.1183 27.64 11.449 7.3307 7.3307 11.449 17.273 11.449 27.64v156.35c0 21.588-17.501 39.089-39.089 39.089h-274.83c-21.588 0-39.089-17.501-39.089-39.089z" fill-rule="evenodd" stroke="#fff" stroke-dasharray="4, 12" stroke-linejoin="round" stroke-width="4"/>
<path d="m69.747 81.595c0-10.403 8.4331-18.836 18.836-18.836h179.85c4.9955 0 9.7866 1.9845 13.319 5.5169 3.5323 3.5324 5.5168 8.3234 5.5168 13.319v75.341c0 10.403-8.433 18.836-18.836 18.836h-179.85c-10.403 0-18.836-8.4331-18.836-18.836z" fill="#8ea7c8" fill-rule="evenodd"/>
<path d="m118.43 93.456-5.9531 17.469h-3.0469l-8.3125-21.125h2.7188l7.1094 18.078 6.1719-18.078h2.7188l6.5625 18.016 6.4375-18.016h2.5469l-7.5156 21.125h-3.0312zm25.029 2.2656q2.8125 0 4.3438 1.4219 1.5312 1.4219 1.5312 4.0156 0 0.54688-0.0625 1.1094t-0.21875 0.8125h-10.781v0.32812q0 1.2188 0.3125 2.3438 0.32813 1.1094 0.96875 1.9688 0.64063 0.85938 1.6094 1.375 0.98437 0.51563 2.3281 0.51563 0.76563 0 1.5-0.17188 0.73438-0.17187 1.4062-0.4375 0.67188-0.28125 1.25-0.59375 0.57813-0.32812 1.0156-0.65625l0.39062 1.8281q-0.42187 0.25-1.0312 0.5625-0.59375 0.29687-1.3438 0.5625-0.73437 0.25-1.6094 0.42187-0.875 0.1875-1.8438 0.1875-1.7812 0-3.1719-0.625-1.375-0.625-2.2969-1.7031-0.92188-1.0781-1.4062-2.4844-0.48438-1.4062-0.48438-2.9375 0-1.5625 0.5-2.9844 0.5-1.4375 1.4531-2.5156 0.96875-1.0938 2.3906-1.7188 1.4219-0.625 3.25-0.625zm-0.10937 1.7969q-2.1094 0-3.2812 1.1094-1.1562 1.0938-1.5781 2.7656h8.7344q0.0312-0.17188 0.0312-0.29688t0-0.28125q0-0.79687-0.32813-1.4219-0.3125-0.625-0.85937-1.0312-0.53125-0.42188-1.2344-0.625-0.70312-0.21875-1.4844-0.21875zm17.966 13.797q-2.0469 0-3.5312-0.90625-1.4688-0.92188-2.2344-2.1094h-0.125l-0.26563 2.625h-1.75v-23.688h2.2344v11.719q0.42187-1.375 1.8281-2.2969 1.4062-0.9375 3.4844-0.9375 1.7031 0 2.9688 0.64063 1.2812 0.64062 2.125 1.7188 0.85937 1.0625 1.2812 2.5156 0.4375 1.4375 0.4375 3 0 1.5312-0.40625 2.9219-0.39063 1.3906-1.1875 2.4531-0.79688 1.0625-2.0156 1.7031-1.2188 0.64062-2.8438 0.64062zm-0.26562-1.8906q1.2188 0 2.0469-0.51562 0.84375-0.51563 1.3438-1.3281 0.51563-0.81251 0.73438-1.8281 0.23437-1.0312 0.23437-2.0625 0-1.3438-0.34375-2.4531-0.32812-1.125-0.9375-1.9219-0.60937-0.8125-1.5156-1.25-0.89063-0.45312-1.9688-0.45312-1.7031 0-3.0625 1.0312-1.3594 1.0156-1.9375 2.8438v4.7031q0.92187 1.5313 2.3906 2.3906 1.4844 0.84375 3.0156 0.84375zm15.072-11.906q-1.5312 0-2.2188 0.5625t-0.6875 1.5156q0 0.3125 0.0937 0.67188 0.0937 0.35937 0.35937 0.65625 0.28125 0.29687 0.73438 0.57812 0.46875 0.26563 1.25 0.4375l2.2656 0.5q1.3438 0.29688 2.1562 0.79688 0.8125 0.48437 1.2656 1.0625 0.45312 0.57812 0.59375 1.1719 0.14062 0.59375 0.14062 1.0938 0 1-0.40625 1.875-0.39062 0.85938-1.1406 1.5-0.75 0.625-1.8438 1t-2.4375 0.375q-1.6875 0-3.125-0.5t-2.3125-1.1094l0.57812-2.0781q1.1562 1.0625 2.5625 1.5469 1.4062 0.46875 2.5312 0.46875 1.5938 0 2.4219-0.78125 0.84375-0.78125 0.84375-1.6562 0-0.28127-0.0312-0.64064-0.0312-0.375-0.26563-0.75-0.21875-0.39063-0.67187-0.71875-0.4375-0.34375-1.2812-0.54688l-3.0625-0.76562q-1.0625-0.25-1.7344-0.65625-0.67187-0.42188-1.0625-0.92188-0.375-0.5-0.54687-1.0625-0.15625-0.5625-0.15625-1.125 0-1.9531 1.4531-3.125 1.4688-1.1719 3.8906-1.1719 1.25 0 2.6875 0.34375 1.4531 0.32812 2.4375 0.96875l-0.60938 1.9219q-0.64062-0.54687-1.9062-0.98437-1.2656-0.45313-2.7656-0.45313zm16.393-1.7969q2.8125 0 4.3438 1.4219 1.5312 1.4219 1.5312 4.0156 0 0.54688-0.0625 1.1094t-0.21875 0.8125h-10.781v0.32812q0 1.2188 0.3125 2.3438 0.32812 1.1094 0.96875 1.9688 0.64062 0.85938 1.6094 1.375 0.98438 0.51563 2.3281 0.51563 0.76562 0 1.5-0.17188 0.73437-0.17187 1.4062-0.4375 0.67187-0.28125 1.25-0.59375 0.57812-0.32812 1.0156-0.65625l0.39063 1.8281q-0.42188 0.25-1.0312 0.5625-0.59375 0.29687-1.3438 0.5625-0.73438 0.25-1.6094 0.42187-0.875 0.1875-1.8438 0.1875-1.7812 0-3.1719-0.625-1.375-0.625-2.2969-1.7031-0.92187-1.0781-1.4062-2.4844-0.48437-1.4062-0.48437-2.9375 0-1.5625 0.5-2.9844 0.5-1.4375 1.4531-2.5156 0.96875-1.0938 2.3906-1.7188 1.4219-0.625 3.25-0.625zm-0.10938 1.7969q-2.1094 0-3.2812 1.1094-1.1562 1.0938-1.5781 2.7656h8.7344q0.0312-0.17188 0.0312-0.29688t0-0.28125q0-0.79687-0.32812-1.4219-0.3125-0.625-0.85938-1.0312-0.53125-0.42188-1.2344-0.625-0.70313-0.21875-1.4844-0.21875zm17.997 1.0469q-0.51562-0.28125-1.0312-0.45312-0.51562-0.17188-0.98437-0.17188-0.64063 0-1.2188 0.35938-0.57813 0.34375-1.0625 0.95312-0.48438 0.59375-0.85938 1.4062-0.35937 0.79688-0.54687 1.6562v8.6094h-2.2344v-14.719h1.75l0.26563 3.2344h0.125q0.21875-0.73437 0.57812-1.4062 0.375-0.67187 0.90625-1.1875 0.53125-0.51562 1.2031-0.8125 0.67187-0.3125 1.5312-0.3125 0.60937 0 1.2812 0.21875 0.67187 0.20313 0.96875 0.51563zm10.752 12.359h-2.8594l-6.6875-14.719h2.4375l5.7344 12.609 5.7188-12.609h2.3438zm15.84-15.203q2.8125 0 4.3438 1.4219 1.5312 1.4219 1.5312 4.0156 0 0.54688-0.0625 1.1094t-0.21875 0.8125h-10.781v0.32812q0 1.2188 0.3125 2.3438 0.32812 1.1094 0.96875 1.9688 0.64062 0.85938 1.6094 1.375 0.98438 0.51563 2.3281 0.51563 0.76562 0 1.5-0.17188 0.73437-0.17187 1.4062-0.4375 0.67187-0.28125 1.25-0.59375 0.57812-0.32812 1.0156-0.65625l0.39063 1.8281q-0.42188 0.25-1.0312 0.5625-0.59375 0.29687-1.3438 0.5625-0.73438 0.25-1.6094 0.42187-0.875 0.1875-1.8438 0.1875-1.7812 0-3.1719-0.625-1.375-0.625-2.2969-1.7031-0.92187-1.0781-1.4062-2.4844-0.48437-1.4062-0.48437-2.9375 0-1.5625 0.5-2.9844 0.5-1.4375 1.4531-2.5156 0.96875-1.0938 2.3906-1.7188 1.4219-0.625 3.25-0.625zm-0.10938 1.7969q-2.1094 0-3.2812 1.1094-1.1562 1.0938-1.5781 2.7656h8.7344q0.0312-0.17188 0.0312-0.29688t0-0.28125q0-0.79687-0.32812-1.4219-0.3125-0.625-0.85938-1.0312-0.53125-0.42188-1.2344-0.625-0.70313-0.21875-1.4844-0.21875zm17.997 1.0469q-0.51563-0.28125-1.0312-0.45312-0.51563-0.17188-0.98438-0.17188-0.64062 0-1.2188 0.35938-0.57812 0.34375-1.0625 0.95312-0.48437 0.59375-0.85937 1.4062-0.35938 0.79688-0.54688 1.6562v8.6094h-2.2344v-14.719h1.75l0.26562 3.2344h0.125q0.21875-0.73437 0.57813-1.4062 0.375-0.67187 0.90625-1.1875 0.53125-0.51562 1.2031-0.8125 0.67188-0.3125 1.5312-0.3125 0.60938 0 1.2812 0.21875 0.67188 0.20313 0.96875 0.51563z" fill="#fff"/>
<path d="m129.57 128.33q-1.0156-0.67188-2.5312-1.125-1.5-0.45313-3.4219-0.45313-2.1406 0-3.6094 0.625t-2.3906 1.75q-0.90625 1.1094-1.3125 2.7031-0.39062 1.5781-0.39062 3.5 0 4.3906 1.9062 6.625 1.9219 2.2344 5.7344 2.2344 2.0156 0 3.7031-0.5625 1.7031-0.57812 2.7344-1.4219l0.64063 2.1562q-1.2812 0.76562-3.0938 1.3594t-4.0781 0.59375q-2.625 0-4.5469-0.85937-1.9219-0.875-3.1875-2.3438-1.25-1.4688-1.8594-3.4062-0.60937-1.9375-0.60937-4.125 0-2.2656 0.67187-4.25 0.67188-1.9844 2-3.4688 1.3281-1.4844 3.2969-2.3438 1.9688-0.875 4.5938-0.875 1.7188 0 3.4375 0.375 1.7344 0.35937 2.9844 1zm10.973 2.3906q1.9531 0 3.3594 0.65625 1.4219 0.65625 2.3281 1.7656 0.90625 1.0938 1.3438 2.5312 0.4375 1.4219 0.4375 2.9844t-0.4375 2.9688q-0.4375 1.3906-1.3281 2.4375-0.89063 1.0312-2.2969 1.6406-1.3906 0.60937-3.2656 0.60937-1.9531 0-3.3906-0.64062-1.4219-0.64063-2.3438-1.7188-0.92187-1.0781-1.375-2.4844-0.45312-1.4062-0.45312-2.9688t0.45312-2.9688q0.45313-1.4219 1.3594-2.4844 0.90625-1.0781 2.3125-1.7031 1.4219-0.625 3.2969-0.625zm0.10938 13.891q1.2812 0 2.2188-0.46875 0.9375-0.48438 1.5625-1.2969 0.625-0.82812 0.90625-1.8906 0.29687-1.0781 0.29687-2.2656 0-1.2188-0.3125-2.3281-0.29687-1.125-0.9375-1.9688-0.64062-0.85938-1.625-1.3594-0.96875-0.51562-2.3125-0.51562-1.3125 0-2.2344 0.48437-0.92188 0.46875-1.5312 1.2812-0.60938 0.79688-0.90625 1.875-0.28125 1.0625-0.28125 2.25 0 1.2188 0.29687 2.3438 0.3125 1.1094 0.9375 1.9688 0.625 0.85938 1.5938 1.375 0.98438 0.51563 2.3281 0.51563zm21.718 1.3125v-9.7344q0-1.9062-0.85937-2.7344-0.85938-0.84375-2.2031-0.84375-0.8125 0-1.5938 0.26562-0.78125 0.25-1.4531 0.75-0.67188 0.48438-1.1875 1.2031-0.5 0.71875-0.79688 1.6562v9.4375h-2.2344v-14.719h1.75l0.26562 2.75h0.125q0.42188-1.3438 1.8594-2.2812 1.4375-0.95313 3.5781-0.95313 1.0312 0 1.9375 0.28125 0.90625 0.26563 1.5781 0.875 0.67187 0.60938 1.0781 1.6094 0.40625 0.98437 0.40625 2.4219v10.016zm7.7838-13.219h-2.4688v-1.1875l2.5312-0.3125 0.48438-4.4531h1.6875v4.4531h3.4531v1.5h-3.4531v10.203q0 1.0312 0.29687 1.3594 0.3125 0.3125 0.95313 0.3125 0.73437 0 1.3125-0.21875 0.57812-0.23438 1.0156-0.54688l0.45313 1.6875q-0.54688 0.26563-1.4219 0.51563-0.875 0.26562-1.9375 0.26562-1.0156 0-1.5938-0.29687-0.57812-0.28125-0.875-0.76563-0.28125-0.48437-0.35937-1.0781-0.0781-0.59375-0.0781-1.1562zm18.688 13.219-0.26562-2.625h-0.125q-0.375 0.60937-1.0156 1.1562-0.64062 0.54687-1.4375 0.96875-0.78125 0.40625-1.6875 0.64062-0.90625 0.25-1.8125 0.25-2.1094 0-3.1719-1.2344-1.0469-1.2344-1.0469-3.0938 0-1.8281 0.92188-2.9062 0.9375-1.0938 2.2812-1.6406 1.3438-0.54687 2.8281-0.70312 1.4844-0.15625 2.6094-0.15625h1.4375v-0.39063q0-1.2031-0.34375-1.8438-0.32813-0.64062-0.96875-1.0938-0.54688-0.35937-1.1719-0.5-0.625-0.14062-1.6406-0.14062-1.3438 0-2.375 0.35937-1.0156 0.34375-1.9844 0.92188l-0.5-1.9219q2.1406-1.25 5.1094-1.25 1.1875 0 2.2344 0.21875 1.0625 0.20313 1.8594 0.71875 0.9375 0.5625 1.4688 1.625 0.54687 1.0625 0.54687 2.625v10.016zm-5.6719-1.5q1.3125 0 2.7812-0.82813 1.4844-0.84375 2.4062-2.4062v-2.9844h-0.28125q-1.3125 0-2.625 0.10937-1.3125 0.0937-2.3906 0.48438-1.0781 0.375-1.75 1.0938-0.67187 0.71875-0.67187 1.9688t0.6875 1.9062q0.70312 0.65625 1.8438 0.65625zm14.499 1.5h-2.2344v-14.719h2.2344zm-2.7188-20.094q0-0.64063 0.45313-1.1562 0.46875-0.51563 1.1406-0.51563 0.64063 0 1.1562 0.51563 0.51563 0.51562 0.51563 1.1562 0 0.67187-0.51563 1.1406-0.51562 0.45313-1.1562 0.45313-0.67187 0-1.1406-0.45313-0.45313-0.46875-0.45313-1.1406zm18.044 20.094v-9.7344q0-1.9062-0.85938-2.7344-0.85937-0.84375-2.2031-0.84375-0.8125 0-1.5938 0.26562-0.78125 0.25-1.4531 0.75-0.67187 0.48438-1.1875 1.2031-0.5 0.71875-0.79687 1.6562v9.4375h-2.2344v-14.719h1.75l0.26563 2.75h0.125q0.42187-1.3438 1.8594-2.2812 1.4375-0.95313 3.5781-0.95313 1.0312 0 1.9375 0.28125 0.90625 0.26563 1.5781 0.875 0.67188 0.60938 1.0781 1.6094 0.40625 0.98437 0.40625 2.4219v10.016zm13.706-15.203q2.8125 0 4.3438 1.4219 1.5312 1.4219 1.5312 4.0156 0 0.54688-0.0625 1.1094t-0.21875 0.8125h-10.781v0.32812q0 1.2188 0.3125 2.3438 0.32813 1.1094 0.96875 1.9688 0.64063 0.85938 1.6094 1.375 0.98437 0.51563 2.3281 0.51563 0.76563 0 1.5-0.17188 0.73438-0.17187 1.4062-0.4375 0.67188-0.28125 1.25-0.59375 0.57813-0.32812 1.0156-0.65625l0.39062 1.8281q-0.42187 0.25-1.0312 0.5625-0.59375 0.29687-1.3438 0.5625-0.73437 0.25-1.6094 0.42187-0.875 0.1875-1.8438 0.1875-1.7812 0-3.1719-0.625-1.375-0.625-2.2969-1.7031-0.92188-1.0781-1.4062-2.4844-0.48438-1.4062-0.48438-2.9375 0-1.5625 0.5-2.9844 0.5-1.4375 1.4531-2.5156 0.96875-1.0938 2.3906-1.7188 1.4219-0.625 3.25-0.625zm-0.10937 1.7969q-2.1094 0-3.2812 1.1094-1.1562 1.0938-1.5781 2.7656h8.7344q0.0312-0.17188 0.0312-0.29688t0-0.28125q0-0.79687-0.32813-1.4219-0.3125-0.625-0.85937-1.0312-0.53125-0.42188-1.2344-0.625-0.70312-0.21875-1.4844-0.21875zm17.997 1.0469q-0.51562-0.28125-1.0312-0.45312-0.51562-0.17188-0.98437-0.17188-0.64063 0-1.2188 0.35938-0.57813 0.34375-1.0625 0.95312-0.48438 0.59375-0.85938 1.4062-0.3594 0.79688-0.5469 1.6562v8.6094h-2.2344v-14.719h1.75l0.26563 3.2344h0.125q0.21875-0.73437 0.57815-1.4062 0.375-0.67187 0.90625-1.1875 0.53125-0.51562 1.2031-0.8125 0.67187-0.3125 1.5312-0.3125 0.60937 0 1.2812 0.21875 0.67187 0.20313 0.96875 0.51563z" fill="#fff"/>
<path d="m405.6 41.089c0-21.588 17.501-39.089 39.089-39.089h274.83c10.367 0 20.31 4.1183 27.64 11.449s11.449 17.273 11.449 27.64v156.35c0 21.588-17.501 39.089-39.089 39.089h-274.83c-21.588 0-39.089-17.501-39.089-39.089z" fill-opacity="0"/>
<path d="m405.6 41.089c0-21.588 17.501-39.089 39.089-39.089h274.83c10.367 0 20.31 4.1183 27.64 11.449s11.449 17.273 11.449 27.64v156.35c0 21.588-17.501 39.089-39.089 39.089h-274.83c-21.588 0-39.089-17.501-39.089-39.089z" fill-rule="evenodd" stroke="#fff" stroke-dasharray="4, 12" stroke-linejoin="round" stroke-width="4"/>
<path d="m473.35 81.595c0-10.403 8.4331-18.836 18.836-18.836h179.85c4.9955 0 9.7865 1.9845 13.319 5.5169s5.5169 8.3234 5.5169 13.319v75.341c0 10.403-8.4331 18.836-18.836 18.836h-179.85c-10.403 0-18.836-8.4331-18.836-18.836z" fill="#8ea7c8" fill-rule="evenodd"/>
<path d="m535.62 94.893q0 0.79687 0.29688 1.3281 0.3125 0.53125 0.96875 0.95313 0.65625 0.40625 1.6562 0.78125 1.0156 0.35937 2.4219 0.84375 1.1719 0.375 2.3281 0.875t2.0625 1.2188q0.92187 0.71875 1.4531 1.7969 0.54688 1.0625 0.54688 2.6094 0 1.625-0.64063 2.7813-0.64062 1.1406-1.7031 1.875-1.0469 0.71875-2.4219 1.0312-1.375 0.32812-2.8438 0.32812-2.0781 0-3.875-0.51562-1.7969-0.51563-3.1094-1.25l0.67187-2.3438q0.60938 0.42187 1.2188 0.79687 0.60938 0.35938 1.3281 0.625 0.71875 0.25 1.5781 0.40625 0.875 0.15625 2 0.15625 1.4375 0 2.4531-0.25 1.0312-0.25 1.6719-0.71875 0.64063-0.46875 0.92188-1.1094 0.29687-0.64064 0.29687-1.375 0-1.0781-0.51562-1.8281-0.51563-0.76562-1.3281-1.2969-0.8125-0.54688-1.7969-0.90625-0.96875-0.375-1.9375-0.70313-1.375-0.45312-2.5-0.95312-1.1094-0.51563-1.9062-1.2188-0.78125-0.70313-1.2188-1.625-0.42188-0.9375-0.42188-2.2188 0-1.4375 0.53125-2.4375 0.53125-1.0156 1.4375-1.6562 0.90625-0.64063 2.1562-0.9375 1.25-0.3125 2.6875-0.3125 1.7344 0 3.3281 0.35937 1.6094 0.34375 2.7188 0.85938l-0.67188 2.4688q-0.5-0.45313-1.1875-0.75-0.6875-0.3125-1.4531-0.48438-0.75-0.1875-1.4844-0.26562-0.73437-0.0781-1.375-0.0781-2.0156 0-3.1875 0.76563-1.1562 0.75-1.1562 2.375zm22.304 0.82812q2.8125 0 4.3438 1.4219 1.5312 1.4219 1.5312 4.0156 0 0.54688-0.0625 1.1094t-0.21875 0.8125h-10.781v0.32812q0 1.2188 0.3125 2.3438 0.32813 1.1094 0.96875 1.9688 0.64063 0.85938 1.6094 1.375 0.98437 0.51563 2.3281 0.51563 0.76563 0 1.5-0.17188 0.73438-0.17187 1.4062-0.4375 0.67188-0.28125 1.25-0.59375 0.57813-0.32812 1.0156-0.65625l0.39062 1.8281q-0.42187 0.25-1.0312 0.5625-0.59375 0.29687-1.3438 0.5625-0.73437 0.25-1.6094 0.42187-0.875 0.1875-1.8438 0.1875-1.7812 0-3.1719-0.625-1.375-0.625-2.2969-1.7031-0.92188-1.0781-1.4062-2.4844-0.48438-1.4062-0.48438-2.9375 0-1.5625 0.5-2.9844 0.5-1.4375 1.4531-2.5156 0.96875-1.0938 2.3906-1.7188 1.4219-0.625 3.25-0.625zm-0.10937 1.7969q-2.1094 0-3.2812 1.1094-1.1562 1.0938-1.5781 2.7656h8.7344q0.0312-0.17188 0.0312-0.29688t0-0.28125q0-0.79687-0.32813-1.4219-0.3125-0.625-0.85937-1.0312-0.53125-0.42188-1.2344-0.625-0.70312-0.21875-1.4844-0.21875zm17.997 1.0469q-0.51562-0.28125-1.0312-0.45312-0.51562-0.17188-0.98437-0.17188-0.64063 0-1.2188 0.35938-0.57813 0.34375-1.0625 0.95312-0.48438 0.59375-0.85938 1.4062-0.35937 0.79688-0.54687 1.6562v8.6094h-2.2344v-14.719h1.75l0.26563 3.2344h0.125q0.21875-0.73437 0.57812-1.4062 0.375-0.67187 0.90625-1.1875 0.53125-0.51562 1.2031-0.8125 0.67187-0.3125 1.5312-0.3125 0.60937 0 1.2812 0.21875 0.67187 0.20313 0.96875 0.51563zm10.752 12.359h-2.8594l-6.6875-14.719h2.4375l5.7344 12.609 5.7188-12.609h2.3438zm11.641 0h-2.2344v-14.719h2.2344zm-2.7188-20.094q0-0.64063 0.45313-1.1562 0.46875-0.51563 1.1406-0.51563 0.64063 0 1.1562 0.51563 0.51563 0.51562 0.51563 1.1562 0 0.67187-0.51563 1.1406-0.51562 0.45313-1.1562 0.45313-0.67187 0-1.1406-0.45313-0.45313-0.46875-0.45313-1.1406zm19.201 8.0625q-0.73437-0.54688-2.1094-0.96875-1.375-0.4375-2.75-0.4375-1.4062 0-2.3906 0.48437-0.96875 0.46875-1.6094 1.2812-0.64063 0.79688-0.9375 1.8438-0.28125 1.0312-0.28125 2.1406 0 1.25 0.34375 2.4062 0.35937 1.1562 1.0469 2.0156 0.6875 0.85938 1.6875 1.375 1.0156 0.51563 2.3594 0.51563 1.2812 0 2.6406-0.54688 1.3594-0.54687 2.25-1.375l0.45313 2.0781q-0.89063 0.57812-2.4531 1.0938-1.5469 0.51562-3.3125 0.51562-1.8438 0-3.25-0.64062-1.3906-0.64063-2.2969-1.7188-0.90625-1.0781-1.375-2.5-0.46875-1.4219-0.46875-3.0156 0-1.5469 0.4375-2.9375 0.4375-1.3906 1.3594-2.4531 0.92188-1.0781 2.3594-1.7031 1.4531-0.625 3.4688-0.625 1.5312 0 3 0.35938 1.4688 0.34375 2.375 0.92187zm10.885-3.1719q2.8125 0 4.3438 1.4219 1.5312 1.4219 1.5312 4.0156 0 0.54688-0.0625 1.1094t-0.21875 0.8125h-10.781v0.32812q0 1.2188 0.3125 2.3438 0.32812 1.1094 0.96875 1.9688 0.64062 0.85938 1.6094 1.375 0.98438 0.51563 2.3281 0.51563 0.76562 0 1.5-0.17188 0.73437-0.17187 1.4062-0.4375 0.67187-0.28125 1.25-0.59375 0.57812-0.32812 1.0156-0.65625l0.39063 1.8281q-0.42188 0.25-1.0312 0.5625-0.59375 0.29687-1.3438 0.5625-0.73438 0.25-1.6094 0.42187-0.875 0.1875-1.8438 0.1875-1.7812 0-3.1719-0.625-1.375-0.625-2.2969-1.7031-0.92187-1.0781-1.4062-2.4844-0.48437-1.4062-0.48437-2.9375 0-1.5625 0.5-2.9844 0.5-1.4375 1.4531-2.5156 0.96875-1.0938 2.3906-1.7188 1.4219-0.625 3.25-0.625zm-0.10938 1.7969q-2.1094 0-3.2812 1.1094-1.1562 1.0938-1.5781 2.7656h8.7344q0.0312-0.17188 0.0312-0.29688t0-0.28125q0-0.79687-0.32812-1.4219-0.3125-0.625-0.85938-1.0312-0.53125-0.42188-1.2344-0.625-0.70313-0.21875-1.4844-0.21875z" fill="#fff"/>
<path d="m533.18 128.33q-1.0156-0.67188-2.5312-1.125-1.5-0.45313-3.4219-0.45313-2.1406 0-3.6094 0.625t-2.3906 1.75q-0.90625 1.1094-1.3125 2.7031-0.39063 1.5781-0.39063 3.5 0 4.3906 1.9062 6.625 1.9219 2.2344 5.7344 2.2344 2.0156 0 3.7031-0.5625 1.7031-0.57812 2.7344-1.4219l0.64062 2.1562q-1.2812 0.76562-3.0938 1.3594t-4.0781 0.59375q-2.625 0-4.5469-0.85937-1.9219-0.875-3.1875-2.3438-1.25-1.4688-1.8594-3.4062-0.60938-1.9375-0.60938-4.125 0-2.2656 0.67188-4.25 0.67187-1.9844 2-3.4688 1.3281-1.4844 3.2969-2.3438 1.9688-0.875 4.5938-0.875 1.7188 0 3.4375 0.375 1.7344 0.35937 2.9844 1zm10.973 2.3906q1.9531 0 3.3594 0.65625 1.4219 0.65625 2.3281 1.7656 0.90625 1.0938 1.3438 2.5312 0.4375 1.4219 0.4375 2.9844t-0.4375 2.9688q-0.4375 1.3906-1.3281 2.4375-0.89063 1.0312-2.2969 1.6406-1.3906 0.60937-3.2656 0.60937-1.9531 0-3.3906-0.64062-1.4219-0.64063-2.3438-1.7188-0.92187-1.0781-1.375-2.4844-0.45312-1.4062-0.45312-2.9688t0.45312-2.9688q0.45313-1.4219 1.3594-2.4844 0.90625-1.0781 2.3125-1.7031 1.4219-0.625 3.2969-0.625zm0.10938 13.891q1.2812 0 2.2188-0.46875 0.9375-0.48438 1.5625-1.2969 0.625-0.82812 0.90625-1.8906 0.29687-1.0781 0.29687-2.2656 0-1.2188-0.3125-2.3281-0.29687-1.125-0.9375-1.9688-0.64062-0.85938-1.625-1.3594-0.96875-0.51562-2.3125-0.51562-1.3125 0-2.2344 0.48437-0.92188 0.46875-1.5312 1.2812-0.60938 0.79688-0.90625 1.875-0.28125 1.0625-0.28125 2.25 0 1.2188 0.29687 2.3438 0.3125 1.1094 0.9375 1.9688 0.625 0.85938 1.5938 1.375 0.98438 0.51563 2.3281 0.51563zm21.718 1.3125v-9.7344q0-1.9062-0.85937-2.7344-0.85938-0.84375-2.2031-0.84375-0.8125 0-1.5938 0.26562-0.78125 0.25-1.4531 0.75-0.67188 0.48438-1.1875 1.2031-0.5 0.71875-0.79688 1.6562v9.4375h-2.2344v-14.719h1.75l0.26562 2.75h0.125q0.42188-1.3438 1.8594-2.2812 1.4375-0.95313 3.5781-0.95313 1.0312 0 1.9375 0.28125 0.90625 0.26563 1.5781 0.875 0.67187 0.60938 1.0781 1.6094 0.40625 0.98437 0.40625 2.4219v10.016zm7.7838-13.219h-2.4688v-1.1875l2.5312-0.3125 0.48438-4.4531h1.6875v4.4531h3.4531v1.5h-3.4531v10.203q0 1.0312 0.29687 1.3594 0.3125 0.3125 0.95313 0.3125 0.73437 0 1.3125-0.21875 0.57812-0.23438 1.0156-0.54688l0.45313 1.6875q-0.54688 0.26563-1.4219 0.51563-0.875 0.26562-1.9375 0.26562-1.0156 0-1.5938-0.29687-0.57812-0.28125-0.875-0.76563-0.28125-0.48437-0.35937-1.0781-0.0781-0.59375-0.0781-1.1562zm18.688 13.219-0.26563-2.625h-0.125q-0.375 0.60937-1.0156 1.1562-0.64063 0.54687-1.4375 0.96875-0.78125 0.40625-1.6875 0.64062-0.90625 0.25-1.8125 0.25-2.1094 0-3.1719-1.2344-1.0469-1.2344-1.0469-3.0938 0-1.8281 0.92187-2.9062 0.9375-1.0938 2.2812-1.6406 1.3438-0.54687 2.8281-0.70312 1.4844-0.15625 2.6094-0.15625h1.4375v-0.39063q0-1.2031-0.34375-1.8438-0.32812-0.64062-0.96875-1.0938-0.54687-0.35937-1.1719-0.5-0.625-0.14062-1.6406-0.14062-1.3438 0-2.375 0.35937-1.0156 0.34375-1.9844 0.92188l-0.5-1.9219q2.1406-1.25 5.1094-1.25 1.1875 0 2.2344 0.21875 1.0625 0.20313 1.8594 0.71875 0.9375 0.5625 1.4688 1.625 0.54688 1.0625 0.54688 2.625v10.016zm-5.6719-1.5q1.3125 0 2.7812-0.82813 1.4844-0.84375 2.4062-2.4062v-2.9844h-0.28125q-1.3125 0-2.625 0.10937-1.3125 0.0937-2.3906 0.48438-1.0781 0.375-1.75 1.0938-0.67188 0.71875-0.67188 1.9688t0.6875 1.9062q0.70313 0.65625 1.8438 0.65625zm14.499 1.5h-2.2344v-14.719h2.2344zm-2.7188-20.094q0-0.64063 0.45312-1.1562 0.46875-0.51563 1.1406-0.51563 0.64062 0 1.1562 0.51563 0.51562 0.51562 0.51562 1.1562 0 0.67187-0.51562 1.1406-0.51563 0.45313-1.1562 0.45313-0.67188 0-1.1406-0.45313-0.45312-0.46875-0.45312-1.1406zm18.044 20.094v-9.7344q0-1.9062-0.85937-2.7344-0.85938-0.84375-2.2031-0.84375-0.8125 0-1.5938 0.26562-0.78125 0.25-1.4531 0.75-0.67188 0.48438-1.1875 1.2031-0.5 0.71875-0.79688 1.6562v9.4375h-2.2344v-14.719h1.75l0.26562 2.75h0.125q0.42188-1.3438 1.8594-2.2812 1.4375-0.95313 3.5781-0.95313 1.0312 0 1.9375 0.28125 0.90625 0.26563 1.5781 0.875 0.67187 0.60938 1.0781 1.6094 0.40625 0.98437 0.40625 2.4219v10.016zm13.706-15.203q2.8125 0 4.3438 1.4219 1.5312 1.4219 1.5312 4.0156 0 0.54688-0.0625 1.1094t-0.21875 0.8125h-10.781v0.32812q0 1.2188 0.3125 2.3438 0.32813 1.1094 0.96875 1.9688 0.64063 0.85938 1.6094 1.375 0.98437 0.51563 2.3281 0.51563 0.76563 0 1.5-0.17188 0.73438-0.17187 1.4062-0.4375 0.67188-0.28125 1.25-0.59375 0.57813-0.32812 1.0156-0.65625l0.39062 1.8281q-0.42187 0.25-1.0312 0.5625-0.59375 0.29687-1.3438 0.5625-0.73437 0.25-1.6094 0.42187-0.875 0.1875-1.8438 0.1875-1.7812 0-3.1719-0.625-1.375-0.625-2.2969-1.7031-0.92188-1.0781-1.4062-2.4844-0.48438-1.4062-0.48438-2.9375 0-1.5625 0.5-2.9844 0.5-1.4375 1.4531-2.5156 0.96875-1.0938 2.3906-1.7188 1.4219-0.625 3.25-0.625zm-0.10937 1.7969q-2.1094 0-3.2812 1.1094-1.1562 1.0938-1.5781 2.7656h8.7344q0.0312-0.17188 0.0312-0.29688t0-0.28125q0-0.79687-0.32813-1.4219-0.3125-0.625-0.85937-1.0312-0.53125-0.42188-1.2344-0.625-0.70312-0.21875-1.4844-0.21875zm17.997 1.0469q-0.51563-0.28125-1.0312-0.45312-0.51563-0.17188-0.98438-0.17188-0.64062 0-1.2188 0.35938-0.57812 0.34375-1.0625 0.95312-0.48437 0.59375-0.85937 1.4062-0.35938 0.79688-0.54688 1.6562v8.6094h-2.2344v-14.719h1.75l0.26562 3.2344h0.125q0.21875-0.73437 0.57813-1.4062 0.375-0.67187 0.90625-1.1875 0.53125-0.51562 1.2031-0.8125 0.67188-0.3125 1.5312-0.3125 0.60938 0 1.2812 0.21875 0.67188 0.20313 0.96875 0.51563z" fill="#fff"/>
<path d="m295 365.47c0 10.57 39.925 19.139 89.174 19.139 49.25 0 89.175-8.5689 89.175-19.139v114.84c0 10.57-39.925 19.139-89.175 19.139-49.25 0-89.174-8.569-89.174-19.139z" fill="#8ea7c8" fill-rule="evenodd"/>
<path d="m295 365.47c0-10.57 39.925-19.139 89.174-19.139 49.25 0 89.175 8.5689 89.175 19.139s-39.925 19.139-89.175 19.139c-49.25 0-89.174-8.5689-89.174-19.139z" fill="#bbcade" fill-rule="evenodd"/>
<path d="m473.35 365.47c0 10.57-39.925 19.139-89.175 19.139-49.25 0-89.174-8.5689-89.174-19.139s39.925-19.139 89.174-19.139c49.25 0 89.175 8.5689 89.175 19.139v114.84c0 10.57-39.925 19.139-89.175 19.139-49.25 0-89.174-8.569-89.174-19.139v-114.84" fill-opacity="0"/>
<path d="m322.77 406.13h0.15625q1.5312-0.0625 3.3281-0.10937 1.7969-0.0469 3.4844-0.0469 2.2812 0 4.1406 0.64063 1.875 0.64062 3.1875 1.7656 1.7031 1.5312 2.4688 3.75 0.76562 2.2031 0.76562 4.7812 0 2.1875-0.60937 4.125-0.60938 1.9375-1.875 3.4062-1.2656 1.4688-3.1875 2.3438-1.9062 0.85938-4.5312 0.85938-2.2812 0-4.0938-0.125-1.7969-0.10938-3.2344-0.26563zm7.1719 1.9531q-1.2812 0-2.5156 0.0156-1.2344 0.0156-2.2656 0.0781v17.156q2.0156 0.1875 4.8438 0.1875 3.7969 0 5.7188-2.2344 1.9219-2.2344 1.9219-6.625 0-1.9219-0.40625-3.5-0.39062-1.5938-1.3125-2.7031-0.90625-1.125-2.375-1.75t-3.6094-0.625zm23.772 19.172-0.26563-2.625h-0.125q-0.375 0.60938-1.0156 1.1562-0.64063 0.54688-1.4375 0.96875-0.78125 0.40625-1.6875 0.64063-0.90625 0.25-1.8125 0.25-2.1094 0-3.1719-1.2344-1.0469-1.2344-1.0469-3.0938 0-1.8281 0.92187-2.9062 0.9375-1.0938 2.2812-1.6406 1.3438-0.54688 2.8281-0.70313 1.4844-0.15625 2.6094-0.15625h1.4375v-0.39062q0-1.2031-0.34375-1.8438-0.32812-0.64063-0.96875-1.0938-0.54687-0.35938-1.1719-0.5-0.625-0.14063-1.6406-0.14063-1.3438 0-2.375 0.35938-1.0156 0.34375-1.9844 0.92187l-0.5-1.9219q2.1406-1.25 5.1094-1.25 1.1875 0 2.2344 0.21875 1.0625 0.20312 1.8594 0.71875 0.9375 0.5625 1.4688 1.625 0.54688 1.0625 0.54688 2.625v10.016zm-5.6719-1.5q1.3125 0 2.7812-0.82812 1.4844-0.84375 2.4062-2.4062v-2.9844h-0.28125q-1.3125 0-2.625 0.10938-1.3125 0.0937-2.3906 0.48437-1.0781 0.375-1.75 1.0938-0.67188 0.71875-0.67188 1.9688t0.6875 1.9062q0.70313 0.65625 1.8438 0.65625zm12.936-11.719h-2.4688v-1.1875l2.5312-0.3125 0.48437-4.4531h1.6875v4.4531h3.4531v1.5h-3.4531v10.203q0 1.0312 0.29688 1.3594 0.3125 0.3125 0.95312 0.3125 0.73438 0 1.3125-0.21875 0.57813-0.23437 1.0156-0.54687l0.45312 1.6875q-0.54687 0.26562-1.4219 0.51562-0.875 0.26563-1.9375 0.26563-1.0156 0-1.5938-0.29688-0.57813-0.28125-0.875-0.76562-0.28125-0.48438-0.35938-1.0781-0.0781-0.59375-0.0781-1.1562zm18.688 13.219-0.26563-2.625h-0.125q-0.375 0.60938-1.0156 1.1562-0.64063 0.54688-1.4375 0.96875-0.78125 0.40625-1.6875 0.64063-0.90625 0.25-1.8125 0.25-2.1094 0-3.1719-1.2344-1.0469-1.2344-1.0469-3.0938 0-1.8281 0.92187-2.9062 0.9375-1.0938 2.2812-1.6406 1.3438-0.54688 2.8281-0.70313 1.4844-0.15625 2.6094-0.15625h1.4375v-0.39062q0-1.2031-0.34375-1.8438-0.32812-0.64063-0.96875-1.0938-0.54687-0.35938-1.1719-0.5-0.625-0.14063-1.6406-0.14063-1.3438 0-2.375 0.35938-1.0156 0.34375-1.9844 0.92187l-0.5-1.9219q2.1406-1.25 5.1094-1.25 1.1875 0 2.2344 0.21875 1.0625 0.20312 1.8594 0.71875 0.9375 0.5625 1.4688 1.625 0.54688 1.0625 0.54688 2.625v10.016zm-5.6719-1.5q1.3125 0 2.7812-0.82812 1.4844-0.84375 2.4062-2.4062v-2.9844h-0.28125q-1.3125 0-2.625 0.10938-1.3125 0.0937-2.3906 0.48437-1.0781 0.375-1.75 1.0938-0.67188 0.71875-0.67188 1.9688t0.6875 1.9062q0.70313 0.65625 1.8438 0.65625zm20.17 1.8906q-2.0469 0-3.5312-0.90625-1.4688-0.92188-2.2344-2.1094h-0.125l-0.26563 2.625h-1.75v-23.688h2.2344v11.719q0.42187-1.375 1.8281-2.2969 1.4062-0.9375 3.4844-0.9375 1.7031 0 2.9688 0.64062 1.2812 0.64063 2.125 1.7188 0.85937 1.0625 1.2812 2.5156 0.4375 1.4375 0.4375 3 0 1.5312-0.40625 2.9219-0.39063 1.3906-1.1875 2.4531-0.79688 1.0625-2.0156 1.7031-1.2188 0.64063-2.8438 0.64063zm-0.26562-1.8906q1.2188 0 2.0469-0.51562 0.84375-0.51563 1.3438-1.3281 0.51563-0.8125 0.73438-1.8281 0.23437-1.0312 0.23437-2.0625 0-1.3438-0.34375-2.4531-0.32812-1.125-0.9375-1.9219-0.60937-0.8125-1.5156-1.25-0.89063-0.45313-1.9688-0.45313-1.7031 0-3.0625 1.0312-1.3594 1.0156-1.9375 2.8438v4.7031q0.92187 1.5312 2.3906 2.3906 1.4844 0.84375 3.0156 0.84375zm20.103 1.5-0.26563-2.625h-0.125q-0.375 0.60938-1.0156 1.1562-0.64063 0.54688-1.4375 0.96875-0.78125 0.40625-1.6875 0.64063-0.90625 0.25-1.8125 0.25-2.1094 0-3.1719-1.2344-1.0469-1.2344-1.0469-3.0938 0-1.8281 0.92187-2.9062 0.9375-1.0938 2.2812-1.6406 1.3438-0.54688 2.8281-0.70313 1.4844-0.15625 2.6094-0.15625h1.4375v-0.39062q0-1.2031-0.34375-1.8438-0.32812-0.64063-0.96875-1.0938-0.54687-0.35938-1.1719-0.5-0.625-0.14063-1.6406-0.14063-1.3438 0-2.375 0.35938-1.0156 0.34375-1.9844 0.92187l-0.5-1.9219q2.1406-1.25 5.1094-1.25 1.1875 0 2.2344 0.21875 1.0625 0.20312 1.8594 0.71875 0.9375 0.5625 1.4688 1.625 0.54688 1.0625 0.54688 2.625v10.016zm-5.6719-1.5q1.3125 0 2.7812-0.82812 1.4844-0.84375 2.4062-2.4062v-2.9844h-0.28125q-1.3125 0-2.625 0.10938-1.3125 0.0937-2.3906 0.48437-1.0781 0.375-1.75 1.0938-0.67188 0.71875-0.67188 1.9688t0.6875 1.9062q0.70313 0.65625 1.8438 0.65625zm16.577-11.906q-1.5312 0-2.2188 0.5625t-0.6875 1.5156q0 0.3125 0.0937 0.67187 0.0937 0.35938 0.35938 0.65625 0.28125 0.29688 0.73437 0.57813 0.46875 0.26562 1.25 0.4375l2.2656 0.5q1.3438 0.29687 2.1562 0.79687 0.8125 0.48438 1.2656 1.0625 0.45313 0.57813 0.59375 1.1719 0.14063 0.59375 0.14063 1.0938 0 1-0.40625 1.875-0.39063 0.85937-1.1406 1.5-0.75 0.625-1.8438 1t-2.4375 0.375q-1.6875 0-3.125-0.5t-2.3125-1.1094l0.57813-2.0781q1.1562 1.0625 2.5625 1.5469 1.4062 0.46875 2.5312 0.46875 1.5938 0 2.4219-0.78125 0.84375-0.78125 0.84375-1.6562 0-0.28125-0.0312-0.64062-0.0312-0.375-0.26562-0.75-0.21875-0.39063-0.67188-0.71875-0.4375-0.34375-1.2812-0.54688l-3.0625-0.76562q-1.0625-0.25-1.7344-0.65625-0.67188-0.42188-1.0625-0.92188-0.375-0.5-0.54688-1.0625-0.15625-0.5625-0.15625-1.125 0-1.9531 1.4531-3.125 1.4688-1.1719 3.8906-1.1719 1.25 0 2.6875 0.34375 1.4531 0.32812 2.4375 0.96875l-0.60937 1.9219q-0.64063-0.54687-1.9062-0.98437-1.2656-0.45313-2.7656-0.45313zm16.393-1.7969q2.8125 0 4.3438 1.4219 1.5312 1.4219 1.5312 4.0156 0 0.54687-0.0625 1.1094t-0.21875 0.8125h-10.781v0.32813q0 1.2188 0.3125 2.3438 0.32813 1.1094 0.96875 1.9688 0.64063 0.85937 1.6094 1.375 0.98437 0.51562 2.3281 0.51562 0.76563 0 1.5-0.17187 0.73438-0.17188 1.4062-0.4375 0.67188-0.28125 1.25-0.59375 0.57813-0.32813 1.0156-0.65625l0.39062 1.8281q-0.42187 0.25-1.0312 0.5625-0.59375 0.29688-1.3438 0.5625-0.73437 0.25-1.6094 0.42188-0.875 0.1875-1.8438 0.1875-1.7812 0-3.1719-0.625-1.375-0.625-2.2969-1.7031-0.92188-1.0781-1.4062-2.4844-0.48438-1.4062-0.48438-2.9375 0-1.5625 0.5-2.9844 0.5-1.4375 1.4531-2.5156 0.96875-1.0938 2.3906-1.7188 1.4219-0.625 3.25-0.625zm-0.10937 1.7969q-2.1094 0-3.2812 1.1094-1.1562 1.0938-1.5781 2.7656h8.7344q0.0312-0.17187 0.0312-0.29687t0-0.28125q0-0.79688-0.32813-1.4219-0.3125-0.625-0.85937-1.0312-0.53125-0.42187-1.2344-0.625-0.70312-0.21875-1.4844-0.21875z" fill="#fff"/>
<path d="m335.25 444.66q-1.0156-0.67188-2.5312-1.125-1.5-0.45313-3.4219-0.45313-2.1406 0-3.6094 0.625t-2.3906 1.75q-0.90625 1.1094-1.3125 2.7031-0.39062 1.5781-0.39062 3.5 0 4.3906 1.9062 6.625 1.9219 2.2344 5.7344 2.2344 2.0156 0 3.7031-0.5625 1.7031-0.57812 2.7344-1.4219l0.64063 2.1562q-1.2812 0.76562-3.0938 1.3594t-4.0781 0.59375q-2.625 0-4.5469-0.85937-1.9219-0.875-3.1875-2.3438-1.25-1.4688-1.8594-3.4062-0.60937-1.9375-0.60937-4.125 0-2.2656 0.67187-4.25 0.67188-1.9844 2-3.4688 1.3281-1.4844 3.2969-2.3438 1.9688-0.875 4.5938-0.875 1.7188 0 3.4375 0.375 1.7344 0.35937 2.9844 1zm10.973 2.3906q1.9531 0 3.3594 0.65625 1.4219 0.65625 2.3281 1.7656 0.90625 1.0938 1.3438 2.5312 0.4375 1.4219 0.4375 2.9844t-0.4375 2.9688q-0.4375 1.3906-1.3281 2.4375-0.89063 1.0312-2.2969 1.6406-1.3906 0.60937-3.2656 0.60937-1.9531 0-3.3906-0.64062-1.4219-0.64063-2.3438-1.7188-0.92187-1.0781-1.375-2.4844-0.45312-1.4062-0.45312-2.9688t0.45312-2.9688q0.45313-1.4219 1.3594-2.4844 0.90625-1.0781 2.3125-1.7031 1.4219-0.625 3.2969-0.625zm0.10938 13.891q1.2812 0 2.2188-0.46875 0.9375-0.48438 1.5625-1.2969 0.625-0.82812 0.90625-1.8906 0.29687-1.0781 0.29687-2.2656 0-1.2188-0.3125-2.3281-0.29687-1.125-0.9375-1.9688-0.64062-0.85938-1.625-1.3594-0.96875-0.51562-2.3125-0.51562-1.3125 0-2.2344 0.48437-0.92188 0.46875-1.5312 1.2812-0.60938 0.79688-0.90625 1.875-0.28125 1.0625-0.28125 2.25 0 1.2188 0.29687 2.3438 0.3125 1.1094 0.9375 1.9688 0.625 0.85938 1.5938 1.375 0.98438 0.51563 2.3281 0.51563zm21.718 1.3125v-9.7344q0-1.9062-0.85937-2.7344-0.85938-0.84375-2.2031-0.84375-0.8125 0-1.5938 0.26562-0.78125 0.25-1.4531 0.75-0.67188 0.48438-1.1875 1.2031-0.5 0.71875-0.79688 1.6562v9.4375h-2.2344v-14.719h1.75l0.26562 2.75h0.125q0.42188-1.3438 1.8594-2.2812 1.4375-0.95313 3.5781-0.95313 1.0312 0 1.9375 0.28125 0.90625 0.26563 1.5781 0.875 0.67187 0.60938 1.0781 1.6094 0.40625 0.98437 0.40625 2.4219v10.016zm7.7838-13.219h-2.4688v-1.1875l2.5312-0.3125 0.48438-4.4531h1.6875v4.4531h3.4531v1.5h-3.4531v10.203q0 1.0312 0.29687 1.3594 0.3125 0.3125 0.95313 0.3125 0.73437 0 1.3125-0.21875 0.57812-0.23438 1.0156-0.54688l0.45313 1.6875q-0.54688 0.26563-1.4219 0.51563-0.875 0.26562-1.9375 0.26562-1.0156 0-1.5938-0.29687-0.57812-0.28125-0.875-0.76563-0.28125-0.48437-0.35937-1.0781-0.0781-0.59375-0.0781-1.1562zm18.688 13.219-0.26562-2.625h-0.125q-0.375 0.60937-1.0156 1.1562-0.64062 0.54687-1.4375 0.96875-0.78125 0.40625-1.6875 0.64062-0.90625 0.25-1.8125 0.25-2.1094 0-3.1719-1.2344-1.0469-1.2344-1.0469-3.0938 0-1.8281 0.92188-2.9062 0.9375-1.0938 2.2812-1.6406 1.3438-0.54687 2.8281-0.70312 1.4844-0.15625 2.6094-0.15625h1.4375v-0.39063q0-1.2031-0.34375-1.8438-0.32813-0.64062-0.96875-1.0938-0.54688-0.35937-1.1719-0.5-0.625-0.14062-1.6406-0.14062-1.3438 0-2.375 0.35937-1.0156 0.34375-1.9844 0.92188l-0.5-1.9219q2.1406-1.25 5.1094-1.25 1.1875 0 2.2344 0.21875 1.0625 0.20313 1.8594 0.71875 0.9375 0.5625 1.4688 1.625 0.54687 1.0625 0.54687 2.625v10.016zm-5.6719-1.5q1.3125 0 2.7812-0.82813 1.4844-0.84375 2.4062-2.4062v-2.9844h-0.28125q-1.3125 0-2.625 0.10937-1.3125 0.0937-2.3906 0.48438-1.0781 0.375-1.75 1.0938-0.67187 0.71875-0.67187 1.9688t0.6875 1.9062q0.70312 0.65625 1.8438 0.65625zm14.499 1.5h-2.2344v-14.719h2.2344zm-2.7188-20.094q0-0.64063 0.45313-1.1562 0.46875-0.51563 1.1406-0.51563 0.64063 0 1.1562 0.51563 0.51563 0.51562 0.51563 1.1562 0 0.67187-0.51563 1.1406-0.51562 0.45313-1.1562 0.45313-0.67187 0-1.1406-0.45313-0.45313-0.46875-0.45313-1.1406zm18.044 20.094v-9.7344q0-1.9062-0.85938-2.7344-0.85937-0.84375-2.2031-0.84375-0.8125 0-1.5938 0.26562-0.78125 0.25-1.4531 0.75-0.67187 0.48438-1.1875 1.2031-0.5 0.71875-0.79687 1.6562v9.4375h-2.2344v-14.719h1.75l0.26563 2.75h0.125q0.42187-1.3438 1.8594-2.2812 1.4375-0.95313 3.5781-0.95313 1.0312 0 1.9375 0.28125 0.90625 0.26563 1.5781 0.875 0.67188 0.60938 1.0781 1.6094 0.40625 0.98437 0.40625 2.4219v10.016zm13.706-15.203q2.8125 0 4.3438 1.4219 1.5312 1.4219 1.5312 4.0156 0 0.54688-0.0625 1.1094t-0.21875 0.8125h-10.781v0.32812q0 1.2188 0.3125 2.3438 0.32813 1.1094 0.96875 1.9688 0.64063 0.85938 1.6094 1.375 0.98437 0.51563 2.3281 0.51563 0.76563 0 1.5-0.17188 0.73438-0.17187 1.4062-0.4375 0.67188-0.28125 1.25-0.59375 0.57813-0.32812 1.0156-0.65625l0.39062 1.8281q-0.42187 0.25-1.0312 0.5625-0.59375 0.29687-1.3438 0.5625-0.73437 0.25-1.6094 0.42187-0.875 0.1875-1.8438 0.1875-1.7812 0-3.1719-0.625-1.375-0.625-2.2969-1.7031-0.92188-1.0781-1.4062-2.4844-0.48438-1.4062-0.48438-2.9375 0-1.5625 0.5-2.9844 0.5-1.4375 1.4531-2.5156 0.96875-1.0938 2.3906-1.7188 1.4219-0.625 3.25-0.625zm-0.10937 1.7969q-2.1094 0-3.2812 1.1094-1.1562 1.0938-1.5781 2.7656h8.7344q0.0312-0.17188 0.0312-0.29688t0-0.28125q0-0.79687-0.32813-1.4219-0.3125-0.625-0.85937-1.0312-0.53125-0.42188-1.2344-0.625-0.70312-0.21875-1.4844-0.21875zm17.997 1.0469q-0.51563-0.28125-1.0312-0.45312-0.51563-0.17188-0.98438-0.17188-0.64062 0-1.2188 0.35938-0.57812 0.34375-1.0625 0.95312-0.48437 0.59375-0.85937 1.4062-0.35938 0.79688-0.54688 1.6562v8.6094h-2.2344v-14.719h1.75l0.26562 3.2344h0.125q0.21875-0.73437 0.57813-1.4062 0.375-0.67187 0.90625-1.1875 0.53125-0.51562 1.2031-0.8125 0.67188-0.3125 1.5312-0.3125 0.60938 0 1.2812 0.21875 0.67188 0.20313 0.96875 0.51563z" fill="#fff"/>
<path d="m203.42 344.71c0-21.588 17.501-39.089 39.089-39.089h274.83c10.367 0 20.31 4.1183 27.64 11.449 7.3307 7.3307 11.449 17.273 11.449 27.64v156.35c0 21.588-17.501 39.089-39.089 39.089h-274.83c-21.588 0-39.089-17.501-39.089-39.089z" fill-opacity="0"/>
<path d="m203.42 344.71c0-21.588 17.501-39.089 39.089-39.089h274.83c10.367 0 20.31 4.1183 27.64 11.449 7.3307 7.3307 11.449 17.273 11.449 27.64v156.35c0 21.588-17.501 39.089-39.089 39.089h-274.83c-21.588 0-39.089-17.501-39.089-39.089z" fill-rule="evenodd" stroke="#fff" stroke-dasharray="4, 12" stroke-linejoin="round" stroke-width="4"/>
<path d="m287.27 119.27h186.08" fill-opacity="0"/>
<path d="m287.27 119.27h158.08" fill-rule="evenodd" stroke="#fff" stroke-linejoin="round" stroke-width="4.6667"/>
<path d="m445.34 126.97 21.178-7.7081-21.178-7.7081z" fill="#fff" fill-rule="evenodd" stroke="#fff" stroke-width="4.6667"/>
<path d="m582.11 175.77-197.92 170.55" fill-opacity="0"/>
<path d="m582.11 175.77-176.71 152.27" fill-rule="evenodd" stroke="#fff" stroke-linejoin="round" stroke-width="4.6667"/>
<path d="m400.37 322.21-11.011 19.664 21.075-7.9853z" fill="#fff" fill-rule="evenodd" stroke="#fff" stroke-width="4.6667"/>
</svg>
