<?xml version="1.0" encoding="UTF-8"?>
<svg fill="none" stroke-linecap="square" stroke-miterlimit="10" version="1.1" viewBox="0 0 986.82 638.3" xmlns="http://www.w3.org/2000/svg">
<path d="m427.04 34.683c0-18.05 14.633-32.683 32.683-32.683h492.42c8.6679 0 16.981 3.4434 23.11 9.5726 6.1292 6.1292 9.5725 14.442 9.5725 23.11v356.19c0 18.05-14.633 32.683-32.683 32.683h-492.42c-18.05 0-32.683-14.633-32.683-32.683z" fill-opacity="0"/>
<path d="m427.04 34.683c0-18.05 14.633-32.683 32.683-32.683h492.42c8.6679 0 16.981 3.4434 23.11 9.5726 6.1292 6.1292 9.5725 14.442 9.5725 23.11v356.19c0 18.05-14.633 32.683-32.683 32.683h-492.42c-18.05 0-32.683-14.633-32.683-32.683z" fill-rule="evenodd" stroke="#ff0" stroke-linejoin="round" stroke-width="4"/>
<path d="m654.09 44.073h-2.3281l-4.4062-12.281-4.375 12.281h-2.3281l-6.0156-16.156h3.0469l4.1406 12.531 4.1562-12.531h2.7656l4.1406 12.531 4.125-12.531h3.0625zm11.54-11.625q1.5 0 2.5625 0.5 1.0781 0.5 1.7812 1.3438 0.70312 0.84375 1.0312 1.9375 0.32812 1.0938 0.32812 2.2969 0 1.1875-0.32812 2.25-0.32813 1.0625-1.0312 1.8594-0.70313 0.79687-1.7656 1.2656t-2.5 0.46875q-1.5 0-2.5781-0.48437-1.0781-0.5-1.7812-1.3125-0.70313-0.82813-1.0469-1.9062-0.34375-1.0781-0.34375-2.2656 0-1.2031 0.34375-2.2812 0.34375-1.0781 1.0312-1.8906 0.70313-0.82813 1.7812-1.2969 1.0781-0.48437 2.5156-0.48437zm0.0469 9.8906q0.71875 0 1.2344-0.29687 0.53125-0.3125 0.875-0.84375t0.5-1.2031q0.15625-0.6875 0.15625-1.4531 0-0.78125-0.17188-1.5-0.17187-0.71875-0.53125-1.2656-0.34375-0.5625-0.89062-0.89062-0.53125-0.32813-1.2969-0.32813-0.70312 0-1.2188 0.3125-0.51562 0.29688-0.84375 0.8125-0.32812 0.51563-0.48437 1.2031-0.15625 0.67187-0.15625 1.4375 0 0.78125 0.15625 1.5t0.5 1.2969q0.35937 0.5625 0.89062 0.89063 0.54688 0.32812 1.2812 0.32812zm14.808-7.0781q-0.25-0.1875-0.76562-0.3125-0.51563-0.125-0.875-0.125-0.48438 0-0.8125 0.23437-0.3125 0.23438-0.5625 0.60938-0.23438 0.375-0.40625 0.875-0.17188 0.48437-0.32813 1v6.5312h-2.6875v-11.25h2.1094l0.125 2.3438h0.0937q0.23437-0.51563 0.5-1 0.28125-0.5 0.625-0.875t0.79687-0.60938q0.45313-0.23438 1.0625-0.23438 0.98438 0 1.8281 0.64062zm8.1513 1.5156 4.7969 7.2969h-2.9375l-3.6562-5.5312-0.95312 0.95312v4.5781h-2.6875v-18.109h2.6875v10.453l3.75-3.5938h3.0156zm11.245-4.3281q2.1562 0 3.3281 1.0938 1.1719 1.0938 1.1719 3.0625 0 0.28125-0.0312 0.59375-0.0312 0.29687-0.0937 0.59375-0.0625 0.28125-0.15625 0.51562-0.0781 0.23438-0.17188 0.375h-7.125q0.0469 0.73438 0.26563 1.3906 0.21875 0.64062 0.64062 1.125 0.42188 0.48437 1.0156 0.76562t1.4062 0.28125q0.90625 0 1.9219-0.34375 1.0156-0.34375 1.7188-0.85937l0.45313 2q-0.32813 0.20312-0.79688 0.4375-0.45312 0.23437-1.0469 0.4375-0.59375 0.1875-1.2656 0.3125-0.67187 0.14062-1.4062 0.14062-1.3594 0-2.4219-0.46875-1.0469-0.48437-1.7656-1.2969-0.70312-0.82813-1.0781-1.9062-0.35938-1.0781-0.35938-2.25 0-1.2031 0.375-2.2812 0.39063-1.0938 1.125-1.9219 0.73438-0.84375 1.8125-1.3125 1.0938-0.48437 2.4844-0.48437zm-0.0625 2.1094q-1.0312 0-1.7656 0.60938-0.71875 0.59375-1.0312 1.6094h4.6719q0.0312-0.0625 0.0312-0.15625 0.0156-0.10937 0.0156-0.25 0-0.78125-0.54687-1.2969-0.53125-0.51563-1.375-0.51563zm13.747 0.70313q-0.25-0.1875-0.76562-0.3125-0.51563-0.125-0.875-0.125-0.48438 0-0.8125 0.23437-0.3125 0.23438-0.5625 0.60938-0.23438 0.375-0.40625 0.875-0.17188 0.48437-0.32813 1v6.5312h-2.6875v-11.25h2.1094l0.125 2.3438h0.0937q0.23437-0.51563 0.5-1 0.28125-0.5 0.625-0.875t0.79687-0.60938q0.45313-0.23438 1.0625-0.23438 0.98438 0 1.8281 0.64062zm19.186 4.5312v-11.875h2.8125v16.156h-3.4531l-7.0938-11.844v11.844h-2.8125v-16.156h3.4531zm11.373-7.3438q1.5 0 2.5625 0.5 1.0781 0.5 1.7812 1.3438 0.70313 0.84375 1.0312 1.9375 0.32813 1.0938 0.32813 2.2969 0 1.1875-0.32813 2.25-0.32812 1.0625-1.0312 1.8594-0.70312 0.79687-1.7656 1.2656t-2.5 0.46875q-1.5 0-2.5781-0.48437-1.0781-0.5-1.7812-1.3125-0.70312-0.82813-1.0469-1.9062-0.34375-1.0781-0.34375-2.2656 0-1.2031 0.34375-2.2812 0.34375-1.0781 1.0312-1.8906 0.70312-0.82813 1.7812-1.2969 1.0781-0.48437 2.5156-0.48437zm0.0469 9.8906q0.71875 0 1.2344-0.29687 0.53125-0.3125 0.875-0.84375t0.5-1.2031q0.15625-0.6875 0.15625-1.4531 0-0.78125-0.17187-1.5-0.17188-0.71875-0.53125-1.2656-0.34375-0.5625-0.89063-0.89062-0.53125-0.32813-1.2969-0.32813-0.70313 0-1.2188 0.3125-0.51563 0.29688-0.84375 0.8125-0.32813 0.51563-0.48438 1.2031-0.15625 0.67187-0.15625 1.4375 0 0.78125 0.15625 1.5t0.5 1.2969q0.35938 0.5625 0.89063 0.89063 0.54687 0.32812 1.2812 0.32812zm12.855 2.0312q-1.1562 0-2.1094-0.46875-0.95313-0.46875-1.625-1.2656-0.67188-0.8125-1.0469-1.9062-0.35937-1.1094-0.35937-2.4062 0-1.1562 0.29687-2.2188 0.3125-1.0625 0.9375-1.8594 0.64063-0.8125 1.5781-1.2969 0.95312-0.5 2.25-0.5 1.1719 0 2.0938 0.39062 0.9375 0.39062 1.5 1.1094v-7.9844h2.6719v18.109h-2.1562l-0.20312-1.5469h-0.0937q-0.6875 0.76563-1.5625 1.3125-0.85938 0.53125-2.1719 0.53125zm0.34375-2.0312q0.39063 0 0.82813-0.10937 0.4375-0.10938 0.85937-0.29688 0.4375-0.20312 0.82813-0.48437 0.39062-0.28125 0.65625-0.65625v-4.7031q-0.73438-0.89062-1.5-1.2188-0.75-0.34375-1.4531-0.34375-0.78125 0-1.3438 0.3125-0.5625 0.29688-0.95312 0.84375-0.375 0.53125-0.5625 1.2344-0.1875 0.70312-0.1875 1.4531 0 0.73438 0.17187 1.4531 0.17188 0.71875 0.51563 1.2812 0.34375 0.54687 0.875 0.89062 0.54687 0.34375 1.2656 0.34375zm14.326-9.8906q2.1562 0 3.3281 1.0938 1.1719 1.0938 1.1719 3.0625 0 0.28125-0.0312 0.59375-0.0312 0.29687-0.0937 0.59375-0.0625 0.28125-0.15625 0.51562-0.0781 0.23438-0.17187 0.375h-7.125q0.0469 0.73438 0.26562 1.3906 0.21875 0.64062 0.64063 1.125 0.42187 0.48437 1.0156 0.76562t1.4062 0.28125q0.90625 0 1.9219-0.34375 1.0156-0.34375 1.7188-0.85937l0.45312 2q-0.32812 0.20312-0.79687 0.4375-0.45313 0.23437-1.0469 0.4375-0.59375 0.1875-1.2656 0.3125-0.67188 0.14062-1.4062 0.14062-1.3594 0-2.4219-0.46875-1.0469-0.48437-1.7656-1.2969-0.70313-0.82813-1.0781-1.9062-0.35937-1.0781-0.35937-2.25 0-1.2031 0.375-2.2812 0.39062-1.0938 1.125-1.9219 0.73437-0.84375 1.8125-1.3125 1.0938-0.48437 2.4844-0.48437zm-0.0625 2.1094q-1.0312 0-1.7656 0.60938-0.71875 0.59375-1.0312 1.6094h4.6719q0.0312-0.0625 0.0312-0.15625 0.0156-0.10937 0.0156-0.25 0-0.78125-0.54688-1.2969-0.53125-0.51563-1.375-0.51563z" fill="#fff"/>
<path d="m427.04 484.49c0-16.769 13.594-30.362 30.362-30.362h497.06c8.0527 0 15.775 3.1989 21.469 8.8929 5.694 5.694 8.8928 13.417 8.8928 21.469v121.45c0 16.769-13.594 30.362-30.362 30.362h-497.06c-16.769 0-30.362-13.594-30.362-30.362z" fill-opacity="0"/>
<path d="m427.04 484.49c0-16.769 13.594-30.362 30.362-30.362h497.06c8.0527 0 15.775 3.1989 21.469 8.8929 5.694 5.694 8.8928 13.417 8.8928 21.469v121.45c0 16.769-13.594 30.362-30.362 30.362h-497.06c-16.769 0-30.362-13.594-30.362-30.362z" fill-rule="evenodd" stroke="#ff0" stroke-linejoin="round" stroke-width="4"/>
<path d="m586.13 489.46q-0.42188 0-0.82813 0t-0.76562-0.0312v6.0938h-2.8125v-16.156q0.35937-0.0156 0.82812-0.0312 0.48438-0.0312 1.0156-0.0469 0.53125-0.0156 1.0469-0.0156 0.53125-0.0156 1-0.0156 1.3594 0 2.4844 0.32813 1.1406 0.32812 1.9375 0.98437 0.8125 0.65625 1.25 1.625t0.4375 2.25q0 1.0156-0.34375 1.9219t-1.0312 1.5938q-0.67188 0.6875-1.7344 1.0938t-2.4844 0.40625zm-0.125-7.8594q-0.39063 0-0.76563 0-0.35937 0-0.70312 0.0312v5.4531q0.34375 0.0156 0.71875 0.0156t0.79687 0q1.3281 0 2-0.73437 0.67188-0.73438 0.67188-2.125 0-1.1719-0.60938-1.9062-0.59375-0.73438-2.1094-0.73438zm12.887 2.2969q2.1562 0 3.3281 1.0938 1.1719 1.0938 1.1719 3.0625 0 0.28125-0.0312 0.59375-0.0312 0.29687-0.0937 0.59375-0.0625 0.28125-0.15625 0.51562-0.0781 0.23438-0.17187 0.375h-7.125q0.0469 0.73438 0.26562 1.3906 0.21875 0.64062 0.64063 1.125 0.42187 0.48437 1.0156 0.76562t1.4062 0.28125q0.90625 0 1.9219-0.34375 1.0156-0.34375 1.7188-0.85937l0.45312 2q-0.32812 0.20312-0.79687 0.4375-0.45313 0.23437-1.0469 0.4375-0.59375 0.1875-1.2656 0.3125-0.67188 0.14062-1.4062 0.14062-1.3594 0-2.4219-0.46875-1.0469-0.48437-1.7656-1.2969-0.70313-0.82813-1.0781-1.9062-0.35937-1.0781-0.35937-2.25 0-1.2031 0.375-2.2812 0.39062-1.0938 1.125-1.9219 0.73437-0.84375 1.8125-1.3125 1.0938-0.48437 2.4844-0.48437zm-0.0625 2.1094q-1.0312 0-1.7656 0.60938-0.71875 0.59375-1.0312 1.6094h4.6719q0.0312-0.0625 0.0312-0.15625 0.0156-0.10937 0.0156-0.25 0-0.78125-0.54688-1.2969-0.53125-0.51563-1.375-0.51563zm13.747 0.70313q-0.25-0.1875-0.76563-0.3125-0.51562-0.125-0.875-0.125-0.48437 0-0.8125 0.23437-0.3125 0.23438-0.5625 0.60938-0.23437 0.375-0.40625 0.875-0.17187 0.48437-0.32812 1v6.5312h-2.6875v-11.25h2.1094l0.125 2.3438h0.0937q0.23438-0.51563 0.5-1 0.28125-0.5 0.625-0.875t0.79688-0.60938q0.45312-0.23437 1.0625-0.23437 0.98437 0 1.8281 0.64062zm6.1357-0.79688q-0.79688 0-1.25 0.3125-0.45313 0.29688-0.45313 0.85938 0 0.35937 0.25 0.67187 0.26563 0.29688 1.0938 0.5l1.7344 0.39063q1.0312 0.21875 1.6562 0.64062 0.625 0.40625 0.96875 0.90625 0.35937 0.48438 0.48437 1 0.125 0.51563 0.125 0.95313 0 0.78125-0.32812 1.4531-0.3125 0.67188-0.90625 1.1719-0.57813 0.48437-1.4219 0.76562-0.82812 0.28125-1.8438 0.28125-1.2969 0-2.4062-0.375-1.0938-0.39062-1.7656-0.85937l0.64062-2.3125q0.82813 0.79687 1.8594 1.2031 1.0469 0.39063 1.9375 0.39063 0.92187 0 1.4062-0.40625 0.5-0.40625 0.5-1.125 0-0.40625-0.25-0.6875-0.23438-0.28125-0.96875-0.48438l-2.3594-0.57812q-0.82812-0.20313-1.3594-0.5625-0.51563-0.375-0.82813-0.82813-0.29687-0.45312-0.42187-0.9375-0.10938-0.48437-0.10938-0.9375 0-1.6406 1.1562-2.5312 1.1562-0.89062 2.9844-0.89062 0.95312 0 2.0469 0.26562 1.1094 0.25 1.875 0.73438l-0.71875 2.2031q-0.48437-0.39062-1.375-0.78125-0.875-0.40625-1.9531-0.40625zm9.8605 9.6094h-2.6875v-11.25h2.6875zm-3.0781-14.875q0-0.34375 0.125-0.65625 0.14062-0.32813 0.39062-0.57813 0.25-0.26562 0.54688-0.40625 0.3125-0.14062 0.67187-0.14062 0.34375 0 0.65625 0.14062 0.32813 0.14063 0.57813 0.40625 0.26562 0.25 0.40625 0.57813 0.15625 0.3125 0.15625 0.65625 0 0.35937-0.15625 0.67187-0.14063 0.3125-0.40625 0.5625-0.25 0.23438-0.57813 0.375-0.3125 0.125-0.65625 0.125-0.70312 0-1.2188-0.51562-0.51562-0.51563-0.51562-1.2188zm9.8807 5.2656q-0.79688 0-1.25 0.3125-0.45313 0.29688-0.45313 0.85938 0 0.35937 0.25 0.67187 0.26563 0.29688 1.0938 0.5l1.7344 0.39063q1.0312 0.21875 1.6562 0.64062 0.625 0.40625 0.96875 0.90625 0.35937 0.48438 0.48437 1 0.125 0.51563 0.125 0.95313 0 0.78125-0.32812 1.4531-0.3125 0.67188-0.90625 1.1719-0.57813 0.48437-1.4219 0.76562-0.82812 0.28125-1.8438 0.28125-1.2969 0-2.4062-0.375-1.0938-0.39062-1.7656-0.85937l0.64062-2.3125q0.82813 0.79687 1.8594 1.2031 1.0469 0.39063 1.9375 0.39063 0.92187 0 1.4062-0.40625 0.5-0.40625 0.5-1.125 0-0.40625-0.25-0.6875-0.23438-0.28125-0.96875-0.48438l-2.3594-0.57812q-0.82812-0.20313-1.3594-0.5625-0.51563-0.375-0.82813-0.82813-0.29687-0.45312-0.42187-0.9375-0.10938-0.48437-0.10938-0.9375 0-1.6406 1.1562-2.5312 1.1562-0.89062 2.9844-0.89062 0.95312 0 2.0469 0.26562 1.1094 0.25 1.875 0.73438l-0.71875 2.2031q-0.48437-0.39062-1.375-0.78125-0.875-0.40625-1.9531-0.40625zm7.6887 0h-1.3906v-1.4688l1.5781-0.25 0.45312-3.3281h2.0469v3.4062h2.1562v1.6406h-2.1562v6.4531q0 0.73437 0.14062 1 0.15625 0.25 0.57813 0.25 0.3125 0 0.625-0.125 0.32812-0.125 0.9375-0.46875l0.4375 1.9375q-0.46875 0.39062-1.3125 0.625-0.84375 0.23437-1.6719 0.23437-0.73437 0-1.2188-0.20312-0.46875-0.1875-0.75-0.5625-0.26562-0.39063-0.35937-0.92188-0.0937-0.54687-0.0937-1.2031zm12.717-2.0156q2.1562 0 3.3281 1.0938 1.1719 1.0938 1.1719 3.0625 0 0.28125-0.0312 0.59375-0.0312 0.29687-0.0937 0.59375-0.0625 0.28125-0.15625 0.51562-0.0781 0.23438-0.17187 0.375h-7.125q0.0469 0.73438 0.26562 1.3906 0.21875 0.64062 0.64063 1.125 0.42187 0.48437 1.0156 0.76562t1.4062 0.28125q0.90625 0 1.9219-0.34375 1.0156-0.34375 1.7188-0.85937l0.45312 2q-0.32812 0.20312-0.79687 0.4375-0.45313 0.23437-1.0469 0.4375-0.59375 0.1875-1.2656 0.3125-0.67188 0.14062-1.4062 0.14062-1.3594 0-2.4219-0.46875-1.0469-0.48437-1.7656-1.2969-0.70313-0.82813-1.0781-1.9062-0.35937-1.0781-0.35937-2.25 0-1.2031 0.375-2.2812 0.39062-1.0938 1.125-1.9219 0.73437-0.84375 1.8125-1.3125 1.0938-0.48437 2.4844-0.48437zm-0.0625 2.1094q-1.0312 0-1.7656 0.60938-0.71875 0.59375-1.0312 1.6094h4.6719q0.0312-0.0625 0.0312-0.15625 0.0156-0.10937 0.0156-0.25 0-0.78125-0.54688-1.2969-0.53125-0.51563-1.375-0.51563zm14.841 9.5156v-7.4375q0-2-1.7031-2-0.42187 0-0.90625 0.14062-0.46875 0.14063-0.90625 0.42188t-0.79687 0.70312q-0.35938 0.42188-0.53125 0.95313v7.2188h-2.6875v-11.25h2.1094l0.125 1.6562h0.0937q0.51563-1.0312 1.5938-1.5312 1.0938-0.5 2.3438-0.5 0.8125 0 1.5156 0.21875 0.70312 0.20312 1.25 0.67187 0.5625 0.45313 0.875 1.2188 0.32812 0.75 0.32812 1.8594v7.6562zm6.3687-9.6094h-1.3906v-1.4688l1.5781-0.25 0.45313-3.3281h2.0469v3.4062h2.1562v1.6406h-2.1562v6.4531q0 0.73437 0.14063 1 0.15625 0.25 0.57812 0.25 0.3125 0 0.625-0.125 0.32813-0.125 0.9375-0.46875l0.4375 1.9375q-0.46875 0.39062-1.3125 0.625-0.84375 0.23437-1.6719 0.23437-0.73438 0-1.2188-0.20312-0.46875-0.1875-0.75-0.5625-0.26563-0.39063-0.35938-0.92188-0.0937-0.54687-0.0937-1.2031zm16.118-2.6562q0 0.51563 0.23437 0.89063 0.23438 0.35937 0.64063 0.64062 0.42187 0.26563 1 0.5 0.57812 0.23438 1.2812 0.46875 0.89062 0.32813 1.75 0.73438 0.875 0.39062 1.5625 1 0.70312 0.59375 1.1406 1.4844 0.45313 0.875 0.45313 2.125 0 1.3125-0.48438 2.2188-0.48437 0.90625-1.2969 1.4531-0.79688 0.54687-1.8594 0.79687-1.0469 0.25-2.1719 0.25-1.6094 0-3.0156-0.39062-1.4062-0.39063-2.4062-0.95313l0.73438-2.6406q0.92187 0.70312 2.0625 1.1719 1.1406 0.45313 2.6094 0.45313 1.5625 0 2.2656-0.54688 0.71875-0.54687 0.71875-1.4844 0-0.70313-0.34375-1.2031t-0.85938-0.85937q-0.51562-0.35938-1.0938-0.57813-0.5625-0.21875-1.0156-0.35937-0.78125-0.25-1.5938-0.59375-0.79688-0.34375-1.4844-0.89063-0.6875-0.54687-1.1094-1.375-0.42188-0.84375-0.42188-2.0781 0-1.1875 0.39063-1.9844 0.40625-0.8125 1.0938-1.3125 0.70312-0.5 1.6406-0.71875 0.95313-0.21875 2.0625-0.21875 1.3438 0 2.5938 0.26563 1.2656 0.26562 2.125 0.65625l-0.67187 2.5938q-0.4375-0.29688-0.95313-0.51563-0.5-0.21875-1.0625-0.35937-0.54687-0.15625-1.0938-0.23438-0.54687-0.0937-1.0469-0.0937-1.0938 0-1.7344 0.42188-0.64062 0.42187-0.64062 1.2656zm10.944 2.6562h-1.3906v-1.4688l1.5781-0.25 0.45312-3.3281h2.0469v3.4062h2.1562v1.6406h-2.1562v6.4531q0 0.73437 0.14062 1 0.15625 0.25 0.57813 0.25 0.3125 0 0.625-0.125 0.32812-0.125 0.9375-0.46875l0.4375 1.9375q-0.46875 0.39062-1.3125 0.625-0.84375 0.23437-1.6719 0.23437-0.73437 0-1.2188-0.20312-0.46875-0.1875-0.75-0.5625-0.26562-0.39063-0.35937-0.92188-0.0937-0.54687-0.0937-1.2031zm12.624-2.0156q1.5 0 2.5625 0.5 1.0781 0.5 1.7812 1.3438 0.70313 0.84375 1.0312 1.9375 0.32813 1.0938 0.32813 2.2969 0 1.1875-0.32813 2.25-0.32812 1.0625-1.0312 1.8594-0.70312 0.79687-1.7656 1.2656t-2.5 0.46875q-1.5 0-2.5781-0.48437-1.0781-0.5-1.7812-1.3125-0.70312-0.82813-1.0469-1.9062-0.34375-1.0781-0.34375-2.2656 0-1.2031 0.34375-2.2812 0.34375-1.0781 1.0312-1.8906 0.70312-0.82813 1.7812-1.2969 1.0781-0.48437 2.5156-0.48437zm0.0469 9.8906q0.71875 0 1.2344-0.29687 0.53125-0.3125 0.875-0.84375t0.5-1.2031q0.15625-0.6875 0.15625-1.4531 0-0.78125-0.17187-1.5-0.17188-0.71875-0.53125-1.2656-0.34375-0.5625-0.89063-0.89062-0.53125-0.32813-1.2969-0.32813-0.70313 0-1.2188 0.3125-0.51563 0.29688-0.84375 0.8125-0.32813 0.51563-0.48438 1.2031-0.15625 0.67187-0.15625 1.4375 0 0.78125 0.15625 1.5t0.5 1.2969q0.35938 0.5625 0.89063 0.89063 0.54687 0.32812 1.2812 0.32812zm14.808-7.0781q-0.25-0.1875-0.76563-0.3125-0.51562-0.125-0.875-0.125-0.48437 0-0.8125 0.23437-0.3125 0.23438-0.5625 0.60938-0.23437 0.375-0.40625 0.875-0.17187 0.48437-0.32812 1v6.5312h-2.6875v-11.25h2.1094l0.125 2.3438h0.0937q0.23438-0.51563 0.5-1 0.28125-0.5 0.625-0.875t0.79688-0.60938q0.45312-0.23437 1.0625-0.23437 0.98437 0 1.8281 0.64062zm9.4507 8.8125-0.20312-1.5469h-0.0937q-0.67188 0.84375-1.8125 1.3438-1.125 0.5-2.2969 0.5-1.5469 0-2.4375-0.89062-0.875-0.90625-0.875-2.3594 0-1.0156 0.42188-1.7969 0.4375-0.79688 1.2344-1.3438 0.8125-0.5625 1.9375-0.85938 1.125-0.29687 2.5312-0.29687h1.0469v-0.35938q0-0.95312-0.60938-1.3906-0.64062-0.4375-1.9844-0.4375-1.8125 0-3.2344 0.79687l-0.51562-2.0312q1.6406-0.95312 3.9688-0.95312 2.4531 0 3.7188 1 0.59375 0.46875 0.96875 1.2031 0.375 0.73438 0.375 1.7656v7.6562zm-3.3594-1.8906q0.78125 0 1.5625-0.375t1.25-1.0156v-2.2188h-0.46875q-2 0-2.9219 0.51562-0.92187 0.5-0.92187 1.625 0 1.4688 1.5 1.4688zm10.259-1.6562q-1.1094-0.46875-1.6094-1.4375-0.48438-0.98437-0.48438-2.1406 0-0.95313 0.3125-1.7812 0.32813-0.82813 0.92188-1.4219 0.60937-0.60937 1.4531-0.95312t1.9219-0.34375q0.64062 0 1.25 0.125 0.625 0.125 1.0938 0.35937 1.0312-0.0156 1.875-0.14062 0.84375-0.14063 1.625-0.35938l0.21875 0.17188-0.26563 1.8594-0.125 0.10938-1.7344-0.1875-0.0312 0.0781q0.84375 1.0469 0.84375 2.4688 0 0.85938-0.3125 1.6094-0.29688 0.73437-0.89063 1.2969-0.59375 0.54688-1.4688 0.875-0.85937 0.32813-1.9531 0.32813-0.28125 0-0.4375-0.0156t-0.29688-0.0156q-0.42187 0.15625-0.64062 0.39062-0.21875 0.21875-0.21875 0.46875 0 0.26563 0.26562 0.46875 0.26563 0.1875 0.82813 0.26563l2.375 0.29687q0.8125 0.0937 1.5 0.34375 0.70312 0.23438 1.2344 0.65625 0.53125 0.42188 0.8125 1 0.29688 0.59375 0.29688 1.3438 0 0.76563-0.32813 1.4688-0.3125 0.71875-1 1.25-0.67187 0.54688-1.7188 0.85938-1.0312 0.3125-2.5 0.3125-1.2969 0-2.2969-0.26563-0.98438-0.25-1.6719-0.6875t-1.0469-1.0469q-0.34375-0.59375-0.34375-1.2656 0-0.5 0.17187-0.98437 0.17188-0.46875 0.46875-0.875 0.3125-0.40625 0.70313-0.71875 0.40625-0.3125 0.875-0.46875v-0.0937q-0.5625-0.25-0.78125-0.65625-0.21875-0.42188-0.21875-0.8125 0-0.51563 0.34375-0.95313t0.98437-0.6875zm2.6094-1.375q1 0 1.5156-0.64062 0.51563-0.65625 0.51563-1.5781 0-0.4375-0.125-0.89062-0.125-0.45313-0.39063-0.8125-0.26562-0.375-0.67187-0.60938-0.40625-0.23437-0.9375-0.23437-0.51563 0-0.90625 0.20312-0.39063 0.20313-0.65625 0.54688-0.25 0.34375-0.375 0.78125-0.125 0.42187-0.125 0.85937 0 0.45313 0.14062 0.875 0.14063 0.42188 0.40625 0.76563 0.26563 0.32812 0.67188 0.53125 0.40625 0.20312 0.9375 0.20312zm-0.75 5.4531q-0.84375 0.15625-1.4375 0.70312-0.57813 0.54688-0.57813 1.2656 0 0.78125 0.76563 1.1719 0.78125 0.39063 2.25 0.39063 1.4375 0 2.2969-0.40625 0.85938-0.40625 0.85938-1.3125 0-0.875-0.95313-1.25-0.95312-0.35938-3.2031-0.5625zm13.837-12.156q2.1562 0 3.3281 1.0938 1.1719 1.0938 1.1719 3.0625 0 0.28125-0.0312 0.59375-0.0312 0.29687-0.0937 0.59375-0.0625 0.28125-0.15625 0.51562-0.0781 0.23438-0.17187 0.375h-7.125q0.0469 0.73438 0.26562 1.3906 0.21875 0.64062 0.64063 1.125 0.42187 0.48437 1.0156 0.76562t1.4062 0.28125q0.90625 0 1.9219-0.34375 1.0156-0.34375 1.7188-0.85937l0.45312 2q-0.32812 0.20312-0.79687 0.4375-0.45313 0.23437-1.0469 0.4375-0.59375 0.1875-1.2656 0.3125-0.67188 0.14062-1.4062 0.14062-1.3594 0-2.4219-0.46875-1.0469-0.48437-1.7656-1.2969-0.70313-0.82813-1.0781-1.9062-0.35937-1.0781-0.35937-2.25 0-1.2031 0.375-2.2812 0.39062-1.0938 1.125-1.9219 0.73437-0.84375 1.8125-1.3125 1.0938-0.48437 2.4844-0.48437zm-0.0625 2.1094q-1.0312 0-1.7656 0.60938-0.71875 0.59375-1.0312 1.6094h4.6719q0.0312-0.0625 0.0312-0.15625 0.0156-0.10937 0.0156-0.25 0-0.78125-0.54688-1.2969-0.53125-0.51563-1.375-0.51563zm24.32 5.2344v-11.875h2.8125v16.156h-3.4531l-7.0938-11.844v11.844h-2.8125v-16.156h3.4531zm11.373-7.3438q1.5 0 2.5625 0.5 1.0781 0.5 1.7812 1.3438 0.70315 0.84375 1.0312 1.9375t0.3281 2.2969q0 1.1875-0.3281 2.25t-1.0312 1.8594q-0.70312 0.79687-1.7656 1.2656t-2.5 0.46875q-1.5 0-2.5781-0.48437-1.0781-0.5-1.7812-1.3125-0.70312-0.82813-1.0469-1.9062-0.34375-1.0781-0.34375-2.2656 0-1.2031 0.34375-2.2812 0.34375-1.0781 1.0312-1.8906 0.70312-0.82813 1.7812-1.2969 1.0781-0.48437 2.5156-0.48437zm0.0469 9.8906q0.71875 0 1.2344-0.29687 0.53125-0.3125 0.875-0.84375t0.5-1.2031q0.15625-0.6875 0.15625-1.4531 0-0.78125-0.17187-1.5-0.17188-0.71875-0.53125-1.2656-0.34375-0.5625-0.89063-0.89062-0.53125-0.32813-1.2969-0.32813-0.70313 0-1.2188 0.3125-0.51563 0.29688-0.84375 0.8125-0.32813 0.51563-0.48438 1.2031-0.15625 0.67187-0.15625 1.4375 0 0.78125 0.15625 1.5t0.5 1.2969q0.35938 0.5625 0.89063 0.89063 0.54687 0.32812 1.2812 0.32812zm12.855 2.0312q-1.1562 0-2.1094-0.46875-0.9531-0.46875-1.625-1.2656-0.6718-0.8125-1.0468-1.9062-0.3594-1.1094-0.3594-2.4062 0-1.1562 0.2969-2.2188 0.3125-1.0625 0.9375-1.8594 0.6406-0.8125 1.5781-1.2969 0.9531-0.5 2.25-0.5 1.1719 0 2.0937 0.39062 0.9375 0.39063 1.5 1.1094v-7.9844h2.6719v18.109h-2.1562l-0.2032-1.5469h-0.094q-0.6875 0.76563-1.5625 1.3125-0.8594 0.53125-2.1719 0.53125zm0.3438-2.0312q0.3906 0 0.8281-0.10937 0.4375-0.10938 0.8594-0.29688 0.4375-0.20312 0.8281-0.48437t0.6562-0.65625v-4.7031q-0.7343-0.89062-1.5-1.2188-0.75-0.34375-1.4531-0.34375-0.7812 0-1.3437 0.3125-0.5625 0.29688-0.9532 0.84375-0.375 0.53125-0.5625 1.2344-0.1875 0.70312-0.1875 1.4531 0 0.73438 0.1719 1.4531t0.5156 1.2812q0.3438 0.54687 0.875 0.89062 0.5469 0.34375 1.2657 0.34375zm14.326-9.8906q2.1562 0 3.328 1.0938 1.1719 1.0938 1.1719 3.0625 0 0.28125-0.031 0.59375-0.031 0.29687-0.094 0.59375-0.062 0.28125-0.1562 0.51562-0.078 0.23438-0.1719 0.375h-7.125q0.047 0.73438 0.2657 1.3906 0.2187 0.64062 0.6406 1.125 0.4219 0.48437 1.0156 0.76562 0.5938 0.28125 1.4063 0.28125 0.9062 0 1.9218-0.34375t1.7187-0.85937l0.4532 2q-0.3282 0.20312-0.7969 0.4375-0.4531 0.23437-1.0469 0.4375-0.5937 0.1875-1.2656 0.3125-0.6718 0.14062-1.4062 0.14062-1.3594 0-2.4219-0.46875-1.0469-0.48437-1.7656-1.2969-0.7031-0.82813-1.0781-1.9062-0.3594-1.0781-0.3594-2.25 0-1.2031 0.375-2.2812 0.3906-1.0938 1.125-1.9219 0.7344-0.84375 1.8125-1.3125 1.0937-0.48437 2.4844-0.48437zm-0.062 2.1094q-1.0313 0-1.7657 0.60938-0.7187 0.59375-1.0312 1.6094h4.6718q0.031-0.0625 0.031-0.15625 0.016-0.10937 0.016-0.25 0-0.78125-0.5469-1.2969-0.5312-0.51563-1.3749-0.51563z" fill="#fff"/>
</svg>
