<?xml version="1.0" encoding="UTF-8"?>
<svg fill="none" stroke-linecap="square" stroke-miterlimit="10" version="1.1" viewBox="0 0 986.82 638.3" xmlns="http://www.w3.org/2000/svg">
<path d="m467.59 107.6c0-14.09 11.422-25.512 25.512-25.512h163.91c6.7661 0 13.255 2.6878 18.039 7.4722 4.7844 4.7843 7.4722 11.273 7.4722 18.039v102.04c0 14.09-11.422 25.512-25.512 25.512h-163.91c-14.09 0-25.512-11.422-25.512-25.512z" fill="#e06666" fill-rule="evenodd"/>
<path d="m467.59 107.6c0-14.09 11.422-25.512 25.512-25.512h163.91c6.7661 0 13.255 2.6878 18.039 7.4722 4.7844 4.7843 7.4722 11.273 7.4722 18.039v102.04c0 14.09-11.422 25.512-25.512 25.512h-163.91c-14.09 0-25.512-11.422-25.512-25.512z" fill-rule="evenodd" stroke="#002050" stroke-linejoin="round"/>
<path d="m561.61 116q-0.42187 0-0.82812 0t-0.76563-0.0312v6.0938h-2.8125v-16.156q0.35938-0.0156 0.82813-0.0312 0.48437-0.0312 1.0156-0.0469 0.53125-0.0156 1.0469-0.0156 0.53125-0.0156 1-0.0156 1.3594 0 2.4844 0.32813 1.1406 0.32812 1.9375 0.98437 0.8125 0.65625 1.25 1.625t0.4375 2.25q0 1.0156-0.34375 1.9219t-1.0312 1.5938q-0.67187 0.6875-1.7344 1.0938t-2.4844 0.40625zm-0.125-7.8594q-0.39062 0-0.76562 0-0.35938 0-0.70313 0.0312v5.4531q0.34375 0.0156 0.71875 0.0156t0.79688 0q1.3281 0 2-0.73437 0.67187-0.73438 0.67187-2.125 0-1.1719-0.60937-1.9062-0.59375-0.73438-2.1094-0.73438zm12.793 2.2969q1.5 0 2.5625 0.5 1.0781 0.5 1.7812 1.3438 0.70313 0.84375 1.0312 1.9375 0.32813 1.0938 0.32813 2.2969 0 1.1875-0.32813 2.25-0.32812 1.0625-1.0312 1.8594-0.70312 0.79687-1.7656 1.2656t-2.5 0.46875q-1.5 0-2.5781-0.48437-1.0781-0.5-1.7812-1.3125-0.70312-0.82813-1.0469-1.9062-0.34375-1.0781-0.34375-2.2656 0-1.2031 0.34375-2.2812 0.34375-1.0781 1.0312-1.8906 0.70312-0.82813 1.7812-1.2969 1.0781-0.48437 2.5156-0.48437zm0.0469 9.8906q0.71875 0 1.2344-0.29687 0.53125-0.3125 0.875-0.84375t0.5-1.2031q0.15625-0.6875 0.15625-1.4531 0-0.78125-0.17187-1.5-0.17188-0.71875-0.53125-1.2656-0.34375-0.5625-0.89063-0.89062-0.53125-0.32813-1.2969-0.32813-0.70313 0-1.2188 0.3125-0.51563 0.29688-0.84375 0.8125-0.32813 0.51563-0.48438 1.2031-0.15625 0.67187-0.15625 1.4375 0 0.78125 0.15625 1.5t0.5 1.2969q0.35938 0.5625 0.89063 0.89063 0.54687 0.32812 1.2812 0.32812zm12.855 2.0312q-1.1562 0-2.1094-0.46875-0.95313-0.46875-1.625-1.2656-0.67188-0.8125-1.0469-1.9062-0.35937-1.1094-0.35937-2.4062 0-1.1562 0.29687-2.2188 0.3125-1.0625 0.9375-1.8594 0.64063-0.8125 1.5781-1.2969 0.95312-0.5 2.25-0.5 1.1719 0 2.0938 0.39062 0.9375 0.39063 1.5 1.1094v-7.9844h2.6719v18.109h-2.1562l-0.20312-1.5469h-0.0937q-0.6875 0.76563-1.5625 1.3125-0.85938 0.53125-2.1719 0.53125zm0.34375-2.0312q0.39063 0 0.82813-0.10937 0.4375-0.10938 0.85937-0.29688 0.4375-0.20312 0.82813-0.48437 0.39062-0.28125 0.65625-0.65625v-4.7031q-0.73438-0.89062-1.5-1.2188-0.75-0.34375-1.4531-0.34375-0.78125 0-1.3438 0.3125-0.5625 0.29688-0.95312 0.84375-0.375 0.53125-0.5625 1.2344-0.1875 0.70312-0.1875 1.4531 0 0.73438 0.17187 1.4531 0.17188 0.71875 0.51563 1.2812 0.34375 0.54687 0.875 0.89062 0.54687 0.34375 1.2656 0.34375z" fill="#fff"/>
<path d="m485.53 158.1c0-6.8926 5.5875-12.48 12.48-12.48h56.408c3.3099 0 6.4843 1.3149 8.8248 3.6553 2.3405 2.3405 3.6553 5.5148 3.6553 8.8247v49.919c0 6.8925-5.5875 12.48-12.48 12.48h-56.408c-6.8925 0-12.48-5.5875-12.48-12.48z" fill="#900" fill-rule="evenodd"/>
<path d="m485.53 158.1c0-6.8926 5.5875-12.48 12.48-12.48h56.408c3.3099 0 6.4843 1.3149 8.8248 3.6553 2.3405 2.3405 3.6553 5.5148 3.6553 8.8247v49.919c0 6.8925-5.5875 12.48-12.48 12.48h-56.408c-6.8925 0-12.48-5.5875-12.48-12.48z" fill-rule="evenodd" stroke="#002050" stroke-linejoin="round"/>
<path d="m507.69 169.78q-0.5-0.375-1.4375-0.67188-0.92187-0.29687-1.8594-0.29687-0.96875 0-1.625 0.32812-0.65625 0.32813-1.0938 0.875-0.4375 0.54688-0.64063 1.25-0.1875 0.70313-0.1875 1.4688 0 0.84375 0.23438 1.625 0.23437 0.78125 0.70312 1.375t1.1562 0.9375 1.5938 0.34375q0.875 0 1.7969-0.35937 0.92187-0.375 1.5312-0.9375l0.3125 1.4062q-0.60938 0.39062-1.6719 0.75-1.0469 0.34375-2.25 0.34375-1.25 0-2.2031-0.4375-0.9375-0.4375-1.5625-1.1562-0.625-0.73438-0.9375-1.7031t-0.3125-2.0625q0-1.0469 0.28125-1.9844 0.29687-0.95313 0.92187-1.6719 0.64063-0.73437 1.6094-1.1562 0.98437-0.42187 2.3594-0.42187 1.0469 0 2.0469 0.23437 1 0.23438 1.6094 0.625zm7.3164-2.1562q1.3281 0 2.2812 0.45312 0.95312 0.4375 1.5781 1.1875t0.90625 1.7188q0.29688 0.96875 0.29688 2.0312t-0.29688 2.0156q-0.28125 0.9375-0.89062 1.6562-0.60938 0.70312-1.5625 1.125-0.95313 0.40625-2.2344 0.40625-1.3281 0-2.2969-0.4375-0.95313-0.4375-1.5938-1.1562-0.625-0.73438-0.9375-1.6875-0.29688-0.96875-0.29688-2.0312t0.29688-2.0156q0.3125-0.96875 0.92187-1.6875 0.625-0.73437 1.5781-1.1562 0.96875-0.42187 2.25-0.42187zm0.0625 9.4375q0.875 0 1.5156-0.32813 0.64063-0.32812 1.0625-0.875 0.42188-0.5625 0.60938-1.2812 0.20312-0.73437 0.20312-1.5469t-0.20312-1.5781q-0.20313-0.76562-0.64063-1.3438-0.4375-0.57812-1.1094-0.92187-0.65625-0.34375-1.5625-0.34375-0.89063 0-1.5312 0.32812-0.625 0.32813-1.0469 0.875-0.40625 0.53125-0.60937 1.2656-0.1875 0.71875-0.1875 1.5312 0 0.82812 0.20312 1.5938 0.20313 0.75 0.625 1.3438 0.4375 0.57812 1.0938 0.9375 0.65625 0.34375 1.5781 0.34375zm14.764 0.89062v-6.6094q0-1.3125-0.59375-1.875-0.57813-0.5625-1.4844-0.5625-0.54687 0-1.0781 0.17187-0.53125 0.17188-1 0.51563-0.45313 0.32812-0.79688 0.82812-0.34375 0.48438-0.54687 1.1094v6.4219h-1.5156v-10h1.1875l0.17188 1.8594h0.0937q0.28125-0.90625 1.25-1.5469 0.98437-0.64062 2.4375-0.64062 0.70312 0 1.3125 0.1875 0.625 0.17187 1.0781 0.59375 0.46875 0.40625 0.73438 1.0938 0.28125 0.67187 0.28125 1.6406v6.8125zm12.104-5.7656v1.1406h-7.3594v-1.1406z" fill="#fff"/>
<path d="m500.34 194.97h-1.6719v-0.79688l1.7188-0.21875 0.3125-3.0312h1.1562v3.0312h2.3594v1.0156h-2.3594v6.9375q0 0.70312 0.20312 0.92187 0.21875 0.21875 0.65625 0.21875 0.5 0 0.89063-0.15625 0.39062-0.15625 0.6875-0.375l0.3125 1.1562q-0.375 0.17188-0.98438 0.34375-0.59375 0.17188-1.3125 0.17188-0.6875 0-1.0781-0.20313-0.39063-0.1875-0.59375-0.51562-0.1875-0.32813-0.25-0.71875-0.0469-0.40625-0.0469-0.79688zm12.698 8.9844-0.17187-1.7812h-0.0937q-0.25 0.40625-0.6875 0.78125t-0.96875 0.65625-1.1562 0.4375q-0.625 0.17188-1.2344 0.17188-1.4219 0-2.1406-0.82813-0.71875-0.84375-0.71875-2.1094 0-1.25 0.625-1.9844 0.625-0.73437 1.5312-1.1094 0.92187-0.375 1.9375-0.46875 1.0156-0.10938 1.7812-0.10938h0.96875v-0.26562q0-0.82813-0.23438-1.2656-0.21875-0.4375-0.65625-0.73437-0.375-0.25-0.79687-0.34375-0.42188-0.0937-1.1094-0.0937-0.92187 0-1.625 0.25-0.6875 0.23437-1.3438 0.625l-0.34375-1.3125q1.4531-0.84375 3.4844-0.84375 0.79687 0 1.5156 0.14062 0.71875 0.14063 1.2656 0.48438 0.625 0.39062 1 1.1094t0.375 1.7812v6.8125zm-3.8438-1.0156q0.89063 0 1.8906-0.5625 1-0.57813 1.625-1.6406v-2.0156h-0.1875q-0.89063 0-1.7969 0.0625-0.89062 0.0625-1.625 0.32812-0.71875 0.25-1.1719 0.75-0.45313 0.48438-0.45313 1.3281 0 0.85937 0.46875 1.3125 0.46875 0.4375 1.25 0.4375zm9.8471 1.0156h-1.5156v-10h1.5156zm-1.8438-13.656q0-0.4375 0.3125-0.78125 0.3125-0.35937 0.76563-0.35937 0.4375 0 0.78125 0.35937 0.35937 0.34375 0.35937 0.78125 0 0.45313-0.35937 0.76563-0.34375 0.3125-0.78125 0.3125-0.45313 0-0.76563-0.3125t-0.3125-0.76563zm12.259 13.656v-6.6094q0-1.3125-0.59375-1.875-0.57813-0.5625-1.4844-0.5625-0.54687 0-1.0781 0.17187-0.53125 0.17188-1 0.51563-0.45313 0.32812-0.79688 0.82812-0.34375 0.48438-0.54687 1.1094v6.4219h-1.5156v-10h1.1875l0.17188 1.8594h0.0937q0.28125-0.90625 1.25-1.5469 0.98437-0.64062 2.4375-0.64062 0.70312 0 1.3125 0.1875 0.625 0.17187 1.0781 0.59375 0.46875 0.40625 0.73438 1.0938 0.28125 0.67187 0.28125 1.6406v6.8125zm9.3068-10.328q1.9219 0 2.9531 0.96875 1.0469 0.96875 1.0469 2.7188 0 0.375-0.0469 0.76562-0.0312 0.375-0.14063 0.54688h-7.3281v0.21875q0 0.82812 0.21875 1.5938 0.21875 0.75 0.64062 1.3438 0.4375 0.57812 1.0938 0.9375 0.67188 0.34375 1.5938 0.34375 0.51563 0 1.0156-0.10938 0.5-0.125 0.95312-0.3125 0.46875-0.1875 0.85938-0.40625 0.39062-0.21875 0.6875-0.4375l0.26562 1.25q-0.28125 0.17188-0.70312 0.375-0.40625 0.20313-0.90625 0.375-0.5 0.17188-1.1094 0.29688-0.59375 0.125-1.2344 0.125-1.2188 0-2.1562-0.42188-0.9375-0.4375-1.5781-1.1562-0.625-0.73437-0.95312-1.6875-0.32813-0.95312-0.32813-2 0-1.0625 0.34375-2.0312t0.98438-1.7031q0.65625-0.75 1.625-1.1719 0.96875-0.42187 2.2031-0.42187zm-0.0625 1.2188q-1.4375 0-2.2344 0.75-0.78125 0.75-1.0625 1.875h5.9375q0.0156-0.10938 0.0156-0.1875 0-0.0937 0-0.20313 0-0.54687-0.21875-0.96875-0.21875-0.42187-0.59375-0.70312-0.35937-0.28125-0.84375-0.42188-0.46875-0.14062-1-0.14062zm12.229 0.71875q-0.34375-0.20313-0.70313-0.3125-0.34375-0.125-0.67187-0.125-0.4375 0-0.82813 0.23437-0.39062 0.23438-0.71875 0.65625-0.32812 0.40625-0.57812 0.95313-0.25 0.54687-0.375 1.1406v5.8438h-1.5156v-10h1.1875l0.17188 2.1875h0.0937q0.15625-0.5 0.40625-0.95312 0.25-0.45313 0.60937-0.79688 0.35938-0.35937 0.8125-0.5625 0.45313-0.20312 1.0469-0.20312 0.40625 0 0.85937 0.14062 0.45313 0.14063 0.65625 0.35938z" fill="#fff"/>
<path d="m583.26 158.1c0-6.8926 5.5875-12.48 12.48-12.48h56.408c3.3099 0 6.4843 1.3149 8.8248 3.6553 2.3405 2.3405 3.6553 5.5148 3.6553 8.8247v49.919c0 6.8925-5.5875 12.48-12.48 12.48h-56.408c-6.8925 0-12.48-5.5875-12.48-12.48z" fill="#900" fill-rule="evenodd"/>
<path d="m583.26 158.1c0-6.8926 5.5875-12.48 12.48-12.48h56.408c3.3099 0 6.4843 1.3149 8.8248 3.6553 2.3405 2.3405 3.6553 5.5148 3.6553 8.8247v49.919c0 6.8925-5.5875 12.48-12.48 12.48h-56.408c-6.8925 0-12.48-5.5875-12.48-12.48z" fill-rule="evenodd" stroke="#002050" stroke-linejoin="round"/>
<path d="m605.42 169.78q-0.5-0.375-1.4375-0.67188-0.92188-0.29687-1.8594-0.29687-0.96875 0-1.625 0.32812-0.65625 0.32813-1.0938 0.875-0.4375 0.54688-0.64062 1.25-0.1875 0.70313-0.1875 1.4688 0 0.84375 0.23437 1.625 0.23438 0.78125 0.70313 1.375t1.1562 0.9375 1.5938 0.34375q0.875 0 1.7969-0.35937 0.92188-0.375 1.5312-0.9375l0.3125 1.4062q-0.60937 0.39062-1.6719 0.75-1.0469 0.34375-2.25 0.34375-1.25 0-2.2031-0.4375-0.9375-0.4375-1.5625-1.1562-0.625-0.73438-0.9375-1.7031t-0.3125-2.0625q0-1.0469 0.28125-1.9844 0.29688-0.95313 0.92188-1.6719 0.64062-0.73437 1.6094-1.1562 0.98438-0.42187 2.3594-0.42187 1.0469 0 2.0469 0.23437 1 0.23438 1.6094 0.625zm7.3164-2.1562q1.3281 0 2.2812 0.45312 0.95312 0.4375 1.5781 1.1875t0.90625 1.7188q0.29688 0.96875 0.29688 2.0312t-0.29688 2.0156q-0.28125 0.9375-0.89062 1.6562-0.60938 0.70312-1.5625 1.125-0.95313 0.40625-2.2344 0.40625-1.3281 0-2.2969-0.4375-0.95313-0.4375-1.5938-1.1562-0.625-0.73438-0.9375-1.6875-0.29688-0.96875-0.29688-2.0312t0.29688-2.0156q0.3125-0.96875 0.92187-1.6875 0.625-0.73437 1.5781-1.1562 0.96875-0.42187 2.25-0.42187zm0.0625 9.4375q0.875 0 1.5156-0.32813 0.64063-0.32812 1.0625-0.875 0.42188-0.5625 0.60938-1.2812 0.20312-0.73437 0.20312-1.5469t-0.20312-1.5781q-0.20313-0.76562-0.64063-1.3438-0.4375-0.57812-1.1094-0.92187-0.65625-0.34375-1.5625-0.34375-0.89063 0-1.5312 0.32812-0.625 0.32813-1.0469 0.875-0.40625 0.53125-0.60937 1.2656-0.1875 0.71875-0.1875 1.5312 0 0.82812 0.20312 1.5938 0.20313 0.75 0.625 1.3438 0.4375 0.57812 1.0938 0.9375 0.65625 0.34375 1.5781 0.34375zm14.764 0.89062v-6.6094q0-1.3125-0.59375-1.875-0.57813-0.5625-1.4844-0.5625-0.54687 0-1.0781 0.17187-0.53125 0.17188-1 0.51563-0.45313 0.32812-0.79688 0.82812-0.34375 0.48438-0.54687 1.1094v6.4219h-1.5156v-10h1.1875l0.17188 1.8594h0.0937q0.28125-0.90625 1.25-1.5469 0.98437-0.64062 2.4375-0.64062 0.70312 0 1.3125 0.1875 0.625 0.17187 1.0781 0.59375 0.46875 0.40625 0.73438 1.0938 0.28125 0.67187 0.28125 1.6406v6.8125zm12.104-5.7656v1.1406h-7.3594v-1.1406z" fill="#fff"/>
<path d="m598.07 194.97h-1.6719v-0.79688l1.7188-0.21875 0.3125-3.0312h1.1562v3.0312h2.3594v1.0156h-2.3594v6.9375q0 0.70312 0.20313 0.92187 0.21875 0.21875 0.65625 0.21875 0.5 0 0.89062-0.15625 0.39063-0.15625 0.6875-0.375l0.3125 1.1562q-0.375 0.17188-0.98437 0.34375-0.59375 0.17188-1.3125 0.17188-0.6875 0-1.0781-0.20313-0.39062-0.1875-0.59375-0.51562-0.1875-0.32813-0.25-0.71875-0.0469-0.40625-0.0469-0.79688zm12.698 8.9844-0.17187-1.7812h-0.0937q-0.25 0.40625-0.6875 0.78125t-0.96875 0.65625-1.1562 0.4375q-0.625 0.17188-1.2344 0.17188-1.4219 0-2.1406-0.82813-0.71875-0.84375-0.71875-2.1094 0-1.25 0.625-1.9844 0.625-0.73437 1.5312-1.1094 0.92187-0.375 1.9375-0.46875 1.0156-0.10938 1.7812-0.10938h0.96875v-0.26562q0-0.82813-0.23438-1.2656-0.21875-0.4375-0.65625-0.73437-0.375-0.25-0.79687-0.34375-0.42188-0.0937-1.1094-0.0937-0.92187 0-1.625 0.25-0.6875 0.23437-1.3438 0.625l-0.34375-1.3125q1.4531-0.84375 3.4844-0.84375 0.79687 0 1.5156 0.14062 0.71875 0.14063 1.2656 0.48438 0.625 0.39062 1 1.1094t0.375 1.7812v6.8125zm-3.8438-1.0156q0.89063 0 1.8906-0.5625 1-0.57813 1.625-1.6406v-2.0156h-0.1875q-0.89063 0-1.7969 0.0625-0.89062 0.0625-1.625 0.32812-0.71875 0.25-1.1719 0.75-0.45313 0.48438-0.45313 1.3281 0 0.85937 0.46875 1.3125 0.46875 0.4375 1.25 0.4375zm9.8471 1.0156h-1.5156v-10h1.5156zm-1.8438-13.656q0-0.4375 0.3125-0.78125 0.3125-0.35937 0.76563-0.35937 0.4375 0 0.78125 0.35937 0.35937 0.34375 0.35937 0.78125 0 0.45313-0.35937 0.76563-0.34375 0.3125-0.78125 0.3125-0.45313 0-0.76563-0.3125t-0.3125-0.76563zm12.259 13.656v-6.6094q0-1.3125-0.59375-1.875-0.57813-0.5625-1.4844-0.5625-0.54687 0-1.0781 0.17187-0.53125 0.17188-1 0.51563-0.45313 0.32812-0.79688 0.82812-0.34375 0.48438-0.54687 1.1094v6.4219h-1.5156v-10h1.1875l0.17188 1.8594h0.0937q0.28125-0.90625 1.25-1.5469 0.98437-0.64062 2.4375-0.64062 0.70312 0 1.3125 0.1875 0.625 0.17187 1.0781 0.59375 0.46875 0.40625 0.73438 1.0938 0.28125 0.67187 0.28125 1.6406v6.8125zm9.3068-10.328q1.9219 0 2.9531 0.96875 1.0469 0.96875 1.0469 2.7188 0 0.375-0.0469 0.76562-0.0312 0.375-0.14063 0.54688h-7.3281v0.21875q0 0.82812 0.21875 1.5938 0.21875 0.75 0.64062 1.3438 0.4375 0.57812 1.0938 0.9375 0.67188 0.34375 1.5938 0.34375 0.51563 0 1.0156-0.10938 0.5-0.125 0.95312-0.3125 0.46875-0.1875 0.85938-0.40625 0.39062-0.21875 0.6875-0.4375l0.26562 1.25q-0.28125 0.17188-0.70312 0.375-0.40625 0.20313-0.90625 0.375-0.5 0.17188-1.1094 0.29688-0.59375 0.125-1.2344 0.125-1.2188 0-2.1562-0.42188-0.9375-0.4375-1.5781-1.1562-0.625-0.73437-0.95312-1.6875-0.32813-0.95312-0.32813-2 0-1.0625 0.34375-2.0312t0.98438-1.7031q0.65625-0.75 1.625-1.1719 0.96875-0.42187 2.2031-0.42187zm-0.0625 1.2188q-1.4375 0-2.2344 0.75-0.78125 0.75-1.0625 1.875h5.9375q0.0156-0.10938 0.0156-0.1875 0-0.0937 0-0.20313 0-0.54687-0.21875-0.96875-0.21875-0.42187-0.59375-0.70312-0.35937-0.28125-0.84375-0.42188-0.46875-0.14062-1-0.14062zm12.229 0.71875q-0.34375-0.20313-0.70313-0.3125-0.34375-0.125-0.67187-0.125-0.4375 0-0.82813 0.23437-0.39062 0.23438-0.71875 0.65625-0.32812 0.40625-0.57812 0.95313-0.25 0.54687-0.375 1.1406v5.8438h-1.5156v-10h1.1875l0.17188 2.1875h0.0937q0.15625-0.5 0.40625-0.95312 0.25-0.45313 0.60937-0.79688 0.35938-0.35937 0.8125-0.5625 0.45313-0.20312 1.0469-0.20312 0.40625 0 0.85937 0.14062 0.45313 0.14063 0.65625 0.35938z" fill="#fff"/>
<path d="m682.52 158.62h23.402v150.65" fill-opacity="0"/>
<path d="m682.52 158.62h23.402v102.65" fill-rule="evenodd" stroke="#d5a6bd" stroke-linejoin="round" stroke-width="8"/>
<path d="m692.71 261.26 13.214 36.305 13.214-36.305z" fill="#d5a6bd" fill-rule="evenodd" stroke="#d5a6bd" stroke-width="8"/>
</svg>
