<?xml version="1.0" encoding="UTF-8"?>
<svg fill="none" stroke-linecap="square" stroke-miterlimit="10" version="1.1" viewBox="0 0 1305.5 301.87" xmlns="http://www.w3.org/2000/svg">
<path d="m0 0h567.04l37.795 37.795-37.795 37.795h-567.04z" fill="#33b5a1" fill-rule="evenodd"/>
<path d="m170.72 29.52q-1.2031-0.78125-2.9531-1.2969-1.75-0.53125-4-0.53125-2.5 0-4.2188 0.73438-1.7188 0.71875-2.7812 2.0312-1.0625 1.2969-1.5312 3.1563-0.46875 1.8438-0.46875 4.0781 0 5.125 2.2344 7.7344 2.25 2.6094 6.6875 2.6094 2.3594 0 4.3281-0.67187 1.9844-0.67188 3.1875-1.6406l0.73438 2.5q-1.4844 0.89063-3.5938 1.5938-2.1094 0.6875-4.7656 0.6875-3.0625 0-5.2969-1-2.2344-1.0156-3.7188-2.7344-1.4688-1.7188-2.1875-3.9688-0.70313-2.2656-0.70313-4.8125 0-2.6406 0.78125-4.9531 0.79688-2.3281 2.3438-4.0625 1.5469-1.7344 3.8438-2.7344 2.2969-1.0156 5.3594-1.0156 2.0156 0 4.0312 0.4375 2.0156 0.42188 3.4688 1.1719zm12.798 2.7969q2.2812 0 3.9219 0.76563 1.6406 0.76562 2.7031 2.0625 1.0625 1.2812 1.5625 2.9531 0.51562 1.6562 0.51562 3.4844 0 1.8281-0.51562 3.4531-0.5 1.625-1.5469 2.8438-1.0469 1.2031-2.6719 1.9219-1.625 0.70312-3.8281 0.70312-2.2656 0-3.9375-0.75-1.6562-0.75-2.7344-2-1.0781-1.25-1.6094-2.8906-0.51562-1.6406-0.51562-3.4688 0-1.8281 0.51562-3.4688 0.53125-1.6562 1.5938-2.9062t2.7031-1.9688q1.6406-0.73438 3.8438-0.73438zm0.10937 16.203q1.5 0 2.5938-0.5625 1.1094-0.5625 1.8281-1.5 0.73437-0.95313 1.0625-2.2031 0.34375-1.2656 0.34375-2.6406 0-1.4219-0.35938-2.7188-0.35937-1.3125-1.1094-2.2969-0.73438-1-1.875-1.5938-1.1406-0.59375-2.7031-0.59375-1.5312 0-2.625 0.5625-1.0781 0.5625-1.7969 1.5-0.70313 0.92188-1.0469 2.1719-0.32812 1.25-0.32812 2.6406 0 1.4062 0.35937 2.7188 0.35938 1.3125 1.0781 2.3281 0.73437 1 1.875 1.5938 1.1406 0.59375 2.7031 0.59375zm25.347 1.5312v-11.344q0-2.25-1.0156-3.2188-1-0.96875-2.5625-0.96875-0.9375 0-1.8594 0.29687-0.90625 0.29688-1.6875 0.875-0.78125 0.57813-1.3906 1.4219-0.59375 0.84375-0.92188 1.9219v11.016h-2.625v-17.172h2.0625l0.29688 3.2188h0.14062q0.48438-1.5781 2.1562-2.6719 1.6875-1.1094 4.2031-1.1094 1.1875 0 2.25 0.32813 1.0625 0.3125 1.8438 1.0312 0.78125 0.70312 1.25 1.8594t0.46875 2.8281v11.688zm9.0783-15.422h-2.875v-1.375l2.9375-0.375 0.5625-5.1875h1.9844v5.1875h4.0312v1.75h-4.0312v11.906q0 1.2031 0.34375 1.5781 0.35937 0.375 1.1094 0.375 0.85938 0 1.5312-0.26563 0.67188-0.26562 1.1875-0.64062l0.53125 1.9844q-0.64062 0.29688-1.6719 0.59375-1.0156 0.29688-2.25 0.29688-1.2031 0-1.875-0.34375-0.67188-0.32813-1.0156-0.875-0.32812-0.5625-0.42187-1.25-0.0781-0.70313-0.0781-1.375zm21.793 15.422-0.29687-3.0625h-0.15625q-0.4375 0.70312-1.1875 1.3438-0.75 0.64062-1.6719 1.125-0.90625 0.48437-1.9688 0.76562t-2.1094 0.28125q-2.4688 0-3.7031-1.4375-1.2188-1.4375-1.2188-3.6094 0-2.125 1.0781-3.3906 1.0781-1.2656 2.6406-1.9062 1.5781-0.64062 3.3125-0.82812 1.7344-0.1875 3.0469-0.1875h1.6719v-0.4375q0-1.4219-0.39062-2.1719-0.39063-0.75-1.1406-1.2656-0.625-0.40625-1.3594-0.57813-0.73438-0.17187-1.9219-0.17187-1.5625 0-2.7656 0.42187-1.1875 0.40625-2.3125 1.0781l-0.59375-2.25q2.5-1.4531 5.9688-1.4531 1.375 0 2.6094 0.25 1.2344 0.23438 2.1719 0.84375 1.0781 0.67188 1.7031 1.9062 0.64063 1.2188 0.64063 3.0469v11.688zm-6.6094-1.75q1.5312 0 3.25-0.96875 1.7188-0.98438 2.7969-2.8125v-3.4688h-0.32812q-1.5312 0-3.0625 0.125-1.5312 0.10937-2.7812 0.5625-1.25 0.4375-2.0469 1.2812-0.78125 0.82812-0.78125 2.2969 0 1.4531 0.79688 2.2188 0.8125 0.76563 2.1562 0.76563zm16.918 1.75h-2.625v-17.172h2.625zm-3.1719-23.438q0-0.75 0.53125-1.3438 0.54688-0.60937 1.3281-0.60937 0.75 0 1.3438 0.60937 0.59375 0.59375 0.59375 1.3438 0 0.78125-0.59375 1.3281-0.59375 0.53125-1.3438 0.53125-0.78125 0-1.3281-0.53125-0.53125-0.54688-0.53125-1.3281zm21.046 23.438v-11.344q0-2.25-1.0156-3.2188-1-0.96875-2.5625-0.96875-0.9375 0-1.8594 0.29687-0.90625 0.29688-1.6875 0.875-0.78125 0.57813-1.3906 1.4219-0.59375 0.84375-0.92188 1.9219v11.016h-2.625v-17.172h2.0625l0.29688 3.2188h0.14062q0.48438-1.5781 2.1562-2.6719 1.6875-1.1094 4.2031-1.1094 1.1875 0 2.25 0.32813 1.0625 0.3125 1.8438 1.0312 0.78125 0.70312 1.25 1.8594t0.46875 2.8281v11.688zm15.969-17.734q3.2969 0 5.0781 1.6719 1.7969 1.6562 1.7969 4.6719 0 0.64063-0.0781 1.2969t-0.25 0.95312h-12.594v0.375q0 1.4062 0.375 2.7188t1.125 2.3281q0.75 1 1.8906 1.5938 1.1406 0.59375 2.7031 0.59375 0.89063 0 1.75-0.20313 0.85938-0.20312 1.6406-0.51562 0.78125-0.32813 1.4531-0.70313 0.67188-0.375 1.2031-0.75l0.45312 2.1406q-0.5 0.29687-1.2031 0.65625-0.70313 0.34375-1.5625 0.64062-0.85938 0.29688-1.8906 0.5-1.0312 0.21875-2.1406 0.21875-2.0938 0-3.7031-0.73437-1.5938-0.73438-2.6875-1.9844-1.0781-1.25-1.6406-2.8906-0.5625-1.6406-0.5625-3.4219 0-1.8438 0.57812-3.5 0.57813-1.6562 1.7031-2.9219 1.125-1.2812 2.7812-2 1.6562-0.73438 3.7812-0.73438zm-0.10938 2.0938q-2.4531 0-3.8281 1.2969-1.3594 1.2812-1.8438 3.2188h10.188q0.0469-0.1875 0.0469-0.32813 0-0.15625 0-0.34375 0-0.9375-0.375-1.6562-0.375-0.73437-1.0156-1.2188-0.625-0.48437-1.4531-0.71875-0.8125-0.25-1.7188-0.25zm20.986 1.2344q-0.59375-0.34375-1.2031-0.54688-0.59375-0.20312-1.1562-0.20312-0.73437 0-1.4062 0.42187-0.67187 0.40625-1.2344 1.1094-0.5625 0.70312-1 1.6406-0.42188 0.9375-0.64063 1.9375v10.047h-2.625v-17.172h2.0625l0.29688 3.7656h0.14062q0.26563-0.85938 0.6875-1.6406 0.4375-0.78125 1.0469-1.375 0.625-0.59375 1.4062-0.95312 0.78125-0.35938 1.7969-0.35938 0.70313 0 1.4844 0.25 0.78125 0.23438 1.125 0.60938zm21.613 0q-0.59375-0.34375-1.2031-0.54688-0.59375-0.20312-1.1562-0.20312-0.73438 0-1.4062 0.42187-0.67188 0.40625-1.2344 1.1094-0.5625 0.70312-1 1.6406-0.42187 0.9375-0.64062 1.9375v10.047h-2.625v-17.172h2.0625l0.29687 3.7656h0.14063q0.26562-0.85938 0.6875-1.6406 0.4375-0.78125 1.0469-1.375 0.625-0.59375 1.4062-0.95312 0.78125-0.35938 1.7969-0.35938 0.70312 0 1.4844 0.25 0.78125 0.23438 1.125 0.60938zm6.498-2.7656v11.344q0 1.1562 0.26562 1.9531 0.28125 0.78125 0.75 1.25 0.46875 0.45312 1.125 0.67187 0.65625 0.20313 1.4375 0.20313 0.9375 0 1.8438-0.28125 0.92188-0.28125 1.7031-0.84375t1.375-1.375q0.60937-0.82813 0.9375-1.9062v-11.016h2.6094v17.172h-2.0469l-0.29688-3.2031h-0.15625q-0.48437 1.5625-2.1719 2.6094-1.6719 1.0469-4.1719 1.0469-1.1875 0-2.2656-0.3125-1.0625-0.29687-1.8438-0.98437t-1.25-1.8281q-0.46875-1.1406-0.46875-2.8125v-11.688zm29.932 17.172v-11.344q0-2.25-1.0156-3.2188-1-0.96875-2.5625-0.96875-0.9375 0-1.8594 0.29687-0.90625 0.29688-1.6875 0.875-0.78125 0.57813-1.3906 1.4219-0.59375 0.84375-0.92187 1.9219v11.016h-2.625v-17.172h2.0625l0.29687 3.2188h0.14063q0.48437-1.5781 2.1562-2.6719 1.6875-1.1094 4.2031-1.1094 1.1875 0 2.25 0.32813 1.0625 0.3125 1.8438 1.0312 0.78125 0.70312 1.25 1.8594t0.46875 2.8281v11.688zm20.344 0v-11.344q0-2.25-1.0156-3.2188-1-0.96875-2.5625-0.96875-0.9375 0-1.8594 0.29687-0.90625 0.29688-1.6875 0.875-0.78125 0.57813-1.3906 1.4219-0.59375 0.84375-0.92188 1.9219v11.016h-2.625v-17.172h2.0625l0.29688 3.2188h0.14062q0.48438-1.5781 2.1562-2.6719 1.6875-1.1094 4.2031-1.1094 1.1875 0 2.25 0.32813 1.0625 0.3125 1.8438 1.0312 0.78125 0.70312 1.25 1.8594t0.46875 2.8281v11.688zm10.906 0h-2.625v-17.172h2.625zm-3.1719-23.438q0-0.75 0.53125-1.3438 0.54687-0.60937 1.3281-0.60937 0.75 0 1.3438 0.60937 0.59375 0.59375 0.59375 1.3438 0 0.78125-0.59375 1.3281-0.59375 0.53125-1.3438 0.53125-0.78125 0-1.3281-0.53125-0.53125-0.54688-0.53125-1.3281zm21.046 23.438v-11.344q0-2.25-1.0156-3.2188-1-0.96875-2.5625-0.96875-0.9375 0-1.8594 0.29687-0.90625 0.29688-1.6875 0.875-0.78125 0.57813-1.3906 1.4219-0.59375 0.84375-0.92188 1.9219v11.016h-2.625v-17.172h2.0625l0.29688 3.2188h0.14062q0.48438-1.5781 2.1562-2.6719 1.6875-1.1094 4.2031-1.1094 1.1875 0 2.25 0.32813 1.0625 0.3125 1.8438 1.0312 0.78125 0.70312 1.25 1.8594t0.46875 2.8281v11.688zm10.641-5.2969q-1.7969-0.71875-2.5781-2.2656-0.78125-1.5469-0.78125-3.3438 0-1.4531 0.48437-2.6719 0.48438-1.2344 1.3906-2.1719 0.92187-0.9375 2.2031-1.4531 1.2969-0.53125 2.9375-0.53125 0.96875 0 1.9219 0.1875 0.95312 0.1875 1.6562 0.5625 1.5781-0.0312 2.9375-0.17187 1.3594-0.15625 2.5625-0.5l0.17187 0.15625-0.25 2.0469-0.1875 0.1875-3.4062-0.15625-0.0312 0.125q0.96875 0.78125 1.4062 2.0469 0.45313 1.2656 0.45313 2.4688 0 1.2188-0.46875 2.3438-0.45313 1.125-1.3594 1.9688-0.89062 0.82812-2.2188 1.3438-1.3281 0.5-3.0312 0.5-0.42187 0-0.71875-0.0156-0.29687-0.0312-0.5625-0.0312-0.78125 0.26563-1.1719 0.71875-0.39063 0.4375-0.39063 0.75 0 0.35938 0.5 0.64063t1.625 0.39062l3.625 0.375q1.2344 0.10938 2.2969 0.51563 1.0625 0.39062 1.8438 1.0156 0.78125 0.60938 1.25 1.4844t0.46875 1.9844q0 1.0938-0.48438 2.2188-0.48437 1.1406-1.4531 1.9688-0.96875 0.82813-2.6875 1.3438-1.7188 0.51563-3.9688 0.51563-1.8906 0-3.4062-0.39063-1.5156-0.39062-2.5469-1.0781-1.0156-0.6875-1.5625-1.5938-0.54687-0.89063-0.54687-1.8906 0-0.75 0.29687-1.4844 0.3125-0.71875 0.79688-1.3594 0.48437-0.625 1.125-1.125 0.65625-0.48437 1.375-0.73437v-0.15625q-1.5312-0.70313-1.5312-1.9375 0-0.78125 0.57812-1.4062 0.57813-0.64063 1.4375-1.25zm3.8125-1.2031q1.0312 0 1.8281-0.34375 0.8125-0.35938 1.375-0.9375 0.5625-0.57813 0.85937-1.3594 0.29688-0.78125 0.29688-1.6406 0-0.85938-0.29688-1.75-0.29687-0.90625-0.875-1.625-0.57812-0.73438-1.4375-1.1875-0.85937-0.45313-1.9844-0.45313-1.0781 0-1.8906 0.4375-0.79687 0.42188-1.3438 1.0938-0.53125 0.67188-0.79687 1.5-0.26563 0.82813-0.26563 1.6406 0 0.85937 0.28125 1.6875 0.28125 0.8125 0.85938 1.4688 0.57812 0.65625 1.4219 1.0625t1.9688 0.40625zm-1.2031 6.6875q-0.85938 0-1.5938 0.32812-0.71875 0.34375-1.2656 0.85938-0.53125 0.53125-0.85937 1.1719-0.3125 0.65625-0.3125 1.2969 0 1.4219 1.5156 2.25 1.5156 0.84375 4.0781 0.84375 1.2344 0 2.2969-0.20313 1.0625-0.20312 1.8281-0.64062 0.76562-0.42188 1.2188-1.0469 0.45312-0.60937 0.45312-1.4688 0-1.6719-1.8125-2.4062-1.8125-0.71875-5.5469-0.98437z" fill="#fff"/>
<path d="m0 75.36h471.04l37.795 37.795-37.795 37.795h-471.04z" fill="#f6b347" fill-rule="evenodd"/>
<path d="m103.86 100.77q1.2969-0.0781 2.7656-0.125 1.4844-0.0625 2.7812-0.0625 2.0156 0 3.6562 0.46875 1.6562 0.46875 2.8281 1.375 1.1719 0.89062 1.8281 2.2188 0.65625 1.3125 0.65625 3.0312 0 2.3906-1.3438 4.2656-1.3438 1.8594-4.1406 2.6094l9.4375 10.859h-3.4688l-9.2188-10.531q-1.6406 0-2.9844-0.10937v10.641h-2.7969zm5.7812 2.2812q-0.78125 0-1.5469 0.0156-0.76562 0.0156-1.4375 0.0625v9.2188q0.67188 0.0781 1.4375 0.0781 0.76563 0 1.625 0 2.75 0 4.1562-1.2812 1.4062-1.2969 1.4062-3.7656 0-1.9375-1.2656-3.125-1.25-1.2031-4.375-1.2031zm22.722 4.625q3.2969 0 5.0781 1.6719 1.7969 1.6562 1.7969 4.6719 0 0.64062-0.0781 1.2969t-0.25 0.95313h-12.594v0.375q0 1.4062 0.375 2.7188t1.125 2.3281q0.75 1 1.8906 1.5938 1.1406 0.59375 2.7031 0.59375 0.89062 0 1.75-0.20312 0.85937-0.20313 1.6406-0.51563 0.78125-0.32812 1.4531-0.70312 0.67187-0.375 1.2031-0.75l0.45313 2.1406q-0.5 0.29688-1.2031 0.65625-0.70312 0.34375-1.5625 0.64063-0.85937 0.29687-1.8906 0.5-1.0312 0.21875-2.1406 0.21875-2.0938 0-3.7031-0.73438-1.5938-0.73437-2.6875-1.9844-1.0781-1.25-1.6406-2.8906-0.5625-1.6406-0.5625-3.4219 0-1.8438 0.57813-3.5 0.57812-1.6562 1.7031-2.9219 1.125-1.2812 2.7812-2 1.6562-0.73437 3.7812-0.73437zm-0.10937 2.0938q-2.4531 0-3.8281 1.2969-1.3594 1.2812-1.8438 3.2188h10.188q0.0469-0.1875 0.0469-0.32812 0-0.15625 0-0.34375 0-0.9375-0.375-1.6562-0.375-0.73438-1.0156-1.2188-0.625-0.48438-1.4531-0.71875-0.8125-0.25-1.7188-0.25zm16.767 0q-1.7969 0-2.6094 0.65625-0.79688 0.65625-0.79688 1.7656 0 0.375 0.10938 0.79688 0.125 0.40625 0.4375 0.76562 0.3125 0.34375 0.85937 0.67188 0.54688 0.3125 1.4375 0.5l2.6562 0.59375q1.5625 0.32812 2.5156 0.90625 0.95312 0.57812 1.4688 1.25 0.53125 0.67187 0.6875 1.375 0.17187 0.6875 0.17187 1.2812 0 1.1562-0.46875 2.1719-0.46875 1-1.3438 1.75t-2.1406 1.1719q-1.2656 0.4375-2.8438 0.4375-1.9688 0-3.6562-0.57813-1.6719-0.57812-2.6875-1.2969l0.67187-2.4219q1.3438 1.2344 2.9844 1.7969 1.6562 0.54687 2.9531 0.54687 1.875 0 2.8438-0.90625 0.96875-0.92187 0.96875-1.9219 0-0.34375-0.0469-0.76563-0.0312-0.4375-0.29688-0.875-0.25-0.45312-0.78125-0.84375-0.51562-0.39062-1.4844-0.60937l-3.5938-0.90625q-1.2344-0.29688-2.0156-0.78125-0.78125-0.48438-1.2344-1.0625-0.4375-0.57813-0.625-1.2344t-0.1875-1.3281q0-2.2656 1.6875-3.625 1.7031-1.375 4.5469-1.375 1.4531 0 3.125 0.39062 1.6875 0.39063 2.8438 1.1406l-0.70312 2.25q-0.75-0.64063-2.2344-1.1562-1.4688-0.53125-3.2188-0.53125zm12.212 0.21875h-2.875v-1.375l2.9375-0.375 0.5625-5.1875h1.9844v5.1875h4.0312v1.75h-4.0312v11.906q0 1.2031 0.34375 1.5781 0.35937 0.375 1.1094 0.375 0.85938 0 1.5312-0.26562 0.67188-0.26563 1.1875-0.64063l0.53125 1.9844q-0.64062 0.29687-1.6719 0.59375-1.0156 0.29687-2.25 0.29687-1.2031 0-1.875-0.34375-0.67188-0.32812-1.0156-0.875-0.32812-0.5625-0.42187-1.25-0.0781-0.70312-0.0781-1.375zm21.793 15.422-0.29687-3.0625h-0.15625q-0.4375 0.70313-1.1875 1.3438-0.75 0.64063-1.6719 1.125-0.90625 0.48438-1.9688 0.76563t-2.1094 0.28125q-2.4688 0-3.7031-1.4375-1.2188-1.4375-1.2188-3.6094 0-2.125 1.0781-3.3906 1.0781-1.2656 2.6406-1.9062 1.5781-0.64063 3.3125-0.82813 1.7344-0.1875 3.0469-0.1875h1.6719v-0.4375q0-1.4219-0.39062-2.1719-0.39063-0.75-1.1406-1.2656-0.625-0.40625-1.3594-0.57812-0.73438-0.17188-1.9219-0.17188-1.5625 0-2.7656 0.42188-1.1875 0.40625-2.3125 1.0781l-0.59375-2.25q2.5-1.4531 5.9688-1.4531 1.375 0 2.6094 0.25 1.2344 0.23437 2.1719 0.84375 1.0781 0.67187 1.7031 1.9062 0.64063 1.2188 0.64063 3.0469v11.688zm-6.6094-1.75q1.5312 0 3.25-0.96875 1.7188-0.98437 2.7969-2.8125v-3.4688h-0.32812q-1.5312 0-3.0625 0.125-1.5312 0.10938-2.7812 0.5625-1.25 0.4375-2.0469 1.2812-0.78125 0.82813-0.78125 2.2969 0 1.4531 0.79688 2.2188 0.8125 0.76562 2.1562 0.76562zm23.558-12.656q-0.59375-0.34375-1.2031-0.54687-0.59375-0.20313-1.1562-0.20313-0.73438 0-1.4062 0.42188-0.67188 0.40625-1.2344 1.1094-0.5625 0.70313-1 1.6406-0.42187 0.9375-0.64062 1.9375v10.047h-2.625v-17.172h2.0625l0.29687 3.7656h0.14063q0.26562-0.85937 0.6875-1.6406 0.4375-0.78125 1.0469-1.375 0.625-0.59375 1.4062-0.95313 0.78125-0.35937 1.7969-0.35937 0.70312 0 1.4844 0.25 0.78125 0.23437 1.125 0.60937zm4.8574-1.0156h-2.875v-1.375l2.9375-0.375 0.5625-5.1875h1.9844v5.1875h4.0312v1.75h-4.0312v11.906q0 1.2031 0.34375 1.5781 0.35938 0.375 1.1094 0.375 0.85937 0 1.5312-0.26562 0.67187-0.26563 1.1875-0.64063l0.53125 1.9844q-0.64063 0.29687-1.6719 0.59375-1.0156 0.29687-2.25 0.29687-1.2031 0-1.875-0.34375-0.67187-0.32812-1.0156-0.875-0.32813-0.5625-0.42188-1.25-0.0781-0.70312-0.0781-1.375zm15.934-0.21875q-1.7969 0-2.6094 0.65625-0.79688 0.65625-0.79688 1.7656 0 0.375 0.10938 0.79688 0.125 0.40625 0.4375 0.76562 0.3125 0.34375 0.85937 0.67188 0.54688 0.3125 1.4375 0.5l2.6562 0.59375q1.5625 0.32812 2.5156 0.90625 0.95312 0.57812 1.4688 1.25 0.53125 0.67187 0.6875 1.375 0.17187 0.6875 0.17187 1.2812 0 1.1562-0.46875 2.1719-0.46875 1-1.3438 1.75t-2.1406 1.1719q-1.2656 0.4375-2.8438 0.4375-1.9688 0-3.6562-0.57813-1.6719-0.57812-2.6875-1.2969l0.67187-2.4219q1.3438 1.2344 2.9844 1.7969 1.6562 0.54687 2.9531 0.54687 1.875 0 2.8438-0.90625 0.96875-0.92187 0.96875-1.9219 0-0.34375-0.0469-0.76563-0.0312-0.4375-0.29688-0.875-0.25-0.45312-0.78125-0.84375-0.51562-0.39062-1.4844-0.60937l-3.5938-0.90625q-1.2344-0.29688-2.0156-0.78125-0.78125-0.48438-1.2344-1.0625-0.4375-0.57813-0.625-1.2344t-0.1875-1.3281q0-2.2656 1.6875-3.625 1.7031-1.375 4.5469-1.375 1.4531 0 3.125 0.39062 1.6875 0.39063 2.8438 1.1406l-0.70312 2.25q-0.75-0.64063-2.2344-1.1562-1.4688-0.53125-3.2188-0.53125zm33.967 1.6094q-0.85938-0.64062-2.4688-1.1406-1.5938-0.5-3.2031-0.5-1.6406 0-2.7812 0.5625-1.1406 0.54687-1.8906 1.4844t-1.0938 2.1562q-0.32813 1.2031-0.32813 2.5156 0 1.4531 0.40625 2.7969 0.42188 1.3438 1.2188 2.3594 0.8125 1 1.9844 1.5938 1.1719 0.59375 2.75 0.59375 1.4844 0 3.0625-0.625 1.5938-0.64063 2.6406-1.6094l0.53125 2.4219q-1.0469 0.67187-2.8594 1.2812-1.8125 0.59375-3.8594 0.59375-2.1719 0-3.7969-0.75t-2.6875-2-1.6094-2.9062q-0.53125-1.6719-0.53125-3.5312 0-1.7969 0.5-3.4219t1.5781-2.875q1.0938-1.25 2.7656-1.9688 1.6875-0.73437 4.0312-0.73437 1.7969 0 3.5156 0.42187 1.7188 0.40625 2.7656 1.0781zm12.543-3.7031q2.2812 0 3.9219 0.76562 1.6406 0.76563 2.7031 2.0625 1.0625 1.2812 1.5625 2.9531 0.51563 1.6562 0.51563 3.4844 0 1.8281-0.51563 3.4531-0.5 1.625-1.5469 2.8438-1.0469 1.2031-2.6719 1.9219-1.625 0.70313-3.8281 0.70313-2.2656 0-3.9375-0.75-1.6562-0.75-2.7344-2-1.0781-1.25-1.6094-2.8906-0.51563-1.6406-0.51563-3.4688 0-1.8281 0.51563-3.4688 0.53125-1.6562 1.5938-2.9062t2.7031-1.9688q1.6406-0.73437 3.8438-0.73437zm0.10938 16.203q1.5 0 2.5938-0.5625 1.1094-0.5625 1.8281-1.5 0.73438-0.95312 1.0625-2.2031 0.34375-1.2656 0.34375-2.6406 0-1.4219-0.35937-2.7188-0.35938-1.3125-1.1094-2.2969-0.73437-1-1.875-1.5938-1.1406-0.59375-2.7031-0.59375-1.5312 0-2.625 0.5625-1.0781 0.5625-1.7969 1.5-0.70312 0.92187-1.0469 2.1719-0.32813 1.25-0.32813 2.6406 0 1.4062 0.35938 2.7188 0.35937 1.3125 1.0781 2.3281 0.73438 1 1.875 1.5938 1.1406 0.59375 2.7031 0.59375zm25.347 1.5312v-11.344q0-2.25-1.0156-3.2188-1-0.96875-2.5625-0.96875-0.9375 0-1.8594 0.29688-0.90625 0.29687-1.6875 0.875-0.78125 0.57812-1.3906 1.4219-0.59375 0.84375-0.92188 1.9219v11.016h-2.625v-17.172h2.0625l0.29688 3.2188h0.14062q0.48438-1.5781 2.1562-2.6719 1.6875-1.1094 4.2031-1.1094 1.1875 0 2.25 0.32812 1.0625 0.3125 1.8438 1.0312 0.78125 0.70313 1.25 1.8594t0.46875 2.8281v11.688zm9.0782-15.422h-2.875v-1.375l2.9375-0.375 0.5625-5.1875h1.9844v5.1875h4.0312v1.75h-4.0312v11.906q0 1.2031 0.34375 1.5781 0.35938 0.375 1.1094 0.375 0.85937 0 1.5312-0.26562 0.67187-0.26563 1.1875-0.64063l0.53125 1.9844q-0.64063 0.29687-1.6719 0.59375-1.0156 0.29687-2.25 0.29687-1.2031 0-1.875-0.34375-0.67187-0.32812-1.0156-0.875-0.32813-0.5625-0.42188-1.25-0.0781-0.70312-0.0781-1.375zm21.793 15.422-0.29688-3.0625h-0.15625q-0.4375 0.70313-1.1875 1.3438-0.75 0.64063-1.6719 1.125-0.90625 0.48438-1.9688 0.76563t-2.1094 0.28125q-2.4688 0-3.7031-1.4375-1.2188-1.4375-1.2188-3.6094 0-2.125 1.0781-3.3906 1.0781-1.2656 2.6406-1.9062 1.5781-0.64063 3.3125-0.82813 1.7344-0.1875 3.0469-0.1875h1.6719v-0.4375q0-1.4219-0.39063-2.1719-0.39062-0.75-1.1406-1.2656-0.625-0.40625-1.3594-0.57812-0.73437-0.17188-1.9219-0.17188-1.5625 0-2.7656 0.42188-1.1875 0.40625-2.3125 1.0781l-0.59375-2.25q2.5-1.4531 5.9688-1.4531 1.375 0 2.6094 0.25 1.2344 0.23437 2.1719 0.84375 1.0781 0.67187 1.7031 1.9062 0.64062 1.2188 0.64062 3.0469v11.688zm-6.6094-1.75q1.5312 0 3.25-0.96875 1.7188-0.98437 2.7969-2.8125v-3.4688h-0.32813q-1.5312 0-3.0625 0.125-1.5312 0.10938-2.7812 0.5625-1.25 0.4375-2.0469 1.2812-0.78125 0.82813-0.78125 2.2969 0 1.4531 0.79687 2.2188 0.8125 0.76562 2.1562 0.76562zm16.918 1.75h-2.625v-17.172h2.625zm-3.1719-23.438q0-0.75 0.53125-1.3438 0.54688-0.60937 1.3281-0.60937 0.75 0 1.3438 0.60937 0.59375 0.59375 0.59375 1.3438 0 0.78125-0.59375 1.3281-0.59375 0.53125-1.3438 0.53125-0.78125 0-1.3281-0.53125-0.53125-0.54688-0.53125-1.3281zm21.046 23.438v-11.344q0-2.25-1.0156-3.2188-1-0.96875-2.5625-0.96875-0.9375 0-1.8594 0.29688-0.90625 0.29687-1.6875 0.875-0.78125 0.57812-1.3906 1.4219-0.59375 0.84375-0.92188 1.9219v11.016h-2.625v-17.172h2.0625l0.29688 3.2188h0.14062q0.48438-1.5781 2.1562-2.6719 1.6875-1.1094 4.2031-1.1094 1.1875 0 2.25 0.32812 1.0625 0.3125 1.8438 1.0312 0.78125 0.70313 1.25 1.8594t0.46875 2.8281v11.688zm15.969-17.734q3.2969 0 5.0781 1.6719 1.7969 1.6562 1.7969 4.6719 0 0.64062-0.0781 1.2969t-0.25 0.95313h-12.594v0.375q0 1.4062 0.375 2.7188t1.125 2.3281q0.75 1 1.8906 1.5938 1.1406 0.59375 2.7031 0.59375 0.89063 0 1.75-0.20312 0.85938-0.20313 1.6406-0.51563 0.78125-0.32812 1.4531-0.70312 0.67188-0.375 1.2031-0.75l0.45312 2.1406q-0.5 0.29688-1.2031 0.65625-0.70313 0.34375-1.5625 0.64063-0.85938 0.29687-1.8906 0.5-1.0312 0.21875-2.1406 0.21875-2.0938 0-3.7031-0.73438-1.5938-0.73437-2.6875-1.9844-1.0781-1.25-1.6406-2.8906-0.5625-1.6406-0.5625-3.4219 0-1.8438 0.57812-3.5 0.57813-1.6562 1.7031-2.9219 1.125-1.2812 2.7812-2 1.6562-0.73437 3.7812-0.73437zm-0.10938 2.0938q-2.4531 0-3.8281 1.2969-1.3594 1.2812-1.8438 3.2188h10.188q0.0469-0.1875 0.0469-0.32812 0-0.15625 0-0.34375 0-0.9375-0.375-1.6562-0.375-0.73438-1.0156-1.2188-0.625-0.48438-1.4531-0.71875-0.8125-0.25-1.7188-0.25zm20.986 1.2344q-0.59375-0.34375-1.2031-0.54687-0.59375-0.20313-1.1562-0.20313-0.73437 0-1.4062 0.42188-0.67187 0.40625-1.2344 1.1094-0.5625 0.70313-1 1.6406-0.42188 0.9375-0.64063 1.9375v10.047h-2.625v-17.172h2.0625l0.29688 3.7656h0.14062q0.26563-0.85937 0.6875-1.6406 0.4375-0.78125 1.0469-1.375 0.625-0.59375 1.4062-0.95313 0.78125-0.35937 1.7969-0.35937 0.70313 0 1.4844 0.25 0.78125 0.23437 1.125 0.60937z" fill="#fff"/>
<path d="m0 150.49h374.99l37.844 37.844-37.844 37.844h-374.99z" fill="#9fbadd" fill-rule="evenodd"/>
<path d="m41.335 191.03q0 4.0312 1.7656 5.7969 1.7812 1.75 4.9219 1.75 3.125 0 4.9219-1.75 1.7969-1.7656 1.7969-5.7969v-15.078h2.6094v16.359q0 1.8281-0.5625 3.4219-0.5625 1.5781-1.7188 2.75-1.1562 1.1719-2.9219 1.8438-1.75 0.67187-4.125 0.67187-2.625 0-4.4375-0.67187-1.7969-0.67188-2.9219-1.8438-1.125-1.1719-1.625-2.75-0.5-1.5938-0.5-3.4219v-16.359h2.7969zm34.155 9.5625v-11.344q0-2.25-1.0156-3.2188-1-0.96875-2.5625-0.96875-0.9375 0-1.8594 0.29688-0.90625 0.29687-1.6875 0.875-0.78125 0.57812-1.3906 1.4219-0.59375 0.84375-0.92188 1.9219v11.016h-2.625v-17.172h2.0625l0.29688 3.2188h0.14062q0.48438-1.5781 2.1562-2.6719 1.6875-1.1094 4.2031-1.1094 1.1875 0 2.25 0.32812 1.0625 0.3125 1.8438 1.0312 0.78125 0.70313 1.25 1.8594t0.46875 2.8281v11.688zm20.344 0v-11.344q0-2.2812-1.0156-3.2344-1-0.95313-2.5625-0.95313-0.9375 0-1.8594 0.29688-0.90625 0.29687-1.6875 0.875-0.78125 0.57812-1.3906 1.4219-0.59375 0.84375-0.92188 1.9219v11.016h-2.625v-27.625h2.625v13.672q0.48438-1.5781 2.0938-2.6719 1.625-1.1094 4.1406-1.1094 1.1875 0 2.25 0.32812 1.0625 0.3125 1.8438 1.0312 0.78125 0.70313 1.25 1.8594t0.46875 2.8281v11.688zm15.969-17.734q3.2969 0 5.0781 1.6719 1.7969 1.6562 1.7969 4.6719 0 0.64062-0.0781 1.2969t-0.25 0.95313h-12.594v0.375q0 1.4062 0.375 2.7188t1.125 2.3281q0.75 1 1.8906 1.5938 1.1406 0.59375 2.7031 0.59375 0.89062 0 1.75-0.20312 0.85937-0.20313 1.6406-0.51563 0.78125-0.32812 1.4531-0.70312 0.67187-0.375 1.2031-0.75l0.45313 2.1406q-0.5 0.29688-1.2031 0.65625-0.70312 0.34375-1.5625 0.64063-0.85937 0.29687-1.8906 0.5-1.0312 0.21875-2.1406 0.21875-2.0938 0-3.7031-0.73438-1.5938-0.73437-2.6875-1.9844-1.0781-1.25-1.6406-2.8906-0.5625-1.6406-0.5625-3.4219 0-1.8438 0.57813-3.5 0.57812-1.6562 1.7031-2.9219 1.125-1.2812 2.7812-2 1.6562-0.73437 3.7812-0.73437zm-0.10937 2.0938q-2.4531 0-3.8281 1.2969-1.3594 1.2812-1.8438 3.2188h10.188q0.0469-0.1875 0.0469-0.32812 0-0.15625 0-0.34375 0-0.9375-0.375-1.6562-0.375-0.73438-1.0156-1.2188-0.625-0.48438-1.4531-0.71875-0.8125-0.25-1.7188-0.25zm22.627 15.641-0.29688-3.0625h-0.15625q-0.4375 0.70313-1.1875 1.3438-0.75 0.64063-1.6719 1.125-0.90625 0.48438-1.9688 0.76563t-2.1094 0.28125q-2.4688 0-3.7031-1.4375-1.2188-1.4375-1.2188-3.6094 0-2.125 1.0781-3.3906 1.0781-1.2656 2.6406-1.9062 1.5781-0.64063 3.3125-0.82813 1.7344-0.1875 3.0469-0.1875h1.6719v-0.4375q0-1.4219-0.39063-2.1719-0.39062-0.75-1.1406-1.2656-0.625-0.40625-1.3594-0.57812-0.73437-0.17188-1.9219-0.17188-1.5625 0-2.7656 0.42188-1.1875 0.40625-2.3125 1.0781l-0.59375-2.25q2.5-1.4531 5.9688-1.4531 1.375 0 2.6094 0.25 1.2344 0.23437 2.1719 0.84375 1.0781 0.67187 1.7031 1.9062 0.64062 1.2188 0.64062 3.0469v11.688zm-6.6094-1.75q1.5312 0 3.25-0.96875 1.7188-0.98437 2.7969-2.8125v-3.4688h-0.32813q-1.5312 0-3.0625 0.125-1.5312 0.10938-2.7812 0.5625-1.25 0.4375-2.0469 1.2812-0.78125 0.82813-0.78125 2.2969 0 1.4531 0.79687 2.2188 0.8125 0.76562 2.1562 0.76562zm17.136 1.75h-2.6094v-27.625h2.6094zm6.8372-15.422h-2.875v-1.375l2.9375-0.375 0.5625-5.1875h1.9844v5.1875h4.0312v1.75h-4.0312v11.906q0 1.2031 0.34375 1.5781 0.35938 0.375 1.1094 0.375 0.85937 0 1.5312-0.26562 0.67187-0.26563 1.1875-0.64063l0.53125 1.9844q-0.64063 0.29687-1.6719 0.59375-1.0156 0.29687-2.25 0.29687-1.2031 0-1.875-0.34375-0.67187-0.32812-1.0156-0.875-0.32813-0.5625-0.42188-1.25-0.0781-0.70312-0.0781-1.375zm22.949 15.422v-11.344q0-2.2812-1.0156-3.2344-1-0.95313-2.5625-0.95313-0.9375 0-1.8594 0.29688-0.90625 0.29687-1.6875 0.875-0.78125 0.57812-1.3906 1.4219-0.59375 0.84375-0.92187 1.9219v11.016h-2.625v-27.625h2.625v13.672q0.48437-1.5781 2.0938-2.6719 1.625-1.1094 4.1406-1.1094 1.1875 0 2.25 0.32812 1.0625 0.3125 1.8438 1.0312 0.78125 0.70313 1.25 1.8594t0.46875 2.8281v11.688zm16.235 0.15625q-0.5625 1.1875-1.3438 2.8125t-1.875 3.0781q-1.0781 1.4531-2.5312 2.4844-1.4531 1.0312-3.2812 1.0312-0.29687 0-0.45312-0.0312-0.14063-0.0156-0.32813-0.0937l-0.48437-2.4531q0.10937 0.0312 0.25 0.0625 0.15625 0.0469 0.53125 0.0469 0.75 0 1.3906-0.15625 0.65625-0.14062 1.2969-0.59375 1.3125-0.9375 2.375-2.7344 1.0625-1.7812 1.9219-4.1719l-8.5938-16.609h3.1094l6.8281 14.297 6.1094-14.297h2.9531zm32.888-14.188q-0.85938-0.64062-2.4688-1.1406-1.5938-0.5-3.2031-0.5-1.6406 0-2.7812 0.5625-1.1406 0.54687-1.8906 1.4844t-1.0938 2.1562q-0.32813 1.2031-0.32813 2.5156 0 1.4531 0.40625 2.7969 0.42188 1.3438 1.2188 2.3594 0.8125 1 1.9844 1.5938 1.1719 0.59375 2.75 0.59375 1.4844 0 3.0625-0.625 1.5938-0.64063 2.6406-1.6094l0.53125 2.4219q-1.0469 0.67187-2.8594 1.2812-1.8125 0.59375-3.8594 0.59375-2.1719 0-3.7969-0.75t-2.6875-2-1.6094-2.9062q-0.53125-1.6719-0.53125-3.5312 0-1.7969 0.5-3.4219t1.5781-2.875q1.0938-1.25 2.7656-1.9688 1.6875-0.73437 4.0312-0.73437 1.7969 0 3.5156 0.42187 1.7188 0.40625 2.7656 1.0781zm12.543-3.7031q2.2812 0 3.9219 0.76562 1.6406 0.76563 2.7031 2.0625 1.0625 1.2812 1.5625 2.9531 0.51562 1.6562 0.51562 3.4844 0 1.8281-0.51562 3.4531-0.5 1.625-1.5469 2.8438-1.0469 1.2031-2.6719 1.9219-1.625 0.70313-3.8281 0.70313-2.2656 0-3.9375-0.75-1.6562-0.75-2.7344-2-1.0781-1.25-1.6094-2.8906-0.51562-1.6406-0.51562-3.4688 0-1.8281 0.51562-3.4688 0.53125-1.6562 1.5938-2.9062t2.7031-1.9688q1.6406-0.73437 3.8438-0.73437zm0.10937 16.203q1.5 0 2.5938-0.5625 1.1094-0.5625 1.8281-1.5 0.73437-0.95312 1.0625-2.2031 0.34375-1.2656 0.34375-2.6406 0-1.4219-0.35938-2.7188-0.35937-1.3125-1.1094-2.2969-0.73438-1-1.875-1.5938-1.1406-0.59375-2.7031-0.59375-1.5312 0-2.625 0.5625-1.0781 0.5625-1.7969 1.5-0.70313 0.92187-1.0469 2.1719-0.32812 1.25-0.32812 2.6406 0 1.4062 0.35937 2.7188 0.35938 1.3125 1.0781 2.3281 0.73437 1 1.875 1.5938 1.1406 0.59375 2.7031 0.59375zm25.347 1.5312v-11.344q0-2.25-1.0156-3.2188-1-0.96875-2.5625-0.96875-0.9375 0-1.8594 0.29688-0.90624 0.29687-1.6875 0.875-0.78125 0.57812-1.3906 1.4219-0.59375 0.84375-0.92188 1.9219v11.016h-2.625v-17.172h2.0625l0.29688 3.2188h0.14062q0.48438-1.5781 2.1562-2.6719 1.6875-1.1094 4.2031-1.1094 1.1875 0 2.25 0.32812 1.0625 0.3125 1.8438 1.0312 0.78125 0.70313 1.25 1.8594t0.46875 2.8281v11.688zm9.0783-15.422h-2.875v-1.375l2.9375-0.375 0.5625-5.1875h1.9844v5.1875h4.0312v1.75h-4.0312v11.906q0 1.2031 0.34375 1.5781 0.35937 0.375 1.1094 0.375 0.85938 0 1.5312-0.26562 0.67188-0.26563 1.1875-0.64063l0.53125 1.9844q-0.64062 0.29687-1.6719 0.59375-1.0156 0.29687-2.25 0.29687-1.2031 0-1.875-0.34375-0.67188-0.32812-1.0156-0.875-0.32812-0.5625-0.42187-1.25-0.0781-0.70312-0.0781-1.375zm21.793 15.422-0.29688-3.0625h-0.15625q-0.4375 0.70313-1.1875 1.3438-0.75 0.64063-1.6719 1.125-0.90625 0.48438-1.9688 0.76563t-2.1094 0.28125q-2.4688 0-3.7031-1.4375-1.2188-1.4375-1.2188-3.6094 0-2.125 1.0781-3.3906 1.0781-1.2656 2.6406-1.9062 1.5781-0.64063 3.3125-0.82813 1.7344-0.1875 3.0469-0.1875h1.6719v-0.4375q0-1.4219-0.39063-2.1719-0.39062-0.75-1.1406-1.2656-0.625-0.40625-1.3594-0.57812-0.73437-0.17188-1.9219-0.17188-1.5625 0-2.7656 0.42188-1.1875 0.40625-2.3125 1.0781l-0.59375-2.25q2.5-1.4531 5.9688-1.4531 1.375 0 2.6094 0.25 1.2344 0.23437 2.1719 0.84375 1.0781 0.67187 1.7031 1.9062 0.64062 1.2188 0.64062 3.0469v11.688zm-6.6094-1.75q1.5312 0 3.25-0.96875 1.7188-0.98437 2.7969-2.8125v-3.4688h-0.32813q-1.5312 0-3.0625 0.125-1.5312 0.10938-2.7812 0.5625-1.25 0.4375-2.0469 1.2812-0.78125 0.82813-0.78125 2.2969 0 1.4531 0.79687 2.2188 0.8125 0.76562 2.1562 0.76562zm16.918 1.75h-2.625v-17.172h2.625zm-3.1719-23.438q0-0.75 0.53125-1.3438 0.54687-0.60937 1.3281-0.60937 0.75 0 1.3438 0.60937 0.59375 0.59375 0.59375 1.3438 0 0.78125-0.59375 1.3281-0.59375 0.53125-1.3438 0.53125-0.78125 0-1.3281-0.53125-0.53125-0.54688-0.53125-1.3281zm21.046 23.438v-11.344q0-2.25-1.0156-3.2188-1-0.96875-2.5625-0.96875-0.9375 0-1.8594 0.29688-0.90625 0.29687-1.6875 0.875-0.78125 0.57812-1.3906 1.4219-0.59375 0.84375-0.92188 1.9219v11.016h-2.625v-17.172h2.0625l0.29688 3.2188h0.14062q0.48438-1.5781 2.1562-2.6719 1.6875-1.1094 4.2031-1.1094 1.1875 0 2.25 0.32812 1.0625 0.3125 1.8438 1.0312 0.78125 0.70313 1.25 1.8594t0.46875 2.8281v11.688zm15.969-17.734q3.2969 0 5.0781 1.6719 1.7969 1.6562 1.7969 4.6719 0 0.64062-0.0781 1.2969t-0.25 0.95313h-12.594v0.375q0 1.4062 0.375 2.7188t1.125 2.3281q0.75 1 1.8906 1.5938 1.1406 0.59375 2.7031 0.59375 0.89062 0 1.75-0.20312 0.85937-0.20313 1.6406-0.51563 0.78125-0.32812 1.4531-0.70312 0.67187-0.375 1.2031-0.75l0.45313 2.1406q-0.5 0.29688-1.2031 0.65625-0.70312 0.34375-1.5625 0.64063-0.85937 0.29687-1.8906 0.5-1.0312 0.21875-2.1406 0.21875-2.0938 0-3.7031-0.73438-1.5938-0.73437-2.6875-1.9844-1.0781-1.25-1.6406-2.8906-0.5625-1.6406-0.5625-3.4219 0-1.8438 0.57813-3.5 0.57812-1.6562 1.7031-2.9219 1.125-1.2812 2.7812-2 1.6562-0.73437 3.7812-0.73437zm-0.10937 2.0938q-2.4531 0-3.8281 1.2969-1.3594 1.2812-1.8438 3.2188h10.188q0.0469-0.1875 0.0469-0.32812 0-0.15625 0-0.34375 0-0.9375-0.375-1.6562-0.375-0.73438-1.0156-1.2188-0.625-0.48438-1.4531-0.71875-0.8125-0.25-1.7188-0.25zm20.986 1.2344q-0.59375-0.34375-1.2031-0.54687-0.59375-0.20313-1.1562-0.20313-0.73437 0-1.4062 0.42188-0.67187 0.40625-1.2344 1.1094-0.5625 0.70313-1 1.6406-0.42188 0.9375-0.64063 1.9375v10.047h-2.625v-17.172h2.0625l0.29688 3.7656h0.14062q0.26563-0.85937 0.6875-1.6406 0.4375-0.78125 1.0469-1.375 0.625-0.59375 1.4062-0.95313 0.78125-0.35937 1.7969-0.35937 0.70313 0 1.4844 0.25 0.78125 0.23437 1.125 0.60937z" fill="#fff"/>
<path d="m0 226.18h278.99l37.844 37.844-37.844 37.844h-278.99z" fill="#cf604e" fill-rule="evenodd"/>
<path d="m94.032 263.3q1.0469-0.71875 1.875-1.4219 0.84375-0.71875 1.9219-1.75 1.8281-1.7969 3.6875-4.0156 1.875-2.2188 3.4531-4.4688h3.2031q-0.89063 1.3125-1.9531 2.6719-1.0625 1.3594-2.1875 2.6875-1.125 1.3281-2.2344 2.5312-1.0938 1.1875-2.0625 2.1562-0.40625 0.40625-0.76562 0.75-0.34375 0.32812-0.6875 0.625l11.422 13.219h-3.4688l-10-11.422-2.2031 1.6719v9.75h-2.7969v-24.641h2.7969zm20.755-4.1875v11.344q0 1.1562 0.26562 1.9531 0.28125 0.78125 0.75 1.25 0.46875 0.45312 1.125 0.67187 0.65625 0.20313 1.4375 0.20313 0.9375 0 1.8438-0.28125 0.92188-0.28125 1.7031-0.84375t1.375-1.375q0.60937-0.82813 0.9375-1.9062v-11.016h2.6094v17.172h-2.0469l-0.29688-3.2031h-0.15625q-0.48437 1.5625-2.1719 2.6094-1.6719 1.0469-4.1719 1.0469-1.1875 0-2.2656-0.3125-1.0625-0.29687-1.8438-0.98437t-1.25-1.8281q-0.46875-1.1406-0.46875-2.8125v-11.688zm27.088 17.625q-2.375 0-4.0938-1.0625-1.7188-1.0781-2.625-2.4531h-0.14062l-0.29688 3.0625h-2.0625v-27.625h2.625v13.672q0.48438-1.6094 2.125-2.6875 1.6406-1.0938 4.0625-1.0938 1.9844 0 3.4688 0.75 1.5 0.75 2.4844 2 1 1.25 1.5 2.9375 0.5 1.6719 0.5 3.5 0 1.7969-0.46875 3.4219-0.46875 1.6094-1.4062 2.8438-0.92188 1.2344-2.3438 1.9844-1.4219 0.75-3.3281 0.75zm-0.29687-2.2031q1.4219 0 2.3906-0.59375 0.96875-0.60938 1.5625-1.5625 0.60938-0.95313 0.85938-2.1406 0.26562-1.1875 0.26562-2.3906 0-1.5625-0.39062-2.8594-0.39063-1.3125-1.1094-2.25-0.70312-0.9375-1.75-1.4531-1.0469-0.53125-2.3125-0.53125-1.9688 0-3.5625 1.2031-1.5781 1.1875-2.25 3.3125v5.4844q1.0781 1.7969 2.7969 2.7969 1.7188 0.98438 3.5 0.98438zm20.229-15.984q3.2969 0 5.0781 1.6719 1.7969 1.6562 1.7969 4.6719 0 0.64063-0.0781 1.2969t-0.25 0.95312h-12.594v0.375q0 1.4062 0.375 2.7188t1.125 2.3281q0.75 1 1.8906 1.5938 1.1406 0.59375 2.7031 0.59375 0.89062 0 1.75-0.20313 0.85937-0.20312 1.6406-0.51562 0.78125-0.32813 1.4531-0.70313 0.67187-0.375 1.2031-0.75l0.45313 2.1406q-0.5 0.29687-1.2031 0.65625-0.70312 0.34375-1.5625 0.64062-0.85937 0.29688-1.8906 0.5-1.0312 0.21875-2.1406 0.21875-2.0938 0-3.7031-0.73437-1.5938-0.73438-2.6875-1.9844-1.0781-1.25-1.6406-2.8906-0.5625-1.6406-0.5625-3.4219 0-1.8438 0.57813-3.5 0.57812-1.6562 1.7031-2.9219 1.125-1.2812 2.7812-2 1.6562-0.73438 3.7812-0.73438zm-0.10937 2.0938q-2.4531 0-3.8281 1.2969-1.3594 1.2812-1.8438 3.2188h10.188q0.0469-0.1875 0.0469-0.32813 0-0.15625 0-0.34375 0-0.9375-0.375-1.6562-0.375-0.73437-1.0156-1.2188-0.625-0.48437-1.4531-0.71875-0.8125-0.25-1.7188-0.25zm14.564 15.641h-2.6094v-27.625h2.6094zm13.728-17.734q3.2969 0 5.0781 1.6719 1.7969 1.6562 1.7969 4.6719 0 0.64063-0.0781 1.2969t-0.25 0.95312h-12.594v0.375q0 1.4062 0.375 2.7188t1.125 2.3281q0.75 1 1.8906 1.5938 1.1406 0.59375 2.7031 0.59375 0.89063 0 1.75-0.20313 0.85938-0.20312 1.6406-0.51562 0.78125-0.32813 1.4531-0.70313 0.67188-0.375 1.2031-0.75l0.45312 2.1406q-0.5 0.29687-1.2031 0.65625-0.70313 0.34375-1.5625 0.64062-0.85938 0.29688-1.8906 0.5-1.0312 0.21875-2.1406 0.21875-2.0938 0-3.7031-0.73437-1.5938-0.73438-2.6875-1.9844-1.0781-1.25-1.6406-2.8906-0.5625-1.6406-0.5625-3.4219 0-1.8438 0.57812-3.5 0.57813-1.6562 1.7031-2.9219 1.125-1.2812 2.7812-2 1.6562-0.73438 3.7812-0.73438zm-0.10938 2.0938q-2.4531 0-3.8281 1.2969-1.3594 1.2812-1.8438 3.2188h10.188q0.0469-0.1875 0.0469-0.32813 0-0.15625 0-0.34375 0-0.9375-0.375-1.6562-0.375-0.73437-1.0156-1.2188-0.625-0.48437-1.4531-0.71875-0.8125-0.25-1.7188-0.25zm12.517 0.21875h-2.875v-1.375l2.9375-0.375 0.5625-5.1875h1.9844v5.1875h4.0312v1.75h-4.0312v11.906q0 1.2031 0.34375 1.5781 0.35938 0.375 1.1094 0.375 0.85937 0 1.5312-0.26563 0.67187-0.26562 1.1875-0.64062l0.53125 1.9844q-0.64063 0.29688-1.6719 0.59375-1.0156 0.29688-2.25 0.29688-1.2031 0-1.875-0.34375-0.67187-0.32813-1.0156-0.875-0.32813-0.5625-0.42188-1.25-0.0781-0.70313-0.0781-1.375z" fill="#fff"/>
<path d="m1305.5 0h-279.04l-37.795 37.795 37.795 37.795h279.04z" fill="#cf604e" fill-rule="evenodd"/>
<path d="m1097.3 29.52q-1.2031-0.78125-2.9531-1.2969-1.75-0.53125-4-0.53125-2.5 0-4.2188 0.73438-1.7187 0.71875-2.7812 2.0312-1.0625 1.2969-1.5313 3.1563-0.4687 1.8438-0.4687 4.0781 0 5.125 2.2344 7.7344 2.25 2.6094 6.6875 2.6094 2.3593 0 4.3281-0.67187 1.9844-0.67188 3.1875-1.6406l0.7344 2.5q-1.4844 0.89063-3.5938 1.5938-2.1094 0.6875-4.7656 0.6875-3.0625 0-5.2969-1-2.2344-1.0156-3.7187-2.7344-1.4688-1.7188-2.1875-3.9688-0.7032-2.2656-0.7032-4.8125 0-2.6406 0.7813-4.9531 0.7969-2.3281 2.3437-4.0625 1.5469-1.7344 3.8438-2.7344 2.2969-1.0156 5.3594-1.0156 2.0156 0 4.0312 0.4375 2.0156 0.42188 3.4688 1.1719zm12.798 2.7969q2.2812 0 3.9219 0.76563 1.6406 0.76562 2.7031 2.0625 1.0625 1.2812 1.5625 2.9531 0.5156 1.6562 0.5156 3.4844 0 1.8281-0.5156 3.4531-0.5 1.625-1.5469 2.8438-1.0469 1.2031-2.6719 1.9219-1.625 0.70312-3.8281 0.70312-2.2656 0-3.9375-0.75-1.6562-0.75-2.7344-2-1.0781-1.25-1.6093-2.8906-0.5157-1.6406-0.5157-3.4688 0-1.8281 0.5157-3.4688 0.5312-1.6562 1.5937-2.9062t2.7031-1.9688q1.6407-0.73438 3.8438-0.73438zm0.1094 16.203q1.5 0 2.5937-0.5625 1.1094-0.5625 1.8281-1.5 0.7344-0.95313 1.0625-2.2031 0.3438-1.2656 0.3438-2.6406 0-1.4219-0.3594-2.7188-0.3594-1.3125-1.1094-2.2969-0.7343-1-1.875-1.5938-1.1406-0.59375-2.7031-0.59375-1.5312 0-2.625 0.5625-1.0781 0.5625-1.7969 1.5-0.7031 0.92188-1.0468 2.1719-0.3282 1.25-0.3282 2.6406 0 1.4062 0.3594 2.7188t1.0781 2.3281q0.7344 1 1.875 1.5938 1.1407 0.59375 2.7032 0.59375zm25.347 1.5312v-11.344q0-2.25-1.0157-3.2188-1-0.96875-2.5625-0.96875-0.9375 0-1.8593 0.29687-0.9063 0.29688-1.6875 0.875-0.7813 0.57813-1.3907 1.4219-0.5937 0.84375-0.9218 1.9219v11.016h-2.625v-17.172h2.0625l0.2968 3.2188h0.1407q0.4843-1.5781 2.1562-2.6719 1.6875-1.1094 4.2031-1.1094 1.1875 0 2.25 0.32813 1.0625 0.3125 1.8438 1.0312 0.7812 0.70312 1.25 1.8594 0.4687 1.1562 0.4687 2.8281v11.688zm9.0783-15.422h-2.875v-1.375l2.9375-0.375 0.5625-5.1875h1.9844v5.1875h4.0313v1.75h-4.0313v11.906q0 1.2031 0.3438 1.5781 0.3593 0.375 1.1093 0.375 0.8594 0 1.5313-0.26563 0.6719-0.26562 1.1875-0.64062l0.5312 1.9844q-0.6406 0.29688-1.6718 0.59375-1.0157 0.29688-2.25 0.29688-1.2032 0-1.875-0.34375-0.6719-0.32813-1.0157-0.875-0.3281-0.5625-0.4218-1.25-0.078-0.70313-0.078-1.375zm20.152 1.0156q-0.5938-0.34375-1.2031-0.54688-0.5938-0.20312-1.1563-0.20312-0.7344 0-1.4062 0.42187-0.6719 0.40625-1.2344 1.1094-0.5625 0.70312-1 1.6406-0.4219 0.9375-0.6406 1.9375v10.047h-2.625v-17.172h2.0625l0.2968 3.7656h0.1407q0.2656-0.85938 0.6875-1.6406 0.4375-0.78125 1.0468-1.375 0.625-0.59375 1.4063-0.95312 0.7812-0.35938 1.7969-0.35938 0.7031 0 1.4843 0.25 0.7813 0.23438 1.125 0.60938zm11.234-3.3281q2.2813 0 3.9219 0.76563 1.6406 0.76562 2.7031 2.0625 1.0625 1.2812 1.5625 2.9531 0.5157 1.6562 0.5157 3.4844 0 1.8281-0.5157 3.4531-0.5 1.625-1.5468 2.8438-1.0469 1.2031-2.6719 1.9219-1.625 0.70312-3.8281 0.70312-2.2657 0-3.9375-0.75-1.6563-0.75-2.7344-2t-1.6094-2.8906q-0.5156-1.6406-0.5156-3.4688 0-1.8281 0.5156-3.4688 0.5313-1.6562 1.5938-2.9062t2.7031-1.9688q1.6406-0.73438 3.8437-0.73438zm0.1094 16.203q1.5 0 2.5938-0.5625 1.1093-0.5625 1.8281-1.5 0.7344-0.95313 1.0625-2.2031 0.3437-1.2656 0.3437-2.6406 0-1.4219-0.3593-2.7188-0.3594-1.3125-1.1094-2.2969-0.7344-1-1.875-1.5938t-2.7031-0.59375q-1.5313 0-2.625 0.5625-1.0782 0.5625-1.7969 1.5-0.7031 0.92188-1.0469 2.1719-0.3281 1.25-0.3281 2.6406 0 1.4062 0.3594 2.7188 0.3593 1.3125 1.0781 2.3281 0.7344 1 1.875 1.5938t2.7031 0.59375zm16.128 1.5312h-2.6093v-27.625h2.6093zm8.8842 0h-2.6094v-27.625h2.6094zm13.728-17.734q3.2969 0 5.0781 1.6719 1.7969 1.6562 1.7969 4.6719 0 0.64063-0.078 1.2969t-0.25 0.95312h-12.594v0.375q0 1.4062 0.375 2.7188t1.125 2.3281q0.75 1 1.8907 1.5938 1.1406 0.59375 2.7031 0.59375 0.8906 0 1.75-0.20313 0.8594-0.20312 1.6406-0.51562 0.7813-0.32813 1.4531-0.70313 0.6719-0.375 1.2032-0.75l0.4531 2.1406q-0.5 0.29687-1.2031 0.65625-0.7032 0.34375-1.5625 0.64062-0.8594 0.29688-1.8907 0.5-1.0312 0.21875-2.1406 0.21875-2.0937 0-3.7031-0.73437-1.5938-0.73438-2.6875-1.9844-1.0781-1.25-1.6406-2.8906-0.5625-1.6406-0.5625-3.4219 0-1.8438 0.5781-3.5t1.7031-2.9219q1.125-1.2812 2.7813-2 1.6562-0.73438 3.7812-0.73438zm-0.1094 2.0938q-2.4531 0-3.8281 1.2969-1.3594 1.2812-1.8437 3.2188h10.188q0.047-0.1875 0.047-0.32813 0-0.15625 0-0.34375 0-0.9375-0.375-1.6562-0.375-0.73437-1.0156-1.2188-0.625-0.48437-1.4531-0.71875-0.8125-0.25-1.7188-0.25zm20.986 1.2344q-0.5937-0.34375-1.2031-0.54688-0.5937-0.20312-1.1562-0.20312-0.7344 0-1.4063 0.42187-0.6719 0.40625-1.2344 1.1094-0.5625 0.70312-1 1.6406-0.4218 0.9375-0.6406 1.9375v10.047h-2.625v-17.172h2.0625l0.2969 3.7656h0.1406q0.2656-0.85938 0.6875-1.6406 0.4375-0.78125 1.0469-1.375 0.625-0.59375 1.4062-0.95312 0.7813-0.35938 1.7969-0.35938 0.7031 0 1.4844 0.25 0.7812 0.23438 1.125 0.60938z" fill="#fff"/>
<path d="m1305.5 74.998h-375.04l-37.795 37.795 37.795 37.795h375.04z" fill="#9fbadd" fill-rule="evenodd"/>
<path d="m992.67 100.41h0.14063q1.2031-0.0781 2.6562-0.125 1.4531-0.0625 2.75-0.0625 2.0156 0 3.6562 0.51562 1.6563 0.5 2.8282 1.5156 1.1718 1 1.8281 2.4844 0.6562 1.4688 0.6562 3.4062 0 1.5625-0.5312 2.9531-0.5156 1.375-1.5625 2.4219-1.0469 1.0469-2.6719 1.6719-1.625 0.60937-3.7812 0.60937-1.7969 0-3.1719-0.125v9.375h-2.7969zm5.7812 2.2812q-0.78125 0-1.5469 0.0156-0.76563 0.0156-1.4375 0.0625v10.453q1.3438 0.10937 3.0625 0.10937 2.75 0 4.1562-1.3906 1.4063-1.4062 1.4063-4.0938 0-1.1562-0.3125-2.1094-0.2969-0.95312-0.9531-1.625-0.6407-0.67187-1.7344-1.0469-1.0781-0.375-2.6406-0.375zm22.21 7.9531q-0.5938-0.34375-1.2031-0.54687-0.5938-0.20313-1.1563-0.20313-0.7344 0-1.4062 0.42188-0.6719 0.40625-1.2344 1.1094-0.5625 0.70313-1 1.6406-0.4219 0.9375-0.6406 1.9375v10.047h-2.625v-17.172h2.0625l0.2968 3.7656h0.1407q0.2656-0.85937 0.6875-1.6406 0.4375-0.78125 1.0468-1.375 0.625-0.59375 1.4063-0.95313 0.7812-0.35937 1.7969-0.35937 0.7031 0 1.4843 0.25 0.7813 0.23437 1.125 0.60937zm11.375-3.3281q3.2968 0 5.0781 1.6719 1.7969 1.6562 1.7969 4.6719 0 0.64062-0.078 1.2969t-0.25 0.95313h-12.594v0.375q0 1.4062 0.375 2.7188t1.125 2.3281q0.75 1 1.8906 1.5938t2.7031 0.59375q0.8907 0 1.75-0.20312 0.8594-0.20313 1.6407-0.51563 0.7812-0.32812 1.4531-0.70312t1.2031-0.75l0.4531 2.1406q-0.5 0.29688-1.2031 0.65625-0.7031 0.34375-1.5625 0.64063-0.8594 0.29687-1.8906 0.5-1.0313 0.21875-2.1406 0.21875-2.0938 0-3.7032-0.73438-1.5937-0.73437-2.6875-1.9844-1.0781-1.25-1.6406-2.8906-0.5625-1.6406-0.5625-3.4219 0-1.8438 0.5781-3.5 0.5782-1.6562 1.7032-2.9219 1.125-1.2812 2.7812-2 1.6563-0.73437 3.7813-0.73437zm-0.1094 2.0938q-2.4531 0-3.8281 1.2969-1.3594 1.2812-1.8438 3.2188h10.188q0.047-0.1875 0.047-0.32812 0-0.15625 0-0.34375 0-0.9375-0.375-1.6562-0.375-0.73438-1.0156-1.2188-0.625-0.48438-1.4532-0.71875-0.8125-0.25-1.7187-0.25zm20.205 15.641h-3.3281l-7.7969-17.172h2.8282l6.6875 14.703 6.6875-14.703h2.7187zm18.464-17.734q3.2969 0 5.0781 1.6719 1.7969 1.6562 1.7969 4.6719 0 0.64062-0.078 1.2969t-0.25 0.95313h-12.594v0.375q0 1.4062 0.375 2.7188t1.125 2.3281q0.75 1 1.8907 1.5938 1.1406 0.59375 2.7031 0.59375 0.8906 0 1.75-0.20312 0.8594-0.20313 1.6406-0.51563 0.7813-0.32812 1.4531-0.70312 0.6719-0.375 1.2032-0.75l0.4531 2.1406q-0.5 0.29688-1.2031 0.65625-0.7032 0.34375-1.5625 0.64063-0.8594 0.29687-1.8907 0.5-1.0312 0.21875-2.1406 0.21875-2.0937 0-3.7031-0.73438-1.5938-0.73437-2.6875-1.9844-1.0781-1.25-1.6406-2.8906-0.5625-1.6406-0.5625-3.4219 0-1.8438 0.5781-3.5t1.7031-2.9219q1.125-1.2812 2.7813-2 1.6562-0.73437 3.7812-0.73437zm-0.1094 2.0938q-2.4531 0-3.8281 1.2969-1.3594 1.2812-1.8437 3.2188h10.188q0.047-0.1875 0.047-0.32812 0-0.15625 0-0.34375 0-0.9375-0.375-1.6562-0.375-0.73438-1.0156-1.2188-0.625-0.48438-1.4531-0.71875-0.8125-0.25-1.7188-0.25zm23.783 15.641v-11.344q0-2.25-1.0156-3.2188-1-0.96875-2.5625-0.96875-0.9375 0-1.8594 0.29688-0.9062 0.29687-1.6875 0.875-0.7812 0.57812-1.3906 1.4219-0.5938 0.84375-0.9219 1.9219v11.016h-2.625v-17.172h2.0625l0.2969 3.2188h0.1406q0.4844-1.5781 2.1563-2.6719 1.6875-1.1094 4.2031-1.1094 1.1875 0 2.25 0.32812 1.0625 0.3125 1.8437 1.0312 0.7813 0.70313 1.25 1.8594 0.4688 1.1562 0.4688 2.8281v11.688zm9.0783-15.422h-2.875v-1.375l2.9375-0.375 0.5625-5.1875h1.9843v5.1875h4.0313v1.75h-4.0313v11.906q0 1.2031 0.3438 1.5781 0.3594 0.375 1.1094 0.375 0.8593 0 1.5312-0.26562 0.6719-0.26563 1.1875-0.64063l0.5313 1.9844q-0.6407 0.29687-1.6719 0.59375-1.0156 0.29687-2.25 0.29687-1.2031 0-1.875-0.34375-0.6719-0.32812-1.0156-0.875-0.3282-0.5625-0.4219-1.25-0.078-0.70312-0.078-1.375zm30.939 15.422-0.2969-3.0625h-0.1563q-0.4375 0.70313-1.1875 1.3438-0.75 0.64063-1.6718 1.125-0.9063 0.48438-1.9688 0.76563t-2.1094 0.28125q-2.4687 0-3.7031-1.4375-1.2187-1.4375-1.2187-3.6094 0-2.125 1.0781-3.3906 1.0781-1.2656 2.6406-1.9062 1.5781-0.64063 3.3125-0.82813t3.0469-0.1875h1.6719v-0.4375q0-1.4219-0.3907-2.1719-0.3906-0.75-1.1406-1.2656-0.625-0.40625-1.3594-0.57812-0.7343-0.17188-1.9218-0.17188-1.5625 0-2.7657 0.42188-1.1875 0.40625-2.3125 1.0781l-0.5937-2.25q2.5-1.4531 5.9687-1.4531 1.375 0 2.6094 0.25 1.2344 0.23437 2.1719 0.84375 1.0781 0.67187 1.7031 1.9062 0.6406 1.2188 0.6406 3.0469v11.688zm-6.6094-1.75q1.5312 0 3.25-0.96875 1.7187-0.98437 2.7969-2.8125v-3.4688h-0.3282q-1.5312 0-3.0625 0.125-1.5312 0.10938-2.7812 0.5625-1.25 0.4375-2.0469 1.2812-0.7812 0.82813-0.7812 2.2969 0 1.4531 0.7968 2.2188 0.8125 0.76562 2.1563 0.76562zm27.699-12.281q-0.8594-0.64062-2.4687-1.1406-1.5938-0.5-3.2032-0.5-1.6406 0-2.7812 0.5625-1.1406 0.54687-1.8906 1.4844t-1.0938 2.1562q-0.3281 1.2031-0.3281 2.5156 0 1.4531 0.4062 2.7969 0.4219 1.3438 1.2188 2.3594 0.8125 1 1.9844 1.5938 1.1718 0.59375 2.75 0.59375 1.4843 0 3.0625-0.625 1.5937-0.64063 2.6406-1.6094l0.5312 2.4219q-1.0468 0.67187-2.8593 1.2812-1.8125 0.59375-3.8594 0.59375-2.1719 0-3.7969-0.75t-2.6875-2-1.6094-2.9062q-0.5312-1.6719-0.5312-3.5312 0-1.7969 0.5-3.4219t1.5781-2.875q1.0938-1.25 2.7656-1.9688 1.6875-0.73437 4.0313-0.73437 1.7969 0 3.5156 0.42187 1.7188 0.40625 2.7656 1.0781zm18.403 0q-0.8593-0.64062-2.4687-1.1406-1.5938-0.5-3.2031-0.5-1.6407 0-2.7813 0.5625-1.1406 0.54687-1.8906 1.4844t-1.0938 2.1562q-0.3281 1.2031-0.3281 2.5156 0 1.4531 0.4063 2.7969 0.4218 1.3438 1.2187 2.3594 0.8125 1 1.9844 1.5938t2.75 0.59375q1.4844 0 3.0625-0.625 1.5937-0.64063 2.6406-1.6094l0.5313 2.4219q-1.0469 0.67187-2.8594 1.2812-1.8125 0.59375-3.8594 0.59375-2.1719 0-3.7969-0.75t-2.6875-2-1.6093-2.9062q-0.5313-1.6719-0.5313-3.5312 0-1.7969 0.5-3.4219t1.5781-2.875q1.0938-1.25 2.7657-1.9688 1.6875-0.73437 4.0312-0.73437 1.7969 0 3.5156 0.42187 1.7188 0.40625 2.7657 1.0781zm12.684-3.7031q3.2969 0 5.0782 1.6719 1.7968 1.6562 1.7968 4.6719 0 0.64062-0.078 1.2969t-0.25 0.95313h-12.594v0.375q0 1.4062 0.375 2.7188t1.125 2.3281q0.75 1 1.8906 1.5938t2.7031 0.59375q0.8906 0 1.75-0.20312 0.8594-0.20313 1.6406-0.51563 0.7813-0.32812 1.4532-0.70312 0.6718-0.375 1.2031-0.75l0.4531 2.1406q-0.5 0.29688-1.2031 0.65625-0.7031 0.34375-1.5625 0.64063-0.8594 0.29687-1.8906 0.5-1.0313 0.21875-2.1407 0.21875-2.0937 0-3.7031-0.73438-1.5937-0.73437-2.6875-1.9844-1.0781-1.25-1.6406-2.8906-0.5625-1.6406-0.5625-3.4219 0-1.8438 0.5781-3.5t1.7031-2.9219q1.125-1.2812 2.7813-2 1.6562-0.73437 3.7812-0.73437zm-0.1093 2.0938q-2.4532 0-3.8282 1.2969-1.3593 1.2812-1.8437 3.2188h10.188q0.047-0.1875 0.047-0.32812 0-0.15625 0-0.34375 0-0.9375-0.375-1.6562-0.375-0.73438-1.0157-1.2188-0.625-0.48438-1.4531-0.71875-0.8125-0.25-1.7187-0.25zm16.767 0q-1.7969 0-2.6094 0.65625-0.7968 0.65625-0.7968 1.7656 0 0.375 0.1093 0.79688 0.125 0.40625 0.4375 0.76562 0.3125 0.34375 0.8594 0.67188 0.5469 0.3125 1.4375 0.5l2.6563 0.59375q1.5625 0.32812 2.5156 0.90625 0.9531 0.57812 1.4687 1.25 0.5313 0.67187 0.6875 1.375 0.1719 0.6875 0.1719 1.2812 0 1.1562-0.4687 2.1719-0.4688 1-1.3438 1.75t-2.1406 1.1719q-1.2656 0.4375-2.8438 0.4375-1.9687 0-3.6562-0.57813-1.6719-0.57812-2.6875-1.2969l0.6719-2.4219q1.3437 1.2344 2.9843 1.7969 1.6563 0.54687 2.9532 0.54687 1.875 0 2.8437-0.90625 0.9688-0.92187 0.9688-1.9219 0-0.34375-0.047-0.76563-0.031-0.4375-0.2969-0.875-0.25-0.45312-0.7812-0.84375-0.5157-0.39062-1.4844-0.60937l-3.5938-0.90625q-1.2343-0.29688-2.0156-0.78125-0.7812-0.48438-1.2344-1.0625-0.4375-0.57813-0.625-1.2344t-0.1875-1.3281q0-2.2656 1.6875-3.625 1.7032-1.375 4.5469-1.375 1.4531 0 3.125 0.39062 1.6875 0.39063 2.8438 1.1406l-0.7032 2.25q-0.75-0.64063-2.2343-1.1562-1.4688-0.53125-3.2188-0.53125zm16.462 0q-1.7969 0-2.6094 0.65625-0.7969 0.65625-0.7969 1.7656 0 0.375 0.1094 0.79688 0.125 0.40625 0.4375 0.76562 0.3125 0.34375 0.8594 0.67188 0.5469 0.3125 1.4375 0.5l2.6562 0.59375q1.5625 0.32812 2.5157 0.90625 0.9531 0.57812 1.4687 1.25 0.5313 0.67187 0.6875 1.375 0.1719 0.6875 0.1719 1.2812 0 1.1562-0.4688 2.1719-0.4687 1-1.3437 1.75t-2.1406 1.1719q-1.2657 0.4375-2.8438 0.4375-1.9687 0-3.6562-0.57813-1.6719-0.57812-2.6875-1.2969l0.6718-2.4219q1.3438 1.2344 2.9844 1.7969 1.6563 0.54687 2.9531 0.54687 1.875 0 2.8438-0.90625 0.9687-0.92187 0.9687-1.9219 0-0.34375-0.047-0.76563-0.031-0.4375-0.2969-0.875-0.25-0.45312-0.7813-0.84375-0.5156-0.39062-1.4843-0.60937l-3.5938-0.90625q-1.2344-0.29688-2.0156-0.78125-0.7813-0.48438-1.2344-1.0625-0.4375-0.57813-0.625-1.2344t-0.1875-1.3281q0-2.2656 1.6875-3.625 1.7031-1.375 4.5469-1.375 1.4531 0 3.125 0.39062 1.6875 0.39063 2.8437 1.1406l-0.7031 2.25q-0.75-0.64063-2.2344-1.1562-1.4687-0.53125-3.2187-0.53125z" fill="#fff"/>
<path d="m1305.5 150.59h-471.04l-37.795 37.795 37.795 37.795h471.04z" fill="#f6b347" fill-rule="evenodd"/>
<path d="m848.33 176q1.2969-0.0781 2.7656-0.125 1.4844-0.0625 2.7812-0.0625 2.0156 0 3.6562 0.46875 1.6562 0.46875 2.8281 1.375 1.1719 0.89062 1.8281 2.2188 0.65625 1.3125 0.65625 3.0312 0 2.3906-1.3438 4.2656-1.3438 1.8594-4.1406 2.6094l9.4375 10.859h-3.4688l-9.2188-10.531q-1.6406 0-2.9844-0.10937v10.641h-2.7969zm5.7812 2.2812q-0.78125 0-1.5469 0.0156-0.76563 0.0156-1.4375 0.0625v9.2188q0.67187 0.0781 1.4375 0.0781 0.76562 0 1.625 0 2.75 0 4.1562-1.2812 1.4062-1.2969 1.4062-3.7656 0-1.9375-1.2656-3.125-1.25-1.2031-4.375-1.2031zm22.722 4.625q3.2969 0 5.0781 1.6719 1.7969 1.6562 1.7969 4.6719 0 0.64062-0.0781 1.2969t-0.25 0.95313h-12.594v0.375q0 1.4062 0.375 2.7188t1.125 2.3281q0.75 1 1.8906 1.5938 1.1406 0.59375 2.7031 0.59375 0.89062 0 1.75-0.20312 0.85937-0.20313 1.6406-0.51563 0.78125-0.32812 1.4531-0.70312 0.67187-0.375 1.2031-0.75l0.45313 2.1406q-0.5 0.29688-1.2031 0.65625-0.70312 0.34375-1.5625 0.64063-0.85937 0.29687-1.8906 0.5-1.0312 0.21875-2.1406 0.21875-2.0938 0-3.7031-0.73438-1.5938-0.73437-2.6875-1.9844-1.0781-1.25-1.6406-2.8906-0.5625-1.6406-0.5625-3.4219 0-1.8438 0.57813-3.5 0.57812-1.6562 1.7031-2.9219 1.125-1.2812 2.7812-2 1.6562-0.73437 3.7812-0.73437zm-0.10937 2.0938q-2.4531 0-3.8281 1.2969-1.3594 1.2812-1.8438 3.2188h10.188q0.0469-0.1875 0.0469-0.32812 0-0.15625 0-0.34375 0-0.9375-0.375-1.6562-0.375-0.73438-1.0156-1.2188-0.625-0.48438-1.4531-0.71875-0.8125-0.25-1.7188-0.25zm23.627 15.641v-11.344q0-2.2812-1.0469-3.2344-1.0312-0.95313-2.6094-0.95313-1.9062 0-3.4375 1.1875-1.5156 1.1719-2.1875 3.3281v11.016h-2.625v-17.172h2.0625l0.29687 3.2188h0.14063q0.48437-1.5781 2.0312-2.6719 1.5625-1.1094 4.0156-1.1094 2.25 0 3.75 1 1.5156 0.98437 1.9375 2.7812 0.35938-0.75 0.92188-1.4219 0.5625-0.67187 1.3438-1.1875 0.78125-0.53125 1.7812-0.84375 1.0156-0.32812 2.2969-0.32812 1.1562 0 2.2188 0.32812 1.0625 0.3125 1.8594 1.0312 0.8125 0.70313 1.2969 1.8594 0.48438 1.1562 0.48438 2.8281v11.688h-2.6094v-11.344q0-2.2812-1.0469-3.2344-1.0469-0.95313-2.625-0.95313-1.8906 0-3.4219 1.1875-1.5312 1.1719-2.2031 3.3281v11.016zm27.706-17.734q2.2812 0 3.9219 0.76562 1.6406 0.76563 2.7031 2.0625 1.0625 1.2812 1.5625 2.9531 0.51563 1.6562 0.51563 3.4844 0 1.8281-0.51563 3.4531-0.5 1.625-1.5469 2.8438-1.0469 1.2031-2.6719 1.9219-1.625 0.70313-3.8281 0.70313-2.2656 0-3.9375-0.75-1.6562-0.75-2.7344-2-1.0781-1.25-1.6094-2.8906-0.51563-1.6406-0.51563-3.4688 0-1.8281 0.51563-3.4688 0.53125-1.6562 1.5938-2.9062t2.7031-1.9688q1.6406-0.73437 3.8438-0.73437zm0.10938 16.203q1.5 0 2.5938-0.5625 1.1094-0.5625 1.8281-1.5 0.73438-0.95312 1.0625-2.2031 0.34375-1.2656 0.34375-2.6406 0-1.4219-0.35937-2.7188-0.35938-1.3125-1.1094-2.2969-0.73437-1-1.875-1.5938-1.1406-0.59375-2.7031-0.59375-1.5312 0-2.625 0.5625-1.0781 0.5625-1.7969 1.5-0.70312 0.92187-1.0469 2.1719-0.32813 1.25-0.32813 2.6406 0 1.4062 0.35938 2.7188 0.35937 1.3125 1.0781 2.3281 0.73438 1 1.875 1.5938 1.1406 0.59375 2.7031 0.59375zm21.583 1.5312h-3.3281l-7.7969-17.172h2.8281l6.6875 14.703 6.6875-14.703h2.7188zm18.464-17.734q3.2969 0 5.0781 1.6719 1.7969 1.6562 1.7969 4.6719 0 0.64062-0.0781 1.2969t-0.25 0.95313h-12.594v0.375q0 1.4062 0.375 2.7188t1.125 2.3281q0.75 1 1.8906 1.5938 1.1406 0.59375 2.7031 0.59375 0.89063 0 1.75-0.20312 0.85938-0.20313 1.6406-0.51563 0.78125-0.32812 1.4531-0.70312 0.67188-0.375 1.2031-0.75l0.45312 2.1406q-0.5 0.29688-1.2031 0.65625-0.70313 0.34375-1.5625 0.64063-0.85938 0.29687-1.8906 0.5-1.0312 0.21875-2.1406 0.21875-2.0938 0-3.7031-0.73438-1.5938-0.73437-2.6875-1.9844-1.0781-1.25-1.6406-2.8906-0.5625-1.6406-0.5625-3.4219 0-1.8438 0.57812-3.5 0.57813-1.6562 1.7031-2.9219 1.125-1.2812 2.7812-2 1.6562-0.73437 3.7812-0.73437zm-0.10938 2.0938q-2.4531 0-3.8281 1.2969-1.3594 1.2812-1.8438 3.2188h10.188q0.0469-0.1875 0.0469-0.32812 0-0.15625 0-0.34375 0-0.9375-0.375-1.6562-0.375-0.73438-1.0156-1.2188-0.625-0.48438-1.4531-0.71875-0.8125-0.25-1.7188-0.25zm30.085-2.0938q1.9062 0 3.3281 0.75t2.3437 1.9844q0.9375 1.2188 1.4063 2.8438 0.4687 1.625 0.4687 3.4219 0 1.8594-0.5 3.5312-0.5 1.6562-1.5 2.9062-0.9843 1.25-2.4843 2-1.4844 0.75-3.4688 0.75-2.5 0-4.1094-1.0781-1.5938-1.0938-2.0781-2.7031v13.031h-2.625v-26.875h2.0625l0.29687 3.2188h0.14063q0.45312-0.67188 1.1094-1.3594 0.65625-0.70312 1.5156-1.2188 0.85937-0.53125 1.875-0.85937 1.0312-0.34375 2.2188-0.34375zm-0.67188 2.2031q-1.7812 0-3.3438 0.96875-1.5469 0.96875-2.5781 2.7969v5.5q0.32812 1.0781 0.95312 1.9062 0.64063 0.8125 1.4844 1.4062t1.7969 0.90625q0.95313 0.29687 1.9219 0.29687 1.2969 0 2.2656-0.51562 0.9844-0.53125 1.625-1.4688 0.6562-0.9375 0.9844-2.1562 0.3437-1.2344 0.3437-2.6562 0-1.3438-0.3125-2.6094-0.3125-1.2812-0.9844-2.25-0.6718-0.96875-1.7031-1.5469-1.0312-0.57813-2.4531-0.57813zm20.464-2.2031q2.2813 0 3.9219 0.76562 1.6406 0.76563 2.7031 2.0625 1.0625 1.2812 1.5625 2.9531 0.5157 1.6562 0.5157 3.4844 0 1.8281-0.5157 3.4531-0.5 1.625-1.5468 2.8438-1.0469 1.2031-2.6719 1.9219-1.625 0.70313-3.8281 0.70313-2.2657 0-3.9375-0.75-1.6563-0.75-2.7344-2t-1.6094-2.8906q-0.5156-1.6406-0.5156-3.4688 0-1.8281 0.5156-3.4688 0.5313-1.6562 1.5938-2.9062t2.7031-1.9688q1.6406-0.73437 3.8437-0.73437zm0.1094 16.203q1.5 0 2.5938-0.5625 1.1093-0.5625 1.8281-1.5 0.7344-0.95312 1.0625-2.2031 0.3437-1.2656 0.3437-2.6406 0-1.4219-0.3593-2.7188-0.3594-1.3125-1.1094-2.2969-0.7344-1-1.875-1.5938t-2.7031-0.59375q-1.5313 0-2.625 0.5625-1.0782 0.5625-1.7969 1.5-0.7031 0.92187-1.0469 2.1719-0.3281 1.25-0.3281 2.6406 0 1.4062 0.3594 2.7188 0.3593 1.3125 1.0781 2.3281 0.7344 1 1.875 1.5938t2.7031 0.59375zm19.707 1.9844q-1.9063 0-3.3281-0.75-1.4063-0.75-2.3438-1.9844-0.9375-1.2344-1.4062-2.8438-0.4532-1.625-0.4532-3.4219 0-1.8281 0.5-3.5 0.5-1.6875 1.4844-2.9375 1-1.25 2.4844-2 1.5-0.75 3.4844-0.75 2.5 0 4.0937 1.0938 1.6094 1.0781 2.0938 2.6875v-13.672h2.6093v27.625h-2.0468l-0.2969-3.0625h-0.1563q-0.8906 1.375-2.6093 2.4531-1.7188 1.0625-4.1094 1.0625zm0.2969-2.2031q1.7968 0 3.5312-0.96875 1.7344-0.98437 2.7813-2.8125v-5.4844q-0.6719-2.125-2.2657-3.3125-1.5781-1.2031-3.5625-1.2031-1.2968 0-2.3281 0.53125-1.0312 0.51563-1.7344 1.4531-0.7031 0.9375-1.1093 2.25-0.3907 1.2969-0.3907 2.8594 0 1.2031 0.2657 2.3906 0.2656 1.1875 0.8593 2.1406 0.5938 0.95313 1.5625 1.5625 0.9844 0.59375 2.3907 0.59375zm24.797-13.672h-2.875v-1.375l2.875-0.34375q0-2.0781 0.125-3.5625 0.125-1.5 0.3437-2.5312 0.2344-1.0312 0.5157-1.6719 0.2812-0.65625 0.5468-1.0781 0.7032-1.0469 1.75-1.4375 1.0469-0.39063 2.1563-0.39063 0.1562 0 0.5312 0.0312 0.375 0.0156 0.8438 0.0781 0.4687 0.0469 0.9531 0.17187 0.4844 0.125 0.9219 0.35938l-0.625 2.2031q-0.1094 0-0.5313-0.125-0.4062-0.14062-0.9218-0.29687-0.5-0.17188-1.0782-0.32813-0.5781-0.15625-1.0156-0.15625-0.5625 0-0.9375 0.32813-0.375 0.3125-0.5781 1.0469-0.2031 0.71875-0.2969 1.9219-0.094 1.1875-0.094 2.9375v2.4688h4.0312v1.75h-4.0312v15.422h-2.6094zm19.483 1.0156q-0.5938-0.34375-1.2032-0.54687-0.5937-0.20313-1.1562-0.20313-0.7344 0-1.4063 0.42188-0.6718 0.40625-1.2343 1.1094-0.5625 0.70313-1 1.6406-0.4219 0.9375-0.6407 1.9375v10.047h-2.625v-17.172h2.0625l0.2969 3.7656h0.1406q0.2657-0.85937 0.6875-1.6406 0.4375-0.78125 1.0469-1.375 0.625-0.59375 1.4063-0.95313 0.7812-0.35937 1.7968-0.35937 0.7032 0 1.4844 0.25 0.7813 0.23437 1.125 0.60937zm11.234-3.3281q2.2812 0 3.9219 0.76562 1.6406 0.76563 2.7031 2.0625 1.0625 1.2812 1.5625 2.9531 0.5156 1.6562 0.5156 3.4844 0 1.8281-0.5156 3.4531-0.5 1.625-1.5469 2.8438-1.0469 1.2031-2.6719 1.9219-1.625 0.70313-3.8281 0.70313-2.2656 0-3.9375-0.75-1.6562-0.75-2.7344-2-1.0781-1.25-1.6093-2.8906-0.5157-1.6406-0.5157-3.4688 0-1.8281 0.5157-3.4688 0.5312-1.6562 1.5937-2.9062t2.7031-1.9688q1.6407-0.73437 3.8438-0.73437zm0.1094 16.203q1.5 0 2.5937-0.5625 1.1094-0.5625 1.8281-1.5 0.7344-0.95312 1.0625-2.2031 0.3438-1.2656 0.3438-2.6406 0-1.4219-0.3594-2.7188-0.3594-1.3125-1.1094-2.2969-0.7343-1-1.875-1.5938-1.1406-0.59375-2.7031-0.59375-1.5312 0-2.625 0.5625-1.0781 0.5625-1.7969 1.5-0.7031 0.92187-1.0468 2.1719-0.3282 1.25-0.3282 2.6406 0 1.4062 0.3594 2.7188t1.0781 2.3281q0.7344 1 1.875 1.5938 1.1407 0.59375 2.7032 0.59375zm25.191 1.5312v-11.344q0-2.2812-1.0469-3.2344-1.0312-0.95313-2.6093-0.95313-1.9063 0-3.4375 1.1875-1.5157 1.1719-2.1875 3.3281v11.016h-2.625v-17.172h2.0625l0.2968 3.2188h0.1407q0.4843-1.5781 2.0312-2.6719 1.5625-1.1094 4.0156-1.1094 2.25 0 3.75 1 1.5157 0.98437 1.9375 2.7812 0.3594-0.75 0.9219-1.4219 0.5625-0.67187 1.3438-1.1875 0.7812-0.53125 1.7812-0.84375 1.0156-0.32812 2.2969-0.32812 1.1562 0 2.2187 0.32812 1.0625 0.3125 1.8594 1.0312 0.8125 0.70313 1.2969 1.8594t0.4844 2.8281v11.688h-2.6094v-11.344q0-2.2812-1.0469-3.2344-1.0469-0.95313-2.625-0.95313-1.8906 0-3.4219 1.1875-1.5312 1.1719-2.2031 3.3281v11.016zm34.351-15.641q-1.7969 0-2.6094 0.65625-0.7969 0.65625-0.7969 1.7656 0 0.375 0.1094 0.79688 0.125 0.40625 0.4375 0.76562 0.3125 0.34375 0.8594 0.67188 0.5468 0.3125 1.4375 0.5l2.6562 0.59375q1.5625 0.32812 2.5156 0.90625 0.9532 0.57812 1.4688 1.25 0.5312 0.67187 0.6875 1.375 0.1719 0.6875 0.1719 1.2812 0 1.1562-0.4688 2.1719-0.4687 1-1.3437 1.75t-2.1407 1.1719q-1.2656 0.4375-2.8437 0.4375-1.9688 0-3.6563-0.57813-1.6718-0.57812-2.6875-1.2969l0.6719-2.4219q1.3438 1.2344 2.9844 1.7969 1.6562 0.54687 2.9531 0.54687 1.875 0 2.8438-0.90625 0.9687-0.92187 0.9687-1.9219 0-0.34375-0.047-0.76563-0.031-0.4375-0.2968-0.875-0.25-0.45312-0.7813-0.84375-0.5156-0.39062-1.4844-0.60937l-3.5937-0.90625q-1.2344-0.29688-2.0156-0.78125-0.7813-0.48438-1.2344-1.0625-0.4375-0.57813-0.625-1.2344t-0.1875-1.3281q0-2.2656 1.6875-3.625 1.7031-1.375 4.5469-1.375 1.4531 0 3.125 0.39062 1.6875 0.39063 2.8437 1.1406l-0.7031 2.25q-0.75-0.64063-2.2344-1.1562-1.4687-0.53125-3.2187-0.53125zm19.102-2.0938q3.2969 0 5.0781 1.6719 1.7969 1.6562 1.7969 4.6719 0 0.64062-0.078 1.2969t-0.25 0.95313h-12.594v0.375q0 1.4062 0.375 2.7188t1.125 2.3281q0.75 1 1.8906 1.5938 1.1407 0.59375 2.7032 0.59375 0.8906 0 1.75-0.20312 0.8593-0.20313 1.6406-0.51563 0.7812-0.32812 1.4531-0.70312t1.2031-0.75l0.4532 2.1406q-0.5 0.29688-1.2032 0.65625-0.7031 0.34375-1.5625 0.64063-0.8593 0.29687-1.8906 0.5-1.0312 0.21875-2.1406 0.21875-2.0938 0-3.7031-0.73438-1.5938-0.73437-2.6875-1.9844-1.0782-1.25-1.6407-2.8906-0.5625-1.6406-0.5625-3.4219 0-1.8438 0.5782-3.5 0.5781-1.6562 1.7031-2.9219 1.125-1.2812 2.7812-2 1.6563-0.73437 3.7813-0.73437zm-0.1094 2.0938q-2.4531 0-3.8281 1.2969-1.3594 1.2812-1.8438 3.2188h10.188q0.047-0.1875 0.047-0.32812 0-0.15625 0-0.34375 0-0.9375-0.375-1.6562-0.375-0.73438-1.0156-1.2188-0.625-0.48438-1.4531-0.71875-0.8125-0.25-1.7188-0.25zm20.986 1.2344q-0.5937-0.34375-1.2031-0.54687-0.5938-0.20313-1.1563-0.20313-0.7343 0-1.4062 0.42188-0.6719 0.40625-1.2344 1.1094-0.5625 0.70313-1 1.6406-0.4219 0.9375-0.6406 1.9375v10.047h-2.625v-17.172h2.0625l0.2969 3.7656h0.1406q0.2656-0.85937 0.6875-1.6406 0.4375-0.78125 1.0469-1.375 0.625-0.59375 1.4062-0.95313 0.7813-0.35937 1.7969-0.35937 0.7031 0 1.4844 0.25 0.7812 0.23437 1.125 0.60937zm12.545 14.406h-3.3281l-7.7969-17.172h2.8282l6.6875 14.703 6.6875-14.703h2.7187zm13.589 0h-2.625v-17.172h2.625zm-3.1719-23.438q0-0.75 0.5312-1.3438 0.5469-0.60937 1.3282-0.60937 0.75 0 1.3437 0.60937 0.5938 0.59375 0.5938 1.3438 0 0.78125-0.5938 1.3281-0.5937 0.53125-1.3437 0.53125-0.7813 0-1.3282-0.53125-0.5312-0.54688-0.5312-1.3281zm22.389 9.4062q-0.8594-0.64062-2.4688-1.1406-1.5937-0.5-3.2031-0.5-1.6406 0-2.7813 0.5625-1.1406 0.54687-1.8906 1.4844t-1.0937 2.1562q-0.3282 1.2031-0.3282 2.5156 0 1.4531 0.4063 2.7969 0.4219 1.3438 1.2187 2.3594 0.8125 1 1.9844 1.5938t2.75 0.59375q1.4844 0 3.0625-0.625 1.5938-0.64063 2.6406-1.6094l0.5313 2.4219q-1.0469 0.67187-2.8594 1.2812-1.8125 0.59375-3.8594 0.59375-2.1718 0-3.7968-0.75t-2.6875-2-1.6094-2.9062q-0.5313-1.6719-0.5313-3.5312 0-1.7969 0.5-3.4219t1.5782-2.875q1.0937-1.25 2.7656-1.9688 1.6875-0.73437 4.0312-0.73437 1.7969 0 3.5157 0.42187 1.7187 0.40625 2.7656 1.0781zm12.684-3.7031q3.2968 0 5.0781 1.6719 1.7969 1.6562 1.7969 4.6719 0 0.64062-0.078 1.2969t-0.25 0.95313h-12.594v0.375q0 1.4062 0.375 2.7188t1.125 2.3281q0.75 1 1.8906 1.5938t2.7031 0.59375q0.8907 0 1.75-0.20312 0.8594-0.20313 1.6407-0.51563 0.7812-0.32812 1.4531-0.70312t1.2031-0.75l0.4531 2.1406q-0.5 0.29688-1.2031 0.65625-0.7031 0.34375-1.5625 0.64063-0.8594 0.29687-1.8906 0.5-1.0313 0.21875-2.1406 0.21875-2.0938 0-3.7032-0.73438-1.5937-0.73437-2.6875-1.9844-1.0781-1.25-1.6406-2.8906-0.5625-1.6406-0.5625-3.4219 0-1.8438 0.5781-3.5 0.5782-1.6562 1.7032-2.9219 1.125-1.2812 2.7812-2 1.6563-0.73437 3.7813-0.73437zm-0.1094 2.0938q-2.4531 0-3.8281 1.2969-1.3594 1.2812-1.8438 3.2188h10.188q0.047-0.1875 0.047-0.32812 0-0.15625 0-0.34375 0-0.9375-0.375-1.6562-0.375-0.73438-1.0156-1.2188-0.625-0.48438-1.4532-0.71875-0.8125-0.25-1.7187-0.25zm16.767 0q-1.7968 0-2.6093 0.65625-0.7969 0.65625-0.7969 1.7656 0 0.375 0.1094 0.79688 0.125 0.40625 0.4375 0.76562 0.3125 0.34375 0.8593 0.67188 0.5469 0.3125 1.4375 0.5l2.6563 0.59375q1.5625 0.32812 2.5156 0.90625 0.9531 0.57812 1.4688 1.25 0.5312 0.67187 0.6875 1.375 0.1718 0.6875 0.1718 1.2812 0 1.1562-0.4687 2.1719-0.4688 1-1.3438 1.75t-2.1406 1.1719q-1.2656 0.4375-2.8437 0.4375-1.9688 0-3.6563-0.57813-1.6719-0.57812-2.6875-1.2969l0.6719-2.4219q1.3437 1.2344 2.9844 1.7969 1.6562 0.54687 2.9531 0.54687 1.875 0 2.8437-0.90625 0.9688-0.92187 0.9688-1.9219 0-0.34375-0.047-0.76563-0.031-0.4375-0.2969-0.875-0.25-0.45312-0.7812-0.84375-0.5156-0.39062-1.4844-0.60937l-3.5937-0.90625q-1.2344-0.29688-2.0157-0.78125-0.7812-0.48438-1.2343-1.0625-0.4375-0.57813-0.625-1.2344t-0.1875-1.3281q0-2.2656 1.6875-3.625 1.7031-1.375 4.5468-1.375 1.4532 0 3.125 0.39062 1.6875 0.39063 2.8438 1.1406l-0.7031 2.25q-0.75-0.64063-2.2344-1.1562-1.4688-0.53125-3.2188-0.53125z" fill="#fff"/>
<path d="m1305.5 226.18h-567.04l-37.795 37.795 37.795 37.795h567.04z" fill="#33b5a1" fill-rule="evenodd"/>
<path d="m753.18 255.7q-1.2031-0.78125-2.9531-1.2969-1.75-0.53125-4-0.53125-2.5 0-4.2188 0.73438-1.7188 0.71875-2.7812 2.0312-1.0625 1.2969-1.5312 3.1562-0.46875 1.8438-0.46875 4.0781 0 5.125 2.2344 7.7344 2.25 2.6094 6.6875 2.6094 2.3594 0 4.3281-0.67187 1.9844-0.67188 3.1875-1.6406l0.73438 2.5q-1.4844 0.89063-3.5938 1.5938-2.1094 0.6875-4.7656 0.6875-3.0625 0-5.2969-1-2.2344-1.0156-3.7188-2.7344-1.4688-1.7188-2.1875-3.9688-0.70313-2.2656-0.70313-4.8125 0-2.6406 0.78125-4.9531 0.79688-2.3281 2.3438-4.0625 1.5469-1.7344 3.8438-2.7344 2.2969-1.0156 5.3594-1.0156 2.0156 0 4.0312 0.4375 2.0156 0.42188 3.4688 1.1719zm12.798 2.7969q2.2812 0 3.9219 0.76563 1.6406 0.76562 2.7031 2.0625 1.0625 1.2812 1.5625 2.9531 0.51563 1.6562 0.51563 3.4844 0 1.8281-0.51563 3.4531-0.5 1.625-1.5469 2.8438-1.0469 1.2031-2.6719 1.9219-1.625 0.70312-3.8281 0.70312-2.2656 0-3.9375-0.75-1.6562-0.75-2.7344-2-1.0781-1.25-1.6094-2.8906-0.51563-1.6406-0.51563-3.4688 0-1.8281 0.51563-3.4688 0.53125-1.6562 1.5938-2.9062t2.7031-1.9688q1.6406-0.73438 3.8438-0.73438zm0.10938 16.203q1.5 0 2.5938-0.5625 1.1094-0.5625 1.8281-1.5 0.73438-0.95313 1.0625-2.2031 0.34375-1.2656 0.34375-2.6406 0-1.4219-0.35937-2.7188-0.35938-1.3125-1.1094-2.2969-0.73437-1-1.875-1.5938-1.1406-0.59375-2.7031-0.59375-1.5312 0-2.625 0.5625-1.0781 0.5625-1.7969 1.5-0.70312 0.92188-1.0469 2.1719-0.32813 1.25-0.32813 2.6406 0 1.4062 0.35938 2.7188 0.35937 1.3125 1.0781 2.3281 0.73438 1 1.875 1.5938 1.1406 0.59375 2.7031 0.59375zm25.347 1.5312v-11.344q0-2.25-1.0156-3.2188-1-0.96875-2.5625-0.96875-0.9375 0-1.8594 0.29687-0.90625 0.29688-1.6875 0.875-0.78125 0.57813-1.3906 1.4219-0.59375 0.84375-0.92188 1.9219v11.016h-2.625v-17.172h2.0625l0.29688 3.2188h0.14062q0.48438-1.5781 2.1562-2.6719 1.6875-1.1094 4.2031-1.1094 1.1875 0 2.25 0.32813 1.0625 0.3125 1.8438 1.0312 0.78125 0.70312 1.25 1.8594t0.46875 2.8281v11.688zm9.0782-15.422h-2.875v-1.375l2.9375-0.375 0.5625-5.1875h1.9844v5.1875h4.0312v1.75h-4.0312v11.906q0 1.2031 0.34375 1.5781 0.35938 0.375 1.1094 0.375 0.85937 0 1.5312-0.26563 0.67187-0.26562 1.1875-0.64062l0.53125 1.9844q-0.64063 0.29688-1.6719 0.59375-1.0156 0.29688-2.25 0.29688-1.2031 0-1.875-0.34375-0.67187-0.32813-1.0156-0.875-0.32813-0.5625-0.42188-1.25-0.0781-0.70313-0.0781-1.375zm21.793 15.422-0.29688-3.0625h-0.15625q-0.4375 0.70312-1.1875 1.3438-0.75 0.64062-1.6719 1.125-0.90625 0.48437-1.9688 0.76562t-2.1094 0.28125q-2.4688 0-3.7031-1.4375-1.2188-1.4375-1.2188-3.6094 0-2.125 1.0781-3.3906 1.0781-1.2656 2.6406-1.9062 1.5781-0.64062 3.3125-0.82812 1.7344-0.1875 3.0469-0.1875h1.6719v-0.4375q0-1.4219-0.39063-2.1719-0.39062-0.75-1.1406-1.2656-0.625-0.40625-1.3594-0.57813-0.73437-0.17187-1.9219-0.17187-1.5625 0-2.7656 0.42187-1.1875 0.40625-2.3125 1.0781l-0.59375-2.25q2.5-1.4531 5.9688-1.4531 1.375 0 2.6094 0.25 1.2344 0.23438 2.1719 0.84375 1.0781 0.67188 1.7031 1.9062 0.64062 1.2188 0.64062 3.0469v11.688zm-6.6094-1.75q1.5312 0 3.25-0.96875 1.7188-0.98438 2.7969-2.8125v-3.4688h-0.32813q-1.5312 0-3.0625 0.125-1.5312 0.10937-2.7812 0.5625-1.25 0.4375-2.0469 1.2812-0.78125 0.82812-0.78125 2.2969 0 1.4531 0.79687 2.2188 0.8125 0.76563 2.1562 0.76563zm16.918 1.75h-2.625v-17.172h2.625zm-3.1719-23.438q0-0.75 0.53125-1.3438 0.54688-0.60938 1.3281-0.60938 0.75 0 1.3438 0.60938 0.59375 0.59375 0.59375 1.3438 0 0.78125-0.59375 1.3281-0.59375 0.53125-1.3438 0.53125-0.78125 0-1.3281-0.53125-0.53125-0.54687-0.53125-1.3281zm21.046 23.438v-11.344q0-2.25-1.0156-3.2188-1-0.96875-2.5625-0.96875-0.9375 0-1.8594 0.29687-0.90625 0.29688-1.6875 0.875-0.78125 0.57813-1.3906 1.4219-0.59375 0.84375-0.92188 1.9219v11.016h-2.625v-17.172h2.0625l0.29688 3.2188h0.14062q0.48438-1.5781 2.1562-2.6719 1.6875-1.1094 4.2031-1.1094 1.1875 0 2.25 0.32813 1.0625 0.3125 1.8438 1.0312 0.78125 0.70312 1.25 1.8594t0.46875 2.8281v11.688zm15.969-17.734q3.2969 0 5.0781 1.6719 1.7969 1.6562 1.7969 4.6719 0 0.64063-0.0781 1.2969t-0.25 0.95312h-12.594v0.375q0 1.4062 0.375 2.7188t1.125 2.3281q0.75 1 1.8906 1.5938 1.1406 0.59375 2.7031 0.59375 0.89063 0 1.75-0.20313 0.85938-0.20312 1.6406-0.51562 0.78125-0.32813 1.4531-0.70313 0.67188-0.375 1.2031-0.75l0.45312 2.1406q-0.5 0.29687-1.2031 0.65625-0.70313 0.34375-1.5625 0.64062-0.85938 0.29688-1.8906 0.5-1.0312 0.21875-2.1406 0.21875-2.0938 0-3.7031-0.73437-1.5938-0.73438-2.6875-1.9844-1.0781-1.25-1.6406-2.8906-0.5625-1.6406-0.5625-3.4219 0-1.8438 0.57812-3.5 0.57813-1.6562 1.7031-2.9219 1.125-1.2812 2.7812-2 1.6562-0.73438 3.7812-0.73438zm-0.10938 2.0938q-2.4531 0-3.8281 1.2969-1.3594 1.2812-1.8438 3.2188h10.188q0.0469-0.1875 0.0469-0.32813 0-0.15625 0-0.34375 0-0.9375-0.375-1.6562-0.375-0.73437-1.0156-1.2188-0.625-0.48437-1.4531-0.71875-0.8125-0.25-1.7188-0.25zm20.986 1.2344q-0.59375-0.34375-1.2031-0.54688-0.59375-0.20312-1.1562-0.20312-0.73437 0-1.4062 0.42187-0.67187 0.40625-1.2344 1.1094-0.5625 0.70312-1 1.6406-0.42188 0.9375-0.64063 1.9375v10.047h-2.625v-17.172h2.0625l0.29688 3.7656h0.14062q0.26563-0.85938 0.6875-1.6406 0.4375-0.78125 1.0469-1.375 0.625-0.59375 1.4062-0.95312 0.78125-0.35938 1.7969-0.35938 0.70313 0 1.4844 0.25 0.78125 0.23438 1.125 0.60938zm9.1075-1.2344q-1.7969 0-2.6094 0.65625-0.79688 0.65625-0.79688 1.7656 0 0.375 0.10938 0.79687 0.125 0.40625 0.4375 0.76563 0.3125 0.34375 0.85937 0.67187 0.54688 0.3125 1.4375 0.5l2.6562 0.59375q1.5625 0.32813 2.5156 0.90625 0.95312 0.57813 1.4688 1.25 0.53125 0.67188 0.6875 1.375 0.17187 0.6875 0.17187 1.2812 0 1.1562-0.46875 2.1719-0.46875 1-1.3438 1.75t-2.1406 1.1719q-1.2656 0.4375-2.8438 0.4375-1.9688 0-3.6562-0.57812-1.6719-0.57813-2.6875-1.2969l0.67187-2.4219q1.3438 1.2344 2.9844 1.7969 1.6562 0.54688 2.9531 0.54688 1.875 0 2.8438-0.90625 0.96875-0.92188 0.96875-1.9219 0-0.34375-0.0469-0.76562-0.0312-0.4375-0.29688-0.875-0.25-0.45313-0.78125-0.84375-0.51562-0.39063-1.4844-0.60938l-3.5938-0.90625q-1.2344-0.29687-2.0156-0.78125-0.78125-0.48437-1.2344-1.0625-0.4375-0.57812-0.625-1.2344t-0.1875-1.3281q0-2.2656 1.6875-3.625 1.7031-1.375 4.5469-1.375 1.4531 0 3.125 0.39063 1.6875 0.39062 2.8438 1.1406l-0.70312 2.25q-0.75-0.64062-2.2344-1.1562-1.4688-0.53125-3.2188-0.53125zm23.185 15.641h-2.625v-17.172h2.625zm-3.1719-23.438q0-0.75 0.53125-1.3438 0.54687-0.60938 1.3281-0.60938 0.75 0 1.3438 0.60938 0.59375 0.59375 0.59375 1.3438 0 0.78125-0.59375 1.3281-0.59375 0.53125-1.3438 0.53125-0.78125 0-1.3281-0.53125-0.53125-0.54687-0.53125-1.3281zm21.046 23.438v-11.344q0-2.25-1.0156-3.2188-1-0.96875-2.5625-0.96875-0.9375 0-1.8594 0.29687-0.90625 0.29688-1.6875 0.875-0.78125 0.57813-1.3906 1.4219-0.59375 0.84375-0.92188 1.9219v11.016h-2.625v-17.172h2.0625l0.29688 3.2188h0.14062q0.48438-1.5781 2.1562-2.6719 1.6875-1.1094 4.2031-1.1094 1.1875 0 2.25 0.32813 1.0625 0.3125 1.8438 1.0312 0.78125 0.70312 1.25 1.8594t0.46875 2.8281v11.688zm26.646-17.734q1.9062 0 3.3281 0.75 1.4219 0.75 2.3438 1.9844 0.9375 1.2188 1.4062 2.8438t0.46875 3.4219q0 1.8594-0.5 3.5312-0.5 1.6562-1.5 2.9062-0.98437 1.25-2.4844 2-1.4844 0.75-3.4688 0.75-2.5 0-4.1094-1.0781-1.5938-1.0938-2.0781-2.7031v13.031h-2.625v-26.875h2.0625l0.29687 3.2188h0.14063q0.45312-0.67187 1.1094-1.3594 0.65625-0.70313 1.5156-1.2188 0.85937-0.53125 1.875-0.85938 1.0312-0.34375 2.2188-0.34375zm-0.67188 2.2031q-1.7812 0-3.3438 0.96875-1.5469 0.96875-2.5781 2.7969v5.5q0.32812 1.0781 0.95312 1.9062 0.64063 0.8125 1.4844 1.4062t1.7969 0.90625q0.95313 0.29688 1.9219 0.29688 1.2969 0 2.2656-0.51563 0.98438-0.53125 1.625-1.4688 0.65625-0.9375 0.98438-2.1562 0.34375-1.2344 0.34375-2.6562 0-1.3438-0.3125-2.6094-0.3125-1.2812-0.98438-2.25-0.67187-0.96875-1.7031-1.5469-1.0312-0.57812-2.4531-0.57812zm20.464-2.2031q2.2812 0 3.9219 0.76563 1.6406 0.76562 2.7031 2.0625 1.0625 1.2812 1.5625 2.9531 0.51562 1.6562 0.51562 3.4844 0 1.8281-0.51562 3.4531-0.5 1.625-1.5469 2.8438-1.0469 1.2031-2.6719 1.9219-1.625 0.70312-3.8281 0.70312-2.2656 0-3.9375-0.75-1.6562-0.75-2.7344-2-1.0781-1.25-1.6094-2.8906-0.51562-1.6406-0.51562-3.4688 0-1.8281 0.51562-3.4688 0.53125-1.6562 1.5938-2.9062t2.7031-1.9688q1.6406-0.73438 3.8438-0.73438zm0.10937 16.203q1.5 0 2.5938-0.5625 1.1094-0.5625 1.8281-1.5 0.73437-0.95313 1.0625-2.2031 0.34375-1.2656 0.34375-2.6406 0-1.4219-0.35938-2.7188-0.35937-1.3125-1.1094-2.2969-0.73438-1-1.875-1.5938-1.1406-0.59375-2.7031-0.59375-1.5312 0-2.625 0.5625-1.0781 0.5625-1.7969 1.5-0.70313 0.92188-1.0469 2.1719-0.32812 1.25-0.32812 2.6406 0 1.4062 0.35937 2.7188 0.35938 1.3125 1.0781 2.3281 0.73437 1 1.875 1.5938 1.1406 0.59375 2.7031 0.59375zm19.707 1.9844q-1.9063 0-3.3281-0.75-1.4063-0.75-2.3438-1.9844-0.9375-1.2344-1.4062-2.8438-0.45313-1.625-0.45313-3.4219 0-1.8281 0.5-3.5 0.5-1.6875 1.4844-2.9375 1-1.25 2.4844-2 1.5-0.75 3.4844-0.75 2.5 0 4.0937 1.0938 1.6094 1.0781 2.0938 2.6875v-13.672h2.6093v27.625h-2.0468l-0.2969-3.0625h-0.1563q-0.8906 1.375-2.6093 2.4531-1.7188 1.0625-4.1094 1.0625zm0.2969-2.2031q1.7968 0 3.5312-0.96875 1.7344-0.98438 2.7813-2.8125v-5.4844q-0.6719-2.125-2.2657-3.3125-1.5781-1.2031-3.5625-1.2031-1.2968 0-2.3281 0.53125-1.0312 0.51562-1.7344 1.4531-0.70308 0.9375-1.1093 2.25-0.39063 1.2969-0.39063 2.8594 0 1.2031 0.26563 2.3906 0.26562 1.1875 0.85933 2.1406 0.5938 0.95312 1.5625 1.5625 0.9844 0.59375 2.3907 0.59375zm33.156-12.656q-0.5937-0.34375-1.2031-0.54688-0.5937-0.20312-1.1562-0.20312-0.7344 0-1.4063 0.42187-0.6719 0.40625-1.2344 1.1094-0.5625 0.70312-1 1.6406-0.4218 0.9375-0.6406 1.9375v10.047h-2.625v-17.172h2.0625l0.2969 3.7656h0.1406q0.2656-0.85938 0.6875-1.6406 0.4375-0.78125 1.0469-1.375 0.625-0.59375 1.4062-0.95312 0.7813-0.35938 1.7969-0.35938 0.7031 0 1.4844 0.25 0.7812 0.23438 1.125 0.60938zm11.375-3.3281q3.2968 0 5.0781 1.6719 1.7969 1.6562 1.7969 4.6719 0 0.64063-0.078 1.2969t-0.25 0.95312h-12.594v0.375q0 1.4062 0.375 2.7188t1.125 2.3281q0.75 1 1.8906 1.5938t2.7031 0.59375q0.8907 0 1.75-0.20313 0.8594-0.20312 1.6407-0.51562 0.7812-0.32813 1.4531-0.70313t1.2031-0.75l0.4531 2.1406q-0.5 0.29687-1.2031 0.65625-0.7031 0.34375-1.5625 0.64062-0.8594 0.29688-1.8906 0.5-1.0313 0.21875-2.1406 0.21875-2.0938 0-3.7032-0.73437-1.5937-0.73438-2.6875-1.9844-1.0781-1.25-1.6406-2.8906-0.5625-1.6406-0.5625-3.4219 0-1.8438 0.5781-3.5 0.5782-1.6562 1.7032-2.9219 1.125-1.2812 2.7812-2 1.6563-0.73438 3.7813-0.73438zm-0.1094 2.0938q-2.4531 0-3.8281 1.2969-1.3594 1.2812-1.8438 3.2188h10.188q0.047-0.1875 0.047-0.32813 0-0.15625 0-0.34375 0-0.9375-0.375-1.6562-0.375-0.73437-1.0156-1.2188-0.625-0.48437-1.4532-0.71875-0.8125-0.25-1.7187-0.25zm22.627 15.641-0.2969-3.0625h-0.1562q-0.4375 0.70312-1.1875 1.3438-0.75 0.64062-1.6719 1.125-0.9062 0.48437-1.9687 0.76562t-2.1094 0.28125q-2.4688 0-3.7031-1.4375-1.2188-1.4375-1.2188-3.6094 0-2.125 1.0781-3.3906 1.0782-1.2656 2.6407-1.9062 1.5781-0.64062 3.3125-0.82812 1.7343-0.1875 3.0468-0.1875h1.6719v-0.4375q0-1.4219-0.3906-2.1719t-1.1406-1.2656q-0.625-0.40625-1.3594-0.57813-0.7344-0.17187-1.9219-0.17187-1.5625 0-2.7656 0.42187-1.1875 0.40625-2.3125 1.0781l-0.5938-2.25q2.5-1.4531 5.9688-1.4531 1.375 0 2.6094 0.25 1.2343 0.23438 2.1718 0.84375 1.0782 0.67188 1.7032 1.9062 0.6406 1.2188 0.6406 3.0469v11.688zm-6.6094-1.75q1.5313 0 3.25-0.96875 1.7188-0.98438 2.7969-2.8125v-3.4688h-0.3281q-1.5313 0-3.0625 0.125-1.5313 0.10937-2.7813 0.5625-1.25 0.4375-2.0468 1.2812-0.7813 0.82812-0.7813 2.2969 0 1.4531 0.7969 2.2188 0.8125 0.76563 2.1562 0.76563zm20.714 2.2031q-1.9062 0-3.3281-0.75-1.4062-0.75-2.3437-1.9844-0.9375-1.2344-1.4063-2.8438-0.4531-1.625-0.4531-3.4219 0-1.8281 0.5-3.5 0.5-1.6875 1.4844-2.9375 1-1.25 2.4843-2 1.5-0.75 3.4844-0.75 2.5 0 4.0938 1.0938 1.6093 1.0781 2.0937 2.6875v-13.672h2.6094v27.625h-2.0469l-0.2969-3.0625h-0.1562q-0.8906 1.375-2.6094 2.4531-1.7187 1.0625-4.1094 1.0625zm0.2969-2.2031q1.7969 0 3.5313-0.96875 1.7343-0.98438 2.7812-2.8125v-5.4844q-0.6719-2.125-2.2656-3.3125-1.5781-1.2031-3.5625-1.2031-1.2969 0-2.3281 0.53125-1.0313 0.51562-1.7344 1.4531t-1.1094 2.25q-0.3906 1.2969-0.3906 2.8594 0 1.2031 0.2656 2.3906t0.8594 2.1406q0.5937 0.95312 1.5625 1.5625 0.9844 0.59375 2.3906 0.59375zm22.886 1.9062q-0.5625 1.1875-1.3437 2.8125-0.7813 1.625-1.875 3.0781-1.0782 1.4531-2.5313 2.4844t-3.2812 1.0312q-0.2969 0-0.4532-0.0312-0.1406-0.0156-0.3281-0.0937l-0.4844-2.4531q0.1094 0.0312 0.25 0.0625 0.1563 0.0469 0.5313 0.0469 0.75 0 1.3906-0.15625 0.6563-0.14063 1.2969-0.59375 1.3125-0.9375 2.375-2.7344 1.0625-1.7812 1.9219-4.1719l-8.5938-16.609h3.1094l6.8281 14.297 6.1094-14.297h2.9531zm20.388-15.578h-2.875v-1.375l2.875-0.34375q0-2.0781 0.125-3.5625 0.125-1.5 0.3437-2.5312 0.2344-1.0312 0.5156-1.6719 0.2813-0.65625 0.5469-1.0781 0.7031-1.0469 1.75-1.4375 1.0469-0.39062 2.1563-0.39062 0.1562 0 0.5312 0.0312 0.375 0.0156 0.8438 0.0781 0.4687 0.0469 0.9531 0.17188 0.4844 0.125 0.9219 0.35937l-0.625 2.2031q-0.1094 0-0.5313-0.125-0.4062-0.14063-0.9219-0.29688-0.5-0.17187-1.0781-0.32812t-1.0156-0.15625q-0.5625 0-0.9375 0.32812-0.375 0.3125-0.5781 1.0469-0.2032 0.71875-0.2969 1.9219-0.094 1.1875-0.094 2.9375v2.4688h4.0313v1.75h-4.0313v15.422h-2.6093zm17.503-2.3125q2.2813 0 3.9219 0.76563 1.6406 0.76562 2.7031 2.0625 1.0625 1.2812 1.5625 2.9531 0.5156 1.6562 0.5156 3.4844 0 1.8281-0.5156 3.4531-0.5 1.625-1.5469 2.8438-1.0468 1.2031-2.6718 1.9219-1.625 0.70312-3.8282 0.70312-2.2656 0-3.9375-0.75-1.6562-0.75-2.7343-2-1.0782-1.25-1.6094-2.8906-0.5156-1.6406-0.5156-3.4688 0-1.8281 0.5156-3.4688 0.5312-1.6562 1.5937-2.9062t2.7032-1.9688q1.6406-0.73438 3.8437-0.73438zm0.1094 16.203q1.5 0 2.5937-0.5625 1.1094-0.5625 1.8282-1.5 0.7343-0.95313 1.0625-2.2031 0.3437-1.2656 0.3437-2.6406 0-1.4219-0.3594-2.7188-0.3593-1.3125-1.1093-2.2969-0.7344-1-1.875-1.5938-1.1407-0.59375-2.7032-0.59375-1.5312 0-2.625 0.5625-1.0781 0.5625-1.7968 1.5-0.7032 0.92188-1.0469 2.1719-0.3281 1.25-0.3281 2.6406 0 1.4062 0.3593 2.7188 0.3594 1.3125 1.0782 2.3281 0.7343 1 1.875 1.5938 1.1406 0.59375 2.7031 0.59375zm22.55-12.875q-0.5937-0.34375-1.2031-0.54688-0.5938-0.20312-1.1563-0.20312-0.7343 0-1.4062 0.42187-0.6719 0.40625-1.2344 1.1094-0.5625 0.70312-1 1.6406-0.4219 0.9375-0.6406 1.9375v10.047h-2.625v-17.172h2.0625l0.2969 3.7656h0.1406q0.2656-0.85938 0.6875-1.6406 0.4375-0.78125 1.0469-1.375 0.625-0.59375 1.4062-0.95312 0.7813-0.35938 1.7969-0.35938 0.7031 0 1.4844 0.25 0.7812 0.23438 1.125 0.60938zm17.394-1.2344q-1.7969 0-2.6094 0.65625-0.7969 0.65625-0.7969 1.7656 0 0.375 0.1094 0.79687 0.125 0.40625 0.4375 0.76563 0.3125 0.34375 0.8594 0.67187 0.5469 0.3125 1.4375 0.5l2.6562 0.59375q1.5625 0.32813 2.5157 0.90625 0.9531 0.57813 1.4687 1.25 0.5313 0.67188 0.6875 1.375 0.1719 0.6875 0.1719 1.2812 0 1.1562-0.4688 2.1719-0.4687 1-1.3437 1.75t-2.1406 1.1719q-1.2657 0.4375-2.8438 0.4375-1.9687 0-3.6562-0.57812-1.6719-0.57813-2.6875-1.2969l0.6718-2.4219q1.3438 1.2344 2.9844 1.7969 1.6563 0.54688 2.9531 0.54688 1.875 0 2.8438-0.90625 0.9687-0.92188 0.9687-1.9219 0-0.34375-0.047-0.76562-0.031-0.4375-0.2969-0.875-0.25-0.45313-0.7813-0.84375-0.5156-0.39063-1.4843-0.60938l-3.5938-0.90625q-1.2344-0.29687-2.0156-0.78125-0.7813-0.48437-1.2344-1.0625-0.4375-0.57812-0.625-1.2344t-0.1875-1.3281q0-2.2656 1.6875-3.625 1.7031-1.375 4.5469-1.375 1.4531 0 3.125 0.39063 1.6875 0.39062 2.8437 1.1406l-0.7031 2.25q-0.75-0.64062-2.2344-1.1562-1.4687-0.53125-3.2187-0.53125zm19.102-2.0938q3.2969 0 5.0781 1.6719 1.7969 1.6562 1.7969 4.6719 0 0.64063-0.078 1.2969t-0.25 0.95312h-12.594v0.375q0 1.4062 0.375 2.7188t1.125 2.3281q0.75 1 1.8906 1.5938 1.1407 0.59375 2.7032 0.59375 0.8906 0 1.75-0.20313 0.8593-0.20312 1.6406-0.51562 0.7812-0.32813 1.4531-0.70313t1.2031-0.75l0.4532 2.1406q-0.5 0.29687-1.2032 0.65625-0.7031 0.34375-1.5625 0.64062-0.8593 0.29688-1.8906 0.5-1.0312 0.21875-2.1406 0.21875-2.0938 0-3.7031-0.73437-1.5938-0.73438-2.6875-1.9844-1.0782-1.25-1.6407-2.8906-0.5625-1.6406-0.5625-3.4219 0-1.8438 0.5782-3.5 0.5781-1.6562 1.7031-2.9219 1.125-1.2812 2.7812-2 1.6563-0.73438 3.7813-0.73438zm-0.1094 2.0938q-2.4531 0-3.8281 1.2969-1.3594 1.2812-1.8438 3.2188h10.188q0.047-0.1875 0.047-0.32813 0-0.15625 0-0.34375 0-0.9375-0.375-1.6562-0.375-0.73437-1.0156-1.2188-0.625-0.48437-1.4531-0.71875-0.8125-0.25-1.7188-0.25zm20.986 1.2344q-0.5937-0.34375-1.2031-0.54688-0.5937-0.20312-1.1562-0.20312-0.7344 0-1.4063 0.42187-0.6719 0.40625-1.2344 1.1094-0.5625 0.70312-1 1.6406-0.4218 0.9375-0.6406 1.9375v10.047h-2.625v-17.172h2.0625l0.2969 3.7656h0.1406q0.2656-0.85938 0.6875-1.6406 0.4375-0.78125 1.0469-1.375 0.625-0.59375 1.4062-0.95312 0.7813-0.35938 1.7969-0.35938 0.7031 0 1.4844 0.25 0.7812 0.23438 1.125 0.60938zm12.545 14.406h-3.3281l-7.7969-17.172h2.8282l6.6875 14.703 6.6875-14.703h2.7187zm13.589 0h-2.625v-17.172h2.625zm-3.1719-23.438q0-0.75 0.5312-1.3438 0.5469-0.60938 1.3282-0.60938 0.75 0 1.3437 0.60938 0.5938 0.59375 0.5938 1.3438 0 0.78125-0.5938 1.3281-0.5937 0.53125-1.3437 0.53125-0.7813 0-1.3282-0.53125-0.5312-0.54687-0.5312-1.3281zm22.389 9.4062q-0.8594-0.64063-2.4688-1.1406-1.5937-0.5-3.2031-0.5-1.6406 0-2.7812 0.5625-1.1407 0.54688-1.8907 1.4844t-1.0937 2.1562q-0.3281 1.2031-0.3281 2.5156 0 1.4531 0.4062 2.7969 0.4219 1.3438 1.2188 2.3594 0.8125 1 1.9843 1.5938 1.1719 0.59375 2.75 0.59375 1.4844 0 3.0625-0.625 1.5938-0.64062 2.6407-1.6094l0.5312 2.4219q-1.0469 0.67188-2.8594 1.2812-1.8125 0.59375-3.8593 0.59375-2.1719 0-3.7969-0.75t-2.6875-2-1.6094-2.9062q-0.5312-1.6719-0.5312-3.5312 0-1.7969 0.5-3.4219t1.5781-2.875q1.0937-1.25 2.7656-1.9688 1.6875-0.73438 4.0313-0.73438 1.7968 0 3.5156 0.42188 1.7187 0.40625 2.7656 1.0781zm12.684-3.7031q3.2968 0 5.0781 1.6719 1.7969 1.6562 1.7969 4.6719 0 0.64063-0.078 1.2969t-0.25 0.95312h-12.594v0.375q0 1.4062 0.375 2.7188t1.125 2.3281q0.75 1 1.8906 1.5938t2.7031 0.59375q0.8907 0 1.75-0.20313 0.8594-0.20312 1.6407-0.51562 0.7812-0.32813 1.4531-0.70313t1.2031-0.75l0.4531 2.1406q-0.5 0.29687-1.2031 0.65625-0.7031 0.34375-1.5625 0.64062-0.8594 0.29688-1.8906 0.5-1.0313 0.21875-2.1406 0.21875-2.0938 0-3.7032-0.73437-1.5937-0.73438-2.6875-1.9844-1.0781-1.25-1.6406-2.8906-0.5625-1.6406-0.5625-3.4219 0-1.8438 0.5781-3.5 0.5782-1.6562 1.7032-2.9219 1.125-1.2812 2.7812-2 1.6563-0.73438 3.7813-0.73438zm-0.1094 2.0938q-2.4531 0-3.8281 1.2969-1.3594 1.2812-1.8438 3.2188h10.188q0.047-0.1875 0.047-0.32813 0-0.15625 0-0.34375 0-0.9375-0.375-1.6562-0.375-0.73437-1.0156-1.2188-0.625-0.48437-1.4532-0.71875-0.8125-0.25-1.7187-0.25z" fill="#fff"/>
</svg>
