<?xml version="1.0" encoding="UTF-8"?>
<svg fill="none" stroke-linecap="square" stroke-miterlimit="10" version="1.1" viewBox="0 0 1061.5 608.93" xmlns="http://www.w3.org/2000/svg">
<path d="m187.77 36.022c0-6.514 5.2807-11.795 11.795-11.795h355.13c3.1282 0 6.1282 1.2427 8.3402 3.4546 2.212 2.212 3.4546 5.212 3.4546 8.3402v47.178c0 6.5141-5.2807 11.795-11.795 11.795h-355.13c-6.5141 0-11.795-5.2807-11.795-11.795z" fill="#93c47d" fill-rule="evenodd"/>
<path d="m187.77 36.022c0-6.514 5.2807-11.795 11.795-11.795h355.13c3.1282 0 6.1282 1.2427 8.3402 3.4546 2.212 2.212 3.4546 5.212 3.4546 8.3402v47.178c0 6.5141-5.2807 11.795-11.795 11.795h-355.13c-6.5141 0-11.795-5.2807-11.795-11.795z" fill-rule="evenodd" stroke="#002050" stroke-linejoin="round"/>
<path d="m307.44 57.729h6.7344v2.4531h-9.5469v-16.156h2.8125zm13.724-9.1719q1.5 0 2.5625 0.5 1.0781 0.5 1.7812 1.3438 0.70312 0.84375 1.0312 1.9375 0.32812 1.0938 0.32812 2.2969 0 1.1875-0.32812 2.25-0.32813 1.0625-1.0312 1.8594-0.70313 0.79688-1.7656 1.2656t-2.5 0.46875q-1.5 0-2.5781-0.48438-1.0781-0.5-1.7812-1.3125-0.70313-0.82812-1.0469-1.9062-0.34375-1.0781-0.34375-2.2656 0-1.2031 0.34375-2.2812 0.34375-1.0781 1.0312-1.8906 0.70313-0.82812 1.7812-1.2969 1.0781-0.48438 2.5156-0.48438zm0.0469 9.8906q0.71875 0 1.2344-0.29688 0.53125-0.3125 0.875-0.84375t0.5-1.2031q0.15625-0.6875 0.15625-1.4531 0-0.78125-0.17188-1.5-0.17187-0.71875-0.53125-1.2656-0.34375-0.5625-0.89062-0.89063-0.53125-0.32812-1.2969-0.32812-0.70312 0-1.2188 0.3125-0.51562 0.29687-0.84375 0.8125-0.32812 0.51562-0.48437 1.2031-0.15625 0.67188-0.15625 1.4375 0 0.78125 0.15625 1.5t0.5 1.2969q0.35937 0.5625 0.89062 0.89062 0.54688 0.32813 1.2812 0.32813zm15.23 1.7344-0.20313-1.5469h-0.0937q-0.67187 0.84375-1.8125 1.3438-1.125 0.5-2.2969 0.5-1.5469 0-2.4375-0.89063-0.875-0.90625-0.875-2.3594 0-1.0156 0.42187-1.7969 0.4375-0.79687 1.2344-1.3438 0.8125-0.5625 1.9375-0.85937 1.125-0.29688 2.5312-0.29688h1.0469v-0.35937q0-0.95313-0.60937-1.3906-0.64063-0.4375-1.9844-0.4375-1.8125 0-3.2344 0.79688l-0.51563-2.0312q1.6406-0.95313 3.9688-0.95313 2.4531 0 3.7188 1 0.59375 0.46875 0.96875 1.2031 0.375 0.73437 0.375 1.7656v7.6562zm-3.3594-1.8906q0.78125 0 1.5625-0.375t1.25-1.0156v-2.2188h-0.46875q-2 0-2.9219 0.51563-0.92188 0.5-0.92188 1.625 0 1.4688 1.5 1.4688zm13.243 2.1875q-1.1562 0-2.1094-0.46875-0.95312-0.46875-1.625-1.2656-0.67187-0.8125-1.0469-1.9062-0.35938-1.1094-0.35938-2.4062 0-1.1562 0.29688-2.2188 0.3125-1.0625 0.9375-1.8594 0.64062-0.8125 1.5781-1.2969 0.95313-0.5 2.25-0.5 1.1719 0 2.0938 0.39063 0.9375 0.39062 1.5 1.1094v-7.9844h2.6719v18.109h-2.1562l-0.20313-1.5469h-0.0937q-0.6875 0.76562-1.5625 1.3125-0.85937 0.53125-2.1719 0.53125zm0.34375-2.0312q0.39062 0 0.82812-0.10938 0.4375-0.10937 0.85938-0.29687 0.4375-0.20313 0.82812-0.48438 0.39063-0.28125 0.65625-0.65625v-4.7031q-0.73437-0.89063-1.5-1.2188-0.75-0.34375-1.4531-0.34375-0.78125 0-1.3438 0.3125-0.5625 0.29687-0.95313 0.84375-0.375 0.53125-0.5625 1.2344-0.1875 0.70313-0.1875 1.4531 0 0.73437 0.17188 1.4531 0.17187 0.71875 0.51562 1.2812 0.34375 0.54688 0.875 0.89063 0.54688 0.34375 1.2656 0.34375zm21.399 2.0312q-1.3125 0-2.1875-0.53125-0.85938-0.54688-1.5469-1.3125h-0.10937l-0.1875 1.5469h-2.1562v-18.109h2.6719v7.9844q0.5625-0.71875 1.4844-1.1094 0.9375-0.39063 2.1094-0.39063 1.2656 0 2.2188 0.5 0.96875 0.48438 1.5938 1.2969 0.64063 0.79687 0.9375 1.8594 0.3125 1.0625 0.3125 2.2188 0 1.2969-0.375 2.4062-0.35937 1.0938-1.0312 1.9062-0.67187 0.79688-1.625 1.2656-0.95312 0.46875-2.1094 0.46875zm-0.34375-2.0312q0.71875 0 1.2344-0.34375 0.53125-0.34375 0.875-0.89063 0.35938-0.5625 0.53125-1.2812 0.17188-0.71875 0.17188-1.4531 0-0.75-0.1875-1.4531-0.17188-0.70312-0.5625-1.2344-0.375-0.54688-0.95313-0.84375-0.5625-0.3125-1.3281-0.3125-0.70313 0-1.4688 0.34375-0.75 0.32812-1.4844 1.2188v4.7031q0.26563 0.375 0.65625 0.65625 0.39063 0.28125 0.8125 0.48438 0.4375 0.1875 0.875 0.29687 0.4375 0.10938 0.82813 0.10938zm15.061 1.7344-0.20313-1.5469h-0.0937q-0.67187 0.84375-1.8125 1.3438-1.125 0.5-2.2969 0.5-1.5469 0-2.4375-0.89063-0.875-0.90625-0.875-2.3594 0-1.0156 0.42187-1.7969 0.4375-0.79687 1.2344-1.3438 0.8125-0.5625 1.9375-0.85937 1.125-0.29688 2.5312-0.29688h1.0469v-0.35937q0-0.95313-0.60937-1.3906-0.64063-0.4375-1.9844-0.4375-1.8125 0-3.2344 0.79688l-0.51563-2.0312q1.6406-0.95313 3.9688-0.95313 2.4531 0 3.7188 1 0.59375 0.46875 0.96875 1.2031 0.375 0.73437 0.375 1.7656v7.6562zm-3.3594-1.8906q0.78125 0 1.5625-0.375t1.25-1.0156v-2.2188h-0.46875q-2 0-2.9219 0.51563-0.92188 0.5-0.92188 1.625 0 1.4688 1.5 1.4688zm11.603 1.8906h-2.7031v-18.109h2.7031zm10.377 0-0.20312-1.5469h-0.0937q-0.67188 0.84375-1.8125 1.3438-1.125 0.5-2.2969 0.5-1.5469 0-2.4375-0.89063-0.875-0.90625-0.875-2.3594 0-1.0156 0.42188-1.7969 0.4375-0.79687 1.2344-1.3438 0.8125-0.5625 1.9375-0.85937 1.125-0.29688 2.5312-0.29688h1.0469v-0.35937q0-0.95313-0.60938-1.3906-0.64062-0.4375-1.9844-0.4375-1.8125 0-3.2344 0.79688l-0.51562-2.0312q1.6406-0.95313 3.9688-0.95313 2.4531 0 3.7188 1 0.59375 0.46875 0.96875 1.2031 0.375 0.73437 0.375 1.7656v7.6562zm-3.3594-1.8906q0.78125 0 1.5625-0.375t1.25-1.0156v-2.2188h-0.46875q-2 0-2.9219 0.51563-0.92187 0.5-0.92187 1.625 0 1.4688 1.5 1.4688zm16.29 1.8906v-7.4375q0-2-1.7031-2-0.42187 0-0.90625 0.14063-0.46875 0.14062-0.90625 0.42187t-0.79687 0.70313q-0.35938 0.42187-0.53125 0.95312v7.2188h-2.6875v-11.25h2.1094l0.125 1.6562h0.0937q0.51563-1.0312 1.5938-1.5312 1.0938-0.5 2.3438-0.5 0.8125 0 1.5156 0.21875 0.70312 0.20313 1.25 0.67188 0.5625 0.45312 0.875 1.2188 0.32812 0.75 0.32812 1.8594v7.6562zm14.541-8.4688q-0.26562-0.1875-0.67187-0.375-0.40625-0.20312-0.875-0.34375-0.45313-0.15625-0.96875-0.23437-0.5-0.0937-0.9375-0.0937-0.82813 0-1.4062 0.3125-0.57813 0.29687-0.9375 0.79687-0.34375 0.5-0.5 1.1719-0.15625 0.65625-0.15625 1.3594 0 0.82813 0.1875 1.5625 0.20312 0.71875 0.59375 1.2656 0.39062 0.53125 0.98437 0.84375t1.3906 0.3125q0.875 0 1.8594-0.34375 1-0.35938 1.6562-1l0.48438 2.2969q-0.67188 0.45313-1.8594 0.84375-1.1875 0.39063-2.5312 0.39063-1.4219 0-2.5-0.48438-1.0625-0.5-1.7656-1.3125-0.6875-0.82812-1.0469-1.9062-0.34375-1.0938-0.34375-2.3125 0-1.1875 0.32813-2.25 0.32812-1.0625 1.0312-1.875 0.71875-0.82812 1.8125-1.2969 1.1094-0.48438 2.6406-0.48438 1.1875 0 2.3125 0.28125 1.125 0.26563 1.8125 0.70313zm8.2157-3.1562q2.1562 0 3.3281 1.0938 1.1719 1.0938 1.1719 3.0625 0 0.28125-0.0312 0.59375-0.0312 0.29688-0.0937 0.59375-0.0625 0.28125-0.15625 0.51563-0.0781 0.23437-0.17187 0.375h-7.125q0.0469 0.73437 0.26562 1.3906 0.21875 0.64063 0.64063 1.125 0.42187 0.48438 1.0156 0.76563t1.4062 0.28125q0.90625 0 1.9219-0.34375 1.0156-0.34375 1.7188-0.85938l0.45312 2q-0.32812 0.20313-0.79687 0.4375-0.45313 0.23438-1.0469 0.4375-0.59375 0.1875-1.2656 0.3125-0.67188 0.14063-1.4062 0.14063-1.3594 0-2.4219-0.46875-1.0469-0.48438-1.7656-1.2969-0.70313-0.82812-1.0781-1.9062-0.35937-1.0781-0.35937-2.25 0-1.2031 0.375-2.2812 0.39062-1.0938 1.125-1.9219 0.73437-0.84375 1.8125-1.3125 1.0938-0.48438 2.4844-0.48438zm-0.0625 2.1094q-1.0312 0-1.7656 0.60937-0.71875 0.59375-1.0312 1.6094h4.6719q0.0312-0.0625 0.0312-0.15625 0.0156-0.10938 0.0156-0.25 0-0.78125-0.54688-1.2969-0.53125-0.51562-1.375-0.51562zm13.747 0.70312q-0.25-0.1875-0.76563-0.3125-0.51562-0.125-0.875-0.125-0.48437 0-0.8125 0.23438-0.3125 0.23437-0.5625 0.60937-0.23437 0.375-0.40625 0.875-0.17187 0.48438-0.32812 1v6.5312h-2.6875v-11.25h2.1094l0.125 2.3438h0.0937q0.23438-0.51562 0.5-1 0.28125-0.5 0.625-0.875t0.79688-0.60937q0.45312-0.23438 1.0625-0.23438 0.98437 0 1.8281 0.64063z" fill="#fff"/>
<path d="m377.13 94.994v44.539h-0.22052v44.532" fill-opacity="0"/>
<path d="m377.13 94.994v41.071" fill-rule="evenodd" stroke="#9fc5e8" stroke-linejoin="round" stroke-width="8"/>
<path d="m363.92 136 13.047 36.365 13.38-36.244z" fill="#9fc5e8" fill-rule="evenodd" stroke="#9fc5e8" stroke-width="8"/>
</svg>
