<?xml version="1.0" encoding="UTF-8"?>
<svg fill="none" stroke-linecap="square" stroke-miterlimit="10" version="1.1" viewBox="0 0 1061.5 608.93" xmlns="http://www.w3.org/2000/svg">
<path d="m150.15 209.58c0-14.09 11.422-25.512 25.512-25.512h402.52c6.7661 0 13.255 2.6878 18.039 7.4722 4.7844 4.7844 7.4722 11.273 7.4722 18.039v102.04c0 14.09-11.422 25.512-25.512 25.512h-402.52c-14.09 0-25.512-11.422-25.512-25.512z" fill="#93c47d" fill-rule="evenodd"/>
<path d="m150.15 209.58c0-14.09 11.422-25.512 25.512-25.512h402.52c6.7661 0 13.255 2.6878 18.039 7.4722 4.7844 4.7844 7.4722 11.273 7.4722 18.039v102.04c0 14.09-11.422 25.512-25.512 25.512h-402.52c-14.09 0-25.512-11.422-25.512-25.512z" fill-rule="evenodd" stroke="#002050" stroke-linejoin="round"/>
<path d="m342.22 211.78q0 0.51563 0.23437 0.89063 0.23438 0.35937 0.64063 0.64062 0.42187 0.26563 1 0.5 0.57812 0.23438 1.2812 0.46875 0.89062 0.32813 1.75 0.73438 0.875 0.39062 1.5625 1 0.70312 0.59375 1.1406 1.4844 0.45313 0.875 0.45313 2.125 0 1.3125-0.48438 2.2188-0.48437 0.90625-1.2969 1.4531-0.79688 0.54687-1.8594 0.79687-1.0469 0.25-2.1719 0.25-1.6094 0-3.0156-0.39062-1.4062-0.39063-2.4062-0.95313l0.73438-2.6406q0.92187 0.70312 2.0625 1.1719 1.1406 0.45313 2.6094 0.45313 1.5625 0 2.2656-0.54688 0.71875-0.54687 0.71875-1.4844 0-0.70313-0.34375-1.2031t-0.85938-0.85937q-0.51562-0.35938-1.0938-0.57813-0.5625-0.21875-1.0156-0.35937-0.78125-0.25-1.5938-0.59375-0.79688-0.34375-1.4844-0.89063-0.6875-0.54687-1.1094-1.375-0.42188-0.84375-0.42188-2.0781 0-1.1875 0.39063-1.9844 0.40625-0.8125 1.0938-1.3125 0.70312-0.5 1.6406-0.71875 0.95313-0.21875 2.0625-0.21875 1.3438 0 2.5938 0.26563 1.2656 0.26562 2.125 0.65625l-0.67187 2.5938q-0.4375-0.29688-0.95313-0.51563-0.5-0.21875-1.0625-0.35937-0.54687-0.15625-1.0938-0.23438-0.54687-0.0937-1.0469-0.0937-1.0938 0-1.7344 0.42188-0.64062 0.42187-0.64062 1.2656zm15.856 0.64063q2.1562 0 3.3281 1.0938 1.1719 1.0938 1.1719 3.0625 0 0.28125-0.0312 0.59375-0.0312 0.29687-0.0937 0.59375-0.0625 0.28125-0.15625 0.51562-0.0781 0.23438-0.17187 0.375h-7.125q0.0469 0.73438 0.26562 1.3906 0.21875 0.64062 0.64063 1.125 0.42187 0.48437 1.0156 0.76562t1.4062 0.28125q0.90625 0 1.9219-0.34375 1.0156-0.34375 1.7188-0.85937l0.45312 2q-0.32812 0.20312-0.79687 0.4375-0.45313 0.23437-1.0469 0.4375-0.59375 0.1875-1.2656 0.3125-0.67188 0.14062-1.4062 0.14062-1.3594 0-2.4219-0.46875-1.0469-0.48437-1.7656-1.2969-0.70313-0.82813-1.0781-1.9062-0.35937-1.0781-0.35937-2.25 0-1.2031 0.375-2.2812 0.39062-1.0938 1.125-1.9219 0.73437-0.84375 1.8125-1.3125 1.0938-0.48437 2.4844-0.48437zm-0.0625 2.1094q-1.0312 0-1.7656 0.60938-0.71875 0.59375-1.0312 1.6094h4.6719q0.0312-0.0625 0.0312-0.15625 0.0156-0.10937 0.0156-0.25 0-0.78125-0.54688-1.2969-0.53125-0.51563-1.375-0.51563zm13.747 0.70313q-0.25-0.1875-0.76563-0.3125-0.51562-0.125-0.875-0.125-0.48437 0-0.8125 0.23437-0.3125 0.23438-0.5625 0.60938-0.23437 0.375-0.40625 0.875-0.17187 0.48437-0.32812 1v6.5312h-2.6875v-11.25h2.1094l0.125 2.3438h0.0937q0.23438-0.51563 0.5-1 0.28125-0.5 0.625-0.875t0.79688-0.60938q0.45312-0.23437 1.0625-0.23437 0.98437 0 1.8281 0.64062zm9.0263 8.8125h-3.25l-4.5-11.25h2.8125l3.3906 9.0156 3.5469-9.0156h2.6562zm9.1965 0h-2.6875v-11.25h2.6875zm-3.0781-14.875q0-0.34375 0.125-0.65625 0.14063-0.32813 0.39063-0.57813 0.25-0.26562 0.54687-0.40625 0.3125-0.14062 0.67188-0.14062 0.34375 0 0.65625 0.14062 0.32812 0.14063 0.57812 0.40625 0.26563 0.25 0.40625 0.57813 0.15625 0.3125 0.15625 0.65625 0 0.35937-0.15625 0.67187-0.14062 0.3125-0.40625 0.5625-0.25 0.23438-0.57812 0.375-0.3125 0.125-0.65625 0.125-0.70313 0-1.2188-0.51562-0.51563-0.51563-0.51563-1.2188zm15.146 6.4062q-0.26562-0.1875-0.67187-0.375-0.40625-0.20313-0.875-0.34375-0.45313-0.15625-0.96875-0.23438-0.5-0.0937-0.9375-0.0937-0.82813 0-1.4062 0.3125-0.57813 0.29688-0.9375 0.79688-0.34375 0.5-0.5 1.1719-0.15625 0.65625-0.15625 1.3594 0 0.82812 0.1875 1.5625 0.20312 0.71875 0.59375 1.2656 0.39062 0.53125 0.98437 0.84375t1.3906 0.3125q0.875 0 1.8594-0.34375 1-0.35937 1.6562-1l0.48438 2.2969q-0.67188 0.45312-1.8594 0.84375-1.1875 0.39062-2.5312 0.39062-1.4219 0-2.5-0.48437-1.0625-0.5-1.7656-1.3125-0.6875-0.82813-1.0469-1.9062-0.34375-1.0938-0.34375-2.3125 0-1.1875 0.32813-2.25 0.32812-1.0625 1.0312-1.875 0.71875-0.82813 1.8125-1.2969 1.1094-0.48437 2.6406-0.48437 1.1875 0 2.3125 0.28125 1.125 0.26562 1.8125 0.70312zm8.2157-3.1562q2.1562 0 3.3281 1.0938 1.1719 1.0938 1.1719 3.0625 0 0.28125-0.0312 0.59375-0.0312 0.29687-0.0937 0.59375-0.0625 0.28125-0.15625 0.51562-0.0781 0.23438-0.17187 0.375h-7.125q0.0469 0.73438 0.26562 1.3906 0.21875 0.64062 0.64063 1.125 0.42187 0.48437 1.0156 0.76562t1.4062 0.28125q0.90625 0 1.9219-0.34375 1.0156-0.34375 1.7188-0.85937l0.45312 2q-0.32812 0.20312-0.79687 0.4375-0.45313 0.23437-1.0469 0.4375-0.59375 0.1875-1.2656 0.3125-0.67188 0.14062-1.4062 0.14062-1.3594 0-2.4219-0.46875-1.0469-0.48437-1.7656-1.2969-0.70313-0.82813-1.0781-1.9062-0.35937-1.0781-0.35937-2.25 0-1.2031 0.375-2.2812 0.39062-1.0938 1.125-1.9219 0.73437-0.84375 1.8125-1.3125 1.0938-0.48437 2.4844-0.48437zm-0.0625 2.1094q-1.0312 0-1.7656 0.60938-0.71875 0.59375-1.0312 1.6094h4.6719q0.0312-0.0625 0.0312-0.15625 0.0156-0.10937 0.0156-0.25 0-0.78125-0.54688-1.2969-0.53125-0.51563-1.375-0.51563z" fill="#fff"/>
<path d="m234.07 269.37q-0.78125-0.54688-1.875-0.875-1.0781-0.32813-2.4688-0.32813-1.3281 0-2.2656 0.42188-0.9375 0.40625-1.5312 1.1719-0.59375 0.75-0.875 1.8281-0.28125 1.0625-0.28125 2.3594 0 2.9531 1.2656 4.4688 1.2656 1.5156 3.6406 1.5156 1.4688 0 2.6719-0.4375 1.2188-0.4375 2-1.0781l0.73437 2.4219q-0.98437 0.59375-2.375 1.0469-1.375 0.45313-3.1094 0.45313-2.0156 0-3.4844-0.65625-1.4531-0.67188-2.4219-1.7969t-1.4375-2.5938q-0.46875-1.4844-0.46875-3.1562 0-1.7344 0.51562-3.25 0.51563-1.5156 1.5312-2.6562 1.0156-1.1406 2.5156-1.7969 1.5156-0.65625 3.5156-0.65625 1.3281 0 2.6406 0.28125 1.3281 0.28125 2.2812 0.76562zm6.3976 12.672h-2.7031v-18.109h2.7031zm6.1118-11.25v7.3125q0 1 0.51562 1.5312 0.53125 0.51563 1.375 0.51563t1.5469-0.5625q0.71875-0.57813 1.0625-1.6562v-7.1406h2.7188v11.25h-2.1094l-0.14062-1.5625h-0.0937q-0.28125 0.5625-0.70313 0.92188-0.40625 0.34375-0.90625 0.5625-0.5 0.20312-1.0469 0.28125-0.53125 0.0937-1.0469 0.0937-0.79687 0-1.5-0.20313-0.70312-0.1875-1.2344-0.64062-0.51563-0.45313-0.82813-1.2031-0.29687-0.75-0.29687-1.8438v-7.6562zm14.017 1.6406q-0.79687 0-1.25 0.3125-0.45312 0.29687-0.45312 0.85937 0 0.35938 0.25 0.67188 0.26562 0.29687 1.0938 0.5l1.7344 0.39062q1.0312 0.21875 1.6562 0.64063 0.625 0.40625 0.96875 0.90625 0.35938 0.48437 0.48438 1 0.125 0.51562 0.125 0.95312 0 0.78125-0.32813 1.4531-0.3125 0.67187-0.90625 1.1719-0.57812 0.48438-1.4219 0.76563-0.82813 0.28125-1.8438 0.28125-1.2969 0-2.4062-0.375-1.0938-0.39063-1.7656-0.85938l0.64063-2.3125q0.82812 0.79688 1.8594 1.2031 1.0469 0.39062 1.9375 0.39062 0.92188 0 1.4062-0.40625 0.5-0.40625 0.5-1.125 0-0.40625-0.25-0.6875-0.23437-0.28125-0.96875-0.48437l-2.3594-0.57813q-0.82813-0.20312-1.3594-0.5625-0.51562-0.375-0.82812-0.82812-0.29688-0.45313-0.42188-0.9375-0.10937-0.48438-0.10937-0.9375 0-1.6406 1.1562-2.5312 1.1562-0.89063 2.9844-0.89063 0.95313 0 2.0469 0.26563 1.1094 0.25 1.875 0.73437l-0.71875 2.2031q-0.48438-0.39063-1.375-0.78125-0.875-0.40625-1.9531-0.40625zm7.6887 0h-1.3906v-1.4688l1.5781-0.25 0.45313-3.3281h2.0469v3.4062h2.1562v1.6406h-2.1562v6.4531q0 0.73438 0.14063 1 0.15625 0.25 0.57812 0.25 0.3125 0 0.625-0.125 0.32813-0.125 0.9375-0.46875l0.4375 1.9375q-0.46875 0.39063-1.3125 0.625-0.84375 0.23438-1.6719 0.23438-0.73438 0-1.2188-0.20313-0.46875-0.1875-0.75-0.5625-0.26563-0.39062-0.35938-0.92187-0.0937-0.54688-0.0937-1.2031zm12.717-2.0156q2.1562 0 3.3281 1.0938 1.1719 1.0938 1.1719 3.0625 0 0.28125-0.0312 0.59375-0.0312 0.29688-0.0937 0.59375-0.0625 0.28125-0.15625 0.51563-0.0781 0.23437-0.17188 0.375h-7.125q0.0469 0.73437 0.26563 1.3906 0.21875 0.64063 0.64062 1.125 0.42188 0.48438 1.0156 0.76563t1.4062 0.28125q0.90625 0 1.9219-0.34375 1.0156-0.34375 1.7188-0.85938l0.45313 2q-0.32813 0.20313-0.79688 0.4375-0.45312 0.23438-1.0469 0.4375-0.59375 0.1875-1.2656 0.3125-0.67187 0.14063-1.4062 0.14063-1.3594 0-2.4219-0.46875-1.0469-0.48438-1.7656-1.2969-0.70312-0.82812-1.0781-1.9062-0.35938-1.0781-0.35938-2.25 0-1.2031 0.375-2.2812 0.39063-1.0938 1.125-1.9219 0.73438-0.84375 1.8125-1.3125 1.0938-0.48438 2.4844-0.48438zm-0.0625 2.1094q-1.0312 0-1.7656 0.60937-0.71875 0.59375-1.0312 1.6094h4.6719q0.0312-0.0625 0.0312-0.15625 0.0156-0.10938 0.0156-0.25 0-0.78125-0.54687-1.2969-0.53125-0.51562-1.375-0.51562zm13.747 0.70312q-0.25-0.1875-0.76562-0.3125-0.51563-0.125-0.875-0.125-0.48438 0-0.8125 0.23438-0.3125 0.23437-0.5625 0.60937-0.23438 0.375-0.40625 0.875-0.17188 0.48438-0.32813 1v6.5312h-2.6875v-11.25h2.1094l0.125 2.3438h0.0937q0.23437-0.51562 0.5-1 0.28125-0.5 0.625-0.875t0.79687-0.60937q0.45313-0.23438 1.0625-0.23438 0.98438 0 1.8281 0.64063zm11.451 8.8125h-2.8125v-16.156h2.8125zm8.7141-6.0625q-0.42188 0-0.82813 0t-0.76562-0.0312v6.0938h-2.8125v-16.156q0.35937-0.0156 0.82812-0.0312 0.48438-0.0312 1.0156-0.0469 0.53125-0.0156 1.0469-0.0156 0.53125-0.0156 1-0.0156 1.3594 0 2.4844 0.32812 1.1406 0.32813 1.9375 0.98438 0.8125 0.65625 1.25 1.625t0.4375 2.25q0 1.0156-0.34375 1.9219t-1.0312 1.5938q-0.67188 0.6875-1.7344 1.0938t-2.4844 0.40625zm-0.125-7.8594q-0.39063 0-0.76563 0-0.35937 0-0.70312 0.0312v5.4531q0.34375 0.0156 0.71875 0.0156t0.79687 0q1.3281 0 2-0.73438 0.67188-0.73437 0.67188-2.125 0-1.1719-0.60938-1.9062-0.59375-0.73437-2.1094-0.73437zm8.1491 12.484q0-0.34375 0.125-0.65625 0.14062-0.32812 0.375-0.57812 0.25-0.26563 0.54687-0.40625 0.3125-0.15625 0.6875-0.15625 0.34375 0 0.65625 0.15625 0.32813 0.14062 0.57813 0.40625 0.26562 0.25 0.40625 0.57812 0.14062 0.3125 0.14062 0.65625 0 0.35938-0.14062 0.67188-0.14063 0.29687-0.40625 0.54687-0.25 0.25-0.57813 0.375-0.3125 0.14063-0.65625 0.14063-0.70312 0-1.2188-0.51563-0.51562-0.51562-0.51562-1.2188zm0-7.9062q0-0.34375 0.125-0.65625 0.14062-0.32812 0.375-0.57812 0.25-0.26563 0.54687-0.40625 0.3125-0.15625 0.6875-0.15625 0.34375 0 0.65625 0.15625 0.32813 0.14062 0.57813 0.40625 0.26562 0.25 0.40625 0.57812 0.14062 0.3125 0.14062 0.65625 0 0.35938-0.14062 0.67188-0.14063 0.29687-0.40625 0.54687-0.25 0.25-0.57813 0.39063-0.3125 0.125-0.65625 0.125-0.70312 0-1.2188-0.51563-0.51562-0.51562-0.51562-1.2188zm13.064-2.2812q1.3281 0 2.2812 0.5 0.95312 0.5 1.5781 1.3438 0.625 0.82813 0.90625 1.9219 0.29688 1.0781 0.29688 2.25 0 1.2031-0.3125 2.2812-0.29688 1.0781-0.9375 1.8906-0.625 0.79688-1.5938 1.2656-0.95313 0.46875-2.2656 0.46875-1.1094 0-2.0469-0.3125-0.9375-0.32813-1.5-1.0312v7.4062h-2.6719v-17.609h2.1562l0.1875 1.5312h0.10938q0.3125-0.39062 0.75-0.73437 0.4375-0.35938 0.95312-0.60938 0.51563-0.26562 1.0469-0.40625 0.54687-0.15625 1.0625-0.15625zm-0.4375 2.0625q-0.375 0-0.8125 0.10938-0.4375 0.10937-0.875 0.3125-0.42188 0.20312-0.8125 0.5-0.39063 0.29687-0.65625 0.65625v4.7812q0.73437 0.90625 1.5 1.1406 0.76562 0.23438 1.4062 0.23438 0.8125 0 1.375-0.29688 0.57812-0.29687 0.95312-0.79687 0.39063-0.5 0.5625-1.1719 0.1875-0.67187 0.1875-1.4531 0-0.73438-0.15625-1.4531-0.15625-0.73437-0.51562-1.2969-0.34375-0.5625-0.89063-0.90625-0.53125-0.35938-1.2656-0.35938zm13.257-2.0625q1.5 0 2.5625 0.5 1.0781 0.5 1.7812 1.3438 0.70312 0.84375 1.0312 1.9375 0.32812 1.0938 0.32812 2.2969 0 1.1875-0.32812 2.25-0.32813 1.0625-1.0312 1.8594-0.70313 0.79688-1.7656 1.2656t-2.5 0.46875q-1.5 0-2.5781-0.48438-1.0781-0.5-1.7812-1.3125-0.70313-0.82812-1.0469-1.9062-0.34375-1.0781-0.34375-2.2656 0-1.2031 0.34375-2.2812 0.34375-1.0781 1.0312-1.8906 0.70313-0.82812 1.7812-1.2969 1.0781-0.48438 2.5156-0.48438zm0.0469 9.8906q0.71875 0 1.2344-0.29688 0.53125-0.3125 0.875-0.84375t0.5-1.2031q0.15625-0.6875 0.15625-1.4531 0-0.78125-0.17188-1.5-0.17187-0.71875-0.53125-1.2656-0.34375-0.5625-0.89062-0.89063-0.53125-0.32812-1.2969-0.32812-0.70312 0-1.2188 0.3125-0.51562 0.29687-0.84375 0.8125-0.32812 0.51562-0.48437 1.2031-0.15625 0.67188-0.15625 1.4375 0 0.78125 0.15625 1.5t0.5 1.2969q0.35937 0.5625 0.89062 0.89062 0.54688 0.32813 1.2812 0.32813zm14.808-7.0781q-0.25-0.1875-0.76562-0.3125-0.51563-0.125-0.875-0.125-0.48438 0-0.8125 0.23438-0.3125 0.23437-0.5625 0.60937-0.23438 0.375-0.40625 0.875-0.17188 0.48438-0.32813 1v6.5312h-2.6875v-11.25h2.1094l0.125 2.3438h0.0937q0.23437-0.51562 0.5-1 0.28125-0.5 0.625-0.875t0.79687-0.60937q0.45313-0.23438 1.0625-0.23438 0.98438 0 1.8281 0.64063zm3.2294-0.79687h-1.3906v-1.4688l1.5781-0.25 0.45313-3.3281h2.0469v3.4062h2.1562v1.6406h-2.1562v6.4531q0 0.73438 0.14063 1 0.15625 0.25 0.57812 0.25 0.3125 0 0.625-0.125 0.32813-0.125 0.9375-0.46875l0.4375 1.9375q-0.46875 0.39063-1.3125 0.625-0.84375 0.23438-1.6719 0.23438-0.73438 0-1.2188-0.20313-0.46875-0.1875-0.75-0.5625-0.26563-0.39062-0.35938-0.92187-0.0937-0.54688-0.0937-1.2031zm15.462 3.7812 4.8438 3.2656-0.4375 2.2969-7-4.8281v-1.5938l6.9688-4.7344 0.45313 2.2656-4.8281 3.2031zm12.167 5.8281h-2.8125v-11.891l-1.9844 0.875-0.54687-2.4375 5.3438-2.7031zm9.9293-16.266q1.5625 0 2.7656 0.67187 1.2188 0.67188 2.0469 1.7969 0.84375 1.125 1.2656 2.6094 0.4375 1.4688 0.4375 3.1094 0 1.6406-0.45312 3.1562-0.4375 1.5-1.2812 2.6719-0.84375 1.1562-2.0938 1.8594-1.25 0.6875-2.8594 0.6875-1.5938 0-2.7812-0.65625-1.1875-0.67188-1.9688-1.7969t-1.1875-2.5938q-0.40625-1.4844-0.40625-3.125 0-1.7344 0.4375-3.2656 0.45313-1.5312 1.2812-2.6719 0.82813-1.1406 2.0312-1.7969 1.2188-0.65625 2.7656-0.65625zm-0.0781 14.203q0.9375 0 1.6094-0.4375 0.67187-0.45312 1.1094-1.2656t0.65625-1.9062q0.21875-1.1094 0.21875-2.375 0-1.2969-0.21875-2.375-0.21875-1.0781-0.67187-1.8594-0.45313-0.78125-1.1406-1.2031-0.67187-0.4375-1.5781-0.4375t-1.5625 0.4375q-0.64063 0.42187-1.0469 1.1875-0.40625 0.76562-0.60937 1.8594-0.1875 1.0938-0.1875 2.3906 0 2.9531 0.89062 4.4688 0.89063 1.5156 2.5312 1.5156zm8.8178 0.625q0-0.34375 0.125-0.65625 0.14063-0.32812 0.375-0.57812 0.25-0.26563 0.54688-0.40625 0.3125-0.15625 0.6875-0.15625 0.34375 0 0.65625 0.15625 0.32812 0.14062 0.57812 0.40625 0.25 0.25 0.39063 0.57812 0.15625 0.3125 0.15625 0.65625 0 0.35938-0.15625 0.67188-0.14063 0.29687-0.39063 0.54687t-0.57812 0.375q-0.3125 0.14063-0.65625 0.14063-0.71875 0-1.2344-0.51563-0.5-0.51562-0.5-1.2188zm12.328-14.828q1.5625 0 2.7656 0.67187 1.2188 0.67188 2.0469 1.7969 0.84375 1.125 1.2656 2.6094 0.4375 1.4688 0.4375 3.1094 0 1.6406-0.45312 3.1562-0.4375 1.5-1.2812 2.6719-0.84375 1.1562-2.0938 1.8594-1.25 0.6875-2.8594 0.6875-1.5938 0-2.7812-0.65625-1.1875-0.67188-1.9688-1.7969t-1.1875-2.5938q-0.40625-1.4844-0.40625-3.125 0-1.7344 0.4375-3.2656 0.45313-1.5312 1.2812-2.6719 0.82813-1.1406 2.0312-1.7969 1.2188-0.65625 2.7656-0.65625zm-0.0781 14.203q0.9375 0 1.6094-0.4375 0.67187-0.45312 1.1094-1.2656t0.65625-1.9062q0.21875-1.1094 0.21875-2.375 0-1.2969-0.21875-2.375-0.21875-1.0781-0.67187-1.8594-0.45313-0.78125-1.1406-1.2031-0.67187-0.4375-1.5781-0.4375t-1.5625 0.4375q-0.64063 0.42187-1.0469 1.1875-0.40625 0.76562-0.60937 1.8594-0.1875 1.0938-0.1875 2.3906 0 2.9531 0.89062 4.4688 0.89063 1.5156 2.5312 1.5156zm8.8178 0.625q0-0.34375 0.125-0.65625 0.14063-0.32812 0.375-0.57812 0.25-0.26563 0.54688-0.40625 0.3125-0.15625 0.6875-0.15625 0.34375 0 0.65625 0.15625 0.32812 0.14062 0.57812 0.40625 0.25 0.25 0.39063 0.57812 0.15625 0.3125 0.15625 0.65625 0 0.35938-0.15625 0.67188-0.14063 0.29687-0.39063 0.54687t-0.57812 0.375q-0.3125 0.14063-0.65625 0.14063-0.71875 0-1.2344-0.51563-0.5-0.51562-0.5-1.2188zm12.328-14.828q1.5625 0 2.7656 0.67187 1.2188 0.67188 2.0469 1.7969 0.84375 1.125 1.2656 2.6094 0.4375 1.4688 0.4375 3.1094 0 1.6406-0.45312 3.1562-0.4375 1.5-1.2812 2.6719-0.84375 1.1562-2.0938 1.8594-1.25 0.6875-2.8594 0.6875-1.5938 0-2.7812-0.65625-1.1875-0.67188-1.9688-1.7969t-1.1875-2.5938q-0.40625-1.4844-0.40625-3.125 0-1.7344 0.4375-3.2656 0.45313-1.5312 1.2812-2.6719 0.82813-1.1406 2.0312-1.7969 1.2188-0.65625 2.7656-0.65625zm-0.0781 14.203q0.9375 0 1.6094-0.4375 0.67187-0.45312 1.1094-1.2656t0.65625-1.9062q0.21875-1.1094 0.21875-2.375 0-1.2969-0.21875-2.375-0.21875-1.0781-0.67187-1.8594-0.45313-0.78125-1.1406-1.2031-0.67187-0.4375-1.5781-0.4375t-1.5625 0.4375q-0.64063 0.42187-1.0469 1.1875-0.40625 0.76562-0.60937 1.8594-0.1875 1.0938-0.1875 2.3906 0 2.9531 0.89062 4.4688 0.89063 1.5156 2.5312 1.5156zm8.8178 0.625q0-0.34375 0.125-0.65625 0.14063-0.32812 0.375-0.57812 0.25-0.26563 0.54688-0.40625 0.3125-0.15625 0.6875-0.15625 0.34375 0 0.65625 0.15625 0.32812 0.14062 0.57812 0.40625 0.25 0.25 0.39063 0.57812 0.15625 0.3125 0.15625 0.65625 0 0.35938-0.15625 0.67188-0.14063 0.29687-0.39063 0.54687t-0.57812 0.375q-0.3125 0.14063-0.65625 0.14063-0.71875 0-1.2344-0.51563-0.5-0.51562-0.5-1.2188zm6.0832-13.562q0.46875-0.25 1.0625-0.46875 0.60938-0.23437 1.25-0.42187 0.65625-0.1875 1.3125-0.28125 0.65625-0.0937 1.2969-0.0937 1.0312 0 1.9062 0.28125 0.89062 0.28125 1.5 0.8125 0.625 0.51562 0.98437 1.2656 0.35938 0.73438 0.35938 1.6406 0 1.25-0.625 2.4844-0.625 1.2344-1.5781 2.4844-0.9375 1.2344-2.0625 2.4531-1.125 1.2031-2.0938 2.3906h6.5312v2.4531h-9.9062v-2.4531q0.95313-1.2969 2.1562-2.5469 1.2188-1.2656 2.2812-2.4531 1.0625-1.2031 1.7969-2.3594 0.73437-1.1562 0.73437-2.25 0-1.0469-0.6875-1.4844-0.6875-0.45313-1.7812-0.45313-1.0625 0-2.0781 0.34375-1.0156 0.32813-1.7969 0.76563zm18.895-1.2656q1.5625 0 2.7656 0.67187 1.2188 0.67188 2.0469 1.7969 0.84375 1.125 1.2656 2.6094 0.4375 1.4688 0.4375 3.1094 0 1.6406-0.45312 3.1562-0.4375 1.5-1.2812 2.6719-0.84375 1.1562-2.0938 1.8594-1.25 0.6875-2.8594 0.6875-1.5938 0-2.7812-0.65625-1.1875-0.67188-1.9688-1.7969t-1.1875-2.5938q-0.40625-1.4844-0.40625-3.125 0-1.7344 0.4375-3.2656 0.45313-1.5312 1.2812-2.6719 0.82813-1.1406 2.0312-1.7969 1.2188-0.65625 2.7656-0.65625zm-0.0781 14.203q0.9375 0 1.6094-0.4375 0.67187-0.45312 1.1094-1.2656t0.65625-1.9062q0.21875-1.1094 0.21875-2.375 0-1.2969-0.21875-2.375-0.21875-1.0781-0.67187-1.8594-0.45313-0.78125-1.1406-1.2031-0.67187-0.4375-1.5781-0.4375t-1.5625 0.4375q-0.64063 0.42187-1.0469 1.1875-0.40625 0.76562-0.60937 1.8594-0.1875 1.0938-0.1875 2.3906 0 2.9531 0.89062 4.4688 0.89063 1.5156 2.5312 1.5156zm9.4282 0.625q0-0.34375 0.125-0.65625 0.14063-0.32812 0.375-0.57812 0.25-0.26563 0.54688-0.40625 0.3125-0.15625 0.6875-0.15625 0.34375 0 0.65625 0.15625 0.32812 0.14062 0.57812 0.40625 0.26563 0.25 0.40625 0.57812 0.14063 0.3125 0.14063 0.65625 0 0.35938-0.14063 0.67188-0.14062 0.29687-0.40625 0.54687-0.25 0.25-0.57812 0.375-0.3125 0.14063-0.65625 0.14063-0.70313 0-1.2188-0.51563-0.51563-0.51562-0.51563-1.2188zm0-7.9062q0-0.34375 0.125-0.65625 0.14063-0.32812 0.375-0.57812 0.25-0.26563 0.54688-0.40625 0.3125-0.15625 0.6875-0.15625 0.34375 0 0.65625 0.15625 0.32812 0.14062 0.57812 0.40625 0.26563 0.25 0.40625 0.57812 0.14063 0.3125 0.14063 0.65625 0 0.35938-0.14063 0.67188-0.14062 0.29687-0.40625 0.54687-0.25 0.25-0.57812 0.39063-0.3125 0.125-0.65625 0.125-0.70313 0-1.2188-0.51563-0.51563-0.51562-0.51563-1.2188zm14.22 0.48438q1.4062 0.3125 2.1719 1.4688 0.78125 1.1562 0.78125 2.7969 0 1.0156-0.32812 1.9219-0.3125 0.89062-0.98438 1.5469-0.67187 0.65625-1.7031 1.0469-1.0156 0.375-2.4219 0.375-1.4688 0-2.5-0.40625-1.0156-0.40625-1.6562-1.0781-0.64062-0.67187-0.9375-1.5469-0.28125-0.89063-0.28125-1.8125 0-1.625 0.78125-2.75t2.1719-1.5312v-0.10938q-0.84375-0.3125-1.5-1.1875-0.64063-0.89062-0.64063-2.2344 0-1.7656 1.1875-2.8281 1.2031-1.0781 3.4062-1.0781 2.1562 0 3.375 1.0469 1.2188 1.0312 1.2188 2.7812 0 1.2969-0.625 2.2031-0.625 0.89062-1.5156 1.2812zm0.14062 4.3281q0-0.5625-0.15625-1.125-0.14062-0.5625-0.46875-1-0.3125-0.4375-0.8125-0.71875t-1.1875-0.28125q-0.70312 0-1.2031 0.28125-0.48438 0.28125-0.79688 0.73438-0.3125 0.45312-0.46875 1.0156-0.14062 0.5625-0.14062 1.0938 0 1.3281 0.71875 2.0156t1.8906 0.6875q1.1875 0 1.9062-0.6875t0.71875-2.0156zm-0.73437-7.5q0-0.96875-0.48438-1.5156-0.46875-0.54688-1.4062-0.54688-0.90625 0-1.3906 0.53125-0.48438 0.51563-0.48438 1.5 0 1.0312 0.51563 1.625 0.51562 0.57813 1.3594 0.57813 0.85938 0 1.375-0.57813 0.51563-0.59375 0.51563-1.5938zm12.577-4.2344q1.5625 0 2.7656 0.67187 1.2188 0.67188 2.0469 1.7969 0.84375 1.125 1.2656 2.6094 0.4375 1.4688 0.4375 3.1094 0 1.6406-0.45312 3.1562-0.4375 1.5-1.2812 2.6719-0.84375 1.1562-2.0938 1.8594-1.25 0.6875-2.8594 0.6875-1.5938 0-2.7812-0.65625-1.1875-0.67188-1.9688-1.7969t-1.1875-2.5938q-0.40625-1.4844-0.40625-3.125 0-1.7344 0.4375-3.2656 0.45313-1.5312 1.2812-2.6719 0.82813-1.1406 2.0312-1.7969 1.2188-0.65625 2.7656-0.65625zm-0.0781 14.203q0.9375 0 1.6094-0.4375 0.67187-0.45312 1.1094-1.2656t0.65625-1.9062q0.21875-1.1094 0.21875-2.375 0-1.2969-0.21875-2.375-0.21875-1.0781-0.67187-1.8594-0.45313-0.78125-1.1406-1.2031-0.67187-0.4375-1.5781-0.4375t-1.5625 0.4375q-0.64063 0.42187-1.0469 1.1875-0.40625 0.76562-0.60937 1.8594-0.1875 1.0938-0.1875 2.3906 0 2.9531 0.89062 4.4688 0.89063 1.5156 2.5312 1.5156zm14.006-3.8906-4.8281-3.2031 0.4375-2.2656 6.9844 4.7344v1.5938l-7 4.8281-0.4375-2.2969 4.8438-3.2656z" fill="#fff"/>
<path d="m209.08 306.76v-11.875h2.8125v16.156h-3.4531l-7.0938-11.844v11.844h-2.8125v-16.156h3.4531zm11.373-7.3438q1.5 0 2.5625 0.5 1.0781 0.5 1.7812 1.3438 0.70312 0.84375 1.0312 1.9375 0.32812 1.0938 0.32812 2.2969 0 1.1875-0.32812 2.25-0.32813 1.0625-1.0312 1.8594-0.70313 0.79687-1.7656 1.2656t-2.5 0.46875q-1.5 0-2.5781-0.48437-1.0781-0.5-1.7812-1.3125-0.70313-0.82813-1.0469-1.9062-0.34375-1.0781-0.34375-2.2656 0-1.2031 0.34375-2.2812 0.34375-1.0781 1.0312-1.8906 0.70313-0.82813 1.7812-1.2969 1.0781-0.48437 2.5156-0.48437zm0.0469 9.8906q0.71875 0 1.2344-0.29687 0.53125-0.3125 0.875-0.84375t0.5-1.2031q0.15625-0.6875 0.15625-1.4531 0-0.78125-0.17188-1.5-0.17187-0.71875-0.53125-1.2656-0.34375-0.5625-0.89062-0.89062-0.53125-0.32813-1.2969-0.32813-0.70312 0-1.2188 0.3125-0.51562 0.29688-0.84375 0.8125-0.32812 0.51563-0.48437 1.2031-0.15625 0.67187-0.15625 1.4375 0 0.78125 0.15625 1.5t0.5 1.2969q0.35937 0.5625 0.89062 0.89063 0.54688 0.32812 1.2812 0.32812zm12.855 2.0312q-1.1562 0-2.1094-0.46875-0.95312-0.46875-1.625-1.2656-0.67187-0.8125-1.0469-1.9062-0.35938-1.1094-0.35938-2.4062 0-1.1562 0.29688-2.2188 0.3125-1.0625 0.9375-1.8594 0.64062-0.8125 1.5781-1.2969 0.95313-0.5 2.25-0.5 1.1719 0 2.0938 0.39062 0.9375 0.39063 1.5 1.1094v-7.9844h2.6719v18.109h-2.1562l-0.20313-1.5469h-0.0937q-0.6875 0.76563-1.5625 1.3125-0.85937 0.53125-2.1719 0.53125zm0.34375-2.0312q0.39062 0 0.82812-0.10937 0.4375-0.10938 0.85938-0.29688 0.4375-0.20312 0.82812-0.48437 0.39063-0.28125 0.65625-0.65625v-4.7031q-0.73437-0.89062-1.5-1.2188-0.75-0.34375-1.4531-0.34375-0.78125 0-1.3438 0.3125-0.5625 0.29688-0.95313 0.84375-0.375 0.53125-0.5625 1.2344-0.1875 0.70312-0.1875 1.4531 0 0.73438 0.17188 1.4531 0.17187 0.71875 0.51562 1.2812 0.34375 0.54687 0.875 0.89062 0.54688 0.34375 1.2656 0.34375zm14.326-9.8906q2.1562 0 3.3281 1.0938 1.1719 1.0938 1.1719 3.0625 0 0.28125-0.0312 0.59375-0.0312 0.29687-0.0937 0.59375-0.0625 0.28125-0.15625 0.51562-0.0781 0.23438-0.17187 0.375h-7.125q0.0469 0.73438 0.26562 1.3906 0.21875 0.64062 0.64063 1.125 0.42187 0.48437 1.0156 0.76562t1.4062 0.28125q0.90625 0 1.9219-0.34375 1.0156-0.34375 1.7188-0.85937l0.45312 2q-0.32812 0.20312-0.79687 0.4375-0.45313 0.23437-1.0469 0.4375-0.59375 0.1875-1.2656 0.3125-0.67188 0.14062-1.4062 0.14062-1.3594 0-2.4219-0.46875-1.0469-0.48437-1.7656-1.2969-0.70313-0.82813-1.0781-1.9062-0.35937-1.0781-0.35937-2.25 0-1.2031 0.375-2.2812 0.39062-1.0938 1.125-1.9219 0.73437-0.84375 1.8125-1.3125 1.0938-0.48437 2.4844-0.48437zm-0.0625 2.1094q-1.0312 0-1.7656 0.60938-0.71875 0.59375-1.0312 1.6094h4.6719q0.0312-0.0625 0.0312-0.15625 0.0156-0.10937 0.0156-0.25 0-0.78125-0.54688-1.2969-0.53125-0.51563-1.375-0.51563zm16.586 9.5156h-2.8125v-16.156h2.8125zm8.7141-6.0625q-0.42188 0-0.82813 0t-0.76562-0.0312v6.0938h-2.8125v-16.156q0.35937-0.0156 0.82812-0.0312 0.48438-0.0312 1.0156-0.0469 0.53125-0.0156 1.0469-0.0156 0.53125-0.0156 1-0.0156 1.3594 0 2.4844 0.32813 1.1406 0.32812 1.9375 0.98437 0.8125 0.65625 1.25 1.625t0.4375 2.25q0 1.0156-0.34375 1.9219t-1.0312 1.5938q-0.67188 0.6875-1.7344 1.0938t-2.4844 0.40625zm-0.125-7.8594q-0.39063 0-0.76563 0-0.35937 0-0.70312 0.0312v5.4531q0.34375 0.0156 0.71875 0.0156t0.79687 0q1.3281 0 2-0.73437 0.67188-0.73438 0.67188-2.125 0-1.1719-0.60938-1.9062-0.59375-0.73438-2.1094-0.73438zm8.1491 12.484q0-0.34375 0.125-0.65625 0.14062-0.32813 0.375-0.57813 0.25-0.26562 0.54687-0.40625 0.3125-0.15625 0.6875-0.15625 0.34375 0 0.65625 0.15625 0.32813 0.14063 0.57813 0.40625 0.26562 0.25 0.40625 0.57813 0.14062 0.3125 0.14062 0.65625 0 0.35937-0.14062 0.67187-0.14063 0.29688-0.40625 0.54688-0.25 0.25-0.57813 0.375-0.3125 0.14062-0.65625 0.14062-0.70312 0-1.2188-0.51562-0.51562-0.51563-0.51562-1.2188zm0-7.9062q0-0.34375 0.125-0.65625 0.14062-0.32813 0.375-0.57813 0.25-0.26562 0.54687-0.40625 0.3125-0.15625 0.6875-0.15625 0.34375 0 0.65625 0.15625 0.32813 0.14063 0.57813 0.40625 0.26562 0.25 0.40625 0.57813 0.14062 0.3125 0.14062 0.65625 0 0.35937-0.14062 0.67187-0.14063 0.29688-0.40625 0.54688-0.25 0.25-0.57813 0.39062-0.3125 0.125-0.65625 0.125-0.70312 0-1.2188-0.51562-0.51562-0.51563-0.51562-1.2188zm13.064-2.2812q1.3281 0 2.2812 0.5 0.95312 0.5 1.5781 1.3438 0.625 0.82812 0.90625 1.9219 0.29688 1.0781 0.29688 2.25 0 1.2031-0.3125 2.2812-0.29688 1.0781-0.9375 1.8906-0.625 0.79687-1.5938 1.2656-0.95313 0.46875-2.2656 0.46875-1.1094 0-2.0469-0.3125-0.9375-0.32812-1.5-1.0312v7.4062h-2.6719v-17.609h2.1562l0.1875 1.5312h0.10938q0.3125-0.39063 0.75-0.73438 0.4375-0.35937 0.95312-0.60937 0.51563-0.26563 1.0469-0.40625 0.54687-0.15625 1.0625-0.15625zm-0.4375 2.0625q-0.375 0-0.8125 0.10937-0.4375 0.10938-0.875 0.3125-0.42188 0.20313-0.8125 0.5-0.39063 0.29688-0.65625 0.65625v4.7812q0.73437 0.90625 1.5 1.1406 0.76562 0.23437 1.4062 0.23437 0.8125 0 1.375-0.29687 0.57812-0.29688 0.95312-0.79688 0.39063-0.5 0.5625-1.1719 0.1875-0.67188 0.1875-1.4531 0-0.73437-0.15625-1.4531-0.15625-0.73438-0.51562-1.2969-0.34375-0.5625-0.89063-0.90625-0.53125-0.35937-1.2656-0.35937zm13.257-2.0625q1.5 0 2.5625 0.5 1.0781 0.5 1.7812 1.3438 0.70312 0.84375 1.0312 1.9375 0.32812 1.0938 0.32812 2.2969 0 1.1875-0.32812 2.25-0.32813 1.0625-1.0312 1.8594-0.70313 0.79687-1.7656 1.2656t-2.5 0.46875q-1.5 0-2.5781-0.48437-1.0781-0.5-1.7812-1.3125-0.70313-0.82813-1.0469-1.9062-0.34375-1.0781-0.34375-2.2656 0-1.2031 0.34375-2.2812 0.34375-1.0781 1.0312-1.8906 0.70313-0.82813 1.7812-1.2969 1.0781-0.48437 2.5156-0.48437zm0.0469 9.8906q0.71875 0 1.2344-0.29687 0.53125-0.3125 0.875-0.84375t0.5-1.2031q0.15625-0.6875 0.15625-1.4531 0-0.78125-0.17188-1.5-0.17187-0.71875-0.53125-1.2656-0.34375-0.5625-0.89062-0.89062-0.53125-0.32813-1.2969-0.32813-0.70312 0-1.2188 0.3125-0.51562 0.29688-0.84375 0.8125-0.32812 0.51563-0.48437 1.2031-0.15625 0.67187-0.15625 1.4375 0 0.78125 0.15625 1.5t0.5 1.2969q0.35937 0.5625 0.89062 0.89063 0.54688 0.32812 1.2812 0.32812zm14.808-7.0781q-0.25-0.1875-0.76562-0.3125-0.51563-0.125-0.875-0.125-0.48438 0-0.8125 0.23437-0.3125 0.23438-0.5625 0.60938-0.23438 0.375-0.40625 0.875-0.17188 0.48437-0.32813 1v6.5312h-2.6875v-11.25h2.1094l0.125 2.3438h0.0937q0.23437-0.51563 0.5-1 0.28125-0.5 0.625-0.875t0.79687-0.60938q0.45313-0.23437 1.0625-0.23437 0.98438 0 1.8281 0.64062zm3.2294-0.79688h-1.3906v-1.4688l1.5781-0.25 0.45313-3.3281h2.0469v3.4062h2.1562v1.6406h-2.1562v6.4531q0 0.73437 0.14063 1 0.15625 0.25 0.57812 0.25 0.3125 0 0.625-0.125 0.32813-0.125 0.9375-0.46875l0.4375 1.9375q-0.46875 0.39062-1.3125 0.625-0.84375 0.23437-1.6719 0.23437-0.73438 0-1.2188-0.20312-0.46875-0.1875-0.75-0.5625-0.26563-0.39063-0.35938-0.92188-0.0937-0.54687-0.0937-1.2031zm15.462 3.7812 4.8438 3.2656-0.4375 2.2969-7-4.8281v-1.5938l6.9688-4.7344 0.45313 2.2656-4.8281 3.2031zm12.167 5.8281h-2.8125v-11.891l-1.9844 0.875-0.54687-2.4375 5.3438-2.7031zm9.9293-16.266q1.5625 0 2.7656 0.67188 1.2188 0.67187 2.0469 1.7969 0.84375 1.125 1.2656 2.6094 0.4375 1.4688 0.4375 3.1094 0 1.6406-0.45312 3.1562-0.4375 1.5-1.2812 2.6719-0.84375 1.1562-2.0938 1.8594-1.25 0.6875-2.8594 0.6875-1.5938 0-2.7812-0.65625-1.1875-0.67187-1.9688-1.7969t-1.1875-2.5938q-0.40625-1.4844-0.40625-3.125 0-1.7344 0.4375-3.2656 0.45313-1.5312 1.2812-2.6719 0.82813-1.1406 2.0312-1.7969 1.2188-0.65625 2.7656-0.65625zm-0.0781 14.203q0.9375 0 1.6094-0.4375 0.67187-0.45313 1.1094-1.2656t0.65625-1.9062q0.21875-1.1094 0.21875-2.375 0-1.2969-0.21875-2.375-0.21875-1.0781-0.67187-1.8594-0.45313-0.78125-1.1406-1.2031-0.67187-0.4375-1.5781-0.4375t-1.5625 0.4375q-0.64063 0.42188-1.0469 1.1875-0.40625 0.76563-0.60937 1.8594-0.1875 1.0938-0.1875 2.3906 0 2.9531 0.89062 4.4688 0.89063 1.5156 2.5312 1.5156zm8.8178 0.625q0-0.34375 0.125-0.65625 0.14063-0.32813 0.375-0.57813 0.25-0.26562 0.54688-0.40625 0.3125-0.15625 0.6875-0.15625 0.34375 0 0.65625 0.15625 0.32812 0.14063 0.57812 0.40625 0.25 0.25 0.39063 0.57813 0.15625 0.3125 0.15625 0.65625 0 0.35937-0.15625 0.67187-0.14063 0.29688-0.39063 0.54688t-0.57812 0.375q-0.3125 0.14062-0.65625 0.14062-0.71875 0-1.2344-0.51562-0.5-0.51563-0.5-1.2188zm10.35 1.4375h-2.8125v-11.891l-1.9844 0.875-0.54687-2.4375 5.3438-2.7031zm3.9293-7.3906 0.95312-8.875h8.2969v2.5625h-6.0156l-0.35937 3.8594q0.5-0.14063 1.0625-0.20313t1.0312-0.0625q1.125 0 2.0469 0.34375 0.9375 0.32813 1.625 0.96875 0.6875 0.625 1.0625 1.5469 0.39063 0.90625 0.39063 2.0938 0 1.125-0.375 2.1094-0.35938 0.98438-1.1094 1.7344t-1.875 1.1875q-1.125 0.42187-2.6406 0.42187-1.5 0-2.7656-0.42187-1.25-0.4375-2.2031-1.2188l0.70312-2.3281q0.375 0.34375 0.84375 0.625 0.48438 0.28125 1.0312 0.5 0.54688 0.20313 1.125 0.32813 0.57813 0.10937 1.1406 0.10937 0.60937 0 1.1875-0.15625 0.57812-0.15625 1-0.5 0.4375-0.34375 0.6875-0.89062 0.25-0.54688 0.25-1.3281 0-0.59375-0.14063-1.0781-0.14062-0.5-0.48437-0.84375t-0.92188-0.53125q-0.57812-0.20313-1.4531-0.20313-0.76563 0-1.6719 0.15625-0.90625 0.14063-1.7031 0.46875zm18.993-8.875q1.5625 0 2.7656 0.67188 1.2188 0.67187 2.0469 1.7969 0.84375 1.125 1.2656 2.6094 0.4375 1.4688 0.4375 3.1094 0 1.6406-0.45312 3.1562-0.4375 1.5-1.2812 2.6719-0.84375 1.1562-2.0938 1.8594-1.25 0.6875-2.8594 0.6875-1.5938 0-2.7812-0.65625-1.1875-0.67187-1.9688-1.7969t-1.1875-2.5938q-0.40625-1.4844-0.40625-3.125 0-1.7344 0.4375-3.2656 0.45313-1.5312 1.2812-2.6719 0.82813-1.1406 2.0312-1.7969 1.2188-0.65625 2.7656-0.65625zm-0.0781 14.203q0.9375 0 1.6094-0.4375 0.67187-0.45313 1.1094-1.2656t0.65625-1.9062q0.21875-1.1094 0.21875-2.375 0-1.2969-0.21875-2.375-0.21875-1.0781-0.67187-1.8594-0.45313-0.78125-1.1406-1.2031-0.67187-0.4375-1.5781-0.4375t-1.5625 0.4375q-0.64063 0.42188-1.0469 1.1875-0.40625 0.76563-0.60937 1.8594-0.1875 1.0938-0.1875 2.3906 0 2.9531 0.89062 4.4688 0.89063 1.5156 2.5312 1.5156zm8.8178 0.625q0-0.34375 0.125-0.65625 0.14063-0.32813 0.375-0.57813 0.25-0.26562 0.54688-0.40625 0.3125-0.15625 0.6875-0.15625 0.34375 0 0.65625 0.15625 0.32812 0.14063 0.57812 0.40625 0.25 0.25 0.39063 0.57813 0.15625 0.3125 0.15625 0.65625 0 0.35937-0.15625 0.67187-0.14063 0.29688-0.39063 0.54688t-0.57812 0.375q-0.3125 0.14062-0.65625 0.14062-0.71875 0-1.2344-0.51562-0.5-0.51563-0.5-1.2188zm16.958-3.2188h-1.6875v4.6562h-2.8281v-4.6562h-6.9375v-2.1875l6.8281-9.3125h2.9375v9.3125h1.6875zm-4.5156-2.1875v-5.9219l-4.1719 5.9219zm6.8048-8.1562q0.46875-0.25 1.0625-0.46875 0.60937-0.23438 1.25-0.42188 0.65625-0.1875 1.3125-0.28125 0.65625-0.0937 1.2969-0.0937 1.0312 0 1.9062 0.28125 0.89063 0.28125 1.5 0.8125 0.625 0.51563 0.98438 1.2656 0.35937 0.73437 0.35937 1.6406 0 1.25-0.625 2.4844-0.625 1.2344-1.5781 2.4844-0.9375 1.2344-2.0625 2.4531-1.125 1.2031-2.0938 2.3906h6.5312v2.4531h-9.9062v-2.4531q0.95312-1.2969 2.1562-2.5469 1.2188-1.2656 2.2812-2.4531 1.0625-1.2031 1.7969-2.3594 0.73438-1.1562 0.73438-2.25 0-1.0469-0.6875-1.4844-0.6875-0.45312-1.7812-0.45312-1.0625 0-2.0781 0.34375-1.0156 0.32812-1.7969 0.76562zm12.488 13.562q0-0.34375 0.125-0.65625 0.14063-0.32813 0.375-0.57813 0.25-0.26562 0.54688-0.40625 0.3125-0.15625 0.6875-0.15625 0.34375 0 0.65625 0.15625 0.32812 0.14063 0.57812 0.40625 0.25 0.25 0.39063 0.57813 0.15625 0.3125 0.15625 0.65625 0 0.35937-0.15625 0.67187-0.14063 0.29688-0.39063 0.54688t-0.57812 0.375q-0.3125 0.14062-0.65625 0.14062-0.71875 0-1.2344-0.51562-0.5-0.51563-0.5-1.2188zm10.35 1.4375h-2.8125v-11.891l-1.9844 0.875-0.54688-2.4375 5.3438-2.7031zm11.273-7.8594q-0.42187 0.89063-1.2969 1.3125-0.85938 0.40625-2.0312 0.40625-1.3906 0-2.2969-0.51562-0.90625-0.51563-1.4531-1.2656-0.53125-0.76562-0.75-1.625-0.20313-0.875-0.20313-1.6094 0-0.875 0.28125-1.7812t0.90625-1.6406q0.625-0.73437 1.6094-1.2031 1-0.46875 2.4531-0.46875 1.5156 0 2.5469 0.5625 1.0469 0.54687 1.6875 1.5469 0.65625 1 0.9375 2.4062 0.29687 1.4062 0.29687 3.125 0 1.6562-0.28125 3.2656-0.28125 1.5938-0.98437 2.8438-0.6875 1.25-1.8594 2.0312-1.1562 0.76562-2.8906 0.76562-0.4375 0-0.98438-0.0625-0.53125-0.0625-1.0781-0.21875-0.54688-0.14062-1.0625-0.375-0.51563-0.25-0.89063-0.625l0.60938-2.1406q0.8125 0.60937 1.7188 0.85937 0.90625 0.23438 1.5938 0.23438 1.0312 0 1.7031-0.45313 0.67188-0.45312 1.0625-1.1875 0.40625-0.73437 0.57813-1.6406 0.17187-0.90625 0.17187-1.8125 0-0.1875 0-0.34375 0-0.17188-0.0156-0.35938zm-5.1406-3.2031q0 0.51562 0.0937 1.0156 0.10937 0.48438 0.35937 0.85938 0.26563 0.375 0.6875 0.59375 0.42188 0.21875 1.0625 0.21875 1.25 0 1.875-0.79688 0.625-0.8125 0.625-2.0625 0-1.2656-0.64062-2.0156-0.64063-0.76563-1.7344-0.76563t-1.7188 0.78125q-0.60937 0.78125-0.60937 2.1719zm15.204 11.062h-2.8125v-11.891l-1.9844 0.875-0.54688-2.4375 5.3438-2.7031zm3.7418-1.4375q0-0.34375 0.125-0.65625 0.14063-0.32813 0.375-0.57813 0.25-0.26562 0.54688-0.40625 0.3125-0.15625 0.6875-0.15625 0.34375 0 0.65625 0.15625 0.32812 0.14063 0.57812 0.40625 0.26563 0.25 0.40625 0.57813 0.14063 0.3125 0.14063 0.65625 0 0.35937-0.14063 0.67187-0.14062 0.29688-0.40625 0.54688-0.25 0.25-0.57812 0.375-0.3125 0.14062-0.65625 0.14062-0.70313 0-1.2188-0.51562-0.51563-0.51563-0.51563-1.2188zm0-7.9062q0-0.34375 0.125-0.65625 0.14063-0.32813 0.375-0.57813 0.25-0.26562 0.54688-0.40625 0.3125-0.15625 0.6875-0.15625 0.34375 0 0.65625 0.15625 0.32812 0.14063 0.57812 0.40625 0.26563 0.25 0.40625 0.57813 0.14063 0.3125 0.14063 0.65625 0 0.35937-0.14063 0.67187-0.14062 0.29688-0.40625 0.54688-0.25 0.25-0.57812 0.39062-0.3125 0.125-0.65625 0.125-0.70313 0-1.2188-0.51562-0.51563-0.51563-0.51563-1.2188zm6.8294-5.625q0.92188-0.5625 2.125-0.92188 1.2188-0.375 2.4219-0.375 1.0312 0 1.875 0.29688 0.85937 0.28125 1.4844 0.8125t0.96875 1.2656q0.34375 0.71875 0.34375 1.6094 0 1.2969-0.67187 2.125-0.65625 0.8125-1.6562 1.375 1.4688 0.48437 2.2812 1.4688 0.82812 0.96875 0.82812 2.5625 0 1.0312-0.375 1.9531-0.35937 0.90625-1.125 1.5938-0.75 0.6875-1.875 1.0938t-2.625 0.40625q-3.0312 0-4.9844-1.6719l0.6875-2.2188q0.85937 0.70312 1.9062 1.125 1.0469 0.40625 2.25 0.40625 1.5469 0 2.3281-0.71875 0.79688-0.71875 0.79688-2.1094 0-1.25-0.71875-1.9688t-2.4062-0.71875h-0.65625v-2.1406h0.75q1.0781 0 1.6562-0.67188 0.59375-0.6875 0.59375-1.8125 0-1.0156-0.60938-1.4062-0.60937-0.40625-1.4688-0.40625-0.45312 0-0.96875 0.0937-0.5 0.0937-0.96875 0.28125-0.45312 0.1875-0.85937 0.42188-0.40625 0.21875-0.70313 0.5zm19.006-1.2969q1.5625 0 2.7656 0.67188 1.2188 0.67187 2.0469 1.7969 0.84375 1.125 1.2656 2.6094 0.4375 1.4688 0.4375 3.1094 0 1.6406-0.45313 3.1562-0.4375 1.5-1.2812 2.6719-0.84375 1.1562-2.0938 1.8594-1.25 0.6875-2.8594 0.6875-1.5938 0-2.7812-0.65625-1.1875-0.67187-1.9688-1.7969t-1.1875-2.5938q-0.40625-1.4844-0.40625-3.125 0-1.7344 0.4375-3.2656 0.45312-1.5312 1.2812-2.6719 0.82812-1.1406 2.0312-1.7969 1.2188-0.65625 2.7656-0.65625zm-0.0781 14.203q0.9375 0 1.6094-0.4375 0.67188-0.45313 1.1094-1.2656t0.65625-1.9062q0.21875-1.1094 0.21875-2.375 0-1.2969-0.21875-2.375-0.21875-1.0781-0.67188-1.8594-0.45312-0.78125-1.1406-1.2031-0.67188-0.4375-1.5781-0.4375t-1.5625 0.4375q-0.64062 0.42188-1.0469 1.1875-0.40625 0.76563-0.60938 1.8594-0.1875 1.0938-0.1875 2.3906 0 2.9531 0.89063 4.4688 0.89062 1.5156 2.5312 1.5156zm13.834 2.0625h-2.8125v-11.891l-1.9844 0.875-0.54687-2.4375 5.3438-2.7031zm3.3668-15q0.46875-0.25 1.0625-0.46875 0.60937-0.23438 1.25-0.42188 0.65625-0.1875 1.3125-0.28125 0.65625-0.0937 1.2969-0.0937 1.0312 0 1.9062 0.28125 0.89063 0.28125 1.5 0.8125 0.625 0.51563 0.98438 1.2656 0.35937 0.73437 0.35937 1.6406 0 1.25-0.625 2.4844-0.625 1.2344-1.5781 2.4844-0.9375 1.2344-2.0625 2.4531-1.125 1.2031-2.0938 2.3906h6.5312v2.4531h-9.9062v-2.4531q0.95312-1.2969 2.1562-2.5469 1.2188-1.2656 2.2812-2.4531 1.0625-1.2031 1.7969-2.3594 0.73438-1.1562 0.73438-2.25 0-1.0469-0.6875-1.4844-0.6875-0.45312-1.7812-0.45312-1.0625 0-2.0781 0.34375-1.0156 0.32812-1.7969 0.76562zm12.832 0.0312q0.92188-0.5625 2.125-0.92188 1.2188-0.375 2.4219-0.375 1.0312 0 1.875 0.29688 0.85937 0.28125 1.4844 0.8125t0.96875 1.2656q0.34375 0.71875 0.34375 1.6094 0 1.2969-0.67187 2.125-0.65625 0.8125-1.6562 1.375 1.4688 0.48437 2.2812 1.4688 0.82812 0.96875 0.82812 2.5625 0 1.0312-0.375 1.9531-0.35937 0.90625-1.125 1.5938-0.75 0.6875-1.875 1.0938t-2.625 0.40625q-3.0312 0-4.9844-1.6719l0.6875-2.2188q0.85937 0.70312 1.9062 1.125 1.0469 0.40625 2.25 0.40625 1.5469 0 2.3281-0.71875 0.79688-0.71875 0.79688-2.1094 0-1.25-0.71875-1.9688t-2.4062-0.71875h-0.65625v-2.1406h0.75q1.0781 0 1.6562-0.67188 0.59375-0.6875 0.59375-1.8125 0-1.0156-0.60938-1.4062-0.60937-0.40625-1.4688-0.40625-0.45312 0-0.96875 0.0937-0.5 0.0937-0.96875 0.28125-0.45312 0.1875-0.85937 0.42188-0.40625 0.21875-0.70313 0.5zm17.397 9.0156-4.8281-3.2031 0.4375-2.2656 6.9844 4.7344v1.5938l-7 4.8281-0.4375-2.2969 4.8438-3.2656z" fill="#fff"/>
<path d="m376.92 337.14v47.836h-245.04v47.849" fill-opacity="0"/>
<path d="m376.92 337.14v47.836h-241.24" fill-rule="evenodd" stroke="#9fc5e8" stroke-linejoin="round" stroke-width="8"/>
<path d="m122.51 383.93 10.297 37.237 16.048-35.144z" fill="#9fc5e8" fill-rule="evenodd" stroke="#9fc5e8" stroke-width="8"/>
<path d="m376.92 337.14v48.503h0.063v47.182" fill-opacity="0"/>
<path d="m376.92 337.14v47.685" fill-rule="evenodd" stroke="#9fc5e8" stroke-linejoin="round" stroke-width="8"/>
<path d="m363.71 384.84 13.262 36.287 13.166-36.322z" fill="#9fc5e8" fill-rule="evenodd" stroke="#9fc5e8" stroke-width="8"/>
<path d="m376.92 337.14v47.836h245.04v47.849" fill-opacity="0"/>
<path d="m376.92 337.14v47.836h241.24" fill-rule="evenodd" stroke="#9fc5e8" stroke-linejoin="round" stroke-width="8"/>
<path d="m604.99 386.02 16.048 35.144 10.297-37.237z" fill="#9fc5e8" fill-rule="evenodd" stroke="#9fc5e8" stroke-width="8"/>
</svg>
